<?xml version="1.0" encoding="utf-8"?>
<!-- Generator: Adobe Illustrator 20.0.0, SVG Export Plug-In . SVG Version: 6.00 Build 0)  -->
<svg version="1.1" id="Layer_1" xmlns="http://www.w3.org/2000/svg" xmlns:xlink="http://www.w3.org/1999/xlink" x="0px" y="0px"
	 viewBox="0 0 250 500" style="enable-background:new 0 0 250 500;" xml:space="preserve">
<style type="text/css">
	.st0{fill:#D4DFE5;}
</style>
<g>
	<g>
		<path class="st0" d="M142.7,492.6c-0.4,0-0.7-0.2-0.9-0.6c-0.2-0.5,0-1.1,0.5-1.3c0,0,1.6-0.7,4.3-2.1c0.5-0.2,1.1-0.1,1.3,0.4
			c0.2,0.5,0.1,1.1-0.4,1.3c-2.8,1.5-4.3,2.2-4.4,2.2C143,492.5,142.9,492.6,142.7,492.6z M151.3,488.1c-0.3,0-0.7-0.2-0.8-0.5
			c-0.3-0.5-0.1-1,0.4-1.3c1.4-0.8,2.7-1.6,4.1-2.5c0.5-0.3,1-0.1,1.3,0.3c0.3,0.5,0.1,1-0.3,1.3c-1.4,0.9-2.8,1.7-4.2,2.5
			C151.6,488,151.5,488.1,151.3,488.1z M159.5,483c-0.3,0-0.6-0.2-0.8-0.4c-0.3-0.4-0.2-1,0.3-1.3c1.3-0.8,2.6-1.7,4-2.7
			c0.4-0.3,1-0.2,1.3,0.2c0.3,0.4,0.2,1-0.2,1.3c-1.3,0.9-2.7,1.8-4,2.7C159.9,482.9,159.7,483,159.5,483z M167.4,477.5
			c-0.3,0-0.6-0.1-0.8-0.4c-0.3-0.4-0.2-1,0.2-1.3c1.3-0.9,2.5-1.9,3.8-2.9c0.4-0.3,1-0.2,1.3,0.2c0.3,0.4,0.2,1-0.2,1.3
			c-1.3,1-2.6,2-3.9,2.9C167.8,477.5,167.6,477.5,167.4,477.5z M175.1,471.7c-0.3,0-0.6-0.1-0.7-0.4c-0.3-0.4-0.3-1,0.1-1.4
			c1.2-1,2.4-2,3.7-3c0.4-0.3,1-0.3,1.4,0.1c0.3,0.4,0.3,1-0.1,1.4c-1.3,1.1-2.5,2.1-3.7,3.1C175.5,471.6,175.3,471.7,175.1,471.7z
			 M182.4,465.4c-0.3,0-0.5-0.1-0.7-0.3c-0.4-0.4-0.3-1,0.1-1.4c1.2-1,2.4-2.1,3.5-3.2c0.4-0.4,1-0.3,1.4,0c0.4,0.4,0.3,1,0,1.4
			c-1.2,1.1-2.4,2.2-3.6,3.3C182.9,465.4,182.7,465.4,182.4,465.4z M189.5,458.9c-0.2,0-0.5-0.1-0.7-0.3c-0.4-0.4-0.4-1,0-1.4
			c1.1-1.1,2.3-2.2,3.4-3.4c0.4-0.4,1-0.4,1.4,0c0.4,0.4,0.4,1,0,1.4c-1.1,1.2-2.3,2.3-3.4,3.4C189.9,458.8,189.7,458.9,189.5,458.9
			z M196.2,452c-0.2,0-0.5-0.1-0.7-0.3c-0.4-0.4-0.4-1-0.1-1.4c1.1-1.2,2.1-2.3,3.2-3.5c0.4-0.4,1-0.4,1.4-0.1
			c0.4,0.4,0.4,1,0.1,1.4c-1.1,1.2-2.2,2.4-3.2,3.6C196.7,451.9,196.4,452,196.2,452z M202.5,444.8c-0.2,0-0.4-0.1-0.6-0.2
			c-0.4-0.3-0.5-0.9-0.1-1.4c1-1.2,2-2.4,3-3.7c0.3-0.4,0.9-0.5,1.4-0.2c0.4,0.3,0.5,0.9,0.2,1.4c-1,1.3-2,2.5-3.1,3.7
			C203.1,444.7,202.8,444.8,202.5,444.8z M208.5,437.3c-0.2,0-0.4-0.1-0.6-0.2c-0.4-0.3-0.5-0.9-0.2-1.3c1-1.3,1.9-2.5,2.8-3.8
			c0.3-0.4,0.9-0.5,1.3-0.2c0.4,0.3,0.5,0.9,0.2,1.3c-1,1.3-1.9,2.6-2.9,3.9C209.1,437.1,208.8,437.3,208.5,437.3z M214.2,429.5
			c-0.2,0-0.4-0.1-0.5-0.2c-0.4-0.3-0.6-0.9-0.3-1.3c0.9-1.3,1.8-2.6,2.6-4c0.3-0.4,0.9-0.6,1.3-0.3c0.4,0.3,0.6,0.9,0.3,1.3
			c-0.9,1.4-1.8,2.7-2.7,4C214.8,429.3,214.5,429.5,214.2,429.5z M219.4,421.4c-0.2,0-0.3,0-0.5-0.1c-0.5-0.3-0.6-0.9-0.3-1.3
			c0.8-1.3,1.6-2.7,2.4-4.1c0.3-0.5,0.9-0.6,1.3-0.4c0.5,0.3,0.6,0.9,0.4,1.3c-0.8,1.4-1.6,2.8-2.5,4.2
			C220,421.2,219.7,421.4,219.4,421.4z M224.2,413.1c-0.2,0-0.3,0-0.5-0.1c-0.5-0.3-0.6-0.8-0.4-1.3c0.8-1.4,1.5-2.8,2.2-4.2
			c0.2-0.5,0.8-0.7,1.3-0.4c0.5,0.2,0.7,0.8,0.4,1.3c-0.7,1.4-1.5,2.9-2.2,4.3C224.9,412.9,224.5,413.1,224.2,413.1z M228.5,404.5
			c-0.1,0-0.3,0-0.4-0.1c-0.5-0.2-0.7-0.8-0.5-1.3c0.7-1.4,1.3-2.9,2-4.3c0.2-0.5,0.8-0.7,1.3-0.5c0.5,0.2,0.7,0.8,0.5,1.3
			c-0.7,1.5-1.3,2.9-2,4.4C229.2,404.3,228.9,404.5,228.5,404.5z M232.5,395.7c-0.1,0-0.2,0-0.4-0.1c-0.5-0.2-0.7-0.8-0.5-1.3
			c0.6-1.5,1.2-2.9,1.8-4.4c0.2-0.5,0.8-0.7,1.2-0.5c0.5,0.2,0.7,0.7,0.6,1.2c-0.6,1.5-1.2,3-1.8,4.5
			C233.2,395.5,232.8,395.7,232.5,395.7z M235.9,386.8c-0.1,0-0.2,0-0.3-0.1c-0.5-0.2-0.8-0.7-0.6-1.2c0.5-1.5,1-3,1.6-4.5
			c0.2-0.5,0.7-0.8,1.2-0.6c0.5,0.2,0.8,0.7,0.6,1.2c-0.5,1.5-1,3.1-1.6,4.6C236.7,386.5,236.3,386.8,235.9,386.8z M238.9,377.6
			c-0.1,0-0.2,0-0.3,0c-0.5-0.2-0.8-0.7-0.6-1.2c0.5-1.5,0.9-3,1.3-4.6c0.1-0.5,0.7-0.8,1.2-0.7c0.5,0.1,0.8,0.7,0.7,1.2
			c-0.4,1.6-0.9,3.1-1.3,4.6C239.7,377.4,239.4,377.6,238.9,377.6z M241.5,368.4c-0.1,0-0.2,0-0.2,0c-0.5-0.1-0.8-0.6-0.7-1.2
			c0.4-1.5,0.7-3.1,1.1-4.7c0.1-0.5,0.6-0.8,1.1-0.7c0.5,0.1,0.8,0.6,0.7,1.1c-0.4,1.6-0.7,3.1-1.1,4.7
			C242.3,368.1,241.9,368.4,241.5,368.4z M243.6,359c-0.1,0-0.1,0-0.2,0c-0.5-0.1-0.9-0.6-0.8-1.1c0.3-1.6,0.6-3.1,0.9-4.7
			c0.1-0.5,0.6-0.9,1.1-0.8c0.5,0.1,0.9,0.6,0.8,1.1c-0.3,1.6-0.6,3.2-0.9,4.7C244.4,358.7,244,359,243.6,359z M245.2,349.5
			c0,0-0.1,0-0.1,0c-0.5-0.1-0.9-0.6-0.8-1.1c0.2-1.6,0.5-3.1,0.7-4.7c0.1-0.5,0.6-0.9,1.1-0.8c0.5,0.1,0.9,0.5,0.8,1.1
			c-0.2,1.6-0.4,3.2-0.7,4.8C246.1,349.2,245.7,349.5,245.2,349.5z M246.5,340c0,0-0.1,0-0.1,0c-0.5-0.1-0.9-0.5-0.9-1.1
			c0.2-1.6,0.3-3.2,0.4-4.8c0-0.5,0.5-0.9,1-0.9c0.5,0,0.9,0.5,0.9,1c-0.1,1.6-0.3,3.2-0.4,4.8C247.4,339.6,246.9,340,246.5,340z
			 M247.2,330.4C247.2,330.4,247.2,330.4,247.2,330.4c-0.6,0-1-0.5-1-1c0.1-1.6,0.2-3.2,0.2-4.8c0-0.5,0.5-0.9,1-0.9
			c0.5,0,0.9,0.5,0.9,1c-0.1,1.6-0.1,3.2-0.2,4.8C248.2,330,247.7,330.4,247.2,330.4z M247.6,320.8
			C247.6,320.8,247.6,320.8,247.6,320.8c-0.5,0-1-0.4-1-1c0-1.5,0-3,0-4.4V315c0-0.5,0.4-1,1-1s1,0.4,1,1v0.3c0,1.5,0,3,0,4.5
			C248.6,320.4,248.1,320.8,247.6,320.8z M247.6,311.2c-0.5,0-1-0.4-1-0.9c0-1.6-0.1-3.2-0.1-4.8c0-0.5,0.4-1,0.9-1
			c0.5,0,1,0.4,1,0.9c0.1,1.6,0.1,3.2,0.1,4.8C248.6,310.7,248.2,311.2,247.6,311.2C247.6,311.2,247.6,311.2,247.6,311.2z
			 M247.2,301.6c-0.5,0-0.9-0.4-1-0.9c-0.1-1.6-0.2-3.2-0.3-4.8c0-0.5,0.4-1,0.9-1c0.5,0,1,0.4,1,0.9c0.1,1.6,0.2,3.2,0.3,4.8
			C248.2,301.1,247.8,301.5,247.2,301.6C247.3,301.6,247.2,301.6,247.2,301.6z M246.5,292c-0.5,0-0.9-0.4-1-0.9
			c-0.2-1.6-0.3-3.2-0.5-4.8c-0.1-0.5,0.3-1,0.8-1.1c0.5-0.1,1,0.3,1.1,0.8c0.2,1.6,0.3,3.2,0.5,4.8
			C247.5,291.5,247.1,291.9,246.5,292C246.5,292,246.5,292,246.5,292z M245.4,282.4c-0.5,0-0.9-0.4-1-0.8c-0.2-1.6-0.4-3.2-0.7-4.7
			c-0.1-0.5,0.3-1,0.8-1.1c0.5-0.1,1,0.3,1.1,0.8c0.2,1.6,0.5,3.2,0.7,4.8c0.1,0.5-0.3,1-0.8,1.1
			C245.5,282.4,245.4,282.4,245.4,282.4z M244,272.9c-0.5,0-0.9-0.3-0.9-0.8c-0.3-1.6-0.5-3.1-0.8-4.7c-0.1-0.5,0.3-1,0.8-1.1
			c0.5-0.1,1,0.3,1.1,0.8c0.3,1.6,0.6,3.2,0.8,4.8c0.1,0.5-0.3,1-0.8,1.1C244.1,272.9,244,272.9,244,272.9z M242.3,263.4
			c-0.5,0-0.9-0.3-0.9-0.8c-0.3-1.6-0.6-3.1-1-4.7c-0.1-0.5,0.2-1,0.7-1.1c0.5-0.1,1,0.2,1.1,0.7c0.3,1.6,0.7,3.2,1,4.7
			c0.1,0.5-0.2,1-0.8,1.1C242.4,263.4,242.3,263.4,242.3,263.4z M240.3,254c-0.4,0-0.8-0.3-0.9-0.7c-0.4-1.5-0.7-3.1-1.1-4.7
			c-0.1-0.5,0.2-1,0.7-1.2c0.5-0.1,1,0.2,1.2,0.7c0.4,1.6,0.7,3.1,1.1,4.7c0.1,0.5-0.2,1-0.7,1.2C240.4,254,240.3,254,240.3,254z
			 M238,244.7c-0.4,0-0.8-0.3-0.9-0.7l-0.1-0.2c-0.4-1.5-0.8-2.9-1.2-4.4c-0.1-0.5,0.2-1,0.7-1.2c0.5-0.1,1,0.2,1.2,0.7
			c0.4,1.5,0.8,2.9,1.2,4.4l0.1,0.2c0.1,0.5-0.2,1-0.7,1.2C238.2,244.7,238.1,244.7,238,244.7z M235.5,235.4c-0.4,0-0.8-0.3-0.9-0.7
			c-0.4-1.5-0.9-3.1-1.4-4.6c-0.2-0.5,0.1-1,0.6-1.2c0.5-0.2,1,0.1,1.2,0.6c0.5,1.5,0.9,3.1,1.4,4.6c0.1,0.5-0.1,1-0.7,1.2
			C235.7,235.4,235.6,235.4,235.5,235.4z M232.7,226.2c-0.4,0-0.8-0.3-0.9-0.7c-0.5-1.5-1-3-1.5-4.5c-0.2-0.5,0.1-1,0.6-1.2
			c0.5-0.2,1,0.1,1.2,0.6c0.5,1.5,1,3,1.5,4.6c0.2,0.5-0.1,1-0.6,1.2C232.9,226.2,232.8,226.2,232.7,226.2z M229.6,217.1
			c-0.4,0-0.8-0.2-0.9-0.6c-0.5-1.5-1.1-3-1.7-4.5c-0.2-0.5,0.1-1.1,0.6-1.2c0.5-0.2,1.1,0.1,1.2,0.6c0.6,1.5,1.1,3,1.7,4.5
			c0.2,0.5-0.1,1.1-0.6,1.2C229.8,217.1,229.7,217.1,229.6,217.1z M226.2,208.1c-0.4,0-0.7-0.2-0.9-0.6c-0.6-1.5-1.2-3-1.8-4.4
			c-0.2-0.5,0-1.1,0.5-1.3c0.5-0.2,1.1,0,1.3,0.5c0.6,1.5,1.2,3,1.8,4.5c0.2,0.5,0,1.1-0.5,1.2C226.4,208.1,226.3,208.1,226.2,208.1
			z M222.5,199.2c-0.4,0-0.7-0.2-0.9-0.6c-0.6-1.5-1.3-2.9-1.9-4.4c-0.2-0.5,0-1.1,0.5-1.3c0.5-0.2,1.1,0,1.3,0.5
			c0.7,1.5,1.3,2.9,2,4.4c0.2,0.5,0,1.1-0.5,1.3C222.7,199.2,222.6,199.2,222.5,199.2z M218.5,190.5c-0.4,0-0.7-0.2-0.9-0.6
			c-0.7-1.5-1.4-2.9-2.1-4.3c-0.2-0.5,0-1.1,0.4-1.3c0.5-0.2,1.1,0,1.3,0.4c0.7,1.4,1.4,2.9,2.1,4.3c0.2,0.5,0,1.1-0.5,1.3
			C218.8,190.5,218.7,190.5,218.5,190.5z M214.3,181.9c-0.3,0-0.7-0.2-0.9-0.5c-0.7-1.4-1.5-2.8-2.2-4.2c-0.2-0.5-0.1-1.1,0.4-1.3
			c0.5-0.3,1.1-0.1,1.3,0.4c0.8,1.4,1.5,2.8,2.2,4.3c0.2,0.5,0.1,1.1-0.4,1.3C214.6,181.8,214.4,181.9,214.3,181.9z M209.8,173.4
			c-0.3,0-0.7-0.2-0.8-0.5c-0.8-1.4-1.6-2.8-2.4-4.2c-0.3-0.5-0.1-1,0.4-1.3c0.5-0.3,1-0.1,1.3,0.4c0.8,1.4,1.6,2.8,2.4,4.2
			c0.3,0.5,0.1,1.1-0.4,1.3C210.1,173.3,209.9,173.4,209.8,173.4z M205,165c-0.3,0-0.6-0.2-0.8-0.5c-0.8-1.4-1.7-2.7-2.5-4.1
			c-0.3-0.5-0.1-1,0.3-1.3c0.5-0.3,1-0.1,1.3,0.3c0.8,1.4,1.7,2.7,2.5,4.1c0.3,0.5,0.1,1-0.3,1.3C205.3,165,205.1,165,205,165z
			 M199.9,156.9c-0.3,0-0.6-0.2-0.8-0.4c-0.9-1.3-1.7-2.7-2.6-4c-0.3-0.4-0.2-1,0.3-1.3c0.4-0.3,1-0.2,1.3,0.3
			c0.9,1.3,1.8,2.7,2.6,4c0.3,0.4,0.2,1-0.3,1.3C200.3,156.8,200.1,156.9,199.9,156.9z M194.6,148.9c-0.3,0-0.6-0.1-0.8-0.4
			c-0.9-1.3-1.8-2.6-2.7-3.9c-0.3-0.4-0.2-1,0.2-1.3c0.4-0.3,1-0.2,1.3,0.2c0.9,1.3,1.9,2.6,2.8,4c0.3,0.4,0.2,1-0.2,1.3
			C195,148.8,194.8,148.9,194.6,148.9z M189,141c-0.3,0-0.6-0.1-0.8-0.4c-0.9-1.3-1.9-2.6-2.9-3.8c-0.3-0.4-0.2-1,0.2-1.3
			c0.4-0.3,1-0.2,1.3,0.2c1,1.3,1.9,2.6,2.9,3.9c0.3,0.4,0.2,1-0.2,1.3C189.4,141,189.2,141,189,141z M183.2,133.4
			c-0.3,0-0.6-0.1-0.8-0.4c-1-1.3-2-2.5-3-3.7c-0.3-0.4-0.3-1,0.1-1.4c0.4-0.3,1-0.3,1.4,0.1c1,1.2,2,2.5,3,3.8
			c0.3,0.4,0.3,1-0.2,1.4C183.6,133.3,183.4,133.4,183.2,133.4z M177.1,125.9c-0.3,0-0.5-0.1-0.7-0.3c-1-1.2-2.1-2.4-3.1-3.6
			c-0.3-0.4-0.3-1,0.1-1.4c0.4-0.3,1-0.3,1.4,0.1c1,1.2,2.1,2.4,3.1,3.7c0.3,0.4,0.3,1-0.1,1.4C177.6,125.8,177.4,125.9,177.1,125.9
			z M170.8,118.6c-0.3,0-0.5-0.1-0.7-0.3c-1.1-1.2-2.1-2.4-3.2-3.6c-0.4-0.4-0.3-1,0.1-1.4c0.4-0.4,1-0.3,1.4,0.1
			c1.1,1.2,2.2,2.4,3.2,3.6c0.4,0.4,0.3,1-0.1,1.4C171.3,118.6,171.1,118.6,170.8,118.6z M164.3,111.6c-0.3,0-0.5-0.1-0.7-0.3
			c-1.1-1.2-2.2-2.3-3.3-3.5c-0.4-0.4-0.4-1,0-1.4c0.4-0.4,1-0.4,1.4,0c1.1,1.1,2.2,2.3,3.3,3.5c0.4,0.4,0.3,1,0,1.4
			C164.8,111.5,164.6,111.6,164.3,111.6z M157.6,104.7c-0.2,0-0.5-0.1-0.7-0.3c-1.1-1.1-2.3-2.2-3.4-3.4c-0.4-0.4-0.4-1,0-1.4
			c0.4-0.4,1-0.4,1.4,0c1.2,1.1,2.3,2.2,3.4,3.4c0.4,0.4,0.4,1,0,1.4C158.1,104.6,157.9,104.7,157.6,104.7z M150.7,98
			c-0.2,0-0.5-0.1-0.7-0.3c-1.2-1.1-2.3-2.2-3.5-3.3c-0.4-0.4-0.4-1-0.1-1.4c0.4-0.4,1-0.4,1.4-0.1c1.2,1.1,2.4,2.2,3.5,3.3
			c0.4,0.4,0.4,1,0,1.4C151.2,97.9,150.9,98,150.7,98z M143.6,91.5c-0.2,0-0.5-0.1-0.6-0.2c-1.2-1.1-2.4-2.1-3.6-3.2
			c-0.4-0.3-0.4-1-0.1-1.4c0.3-0.4,1-0.4,1.4-0.1c1.2,1,2.4,2.1,3.6,3.2c0.4,0.4,0.4,1,0.1,1.4C144.1,91.4,143.8,91.5,143.6,91.5z
			 M136.3,85.2c-0.2,0-0.4-0.1-0.6-0.2c-1.2-1-2.5-2-3.7-3c-0.4-0.3-0.5-0.9-0.1-1.4c0.3-0.4,0.9-0.5,1.4-0.1c1.2,1,2.5,2,3.7,3.1
			c0.4,0.3,0.5,0.9,0.1,1.4C136.8,85.1,136.6,85.2,136.3,85.2z M128.8,79.2c-0.2,0-0.4-0.1-0.6-0.2c-1.3-1-2.5-2-3.8-2.9
			c-0.4-0.3-0.5-0.9-0.2-1.3c0.3-0.4,0.9-0.5,1.3-0.2c1.3,1,2.5,2,3.8,3c0.4,0.3,0.5,0.9,0.2,1.4C129.4,79.1,129.1,79.2,128.8,79.2z
			 M121.2,73.3c-0.2,0-0.4-0.1-0.6-0.2c-1.3-1-2.6-1.9-3.9-2.8c-0.4-0.3-0.5-0.9-0.2-1.3c0.3-0.4,0.9-0.5,1.3-0.2
			c1.3,0.9,2.6,1.9,3.9,2.9c0.4,0.3,0.5,0.9,0.2,1.3C121.8,73.2,121.5,73.3,121.2,73.3z M113.4,67.7c-0.2,0-0.4-0.1-0.6-0.2
			c-1.3-0.9-2.6-1.8-3.9-2.7c-0.4-0.3-0.5-0.9-0.2-1.3c0.3-0.4,0.9-0.5,1.3-0.2c1.3,0.9,2.6,1.8,4,2.8c0.4,0.3,0.5,0.9,0.2,1.3
			C114,67.5,113.7,67.7,113.4,67.7z M105.5,62.2c-0.2,0-0.4-0.1-0.5-0.2c-1.3-0.9-2.7-1.8-4-2.6c-0.4-0.3-0.6-0.9-0.3-1.3
			c0.3-0.4,0.9-0.6,1.3-0.3c1.3,0.9,2.7,1.8,4,2.7c0.4,0.3,0.6,0.9,0.3,1.3C106.1,62.1,105.8,62.2,105.5,62.2z M97.4,57
			c-0.2,0-0.4,0-0.5-0.1c-1.4-0.9-2.7-1.7-4.1-2.5c-0.5-0.3-0.6-0.9-0.3-1.3c0.3-0.5,0.9-0.6,1.3-0.3c1.4,0.8,2.7,1.7,4.1,2.5
			c0.4,0.3,0.6,0.9,0.3,1.3C98,56.8,97.7,57,97.4,57z M89.2,52c-0.2,0-0.3,0-0.5-0.1c-1.4-0.8-2.8-1.6-4.1-2.4
			c-0.5-0.3-0.6-0.9-0.4-1.3c0.3-0.5,0.9-0.6,1.3-0.3c1.4,0.8,2.8,1.6,4.2,2.4c0.5,0.3,0.6,0.9,0.3,1.3C89.9,51.8,89.5,52,89.2,52z
			 M80.9,47.1c-0.2,0-0.3,0-0.5-0.1c-1.4-0.8-2.8-1.6-4.2-2.3c-0.5-0.3-0.6-0.8-0.4-1.3s0.8-0.6,1.3-0.4c1.4,0.8,2.8,1.5,4.2,2.3
			c0.5,0.3,0.6,0.8,0.4,1.3C81.5,46.9,81.2,47.1,80.9,47.1z M72.4,42.5c-0.2,0-0.3,0-0.4-0.1c-1.4-0.8-2.8-1.5-4.3-2.2
			c-0.5-0.2-0.7-0.8-0.4-1.3c0.2-0.5,0.8-0.7,1.3-0.4c1.4,0.7,2.8,1.5,4.3,2.2c0.5,0.2,0.6,0.8,0.4,1.3
			C73.1,42.3,72.8,42.5,72.4,42.5z M63.9,38.1c-0.1,0-0.3,0-0.4-0.1c-1.5-0.7-2.9-1.4-4.3-2.1c-0.5-0.2-0.7-0.8-0.4-1.3
			c0.2-0.5,0.8-0.7,1.3-0.4c1.4,0.7,2.9,1.4,4.3,2.1c0.5,0.2,0.7,0.8,0.4,1.3C64.6,37.9,64.2,38.1,63.9,38.1z M55.2,33.9
			c-0.1,0-0.3,0-0.4-0.1c-1.5-0.7-2.9-1.4-4.4-2C50,31.6,49.8,31,50,30.5c0.2-0.5,0.8-0.7,1.3-0.5c1.4,0.7,2.9,1.3,4.4,2
			c0.5,0.2,0.7,0.8,0.5,1.3C55.9,33.7,55.6,33.9,55.2,33.9z M46.5,29.9c-0.1,0-0.3,0-0.4-0.1c-1.5-0.7-3-1.3-4.4-1.9
			c-0.5-0.2-0.7-0.8-0.5-1.3c0.2-0.5,0.8-0.7,1.3-0.5c1.4,0.6,2.9,1.3,4.4,1.9c0.5,0.2,0.7,0.8,0.5,1.3
			C47.2,29.7,46.8,29.9,46.5,29.9z M37.6,26.1c-0.1,0-0.2,0-0.4-0.1c-1.5-0.6-3-1.2-4.5-1.8c-0.5-0.2-0.7-0.8-0.5-1.2
			c0.2-0.5,0.8-0.7,1.2-0.5c1.5,0.6,2.9,1.2,4.5,1.8c0.5,0.2,0.7,0.8,0.5,1.3C38.3,25.9,38,26.1,37.6,26.1z M28.7,22.6
			c-0.1,0-0.2,0-0.3-0.1c-1.6-0.6-3.1-1.2-4.5-1.7c-0.5-0.2-0.8-0.7-0.6-1.2c0.2-0.5,0.7-0.8,1.2-0.6c1.5,0.5,3,1.1,4.5,1.7
			c0.5,0.2,0.7,0.7,0.6,1.2C29.4,22.4,29,22.6,28.7,22.6z M19.6,19.3c-0.1,0-0.2,0-0.3-0.1c-1.6-0.6-3.1-1.1-4.5-1.5
			c-0.5-0.2-0.8-0.7-0.6-1.2c0.2-0.5,0.7-0.8,1.2-0.6c1.4,0.5,3,1,4.6,1.6c0.5,0.2,0.8,0.7,0.6,1.2C20.4,19,20,19.3,19.6,19.3z
			 M10.4,16.3c-0.1,0-0.2,0-0.3,0c-1.8-0.6-3.3-1-4.6-1.4c-0.5-0.1-0.8-0.7-0.7-1.2C5,13.1,5.6,12.8,6.1,13c1.3,0.4,2.8,0.8,4.6,1.4
			c0.5,0.2,0.8,0.7,0.6,1.2C11.2,16,10.9,16.3,10.4,16.3z"/>
	</g>
	<g>
		<g>
			<polygon class="st0" points="11.7,7.4 12.5,9.2 4.1,13.5 9,21.6 7.4,22.6 1.4,12.7 			"/>
		</g>
	</g>
</g>
</svg>
