<?xml version="1.0" encoding="utf-8"?>
<!-- Generator: Adobe Illustrator 20.0.0, SVG Export Plug-In . SVG Version: 6.00 Build 0)  -->
<svg version="1.1" id="Layer_1" xmlns="http://www.w3.org/2000/svg" xmlns:xlink="http://www.w3.org/1999/xlink" x="0px" y="0px"
	 viewBox="0 0 174 124" style="enable-background:new 0 0 174 124;" xml:space="preserve">
<style type="text/css">
	.st0{fill:url(#SVGID_1_);}
	.st1{fill:url(#SVGID_2_);}
	.st2{fill:url(#SVGID_3_);}
	.st3{fill:url(#SVGID_4_);}
</style>
<g>
	<g>
		<linearGradient id="SVGID_1_" gradientUnits="userSpaceOnUse" x1="-31.6138" y1="52.9846" x2="141.3862" y2="146.9846">
			<stop  offset="0" style="stop-color:#640EA2"/>
			<stop  offset="0.1761" style="stop-color:#921DBF"/>
			<stop  offset="0.3609" style="stop-color:#E877A7"/>
			<stop  offset="0.5207" style="stop-color:#FF763D"/>
			<stop  offset="0.6722" style="stop-color:#FF5F42"/>
			<stop  offset="0.8504" style="stop-color:#FF3F49"/>
			<stop  offset="1" style="stop-color:#FF2E4F"/>
		</linearGradient>
		<path class="st0" d="M2.2,73.7C2.2,73.7,2.2,73.7,2.2,73.7c-0.6-0.1-1-0.5-1-1.1c0,0,0.1-0.9,0.3-2.5c0.1-0.5,0.6-0.9,1.1-0.8
			c0.5,0.1,0.9,0.6,0.8,1.1c-0.2,1.5-0.3,2.4-0.3,2.4C3.2,73.3,2.7,73.7,2.2,73.7z"/>
	</g>
	<g>
		<linearGradient id="SVGID_2_" gradientUnits="userSpaceOnUse" x1="-4.2678" y1="2.6562" x2="168.7322" y2="96.6562">
			<stop  offset="0" style="stop-color:#640EA2"/>
			<stop  offset="0.1761" style="stop-color:#921DBF"/>
			<stop  offset="0.3609" style="stop-color:#E877A7"/>
			<stop  offset="0.5207" style="stop-color:#FF763D"/>
			<stop  offset="0.6722" style="stop-color:#FF5F42"/>
			<stop  offset="0.8504" style="stop-color:#FF3F49"/>
			<stop  offset="1" style="stop-color:#FF2E4F"/>
		</linearGradient>
		<path class="st1" d="M164.6,113.5c-0.5,0-1-0.4-1-1c0-1.5-0.1-3.2-0.2-5c0-0.5,0.4-1,0.9-1c0.5,0,1,0.4,1,0.9
			c0.1,1.8,0.1,3.5,0.2,5C165.6,113.1,165.2,113.5,164.6,113.5C164.6,113.5,164.6,113.5,164.6,113.5z M164.2,103.5
			c-0.5,0-1-0.4-1-0.9c-0.1-1.6-0.2-3.2-0.4-5c-0.1-0.5,0.4-1,0.9-1.1c0.5,0,1,0.4,1.1,0.9c0.2,1.7,0.3,3.4,0.4,5
			C165.2,103,164.8,103.5,164.2,103.5C164.2,103.5,164.2,103.5,164.2,103.5z M163.2,93.6c-0.5,0-0.9-0.4-1-0.9
			c-0.2-1.6-0.4-3.3-0.6-4.9c-0.1-0.5,0.3-1,0.8-1.1c0.5-0.1,1,0.3,1.1,0.8c0.2,1.7,0.5,3.4,0.7,5c0.1,0.5-0.3,1-0.9,1.1
			C163.3,93.6,163.3,93.6,163.2,93.6z M161.8,83.7c-0.5,0-0.9-0.3-1-0.8c-0.3-1.6-0.6-3.3-0.9-4.9c-0.1-0.5,0.2-1.1,0.8-1.2
			c0.5-0.1,1.1,0.2,1.2,0.8c0.3,1.6,0.6,3.3,0.9,4.9c0.1,0.5-0.3,1.1-0.8,1.1C161.9,83.7,161.9,83.7,161.8,83.7z M159.8,73.9
			c-0.5,0-0.9-0.3-1-0.8c-0.4-1.6-0.8-3.2-1.2-4.8c-0.1-0.5,0.2-1.1,0.7-1.2c0.5-0.1,1.1,0.2,1.2,0.7c0.4,1.6,0.8,3.2,1.2,4.9
			c0.1,0.5-0.2,1.1-0.7,1.2C160,73.9,159.9,73.9,159.8,73.9z M3.5,66.3c-0.1,0-0.1,0-0.2,0c-0.5-0.1-0.9-0.6-0.8-1.2
			c0.4-1.6,0.8-3.3,1.2-4.9c0.1-0.5,0.7-0.8,1.2-0.7c0.5,0.1,0.8,0.7,0.7,1.2c-0.4,1.6-0.8,3.2-1.2,4.8C4.3,66,3.9,66.3,3.5,66.3z
			 M157.3,64.3c-0.4,0-0.8-0.3-0.9-0.7c-0.5-1.6-1-3.2-1.5-4.7c-0.2-0.5,0.1-1.1,0.6-1.3c0.5-0.2,1.1,0.1,1.3,0.6
			c0.5,1.6,1.1,3.2,1.6,4.8c0.2,0.5-0.1,1.1-0.7,1.2C157.4,64.2,157.4,64.3,157.3,64.3z M6.1,56.7c-0.1,0-0.2,0-0.3-0.1
			c-0.5-0.2-0.8-0.7-0.6-1.3c0.5-1.6,1.1-3.2,1.7-4.7c0.2-0.5,0.8-0.8,1.3-0.6c0.5,0.2,0.8,0.8,0.6,1.3c-0.6,1.5-1.2,3.1-1.7,4.6
			C6.9,56.4,6.6,56.7,6.1,56.7z M154,54.8c-0.4,0-0.8-0.2-0.9-0.6c-0.6-1.5-1.2-3.1-1.9-4.6c-0.2-0.5,0-1.1,0.5-1.3
			c0.5-0.2,1.1,0,1.3,0.5c0.7,1.5,1.3,3.1,1.9,4.6c0.2,0.5-0.1,1.1-0.6,1.3C154.2,54.8,154.1,54.8,154,54.8z M9.8,47.4
			c-0.1,0-0.3,0-0.4-0.1c-0.5-0.2-0.7-0.8-0.5-1.3c0.7-1.5,1.5-3.1,2.2-4.5c0.3-0.5,0.9-0.7,1.3-0.4c0.5,0.3,0.7,0.9,0.4,1.3
			c-0.8,1.4-1.5,2.9-2.2,4.4C10.6,47.2,10.2,47.4,9.8,47.4z M150,45.7c-0.4,0-0.7-0.2-0.9-0.5c-0.7-1.5-1.5-3-2.3-4.4
			c-0.3-0.5-0.1-1.1,0.4-1.4c0.5-0.3,1.1-0.1,1.4,0.4c0.8,1.4,1.6,2.9,2.4,4.5c0.2,0.5,0,1.1-0.4,1.3
			C150.3,45.7,150.1,45.7,150,45.7z M14.5,38.6c-0.2,0-0.4,0-0.5-0.1c-0.5-0.3-0.6-0.9-0.3-1.4c0.9-1.4,1.8-2.9,2.8-4.2
			c0.3-0.4,0.9-0.6,1.4-0.2c0.4,0.3,0.6,0.9,0.2,1.4c-0.9,1.3-1.8,2.7-2.7,4.1C15.2,38.5,14.8,38.6,14.5,38.6z M145.1,37
			c-0.3,0-0.6-0.2-0.8-0.5c-0.9-1.4-1.8-2.8-2.8-4.1c-0.3-0.4-0.2-1.1,0.2-1.4c0.4-0.3,1.1-0.2,1.4,0.2c1,1.3,1.9,2.7,2.8,4.2
			c0.3,0.5,0.2,1.1-0.3,1.4C145.4,36.9,145.3,37,145.1,37z M20.2,30.5c-0.2,0-0.4-0.1-0.6-0.2c-0.4-0.3-0.5-1-0.1-1.4
			c1.1-1.3,2.2-2.6,3.3-3.8c0.4-0.4,1-0.4,1.4-0.1c0.4,0.4,0.4,1,0.1,1.4c-1.1,1.2-2.2,2.4-3.2,3.7C20.8,30.4,20.5,30.5,20.2,30.5z
			 M139.2,28.9c-0.3,0-0.6-0.1-0.8-0.4c-1-1.3-2.1-2.5-3.3-3.7c-0.4-0.4-0.4-1,0-1.4c0.4-0.4,1-0.4,1.4,0c1.1,1.2,2.3,2.5,3.3,3.8
			c0.3,0.4,0.3,1-0.1,1.4C139.7,28.8,139.4,28.9,139.2,28.9z M27,23.2c-0.3,0-0.5-0.1-0.7-0.3c-0.4-0.4-0.4-1,0-1.4
			c1.2-1.1,2.5-2.3,3.8-3.3c0.4-0.3,1.1-0.3,1.4,0.2c0.3,0.4,0.3,1.1-0.2,1.4c-1.3,1-2.5,2.1-3.7,3.2C27.5,23.1,27.3,23.2,27,23.2z
			 M132.4,21.7c-0.2,0-0.5-0.1-0.7-0.3c-1.2-1.1-2.5-2.2-3.7-3.2c-0.4-0.3-0.5-1-0.2-1.4c0.3-0.4,1-0.5,1.4-0.2
			c1.3,1,2.6,2.1,3.8,3.3c0.4,0.4,0.4,1,0.1,1.4C132.9,21.6,132.7,21.7,132.4,21.7z M34.8,16.9c-0.3,0-0.6-0.1-0.8-0.4
			c-0.3-0.5-0.2-1.1,0.3-1.4c1.4-1,2.8-1.9,4.3-2.7c0.5-0.3,1.1-0.1,1.4,0.4c0.3,0.5,0.1,1.1-0.4,1.4c-1.4,0.8-2.8,1.7-4.1,2.6
			C35.2,16.9,35,16.9,34.8,16.9z M124.6,15.5c-0.2,0-0.4-0.1-0.6-0.2c-1.3-0.9-2.7-1.8-4.2-2.6c-0.5-0.3-0.6-0.9-0.4-1.4
			c0.3-0.5,0.9-0.6,1.4-0.4c1.5,0.8,2.9,1.7,4.3,2.7c0.5,0.3,0.6,0.9,0.3,1.4C125.2,15.3,124.9,15.5,124.6,15.5z M43.4,11.9
			c-0.4,0-0.7-0.2-0.9-0.6c-0.2-0.5,0-1.1,0.5-1.3c1.5-0.7,3-1.4,4.6-2.1c0.5-0.2,1.1,0,1.3,0.5c0.2,0.5,0,1.1-0.5,1.3
			c-1.5,0.6-3,1.3-4.5,2C43.7,11.9,43.5,11.9,43.4,11.9z M115.9,10.6c-0.1,0-0.3,0-0.4-0.1c-1.5-0.7-3-1.3-4.5-1.9
			c-0.5-0.2-0.8-0.8-0.6-1.3c0.2-0.5,0.8-0.8,1.3-0.6c1.6,0.6,3.1,1.3,4.7,2c0.5,0.2,0.7,0.8,0.5,1.3
			C116.7,10.4,116.3,10.6,115.9,10.6z M52.6,8.1c-0.4,0-0.8-0.3-0.9-0.7c-0.2-0.5,0.1-1.1,0.6-1.3c1.6-0.5,3.2-1,4.8-1.4
			c0.5-0.1,1.1,0.2,1.2,0.7c0.1,0.5-0.2,1.1-0.7,1.2c-1.6,0.4-3.2,0.9-4.7,1.4C52.8,8.1,52.7,8.1,52.6,8.1z M106.6,7.1
			c-0.1,0-0.2,0-0.3,0c-1.5-0.5-3.1-0.9-4.7-1.2c-0.5-0.1-0.9-0.7-0.8-1.2c0.1-0.5,0.7-0.9,1.2-0.8c1.6,0.4,3.3,0.8,4.9,1.3
			c0.5,0.2,0.8,0.7,0.7,1.2C107.4,6.8,107.1,7.1,106.6,7.1z M62.2,5.6c-0.5,0-0.9-0.3-1-0.8c-0.1-0.5,0.2-1.1,0.8-1.2
			c1.6-0.3,3.3-0.6,5-0.8c0.5-0.1,1,0.3,1.1,0.8c0.1,0.5-0.3,1-0.8,1.1C65.6,5,64,5.3,62.4,5.6C62.3,5.6,62.3,5.6,62.2,5.6z
			 M96.9,4.9c-0.1,0-0.1,0-0.2,0c-1.6-0.2-3.2-0.5-4.9-0.6c-0.5-0.1-0.9-0.5-0.9-1.1c0.1-0.5,0.5-0.9,1.1-0.9c1.7,0.2,3.4,0.4,5,0.6
			C97.6,3,98,3.5,97.9,4.1C97.8,4.5,97.4,4.9,96.9,4.9z M72.1,4.2c-0.5,0-0.9-0.4-1-0.9c0-0.5,0.4-1,0.9-1.1c1.6-0.1,3.3-0.3,5-0.3
			c0.6,0,1,0.4,1,1c0,0.5-0.4,1-1,1C75.4,4,73.8,4.1,72.1,4.2C72.1,4.2,72.1,4.2,72.1,4.2z M87,3.9C87,3.9,87,3.9,87,3.9
			c-1.7-0.1-3.4-0.1-5-0.1c-0.5,0-1-0.5-1-1c0-0.5,0.4-1,1-1c0,0,0,0,0,0c1.7,0,3.3,0.1,5,0.1c0.5,0,1,0.5,0.9,1
			C88,3.5,87.5,3.9,87,3.9z"/>
	</g>
	<g>
		<linearGradient id="SVGID_3_" gradientUnits="userSpaceOnUse" x1="-14.4901" y1="21.4697" x2="158.5099" y2="115.4697">
			<stop  offset="0" style="stop-color:#640EA2"/>
			<stop  offset="0.1761" style="stop-color:#921DBF"/>
			<stop  offset="0.3609" style="stop-color:#E877A7"/>
			<stop  offset="0.5207" style="stop-color:#FF763D"/>
			<stop  offset="0.6722" style="stop-color:#FF5F42"/>
			<stop  offset="0.8504" style="stop-color:#FF3F49"/>
			<stop  offset="1" style="stop-color:#FF2E4F"/>
		</linearGradient>
		<path class="st2" d="M164.6,121C164.6,121,164.6,121,164.6,121c-0.6,0-1-0.5-1-1c0-0.7,0-1.5,0-2.5c0-0.5,0.4-1,1-1c0,0,0,0,0,0
			c0.5,0,1,0.5,1,1c0,1,0,1.8,0,2.5C165.6,120.6,165.1,121,164.6,121z"/>
	</g>
	<g>
		<g>
			<linearGradient id="SVGID_4_" gradientUnits="userSpaceOnUse" x1="-13.0645" y1="18.8459" x2="159.9355" y2="112.8459">
				<stop  offset="0" style="stop-color:#640EA2"/>
				<stop  offset="0.1761" style="stop-color:#921DBF"/>
				<stop  offset="0.3609" style="stop-color:#E877A7"/>
				<stop  offset="0.5207" style="stop-color:#FF763D"/>
				<stop  offset="0.6722" style="stop-color:#FF5F42"/>
				<stop  offset="0.8504" style="stop-color:#FF3F49"/>
				<stop  offset="1" style="stop-color:#FF2E4F"/>
			</linearGradient>
			<polygon class="st3" points="156.5,113.3 158,112 164.6,119.3 171.3,112.2 172.8,113.6 164.5,122.2 			"/>
		</g>
	</g>
</g>
</svg>
