<?xml version="1.0" encoding="utf-8"?>
<!-- Generator: Adobe Illustrator 20.0.0, SVG Export Plug-In . SVG Version: 6.00 Build 0)  -->
<svg version="1.1" id="Layer_1" xmlns="http://www.w3.org/2000/svg" xmlns:xlink="http://www.w3.org/1999/xlink" x="0px" y="0px"
	 viewBox="0 0 174 124" style="enable-background:new 0 0 174 124;" xml:space="preserve">
<style type="text/css">
	.st0{fill:#D4DFE5;}
</style>
<g>
	<g>
		<path class="st0" d="M2.2,50.3C2.2,50.3,2.2,50.3,2.2,50.3c-0.6,0.1-1,0.5-1,1.1c0,0,0.1,0.9,0.3,2.5c0.1,0.5,0.6,0.9,1.1,0.8
			c0.5-0.1,0.9-0.6,0.8-1.1c-0.2-1.5-0.3-2.4-0.3-2.4C3.2,50.7,2.7,50.3,2.2,50.3z"/>
	</g>
	<g>
		<path class="st0" d="M164.6,10.5c0.5,0,1,0.5,1,1c0,1.5-0.1,3.2-0.2,5c0,0.5-0.5,1-1,0.9c-0.5,0-1-0.5-0.9-1
			c0.1-1.8,0.1-3.5,0.2-5C163.6,10.9,164.1,10.5,164.6,10.5C164.6,10.5,164.6,10.5,164.6,10.5z M164.2,20.5c0.5,0,1,0.5,0.9,1.1
			c-0.1,1.6-0.2,3.3-0.4,5c-0.1,0.5-0.5,0.9-1.1,0.9c-0.5-0.1-0.9-0.5-0.9-1.1c0.2-1.7,0.3-3.4,0.4-5
			C163.2,20.9,163.7,20.5,164.2,20.5C164.2,20.5,164.2,20.5,164.2,20.5z M163.4,30.4c0.5,0.1,0.9,0.6,0.9,1.1
			c-0.2,1.6-0.4,3.3-0.7,5c-0.1,0.5-0.6,0.9-1.1,0.8c-0.5-0.1-0.9-0.6-0.8-1.1c0.2-1.7,0.5-3.3,0.6-4.9c0.1-0.5,0.5-0.9,1-0.9
			C163.3,30.4,163.3,30.4,163.4,30.4z M162,40.3c0.5,0.1,0.9,0.6,0.8,1.1c-0.3,1.7-0.6,3.3-0.9,4.9c-0.1,0.5-0.6,0.9-1.2,0.8
			c-0.5-0.1-0.9-0.6-0.8-1.2c0.3-1.6,0.6-3.2,0.9-4.9c0.1-0.5,0.5-0.8,1-0.8C161.9,40.3,161.9,40.3,162,40.3z M160.1,50.1
			c0.5,0.1,0.9,0.7,0.7,1.2c-0.4,1.6-0.8,3.3-1.2,4.9c-0.1,0.5-0.7,0.8-1.2,0.7c-0.5-0.1-0.8-0.7-0.7-1.2c0.4-1.6,0.8-3.2,1.2-4.8
			c0.1-0.5,0.5-0.8,1-0.8C159.9,50.1,160,50.1,160.1,50.1z M4.4,58.5c0.3,1.6,0.8,3.2,1.2,4.8c0.1,0.5-0.2,1.1-0.7,1.2
			c-0.5,0.1-1.1-0.2-1.2-0.7c-0.5-1.6-0.9-3.3-1.2-4.9c-0.1-0.5,0.2-1.1,0.8-1.2c0.1,0,0.1,0,0.2,0C3.9,57.7,4.3,58,4.4,58.5z
			 M157.5,59.8c0.5,0.2,0.8,0.7,0.7,1.2c-0.5,1.6-1,3.2-1.6,4.8c-0.2,0.5-0.7,0.8-1.3,0.6c-0.5-0.2-0.8-0.7-0.6-1.3
			c0.5-1.5,1-3.1,1.5-4.7c0.1-0.4,0.5-0.7,0.9-0.7C157.4,59.7,157.4,59.8,157.5,59.8z M7.1,68c0.5,1.6,1.1,3.1,1.7,4.6
			c0.2,0.5,0,1.1-0.6,1.3c-0.5,0.2-1.1,0-1.3-0.6c-0.6-1.6-1.2-3.1-1.7-4.7c-0.2-0.5,0.1-1.1,0.6-1.3c0.1,0,0.2-0.1,0.3-0.1
			C6.6,67.3,6.9,67.6,7.1,68z M154.4,69.2c0.5,0.2,0.8,0.8,0.6,1.3c-0.6,1.6-1.3,3.1-1.9,4.6c-0.2,0.5-0.8,0.7-1.3,0.5
			c-0.5-0.2-0.7-0.8-0.5-1.3c0.7-1.5,1.3-3,1.9-4.6c0.2-0.4,0.5-0.6,0.9-0.6C154.1,69.2,154.2,69.2,154.4,69.2z M10.7,77.1
			c0.7,1.5,1.4,3,2.2,4.4c0.3,0.5,0.1,1.1-0.4,1.3c-0.5,0.3-1.1,0.1-1.3-0.4c-0.8-1.5-1.5-3-2.2-4.5c-0.2-0.5,0-1.1,0.5-1.3
			c0.1-0.1,0.3-0.1,0.4-0.1C10.2,76.6,10.6,76.8,10.7,77.1z M150.4,78.4c0.5,0.2,0.7,0.8,0.4,1.3c-0.8,1.5-1.6,3-2.4,4.5
			c-0.3,0.5-0.9,0.6-1.4,0.4c-0.5-0.3-0.6-0.9-0.4-1.4c0.8-1.4,1.6-2.9,2.3-4.4c0.2-0.3,0.5-0.5,0.9-0.5
			C150.1,78.3,150.3,78.3,150.4,78.4z M15.4,85.8c0.9,1.4,1.8,2.8,2.7,4.1c0.3,0.4,0.2,1.1-0.2,1.4s-1.1,0.2-1.4-0.2
			c-1-1.4-1.9-2.8-2.8-4.2c-0.3-0.5-0.1-1.1,0.3-1.4c0.2-0.1,0.3-0.1,0.5-0.1C14.8,85.4,15.2,85.5,15.4,85.8z M145.6,87.2
			c0.5,0.3,0.6,0.9,0.3,1.4c-0.9,1.4-1.9,2.8-2.8,4.2c-0.3,0.4-0.9,0.5-1.4,0.2c-0.4-0.3-0.5-0.9-0.2-1.4c0.9-1.3,1.9-2.7,2.8-4.1
			c0.2-0.3,0.5-0.5,0.8-0.5C145.3,87,145.4,87.1,145.6,87.2z M21,93.9c1,1.3,2.1,2.5,3.2,3.7c0.4,0.4,0.4,1-0.1,1.4
			c-0.4,0.4-1,0.4-1.4-0.1c-1.1-1.2-2.2-2.5-3.3-3.8c-0.3-0.4-0.3-1.1,0.1-1.4c0.2-0.1,0.4-0.2,0.6-0.2C20.5,93.5,20.8,93.6,21,93.9
			z M139.9,95.3c0.4,0.3,0.5,1,0.1,1.4c-1.1,1.3-2.2,2.6-3.3,3.8c-0.4,0.4-1,0.4-1.4,0c-0.4-0.4-0.4-1,0-1.4
			c1.1-1.2,2.2-2.4,3.3-3.7c0.2-0.2,0.5-0.4,0.8-0.4C139.4,95.1,139.7,95.2,139.9,95.3z M27.7,101.1c1.2,1.1,2.4,2.2,3.7,3.2
			c0.4,0.3,0.5,1,0.2,1.4c-0.3,0.4-1,0.5-1.4,0.2c-1.3-1-2.6-2.2-3.8-3.3c-0.4-0.4-0.4-1,0-1.4c0.2-0.2,0.5-0.3,0.7-0.3
			C27.3,100.8,27.5,100.9,27.7,101.1z M133.1,102.7c0.4,0.4,0.3,1-0.1,1.4c-1.2,1.1-2.5,2.2-3.8,3.3c-0.4,0.3-1.1,0.3-1.4-0.2
			c-0.3-0.4-0.3-1.1,0.2-1.4c1.3-1,2.5-2.1,3.7-3.2c0.2-0.2,0.4-0.3,0.7-0.3C132.7,102.3,132.9,102.4,133.1,102.7z M35.4,107.2
			c1.3,0.9,2.7,1.8,4.1,2.6c0.5,0.3,0.6,0.9,0.4,1.4c-0.3,0.5-0.9,0.6-1.4,0.4c-1.5-0.9-2.9-1.8-4.3-2.7c-0.5-0.3-0.6-0.9-0.3-1.4
			c0.2-0.3,0.5-0.4,0.8-0.4C35,107.1,35.2,107.1,35.4,107.2z M125.4,108.9c0.3,0.5,0.2,1.1-0.3,1.4c-1.4,0.9-2.8,1.8-4.3,2.7
			c-0.5,0.3-1.1,0.1-1.4-0.4c-0.3-0.5-0.1-1.1,0.4-1.4c1.4-0.8,2.8-1.7,4.2-2.6c0.2-0.1,0.4-0.2,0.6-0.2
			C124.9,108.5,125.2,108.7,125.4,108.9z M43.8,112.2c1.5,0.7,3,1.4,4.5,2c0.5,0.2,0.7,0.8,0.5,1.3c-0.2,0.5-0.8,0.7-1.3,0.5
			c-1.6-0.6-3.1-1.3-4.6-2.1c-0.5-0.2-0.7-0.8-0.5-1.3c0.2-0.4,0.5-0.6,0.9-0.6C43.5,112.1,43.7,112.1,43.8,112.2z M116.8,114
			c0.2,0.5,0,1.1-0.5,1.3c-1.5,0.7-3.1,1.4-4.7,2c-0.5,0.2-1.1-0.1-1.3-0.6c-0.2-0.5,0.1-1.1,0.6-1.3c1.5-0.6,3-1.2,4.5-1.9
			c0.1-0.1,0.3-0.1,0.4-0.1C116.3,113.4,116.7,113.6,116.8,114z M52.9,115.9c1.5,0.5,3.1,1,4.7,1.4c0.5,0.1,0.8,0.7,0.7,1.2
			c-0.1,0.5-0.7,0.8-1.2,0.7c-1.6-0.4-3.3-0.9-4.8-1.4c-0.5-0.2-0.8-0.7-0.6-1.3c0.1-0.4,0.5-0.7,0.9-0.7
			C52.7,115.9,52.8,115.9,52.9,115.9z M107.6,117.6c0.2,0.5-0.1,1.1-0.7,1.2c-1.6,0.5-3.2,0.9-4.9,1.3c-0.5,0.1-1.1-0.2-1.2-0.8
			c-0.1-0.5,0.2-1.1,0.8-1.2c1.6-0.4,3.2-0.8,4.7-1.2c0.1,0,0.2,0,0.3,0C107.1,116.9,107.4,117.2,107.6,117.6z M62.4,118.4
			c1.6,0.3,3.2,0.6,4.9,0.8c0.5,0.1,0.9,0.6,0.8,1.1c-0.1,0.5-0.6,0.9-1.1,0.8c-1.7-0.2-3.3-0.5-5-0.8c-0.5-0.1-0.9-0.6-0.8-1.2
			c0.1-0.5,0.5-0.8,1-0.8C62.3,118.4,62.3,118.4,62.4,118.4z M97.9,119.9c0.1,0.5-0.3,1-0.8,1.1c-1.6,0.3-3.3,0.5-5,0.6
			c-0.6,0-1-0.3-1.1-0.9c-0.1-0.5,0.3-1,0.9-1.1c1.6-0.2,3.3-0.4,4.9-0.6c0.1,0,0.1,0,0.2,0C97.4,119.1,97.8,119.5,97.9,119.9z
			 M72.2,119.8c1.6,0.1,3.3,0.2,4.9,0.3c0.5,0,1,0.5,1,1c0,0.5-0.4,1-1,1c-1.7-0.1-3.4-0.2-5-0.3c-0.5,0-0.9-0.5-0.9-1.1
			C71.1,120.2,71.6,119.8,72.2,119.8C72.1,119.8,72.1,119.8,72.2,119.8z M88,121c0,0.5-0.4,1-0.9,1c-1.7,0.1-3.4,0.1-5,0.1
			c0,0,0,0,0,0c-0.5,0-1-0.4-1-1c0-0.5,0.4-1,1-1c1.6,0,3.3-0.1,4.9-0.1c0,0,0,0,0,0C87.5,120.1,88,120.5,88,121z"/>
	</g>
	<g>
		<path class="st0" d="M164.6,3C164.6,3,164.6,3,164.6,3c-0.6,0-1,0.5-1,1c0,0.7,0,1.5,0,2.5c0,0.5,0.4,1,1,1c0,0,0,0,0,0
			c0.5,0,1-0.5,1-1c0-1,0-1.8,0-2.5C165.6,3.4,165.1,3,164.6,3z"/>
	</g>
	<g>
		<g>
			<polygon class="st0" points="156.5,10.7 158,12 164.6,4.7 171.3,11.8 172.8,10.4 164.5,1.8 			"/>
		</g>
	</g>
</g>
</svg>
