<?xml version="1.0" encoding="utf-8"?>
<!-- Generator: Adobe Illustrator 20.0.0, SVG Export Plug-In . SVG Version: 6.00 Build 0)  -->
<svg version="1.1" id="Layer_1" xmlns="http://www.w3.org/2000/svg" xmlns:xlink="http://www.w3.org/1999/xlink" x="0px" y="0px"
	 viewBox="0 0 250 500" style="enable-background:new 0 0 250 500;" xml:space="preserve">
<style type="text/css">
	.st0{fill:#D4DFE5;}
</style>
<g>
	<g>
		<path class="st0" d="M107.3,7.4c0.4,0,0.7,0.2,0.9,0.6c0.2,0.5,0,1.1-0.5,1.3c0,0-1.6,0.7-4.3,2.1c-0.5,0.2-1.1,0.1-1.3-0.4
			c-0.2-0.5-0.1-1.1,0.4-1.3c2.8-1.5,4.3-2.2,4.4-2.2C107,7.5,107.1,7.4,107.3,7.4z M98.7,11.9c0.3,0,0.7,0.2,0.8,0.5
			c0.3,0.5,0.1,1-0.4,1.3c-1.4,0.8-2.7,1.6-4.1,2.5c-0.5,0.3-1,0.1-1.3-0.3c-0.3-0.5-0.1-1,0.3-1.3c1.4-0.9,2.8-1.7,4.2-2.5
			C98.4,12,98.5,11.9,98.7,11.9z M90.5,17c0.3,0,0.6,0.2,0.8,0.4c0.3,0.4,0.2,1-0.3,1.3c-1.3,0.8-2.6,1.7-4,2.7
			c-0.4,0.3-1,0.2-1.3-0.2c-0.3-0.4-0.2-1,0.2-1.3c1.3-0.9,2.7-1.8,4-2.7C90.1,17.1,90.3,17,90.5,17z M82.6,22.5
			c0.3,0,0.6,0.1,0.8,0.4c0.3,0.4,0.2,1-0.2,1.3c-1.3,0.9-2.5,1.9-3.8,2.9c-0.4,0.3-1,0.2-1.3-0.2c-0.3-0.4-0.2-1,0.2-1.3
			c1.3-1,2.6-2,3.9-2.9C82.2,22.5,82.4,22.5,82.6,22.5z M74.9,28.3c0.3,0,0.6,0.1,0.7,0.4c0.3,0.4,0.3,1-0.1,1.4c-1.2,1-2.4,2-3.7,3
			c-0.4,0.3-1,0.3-1.4-0.1c-0.3-0.4-0.3-1,0.1-1.4c1.3-1.1,2.5-2.1,3.7-3.1C74.5,28.4,74.7,28.3,74.9,28.3z M67.6,34.6
			c0.3,0,0.5,0.1,0.7,0.3c0.4,0.4,0.3,1-0.1,1.4c-1.2,1-2.4,2.1-3.5,3.2c-0.4,0.4-1,0.3-1.4,0c-0.4-0.4-0.3-1,0-1.4
			c1.2-1.1,2.4-2.2,3.6-3.3C67.1,34.6,67.3,34.6,67.6,34.6z M60.5,41.1c0.2,0,0.5,0.1,0.7,0.3c0.4,0.4,0.4,1,0,1.4
			c-1.1,1.1-2.3,2.2-3.4,3.4c-0.4,0.4-1,0.4-1.4,0c-0.4-0.4-0.4-1,0-1.4c1.1-1.2,2.3-2.3,3.4-3.4C60.1,41.2,60.3,41.1,60.5,41.1z
			 M53.8,48c0.2,0,0.5,0.1,0.7,0.3c0.4,0.4,0.4,1,0.1,1.4c-1.1,1.2-2.1,2.3-3.2,3.5c-0.4,0.4-1,0.4-1.4,0.1c-0.4-0.4-0.4-1-0.1-1.4
			c1.1-1.2,2.2-2.4,3.2-3.6C53.3,48.1,53.6,48,53.8,48z M47.5,55.2c0.2,0,0.4,0.1,0.6,0.2c0.4,0.3,0.5,0.9,0.1,1.4
			c-1,1.2-2,2.4-3,3.7c-0.3,0.4-0.9,0.5-1.4,0.2c-0.4-0.3-0.5-0.9-0.2-1.4c1-1.3,2-2.5,3.1-3.7C46.9,55.3,47.2,55.2,47.5,55.2z
			 M41.5,62.7c0.2,0,0.4,0.1,0.6,0.2c0.4,0.3,0.5,0.9,0.2,1.3c-1,1.3-1.9,2.5-2.8,3.8c-0.3,0.4-0.9,0.5-1.3,0.2
			c-0.4-0.3-0.5-0.9-0.2-1.3c1-1.3,1.9-2.6,2.9-3.9C40.9,62.9,41.2,62.7,41.5,62.7z M35.8,70.5c0.2,0,0.4,0.1,0.5,0.2
			c0.4,0.3,0.6,0.9,0.3,1.3c-0.9,1.3-1.8,2.6-2.6,4c-0.3,0.4-0.9,0.6-1.3,0.3c-0.4-0.3-0.6-0.9-0.3-1.3c0.9-1.4,1.8-2.7,2.7-4
			C35.2,70.7,35.5,70.5,35.8,70.5z M30.6,78.6c0.2,0,0.3,0,0.5,0.1c0.5,0.3,0.6,0.9,0.3,1.3c-0.8,1.3-1.6,2.7-2.4,4.1
			c-0.3,0.5-0.9,0.6-1.3,0.4c-0.5-0.3-0.6-0.9-0.4-1.3c0.8-1.4,1.6-2.8,2.5-4.2C30,78.8,30.3,78.6,30.6,78.6z M25.8,86.9
			c0.2,0,0.3,0,0.5,0.1c0.5,0.3,0.6,0.8,0.4,1.3c-0.8,1.4-1.5,2.8-2.2,4.2c-0.2,0.5-0.8,0.7-1.3,0.4c-0.5-0.2-0.7-0.8-0.4-1.3
			c0.7-1.4,1.5-2.9,2.2-4.3C25.1,87.1,25.5,86.9,25.8,86.9z M21.5,95.5c0.1,0,0.3,0,0.4,0.1c0.5,0.2,0.7,0.8,0.5,1.3
			c-0.7,1.4-1.3,2.9-2,4.3c-0.2,0.5-0.8,0.7-1.3,0.5c-0.5-0.2-0.7-0.8-0.5-1.3c0.7-1.5,1.3-2.9,2-4.4C20.8,95.7,21.1,95.5,21.5,95.5
			z M17.5,104.3c0.1,0,0.2,0,0.4,0.1c0.5,0.2,0.7,0.8,0.5,1.3c-0.6,1.5-1.2,2.9-1.8,4.4c-0.2,0.5-0.8,0.7-1.2,0.5
			c-0.5-0.2-0.7-0.7-0.6-1.2c0.6-1.5,1.2-3,1.8-4.5C16.8,104.5,17.2,104.3,17.5,104.3z M14.1,113.2c0.1,0,0.2,0,0.3,0.1
			c0.5,0.2,0.8,0.7,0.6,1.2c-0.5,1.5-1,3-1.6,4.5c-0.2,0.5-0.7,0.8-1.2,0.6c-0.5-0.2-0.8-0.7-0.6-1.2c0.5-1.5,1-3.1,1.6-4.6
			C13.3,113.5,13.7,113.2,14.1,113.2z M11.1,122.4c0.1,0,0.2,0,0.3,0c0.5,0.2,0.8,0.7,0.6,1.2c-0.5,1.5-0.9,3-1.3,4.6
			c-0.1,0.5-0.7,0.8-1.2,0.7c-0.5-0.1-0.8-0.7-0.7-1.2c0.4-1.6,0.9-3.1,1.3-4.6C10.3,122.6,10.6,122.4,11.1,122.4z M8.5,131.6
			c0.1,0,0.2,0,0.2,0c0.5,0.1,0.8,0.6,0.7,1.2c-0.4,1.5-0.7,3.1-1.1,4.7c-0.1,0.5-0.6,0.8-1.1,0.7c-0.5-0.1-0.8-0.6-0.7-1.1
			c0.4-1.6,0.7-3.1,1.1-4.7C7.7,131.9,8.1,131.6,8.5,131.6z M6.4,141c0.1,0,0.1,0,0.2,0c0.5,0.1,0.9,0.6,0.8,1.1
			c-0.3,1.6-0.6,3.1-0.9,4.7c-0.1,0.5-0.6,0.9-1.1,0.8c-0.5-0.1-0.9-0.6-0.8-1.1c0.3-1.6,0.6-3.2,0.9-4.7C5.6,141.3,6,141,6.4,141z
			 M4.8,150.5c0,0,0.1,0,0.1,0c0.5,0.1,0.9,0.6,0.8,1.1c-0.2,1.6-0.5,3.1-0.7,4.7c-0.1,0.5-0.6,0.9-1.1,0.8
			c-0.5-0.1-0.9-0.5-0.8-1.1c0.2-1.6,0.4-3.2,0.7-4.8C3.9,150.8,4.3,150.5,4.8,150.5z M3.5,160c0,0,0.1,0,0.1,0
			c0.5,0.1,0.9,0.5,0.9,1.1c-0.2,1.6-0.3,3.2-0.4,4.8c0,0.5-0.5,0.9-1,0.9c-0.5,0-0.9-0.5-0.9-1c0.1-1.6,0.3-3.2,0.4-4.8
			C2.6,160.4,3.1,160,3.5,160z M2.8,169.6C2.8,169.6,2.8,169.6,2.8,169.6c0.6,0,1,0.5,1,1c-0.1,1.6-0.2,3.2-0.2,4.8
			c0,0.5-0.5,0.9-1,0.9c-0.5,0-0.9-0.5-0.9-1c0.1-1.6,0.1-3.2,0.2-4.8C1.8,170,2.3,169.6,2.8,169.6z M2.4,179.2
			C2.4,179.2,2.4,179.2,2.4,179.2c0.5,0,1,0.4,1,1c0,1.5,0,3,0,4.4v0.3c0,0.5-0.4,1-1,1s-1-0.4-1-1v-0.3c0-1.5,0-3,0-4.5
			C1.4,179.6,1.9,179.2,2.4,179.2z M2.4,188.8c0.5,0,1,0.4,1,0.9c0,1.6,0.1,3.2,0.1,4.8c0,0.5-0.4,1-0.9,1c-0.5,0-1-0.4-1-0.9
			c-0.1-1.6-0.1-3.2-0.1-4.8C1.4,189.3,1.8,188.8,2.4,188.8C2.4,188.8,2.4,188.8,2.4,188.8z M2.8,198.4c0.5,0,0.9,0.4,1,0.9
			c0.1,1.6,0.2,3.2,0.3,4.8c0,0.5-0.4,1-0.9,1c-0.5,0-1-0.4-1-0.9c-0.1-1.6-0.2-3.2-0.3-4.8C1.8,198.9,2.2,198.5,2.8,198.4
			C2.7,198.4,2.8,198.4,2.8,198.4z M3.5,208c0.5,0,0.9,0.4,1,0.9c0.2,1.6,0.3,3.2,0.5,4.8c0.1,0.5-0.3,1-0.8,1.1
			c-0.5,0.1-1-0.3-1.1-0.8c-0.2-1.6-0.3-3.2-0.5-4.8C2.5,208.5,2.9,208.1,3.5,208C3.5,208,3.5,208,3.5,208z M4.6,217.6
			c0.5,0,0.9,0.4,1,0.8c0.2,1.6,0.4,3.2,0.7,4.7c0.1,0.5-0.3,1-0.8,1.1c-0.5,0.1-1-0.3-1.1-0.8c-0.2-1.6-0.5-3.2-0.7-4.8
			c-0.1-0.5,0.3-1,0.8-1.1C4.5,217.6,4.6,217.6,4.6,217.6z M6,227.1c0.5,0,0.9,0.3,0.9,0.8c0.3,1.6,0.5,3.1,0.8,4.7
			c0.1,0.5-0.3,1-0.8,1.1c-0.5,0.1-1-0.3-1.1-0.8c-0.3-1.6-0.6-3.2-0.8-4.8c-0.1-0.5,0.3-1,0.8-1.1C5.9,227.1,6,227.1,6,227.1z
			 M7.7,236.6c0.5,0,0.9,0.3,0.9,0.8c0.3,1.6,0.6,3.1,1,4.7c0.1,0.5-0.2,1-0.7,1.1c-0.5,0.1-1-0.2-1.1-0.7c-0.3-1.6-0.7-3.2-1-4.7
			c-0.1-0.5,0.2-1,0.8-1.1C7.6,236.6,7.7,236.6,7.7,236.6z M9.7,246c0.4,0,0.8,0.3,0.9,0.7c0.4,1.5,0.7,3.1,1.1,4.7
			c0.1,0.5-0.2,1-0.7,1.2c-0.5,0.1-1-0.2-1.2-0.7c-0.4-1.6-0.7-3.1-1.1-4.7c-0.1-0.5,0.2-1,0.7-1.2C9.6,246,9.7,246,9.7,246z
			 M12,255.3c0.4,0,0.8,0.3,0.9,0.7l0.1,0.2c0.4,1.5,0.8,2.9,1.2,4.4c0.1,0.5-0.2,1-0.7,1.2c-0.5,0.1-1-0.2-1.2-0.7
			c-0.4-1.5-0.8-2.9-1.2-4.4l-0.1-0.2c-0.1-0.5,0.2-1,0.7-1.2C11.8,255.3,11.9,255.3,12,255.3z M14.5,264.6c0.4,0,0.8,0.3,0.9,0.7
			c0.4,1.5,0.9,3.1,1.4,4.6c0.2,0.5-0.1,1-0.6,1.2c-0.5,0.2-1-0.1-1.2-0.6c-0.5-1.5-0.9-3.1-1.4-4.6c-0.1-0.5,0.1-1,0.7-1.2
			C14.3,264.6,14.4,264.6,14.5,264.6z M17.3,273.8c0.4,0,0.8,0.3,0.9,0.7c0.5,1.5,1,3,1.5,4.5c0.2,0.5-0.1,1-0.6,1.2
			c-0.5,0.2-1-0.1-1.2-0.6c-0.5-1.5-1-3-1.5-4.6c-0.2-0.5,0.1-1,0.6-1.2C17.1,273.8,17.2,273.8,17.3,273.8z M20.4,282.9
			c0.4,0,0.8,0.2,0.9,0.6c0.5,1.5,1.1,3,1.7,4.5c0.2,0.5-0.1,1.1-0.6,1.2c-0.5,0.2-1.1-0.1-1.2-0.6c-0.6-1.5-1.1-3-1.7-4.5
			c-0.2-0.5,0.1-1.1,0.6-1.2C20.2,282.9,20.3,282.9,20.4,282.9z M23.8,291.9c0.4,0,0.7,0.2,0.9,0.6c0.6,1.5,1.2,3,1.8,4.4
			c0.2,0.5,0,1.1-0.5,1.3c-0.5,0.2-1.1,0-1.3-0.5c-0.6-1.5-1.2-3-1.8-4.5c-0.2-0.5,0-1.1,0.5-1.2C23.6,291.9,23.7,291.9,23.8,291.9z
			 M27.5,300.8c0.4,0,0.7,0.2,0.9,0.6c0.6,1.5,1.3,2.9,1.9,4.4c0.2,0.5,0,1.1-0.5,1.3c-0.5,0.2-1.1,0-1.3-0.5
			c-0.7-1.5-1.3-2.9-2-4.4c-0.2-0.5,0-1.1,0.5-1.3C27.3,300.8,27.4,300.8,27.5,300.8z M31.5,309.5c0.4,0,0.7,0.2,0.9,0.6
			c0.7,1.5,1.4,2.9,2.1,4.3c0.2,0.5,0,1.1-0.4,1.3c-0.5,0.2-1.1,0-1.3-0.4c-0.7-1.4-1.4-2.9-2.1-4.3c-0.2-0.5,0-1.1,0.5-1.3
			C31.2,309.5,31.3,309.5,31.5,309.5z M35.7,318.1c0.3,0,0.7,0.2,0.9,0.5c0.7,1.4,1.5,2.8,2.2,4.2c0.2,0.5,0.1,1.1-0.4,1.3
			c-0.5,0.3-1.1,0.1-1.3-0.4c-0.8-1.4-1.5-2.8-2.2-4.3c-0.2-0.5-0.1-1.1,0.4-1.3C35.4,318.2,35.6,318.1,35.7,318.1z M40.2,326.6
			c0.3,0,0.7,0.2,0.8,0.5c0.8,1.4,1.6,2.8,2.4,4.2c0.3,0.5,0.1,1-0.4,1.3c-0.5,0.3-1,0.1-1.3-0.4c-0.8-1.4-1.6-2.8-2.4-4.2
			c-0.3-0.5-0.1-1,0.4-1.3C39.9,326.7,40.1,326.6,40.2,326.6z M45,335c0.3,0,0.6,0.2,0.8,0.5c0.8,1.4,1.7,2.7,2.5,4.1
			c0.3,0.5,0.1,1-0.3,1.3c-0.5,0.3-1,0.1-1.3-0.3c-0.8-1.4-1.7-2.7-2.5-4.1c-0.3-0.5-0.1-1,0.3-1.3C44.7,335,44.9,335,45,335z
			 M50.1,343.1c0.3,0,0.6,0.2,0.8,0.4c0.9,1.3,1.7,2.7,2.6,4c0.3,0.4,0.2,1-0.3,1.3c-0.4,0.3-1,0.2-1.3-0.3c-0.9-1.3-1.8-2.7-2.6-4
			c-0.3-0.4-0.2-1,0.3-1.3C49.7,343.2,49.9,343.1,50.1,343.1z M55.4,351.1c0.3,0,0.6,0.1,0.8,0.4c0.9,1.3,1.8,2.6,2.7,3.9
			c0.3,0.4,0.2,1-0.2,1.3c-0.4,0.3-1,0.2-1.3-0.2c-0.9-1.3-1.9-2.6-2.8-4c-0.3-0.4-0.2-1,0.2-1.3C55,351.2,55.2,351.1,55.4,351.1z
			 M61,359c0.3,0,0.6,0.1,0.8,0.4c0.9,1.3,1.9,2.6,2.9,3.8c0.3,0.4,0.2,1-0.2,1.3c-0.4,0.3-1,0.2-1.3-0.2c-1-1.3-1.9-2.6-2.9-3.9
			c-0.3-0.4-0.2-1,0.2-1.3C60.6,359,60.8,359,61,359z M66.8,366.6c0.3,0,0.6,0.1,0.8,0.4c1,1.3,2,2.5,3,3.7c0.3,0.4,0.3,1-0.1,1.4
			c-0.4,0.3-1,0.3-1.4-0.1c-1-1.2-2-2.5-3-3.8c-0.3-0.4-0.3-1,0.2-1.4C66.4,366.7,66.6,366.6,66.8,366.6z M72.9,374.1
			c0.3,0,0.5,0.1,0.7,0.3c1,1.2,2.1,2.4,3.1,3.6c0.3,0.4,0.3,1-0.1,1.4c-0.4,0.3-1,0.3-1.4-0.1c-1-1.2-2.1-2.4-3.1-3.7
			c-0.3-0.4-0.3-1,0.1-1.4C72.4,374.2,72.6,374.1,72.9,374.1z M79.2,381.4c0.3,0,0.5,0.1,0.7,0.3c1.1,1.2,2.1,2.4,3.2,3.6
			c0.4,0.4,0.3,1-0.1,1.4c-0.4,0.4-1,0.3-1.4-0.1c-1.1-1.2-2.2-2.4-3.2-3.6c-0.4-0.4-0.3-1,0.1-1.4
			C78.7,381.4,78.9,381.4,79.2,381.4z M85.7,388.4c0.3,0,0.5,0.1,0.7,0.3c1.1,1.2,2.2,2.3,3.3,3.5c0.4,0.4,0.4,1,0,1.4
			c-0.4,0.4-1,0.4-1.4,0c-1.1-1.1-2.2-2.3-3.3-3.5c-0.4-0.4-0.3-1,0-1.4C85.2,388.5,85.4,388.4,85.7,388.4z M92.4,395.3
			c0.2,0,0.5,0.1,0.7,0.3c1.1,1.1,2.3,2.2,3.4,3.4c0.4,0.4,0.4,1,0,1.4c-0.4,0.4-1,0.4-1.4,0c-1.2-1.1-2.3-2.2-3.4-3.4
			c-0.4-0.4-0.4-1,0-1.4C91.9,395.4,92.1,395.3,92.4,395.3z M99.3,402c0.2,0,0.5,0.1,0.7,0.3c1.2,1.1,2.3,2.2,3.5,3.3
			c0.4,0.4,0.4,1,0.1,1.4c-0.4,0.4-1,0.4-1.4,0.1c-1.2-1.1-2.4-2.2-3.5-3.3c-0.4-0.4-0.4-1,0-1.4C98.8,402.1,99.1,402,99.3,402z
			 M106.4,408.5c0.2,0,0.5,0.1,0.6,0.2c1.2,1.1,2.4,2.1,3.6,3.2c0.4,0.3,0.4,1,0.1,1.4c-0.3,0.4-1,0.4-1.4,0.1
			c-1.2-1-2.4-2.1-3.6-3.2c-0.4-0.4-0.4-1-0.1-1.4C105.9,408.6,106.2,408.5,106.4,408.5z M113.7,414.8c0.2,0,0.4,0.1,0.6,0.2
			c1.2,1,2.5,2,3.7,3c0.4,0.3,0.5,0.9,0.1,1.4c-0.3,0.4-0.9,0.5-1.4,0.1c-1.2-1-2.5-2-3.7-3.1c-0.4-0.3-0.5-0.9-0.1-1.4
			C113.2,414.9,113.4,414.8,113.7,414.8z M121.2,420.8c0.2,0,0.4,0.1,0.6,0.2c1.3,1,2.5,2,3.8,2.9c0.4,0.3,0.5,0.9,0.2,1.3
			c-0.3,0.4-0.9,0.5-1.3,0.2c-1.3-1-2.5-2-3.8-3c-0.4-0.3-0.5-0.9-0.2-1.4C120.6,420.9,120.9,420.8,121.2,420.8z M128.8,426.7
			c0.2,0,0.4,0.1,0.6,0.2c1.3,1,2.6,1.9,3.9,2.8c0.4,0.3,0.5,0.9,0.2,1.3c-0.3,0.4-0.9,0.5-1.3,0.2c-1.3-0.9-2.6-1.9-3.9-2.9
			c-0.4-0.3-0.5-0.9-0.2-1.3C128.2,426.8,128.5,426.7,128.8,426.7z M136.6,432.3c0.2,0,0.4,0.1,0.6,0.2c1.3,0.9,2.6,1.8,3.9,2.7
			c0.4,0.3,0.5,0.9,0.2,1.3c-0.3,0.4-0.9,0.5-1.3,0.2c-1.3-0.9-2.6-1.8-4-2.8c-0.4-0.3-0.5-0.9-0.2-1.3
			C136,432.5,136.3,432.3,136.6,432.3z M144.5,437.8c0.2,0,0.4,0.1,0.5,0.2c1.3,0.9,2.7,1.8,4,2.6c0.4,0.3,0.6,0.9,0.3,1.3
			c-0.3,0.4-0.9,0.6-1.3,0.3c-1.3-0.9-2.7-1.8-4-2.7c-0.4-0.3-0.6-0.9-0.3-1.3C143.9,437.9,144.2,437.8,144.5,437.8z M152.6,443
			c0.2,0,0.4,0,0.5,0.1c1.4,0.9,2.7,1.7,4.1,2.5c0.5,0.3,0.6,0.9,0.3,1.3c-0.3,0.5-0.9,0.6-1.3,0.3c-1.4-0.8-2.7-1.7-4.1-2.5
			c-0.4-0.3-0.6-0.9-0.3-1.3C152,443.2,152.3,443,152.6,443z M160.8,448c0.2,0,0.3,0,0.5,0.1c1.4,0.8,2.8,1.6,4.1,2.4
			c0.5,0.3,0.6,0.9,0.4,1.3c-0.3,0.5-0.9,0.6-1.3,0.3c-1.4-0.8-2.8-1.6-4.2-2.4c-0.5-0.3-0.6-0.9-0.3-1.3
			C160.1,448.2,160.5,448,160.8,448z M169.1,452.9c0.2,0,0.3,0,0.5,0.1c1.4,0.8,2.8,1.6,4.2,2.3c0.5,0.3,0.6,0.8,0.4,1.3
			c-0.3,0.5-0.8,0.6-1.3,0.4c-1.4-0.8-2.8-1.5-4.2-2.3c-0.5-0.3-0.6-0.8-0.4-1.3C168.5,453.1,168.8,452.9,169.1,452.9z M177.6,457.5
			c0.2,0,0.3,0,0.4,0.1c1.4,0.8,2.8,1.5,4.3,2.2c0.5,0.2,0.7,0.8,0.4,1.3c-0.2,0.5-0.8,0.7-1.3,0.4c-1.4-0.7-2.8-1.5-4.3-2.2
			c-0.5-0.2-0.6-0.8-0.4-1.3C176.9,457.7,177.2,457.5,177.6,457.5z M186.1,461.9c0.1,0,0.3,0,0.4,0.1c1.5,0.7,2.9,1.4,4.3,2.1
			c0.5,0.2,0.7,0.8,0.4,1.3c-0.2,0.5-0.8,0.7-1.3,0.4c-1.4-0.7-2.9-1.4-4.3-2.1c-0.5-0.2-0.7-0.8-0.4-1.3
			C185.4,462.1,185.8,461.9,186.1,461.9z M194.8,466.1c0.1,0,0.3,0,0.4,0.1c1.5,0.7,2.9,1.4,4.4,2c0.5,0.2,0.7,0.8,0.5,1.3
			s-0.8,0.7-1.3,0.5c-1.4-0.7-2.9-1.3-4.4-2c-0.5-0.2-0.7-0.8-0.5-1.3C194.1,466.3,194.4,466.1,194.8,466.1z M203.5,470.1
			c0.1,0,0.3,0,0.4,0.1c1.5,0.7,3,1.3,4.4,1.9c0.5,0.2,0.7,0.8,0.5,1.3s-0.8,0.7-1.3,0.5c-1.4-0.6-2.9-1.3-4.4-1.9
			c-0.5-0.2-0.7-0.8-0.5-1.3C202.8,470.3,203.2,470.1,203.5,470.1z M212.4,473.9c0.1,0,0.2,0,0.4,0.1c1.5,0.6,3,1.2,4.5,1.8
			c0.5,0.2,0.7,0.8,0.5,1.2c-0.2,0.5-0.8,0.7-1.2,0.5c-1.5-0.6-2.9-1.2-4.5-1.8c-0.5-0.2-0.7-0.8-0.5-1.3
			C211.7,474.1,212,473.9,212.4,473.9z M221.3,477.4c0.1,0,0.2,0,0.3,0.1c1.6,0.6,3.1,1.2,4.5,1.7c0.5,0.2,0.8,0.7,0.6,1.2
			c-0.2,0.5-0.7,0.8-1.2,0.6c-1.5-0.5-3-1.1-4.5-1.7c-0.5-0.2-0.7-0.7-0.6-1.2C220.6,477.6,221,477.4,221.3,477.4z M230.4,480.7
			c0.1,0,0.2,0,0.3,0.1c1.6,0.6,3.1,1.1,4.5,1.5c0.5,0.2,0.8,0.7,0.6,1.2c-0.2,0.5-0.7,0.8-1.2,0.6c-1.4-0.5-3-1-4.6-1.6
			c-0.5-0.2-0.8-0.7-0.6-1.2C229.6,481,230,480.7,230.4,480.7z M239.6,483.7c0.1,0,0.2,0,0.3,0c1.8,0.6,3.3,1,4.6,1.4
			c0.5,0.1,0.8,0.7,0.7,1.2c-0.1,0.5-0.7,0.8-1.2,0.7c-1.3-0.4-2.8-0.8-4.6-1.4c-0.5-0.2-0.8-0.7-0.6-1.2
			C238.8,484,239.1,483.7,239.6,483.7z"/>
	</g>
	<g>
		<g>
			<polygon class="st0" points="238.3,492.6 237.5,490.8 245.9,486.5 241,478.4 242.6,477.4 248.6,487.3 			"/>
		</g>
	</g>
</g>
</svg>
