<?xml version="1.0" encoding="utf-8"?>
<!-- Generator: Adobe Illustrator 20.0.0, SVG Export Plug-In . SVG Version: 6.00 Build 0)  -->
<svg version="1.1" id="Layer_1" xmlns="http://www.w3.org/2000/svg" xmlns:xlink="http://www.w3.org/1999/xlink" x="0px" y="0px"
	 viewBox="0 0 1800 400" style="enable-background:new 0 0 1800 400;" xml:space="preserve">
<style type="text/css">
	.st0{opacity:0.5;}
	.st1{opacity:0.6;clip-path:url(#SVGID_2_);}
	.st2{fill:#C0BCC9;}
</style>
<g class="st0">
	<defs>
		<rect id="SVGID_1_" x="-3" y="-353.8" class="st0" width="1812.1" height="1208.1"/>
	</defs>
	<clipPath id="SVGID_2_">
		<use xlink:href="#SVGID_1_"  style="overflow:visible;"/>
	</clipPath>
	<g class="st1">
		<g>
			<polygon class="st2" points="772.9,218.8 772.9,240.7 791.8,229.7 			"/>
			<polygon class="st2" points="796.8,218.8 796.8,240.7 815.7,229.7 			"/>
			<polygon class="st2" points="820.8,218.8 820.8,240.7 839.7,229.7 			"/>
			<polygon class="st2" points="844.7,218.8 844.7,240.7 863.6,229.7 			"/>
			<polygon class="st2" points="868.6,218.8 868.6,240.7 887.5,229.7 			"/>
			<polygon class="st2" points="892.6,218.8 892.6,240.7 911.5,229.7 			"/>
			<polygon class="st2" points="916.5,218.8 916.5,240.7 935.4,229.7 			"/>
			<polygon class="st2" points="940.5,218.8 940.5,240.7 959.4,229.7 			"/>
			<polygon class="st2" points="964.4,218.8 964.4,240.7 983.3,229.7 			"/>
		</g>
		<path class="st2" d="M191,120.6c-43.5,0-86.9-16.5-120-49.6C4.8,4.8,4.8-102.9,71-169c66.2-66.2,173.8-66.2,240,0
			c66.2,66.2,66.2,173.8,0,240C277.9,104,234.4,120.6,191,120.6z M191-216.2c-42.8,0-85.7,16.3-118.3,48.9
			C7.5-102.1,7.5,4,72.7,69.2c65.2,65.2,171.3,65.2,236.6,0c65.2-65.2,65.2-171.3,0-236.6C276.7-199.9,233.8-216.2,191-216.2z"/>
		<path class="st2" d="M237.4,212L209.3,57.5l1.2-0.2c21.6-3.9,41.2-14.3,56.9-29.9c7.7-7.7,14.3-16.6,19.3-26.2l0.6-1.1l139,73.1
			l-0.6,1.1c-12.4,23.6-28.3,45.2-47.3,64.1c-38.3,38.3-86.7,63.7-139.8,73.4L237.4,212z M212.2,59.4l27.2,149.8
			c52.2-9.7,99.6-34.8,137.3-72.5c18.5-18.5,34-39.5,46.3-62.5L288.3,3.3c-5.1,9.4-11.6,18.1-19.2,25.7
			C253.4,44.8,233.7,55.2,212.2,59.4z M16,150.1l-0.9-0.8c-4-3.5-7.9-7.2-11.6-10.9C-46.5,88.3-74.1,21.8-74.1-49.1
			c0-70.8,27.6-137.4,77.6-187.5c7.5-7.5,15.6-14.7,23.9-21.2l1-0.7l96.9,123.6l-1,0.7c-3.4,2.7-6.7,5.6-9.8,8.7
			c-20.4,20.4-31.6,47.5-31.6,76.4c0,28.9,11.2,56,31.7,76.4c1.5,1.5,3.1,3,4.7,4.5l0.9,0.8L16,150.1z M28-255.1
			c-7.9,6.3-15.6,13.1-22.8,20.3c-49.6,49.6-76.9,115.6-76.9,185.7c0,70.2,27.3,136.1,76.9,185.7c3.4,3.4,7,6.8,10.6,10l101-113.9
			c-1.3-1.2-2.7-2.5-3.9-3.8C92,8.2,80.5-19.5,80.5-49.1c0-29.5,11.5-57.3,32.4-78.1c2.9-2.9,5.9-5.6,9.1-8.1L28-255.1z M290.1-92.3
			l-0.5-1.1c-5.4-12-12.9-22.8-22.2-32.1c-14-14-31.4-23.9-50.5-28.5l-1.2-0.3l37.5-152.5l1.2,0.3c46.9,11.5,89.8,35.7,124,70
			c22.8,22.8,41.1,49.3,54.3,78.6l0.5,1.1L290.1-92.3z M218.7-156c19,4.9,36.4,14.9,50.4,28.9c9.3,9.3,16.7,19.9,22.2,31.7
			L430.1-158c-13.1-28.6-31-54.5-53.3-76.8c-33.7-33.7-75.7-57.5-121.7-69.1L218.7-156z"/>
		<path class="st2" d="M194.8,105.5l-0.4-16.9c0.8,0,1.5,0,2.3-0.1l0.7,16.9C196.5,105.5,195.7,105.5,194.8,105.5z M184.6,105.4
			c-0.9,0-1.7-0.1-2.5-0.1l1-16.9c0.8,0,1.5,0.1,2.3,0.1L184.6,105.4z M207.5,104.7l-1.8-16.8c0.8-0.1,1.5-0.2,2.3-0.3l2.1,16.8
			C209.2,104.5,208.4,104.6,207.5,104.7z M171.9,104.4c-0.8-0.1-1.7-0.2-2.5-0.3l2.4-16.7c0.8,0.1,1.5,0.2,2.3,0.3L171.9,104.4z
			 M220.2,102.8L217,86.2c0.7-0.1,1.5-0.3,2.2-0.4l3.4,16.6C221.8,102.5,221,102.6,220.2,102.8z M159.3,102.3
			c-0.8-0.2-1.7-0.4-2.5-0.5l3.7-16.5c0.7,0.2,1.5,0.3,2.2,0.5L159.3,102.3z M232.6,99.9l-4.5-16.3c0.7-0.2,1.5-0.4,2.2-0.6
			l4.8,16.2C234.3,99.4,233.4,99.6,232.6,99.9z M146.9,99.2c-0.8-0.2-1.6-0.5-2.4-0.7l5.1-16.1c0.7,0.2,1.4,0.4,2.2,0.7L146.9,99.2z
			 M244.8,95.9l-5.9-15.9c0.7-0.3,1.4-0.5,2.1-0.8l6.1,15.8C246.4,95.3,245.6,95.6,244.8,95.9z M134.8,95c-0.8-0.3-1.6-0.6-2.4-0.9
			l6.4-15.7c0.7,0.3,1.4,0.6,2.1,0.8L134.8,95z M256.6,91l-7.2-15.3c0.7-0.3,1.4-0.7,2.1-1l7.4,15.2C258.1,90.3,257.4,90.6,256.6,91
			z M123.1,89.9c-0.8-0.4-1.5-0.8-2.3-1.1l7.7-15.1c0.7,0.3,1.3,0.7,2,1L123.1,89.9z M267.9,85.1l-8.4-14.7c0.7-0.4,1.3-0.8,2-1.1
			l8.7,14.5C269.4,84.2,268.7,84.7,267.9,85.1z M111.9,83.8c-0.7-0.4-1.5-0.9-2.2-1.3l8.9-14.4c0.6,0.4,1.3,0.8,1.9,1.2L111.9,83.8z
			 M278.7,78.3l-9.6-13.9c0.6-0.4,1.2-0.9,1.9-1.3l9.8,13.7C280.1,77.3,279.4,77.8,278.7,78.3z M101.2,76.8c-0.7-0.5-1.4-1-2.1-1.5
			l10.1-13.6c0.6,0.5,1.2,0.9,1.8,1.3L101.2,76.8z M289,70.6l-10.7-13.1c0.6-0.5,1.2-1,1.8-1.5l10.9,12.9
			C290.3,69.5,289.6,70,289,70.6z M91.1,69c-0.6-0.5-1.3-1.1-1.9-1.7l11.1-12.7c0.6,0.5,1.1,1,1.7,1.5L91.1,69z M298.5,62.1
			l-11.8-12.2c0.5-0.5,1.1-1.1,1.6-1.6L300.6,60l-0.3,0.3C299.7,60.9,299.1,61.5,298.5,62.1z M81.7,60.3L81.7,60.3
			c-0.6-0.6-1.2-1.2-1.8-1.8l12.1-11.8c0.5,0.5,1,1.1,1.5,1.6L81.7,60.3z M307.5,52.6l-12.7-11.1c0.5-0.6,1-1.1,1.5-1.7l12.9,10.9
			C308.6,51.3,308.1,51.9,307.5,52.6z M73.1,50.9c-0.6-0.7-1.1-1.3-1.6-2l13.1-10.7c0.5,0.6,1,1.2,1.5,1.8L73.1,50.9z M315.5,42.6
			l-13.6-10c0.4-0.6,0.9-1.2,1.3-1.8l13.8,9.8C316.5,41.2,316,41.9,315.5,42.6z M65.2,40.9c-0.5-0.7-1-1.4-1.5-2.1l13.9-9.6
			c0.4,0.6,0.9,1.2,1.3,1.9L65.2,40.9z M322.7,32l-14.4-8.9c0.4-0.6,0.8-1.3,1.2-1.9l14.5,8.6C323.6,30.6,323.1,31.3,322.7,32z
			 M58.2,30.2c-0.4-0.7-0.9-1.5-1.3-2.2l14.7-8.4c0.4,0.7,0.8,1.3,1.2,2L58.2,30.2z M328.9,20.9l-15.1-7.7c0.3-0.7,0.7-1.4,1-2
			l15.2,7.4C329.7,19.4,329.3,20.1,328.9,20.9z M52.1,18.9c-0.4-0.8-0.7-1.5-1.1-2.3l15.3-7.2c0.3,0.7,0.7,1.4,1,2.1L52.1,18.9z
			 M334.2,9.3l-15.7-6.3c0.3-0.7,0.6-1.4,0.8-2.1l15.8,6.1C334.8,7.7,334.5,8.5,334.2,9.3z M46.9,7.2c-0.3-0.8-0.6-1.6-0.9-2.4
			l15.9-5.9c0.3,0.7,0.5,1.4,0.8,2.1L46.9,7.2z M338.5-2.7l-16.1-5.1c0.2-0.7,0.4-1.4,0.7-2.2l16.2,4.8C339-4.4,338.8-3.6,338.5-2.7
			z M42.8-4.9c-0.2-0.8-0.5-1.6-0.7-2.5l16.3-4.5c0.2,0.7,0.4,1.5,0.6,2.2L42.8-4.9z M341.8-15.1l-16.5-3.7c0.2-0.7,0.3-1.5,0.5-2.2
			l16.6,3.4C342.2-16.7,342-15.9,341.8-15.1z M39.7-17.3c-0.2-0.8-0.3-1.7-0.5-2.5L55.8-23c0.1,0.7,0.3,1.5,0.4,2.2L39.7-17.3z
			 M344.1-27.6L327.4-30c0.1-0.8,0.2-1.5,0.3-2.3l16.8,2.1C344.3-29.3,344.2-28.5,344.1-27.6z M37.6-29.9c-0.1-0.8-0.2-1.7-0.3-2.5
			l16.8-1.8c0.1,0.8,0.2,1.5,0.3,2.3L37.6-29.9z M345.4-40.4l-16.9-0.9c0-0.8,0.1-1.5,0.1-2.3l16.9,0.7
			C345.4-42.1,345.4-41.2,345.4-40.4z M36.5-42.6c0-0.8-0.1-1.7-0.1-2.6l16.9-0.4c0,0.8,0,1.5,0.1,2.3L36.5-42.6z M328.6-52.7
			c0-0.8,0-1.5-0.1-2.3l16.9-0.7c0,0.9,0.1,1.7,0.1,2.6L328.6-52.7z M53.4-54.7l-16.9-0.7c0-0.9,0.1-1.7,0.1-2.5l16.9,1
			C53.5-56.2,53.4-55.4,53.4-54.7z M327.9-64c-0.1-0.8-0.2-1.5-0.3-2.3l16.8-2.1c0.1,0.8,0.2,1.7,0.3,2.5L327.9-64z M54.3-66
			l-16.8-2.1c0.1-0.8,0.2-1.7,0.3-2.5l16.7,2.4C54.5-67.5,54.4-66.8,54.3-66z M326.2-75.3c-0.1-0.7-0.3-1.5-0.4-2.2l16.5-3.5
			c0.2,0.8,0.3,1.7,0.5,2.5L326.2-75.3z M56.2-77.2l-16.6-3.4c0.2-0.8,0.4-1.7,0.5-2.5l16.5,3.7C56.5-78.7,56.3-78,56.2-77.2z
			 M323.6-86.4c-0.2-0.7-0.4-1.5-0.6-2.2l16.2-4.8c0.2,0.8,0.5,1.6,0.7,2.5L323.6-86.4z M59-88.3l-16.2-4.8c0.2-0.8,0.5-1.6,0.7-2.4
			l16.1,5.1C59.4-89.7,59.2-89,59-88.3z M320-97.2c-0.3-0.7-0.5-1.4-0.8-2.1l15.8-6.2c0.3,0.8,0.6,1.6,0.9,2.4L320-97.2z M62.6-99
			l-15.8-6.1c0.3-0.8,0.6-1.6,0.9-2.4l15.7,6.4C63.2-100.4,62.9-99.7,62.6-99z M315.6-107.7c-0.3-0.7-0.6-1.4-1-2l15.2-7.5
			c0.4,0.8,0.7,1.5,1.1,2.3L315.6-107.7z M67.2-109.4L52-116.9c0.4-0.8,0.8-1.5,1.1-2.3l15.1,7.7C67.9-110.8,67.5-110.1,67.2-109.4z
			 M310.3-117.8c-0.4-0.7-0.8-1.3-1.2-2l14.5-8.7c0.4,0.7,0.9,1.5,1.3,2.2L310.3-117.8z M72.6-119.4l-14.5-8.7
			c0.4-0.7,0.9-1.5,1.3-2.2l14.4,8.9C73.4-120.7,73-120.1,72.6-119.4z M304.2-127.4c-0.4-0.6-0.9-1.2-1.3-1.9l13.7-9.9
			c0.5,0.7,1,1.4,1.5,2.1L304.2-127.4z M78.8-129L65-138.8c0.5-0.7,1-1.4,1.5-2.1l13.6,10.1C79.7-130.2,79.3-129.6,78.8-129z
			 M297.4-136.5c-0.5-0.6-1-1.2-1.5-1.7l12.9-11c0.6,0.7,1.1,1.3,1.6,2L297.4-136.5z M85.8-137.9l-12.9-10.9
			c0.5-0.6,1.1-1.3,1.7-1.9l12.7,11.1C86.8-139.1,86.3-138.5,85.8-137.9z M289.8-145c-0.5-0.5-1-1-1.4-1.5l-0.2-0.2l12-12l0.2,0.2
			c0.5,0.5,1.1,1.1,1.6,1.6L289.8-145z M93.6-146.4l-12.1-11.8l0.1-0.1c0.6-0.6,1.1-1.1,1.7-1.7l11.8,12.1
			C94.6-147.4,94.1-146.9,93.6-146.4z M281.5-152.8c-0.6-0.5-1.2-1-1.7-1.5l10.9-12.9c0.6,0.5,1.3,1.1,1.9,1.7L281.5-152.8z
			 M101.9-154l-11-12.9c0.6-0.6,1.3-1.1,2-1.6l10.8,13.1C103-155,102.5-154.5,101.9-154z M272.7-159.9c-0.6-0.5-1.2-0.9-1.8-1.3
			l9.8-13.8c0.7,0.5,1.4,1,2.1,1.5L272.7-159.9z M110.8-161.1l-9.8-13.7c0.7-0.5,1.4-1,2.1-1.5l9.6,13.9
			C112.1-161.9,111.5-161.5,110.8-161.1z M263.3-166.3c-0.6-0.4-1.3-0.8-1.9-1.2L270-182c0.7,0.4,1.5,0.9,2.2,1.3L263.3-166.3z
			 M120.4-167.3l-8.7-14.5c0.7-0.4,1.5-0.9,2.2-1.3l8.4,14.7C121.7-168.1,121-167.7,120.4-167.3z M253.3-171.9c-0.7-0.3-1.4-0.7-2-1
			l7.4-15.2c0.8,0.4,1.5,0.8,2.3,1.1L253.3-171.9z M130.4-172.7l-7.4-15.2c0.8-0.4,1.5-0.7,2.3-1.1l7.2,15.3
			C131.7-173.4,131.1-173.1,130.4-172.7z M243-176.6c-0.7-0.3-1.4-0.6-2.1-0.8l6.1-15.8c0.8,0.3,1.6,0.6,2.4,0.9L243-176.6z
			 M140.8-177.3l-6.2-15.8c0.8-0.3,1.6-0.6,2.4-0.9l5.9,15.8C142.2-177.9,141.5-177.6,140.8-177.3z M232.3-180.4
			c-0.7-0.2-1.4-0.4-2.2-0.7l4.8-16.2c0.8,0.2,1.6,0.5,2.4,0.7L232.3-180.4z M151.5-181l-4.8-16.2c0.8-0.2,1.6-0.5,2.5-0.7l4.5,16.3
			C153-181.4,152.3-181.2,151.5-181z M221.3-183.4c-0.7-0.2-1.5-0.3-2.2-0.5l3.4-16.6c0.8,0.2,1.7,0.4,2.5,0.5L221.3-183.4z
			 M162.6-183.8l-3.5-16.6c0.8-0.2,1.7-0.3,2.5-0.5l3.2,16.6C164.1-184.1,163.3-184,162.6-183.8z M210.1-185.4
			c-0.7-0.1-1.5-0.2-2.2-0.3l2.1-16.8c0.8,0.1,1.7,0.2,2.5,0.3L210.1-185.4z M173.8-185.7l-2.1-16.8c0.8-0.1,1.7-0.2,2.5-0.3
			l1.8,16.8C175.3-185.9,174.6-185.8,173.8-185.7z M198.8-186.5c-0.8,0-1.5-0.1-2.3-0.1l0.7-16.9c0.9,0,1.7,0.1,2.6,0.1L198.8-186.5
			z M185.2-186.6l-0.7-16.9c0.9,0,1.7-0.1,2.6-0.1l0.4,16.9C186.7-186.7,185.9-186.7,185.2-186.6z"/>
		<path class="st2" d="M191,30.1L191,30.1c-1.3,0-2.6,0-3.9-0.1l-1.2-0.1l1-19.3l1.2,0.1c6.3,0.3,12.5-0.4,18.5-2l1.2-0.3l5,18.7
			l-1.2,0.3C204.9,29.1,197.9,30,191,30.1z M188.4,27.6c7.2,0.3,14.4-0.5,21.4-2.3l-3.8-14c-5.5,1.4-11.2,2-16.9,1.8L188.4,27.6z
			 M172,27.7l-1.2-0.3c-8-2.1-15.6-5.5-22.6-9.9l-1-0.7l10.5-16.2l1,0.7c5.3,3.4,11,5.9,17,7.5l1.2,0.3L172,27.7z M150.5,16.1
			c6.1,3.8,12.7,6.7,19.7,8.7l3.7-14c-5.5-1.6-10.7-3.9-15.5-6.8L150.5,16.1z M225.9,22l-8.8-17.2l1.1-0.5c5.5-2.8,10.6-6.5,15.1-11
			c0.3-0.3,0.6-0.6,0.9-0.9l0.8-0.9l14,13.4l-0.8,0.9c-0.4,0.4-0.8,0.8-1.2,1.2c-5.9,5.9-12.6,10.8-19.9,14.5L225.9,22z M220.4,5.8
			l6.6,12.9c6.7-3.6,12.8-8.1,18.3-13.5c0.1-0.1,0.2-0.2,0.3-0.3l-10.5-10c0,0-0.1,0.1-0.1,0.1C230.6-0.7,225.7,2.9,220.4,5.8z
			 M136.2,8l-1.2-1.1c-5.8-5.8-10.6-12.4-14.3-19.6l-0.6-1.1l17.2-8.9l0.6,1.1c2.8,5.4,6.5,10.4,10.8,14.8l1.1,1.1L136.2,8z
			 M123.4-12.7c3.4,6.3,7.7,12.2,12.8,17.3l10.2-10.3c-4-4.1-7.4-8.7-10.1-13.7L123.4-12.7z M257.6-6.3l-16.4-10.2l0.6-1
			c3.3-5.3,5.7-11.1,7.2-17.2l0.3-1.2l18.8,4.6l-0.3,1.2c-2,8.1-5.2,15.7-9.6,22.7L257.6-6.3z M244.5-17.3l12.3,7.7
			c3.7-6.2,6.5-12.9,8.4-19.8L251.1-33C249.6-27.4,247.4-22.2,244.5-17.3z M115-26.9l-0.3-1.2c-1.9-6.8-2.8-13.9-2.8-21
			c0-1.2,0-2.3,0.1-3.5l0.1-1.2l19.3,0.8l-0.1,1.2c0,0.9-0.1,1.8-0.1,2.6c0,5.4,0.7,10.7,2.1,15.9l0.3,1.2L115-26.9z M114.3-51.2
			c0,0.7,0,1.5,0,2.2c0,6.5,0.8,12.9,2.4,19.2l14-3.8c-1.3-5-1.9-10.2-1.9-15.4c0-0.5,0-1,0-1.5L114.3-51.2z M270-45.2l-19.3-0.6
			l0-1.2c0-0.7,0-1.3,0-2c0-5.6-0.8-11.2-2.3-16.5l-0.3-1.2l18.6-5.3l0.3,1.2c2,7.1,3.1,14.4,3.1,21.8c0,0.9,0,1.8,0,2.6L270-45.2z
			 M253.2-48.2l14.5,0.5c0-0.5,0-0.9,0-1.4c0-6.8-0.9-13.5-2.6-20l-13.9,4c1.4,5.2,2.1,10.6,2.1,16
			C253.2-48.8,253.2-48.5,253.2-48.2z M132.8-62.8l-18.7-4.8l0.3-1.2c2.1-8,5.4-15.7,9.8-22.6l0.6-1l16.3,10.4l-0.6,1
			c-3.4,5.3-5.8,11-7.4,17.1L132.8-62.8z M117-69.4l14,3.6c1.5-5.5,3.8-10.7,6.8-15.6l-12.2-7.8C121.8-83,118.9-76.4,117-69.4z
			 M244.4-76l-0.6-1.1c-2.8-5.2-6.3-10-10.5-14.2l-1.6-1.5l13.5-13.9l1.8,1.7c5.6,5.6,10.3,11.9,13.9,18.8l0.6,1.1L244.4-76z
			 M235.1-92.9c4,4.1,7.5,8.6,10.2,13.6l12.8-6.8c-3.5-6.3-7.8-12-12.9-17.2l0,0L235.1-92.9z M147.4-90l-13.8-13.5l1.5-1.5
			c5.7-5.7,12.1-10.4,19.2-14.1l1.1-0.6l9,17.1l-1.1,0.6c-5.3,2.8-10.2,6.4-14.5,10.7L147.4-90z M137-103.5l10.4,10.1
			c4.1-4,8.7-7.4,13.6-10.2l-6.7-12.8C148-113,142.2-108.6,137-103.5z M223.8-99.1l-1-0.6c-5.3-3.3-11-5.8-17.1-7.3l-1.2-0.3
			l4.7-18.7l1.2,0.3c8,2,15.7,5.3,22.7,9.7l1,0.6L223.8-99.1z M207.4-109.1c5.5,1.5,10.7,3.7,15.6,6.7l7.7-12.3
			c-6.2-3.7-12.8-6.6-19.8-8.5L207.4-109.1z M173.6-106.3l-5.2-18.6l1.2-0.3c7.9-2.2,16.2-3.2,24.5-2.9l1.2,0l-0.7,19.3l-1.2,0
			c-6.3-0.2-12.5,0.5-18.5,2.2L173.6-106.3z M171.4-123.2l3.9,14c5.5-1.4,11.2-2.1,16.9-2l0.6-14.5
			C185.5-125.9,178.3-125,171.4-123.2z"/>
		<path class="st2" d="M188.7,388.6c-3.2,0-6.5-0.1-9.7-0.2l0.1-4.8c3.2,0.1,6.4,0.1,9.6,0.2L188.7,388.6z M200.9,388.5l-0.1-4.8
			c3.2-0.1,6.4-0.2,9.6-0.3l0.2,4.8C207.4,388.3,204.1,388.4,200.9,388.5z M166.9,388c-3.2-0.2-6.5-0.4-9.7-0.6l0.4-4.8
			c3.2,0.2,6.4,0.5,9.6,0.6L166.9,388z M222.7,387.5l-0.4-4.8c3.2-0.2,6.4-0.5,9.6-0.8l0.5,4.8C229.2,387,226,387.2,222.7,387.5z
			 M145.1,386.2c-3.2-0.3-6.4-0.7-9.7-1.1l0.6-4.8c3.2,0.4,6.4,0.8,9.5,1.1L145.1,386.2z M244.5,385.4l-0.6-4.8
			c3.2-0.4,6.4-0.8,9.5-1.3l0.7,4.8C250.9,384.5,247.7,385,244.5,385.4z M123.4,383.4c-3.2-0.5-6.4-1-9.6-1.6l0.8-4.8
			c3.2,0.6,6.3,1.1,9.5,1.6L123.4,383.4z M266.1,382.2l-0.8-4.8c3.2-0.5,6.3-1.1,9.5-1.7l0.9,4.7C272.5,381,269.3,381.6,266.1,382.2
			z M101.9,379.5c-3.2-0.7-6.3-1.3-9.5-2.1l1.1-4.7c3.1,0.7,6.2,1.4,9.4,2.1L101.9,379.5z M287.6,377.9l-1.1-4.7
			c3.1-0.7,6.2-1.4,9.4-2.2l1.2,4.7C293.9,376.4,290.7,377.2,287.6,377.9z M80.6,374.6c-3.1-0.8-6.3-1.7-9.4-2.5l1.3-4.6
			c3.1,0.9,6.2,1.7,9.3,2.5L80.6,374.6z M308.8,372.5l-1.3-4.7c3.1-0.9,6.2-1.8,9.2-2.7l1.4,4.6C315,370.8,311.9,371.7,308.8,372.5z
			 M59.6,368.5c-3.1-1-6.2-2-9.2-3L52,361c3,1,6.1,2,9.1,3L59.6,368.5z M329.7,366.2l-1.5-4.6c3-1,6.1-2.1,9.1-3.1l1.6,4.5
			C335.8,364.1,332.8,365.1,329.7,366.2z M39,361.5c-3-1.1-6.1-2.3-9.1-3.5l1.8-4.5c3,1.2,6,2.3,9,3.4L39,361.5z M350.3,358.7
			l-1.8-4.5c3-1.2,6-2.4,8.9-3.6l1.9,4.5C356.3,356.3,353.3,357.5,350.3,358.7z M18.7,353.4c-3-1.3-5.9-2.6-8.9-3.9l2-4.4
			c2.9,1.3,5.8,2.6,8.8,3.9L18.7,353.4z M370.5,350.3l-2-4.4c2.9-1.3,5.8-2.7,8.7-4l2.1,4.4C376.4,347.6,373.4,348.9,370.5,350.3z
			 M-1.2,344.3c-2.9-1.4-5.8-2.9-8.7-4.4l2.2-4.3c2.8,1.5,5.7,2.9,8.6,4.3L-1.2,344.3z M390.2,340.8l-2.2-4.3c2.9-1.5,5.7-3,8.5-4.5
			l2.3,4.3C396,337.8,393.1,339.3,390.2,340.8z M-20.5,334.2c-2.8-1.6-5.6-3.2-8.4-4.8l2.4-4.2c2.8,1.6,5.6,3.2,8.3,4.7L-20.5,334.2
			z M409.4,330.3l-2.4-4.2c2.8-1.6,5.5-3.2,8.3-4.9l2.5,4.1C415,327.1,412.2,328.7,409.4,330.3z M-39.4,323.2
			c-2.7-1.7-5.5-3.4-8.2-5.2l2.6-4c2.7,1.7,5.4,3.5,8.1,5.1L-39.4,323.2z M428.1,318.9l-2.6-4.1c2.7-1.7,5.4-3.5,8-5.3l2.7,4
			C433.6,315.4,430.8,317.2,428.1,318.9z M-57.6,311.2c-2.7-1.8-5.3-3.7-7.9-5.6l2.8-3.9c2.6,1.9,5.2,3.7,7.8,5.5L-57.6,311.2z
			 M446.2,306.6l-2.8-3.9c2.6-1.9,5.2-3.8,7.8-5.7l2.9,3.9C451.5,302.8,448.8,304.7,446.2,306.6z M-75.3,298.4c-2.6-2-5.1-4-7.6-6
			l3-3.8c2.5,2,5,4,7.5,5.9L-75.3,298.4z M463.7,293.3l-3-3.8c2.5-2,5-4,7.5-6.1l3.1,3.7C468.7,289.3,466.2,291.3,463.7,293.3z
			 M-92.2,284.7c-2.5-2.1-4.9-4.2-7.3-6.4l3.2-3.6c2.4,2.1,4.8,4.2,7.3,6.3L-92.2,284.7z M480.5,279.2l-3.2-3.6
			c2.4-2.1,4.8-4.3,7.1-6.4l3.3,3.5C485.3,274.9,482.9,277.1,480.5,279.2z M-108.5,270.1c-2.4-2.2-4.7-4.5-7-6.7l3.4-3.4
			c2.3,2.2,4.6,4.5,6.9,6.7L-108.5,270.1z M496.5,264.4l-3.4-3.5c1.3-1.3,2.6-2.6,4-3.9c1-1,1.9-1.9,2.9-2.9l3.4,3.4
			c-1,1-1.9,1.9-2.9,2.9C499.1,261.8,497.8,263.1,496.5,264.4z M-124.1,254.8c-2.3-2.3-4.5-4.7-6.7-7.1l3.6-3.3
			c2.2,2.3,4.4,4.7,6.6,7L-124.1,254.8z M511.7,248.7l-3.5-3.3c2.2-2.4,4.3-4.7,6.5-7.1l3.6,3.2C516.1,244,513.9,246.4,511.7,248.7z
			 M-138.9,238.6c-2.1-2.5-4.3-4.9-6.3-7.4l3.7-3.1c2.1,2.5,4.1,4.9,6.3,7.3L-138.9,238.6z M526.2,232.4l-3.7-3.1
			c2.1-2.5,4.1-4.9,6.1-7.4l3.8,3C530.4,227.4,528.3,229.9,526.2,232.4z M-152.9,221.8c-2-2.6-4-5.1-6-7.7l3.9-2.9
			c1.9,2.6,3.9,5.1,5.9,7.6L-152.9,221.8z M539.8,215.3l-3.8-2.9c1.9-2.5,3.8-5.1,5.7-7.7l3.9,2.8
			C543.7,210.2,541.8,212.8,539.8,215.3z M-166,204.3c-1.9-2.6-3.7-5.3-5.6-8l4-2.7c1.8,2.7,3.6,5.3,5.5,7.9L-166,204.3z
			 M552.6,197.6l-4-2.7c1.8-2.6,3.6-5.3,5.3-8l4,2.6C556.2,192.3,554.4,195,552.6,197.6z M-178.3,186.1c-1.7-2.7-3.5-5.5-5.1-8.3
			l4.1-2.5c1.7,2.7,3.4,5.5,5.1,8.2L-178.3,186.1z M564.5,179.3l-4.1-2.5c1.7-2.7,3.3-5.5,4.9-8.2l4.2,2.4
			C567.8,173.8,566.2,176.6,564.5,179.3z M-189.6,167.4c-1.6-2.8-3.2-5.7-4.7-8.5l4.3-2.3c1.5,2.8,3.1,5.6,4.7,8.4L-189.6,167.4z
			 M575.4,160.4l-4.2-2.3c1.5-2.8,3-5.6,4.5-8.5l4.3,2.2C578.5,154.7,576.9,157.6,575.4,160.4z M-199.9,148.1
			c-1.5-2.9-2.9-5.8-4.3-8.7l4.4-2.1c1.4,2.9,2.8,5.8,4.2,8.6L-199.9,148.1z M585.4,141l-4.4-2.1c1.4-2.9,2.7-5.8,4.1-8.7l4.4,2
			C588.1,135.2,586.8,138.1,585.4,141z M-209.3,128.3c-1.3-3-2.6-5.9-3.8-8.9l4.5-1.9c1.2,3,2.5,5.9,3.8,8.8L-209.3,128.3z
			 M594.3,121.1l-4.5-1.9c1.2-3,2.5-5.9,3.6-8.9l4.5,1.8C596.8,115.1,595.6,118.1,594.3,121.1z M-217.6,108.1
			c-1.2-3-2.3-6.1-3.4-9.1l4.5-1.6c1.1,3,2.2,6,3.3,9L-217.6,108.1z M602.3,100.8l-4.5-1.7c1.1-3,2.2-6,3.2-9.1l4.6,1.6
			C604.5,94.7,603.4,97.7,602.3,100.8z M-225,87.5c-1-3.1-2-6.2-2.9-9.3l4.6-1.4c0.9,3.1,1.9,6.1,2.9,9.2L-225,87.5z M609.3,80.1
			l-4.6-1.4c0.9-3.1,1.8-6.1,2.7-9.2l4.6,1.3C611.1,73.9,610.2,77,609.3,80.1z M-231.2,66.5c-0.9-3.1-1.7-6.3-2.5-9.4l4.7-1.2
			c0.8,3.1,1.6,6.2,2.4,9.3L-231.2,66.5z M615.2,59l-4.7-1.2c0.8-3.1,1.5-6.2,2.3-9.3l4.7,1.1C616.7,52.7,616,55.9,615.2,59z
			 M-236.5,45.3c-0.7-3.2-1.4-6.3-2-9.5l4.7-0.9c0.6,3.1,1.3,6.3,2,9.4L-236.5,45.3z M620,37.7l-4.7-1c0.6-3.1,1.2-6.3,1.8-9.4
			l4.8,0.8C621.3,31.4,620.7,34.5,620,37.7z M-240.6,23.8c-0.5-3.2-1-6.4-1.5-9.6l4.8-0.7c0.5,3.2,1,6.3,1.5,9.5L-240.6,23.8z
			 M623.8,16.2l-4.8-0.7c0.5-3.2,0.9-6.3,1.3-9.5l4.8,0.6C624.7,9.8,624.3,13,623.8,16.2z M-243.7,2.1c-0.4-3.2-0.7-6.4-1-9.7
			l4.8-0.5c0.3,3.2,0.6,6.4,1,9.6L-243.7,2.1z M626.5-5.5L621.7-6c0.3-3.2,0.6-6.4,0.8-9.6l4.8,0.4C627.1-11.9,626.8-8.7,626.5-5.5z
			 M-245.7-19.6c-0.2-2.5-0.3-5-0.4-7.5l4.8-0.2c0.1,2.5,0.3,5,0.4,7.5L-245.7-19.6z M628.1-27.3l-4.8-0.2c0.2-3.2,0.3-6.4,0.4-9.6
			l4.8,0.1C628.4-33.8,628.3-30.5,628.1-27.3z M628.7-49.1h-4.8c0-3.2,0-6.4-0.1-9.6l4.8-0.1C628.6-55.6,628.7-52.4,628.7-49.1z
			 M623.3-70.8c-0.2-3.2-0.4-6.4-0.6-9.6l4.8-0.3c0.2,3.2,0.4,6.5,0.6,9.7L623.3-70.8z M621.7-92.3c-0.3-3.2-0.7-6.4-1.1-9.6
			l4.8-0.6c0.4,3.2,0.8,6.4,1.1,9.7L621.7-92.3z M619-113.8c-0.5-3.2-1-6.3-1.5-9.5l4.8-0.8c0.6,3.2,1.1,6.4,1.6,9.6L619-113.8z
			 M615.2-135.1c-0.6-3.1-1.3-6.3-2-9.4l4.7-1.1c0.7,3.2,1.4,6.3,2,9.5L615.2-135.1z M610.4-156.2c-0.8-3.1-1.6-6.2-2.5-9.3l4.7-1.3
			c0.9,3.1,1.7,6.3,2.5,9.4L610.4-156.2z M604.6-177c-0.9-3.1-1.9-6.1-2.9-9.2l4.6-1.5c1,3.1,2,6.2,3,9.3L604.6-177z M597.7-197.5
			c-1.1-3-2.2-6-3.4-9l4.5-1.8c1.2,3,2.3,6.1,3.4,9.1L597.7-197.5z M589.8-217.6c-1.2-3-2.5-5.9-3.8-8.8l4.4-2
			c1.3,3,2.6,5.9,3.9,8.9L589.8-217.6z M580.8-237.4c-1.4-2.9-2.8-5.8-4.3-8.6l4.3-2.2c1.5,2.9,2.9,5.8,4.3,8.7L580.8-237.4z
			 M570.9-256.6c-1.5-2.8-3.1-5.6-4.7-8.4l4.2-2.4c1.6,2.8,3.2,5.6,4.8,8.5L570.9-256.6z M560.1-275.3c-1.7-2.7-3.4-5.4-5.1-8.1
			l4.1-2.6c1.8,2.7,3.5,5.5,5.2,8.2L560.1-275.3z M548.3-293.5c-1.8-2.6-3.7-5.3-5.5-7.9l3.9-2.8c1.9,2.6,3.8,5.3,5.6,8L548.3-293.5
			z M535.6-311.1c-1.9-2.5-3.9-5.1-5.9-7.6l3.8-3c2,2.5,4,5.1,6,7.7L535.6-311.1z M522-328c-2.1-2.4-4.2-4.9-6.3-7.3l3.6-3.2
			c2.2,2.4,4.3,4.9,6.4,7.4L522-328z M507.6-344.1c-2.2-2.3-4.4-4.7-6.6-7l3.5-3.4c2.3,2.3,4.5,4.7,6.7,7L507.6-344.1z M492.5-359.6
			c-2.3-2.2-4.6-4.4-7-6.6l3.3-3.5c2.4,2.2,4.7,4.4,7,6.7L492.5-359.6z M476.6-374.3c-2.4-2.1-4.8-4.2-7.3-6.3l3.1-3.7
			c2.5,2.1,4.9,4.2,7.4,6.3L476.6-374.3z M460.1-388.1c-2.5-2-5-4-7.6-5.9l2.9-3.8c2.6,2,5.1,3.9,7.7,5.9L460.1-388.1z M442.9-401.1
			c-2.6-1.9-5.2-3.7-7.9-5.5l2.7-4c2.7,1.8,5.3,3.7,7.9,5.6L442.9-401.1z M425-413.3c-2.7-1.7-5.4-3.4-8.1-5.1l2.5-4.1
			c2.8,1.7,5.5,3.4,8.2,5.2L425-413.3z M406.6-424.5c-2.8-1.6-5.6-3.2-8.4-4.7l2.3-4.2c2.8,1.5,5.7,3.1,8.5,4.7L406.6-424.5z
			 M387.6-434.8c-2.9-1.5-5.7-2.9-8.6-4.3l2.1-4.4c2.9,1.4,5.8,2.8,8.7,4.3L387.6-434.8z M368.2-444.1c-2.9-1.3-5.9-2.6-8.8-3.8
			l1.9-4.5c3,1.3,5.9,2.5,8.9,3.9L368.2-444.1z M348.2-452.4c-3-1.2-6-2.3-9-3.4l1.7-4.5c3,1.1,6.1,2.2,9.1,3.4L348.2-452.4z
			 M327.9-459.8c-3-1-6.1-2-9.1-2.9l1.4-4.6c3.1,1,6.2,1.9,9.2,3L327.9-459.8z M307.2-466.1c-3.1-0.9-6.2-1.7-9.3-2.5l1.2-4.7
			c3.1,0.8,6.3,1.6,9.4,2.5L307.2-466.1z M286.3-471.3c-3.1-0.7-6.3-1.4-9.4-2l1-4.7c3.2,0.6,6.3,1.3,9.5,2L286.3-471.3z
			 M265.1-475.5c-3.2-0.5-6.3-1.1-9.5-1.5l0.7-4.8c3.2,0.5,6.4,1,9.6,1.5L265.1-475.5z M243.7-478.7c-3.2-0.4-6.4-0.7-9.5-1.1
			l0.5-4.8c3.2,0.3,6.4,0.7,9.7,1.1L243.7-478.7z M222.2-480.8c-3.2-0.2-6.4-0.4-9.6-0.6l0.2-4.8c3.2,0.2,6.5,0.4,9.7,0.6
			L222.2-480.8z M200.6-481.8c-3.2-0.1-6.4-0.1-9.6-0.1v-4.8c3.2,0,6.5,0,9.7,0.1L200.6-481.8z"/>
		<path class="st2" d="M191,154.6L191,154.6c-3.3,0-6.6-0.1-9.8-0.2l0.2-4.8c3.2,0.2,6.4,0.2,9.6,0.2L191,154.6z M213.1,153.4
			l-0.5-4.8c3.2-0.3,6.4-0.8,9.5-1.3l0.8,4.8C219.6,152.6,216.4,153.1,213.1,153.4z M159.1,152.1c-3.2-0.5-6.5-1.1-9.7-1.8l1-4.7
			c3.1,0.6,6.3,1.2,9.5,1.7L159.1,152.1z M244.5,147.5l-1.3-4.7c3.1-0.8,6.2-1.8,9.2-2.7l1.5,4.6
			C250.8,145.7,247.7,146.7,244.5,147.5z M128,144.7c-3.1-1-6.2-2.1-9.3-3.3l1.7-4.5c3,1.1,6,2.2,9.1,3.2L128,144.7z M274.6,136.7
			l-2-4.4c2.9-1.3,5.8-2.7,8.7-4.2l2.2,4.3C280.6,134,277.6,135.4,274.6,136.7z M98.5,132.5c-2.9-1.5-5.8-3.1-8.7-4.7l2.4-4.2
			c2.8,1.6,5.6,3.1,8.5,4.6L98.5,132.5z M302.6,121.4l-2.7-4c2.7-1.8,5.3-3.6,7.9-5.5l2.8,3.9C308.1,117.7,305.4,119.6,302.6,121.4z
			 M71.3,115.8c-2.6-1.9-5.3-3.9-7.8-6l3-3.8c2.5,2,5.1,4,7.6,5.8L71.3,115.8z M327.9,101.8l-3.2-3.6c2.3-2.1,4.7-4.4,7-6.6l3.6,3.2
			L335,95C332.7,97.3,330.3,99.6,327.9,101.8z M47,95c-2.3-2.3-4.6-4.7-6.8-7.1l3.6-3.3c2.1,2.3,4.3,4.7,6.6,6.9L47,95z M349.9,78.3
			l-3.8-3c2-2.5,4-5.1,5.8-7.6l3.9,2.8C354,73.1,352,75.8,349.9,78.3z M26.2,70.7c-1.9-2.6-3.8-5.4-5.6-8.1l4-2.7
			c1.7,2.7,3.6,5.3,5.5,7.9L26.2,70.7z M367.9,51.9l-4.2-2.4c1.6-2.8,3.1-5.6,4.6-8.5l4.3,2.2C371.1,46.2,369.6,49.1,367.9,51.9z
			 M9.5,43.5c-1.5-2.9-2.9-5.9-4.3-8.9l4.4-2c1.3,2.9,2.7,5.8,4.2,8.7L9.5,43.5z M381.6,23l-4.5-1.7c1.1-3,2.2-6,3.2-9.1l4.6,1.5
			C383.8,16.8,382.7,20,381.6,23z M-2.8,14c-1-3.1-1.9-6.3-2.8-9.4l4.7-1.3c0.8,3.1,1.8,6.2,2.7,9.2L-2.8,14z M390.5-7.7l-4.7-1
			c0.6-3.1,1.2-6.3,1.7-9.5l4.8,0.7C391.7-14.1,391.1-10.9,390.5-7.7z M-10.2-17.1c-0.5-3.2-0.9-6.5-1.3-9.8l4.8-0.5
			c0.3,3.2,0.8,6.4,1.3,9.5L-10.2-17.1z M394.4-39.4l-4.8-0.2c0.1-3.1,0.2-6.3,0.2-9.4l4.8-0.2v0.2
			C394.7-45.9,394.6-42.6,394.4-39.4z M-12.7-49L-12.7-49c0-3.3,0.1-6.6,0.2-9.8l4.8,0.2c-0.2,3.2-0.2,6.4-0.2,9.5L-12.7-49z
			 M388.7-70.8c-0.3-3.2-0.8-6.4-1.3-9.5l4.8-0.8c0.5,3.2,1,6.5,1.3,9.8L388.7-70.8z M-5.5-80.1l-4.8-0.8c0.5-3.2,1.1-6.5,1.8-9.7
			l4.7,1C-4.4-86.4-5-83.3-5.5-80.1z M382.8-101.5c-0.8-3.1-1.8-6.2-2.7-9.2l4.6-1.5c1,3.1,2,6.3,2.8,9.4L382.8-101.5z M1.8-110.4
			l-4.6-1.5c1-3.1,2.1-6.2,3.3-9.3l4.5,1.7C3.8-116.5,2.8-113.5,1.8-110.4z M372.3-130.8c-1.3-2.9-2.7-5.8-4.2-8.7l4.3-2.2
			c1.5,2.9,2.9,5.9,4.3,8.9L372.3-130.8z M13.7-139.3l-4.3-2.2c1.5-2.9,3.1-5.8,4.7-8.7l4.2,2.4C16.7-145,15.2-142.1,13.7-139.3z
			 M357.3-158.2c-1.8-2.7-3.6-5.3-5.5-7.9l3.9-2.8c1.9,2.6,3.8,5.4,5.6,8.1L357.3-158.2z M30-165.9l-3.9-2.8c1.9-2.6,3.9-5.3,6-7.8
			l3.8,3C33.9-171,31.9-168.4,30-165.9z M338.1-182.8c-2.1-2.3-4.3-4.6-6.5-6.8l3.3-3.5l0.1,0.1c2.3,2.3,4.5,4.6,6.7,7L338.1-182.8z
			 M50.4-189.7l-3.5-3.3l0.1-0.1c2.3-2.3,4.6-4.5,7-6.7l3.3,3.6C54.9-194.1,52.6-191.9,50.4-189.7z M315.4-204.2
			c-2.5-2-5.1-4-7.6-5.8l2.8-3.9c2.6,1.9,5.3,3.9,7.8,6L315.4-204.2z M74-209.9l-2.8-3.9c2.6-1.9,5.4-3.8,8.1-5.6l2.7,4
			C79.2-213.6,76.6-211.8,74-209.9z M289.6-221.8c-2.8-1.6-5.6-3.1-8.5-4.6l2.2-4.3c2.9,1.5,5.8,3.1,8.7,4.7L289.6-221.8z
			 M100.6-226.2l-2.2-4.3c2.9-1.5,5.9-2.9,8.9-4.3l2,4.4C106.3-229.1,103.4-227.7,100.6-226.2z M261.4-235.1c-3-1.1-6-2.2-9.1-3.2
			l1.5-4.6c3.1,1,6.2,2.1,9.3,3.3L261.4-235.1z M129.4-238.2l-1.5-4.6c3.1-1,6.3-2,9.4-2.8l1.3,4.7
			C135.5-240.1,132.4-239.2,129.4-238.2z M231.4-243.8c-3.1-0.6-6.3-1.2-9.5-1.7l0.8-4.8c3.2,0.5,6.5,1.1,9.7,1.8L231.4-243.8z
			 M159.8-245.5l-0.8-4.8c3.2-0.5,6.5-0.9,9.8-1.3l0.5,4.8C166.1-246.4,162.9-246,159.8-245.5z M200.5-247.7
			c-3.1-0.1-6.3-0.2-9.5-0.2l-0.1-4.8h0.1c3.2,0,6.5,0.1,9.7,0.2L200.5-247.7z"/>
		<g>
			<path class="st2" d="M167.7,352.8l-1.2-0.1c-52.9-3.2-103.7-16.5-151.2-39.5l-1.1-0.5l27.4-56.5l1.1,0.5
				c40,19.4,82.9,30.6,127.6,33.3l1.2,0.1L167.7,352.8z M17.5,311.6c46.5,22.4,96.2,35.4,148,38.7l3.5-57.9
				c-44.1-2.8-86.5-13.9-126.2-32.9L17.5,311.6z M344.7,323l-24.1-58l1.1-0.5c41-17.1,77.8-41.8,109.5-73.4
				c29.1-29.1,52.4-62.7,69.2-99.8l0.5-1.1l57.2,25.9l-0.5,1.1c-20,44-47.6,83.8-82,118.3c-37.5,37.5-81.2,66.8-129.8,87L344.7,323z
				 M323.7,266.3l22.3,53.5c47.9-20.1,90.9-49,127.9-86c34-34,61.2-73.1,81-116.5l-52.8-24c-16.9,36.9-40.2,70.4-69.2,99.4
				C401.3,224.5,364.6,249.2,323.7,266.3z M-125.3,199.9l-0.7-1c-32.6-41.6-56.4-88.5-70.6-139.4l-0.3-1.2l60.5-16.9l0.3,1.2
				c12,42.9,32,82.5,59.5,117.6l0.7,1L-125.3,199.9z M-194,60c14.1,49.8,37.3,95.7,69.1,136.5l45.6-35.8
				c-27.1-34.8-46.9-73.9-58.9-116.3L-194,60z M530.6-57.9l0-1.2c-1.3-44.7-11.2-87.9-29.3-128.5l-0.5-1.1l57.4-25.6l0.5,1.1
				c21.5,48.1,33.2,99.4,34.8,152.3l0,1.2L530.6-57.9z M503.9-187.6c17.8,40.2,27.5,83,29,127.2l58-1.7
				c-1.7-51.8-13.1-101.9-34-149.1L503.9-187.6z M409.4-309.3l-0.9-0.8c-34.2-28.6-73.2-49.9-115.6-63.2l-1.2-0.4l18.8-59.9l1.2,0.4
				c50.4,15.8,96.5,41,137.1,74.9l0.9,0.8L409.4-309.3z M294.7-375.1c42,13.3,80.4,34.3,114.4,62.5l37.2-44.5
				c-39.8-33.1-85-57.7-134.2-73.3L294.7-375.1z M14.7-339.5l-32.4-53.8l1-0.6c45.2-27.2,94.6-45.1,147-53l1.2-0.2l9.4,62.1
				l-1.2,0.2c-44.2,6.7-85.9,21.8-124,44.7L14.7-339.5z M-14.4-392.5l29.9,49.7c37.7-22.6,79-37.5,122.6-44.2l-8.7-57.3
				C78.3-436.5,29.9-419-14.4-392.5z"/>
		</g>
		<path class="st2" d="M191,433.6c-50.8,0-100.9-7.9-149.1-23.5l-1.1-0.4l40.2-124.1l1.2,0.4c35.2,11.4,71.8,17.2,108.9,17.2
			c10.7,0,21.4-0.5,32-1.4l1.2-0.1L236,431.5l-1.2,0.1C220.3,433,205.6,433.6,191,433.6z M43.8,408.2c47.6,15.3,97.1,23,147.2,23
			c14.1,0,28.4-0.6,42.4-1.9L222,304.2c-10.3,0.9-20.7,1.4-31.1,1.4c-36.9,0-73.4-5.7-108.5-16.9L43.8,408.2z M369.1,399.7
			l-48.4-121.2l1.1-0.4c44.4-17.7,84.1-44,118.2-78.1c2.8-2.8,5.6-5.7,8.2-8.5l0.8-0.9l95.3,89.2l-0.8,0.9
			c-3.7,3.9-7.5,7.8-11.2,11.6c-46.7,46.7-101.2,82.7-162.1,107L369.1,399.7z M323.8,279.9l46.6,116.7c60.1-24.2,114-59.8,160.2-106
			c3.5-3.5,7-7.1,10.4-10.7L449.2,194c-2.4,2.6-4.9,5.2-7.5,7.7C407.7,235.8,368,262,323.8,279.9z M622.5,167.5l-116.8-58.2l0.5-1.1
			c21.4-42.8,33.6-88.9,36.3-136.9l0.1-1.2l130.3,7.5l-0.1,1.2c-3.8,65.8-20.5,129-49.8,187.7L622.5,167.5z M509,108.1l112.4,56.1
			c28.6-57.8,45.1-119.8,49-184.5L545-27.4C542.1,20.1,530,65.7,509,108.1z M-273.6,82.2l-0.3-1.2C-285.7,38.7-291.7-5-291.7-49.1
			c0-21.2,1.4-42.6,4.2-63.5l0.2-1.2L-158-96.7l-0.2,1.2c-2,15.3-3.1,31-3.1,46.5c0,32.2,4.4,64.1,13,95l0.3,1.2L-273.6,82.2z
			 M-285.3-111.1c-2.7,20.5-4,41.4-4,62c0,43.4,5.8,86.5,17.4,128.3l121-33.8c-8.5-30.7-12.8-62.5-12.8-94.5c0-15.2,1-30.5,2.9-45.6
			L-285.3-111.1z M-131-192.1l-119.1-53.4l0.5-1.1c24-53.6,57.4-102,99.2-143.8c4.7-4.7,9.5-9.3,14.3-13.7l0.9-0.8l88.5,95.9
			l-0.9,0.8c-3.5,3.3-7.1,6.7-10.5,10.1c-30.6,30.6-54.9,65.9-72.4,104.9L-131-192.1z M-246.9-246.7l114.7,51.4
			c17.6-38.9,41.9-74,72.4-104.5c3.1-3.1,6.4-6.3,9.7-9.3l-85.2-92.4c-4.5,4.2-9,8.5-13.3,12.8C-190-347.3-223-299.5-246.9-246.7z
			 M403.5-330l-1-0.7c-38.3-28.8-81.3-49.2-127.9-60.6l-1.2-0.3l30.8-126.8l1.2,0.3c64,15.6,123.1,43.5,175.6,83.1l1,0.7L403.5-330z
			 M276.4-393.3c46.1,11.4,88.7,31.5,126.7,60l75.6-100.3c-51.7-38.8-109.8-66.3-172.6-81.7L276.4-393.3z M35.1-365l-57.3-117.2
			l1.1-0.5c59-28.8,122.3-45.1,188.1-48.4l1.2-0.1l6.5,130.3l-1.2,0.1c-48.1,2.4-94.2,14.3-137.2,35.3L35.1-365z M-19-481.1
			l55.2,112.9c42.6-20.7,88.3-32.4,135.9-34.9l-6.2-125.5C101.2-525.3,39-509.3-19-481.1z"/>
		<path class="st2" d="M1,503.7l-1.1-0.4c-50.3-17.4-98-41.6-141.8-71.9c-21.1-14.6-41.4-30.7-60.4-47.9l-0.9-0.8l105.8-116.7
			l0.9,0.8c13.9,12.6,28.8,24.4,44.2,35.1c32.1,22.2,67,39.9,103.7,52.6l1.1,0.4L1,503.7z M-199.9,382.4
			c18.7,16.9,38.6,32.6,59.3,46.9c43.3,30,90.5,53.9,140.1,71.2l49.9-144.3c-36.5-12.8-71.2-30.4-103.1-52.5
			c-15.2-10.5-29.8-22.1-43.6-34.5L-199.9,382.4z M544.2,416.2L448.5,291l1-0.7c35.6-27.2,66.6-59.7,92.2-96.7
			c7.3-10.6,14.3-21.7,20.7-32.9l0.6-1.1l137.1,77.6l-0.6,1.1c-8.7,15.4-18.2,30.5-28.2,45l-1-0.7l1,0.7
			c-35,50.6-77.4,95.1-126.1,132.3L544.2,416.2z M451.9,291.5l92.7,121.4c48.1-36.9,90.1-81,124.7-131c9.8-14.1,19-28.8,27.5-43.8
			l-132.9-75.2c-6.2,10.9-13,21.7-20.2,32.1C518.2,231.8,487.3,264.2,451.9,291.5z M-309,254.4l-0.6-1
			c-36.8-60.8-62-127.4-74.9-197.9c-1.4-7.8-2.7-15.8-3.8-23.7l-0.2-1.2l156-22l0.2,1.2c0.8,5.8,1.8,11.6,2.8,17.4
			c9.4,51.6,27.8,100.2,54.6,144.6l0.6,1L-309,254.4z M-385.7,32.6c1.1,7.4,2.3,15,3.6,22.4c12.7,69.8,37.6,135.8,73.9,196.1
			l130.6-79.1c-26.7-44.3-44.9-92.9-54.3-144.3c-1-5.4-1.9-10.9-2.7-16.3L-385.7,32.6z M760.2,82.2L606.6,47l0.3-1.2
			c12.9-56.4,14.2-114.2,3.7-171.7c-0.9-4.7-1.8-9.5-2.8-14.1l-0.3-1.2l154-33.3l0.3,1.2c1.4,6.4,2.7,12.8,3.8,19.2
			C779.9-75.5,778.2,3.6,760.5,81L760.2,82.2z M609.5,45.2l148.9,34.1c17.4-76.7,19-155.1,4.8-233c-1.1-6-2.3-12-3.6-17.9
			l-149.3,32.3c0.9,4.3,1.8,8.6,2.6,13C623.5-68.9,622.3-11.2,609.5,45.2z M-231.9-112.1l-1.2-0.2l-154.6-23.4l0.2-1.2
			c11.9-78.6,39.3-152.9,81.4-220.7l0.6-1l133.9,83.1l-0.6,1c-30.8,49.6-50.8,103.8-59.5,161.1L-231.9-112.1z M-384.9-137.7
			l151,22.8c8.8-56.8,28.6-110.6,59-159.8l-129.8-80.6C-346.1-288.3-373.1-215.1-384.9-137.7z M565.3-254.2l-0.6-1.1
			c-28-50.8-65.5-94.8-111.5-130.7l-1-0.7l0.7-1l96.1-123.3l1,0.7c63,49.1,114.3,109.3,152.6,179l0.6,1.1L565.3-254.2z M455.7-387.1
			c45.5,35.7,82.7,79.3,110.6,129.6l133.8-73.6c-37.9-68.6-88.5-127.9-150.5-176.4L455.7-387.1z M-93.8-367.9l-104.7-117.7l0.9-0.8
			c59.6-53,128.2-92.6,203.8-117.6l1.1-0.4l49.5,149.6l-1.1,0.4C0.5-436.2-49.5-407.4-92.9-368.7L-93.8-367.9z M-195.1-485.4
			l101.5,114.1c43.2-38.2,92.8-66.8,147.4-85.1l-48-145C-68.7-576.6-136.3-537.6-195.1-485.4z"/>
		<path class="st2" d="M190.9,232.3c-73.2,0-144.9-28.6-198.8-82.5C-61,96.7-90.2,26.1-90.2-49.1c0-75.1,29.3-145.7,82.4-198.8
			c109.6-109.6,288-109.6,397.7,0c66.1,66.1,95,160.5,77.2,252.4l-4.7-0.9c17.4-90.4-10.9-183.1-75.9-248.1
			c-107.8-107.8-283.1-107.8-390.9,0c-52.2,52.2-81,121.6-81,195.4c0,73.8,28.7,143.2,81,195.4c78.7,78.7,196.3,102.6,299.4,60.7
			l1.8,4.5C262.4,225.5,226.5,232.3,190.9,232.3z"/>
		<path class="st2" d="M377.7,540.9l-1.5-4.6c37.1-11.7,73.2-27,107.3-45.6l2.1-1.2l23,42.4c55-30.1,105.6-68.1,150.4-112.8
			c4.5-4.5,8.9-9.1,13.3-13.7l-35.2-33l1.7-1.8c16.5-17.6,32.1-36.2,46.3-55.5l3.9,2.9c-13.9,18.8-29,37-45,54.2l35.2,33l-1.7,1.8
			c-4.9,5.2-9.9,10.4-15,15.5c-45.6,45.6-97.3,84.3-153.6,114.8l-2.1,1.2l-23-42.4C450,514.3,414.3,529.3,377.7,540.9z"/>
		<path class="st2" d="M-106,548.4l-2.2-1.1c-57.3-28.7-110.2-65.7-157.2-109.9l-1.8-1.7l33.1-35.2c-4.7-4.5-8.8-8.4-12.5-12.2
			c-44.7-44.7-82.1-95.6-111.1-151.2l4.3-2.2c28.8,55.2,65.9,105.6,110.3,150c4.2,4.2,8.7,8.6,14.2,13.7l1.8,1.7l-33.1,35.2
			c45.7,42.6,96.8,78.3,152.2,106.3l21.6-43.2l2.2,1.1c34.3,17.2,70.5,31.2,107.5,41.7l-1.3,4.6c-36.5-10.3-72.2-24.1-106.2-41
			L-106,548.4z"/>
		<path class="st2" d="M549.5,93l-4.5-1.8c12.2-30.9,20.3-63.4,24.2-96.7c3.8-33.3,3.3-66.8-1.6-99.7l4.8-0.7
			c4.9,33.3,5.5,67.2,1.6,100.9C570.1,28.7,561.9,61.7,549.5,93z"/>
		<path class="st2" d="M191.9,336.6c-14.9,0-29.9-0.9-45-2.6C-64.3,309.6-216.3,118-192-93.1c11.8-102.3,62.7-193.9,143.4-257.9
			c80.7-64,181.4-92.8,283.7-81c99.7,11.5,189.7,60.4,253.5,137.9l-3.7,3.1c-63-76.5-151.9-124.8-250.3-136.1
			c-101-11.6-200.5,16.8-280.2,80c-79.7,63.2-129.9,153.7-141.6,254.7c-24,208.5,126.1,397.7,334.7,421.7
			c58.6,6.7,116.2,0.2,171.3-19.5l1.6,4.5C278.8,329.1,235.7,336.6,191.9,336.6z"/>
		<path class="st2" d="M185.7,202.4l-1.2,0c-2.8-0.1-5.7-0.2-8.5-0.4l-1.2-0.1l1.1-18.6l1.2,0.1c2.6,0.2,5.2,0.3,7.9,0.3l1.2,0
			L185.7,202.4z M177.4,199.7c2,0.1,4,0.2,6,0.3l0.3-13.8c-1.8-0.1-3.7-0.1-5.5-0.2L177.4,199.7z M200.3,202.3l-0.8-18.6l1.2-0.1
			c2.6-0.1,5.2-0.3,7.9-0.5l1.2-0.1l1.4,18.6l-1.2,0.1c-2.8,0.2-5.6,0.4-8.5,0.5L200.3,202.3z M202,185.9l0.6,13.8
			c2-0.1,4-0.2,6-0.4l-1-13.8C205.7,185.8,203.8,185.9,202,185.9z M160.3,200.6l-1.2-0.2c-2.8-0.4-5.6-0.8-8.4-1.2l-1.2-0.2l3-18.4
			l1.2,0.2c2.6,0.4,5.2,0.8,7.8,1.1l1.2,0.2L160.3,200.6z M152.3,197c2,0.3,3.9,0.6,5.9,0.9l1.7-13.7c-1.8-0.2-3.6-0.5-5.5-0.8
			L152.3,197z M225.6,200l-2.7-18.5l1.2-0.2c2.6-0.4,5.2-0.8,7.8-1.2l1.2-0.2l3.3,18.4l-1.2,0.2c-2.8,0.5-5.6,0.9-8.4,1.4L225.6,200
			z M225.7,183.6l2,13.7c2-0.3,4-0.6,5.9-1l-2.4-13.6C229.4,183.1,227.5,183.4,225.7,183.6z M135.2,196.2l-1.2-0.3
			c-2.7-0.6-5.5-1.3-8.2-2l-1.2-0.3l4.8-18l1.2,0.3c2.5,0.7,5.1,1.3,7.6,1.9l1.2,0.3L135.2,196.2z M127.6,191.9
			c1.9,0.5,3.9,1,5.8,1.4l3.1-13.5c-1.8-0.4-3.6-0.9-5.4-1.3L127.6,191.9z M250.7,195.3l-4.5-18.1l1.2-0.3c2.5-0.6,5.1-1.3,7.6-2
			l1.2-0.3l5.1,17.9l-1.2,0.3c-2.7,0.8-5.5,1.5-8.2,2.2L250.7,195.3z M249.1,178.9l3.3,13.4c1.9-0.5,3.9-1,5.8-1.5l-3.8-13.3
			C252.7,178,250.9,178.5,249.1,178.9z M110.7,189.4l-1.1-0.4c-2.7-0.9-5.3-1.9-8-2.9l-1.1-0.4l6.6-17.4l1.1,0.4
			c2.5,0.9,4.9,1.8,7.4,2.7l1.1,0.4L110.7,189.4z M103.6,184.3c1.9,0.7,3.7,1.4,5.6,2l4.5-13.1c-1.7-0.6-3.5-1.2-5.2-1.9
			L103.6,184.3z M87.1,180.1l-1.1-0.5c-2.6-1.2-5.1-2.4-7.6-3.7l-1.1-0.5l8.3-16.7l1.1,0.5c2.4,1.2,4.7,2.3,7.1,3.4l1.1,0.5
			L87.1,180.1z M80.5,174.3c1.8,0.9,3.6,1.7,5.4,2.6l5.8-12.6c-1.7-0.8-3.3-1.6-5-2.4L80.5,174.3z M64.5,168.4l-1-0.6
			c-2.4-1.4-4.8-2.9-7.2-4.4l-1-0.6l10-15.7l1,0.6c2.2,1.4,4.5,2.8,6.7,4.1l1,0.6L64.5,168.4z M58.5,162c1.7,1.1,3.4,2.1,5.1,3.1
			l7-11.9c-1.6-0.9-3.1-1.9-4.7-2.9L58.5,162z M361.7,135.5L349,121.9l0.9-0.8c1.9-1.8,3.8-3.6,5.7-5.5l1.2-1.2l13.2,13.2l-1.2,1.2
			c-2.1,2.1-4.1,4-6.1,5.9L361.7,135.5z M352.4,122l9.4,10.1c1.6-1.5,3.1-3,4.7-4.5l-9.8-9.8C355.3,119.2,353.8,120.6,352.4,122z
			 M379.8,116.9l-14.1-12.2l0.8-0.9c1.7-2,3.4-4,5.1-6l0.8-0.9l14.5,11.8l-0.8,0.9c-1.8,2.2-3.6,4.4-5.5,6.5L379.8,116.9z
			 M369.2,104.4l10.4,9.1c1.3-1.5,2.6-3,3.9-4.6l-10.7-8.7C371.6,101.6,370.4,103,369.2,104.4z M-11,100.9l-0.7-1
			c-1.7-2.3-3.3-4.6-4.9-6.9l-0.7-1l15.4-10.6l0.7,1c1.5,2.2,3,4.3,4.6,6.4l0.7,1L-11,100.9z M-13.9,92.7c1.1,1.6,2.3,3.3,3.5,4.9
			l11.1-8.2c-1.1-1.5-2.2-3-3.2-4.5L-13.9,92.7z M395.7,97l-15.2-10.8l0.7-1c1.5-2.1,3-4.3,4.4-6.5l0.7-1L401.8,88l-0.7,1
			c-1.6,2.4-3.1,4.7-4.8,7L395.7,97z M383.8,85.6l11.3,8c1.1-1.6,2.3-3.3,3.4-5l-11.5-7.6C385.9,82.6,384.9,84.1,383.8,85.6z
			 M-25.1,79.8l-0.6-1c-1.4-2.4-2.8-4.9-4.2-7.4l-0.6-1.1l16.4-8.9l0.6,1.1c1.2,2.3,2.5,4.6,3.9,6.8l0.6,1L-25.1,79.8z M-27.2,71.2
			c1,1.7,2,3.5,3,5.2l11.9-7c-0.9-1.6-1.8-3.2-2.7-4.8L-27.2,71.2z M409.4,75.5l-16.2-9.2l0.6-1.1c1.3-2.3,2.5-4.6,3.7-6.9l0.6-1.1
			l16.5,8.6L414,67c-1.3,2.5-2.7,5-4,7.5L409.4,75.5z M396.5,65.4l12,6.8c1-1.7,1.9-3.5,2.9-5.3l-12.3-6.4
			C398.2,62.2,397.4,63.8,396.5,65.4z M-37,57.3l-0.5-1.1c-1.2-2.6-2.3-5.2-3.4-7.8l-0.5-1.1l17.2-7.2l0.5,1.1
			c1,2.4,2.1,4.8,3.2,7.2l0.5,1.1L-37,57.3z M-38.3,48.5c0.8,1.8,1.6,3.7,2.4,5.5l12.5-5.8c-0.8-1.7-1.5-3.4-2.2-5.1L-38.3,48.5z
			 M420.9,52.8l-17.1-7.5l0.5-1.1c1-2.4,2-4.8,3-7.2l0.4-1.1l17.3,6.9l-0.4,1.1c-1,2.6-2.1,5.2-3.3,7.8L420.9,52.8z M407,44.1
			l12.7,5.5c0.8-1.8,1.6-3.7,2.3-5.5L409.1,39C408.4,40.7,407.7,42.4,407,44.1z M-46.6,33.6l-0.4-1.1c-0.9-2.7-1.8-5.4-2.6-8.1
			l-0.4-1.2l17.8-5.4l0.4,1.2c0.8,2.5,1.6,5,2.4,7.5l0.4,1.1L-46.6,33.6z M-46.9,24.8c0.6,1.9,1.2,3.8,1.8,5.7l13.1-4.5
			c-0.6-1.7-1.2-3.5-1.7-5.3L-46.9,24.8z M430,29l-17.8-5.7l0.4-1.2c0.8-2.5,1.6-5,2.3-7.5l0.3-1.2l17.9,5.1l-0.3,1.2
			c-0.8,2.7-1.6,5.4-2.5,8.1L430,29z M415.2,21.8l13.2,4.2c0.6-1.9,1.2-3.8,1.7-5.7l-13.3-3.8C416.3,18.3,415.8,20,415.2,21.8z
			 M-53.7,9.2L-54,8c-0.6-2.8-1.2-5.5-1.8-8.3L-56-1.5l18.3-3.6l0.2,1.2c0.5,2.6,1.1,5.1,1.6,7.7l0.3,1.2L-53.7,9.2z M-53.2,0.4
			c0.4,2,0.8,3.9,1.3,5.9l13.5-3.1c-0.4-1.8-0.8-3.6-1.2-5.4L-53.2,0.4z M436.6,4.5l-18.2-3.9l0.3-1.2c0.5-2.6,1-5.1,1.5-7.7
			l0.2-1.2l18.4,3.2L438.5-5c-0.5,2.8-1,5.6-1.6,8.3L436.6,4.5z M421.2-1.2l13.5,2.9c0.4-2,0.8-3.9,1.1-5.9l-13.6-2.4
			C421.9-4.8,421.6-3,421.2-1.2z M-58.3-15.9l-0.2-1.2c-0.4-2.8-0.7-5.6-0.9-8.4l-0.1-1.2l18.6-1.7l0.1,1.2c0.2,2.6,0.5,5.2,0.9,7.8
			l0.2,1.2L-58.3-15.9z M-56.9-24.6c0.2,2,0.4,4,0.7,6l13.7-1.7c-0.2-1.8-0.4-3.7-0.6-5.5L-56.9-24.6z M440.7-20.6l-18.5-2l0.1-1.2
			c0.3-2.6,0.5-5.2,0.7-7.8l0.1-1.2l18.6,1.4l-0.1,1.2c-0.2,2.8-0.5,5.6-0.8,8.4L440.7-20.6z M424.8-24.8l13.7,1.5
			c0.2-2,0.4-4,0.5-6l-13.8-1C425.2-28.4,425-26.6,424.8-24.8z M-60.4-41.3l0-1.2c-0.1-2.8-0.1-5.7-0.1-8.5l0-1.2l18.6,0.1l0,1.2
			c0,2.6,0,5.2,0.1,7.9l0,1.2L-60.4-41.3z M-58.1-49.8c0,2,0,4,0.1,6l13.8-0.4c0-1.8-0.1-3.7,0-5.5L-58.1-49.8z M442.3-46l-18.6-0.1
			l0-1.2c0-2.6,0-5.2-0.1-7.9l0-1.2l18.6-0.5l0,1.2c0.1,2.8,0.1,5.7,0.1,8.5L442.3-46z M426.1-48.6l13.8,0.1c0-2,0-4-0.1-6L426-54.1
			C426.1-52.2,426.1-50.4,426.1-48.6z M-41.3-65.3l-18.6-1.4l0.1-1.2c0.2-2.8,0.5-5.6,0.8-8.4l0.1-1.2l18.5,2l-0.1,1.2
			c-0.3,2.6-0.5,5.2-0.7,7.8L-41.3-65.3z M-57.3-69l13.8,1c0.1-1.8,0.3-3.7,0.5-5.5l-13.7-1.5C-56.9-72.9-57.1-71-57.3-69z
			 M422.8-69.7l-0.1-1.2c-0.2-2.6-0.5-5.2-0.9-7.8l-0.2-1.2l18.5-2.4l0.2,1.2c0.4,2.8,0.7,5.6,0.9,8.4l0.1,1.2L422.8-69.7z
			 M424.3-77.9c0.2,1.8,0.4,3.7,0.6,5.5l13.8-1.3c-0.2-2-0.4-4-0.7-6L424.3-77.9z M-38.5-88.7L-56.8-92l0.2-1.2
			c0.5-2.8,1-5.6,1.6-8.3l0.3-1.2l18.2,3.9l-0.3,1.2c-0.5,2.6-1,5.1-1.5,7.7L-38.5-88.7z M-54-94l13.6,2.4c0.3-1.8,0.7-3.6,1.1-5.4
			l-13.5-2.9C-53.3-97.9-53.7-95.9-54-94z M419.5-93.1l-0.2-1.2c-0.5-2.6-1.1-5.1-1.7-7.7l-0.3-1.2l18.2-4.2l0.3,1.2
			c0.6,2.8,1.2,5.5,1.8,8.3l0.2,1.2L419.5-93.1z M420.2-101.3c0.4,1.8,0.8,3.6,1.2,5.4l13.6-2.7c-0.4-2-0.8-3.9-1.3-5.9L420.2-101.3
			z M-33.3-111.7l-17.9-5.1l0.3-1.2c0.8-2.7,1.6-5.4,2.5-8.1l0.4-1.1l17.7,5.7l-0.4,1.1c-0.8,2.5-1.6,5-2.3,7.5L-33.3-111.7z
			 M-48.2-118.5l13.3,3.8c0.5-1.8,1-3.5,1.6-5.3l-13.1-4.2C-47.1-122.3-47.7-120.4-48.2-118.5z M413.9-116l-0.4-1.2
			c-0.8-2.5-1.6-5-2.4-7.5l-0.4-1.1l17.6-6l0.4,1.1c0.9,2.7,1.8,5.4,2.6,8.1l0.4,1.2L413.9-116z M413.8-124.3
			c0.6,1.8,1.2,3.5,1.7,5.3l13.2-4c-0.6-1.9-1.2-3.8-1.9-5.7L413.8-124.3z M-25.8-134l-17.3-6.9l0.4-1.1c1-2.6,2.1-5.2,3.3-7.8
			l0.5-1.1l17.1,7.5l-0.5,1.1c-1,2.4-2.1,4.8-3,7.2L-25.8-134z M-40-142.3l12.8,5.1c0.7-1.7,1.4-3.4,2.1-5.1l-12.7-5.5
			C-38.5-146-39.3-144.1-40-142.3z M406-138.2l-0.5-1.1c-1-2.4-2.1-4.8-3.2-7.2l-0.5-1.1l16.9-7.8l0.5,1.1c1.2,2.6,2.3,5.2,3.4,7.8
			l0.5,1.1L406-138.2z M405-146.5c0.8,1.7,1.5,3.4,2.2,5.1l12.7-5.4c-0.8-1.8-1.6-3.7-2.4-5.5L405-146.5z M395.8-159.5l-0.6-1.1
			c-1.3-2.3-2.5-4.6-3.9-6.8l-0.6-1l16-9.5l0.6,1c1.4,2.4,2.8,4.9,4.2,7.4l0.6,1.1L395.8-159.5z M394-167.6c0.9,1.6,1.8,3.2,2.7,4.8
			l12.1-6.6c-1-1.7-2-3.5-3-5.2L394-167.6z M383.6-179.7l-0.7-1c-1.5-2.2-3-4.3-4.6-6.4l-0.7-1l15-11.1l0.7,1
			c1.7,2.3,3.3,4.6,4.9,6.9l0.7,1L383.6-179.7z M381-187.5c1.1,1.5,2.2,3,3.2,4.5l11.4-7.8c-1.1-1.6-2.3-3.3-3.5-4.9L381-187.5z
			 M369.3-198.5l-0.8-0.9c-1.7-2-3.4-4-5.2-5.9l-0.8-0.9l13.8-12.5l0.8,0.9c1.9,2.1,3.8,4.2,5.6,6.4l0.8,0.9L369.3-198.5z M366-206
			c1.2,1.4,2.5,2.8,3.7,4.2l10.5-8.9c-1.3-1.5-2.6-3-3.9-4.5L366-206z M25.3-212.5l-13.2-13.2l1-1c1.9-1.9,3.9-3.8,5.9-5.7l0.9-0.8
			l12.8,13.6l-0.9,0.8c-1.8,1.7-3.7,3.5-5.5,5.3L25.3-212.5z M15.5-225.7l9.8,9.8c1.3-1.3,2.6-2.6,4-3.9l-9.4-10.1
			C18.4-228.5,16.9-227.1,15.5-225.7z M353.3-215.7l-0.9-0.8c-1.9-1.8-3.8-3.6-5.8-5.4l-0.9-0.8l12.5-13.8l0.9,0.8
			c2.1,1.9,4.2,3.8,6.2,5.8l0.9,0.8L353.3-215.7z M349.2-222.9c1.4,1.2,2.7,2.5,4,3.8l9.6-9.9c-1.4-1.4-2.9-2.7-4.4-4.1L349.2-222.9
			z M42.7-228.5l-11.8-14.4l0.9-0.8c2.2-1.8,4.4-3.6,6.7-5.3l1-0.7l11.3,14.8l-1,0.7c-2.1,1.6-4.1,3.2-6.2,4.9L42.7-228.5z
			 M34.3-242.5l8.8,10.7c1.4-1.2,2.9-2.3,4.3-3.4l-8.4-11C37.4-245,35.8-243.8,34.3-242.5z M61.6-242.5l-10.3-15.5l1-0.7
			c2.4-1.6,4.8-3.1,7.2-4.6l1-0.6l9.8,15.9l-1,0.6c-2.2,1.4-4.4,2.8-6.6,4.2L61.6-242.5z M54.6-257.4l7.6,11.5c1.5-1,3.1-2,4.7-3
			l-7.2-11.8C58-259.6,56.3-258.5,54.6-257.4z M81.8-254.7l-8.7-16.5l1.1-0.6c2.5-1.3,5.1-2.6,7.6-3.8l1.1-0.5l8.1,16.8l-1.1,0.5
			c-2.4,1.1-4.7,2.3-7,3.5L81.8-254.7z M76.4-270.1l6.4,12.2c1.6-0.9,3.3-1.7,5-2.5l-6-12.4C80-272,78.2-271.1,76.4-270.1z
			 M103.2-264.6L96.2-282l1.1-0.4c2.6-1.1,5.3-2.1,8-3l1.1-0.4l6.3,17.5l-1.1,0.4c-2.5,0.9-4.9,1.8-7.4,2.8L103.2-264.6z
			 M99.4-280.6l5.1,12.8c1.7-0.7,3.5-1.3,5.2-2l-4.7-13C103.1-282.1,101.3-281.3,99.4-280.6z M125.5-272.4l-5.1-17.9l1.2-0.3
			c2.7-0.8,5.5-1.5,8.2-2.2l1.2-0.3l4.5,18.1l-1.2,0.3c-2.5,0.6-5.1,1.3-7.6,2L125.5-272.4z M123.3-288.7l3.8,13.3
			c1.8-0.5,3.6-1,5.4-1.4l-3.4-13.4C127.2-289.7,125.3-289.2,123.3-288.7z M148.4-277.9l-3.3-18.3l1.2-0.2c2.8-0.5,5.6-1,8.4-1.4
			l1.2-0.2l2.7,18.5l-1.2,0.2c-2.6,0.4-5.2,0.8-7.8,1.3L148.4-277.9z M147.9-294.3l2.4,13.6c1.8-0.3,3.6-0.6,5.5-0.9l-2-13.7
			C151.9-294.9,149.9-294.6,147.9-294.3z M171.8-281l-1.4-18.6l1.2-0.1c2.8-0.2,5.6-0.4,8.5-0.5l1.2-0.1l0.8,18.6l-1.2,0.1
			c-2.6,0.1-5.2,0.3-7.9,0.5L171.8-281z M173-297.3l1.1,13.8c1.8-0.1,3.7-0.2,5.5-0.3l-0.6-13.8C177-297.6,175-297.5,173-297.3z
			 M205.6-281.3l-1.2-0.1c-2.6-0.2-5.2-0.3-7.8-0.3l-1.2,0l0.4-18.6l1.2,0c2.8,0.1,5.7,0.2,8.5,0.3l1.2,0.1L205.6-281.3z
			 M197.9-284.1c1.8,0.1,3.7,0.1,5.5,0.2l0.8-13.8c-2-0.1-4-0.2-6-0.2L197.9-284.1z"/>
		<path class="st2" d="M194.5,478.4c-5.2,0-10.4-0.1-15.6-0.2l-1.2,0l1.1-36.7l1.2,0c5.6,0.2,11.2,0.2,16.7,0.2l1.2,0l0.2,36.7
			l-1.2,0C196,478.4,195.3,478.4,194.5,478.4z M180.2,475.8c5.1,0.1,10.3,0.2,15.4,0.2l-0.1-31.9c-4.7,0-9.6,0-14.3-0.2L180.2,475.8
			z M231.4,477.1l-2.6-36.6l1.2-0.1c5.5-0.4,11-0.9,16.6-1.5l1.2-0.1l3.9,36.5l-1.2,0.1c-5.9,0.6-11.9,1.2-17.9,1.6L231.4,477.1z
			 M231.3,442.7l2.3,31.8c5.1-0.4,10.3-0.8,15.4-1.4l-3.4-31.7C240.9,441.9,236.1,442.4,231.3,442.7z M144.4,476.1l-1.2-0.1
			c-5.9-0.6-11.9-1.3-17.8-2l-1.2-0.2l4.8-36.4l1.2,0.2c5.4,0.7,11,1.3,16.5,1.9l1.2,0.1L144.4,476.1z M126.9,471.7
			c5.1,0.7,10.2,1.2,15.3,1.7l3.1-31.8c-4.8-0.5-9.5-1-14.2-1.6L126.9,471.7z M284.8,470.7l-6.3-36.2l1.2-0.2c5.4-1,10.9-2,16.4-3.2
			l1.2-0.2l7.5,35.9l-1.2,0.2c-5.8,1.2-11.7,2.4-17.6,3.4L284.8,470.7z M281.2,436.5l5.5,31.4c5.1-0.9,10.2-1.9,15.1-2.9l-6.5-31.2
			C290.6,434.7,285.9,435.6,281.2,436.5z M337.2,458.9l-10-35.4l1.2-0.3c5.3-1.5,10.7-3.1,16-4.8l1.2-0.4l11.2,35l-1.2,0.4
			c-5.7,1.8-11.5,3.5-17.2,5.2L337.2,458.9z M330.2,425.2l8.7,30.7c4.9-1.4,9.9-2.9,14.8-4.4L344,421
			C339.4,422.5,334.8,423.9,330.2,425.2z M388.2,441.8l-13.5-34.2l1.1-0.4c5.1-2,10.3-4.2,15.4-6.4l1.1-0.5l14.7,33.7l-1.1,0.5
			c-5.4,2.4-11,4.7-16.6,6.9L388.2,441.8z M377.8,409l11.8,29.7c4.8-1.9,9.6-3.9,14.3-5.9l-12.7-29.2
			C386.7,405.4,382.2,407.2,377.8,409z M437.2,419.5L420.3,387l1.1-0.6c4.9-2.5,9.8-5.2,14.7-7.9l1.1-0.6l18,32l-1.1,0.6
			c-5.2,2.9-10.5,5.8-15.8,8.5L437.2,419.5z M423.5,388l14.7,28.3c4.5-2.4,9.1-4.8,13.6-7.3l-15.7-27.8
			C431.9,383.5,427.7,385.8,423.5,388z M483.6,392.5l-20.2-30.7l1-0.7c4.6-3.1,9.3-6.2,13.8-9.4l1-0.7l21.2,30l-1,0.7
			c-4.8,3.4-9.7,6.8-14.8,10.1L483.6,392.5z M466.8,362.5l17.5,26.7c4.3-2.9,8.6-5.8,12.7-8.7l-18.4-26.1
			C474.7,357.1,470.8,359.9,466.8,362.5z M527,360.9l-23.1-28.5l0.9-0.8c4.2-3.4,8.3-6.9,12.4-10.4l1.3-1.2l24,27.8l-1.4,1.2
			c-4.3,3.8-8.8,7.5-13.3,11.1L527,360.9z M507.3,332.7l20.1,24.8c4-3.2,7.9-6.6,11.8-9.9l-20.9-24.1
			C514.7,326.6,511,329.7,507.3,332.7z M-187.3,316.6l-0.8-0.9c-4.2-4.3-8.3-8.7-12.2-13.1l-0.8-0.9l27.3-24.5l0.8,0.9
			c3.7,4.1,7.5,8.3,11.3,12.2l0.8,0.9L-187.3,316.6z M-197.7,301.8c3.4,3.8,6.9,7.6,10.5,11.3l23-22.1c-3.3-3.4-6.5-6.9-9.8-10.5
			L-197.7,301.8z M-222.6,276.1l-0.7-1c-3.6-4.6-7.2-9.4-10.8-14.3l-0.7-1l29.6-21.7l0.7,1c3.3,4.4,6.6,8.9,10.1,13.3l0.7,1
			L-222.6,276.1z M-231.5,260.4c3.1,4.2,6.2,8.3,9.3,12.3l25.1-19.7c-2.9-3.8-5.9-7.6-8.7-11.4L-231.5,260.4z M-253.7,232.3l-0.6-1
			c-3.1-5-6.3-10.1-9.3-15.3l-0.6-1l31.7-18.6l0.6,1c2.8,4.8,5.7,9.6,8.7,14.2l0.6,1L-253.7,232.3z M-260.9,215.8
			c2.6,4.5,5.3,8.9,8,13.2l27-17.1c-2.5-4-5-8.1-7.5-12.2L-260.9,215.8z M662.9,196.3l-32.5-17.1l0.6-1.1c2.6-4.9,5.1-9.8,7.5-14.8
			l0.5-1.1l33.1,16l-0.5,1.1c-2.6,5.3-5.3,10.7-8.1,16L662.9,196.3z M633.7,178.2l28.2,14.9c2.4-4.5,4.7-9.1,6.9-13.7l-28.7-13.9
			C638,169.7,635.8,174,633.7,178.2z M-280.2,185.6l-0.5-1.1c-2.7-5.4-5.3-10.8-7.7-16.2l-0.5-1.1l33.4-15.3l0.5,1.1
			c2.3,5,4.7,10.1,7.2,15l0.5,1.1L-280.2,185.6z M-285.7,168.4c2.1,4.6,4.3,9.3,6.6,13.9l28.5-14.2c-2.1-4.3-4.2-8.6-6.2-12.9
			L-285.7,168.4z M685.5,147.7L651.5,134l0.5-1.1c2-5.1,4-10.3,6-15.5l0.4-1.1l34.5,12.6l-0.4,1.1c-2,5.6-4.2,11.2-6.4,16.7
			L685.5,147.7z M654.6,132.7l29.6,11.9c1.9-4.7,3.7-9.5,5.5-14.4l-30-10.9C658.1,123.8,656.4,128.3,654.6,132.7z M-301.8,136.4
			l-0.4-1.1c-2.1-5.5-4.1-11.2-6-16.9l-0.4-1.1l34.8-11.8l0.4,1.1c1.8,5.3,3.7,10.6,5.6,15.7l0.4,1.1L-301.8,136.4z M-305.6,118.7
			c1.7,4.9,3.4,9.8,5.2,14.6l29.9-11.3c-1.7-4.5-3.3-9-4.8-13.5L-305.6,118.7z M-318.3,85.2l-0.3-1.2c-1.5-5.7-3-11.6-4.3-17.4
			l-0.3-1.2l35.8-8.2l0.3,1.2c1.2,5.4,2.6,10.8,4,16.2l0.3,1.2L-318.3,85.2z M-320.2,67.3c1.2,5,2.4,10.1,3.7,15l30.8-8.2
			c-1.2-4.6-2.4-9.3-3.4-13.9L-320.2,67.3z M-329.5,32.6l-0.2-1.2c-0.9-5.9-1.8-11.9-2.5-17.7l-0.1-1.2l36.5-4.5l0.1,1.2
			c0.7,5.5,1.5,11.1,2.3,16.5l0.2,1.2L-329.5,32.6z M-329.6,14.6c0.6,5,1.4,10.2,2.2,15.3l31.5-5c-0.7-4.7-1.4-9.5-2-14.2
			L-329.6,14.6z M-335.3-20.8l-0.1-1.2c-0.3-5.9-0.6-12-0.7-17.9l0-1.2l36.7-0.8l0,1.2c0.1,5.6,0.3,11.2,0.6,16.7l0.1,1.2
			L-335.3-20.8z M-333.6-38.8c0.1,5.1,0.3,10.3,0.6,15.4l31.9-1.8c-0.3-4.7-0.4-9.5-0.6-14.3L-333.6-38.8z M687.6-61.3l0-1.2
			c-0.1-5.5-0.3-11.1-0.6-16.7l-0.1-1.2l36.7-2l0.1,1.2c0.3,5.9,0.6,11.9,0.7,17.9l0,1.2L687.6-61.3z M689.4-78.1
			c0.3,4.8,0.4,9.6,0.5,14.3l31.9-0.7c-0.1-5.2-0.3-10.3-0.6-15.4L689.4-78.1z M-299-72.9l-36.7-1.7l0.1-1.2
			c0.3-5.9,0.6-12,1.1-17.9l0.1-1.2l36.6,2.9l-0.1,1.2c-0.4,5.5-0.8,11.1-1,16.6L-299-72.9z M-333.2-76.8l31.9,1.4
			c0.2-4.8,0.5-9.6,0.9-14.3l-31.8-2.5C-332.6-87.1-332.9-82-333.2-76.8z M684.2-111.2l-0.1-1.2c-0.7-5.6-1.5-11.1-2.3-16.5
			l-0.2-1.2l36.3-5.7l0.2,1.2c0.9,5.9,1.8,11.9,2.5,17.8l0.1,1.2L684.2-111.2z M684.3-128.1c0.7,4.7,1.4,9.4,2,14.2l31.7-3.9
			c-0.6-5.1-1.3-10.2-2.1-15.3L684.3-128.1z M-294.4-122.6l-36.3-5.3l0.2-1.2c0.9-5.9,1.8-11.8,2.9-17.7l0.2-1.2l36.1,6.6l-0.2,1.2
			c-1,5.6-1.9,11.1-2.7,16.4L-294.4-122.6z M-328-130l31.6,4.6c0.7-4.6,1.5-9.4,2.3-14.1l-31.4-5.7
			C-326.4-140.2-327.2-135.1-328-130z M675.7-160.5l-0.3-1.2c-1.2-5.4-2.6-10.8-4-16.2l-0.3-1.2l35.5-9.4l0.3,1.2
			c1.5,5.8,3,11.7,4.3,17.4l0.3,1.2L675.7-160.5z M674.1-177.3c1.2,4.6,2.4,9.3,3.4,13.9l31.1-7c-1.1-5-2.4-10-3.7-15L674.1-177.3z
			 M-284.7-171.7l-35.6-9l0.3-1.2c1.4-5.8,3-11.6,4.7-17.3l0.3-1.2l35.3,10.2l-0.3,1.2c-1.5,5.3-3,10.7-4.3,16.1L-284.7-171.7z
			 M-317.4-182.4l30.9,7.8c1.2-4.6,2.4-9.3,3.7-13.8l-30.7-8.8C-314.8-192.4-316.2-187.4-317.4-182.4z M662.2-208.7l-0.4-1.1
			c-1.8-5.2-3.6-10.5-5.6-15.7l-0.4-1.1l34.4-12.9l0.4,1.1c2.1,5.7,4.2,11.4,6,16.9l0.4,1.1L662.2-208.7z M658.9-225.3
			c1.7,4.5,3.3,9,4.8,13.5L694-222c-1.6-4.8-3.4-9.7-5.2-14.6L658.9-225.3z M-270.2-219.5l-34.5-12.5l0.4-1.1
			c2-5.6,4.2-11.3,6.4-16.7l0.5-1.1l34.1,13.7l-0.5,1.1c-2,5.1-4,10.3-5.9,15.5L-270.2-219.5z M-301.7-233.5l30,10.9
			c1.6-4.5,3.3-9,5.1-13.3l-29.6-11.9C-298-243.1-299.9-238.3-301.7-233.5z M644-255.3l-0.5-1.1c-2.3-5-4.7-10.1-7.2-15l-0.5-1.1
			l32.9-16.4l0.5,1.1c2.7,5.4,5.3,10.9,7.7,16.2l0.5,1.1L644-255.3z M639-271.4c2.1,4.3,4.2,8.6,6.2,12.9l29-13.2
			c-2.1-4.6-4.3-9.2-6.6-13.9L639-271.4z M-251-265.5l-33.1-16l0.5-1.1c2.6-5.4,5.3-10.8,8-16l0.6-1.1l32.5,17.1l-0.6,1.1
			c-2.5,4.8-5.1,9.8-7.5,14.8L-251-265.5z M-280.8-282.6l28.7,13.9c2.1-4.3,4.2-8.6,6.4-12.7l-28.2-14.8
			C-276.3-291.8-278.6-287.2-280.8-282.6z M621.1-299.7l-0.6-1c-2.9-4.9-5.8-9.7-8.7-14.2l-0.6-1l31.1-19.6l0.6,1
			c3.2,5.1,6.3,10.2,9.3,15.3l0.6,1L621.1-299.7z M614.5-315.2c2.5,3.9,5,8.1,7.4,12.3l27.5-16.1c-2.6-4.4-5.3-8.8-8-13.2
			L614.5-315.2z M-227.1-309.4l-31.3-19.2l0.6-1c3.1-5.1,6.4-10.2,9.7-15.1l0.7-1l30.6,20.3l-0.7,1c-3,4.5-6,9.3-9,14L-227.1-309.4z
			 M-255.1-329.4l27.2,16.7c2.5-4.1,5.1-8.1,7.7-12.1l-26.6-17.6C-249.6-338.2-252.4-333.8-255.1-329.4z M-198.9-350.6l-29.2-22.3
			l0.7-1c3.6-4.7,7.4-9.4,11.1-14l0.8-0.9l28.4,23.3l-0.8,0.9c-3.6,4.4-7.1,8.8-10.4,13.1L-198.9-350.6z M-224.7-373.4l25.3,19.4
			c2.9-3.7,5.8-7.5,8.9-11.2l-24.7-20.2C-218.3-381.5-221.6-377.5-224.7-373.4z M-166.6-388.8l-26.8-25.2l0.8-0.9
			c4.1-4.3,8.3-8.6,12.5-12.8l0.9-0.9l25.9,26.1l-0.9,0.9c-3.9,3.9-7.9,7.9-11.6,11.9L-166.6-388.8z M-190-414.1l23.2,21.9
			c3.3-3.4,6.6-6.9,10-10.3l-22.5-22.6C-182.9-421.5-186.5-417.8-190-414.1z M-130.7-423.5l-24-27.8l1.7-1.5
			c4.6-4,9.2-7.8,13.8-11.6l0.9-0.8l23.1,28.6l-0.9,0.8c-4.3,3.5-8.6,7.1-12.8,10.7L-130.7-423.5z M-151.3-451l20.9,24.1
			c3.9-3.4,7.9-6.7,11.9-10l-20.1-24.8C-142.9-458.2-147.1-454.7-151.3-451z M488.8-448l-1-0.7c-4.5-3.3-9.1-6.6-13.6-9.7l-1-0.7
			l20.9-30.2l1,0.7c4.8,3.3,9.7,6.8,14.6,10.4l1,0.7L488.8-448z M476.7-459.7c3.9,2.7,7.8,5.5,11.7,8.3l19-25.6
			c-4.2-3.1-8.4-6.1-12.5-9L476.7-459.7z M447.3-475.7l-1-0.6c-4.9-2.9-9.8-5.7-14.5-8.3l-1.1-0.6l17.7-32.2l1.1,0.6
			c5.1,2.8,10.3,5.8,15.5,8.9l1,0.6L447.3-475.7z M434-486.2c4.1,2.2,8.2,4.6,12.5,7.1l16.2-27.5c-4.5-2.6-9-5.2-13.4-7.6L434-486.2
			z M403.2-499.1l-1.1-0.5c-5-2.3-10.1-4.6-15.2-6.7l-1.1-0.5l14.3-33.8l1.1,0.5c5.4,2.3,10.9,4.7,16.3,7.2l1.1,0.5L403.2-499.1z
			 M388.9-508.1c4.4,1.9,8.8,3.8,13.1,5.8l13.4-29c-4.7-2.2-9.4-4.2-14-6.2L388.9-508.1z M356.9-517.9l-1.1-0.4
			c-5.2-1.8-10.5-3.5-15.8-5.2l-1.2-0.4l10.8-35.1l1.2,0.4c5.6,1.7,11.3,3.6,17,5.5l1.1,0.4L356.9-517.9z M341.8-525.4
			c4.6,1.4,9.1,2.9,13.6,4.4l10.4-30.2c-4.9-1.7-9.8-3.3-14.6-4.8L341.8-525.4z M309-531.9l-1.2-0.3c-5.5-1.3-10.9-2.5-16.3-3.6
			l-1.2-0.2l7.2-36l1.2,0.2c5.9,1.2,11.8,2.5,17.5,3.8l1.2,0.3L309-531.9z M293.2-537.9c4.6,0.9,9.3,2,14,3.1l7.3-31.1
			c-4.9-1.1-9.9-2.2-15-3.3L293.2-537.9z M91.6-534.8l-7.5-36l1.2-0.2c5.8-1.2,11.7-2.3,17.6-3.4l1.2-0.2l6.3,36.2l-1.2,0.2
			c-5.5,0.9-11,2-16.4,3.1L91.6-534.8z M86.9-568.9l6.5,31.2c4.7-1,9.4-1.9,14.1-2.7l-5.5-31.4C97-570.9,91.9-569.9,86.9-568.9z
			 M259.9-541.1l-1.2-0.2c-5.6-0.7-11.1-1.4-16.6-1.9l-1.2-0.1l3.6-36.6l1.2,0.1c5.8,0.6,11.8,1.3,17.8,2l1.2,0.2L259.9-541.1z
			 M243.5-545.4c4.7,0.5,9.5,1,14.2,1.6l4.1-31.6c-5.1-0.7-10.3-1.2-15.3-1.7L243.5-545.4z M141-542.6l-3.8-36.5l1.2-0.1
			c5.9-0.6,11.9-1.1,17.8-1.6l1.2-0.1l2.6,36.6l-1.2,0.1c-5.6,0.4-11.2,0.9-16.6,1.5L141-542.6z M139.8-577l3.3,31.7
			c4.7-0.5,9.5-0.9,14.3-1.3l-2.3-31.8C150.1-578,144.9-577.5,139.8-577z M210-545.2l-1.2,0c-5.6-0.2-11.2-0.2-16.7-0.2l-1.2,0
			l-0.1-36.7l1.2,0c5.9,0,11.9,0.1,17.9,0.2l1.2,0L210-545.2z M193.7-547.9c4.6,0,9.3,0.1,14,0.2l0.9-31.9
			c-5.2-0.1-10.3-0.2-15.4-0.2l0.1,31.9C193.5-547.9,193.6-547.9,193.7-547.9z"/>
		<g>
			<path class="st2" d="M1.9,202.5L1.2,202c-4-3-8-6.2-11.8-9.4l-5.8,6.8l-0.9-0.8c-5.1-4.3-10.1-8.8-15-13.5l-0.9-0.8l6.1-6.4
				c-1.5-1.5-3-2.9-4.5-4.4c-1.8-1.8-3.6-3.6-5.3-5.4l-6.5,6.1l-0.8-0.9c-4.6-4.9-9.1-9.9-13.4-15.1l-0.8-0.9l6.9-5.7
				c-3-3.6-5.9-7.2-8.6-10.9l-7.1,5.4l-0.7-1c-4-5.4-7.9-10.9-11.6-16.5l-0.7-1l7.5-4.9c-2.5-3.8-4.9-7.8-7.3-11.8l-7.7,4.5l-0.6-1
				c-3.4-5.8-6.6-11.7-9.6-17.7l-0.5-1.1l8-4c-2.3-4.6-4.4-9.2-6.4-13.7l-0.4-0.9l11.4-8.2l0.6,1.4c15.1,35,36.4,66.6,63.6,93.7
				c10.8,10.8,22.5,20.9,34.8,29.9l1.4,1.1L1.9,202.5z M-10.9,189.2l0.9,0.8c3.9,3.3,7.9,6.5,12,9.6l8.1-5
				c-11.8-8.8-23.1-18.6-33.6-29.1c-27-27-48.4-58.3-63.5-93.1l-7.4,5.3c2,4.6,4.2,9.2,6.5,13.8l0.5,1.1l-8,4
				c2.6,5.2,5.5,10.4,8.4,15.5l7.7-4.5l0.6,1c2.8,4.7,5.6,9.4,8.5,13.8l0.7,1l-7.5,4.9c3.2,4.9,6.6,9.7,10.1,14.4l7.1-5.4l0.7,1
				c3.2,4.3,6.6,8.6,10.1,12.7l0.8,0.9l-6.8,5.7c3.8,4.5,7.7,8.9,11.7,13.1l6.5-6.1l0.8,0.9c2,2.1,4,4.2,6.1,6.3
				c1.8,1.8,3.6,3.5,5.4,5.2l0.9,0.8l-6.1,6.4c4.3,4,8.6,8,13.1,11.7L-10.9,189.2z"/>
			<path class="st2" d="M187.6,274.6l-1.2,0c-6.7-0.1-13.4-0.4-20.1-0.9l-1.2-0.1l0.7-9c-4.6-0.4-9.2-0.8-13.8-1.4l-1.2,9l-1.2-0.2
				c-6.6-0.8-13.3-1.9-19.9-3.2l-1.2-0.2l1.7-8.9c-4.5-0.9-9.1-1.9-13.6-3l-2.2,8.8l-1.2-0.3c-6.5-1.6-13-3.4-19.4-5.4l-1.2-0.4
				l2.7-8.6c-4.8-1.5-9.6-3.2-14.3-4.9l-0.5-0.2l-6.8-17.5l2.6,1.1c112.8,46.3,241.4,20.6,327.5-65.5
				c117.4-117.4,117.4-308.3,0-425.7c-18.4-18.4-39-34.3-61.3-47.3l-1-0.6l6.1-10.9l5.1-8.8l1,0.6c5.8,3.4,11.5,7,17.1,10.7l1,0.7
				l-5,7.4c3.8,2.6,7.6,5.3,11.4,8l5.4-7.2l1,0.7c5.4,4,10.7,8.2,15.8,12.6l0.9,0.8l-5.8,6.8c3.5,3,7,6.1,10.4,9.3l6.1-6.5l0.9,0.8
				c2.4,2.2,4.7,4.5,7,6.8c2.4,2.4,4.8,4.9,7.2,7.4l0.8,0.9l-6.5,6.1c3.1,3.4,6.3,6.9,9.3,10.4l6.8-5.8l0.8,0.9
				c4.3,5.1,8.5,10.4,12.5,15.8l0.7,1l-7.2,5.3c2.8,3.8,5.5,7.6,8,11.4l7.4-5l0.7,1c3.7,5.6,7.3,11.3,10.7,17.1l0.6,1l-7.8,4.5
				c2.3,4,4.5,8.1,6.7,12.2l8-4.1l0.6,1.1c3.1,6,6,12.1,8.6,18.3l0.5,1.1l-8.2,3.6c1.8,4.2,3.5,8.5,5.2,12.9l8.4-3.2l0.4,1.1
				c2.3,6.3,4.5,12.7,6.5,19.1l0.4,1.2l-8.6,2.6c1.3,4.5,2.6,9,3.7,13.4l8.8-2.2l0.3,1.2c1.6,6.5,3,13.1,4.3,19.7l0.2,1.2l-8.9,1.6
				c0.8,4.6,1.5,9.2,2.1,13.8l9-1.2l0.2,1.2c0.9,6.6,1.5,13.4,2,20.1l0.1,1.2l-9,0.6c0.3,4.5,0.5,9.2,0.6,13.9l9.1-0.1l0,1.2
				c0.1,6.7,0,13.5-0.3,20.2l-0.1,1.2l-9-0.4c-0.2,4.6-0.6,9.2-1,13.9l9,0.9l-0.1,1.2c-0.7,6.7-1.5,13.4-2.6,20l-0.2,1.2l-8.9-1.4
				c-0.8,4.6-1.6,9.2-2.6,13.7l8.8,1.9l-0.3,1.2c-1.4,6.5-3,13.1-4.8,19.6l-0.3,1.2l-8.7-2.4c-1.3,4.4-2.6,8.9-4.1,13.3l8.5,2.9
				l-0.4,1.1c-2.1,6.3-4.5,12.7-7,18.9l-0.5,1.1l-8.3-3.4c-1.7,4.2-3.6,8.5-5.6,12.7l8.1,3.8l-0.5,1.1c-2.8,6-5.9,12.1-9.2,18
				l-0.6,1.1l-7.9-4.3c-2.3,4.1-4.6,8.1-7,12l7.6,4.7l-0.6,1c-3.5,5.7-7.3,11.3-11.2,16.8l-0.7,1L447,134c-2.7,3.7-5.5,7.5-8.4,11.1
				l7,5.5l-0.7,0.9c-4.1,5.2-8.5,10.4-13,15.4l-0.8,0.9l-6.6-6c-3.1,3.4-6.3,6.8-9.6,10.1l6.3,6.3l-1.4,1.4
				c-4.7,4.7-9.7,9.4-14.7,13.8l-0.9,0.8l-5.9-6.7c-3.5,3.1-7.1,6.1-10.7,8.9l5.6,7l-0.9,0.8c-5.2,4.2-10.7,8.2-16.1,12.1l-1,0.7
				l-5.1-7.3c-3.8,2.6-7.7,5.2-11.6,7.7l4.7,7.6l-1,0.6c-5.7,3.5-11.5,7-17.4,10.1l-1.1,0.6l-4.3-7.9c-4.1,2.2-8.3,4.3-12.4,6.3
				l3.8,8.1l-1.1,0.5c-6.1,2.9-12.3,5.6-18.5,8.1l-1.1,0.4l-3.3-8.4c-4.3,1.7-8.7,3.3-13.1,4.8l2.9,8.5l-1.1,0.4
				c-6.3,2.1-12.8,4.1-19.3,5.9l-1.2,0.3l-2.4-8.7c-4.4,1.2-9,2.3-13.5,3.3l1.9,8.8l-1.2,0.3c-6.6,1.4-13.2,2.6-19.8,3.7l-1.2,0.2
				l-1.4-8.9c-4.6,0.7-9.3,1.3-13.8,1.7l0.9,9l-1.2,0.1c-6.7,0.7-13.5,1.1-20.1,1.4l-1.2,0l-0.3-9.1c-4.6,0.2-9.3,0.2-13.9,0.2
				L187.6,274.6z M167.6,271.3c5.8,0.4,11.7,0.7,17.6,0.8l0.1-9.1l1.2,0c5.4,0.1,10.9,0,16.2-0.2l1.2,0l0.3,9.1
				c5.8-0.2,11.7-0.6,17.6-1.2l-0.9-9l1.2-0.1c5.3-0.5,10.7-1.2,16.1-2l1.2-0.2l1.4,8.9c5.8-0.9,11.6-2,17.3-3.2l-1.9-8.8l1.2-0.3
				c5.3-1.1,10.6-2.4,15.8-3.8l1.2-0.3l2.4,8.7c5.7-1.6,11.3-3.3,16.8-5.1l-2.9-8.5l1.1-0.4c5.2-1.8,10.3-3.6,15.2-5.6l1.1-0.4
				l3.3,8.4c5.4-2.2,10.9-4.6,16.2-7l-3.8-8.1l1.1-0.5c4.8-2.3,9.7-4.7,14.5-7.3l1.1-0.6l4.3,7.9c5.1-2.8,10.2-5.8,15.2-8.8
				l-4.7-7.6l1-0.6c4.6-2.8,9.1-5.8,13.5-8.9l1-0.7l5.1,7.3c4.8-3.4,9.5-6.9,14.1-10.5l-5.6-7l0.9-0.8c4.2-3.3,8.4-6.8,12.4-10.4
				l0.9-0.8l5.9,6.7c4.5-4.1,9-8.3,13.4-12.6l-6.3-6.3l0.9-0.9c3.8-3.8,7.5-7.8,11.1-11.8l0.8-0.9l6.6,6c3.9-4.4,7.7-8.9,11.3-13.4
				l-7-5.5l0.7-0.9c3.4-4.2,6.6-8.6,9.7-13l0.7-1l7.3,5.2c3.4-4.8,6.6-9.7,9.7-14.7l-7.6-4.7l0.6-1c2.8-4.5,5.5-9.2,8.2-14l0.6-1.1
				l7.8,4.3c2.8-5.1,5.5-10.4,8-15.7l-8.1-3.8l0.5-1.1c2.3-4.9,4.5-9.9,6.5-14.8l0.5-1.1l8.3,3.4c2.2-5.4,4.2-10.9,6.1-16.5
				l-8.5-2.9l0.4-1.1c1.7-5.1,3.3-10.3,4.8-15.5l0.3-1.2l8.7,2.4c1.6-5.6,3-11.4,4.2-17.1l-8.8-1.9l0.3-1.2c1.1-5.2,2.1-10.5,3-15.9
				l0.2-1.2l8.9,1.4c0.9-5.8,1.7-11.6,2.3-17.4l-9-0.9l0.1-1.2c0.5-5.4,0.9-10.8,1.2-16.2l0.1-1.2l9,0.4c0.2-5.8,0.3-11.7,0.3-17.6
				l-9.1,0.1l0-1.2c-0.1-5.5-0.3-10.9-0.7-16.2l-0.1-1.2l9-0.6c-0.4-5.8-1-11.7-1.7-17.5l-9,1.2l-0.2-1.2c-0.7-5.3-1.5-10.7-2.5-16
				l-0.2-1.2l8.9-1.6c-1.1-5.8-2.3-11.5-3.7-17.2l-8.8,2.2l-0.3-1.2c-1.3-5.1-2.7-10.4-4.3-15.6l-0.4-1.2l8.6-2.6
				c-1.7-5.6-3.6-11.2-5.7-16.7l-8.4,3.2l-0.4-1.1c-1.9-5.1-4-10.2-6.1-15.1l-0.5-1.1l8.2-3.6c-2.4-5.4-4.9-10.7-7.5-15.9l-8,4.1
				l-0.6-1.1c-2.5-4.8-5.1-9.6-7.7-14.2l-0.6-1l7.7-4.5c-3-5-6.1-10.1-9.3-14.9l-7.4,5l-0.7-1c-3-4.4-6.1-8.9-9.3-13.2l-0.7-1
				l7.2-5.3c-3.5-4.7-7.2-9.3-10.9-13.8l-6.8,5.8l-0.8-0.9c-3.5-4.1-7.1-8.2-10.8-12.1l-0.8-0.9l6.5-6.1c-2.1-2.2-4.2-4.4-6.3-6.5
				c-2-2-4.1-4-6.1-6l-6.1,6.5l-0.9-0.8c-3.9-3.7-8-7.3-12.1-10.8l-0.9-0.8l5.8-6.8c-4.5-3.8-9.1-7.5-13.8-11l-5.3,7.2l-1-0.7
				c-4.3-3.2-8.8-6.4-13.2-9.4l-1-0.7l5-7.4c-4.9-3.2-9.9-6.4-14.9-9.3l-3.9,6.7l-4.9,8.8c22.1,13,42.6,28.8,60.8,47.1
				c57.2,57.2,88.7,133.4,88.7,214.5s-31.5,157.3-88.7,214.5c-86.1,86.1-214.4,112.3-327.5,67l4.4,11.2c4.8,1.8,9.8,3.5,14.8,5
				l1.2,0.4l-2.7,8.6c5.6,1.7,11.3,3.3,16.9,4.7l2.2-8.8l1.2,0.3c5.2,1.3,10.6,2.5,15.8,3.5l1.2,0.2l-1.7,8.9
				c5.8,1.1,11.6,2,17.4,2.8l1.2-9l1.2,0.2c5.4,0.7,10.8,1.2,16.1,1.7l1.2,0.1L167.6,271.3z"/>
		</g>
		<path class="st2" d="M979.2,159.1c-63.4,0-111.6-0.5-113.1-2l-0.4-0.9c0,0.2,0,0.3,0,0.3c-2-4.6-72.7-73.9-119.6-119.4l1.7-1.7
			c34.6,33.5,113.1,109.8,119.9,119.9c10,2.7,263.7,1,397.1-0.3l0,2.4C1208.8,158,1076.2,159.1,979.2,159.1z"/>
		<g>
			<polygon class="st2" points="1622.5,55.6 1639.8,55.6 1631.2,35 			"/>
			<polygon class="st2" points="1622.5,29.6 1639.8,29.6 1631.2,9 			"/>
			<polygon class="st2" points="1622.5,3.5 1639.8,3.5 1631.2,-17 			"/>
		</g>
		<g>
			<path class="st2" d="M1380.2,367.5c-5.2,0-9.4-4.2-9.4-9.4c0-5.2,4.2-9.4,9.4-9.4c5.2,0,9.4,4.2,9.4,9.4
				C1389.5,363.3,1385.3,367.5,1380.2,367.5z M1380.2,351.2c-3.8,0-7,3.1-7,7c0,3.8,3.1,7,7,7c3.8,0,7-3.1,7-7
				C1387.1,354.3,1384,351.2,1380.2,351.2z"/>
			<path class="st2" d="M1410.6,367.5c-5.2,0-9.4-4.2-9.4-9.4c0-5.2,4.2-9.4,9.4-9.4c5.2,0,9.4,4.2,9.4,9.4
				C1420,363.3,1415.8,367.5,1410.6,367.5z M1410.6,351.2c-3.8,0-7,3.1-7,7c0,3.8,3.1,7,7,7c3.8,0,7-3.1,7-7
				C1417.6,354.3,1414.5,351.2,1410.6,351.2z"/>
			<path class="st2" d="M1441.1,367.5c-5.2,0-9.4-4.2-9.4-9.4c0-5.2,4.2-9.4,9.4-9.4c5.2,0,9.4,4.2,9.4,9.4
				C1450.5,363.3,1446.2,367.5,1441.1,367.5z M1441.1,351.2c-3.8,0-7,3.1-7,7c0,3.8,3.1,7,7,7c3.8,0,7-3.1,7-7
				C1448,354.3,1444.9,351.2,1441.1,351.2z"/>
			<path class="st2" d="M1471.5,367.5c-5.2,0-9.4-4.2-9.4-9.4c0-5.2,4.2-9.4,9.4-9.4s9.4,4.2,9.4,9.4
				C1480.9,363.3,1476.7,367.5,1471.5,367.5z M1471.5,351.2c-3.8,0-7,3.1-7,7c0,3.8,3.1,7,7,7s7-3.1,7-7
				C1478.5,354.3,1475.4,351.2,1471.5,351.2z"/>
			<path class="st2" d="M1502,367.5c-5.2,0-9.4-4.2-9.4-9.4c0-5.2,4.2-9.4,9.4-9.4c5.2,0,9.4,4.2,9.4,9.4
				C1511.4,363.3,1507.2,367.5,1502,367.5z M1502,351.2c-3.8,0-7,3.1-7,7c0,3.8,3.1,7,7,7c3.8,0,7-3.1,7-7
				C1509,354.3,1505.8,351.2,1502,351.2z"/>
			<path class="st2" d="M1532.4,367.5c-5.2,0-9.4-4.2-9.4-9.4c0-5.2,4.2-9.4,9.4-9.4s9.4,4.2,9.4,9.4
				C1541.8,363.3,1537.6,367.5,1532.4,367.5z M1532.4,351.2c-3.8,0-7,3.1-7,7c0,3.8,3.1,7,7,7s7-3.1,7-7
				C1539.4,354.3,1536.3,351.2,1532.4,351.2z"/>
			<path class="st2" d="M1562.9,367.5c-5.2,0-9.4-4.2-9.4-9.4c0-5.2,4.2-9.4,9.4-9.4c5.2,0,9.4,4.2,9.4,9.4
				C1572.3,363.3,1568.1,367.5,1562.9,367.5z M1562.9,351.2c-3.8,0-7,3.1-7,7c0,3.8,3.1,7,7,7c3.8,0,7-3.1,7-7
				C1569.9,354.3,1566.7,351.2,1562.9,351.2z"/>
		</g>
		<path class="st2" d="M937,520.9h-9.7v-4.8h9.7V520.9z M915.2,520.9h-9.7v-4.8h9.7V520.9z M893.5,520.9h-9.7v-4.8h9.7V520.9z
			 M871.7,520.9H870l-5.3-9.2l4.2-2.4l4.6,8l-1.7,1V520.9z M946.5,511.6l-4.2-2.4l4.8-8.4l4.2,2.4L946.5,511.6z M858.6,501.2
			l-4.8-8.4l4.2-2.4l4.8,8.4L858.6,501.2z M957.3,492.7l-4.2-2.4l4.8-8.4l4.2,2.4L957.3,492.7z M847.7,482.4l-4.8-8.4l4.2-2.4
			l4.8,8.4L847.7,482.4z M968.2,473.9l-4.2-2.4l4.8-8.4l4.2,2.4L968.2,473.9z M836.8,463.5l-2.4-4.2l3.8-6.6l4.2,2.4l-2.4,4.1l1,1.8
			L836.8,463.5z M968.6,455.1l-4.8-8.4l4.2-2.4l4.8,8.4L968.6,455.1z M848.4,444.7l-4.2-2.4l4.8-8.4l4.2,2.4L848.4,444.7z
			 M957.7,436.2l-4.8-8.4l4.2-2.4l4.8,8.4L957.7,436.2z M859.3,425.9l-4.2-2.4l4.8-8.4l4.2,2.4L859.3,425.9z M946.9,417.4L942,409
			l4.2-2.4l4.8,8.4L946.9,417.4z M870.2,407l-4.2-2.4l4-6.9h4.5v4.8h-1.7L870.2,407z M939.7,402.5H930v-4.8h9.7V402.5z M917.9,402.5
			h-9.7v-4.8h9.7V402.5z M896.2,402.5h-9.7v-4.8h9.7V402.5z"/>
		<path class="st2" d="M1634.8,300.9h-9.7v-4.8h9.7V300.9z M1613.1,300.9h-9.7v-4.8h9.7V300.9z M1591.3,300.9h-9.7v-4.8h9.7V300.9z
			 M1569.6,300.9h-9.7v-4.8h9.7V300.9z M1547.8,300.9h-9.7v-4.8h9.7V300.9z M1524.8,298.2l-4.8-8.4l4.2-2.4l4.8,8.4L1524.8,298.2z
			 M1645.7,294l-4.2-2.4l4.8-8.4l4.2,2.4L1645.7,294z M1514,279.4l-4.8-8.4l4.2-2.4l4.8,8.4L1514,279.4z M1656.6,275.1l-4.2-2.4
			l4.8-8.4l4.2,2.4L1656.6,275.1z M1503.1,260.6l-4.8-8.4l4.2-2.4l4.8,8.4L1503.1,260.6z M1667.4,256.3l-4.2-2.4l4.8-8.4l4.2,2.4
			L1667.4,256.3z M1492.2,241.7l-4.8-8.4l4.2-2.4l4.8,8.4L1492.2,241.7z M1678.3,237.5l-4.2-2.4l4.8-8.4l4.2,2.4L1678.3,237.5z
			 M1481.4,222.9l-4.8-8.4l4.2-2.4l4.8,8.4L1481.4,222.9z M1689.2,218.6l-4.2-2.4l4.8-8.4l4.2,2.4L1689.2,218.6z M1470.5,204.1
			l-1.7-3l4.5-7.8l4.2,2.4l-3.1,5.3l0.4,0.6L1470.5,204.1z M1693,199.8l-4.8-8.4l4.2-2.4l4.8,8.4L1693,199.8z M1483.4,185.3
			l-4.2-2.4l4.8-8.4l4.2,2.4L1483.4,185.3z M1682.2,181l-4.8-8.4l4.2-2.4l4.8,8.4L1682.2,181z M1494.3,166.4l-4.2-2.4l4.8-8.4
			l4.2,2.4L1494.3,166.4z M1671.3,162.1l-4.8-8.4l4.2-2.4l4.8,8.4L1671.3,162.1z M1505.2,147.6l-4.2-2.4l4.8-8.4l4.2,2.4
			L1505.2,147.6z M1660.4,143.3l-4.8-8.4l4.2-2.4l4.8,8.4L1660.4,143.3z M1516.1,128.8l-4.2-2.4l4.8-8.4l4.2,2.4L1516.1,128.8z
			 M1649.5,124.5l-4.8-8.4l4.2-2.4l4.8,8.4L1649.5,124.5z M1526.9,109.9l-4.2-2.4l3.6-6.3h5.2v4.8h-2.4L1526.9,109.9z M1640.3,106
			h-9.7v-4.8h11.1l1.2,2l-2.6,1.5V106z M1618.5,106h-9.7v-4.8h9.7V106z M1596.8,106h-9.7v-4.8h9.7V106z M1575,106h-9.7v-4.8h9.7V106
			z M1553.3,106h-9.7v-4.8h9.7V106z"/>
		<polygon class="st2" points="1848.2,299.3 1743.3,194.5 1743.3,-416.7 1745.7,-416.7 1745.7,193.5 1849.9,297.6 		"/>
	</g>
</g>
</svg>
