<?xml version="1.0" encoding="utf-8"?>
<!-- Generator: Adobe Illustrator 20.0.0, SVG Export Plug-In . SVG Version: 6.00 Build 0)  -->
<svg version="1.1" id="Capa_1" xmlns="http://www.w3.org/2000/svg" xmlns:xlink="http://www.w3.org/1999/xlink" x="0px" y="0px"
	 viewBox="0 0 250 90" style="enable-background:new 0 0 250 90;" xml:space="preserve">
<style type="text/css">
	.st0{fill:#26033B;}
	.st1{fill:#21C9CF;}
	.st2{fill:#F05426;}
	.st3{fill:#F78A24;}
	.st4{fill:#FAD430;}
	.st5{fill:#1FBFA3;}
	.st6{fill:#1AAB91;}
	.st7{fill:#7861AB;}
	.st8{fill:#7366AD;}
	.st9{fill:#1270A6;}
	.st10{fill:#FC174F;}
	.st11{fill:#1AA68C;}
	.st12{fill:#FCA829;}
	.st13{fill:#FC73AD;}
	.st14{fill:#D62191;}
	.st15{fill:#AD2994;}
	.st16{fill:#9C80BA;}
	.st17{fill:#FC146E;}
	.st18{fill:#0A4FA1;}
	.st19{fill:#D12494;}
</style>
<path class="st0" d="M101.8,49.6c0-2.1-0.5-3.9-1.6-5.2c-1.1-1.4-2.6-2-4.5-2c-1.1,0-2,0.2-2.8,0.6c-0.8,0.4-1.5,1-2.1,1.6
	c-0.6,0.7-1,1.4-1.3,2.3c-0.3,0.9-0.5,1.8-0.6,2.7H101.8z M83.8,52.2c0-2.3,0.3-4.3,1-6.1c0.7-1.7,1.6-3.2,2.7-4.3
	c1.1-1.1,2.4-2,3.8-2.6c1.4-0.6,2.9-0.9,4.4-0.9c3.5,0,6.2,1.1,8.1,3.3c1.9,2.2,2.8,5.6,2.8,10.1v0.8c0,0.3,0,0.6-0.1,0.9H88.6
	c0.2,2.7,1,4.8,2.4,6.2c1.4,1.4,3.5,2.1,6.5,2.1c1.6,0,3-0.1,4.2-0.4c1.1-0.3,2-0.6,2.5-0.8l0.7,3.9c-0.6,0.3-1.6,0.6-3,1
	c-1.4,0.3-3,0.5-4.9,0.5c-2.3,0-4.3-0.3-5.9-1c-1.7-0.7-3-1.6-4.1-2.8c-1.1-1.2-1.9-2.6-2.4-4.3C84,56,83.8,54.2,83.8,52.2"/>
<path class="st0" d="M133.4,44.6c-0.6-0.5-1.4-0.9-2.5-1.4c-1.1-0.4-2.3-0.7-3.5-0.7c-1.3,0-2.5,0.2-3.5,0.7c-1,0.5-1.7,1.2-2.3,2
	c-0.6,0.9-1,1.9-1.3,3c-0.3,1.2-0.4,2.4-0.4,3.8c0,3.1,0.8,5.4,2.3,7.1c1.5,1.7,3.5,2.5,6,2.5c1.3,0,2.3-0.1,3.2-0.2
	c0.9-0.1,1.5-0.2,2-0.4V44.6z M133.4,26.9l4.7-0.8v38.4c-1.1,0.3-2.5,0.6-4.1,0.9c-1.7,0.3-3.6,0.5-5.8,0.5c-2,0-3.8-0.3-5.4-1
	c-1.6-0.6-3-1.5-4.1-2.7c-1.1-1.2-2-2.6-2.6-4.3c-0.6-1.7-0.9-3.6-0.9-5.7c0-2,0.3-3.9,0.8-5.5c0.5-1.7,1.3-3.1,2.3-4.3
	c1-1.2,2.2-2.1,3.7-2.8c1.5-0.7,3.1-1,5-1c1.5,0,2.8,0.2,4,0.6c1.2,0.4,2,0.8,2.6,1.2V26.9z"/>
<path class="st0" d="M170,64.5c-1.1,0.3-2.5,0.6-4.3,0.9c-1.8,0.3-3.8,0.5-6.1,0.5c-2,0-3.7-0.3-5.1-0.9c-1.4-0.6-2.5-1.4-3.3-2.5
	c-0.8-1.1-1.4-2.3-1.8-3.8c-0.4-1.5-0.6-3.1-0.6-4.9V39h4.7v13.7c0,3.2,0.5,5.5,1.5,6.9c1,1.4,2.7,2.1,5.1,2.1c0.5,0,1,0,1.6,0
	c0.5,0,1-0.1,1.5-0.1c0.5-0.1,0.9-0.1,1.3-0.2c0.4-0.1,0.7-0.1,0.8-0.2V39h4.7V64.5z"/>
<path class="st0" d="M190.6,50.8c1,0.8,2.1,1.7,3.2,2.9c1.1,1.1,2.2,2.4,3.3,3.7c1.1,1.3,2.1,2.7,3.1,4c1,1.4,1.8,2.6,2.5,3.8h-5.5
	c-0.7-1.2-1.5-2.4-2.4-3.6c-0.9-1.2-1.9-2.4-2.9-3.5c-1-1.1-2-2.2-3.1-3.1c-1-0.9-2-1.7-3-2.4v12.6h-4.7V26.9l4.7-0.8V50
	c0.8-0.8,1.7-1.7,2.7-2.7c1-1,1.9-2,2.9-3c0.9-1,1.8-2,2.7-2.9c0.8-0.9,1.6-1.7,2.2-2.4h5.5c-0.8,0.8-1.6,1.8-2.5,2.8
	c-0.9,1-1.8,2-2.8,3c-1,1-2,2.1-2.9,3.1C192.4,49,191.4,49.9,190.6,50.8"/>
<path class="st0" d="M219.3,61.9c1.1,0,2.1,0,2.9-0.1c0.9-0.1,1.6-0.1,2.1-0.3v-7.8c-0.3-0.2-0.9-0.3-1.6-0.4
	c-0.8-0.1-1.7-0.2-2.7-0.2c-0.7,0-1.5,0.1-2.2,0.2c-0.8,0.1-1.5,0.3-2.2,0.6c-0.7,0.3-1.2,0.8-1.6,1.3c-0.4,0.6-0.7,1.3-0.7,2.2
	c0,1.7,0.5,2.8,1.6,3.5C216,61.6,217.5,61.9,219.3,61.9 M218.9,38.4c1.9,0,3.5,0.2,4.8,0.7c1.3,0.5,2.3,1.2,3.1,2.1
	c0.8,0.9,1.4,1.9,1.7,3.2c0.3,1.2,0.5,2.6,0.5,4.1v16.4c-0.4,0.1-1,0.2-1.7,0.3c-0.7,0.1-1.5,0.2-2.4,0.3c-0.9,0.1-1.9,0.2-2.9,0.3
	c-1.1,0.1-2.1,0.1-3.2,0.1c-1.5,0-2.8-0.2-4.1-0.5c-1.2-0.3-2.3-0.8-3.2-1.4c-0.9-0.7-1.6-1.5-2.1-2.6c-0.5-1.1-0.8-2.4-0.8-3.9
	c0-1.4,0.3-2.7,0.9-3.7c0.6-1,1.4-1.9,2.4-2.5c1-0.6,2.2-1.1,3.5-1.4c1.3-0.3,2.8-0.5,4.2-0.5c0.5,0,1,0,1.5,0.1
	c0.5,0.1,1,0.1,1.4,0.2c0.5,0.1,0.8,0.2,1.2,0.2c0.3,0.1,0.6,0.1,0.7,0.2v-1.3c0-0.8-0.1-1.5-0.3-2.3c-0.2-0.8-0.5-1.4-0.9-2
	c-0.4-0.6-1-1.1-1.8-1.4c-0.8-0.4-1.7-0.5-2.9-0.5c-1.5,0-2.9,0.1-4.1,0.3c-1.2,0.2-2,0.4-2.6,0.7l-0.6-3.9c0.6-0.3,1.6-0.5,3-0.8
	C215.7,38.5,217.3,38.4,218.9,38.4"/>
<path class="st0" d="M244.5,65.3h-4.7V39h4.7V65.3z M242.1,34.3c-0.8,0-1.6-0.3-2.1-0.8c-0.6-0.6-0.9-1.3-0.9-2.2
	c0-0.9,0.3-1.7,0.9-2.2c0.6-0.6,1.3-0.8,2.1-0.8c0.8,0,1.6,0.3,2.1,0.8c0.6,0.6,0.9,1.3,0.9,2.2c0,0.9-0.3,1.7-0.9,2.2
	C243.6,34,242.9,34.3,242.1,34.3"/>
<g>
	<rect x="4.9" y="16.9" class="st1" width="9.7" height="9.7"/>
	<rect x="4.9" y="46" class="st2" width="9.7" height="9.7"/>
	<rect x="4.9" y="55.7" class="st3" width="9.7" height="9.7"/>
	<rect x="4.9" y="65.4" class="st4" width="9.7" height="9.7"/>
	<rect x="4.9" y="26.6" class="st5" width="9.7" height="9.7"/>
	<rect x="4.9" y="36.3" class="st6" width="9.7" height="9.7"/>
	<rect x="43.7" y="16.9" class="st7" width="9.7" height="9.7"/>
	<rect x="43.7" y="65.4" class="st8" width="9.7" height="9.7"/>
	<rect x="24.3" y="16.9" class="st9" width="9.7" height="9.7"/>
	<rect x="24.3" y="65.4" class="st10" width="9.7" height="9.7"/>
	<rect x="14.6" y="16.9" class="st11" width="9.7" height="9.7"/>
	<rect x="14.6" y="65.4" class="st12" width="9.7" height="9.7"/>
	<rect x="53.4" y="16.9" class="st13" width="9.7" height="9.7"/>
	<rect x="53.4" y="46" class="st14" width="9.7" height="9.7"/>
	<rect x="53.4" y="55.7" class="st15" width="9.7" height="9.7"/>
	<rect x="53.4" y="65.4" class="st16" width="9.7" height="9.7"/>
	<rect x="53.4" y="26.6" class="st17" width="9.7" height="9.7"/>
	<rect x="53.4" y="36.3" class="st13" width="9.7" height="9.7"/>
	<rect x="34" y="16.9" class="st18" width="9.7" height="9.7"/>
	<rect x="34" y="65.4" class="st19" width="9.7" height="9.7"/>
</g>
</svg>
