<?xml version="1.0" encoding="utf-8"?>
<!-- Generator: Adobe Illustrator 20.0.0, SVG Export Plug-In . SVG Version: 6.00 Build 0)  -->
<svg version="1.1" id="Capa_1" xmlns="http://www.w3.org/2000/svg" xmlns:xlink="http://www.w3.org/1999/xlink" x="0px" y="0px"
	 viewBox="0 0 250 90" style="enable-background:new 0 0 250 90;" xml:space="preserve">
<style type="text/css">
	.st0{fill:#687C99;}
	.st1{fill:#1A3D82;}
	.st2{fill:url(#SVGID_1_);}
	.st3{opacity:0.25;fill:#072038;enable-background:new    ;}
</style>
<g>
	<g>
		<polygon class="st0" points="123.1,64.3 133,64.3 133,61.8 123.1,61.8 123.1,55.8 134.2,55.8 134.2,53.3 120.2,53.3 120.2,73 
			134.5,73 134.5,70.6 123.1,70.6 		"/>
		<path class="st0" d="M156.3,58c-0.9-1.5-2.1-2.7-3.8-3.5c-1.6-0.8-3.5-1.2-5.5-1.2h-8.4v19.8h8.4c2,0,4-0.4,5.5-1.2
			c1.6-0.8,2.9-1.9,3.8-3.5c0.9-1.5,1.3-3.2,1.3-5.1C157.6,61.2,157.1,59.6,156.3,58z M153.8,67c-0.6,1.1-1.6,1.9-2.9,2.7
			c-1.2,0.6-2.7,0.9-4.2,0.9h-5.4V55.8h5.3c1.6,0,3,0.3,4.2,0.9s2.1,1.5,2.9,2.7c0.6,1.1,1,2.5,1,3.9
			C154.7,64.7,154.4,65.9,153.8,67z"/>
		<path class="st0" d="M104,56.5c1.2-0.6,2.6-1,4.1-1c2.2,0,4.2,0.7,5.7,2.2l1.7-1.7c-0.9-1-2-1.7-3.3-2.2c-1.3-0.5-2.8-0.8-4.3-0.8
			c-2,0-3.8,0.4-5.4,1.3c-1.6,0.8-2.9,2-3.8,3.6c-0.9,1.5-1.3,3.3-1.3,5.2c0,1.9,0.4,3.7,1.3,5.2s2.1,2.8,3.8,3.6
			c1.6,0.9,3.4,1.3,5.4,1.3c1.4,0,2.8-0.2,4.1-0.6c1.3-0.4,2.5-1,3.4-1.8v-7.8h-2.8l0,0h-3.6v2.6h3.6v4.1c-1.3,0.8-2.9,1.2-4.6,1.2
			c-1.5,0-2.9-0.3-4-1c-1.2-0.6-2.1-1.5-2.9-2.8c-0.7-1.2-1-2.5-1-3.9c0-1.4,0.3-2.8,1-3.9C101.8,58.1,102.8,57.2,104,56.5z"/>
	</g>
	<g>
		<path class="st1" d="M22.7,32.7c2.8,0,5.3,0.4,7.8,1.2c1.2-6.8,7.1-12.1,14.3-12.1c7,0,12.9,5,14.2,11.6c1-0.3,2-0.5,3.1-0.6
			c1.3-0.2,2.7-0.3,4-0.3c0.9,0,1.8,0.1,2.7,0.1c-1.7-11.6-11.8-20.6-24-20.6c-11.9,0.1-22.1,9.1-23.8,20.7
			C21.4,32.7,22,32.7,22.7,32.7z"/>
	</g>
	
		<linearGradient id="SVGID_1_" gradientUnits="userSpaceOnUse" x1="84.7038" y1="32.1271" x2="25.222" y2="34.4149" gradientTransform="matrix(1 0 0 -1 0 90)">
		<stop  offset="0" style="stop-color:#18C7FB"/>
		<stop  offset="1" style="stop-color:#1595F0"/>
	</linearGradient>
	<path class="st2" d="M80,40.1c-3.8-3.4-8.8-5.4-14.2-5.4c-1.1,0-2.3,0.1-3.6,0.3c-1.5,0.2-4.4,0.8-7.7,2.9c-1,0.5-2.1,1.3-3.4,2.5
		C48.5,42.6,46,45.6,44,49c-1.1-3.2-3.1-6-5.5-8.4c-3.9-3.6-9.1-5.8-14.7-5.8c-11.8,0-21.6,9.7-21.6,21.6s9.7,21.6,21.6,21.6
		c0.5,0,1,0,1.6-0.1h24.9h15.2h0.2c0.9-0.1,2.5-0.2,3.1-0.3C79.3,76.2,87.3,67,87.3,56.3C87.3,49.9,84.6,44,80,40.1z M12,56.4
		c0-6.5,5.3-11.7,11.7-11.7c4.2,0,7.9,2.1,9.9,5.5c1.1,1.8,1.8,4,1.8,6.3c0,5.8-4.2,10.6-9.8,11.6c-0.6,0.1-1.3,0.2-2,0.2l0,0
		c-1.9,0-3.9-0.5-5.5-1.3C14.6,64.9,12,60.9,12,56.4z M71.2,66.8c-1.1,0.6-2.5,1-3.8,1.2c-0.3,0-1.3,0.1-2.2,0.2h-21
		c1.8-2.1,3.7-4.8,5.2-8c0.3-0.7,0.7-1.4,1-2.1c5-11.7,11.8-13.2,13.2-13.3h0.2c0.7-0.1,1.3-0.2,2-0.2c2.1,0,4.1,0.6,5.8,1.5
		c3.6,2,5.9,5.8,5.9,10.2c0,3.3-1.3,6.2-3.6,8.4C73.1,65.5,72.2,66.2,71.2,66.8z"/>
	<path class="st3" d="M33.8,50.1c1.1,1.8,1.8,4,1.8,6.3c0,5.8-4.2,10.6-9.8,11.6h0.7c3.2-0.6,10.3-3.2,14.9-13.8
		c0.8-1.8,1.6-3.6,2.6-5.2c-1.1-3.2-3.1-6-5.5-8.4c-1,1.7-1.9,3.6-2.8,5.5C35.1,47.6,34.5,48.9,33.8,50.1z"/>
	<g>
		<path class="st1" d="M116.5,28.6c1.5,1.5,2.3,3.8,2.3,6.8v12.1h-3.8V35.9c0-2-0.5-3.6-1.4-4.6c-1-1-2.3-1.5-4.2-1.5
			c-2,0-3.7,0.6-4.9,1.8c-1.2,1.2-1.7,3-1.7,5.2v10.8h-3.8v-21h3.7v3.2c0.7-1.1,1.8-1.9,3.1-2.5c1.3-0.6,2.8-0.9,4.5-0.9
			C112.8,26.4,114.9,27.1,116.5,28.6z"/>
		<path class="st1" d="M125.9,21.8c-0.5-0.5-0.7-1-0.7-1.7c0-0.7,0.2-1.2,0.7-1.7c0.5-0.5,1.1-0.7,1.8-0.7s1.3,0.2,1.8,0.7
			c0.5,0.5,0.7,1,0.7,1.7c0,0.7-0.2,1.3-0.7,1.8c-0.5,0.5-1.1,0.7-1.8,0.7C127,22.5,126.4,22.3,125.9,21.8z M125.9,26.6h3.8v21h-3.8
			C125.9,47.6,125.9,26.6,125.9,26.6z"/>
		<path class="st1" d="M169.5,28.6c1.5,1.5,2.3,3.8,2.3,6.8v12.1h-3.8V35.9c0-2-0.5-3.6-1.4-4.6c-0.9-1-2.2-1.5-4-1.5
			c-1.9,0-3.5,0.6-4.6,1.8c-1.1,1.2-1.7,3-1.7,5.2v10.8h-3.8V35.9c0-2-0.5-3.6-1.4-4.6c-0.9-1-2.2-1.5-4-1.5c-1.9,0-3.5,0.6-4.6,1.8
			c-1.1,1.2-1.7,3-1.7,5.2v10.8h-3.8v-21h3.7v3.2c0.7-1.1,1.7-1.9,3-2.5c1.2-0.6,2.7-0.8,4.3-0.8c1.6,0,3.1,0.3,4.4,1
			c1.2,0.6,2.2,1.6,3,2.9c0.8-1.2,1.9-2.1,3.3-2.9c1.4-0.7,3-1,4.8-1C165.9,26.4,167.9,27.1,169.5,28.6z"/>
		<path class="st1" d="M195.4,27.7c1.6,0.9,2.9,2.1,3.8,3.8c0.9,1.6,1.3,3.5,1.3,5.6s-0.4,4-1.3,5.6c-0.9,1.6-2.1,2.9-3.8,3.8
			c-1.6,0.9-3.5,1.3-5.5,1.3c-1.5,0-3-0.3-4.3-0.9c-1.3-0.6-2.3-1.5-3.2-2.7v3.4h-3.7V18.2h3.8v11.5c0.8-1.1,1.9-1.9,3.2-2.6
			c1.2-0.6,2.7-0.8,4.2-0.8C192,26.4,193.8,26.8,195.4,27.7z M193.2,43.5c1-0.6,1.9-1.5,2.6-2.7c0.6-1.1,0.9-2.5,0.9-3.9
			c0-1.4-0.3-2.8-0.9-3.9c-0.6-1.1-1.4-1.9-2.6-2.6c-1-0.6-2.2-0.9-3.6-0.9c-1.3,0-2.6,0.3-3.6,0.9c-1.1,0.6-1.9,1.4-2.6,2.6
			c-0.6,1.1-0.9,2.5-0.9,3.9c0,1.4,0.3,2.8,0.9,3.9c0.6,1.1,1.4,2,2.6,2.7c1.1,0.6,2.2,0.9,3.6,0.9C191,44.4,192.2,44.1,193.2,43.5z
			"/>
		<path class="st1" d="M225.4,26.6v21h-3.6v-3.2c-0.8,1.1-1.7,1.9-3.1,2.6c-1.2,0.6-2.7,0.9-4.1,0.9c-2.8,0-5-0.8-6.6-2.3
			c-1.6-1.5-2.5-3.8-2.5-6.8V26.6h3.8v11.6c0,2,0.5,3.6,1.4,4.6c1,1,2.3,1.5,4.2,1.5c2,0,3.6-0.6,4.8-1.8c1.1-1.2,1.7-3,1.7-5.1
			V26.6H225.4z"/>
		<path class="st1" d="M233.7,47.1c-1.6-0.5-2.9-1-3.7-1.7l1.6-3c0.9,0.6,2,1.2,3.4,1.6c1.3,0.4,2.7,0.6,4,0.6c3.4,0,5-0.9,5-2.9
			c0-0.6-0.2-1.1-0.7-1.5c-0.4-0.4-1-0.6-1.6-0.8c-0.7-0.2-1.6-0.4-2.9-0.6c-1.7-0.3-3.1-0.6-4.2-0.9c-1-0.3-1.9-0.9-2.8-1.7
			c-0.8-0.8-1.1-1.9-1.1-3.5c0-1.9,0.8-3.5,2.3-4.6c1.6-1.1,3.7-1.7,6.3-1.7c1.4,0,2.8,0.2,4.2,0.5c1.4,0.3,2.6,0.8,3.5,1.4l-1.6,3
			c-1.7-1.1-3.8-1.6-6-1.6c-1.6,0-2.9,0.3-3.7,0.8c-0.8,0.5-1.2,1.2-1.2,2.1c0,0.7,0.2,1.2,0.7,1.6c0.5,0.4,1,0.7,1.7,0.9
			c0.7,0.2,1.6,0.4,3,0.6c1.7,0.3,3.1,0.6,4.1,0.9c1,0.3,1.9,0.9,2.7,1.6c0.7,0.8,1.1,1.9,1.1,3.4c0,1.9-0.8,3.4-2.5,4.5
			c-1.6,1.1-3.9,1.6-6.6,1.6C236.9,47.8,235.3,47.5,233.7,47.1z"/>
	</g>
</g>
</svg>
