<?xml version="1.0" encoding="utf-8"?>
<!-- Generator: Adobe Illustrator 20.0.0, SVG Export Plug-In . SVG Version: 6.00 Build 0)  -->
<svg version="1.1" id="Capa_1" xmlns="http://www.w3.org/2000/svg" xmlns:xlink="http://www.w3.org/1999/xlink" x="0px" y="0px"
	 viewBox="0 0 250 90" style="enable-background:new 0 0 250 90;" xml:space="preserve">
<style type="text/css">
	.st0{fill:#172244;}
	.st1{fill:#FE8113;}
	.st2{fill:#FEA22A;}
</style>
<ellipse transform="matrix(0.1956 -0.9807 0.9807 0.1956 92.409 151.7268)" class="st0" cx="138.7" cy="19.5" rx="7.8" ry="7.8"/>
<circle class="st0" cx="133" cy="38.2" r="3.9"/>
<ellipse transform="matrix(0.9223 -0.3865 0.3865 0.9223 0.24 46.7989)" class="st0" cx="116.5" cy="22.8" rx="10.1" ry="10.1"/>
<g>
	<ellipse transform="matrix(0.9223 -0.3864 0.3864 0.9223 5.6063 40.4814)" class="st0" cx="103.5" cy="6.3" rx="5.4" ry="5.4"/>
</g>
<g>
	<path class="st0" d="M71,83.5c-4.7,0-8.7-1.7-12.1-5c-3.3-3.3-5-7.3-5-12v-8.7h-4.5v-8.5h31v8.5h-18v8.7c0,2.4,0.8,4.4,2.5,6
		c1.7,1.7,3.7,2.5,6.1,2.5h9.4v8.4L71,83.5L71,83.5z"/>
</g>
<g>
	<path class="st0" d="M183.6,83.7c-4.7,0-8.7-1.7-12.1-5c-3.3-3.3-5-7.3-5-12.1c0-4.7,1.7-8.7,5-12.1c3.3-3.4,7.3-5,12.1-5
		c4.7,0,8.7,1.7,12,5c3.3,3.4,5,7.4,5,12.1s-1.7,8.7-5,12.1C192.3,82,188.3,83.7,183.6,83.7z M183.6,58c-2.4,0-4.4,0.8-6.1,2.5
		c-1.7,1.7-2.5,3.7-2.5,6.1s0.8,4.4,2.5,6.1s3.7,2.5,6.1,2.5c2.4,0,4.4-0.8,6-2.5c1.7-1.7,2.5-3.7,2.5-6.1s-0.8-4.4-2.5-6.1
		C188,58.9,186,58,183.6,58z"/>
</g>
<polygon class="st1" points="110.4,89 110.4,88.9 110.4,89 "/>
<polygon class="st2" points="110.3,89 110.4,89 110.3,88.9 "/>
<g>
	<path id="XMLID_129_" class="st0" d="M201,47.6c0.1-0.2,0.2-0.4,0.2-0.7c0-0.4-0.1-0.8-0.4-1c-0.3-0.2-0.7-0.3-1.2-0.3h-1.3V50h0.7
		v-1.7h0.7l1,1.7h0.8l-1.2-2C200.6,47.9,200.8,47.8,201,47.6z M199.6,47.6H199v-1.4h0.5c0.3,0,0.5,0.1,0.7,0.2
		c0.1,0.1,0.2,0.3,0.2,0.5s-0.1,0.4-0.2,0.5C200,47.6,199.8,47.6,199.6,47.6z"/>
	<path id="XMLID_126_" class="st0" d="M202.9,45.9c-0.3-0.6-0.8-1-1.4-1.4c-0.6-0.3-1.2-0.5-1.9-0.5s-1.3,0.2-1.9,0.5
		c-0.6,0.3-1,0.8-1.4,1.4c-0.3,0.6-0.5,1.2-0.5,1.9s0.2,1.3,0.5,1.8c0.3,0.6,0.8,1,1.3,1.4c0.6,0.3,1.2,0.5,1.9,0.5s1.3-0.2,1.9-0.5
		c0.6-0.3,1-0.8,1.3-1.4c0.3-0.6,0.5-1.2,0.5-1.8C203.4,47.1,203.2,46.5,202.9,45.9z M202.4,49.4c-0.3,0.5-0.7,0.9-1.2,1.2
		s-1,0.4-1.6,0.4s-1.1-0.1-1.6-0.4c-0.5-0.3-0.9-0.7-1.2-1.2s-0.4-1-0.4-1.6s0.1-1.1,0.4-1.6c0.3-0.5,0.7-0.9,1.2-1.2s1-0.4,1.6-0.4
		s1.1,0.1,1.6,0.4c0.5,0.3,0.9,0.7,1.2,1.2s0.4,1,0.4,1.6C202.9,48.4,202.7,48.9,202.4,49.4z"/>
</g>
<path class="st0" d="M124.5,35.8h-27c-1,0-1.8,0.8-1.8,1.8v10v11.8l2.2,1.3V46.3v-6.1c0-0.4,0.3-0.7,0.7-0.7h10.3h1.5h1.5h11.4
	c0.4,0,0.7,0.3,0.7,0.7v6.6v13.4l2.3-1.4V48.2V37.6C126.3,36.6,125.5,35.8,124.5,35.8z"/>
<polygon class="st0" points="93.9,57.2 94.5,57.5 94.5,48.4 87,53 "/>
<g>
	<path class="st0" d="M151,83.7h-7c-4.7,0-8.7-1.7-12.1-5c-3.3-3.3-5-7.3-5-12s1.7-8.7,5-12.1c3.3-3.3,7.3-5,12.1-5h9.3v-5.8h8.4V73
		c0,2.9-1,5.4-3.1,7.5C156.4,82.6,153.9,83.7,151,83.7z M153.3,58.1H144c-2.4,0-4.4,0.8-6.1,2.5c-1.7,1.7-2.5,3.7-2.5,6.1
		s0.8,4.4,2.5,6c1.7,1.7,3.7,2.5,6.1,2.5h7c0.6,0,1.2-0.2,1.6-0.6c0.4-0.4,0.7-0.9,0.7-1.6V58.1z"/>
</g>
<polygon class="st0" points="109.7,67.9 102.7,63.7 97.9,60.8 95.7,59.5 95.1,59.1 94.5,58.7 86,53.6 86,74.1 109.7,88.6 "/>
<g>
	<path class="st0" d="M135.2,64c-0.3,0.9-0.4,1.9-0.4,2.9c0,1,0.1,2,0.4,2.9V64z"/>
	<path class="st0" d="M125.7,66.9c0-3.4,0.8-6.4,2.4-9.1l-0.7,0.4l-0.6,0.4l-0.5,0.3l-2.3,1.4l-5.7,3.4l0,0l-7.3,4.3v20.7l18.2-10.9
		C126.9,74.6,125.7,71,125.7,66.9z"/>
</g>
<path class="st0" d="M129.2,56.1c0.5-0.7,1.1-1.4,1.8-2.1c0.6-0.6,1.3-1.2,2-1.7l-5.6-3.4v8.3l0.4-0.2L129.2,56.1z"/>
</svg>
