<?xml version="1.0" encoding="utf-8"?>
<!-- Generator: Adobe Illustrator 20.0.0, SVG Export Plug-In . SVG Version: 6.00 Build 0)  -->
<svg version="1.1" id="Capa_1" xmlns="http://www.w3.org/2000/svg" xmlns:xlink="http://www.w3.org/1999/xlink" x="0px" y="0px"
	 viewBox="0 0 250 90" style="enable-background:new 0 0 250 90;" xml:space="preserve">
<style type="text/css">
	.st0{fill:#172244;}
	.st1{fill:#FE8113;}
	.st2{fill:#FEA22A;}
</style>
<circle class="st0" cx="133" cy="38.2" r="3.9"/>
<path class="st1" d="M110.4,89L110.4,89L110.4,89z"/>
<polygon class="st2" points="110.3,89 110.4,89 110.3,88.9 "/>
<g>
	<path class="st0" d="M201,47.6c0.1-0.2,0.2-0.4,0.2-0.7c0-0.4-0.1-0.8-0.4-1c-0.3-0.2-0.7-0.3-1.2-0.3h-1.3V50h0.7v-1.7h0.7l1,1.7
		h0.8l-1.2-2C200.6,47.9,200.8,47.8,201,47.6z M199.6,47.6H199v-1.4h0.5c0.3,0,0.5,0.1,0.7,0.2c0.1,0.1,0.2,0.3,0.2,0.5
		c0,0.2-0.1,0.4-0.2,0.5C200,47.6,199.8,47.6,199.6,47.6z"/>
	<path class="st0" d="M202.9,45.9c-0.3-0.6-0.8-1-1.4-1.4c-0.6-0.3-1.2-0.5-1.9-0.5c-0.7,0-1.3,0.2-1.9,0.5s-1,0.8-1.4,1.4
		c-0.3,0.6-0.5,1.2-0.5,1.9s0.2,1.3,0.5,1.8c0.3,0.6,0.8,1,1.3,1.4c0.6,0.3,1.2,0.5,1.9,0.5c0.7,0,1.3-0.2,1.9-0.5s1-0.8,1.3-1.4
		c0.3-0.6,0.5-1.2,0.5-1.8C203.4,47.1,203.2,46.5,202.9,45.9z M202.4,49.4c-0.3,0.5-0.7,0.9-1.2,1.2c-0.5,0.3-1,0.4-1.6,0.4
		c-0.6,0-1.1-0.1-1.6-0.4c-0.5-0.3-0.9-0.7-1.2-1.2s-0.4-1-0.4-1.6c0-0.6,0.1-1.1,0.4-1.6s0.7-0.9,1.2-1.2s1-0.4,1.6-0.4
		c0.6,0,1.1,0.1,1.6,0.4s0.9,0.7,1.2,1.2c0.3,0.5,0.4,1,0.4,1.6C202.9,48.4,202.7,48.9,202.4,49.4z"/>
	<path class="st0" d="M49.4,57.8h4.5v8.7c0,4.7,1.7,8.7,5,12c3.4,3.3,7.4,5,12.1,5l9.4-0.1V75H71c-2.4,0-4.4-0.8-6.1-2.5
		c-1.7-1.6-2.5-3.6-2.5-6v-8.7h18v-8.5h-31V57.8z"/>
	<path class="st0" d="M183.6,49.5c-4.8,0-8.8,1.6-12.1,5s-5,7.4-5,12.1c0,4.8,1.7,8.8,5,12.1c3.4,3.3,7.4,5,12.1,5
		c4.7,0,8.7-1.7,12-5c3.3-3.4,5-7.4,5-12.1c0-4.7-1.7-8.7-5-12.1C192.3,51.2,188.3,49.5,183.6,49.5z M189.6,72.7
		c-1.6,1.7-3.6,2.5-6,2.5c-2.4,0-4.4-0.8-6.1-2.5c-1.7-1.7-2.5-3.7-2.5-6.1c0-2.4,0.8-4.4,2.5-6.1s3.7-2.5,6.1-2.5
		c2.4,0,4.4,0.9,6,2.5c1.7,1.7,2.5,3.7,2.5,6.1C192.1,69,191.3,71,189.6,72.7z"/>
	<polygon class="st0" points="94.5,57.5 94.5,48.4 87,53 93.9,57.2 	"/>
	<path class="st0" d="M153.3,49.6H144c-4.8,0-8.8,1.7-12.1,5c-3.3,3.4-5,7.4-5,12.1c0,4.7,1.7,8.7,5,12c3.4,3.3,7.4,5,12.1,5h7
		c2.9,0,5.4-1.1,7.6-3.2c2.1-2.1,3.1-4.6,3.1-7.5V43.8h-8.4V49.6z M153.3,73c0,0.7-0.3,1.2-0.7,1.6c-0.4,0.4-1,0.6-1.6,0.6h-7
		c-2.4,0-4.4-0.8-6.1-2.5c-1.7-1.6-2.5-3.6-2.5-6c0-2.4,0.8-4.4,2.5-6.1c1.7-1.7,3.7-2.5,6.1-2.5h9.3V73z"/>
	<ellipse transform="matrix(0.1956 -0.9807 0.9807 0.1956 92.3992 151.6842)" class="st0" cx="138.7" cy="19.5" rx="7.8" ry="7.8"/>
	<ellipse transform="matrix(0.9223 -0.3865 0.3865 0.9223 0.241 46.7988)" class="st0" cx="116.5" cy="22.8" rx="10.1" ry="10.1"/>
	<ellipse transform="matrix(0.9223 -0.3864 0.3864 0.9223 5.6049 40.4822)" class="st0" cx="103.5" cy="6.3" rx="5.4" ry="5.4"/>
	<path class="st0" d="M123.3,39.5c0.4,0,0.7,0.3,0.7,0.7v6.6v13.4l2.3-1.4V48.2V37.6c0-1-0.8-1.8-1.8-1.8h-27c-1,0-1.8,0.8-1.8,1.8
		v10v11.8l2.2,1.3V46.3v-6.1c0-0.4,0.3-0.7,0.7-0.7h10.3h1.5h1.5H123.3z"/>
	<polygon class="st0" points="97.9,60.8 95.7,59.5 95.1,59.1 94.5,58.7 86,53.6 86,74.1 109.7,88.6 109.7,67.9 102.7,63.7 	"/>
	<path class="st0" d="M128.1,57.8l-0.7,0.4l-0.6,0.4l-0.5,0.3l-2.3,1.4l-5.7,3.4L111,68v20.7l18.2-10.9c-2.3-3.2-3.5-6.8-3.5-10.9
		C125.7,63.5,126.5,60.5,128.1,57.8z"/>
	<path class="st0" d="M129.2,56.1c0.5-0.7,1.1-1.4,1.8-2.1c0.6-0.6,1.3-1.2,2-1.7l-5.6-3.4v8.3l0.4-0.2L129.2,56.1z"/>
</g>
</svg>
