<?xml version="1.0" encoding="utf-8"?>
<!-- Generator: Adobe Illustrator 20.0.0, SVG Export Plug-In . SVG Version: 6.00 Build 0)  -->
<svg version="1.1" id="Capa_1" xmlns="http://www.w3.org/2000/svg" xmlns:xlink="http://www.w3.org/1999/xlink" x="0px" y="0px"
	 viewBox="0 0 250 90" style="enable-background:new 0 0 250 90;" xml:space="preserve">
<style type="text/css">
	.st0{fill:#0287C2;}
	.st1{fill:#736A66;}
	.st2{fill:#FFFFFF;}
</style>
<g>
	<g>
		<path class="st0" d="M86.2,28.9v10.8h14.1v3.1H86.2v10.7h14.1v3H83.2V25.8h17.1v3H86.2z"/>
		<path class="st0" d="M127.9,25.8v30.7h-2.8v-3.2c-2,2.2-4.8,3.6-8,3.6c-5.9,0-10.7-4.8-10.7-10.7s4.8-10.7,10.7-10.7
			c3.2,0,6,1.3,8,3.5V25.8H127.9z M117.2,54.2c4.4,0,7.9-3.5,7.9-7.9c0-4.3-3.5-7.9-7.9-7.9c-4.3,0-7.9,3.6-7.9,7.9
			C109.3,50.6,112.8,54.2,117.2,54.2z"/>
		<path class="st0" d="M137.6,48.3c0,4,1.5,5.9,4.8,5.9c3.4,0,4.9-1.9,4.9-5.9V35.9h2.8v12.9c0,5.3-3,8.2-7.7,8.2
			c-4.7,0-7.7-2.9-7.7-8.2V35.9h2.8V48.3z"/>
		<path class="st0" d="M167.5,35.5c3,0,4.7,0.8,6.5,1.9V41c-1.5-1.3-3.6-2.7-6.5-2.7c-4.5,0-7.9,3.4-7.9,7.9s3.4,7.9,7.9,7.9
			c2.8,0,5-1.3,6.5-2.8V55c-1.3,1-3.2,2-6.5,2c-6.2,0-10.7-4.5-10.7-10.7C156.8,40,161.3,35.5,167.5,35.5z"/>
		<path class="st0" d="M179.8,46.2c0-5.9,4.8-10.7,10.7-10.7c3.1,0,6,1.3,7.9,3.5v-3.2h2.8v20.7h-2.8v-3.1c-2,2.2-4.8,3.5-7.9,3.5
			C184.6,56.9,179.8,52.1,179.8,46.2z M190.5,54.2c4.4,0,7.9-3.5,7.9-7.9c0-4.3-3.5-7.9-7.9-7.9s-7.9,3.6-7.9,7.9
			C182.6,50.6,186.2,54.2,190.5,54.2z"/>
		<path class="st0" d="M208.9,35.9h2.8v2.2c0.6-1.3,2-2.5,4-2.5c2.1,0,3.5,0.5,4.8,1.7l-1.4,2.1c-0.7-0.6-1.4-1-3.3-1
			c-2.4,0-4.1,2.1-4.1,3.7v14.4h-2.8V35.9z"/>
		<path class="st0" d="M243.1,50.3l2.5,1.5c-1.5,2.6-4.7,5.1-9.3,5.1c-6.2,0-10.7-4.5-10.7-10.7c0-6.2,4.5-10.7,10.7-10.7
			c7,0,10.7,5.4,10.7,10.6c0,0.9-0.1,1.4-0.5,1.4h-18c0.5,3.5,3.2,6.6,7.8,6.6C239.6,54.1,241.8,52.3,243.1,50.3z M236.3,38.4
			c-5.1,0-7.6,3.9-7.7,6.4h15.4C243.6,42.1,241.1,38.4,236.3,38.4z"/>
	</g>
	<g>
		<path class="st1" d="M83.2,76.8v-12h1.9v12H83.2z"/>
		<path class="st1" d="M97,76.8v-7.7h1.7v1.3c0.4-0.5,0.8-0.9,1.2-1.2c0.5-0.2,1.1-0.4,1.7-0.4c0.6,0,1.1,0.1,1.5,0.3
			c0.4,0.2,0.7,0.5,1,0.8c0.1,0.2,0.2,0.5,0.3,0.7c0.1,0.3,0.1,0.8,0.1,1.5v4.7h-1.8v-4c0-1-0.1-1.7-0.4-2c-0.2-0.3-0.7-0.5-1.3-0.5
			c-0.4,0-0.8,0.1-1.1,0.2c-0.3,0.2-0.6,0.4-0.8,0.6c-0.1,0.2-0.2,0.4-0.3,0.7c-0.1,0.3-0.1,0.8-0.1,1.4v3.5H97z"/>
		<path class="st1" d="M116,76.8v-7.7h1.7v1.3c0.4-0.5,0.8-0.9,1.3-1.2c0.5-0.2,1.1-0.4,1.7-0.4c0.6,0,1.1,0.1,1.5,0.3
			c0.4,0.2,0.7,0.5,1,0.8c0.1,0.2,0.2,0.5,0.3,0.7c0.1,0.3,0.1,0.8,0.1,1.5v4.7h-1.8v-4c0-1-0.1-1.7-0.4-2c-0.2-0.3-0.7-0.5-1.3-0.5
			c-0.4,0-0.8,0.1-1.1,0.2c-0.3,0.2-0.6,0.4-0.8,0.6c-0.1,0.2-0.2,0.4-0.3,0.7c-0.1,0.3-0.1,0.8-0.1,1.4v3.5H116z"/>
		<path class="st1" d="M134.5,72.9c0-0.6,0.1-1.1,0.3-1.6s0.5-1,0.9-1.3c0.4-0.4,0.9-0.7,1.4-0.9c0.5-0.2,1.1-0.3,1.6-0.3
			c0.6,0,1.1,0.1,1.6,0.3c0.5,0.2,1,0.5,1.4,0.9c0.4,0.4,0.7,0.8,0.9,1.3c0.2,0.5,0.3,1,0.3,1.6c0,0.6-0.1,1.1-0.3,1.6
			c-0.2,0.5-0.5,0.9-0.9,1.3c-0.4,0.4-0.9,0.7-1.4,0.9c-0.5,0.2-1.1,0.3-1.6,0.3c-0.6,0-1.1-0.1-1.6-0.3c-0.5-0.2-1-0.5-1.4-0.9
			c-0.4-0.4-0.7-0.9-0.9-1.4C134.6,74,134.5,73.5,134.5,72.9z M141.1,73c0-0.7-0.2-1.3-0.7-1.8c-0.5-0.5-1-0.7-1.7-0.7
			c-0.7,0-1.2,0.2-1.7,0.7c-0.5,0.5-0.7,1.1-0.7,1.8c0,0.7,0.2,1.3,0.7,1.8c0.5,0.5,1,0.7,1.7,0.7c0.7,0,1.2-0.2,1.7-0.7
			C140.9,74.3,141.1,73.7,141.1,73z"/>
		<path class="st1" d="M156.8,77.3l-4.1-8.2h1.9l1.7,3.9c0.1,0.1,0.1,0.3,0.2,0.5c0.1,0.2,0.2,0.5,0.2,0.9c0.1-0.2,0.1-0.5,0.2-0.7
			c0.1-0.2,0.2-0.5,0.3-0.7l1.7-3.9h1.9L156.8,77.3z"/>
		<path class="st1" d="M178.5,76.8h-1.8v-1c-0.3,0.4-0.7,0.8-1.1,1c-0.4,0.2-0.9,0.3-1.5,0.3c-1.1,0-2-0.4-2.6-1.1
			c-0.6-0.7-0.9-1.8-0.9-3.1c0-1.2,0.3-2.2,1-3c0.6-0.8,1.5-1.1,2.5-1.1c0.6,0,1.2,0.1,1.6,0.4c0.4,0.3,0.8,0.6,1,1.1v-1.3h1.8V76.8
			z M176.7,72.9c0-0.8-0.2-1.4-0.6-1.9s-0.9-0.7-1.6-0.7c-0.7,0-1.2,0.2-1.6,0.7c-0.4,0.5-0.6,1.1-0.6,1.9c0,0.8,0.2,1.5,0.6,1.9
			c0.4,0.4,0.9,0.7,1.6,0.7c0.6,0,1.2-0.2,1.6-0.7C176.5,74.3,176.7,73.7,176.7,72.9z"/>
		<path class="st1" d="M195.9,71.3c-0.3-0.3-0.6-0.5-1-0.7c-0.4-0.2-0.8-0.2-1.2-0.2c-0.7,0-1.3,0.2-1.7,0.7
			c-0.4,0.5-0.7,1.1-0.7,1.9c0,0.8,0.2,1.4,0.7,1.9c0.4,0.5,1,0.7,1.8,0.7c0.4,0,0.8-0.1,1.2-0.2c0.3-0.2,0.6-0.4,0.9-0.7v2
			c-0.3,0.2-0.7,0.3-1,0.4c-0.4,0.1-0.8,0.1-1.2,0.1c-1.2,0-2.2-0.4-3-1.2c-0.8-0.8-1.1-1.8-1.1-3c0-1.2,0.4-2.3,1.2-3
			c0.8-0.8,1.8-1.1,3.1-1.1c0.4,0,0.8,0,1.1,0.1c0.3,0.1,0.7,0.2,0.9,0.4V71.3z"/>
		<path class="st1" d="M206.8,65.7c0-0.3,0.1-0.6,0.3-0.8c0.2-0.2,0.5-0.3,0.8-0.3c0.3,0,0.6,0.1,0.8,0.3c0.2,0.2,0.3,0.5,0.3,0.8
			s-0.1,0.6-0.3,0.8c-0.2,0.2-0.5,0.3-0.8,0.3c-0.3,0-0.6-0.1-0.8-0.3C206.9,66.3,206.8,66,206.8,65.7z M207,76.8v-7.7h1.8v7.7H207z
			"/>
		<path class="st1" d="M219.9,72.9c0-0.6,0.1-1.1,0.3-1.6c0.2-0.5,0.5-1,0.9-1.3c0.4-0.4,0.9-0.7,1.4-0.9c0.5-0.2,1.1-0.3,1.6-0.3
			c0.6,0,1.1,0.1,1.6,0.3c0.5,0.2,1,0.5,1.4,0.9c0.4,0.4,0.7,0.8,0.9,1.3c0.2,0.5,0.3,1,0.3,1.6c0,0.6-0.1,1.1-0.3,1.6
			c-0.2,0.5-0.5,0.9-0.9,1.3c-0.4,0.4-0.9,0.7-1.4,0.9c-0.5,0.2-1.1,0.3-1.6,0.3c-0.6,0-1.1-0.1-1.6-0.3c-0.5-0.2-1-0.5-1.4-0.9
			c-0.4-0.4-0.7-0.9-0.9-1.4C220,74,219.9,73.5,219.9,72.9z M226.6,73c0-0.7-0.2-1.3-0.7-1.8c-0.5-0.5-1-0.7-1.7-0.7
			c-0.7,0-1.2,0.2-1.7,0.7c-0.5,0.5-0.7,1.1-0.7,1.8c0,0.7,0.2,1.3,0.7,1.8c0.5,0.5,1,0.7,1.7,0.7s1.2-0.2,1.7-0.7
			C226.4,74.3,226.6,73.7,226.6,73z M223,67.9l1.6-2.2h1.8l-2.4,2.2H223z"/>
		<path class="st1" d="M239.5,76.8v-7.7h1.7v1.3c0.4-0.5,0.8-0.9,1.3-1.2c0.5-0.2,1.1-0.4,1.7-0.4c0.6,0,1.1,0.1,1.5,0.3
			c0.4,0.2,0.7,0.5,1,0.8c0.1,0.2,0.2,0.5,0.3,0.7c0.1,0.3,0.1,0.8,0.1,1.5v4.7h-1.8v-4c0-1-0.1-1.7-0.4-2c-0.2-0.3-0.7-0.5-1.3-0.5
			c-0.4,0-0.8,0.1-1.1,0.2c-0.3,0.2-0.6,0.4-0.8,0.6c-0.1,0.2-0.2,0.4-0.3,0.7c-0.1,0.3-0.1,0.8-0.1,1.4v3.5H239.5z"/>
	</g>
	<g>
		<circle class="st0" cx="35.1" cy="44.8" r="32.1"/>
		<g>
			<path class="st2" d="M14.7,44.9c0,0,7.5,21.7,21.7,19.7c16.9-2.5,18.7-19,18.7-19L60,45c0,0-3.2,18.9-23.1,21.3
				C17.1,68.6,9.4,45.7,9.4,45.7L14.7,44.9z"/>
			<path class="st2" d="M51.3,42.3l-18.3,2.4l0.5,3.5l13.7-1.8c-0.3,1.5-1.6,7.6-6.6,9.4C30.3,59.6,25,44.3,25,44.3l-5.5,0.8
				c6.2,13.1,12.8,15.3,21.3,12.3C49.8,54.3,51.3,42.3,51.3,42.3z"/>
		</g>
		<g>
			
				<rect x="30.4" y="23.7" transform="matrix(0.9267 0.3759 -0.3759 0.9267 13.3273 -9.9709)" class="st2" width="3.6" height="10.9"/>
			
				<rect x="36.6" y="29.1" transform="matrix(0.9267 0.3759 -0.3759 0.9267 15.2928 -12.0252)" class="st2" width="3.6" height="8.2"/>
			
				<rect x="43.9" y="29.2" transform="matrix(0.9267 0.3759 -0.3759 0.9267 16.3807 -14.652)" class="st2" width="3.6" height="10.9"/>
		</g>
	</g>
</g>
</svg>
