<?xml version="1.0" encoding="utf-8"?>
<!-- Generator: Adobe Illustrator 20.0.0, SVG Export Plug-In . SVG Version: 6.00 Build 0)  -->
<svg version="1.1" id="Layer_1" xmlns="http://www.w3.org/2000/svg" xmlns:xlink="http://www.w3.org/1999/xlink" x="0px" y="0px"
	 viewBox="0 0 1800 259.1" style="enable-background:new 0 0 1800 259.1;" xml:space="preserve">
<style type="text/css">
	.st0{fill:url(#I_60_);}
	.st1{fill:none;stroke:#EBECF0;}
	.st2{fill:url(#I_61_);}
	.st3{fill:url(#I_62_);}
	.st4{fill:url(#I_63_);}
	.st5{fill:url(#I_64_);}
	.st6{fill:url(#I_65_);}
	.st7{fill:url(#I_66_);}
	.st8{fill:url(#I_67_);}
	.st9{fill:url(#I_68_);}
	.st10{fill:url(#I_69_);}
	.st11{fill:url(#I_70_);}
	.st12{fill:url(#I_71_);}
	.st13{fill:url(#I_72_);}
	.st14{fill:url(#I_73_);}
	.st15{fill:url(#I_74_);}
	.st16{fill:url(#I_75_);}
	.st17{fill:url(#I_76_);}
	.st18{fill:url(#K_6_);}
	.st19{fill:url(#I_77_);}
	.st20{fill:url(#I_78_);}
	.st21{fill:url(#K_7_);}
	.st22{fill:url(#I_79_);}
	.st23{fill:url(#K_8_);}
	.st24{fill:url(#I_80_);}
	.st25{fill:url(#I_81_);}
	.st26{fill:url(#I_82_);}
	.st27{fill:url(#I_83_);}
	.st28{fill:url(#I_84_);}
	.st29{fill:url(#L_2_);}
	.st30{fill:url(#M_2_);}
	.st31{fill:url(#I_85_);}
	.st32{fill:url(#I_86_);}
	.st33{fill:url(#I_87_);}
	.st34{fill:url(#I_88_);}
	.st35{fill:url(#I_89_);}
</style>
<g>
	<path id="I" d="M1362,140h76c1.1,0,2,0.9,2,2v76c0,1.1-0.9,2-2,2h-76c-1.1,0-2-0.9-2-2v-76C1360,140.9,1360.9,140,1362,140z"/>
</g>
<g>
	
		<linearGradient id="I_60_" gradientUnits="userSpaceOnUse" x1="1400" y1="119.43" x2="1400" y2="39.43" gradientTransform="matrix(1 0 0 -1 0 259.2295)">
		<stop  offset="0" style="stop-color:#FFFFFF"/>
		<stop  offset="1" style="stop-color:#FAFBFC"/>
	</linearGradient>
	<path id="I_1_" class="st0" d="M1362,140h76c1.1,0,2,0.9,2,2v76c0,1.1-0.9,2-2,2h-76c-1.1,0-2-0.9-2-2v-76
		C1360,140.9,1360.9,140,1362,140z"/>
</g>
<g>
	<path id="J" class="st1" d="M1362.5,140.5h75c1.1,0,2,0.9,2,2v75c0,1.1-0.9,2-2,2h-75c-1.1,0-2-0.9-2-2v-75
		C1360.5,141.4,1361.4,140.5,1362.5,140.5z"/>
</g>
<image style="overflow:visible;enable-background:new    ;" width="147" height="146" xlink:href="2C5331E88E823EBA.png"  transform="matrix(0.4114 0 0 0.4142 1370 149.9995)">
</image>
<g>
	<path id="I_2_" d="M1362,240h76c1.1,0,2,0.9,2,2v76c0,1.1-0.9,2-2,2h-76c-1.1,0-2-0.9-2-2v-76C1360,240.9,1360.9,240,1362,240z"/>
</g>
<g>
	
		<linearGradient id="I_61_" gradientUnits="userSpaceOnUse" x1="1400" y1="119.43" x2="1400" y2="39.43" gradientTransform="matrix(1 0 0 -1 0 359.2295)">
		<stop  offset="0" style="stop-color:#FFFFFF"/>
		<stop  offset="1" style="stop-color:#FAFBFC"/>
	</linearGradient>
	<path id="I_3_" class="st2" d="M1362,240h76c1.1,0,2,0.9,2,2v76c0,1.1-0.9,2-2,2h-76c-1.1,0-2-0.9-2-2v-76
		C1360,240.9,1360.9,240,1362,240z"/>
</g>
<g>
	<path id="J_1_" class="st1" d="M1362.5,240.5h75c1.1,0,2,0.9,2,2v75c0,1.1-0.9,2-2,2h-75c-1.1,0-2-0.9-2-2v-75
		C1360.5,241.4,1361.4,240.5,1362.5,240.5z"/>
</g>
<image style="overflow:visible;enable-background:new    ;" width="147" height="146" xlink:href="2C5331E88E823EBE.png"  transform="matrix(0.4114 0 0 0.4142 1370 249.9995)">
</image>
<g>
	<path id="I_4_" d="M1162,160h76c1.1,0,2,0.9,2,2v76c0,1.1-0.9,2-2,2h-76c-1.1,0-2-0.9-2-2v-76C1160,160.9,1160.9,160,1162,160z"/>
</g>
<g>
	
		<linearGradient id="I_62_" gradientUnits="userSpaceOnUse" x1="1400" y1="119.43" x2="1400" y2="39.43" gradientTransform="matrix(1 0 0 -1 -200 279.2295)">
		<stop  offset="0" style="stop-color:#FFFFFF"/>
		<stop  offset="1" style="stop-color:#FAFBFC"/>
	</linearGradient>
	<path id="I_5_" class="st3" d="M1162,160h76c1.1,0,2,0.9,2,2v76c0,1.1-0.9,2-2,2h-76c-1.1,0-2-0.9-2-2v-76
		C1160,160.9,1160.9,160,1162,160z"/>
</g>
<g>
	<path id="J_2_" class="st1" d="M1162.5,160.5h75c1.1,0,2,0.9,2,2v75c0,1.1-0.9,2-2,2h-75c-1.1,0-2-0.9-2-2v-75
		C1160.5,161.4,1161.4,160.5,1162.5,160.5z"/>
</g>
<image style="overflow:visible;enable-background:new    ;" width="146" height="146" xlink:href="2C5331E88E823EB9.png"  transform="matrix(0.4142 0 0 0.4142 1170 169.9995)">
</image>
<g>
	<path id="I_6_" d="M1664.6,199.5h76c1.1,0,2,0.9,2,2v76c0,1.1-0.9,2-2,2h-76c-1.1,0-2-0.9-2-2v-76
		C1662.6,200.4,1663.5,199.5,1664.6,199.5z"/>
</g>
<g>
	
		<linearGradient id="I_63_" gradientUnits="userSpaceOnUse" x1="1400" y1="119.434" x2="1400" y2="39.434" gradientTransform="matrix(1 0 0 -1 302.6 318.7295)">
		<stop  offset="0" style="stop-color:#FFFFFF"/>
		<stop  offset="1" style="stop-color:#FAFBFC"/>
	</linearGradient>
	<path id="I_7_" class="st4" d="M1664.6,199.5h76c1.1,0,2,0.9,2,2v76c0,1.1-0.9,2-2,2h-76c-1.1,0-2-0.9-2-2v-76
		C1662.6,200.4,1663.5,199.5,1664.6,199.5z"/>
</g>
<g>
	<path id="J_3_" class="st1" d="M1665.1,200h75c1.1,0,2,0.9,2,2v75c0,1.1-0.9,2-2,2h-75c-1.1,0-2-0.9-2-2v-75
		C1663.1,200.9,1664,200,1665.1,200z"/>
</g>
<image style="overflow:visible;enable-background:new    ;" width="150" height="147" xlink:href="2C5331E88E823EBB.png"  transform="matrix(0.4072 0 0 0.4072 1672.2516 209.8064)">
</image>
<g>
	<path id="I_8_" d="M1062,100h76c1.1,0,2,0.9,2,2v76c0,1.1-0.9,2-2,2h-76c-1.1,0-2-0.9-2-2v-76C1060,100.9,1060.9,100,1062,100z"/>
</g>
<g>
	
		<linearGradient id="I_64_" gradientUnits="userSpaceOnUse" x1="1400" y1="119.43" x2="1400" y2="39.43" gradientTransform="matrix(1 0 0 -1 -300 219.2295)">
		<stop  offset="0" style="stop-color:#FFFFFF"/>
		<stop  offset="1" style="stop-color:#FAFBFC"/>
	</linearGradient>
	<path id="I_9_" class="st5" d="M1062,100h76c1.1,0,2,0.9,2,2v76c0,1.1-0.9,2-2,2h-76c-1.1,0-2-0.9-2-2v-76
		C1060,100.9,1060.9,100,1062,100z"/>
</g>
<g>
	<path id="J_4_" class="st1" d="M1062.5,100.5h75c1.1,0,2,0.9,2,2v75c0,1.1-0.9,2-2,2h-75c-1.1,0-2-0.9-2-2v-75
		C1060.5,101.4,1061.4,100.5,1062.5,100.5z"/>
</g>
<image style="overflow:visible;enable-background:new    ;" width="73" height="72" xlink:href="2C5331E88E823EB8.png"  transform="matrix(0.8186 0 0 0.83 1070 109.9995)">
</image>
<g>
	<path id="I_10_" d="M1062,200h76c1.1,0,2,0.9,2,2v76c0,1.1-0.9,2-2,2h-76c-1.1,0-2-0.9-2-2v-76C1060,200.9,1060.9,200,1062,200z"/>
</g>
<g>
	
		<linearGradient id="I_65_" gradientUnits="userSpaceOnUse" x1="1400" y1="119.43" x2="1400" y2="39.43" gradientTransform="matrix(1 0 0 -1 -300 319.2295)">
		<stop  offset="0" style="stop-color:#FFFFFF"/>
		<stop  offset="1" style="stop-color:#FAFBFC"/>
	</linearGradient>
	<path id="I_11_" class="st6" d="M1062,200h76c1.1,0,2,0.9,2,2v76c0,1.1-0.9,2-2,2h-76c-1.1,0-2-0.9-2-2v-76
		C1060,200.9,1060.9,200,1062,200z"/>
</g>
<g>
	<path id="J_5_" class="st1" d="M1062.5,200.5h75c1.1,0,2,0.9,2,2v75c0,1.1-0.9,2-2,2h-75c-1.1,0-2-0.9-2-2v-75
		C1060.5,201.4,1061.4,200.5,1062.5,200.5z"/>
</g>
<image style="overflow:visible;enable-background:new    ;" width="145" height="145" xlink:href="2C5331E88E823EC6.png"  transform="matrix(0.4171 0 0 0.4171 1070 209.9995)">
</image>
<g>
	<path id="I_12_" d="M962,160h76c1.1,0,2,0.9,2,2v76c0,1.1-0.9,2-2,2h-76c-1.1,0-2-0.9-2-2v-76C960,160.9,960.9,160,962,160z"/>
</g>
<g>
	
		<linearGradient id="I_66_" gradientUnits="userSpaceOnUse" x1="1400" y1="119.43" x2="1400" y2="39.43" gradientTransform="matrix(1 0 0 -1 -400 279.2295)">
		<stop  offset="0" style="stop-color:#FFFFFF"/>
		<stop  offset="1" style="stop-color:#FAFBFC"/>
	</linearGradient>
	<path id="I_13_" class="st7" d="M962,160h76c1.1,0,2,0.9,2,2v76c0,1.1-0.9,2-2,2h-76c-1.1,0-2-0.9-2-2v-76
		C960,160.9,960.9,160,962,160z"/>
</g>
<g>
	<path id="J_6_" class="st1" d="M962.5,160.5h75c1.1,0,2,0.9,2,2v75c0,1.1-0.9,2-2,2h-75c-1.1,0-2-0.9-2-2v-75
		C960.5,161.4,961.4,160.5,962.5,160.5z"/>
</g>
<image style="overflow:visible;enable-background:new    ;" width="147" height="146" xlink:href="2C5331E88E823EC9.png"  transform="matrix(0.4114 0 0 0.4142 970 169.9995)">
</image>
<g>
	<path id="I_16_" d="M862,100h76c1.1,0,2,0.9,2,2v76c0,1.1-0.9,2-2,2h-76c-1.1,0-2-0.9-2-2v-76C860,100.9,860.9,100,862,100z"/>
</g>
<g>
	
		<linearGradient id="I_67_" gradientUnits="userSpaceOnUse" x1="1400" y1="119.43" x2="1400" y2="39.43" gradientTransform="matrix(1 0 0 -1 -500 219.2295)">
		<stop  offset="0" style="stop-color:#FFFFFF"/>
		<stop  offset="1" style="stop-color:#FAFBFC"/>
	</linearGradient>
	<path id="I_17_" class="st8" d="M862,100h76c1.1,0,2,0.9,2,2v76c0,1.1-0.9,2-2,2h-76c-1.1,0-2-0.9-2-2v-76
		C860,100.9,860.9,100,862,100z"/>
</g>
<g>
	<path id="J_8_" class="st1" d="M862.5,100.5h75c1.1,0,2,0.9,2,2v75c0,1.1-0.9,2-2,2h-75c-1.1,0-2-0.9-2-2v-75
		C860.5,101.4,861.4,100.5,862.5,100.5z"/>
</g>
<image style="overflow:visible;enable-background:new    ;" width="146" height="147" xlink:href="2C5331E88E823ECA.png"  transform="matrix(0.4142 0 0 0.4114 870 109.9995)">
</image>
<g>
	<path id="I_18_" d="M862,200h76c1.1,0,2,0.9,2,2v76c0,1.1-0.9,2-2,2h-76c-1.1,0-2-0.9-2-2v-76C860,200.9,860.9,200,862,200z"/>
</g>
<g>
	
		<linearGradient id="I_68_" gradientUnits="userSpaceOnUse" x1="1400" y1="119.43" x2="1400" y2="39.43" gradientTransform="matrix(1 0 0 -1 -500 319.2295)">
		<stop  offset="0" style="stop-color:#FFFFFF"/>
		<stop  offset="1" style="stop-color:#FAFBFC"/>
	</linearGradient>
	<path id="I_19_" class="st9" d="M862,200h76c1.1,0,2,0.9,2,2v76c0,1.1-0.9,2-2,2h-76c-1.1,0-2-0.9-2-2v-76
		C860,200.9,860.9,200,862,200z"/>
</g>
<g>
	<path id="J_9_" class="st1" d="M862.5,200.5h75c1.1,0,2,0.9,2,2v75c0,1.1-0.9,2-2,2h-75c-1.1,0-2-0.9-2-2v-75
		C860.5,201.4,861.4,200.5,862.5,200.5z"/>
</g>
<image style="overflow:visible;enable-background:new    ;" width="146" height="145" xlink:href="2C5331E88E823EC8.png"  transform="matrix(0.4142 0 0 0.4171 870 209.9995)">
</image>
<g>
	<path id="I_20_" d="M762,160h76c1.1,0,2,0.9,2,2v76c0,1.1-0.9,2-2,2h-76c-1.1,0-2-0.9-2-2v-76C760,160.9,760.9,160,762,160z"/>
</g>
<g>
	
		<linearGradient id="I_69_" gradientUnits="userSpaceOnUse" x1="1400" y1="119.43" x2="1400" y2="39.43" gradientTransform="matrix(1 0 0 -1 -600 279.2295)">
		<stop  offset="0" style="stop-color:#FFFFFF"/>
		<stop  offset="1" style="stop-color:#FAFBFC"/>
	</linearGradient>
	<path id="I_21_" class="st10" d="M762,160h76c1.1,0,2,0.9,2,2v76c0,1.1-0.9,2-2,2h-76c-1.1,0-2-0.9-2-2v-76
		C760,160.9,760.9,160,762,160z"/>
</g>
<g>
	<path id="J_10_" class="st1" d="M762.5,160.5h75c1.1,0,2,0.9,2,2v75c0,1.1-0.9,2-2,2h-75c-1.1,0-2-0.9-2-2v-75
		C760.5,161.4,761.4,160.5,762.5,160.5z"/>
</g>
<image style="overflow:visible;enable-background:new    ;" width="145" height="146" xlink:href="6806369C98D3113D.png"  transform="matrix(0.4171 0 0 0.4142 770 169.9995)">
</image>
<g>
	<path id="I_24_" d="M662,100h76c1.1,0,2,0.9,2,2v76c0,1.1-0.9,2-2,2h-76c-1.1,0-2-0.9-2-2v-76C660,100.9,660.9,100,662,100z"/>
</g>
<g>
	
		<linearGradient id="I_70_" gradientUnits="userSpaceOnUse" x1="1400" y1="119.43" x2="1400" y2="39.43" gradientTransform="matrix(1 0 0 -1 -700 219.2295)">
		<stop  offset="0" style="stop-color:#FFFFFF"/>
		<stop  offset="1" style="stop-color:#FAFBFC"/>
	</linearGradient>
	<path id="I_25_" class="st11" d="M662,100h76c1.1,0,2,0.9,2,2v76c0,1.1-0.9,2-2,2h-76c-1.1,0-2-0.9-2-2v-76
		C660,100.9,660.9,100,662,100z"/>
</g>
<g>
	<path id="J_12_" class="st1" d="M662.5,100.5h75c1.1,0,2,0.9,2,2v75c0,1.1-0.9,2-2,2h-75c-1.1,0-2-0.9-2-2v-75
		C660.5,101.4,661.4,100.5,662.5,100.5z"/>
</g>
<image style="overflow:visible;enable-background:new    ;" width="145" height="147" xlink:href="6806369C98D31133.png"  transform="matrix(0.4171 0 0 0.4114 670 109.9995)">
</image>
<g>
	<path id="I_26_" d="M662,200h76c1.1,0,2,0.9,2,2v76c0,1.1-0.9,2-2,2h-76c-1.1,0-2-0.9-2-2v-76C660,200.9,660.9,200,662,200z"/>
</g>
<g>
	
		<linearGradient id="I_71_" gradientUnits="userSpaceOnUse" x1="1400" y1="119.43" x2="1400" y2="39.43" gradientTransform="matrix(1 0 0 -1 -700 319.2295)">
		<stop  offset="0" style="stop-color:#FFFFFF"/>
		<stop  offset="1" style="stop-color:#FAFBFC"/>
	</linearGradient>
	<path id="I_27_" class="st12" d="M662,200h76c1.1,0,2,0.9,2,2v76c0,1.1-0.9,2-2,2h-76c-1.1,0-2-0.9-2-2v-76
		C660,200.9,660.9,200,662,200z"/>
</g>
<g>
	<path id="J_13_" class="st1" d="M662.5,200.5h75c1.1,0,2,0.9,2,2v75c0,1.1-0.9,2-2,2h-75c-1.1,0-2-0.9-2-2v-75
		C660.5,201.4,661.4,200.5,662.5,200.5z"/>
</g>
<image style="overflow:visible;enable-background:new    ;" width="145" height="145" xlink:href="6806369C98D31135.png"  transform="matrix(0.4171 0 0 0.4171 670 209.9995)">
</image>
<g>
	<path id="I_28_" d="M61.9,100.2h76c1.1,0,2,0.9,2,2v76c0,1.1-0.9,2-2,2h-76c-1.1,0-2-0.9-2-2v-76C59.9,101.1,60.8,100.2,61.9,100.2
		z"/>
</g>
<g>
	
		<linearGradient id="I_72_" gradientUnits="userSpaceOnUse" x1="1400" y1="119.39" x2="1400" y2="39.39" gradientTransform="matrix(1 0 0 -1 -1300.1 219.4295)">
		<stop  offset="0" style="stop-color:#FFFFFF"/>
		<stop  offset="1" style="stop-color:#FAFBFC"/>
	</linearGradient>
	<path id="I_29_" class="st13" d="M61.9,100.2h76c1.1,0,2,0.9,2,2v76c0,1.1-0.9,2-2,2h-76c-1.1,0-2-0.9-2-2v-76
		C59.9,101.1,60.8,100.2,61.9,100.2z"/>
</g>
<g>
	<path id="J_14_" class="st1" d="M62.4,100.7h75c1.1,0,2,0.9,2,2v75c0,1.1-0.9,2-2,2h-75c-1.1,0-2-0.9-2-2v-75
		C60.4,101.6,61.3,100.7,62.4,100.7z"/>
</g>
<image style="overflow:visible;enable-background:new    ;" width="149" height="147" xlink:href="6806369C98D31137.png"  transform="matrix(0.41 0 0 0.4072 69.6233 110.5472)">
</image>
<g>
	<path id="I_30_" d="M462,100h76c1.1,0,2,0.9,2,2v76c0,1.1-0.9,2-2,2h-76c-1.1,0-2-0.9-2-2v-76C460,100.9,460.9,100,462,100z"/>
</g>
<g>
	
		<linearGradient id="I_73_" gradientUnits="userSpaceOnUse" x1="1400" y1="119.43" x2="1400" y2="39.43" gradientTransform="matrix(1 0 0 -1 -900 219.2295)">
		<stop  offset="0" style="stop-color:#FFFFFF"/>
		<stop  offset="1" style="stop-color:#FAFBFC"/>
	</linearGradient>
	<path id="I_31_" class="st14" d="M462,100h76c1.1,0,2,0.9,2,2v76c0,1.1-0.9,2-2,2h-76c-1.1,0-2-0.9-2-2v-76
		C460,100.9,460.9,100,462,100z"/>
</g>
<g>
	<path id="J_15_" class="st1" d="M462.5,100.5h75c1.1,0,2,0.9,2,2v75c0,1.1-0.9,2-2,2h-75c-1.1,0-2-0.9-2-2v-75
		C460.5,101.4,461.4,100.5,462.5,100.5z"/>
</g>
<image style="overflow:visible;enable-background:new    ;" width="146" height="147" xlink:href="6806369C98D31134.png"  transform="matrix(0.4142 0 0 0.4114 470 109.9995)">
</image>
<g>
	<path id="I_32_" d="M462,200h76c1.1,0,2,0.9,2,2v76c0,1.1-0.9,2-2,2h-76c-1.1,0-2-0.9-2-2v-76C460,200.9,460.9,200,462,200z"/>
</g>
<g>
	
		<linearGradient id="I_74_" gradientUnits="userSpaceOnUse" x1="1400" y1="119.43" x2="1400" y2="39.43" gradientTransform="matrix(1 0 0 -1 -900 319.2295)">
		<stop  offset="0" style="stop-color:#FFFFFF"/>
		<stop  offset="1" style="stop-color:#FAFBFC"/>
	</linearGradient>
	<path id="I_33_" class="st15" d="M462,200h76c1.1,0,2,0.9,2,2v76c0,1.1-0.9,2-2,2h-76c-1.1,0-2-0.9-2-2v-76
		C460,200.9,460.9,200,462,200z"/>
</g>
<g>
	<path id="J_16_" class="st1" d="M462.5,200.5h75c1.1,0,2,0.9,2,2v75c0,1.1-0.9,2-2,2h-75c-1.1,0-2-0.9-2-2v-75
		C460.5,201.4,461.4,200.5,462.5,200.5z"/>
</g>
<image style="overflow:visible;enable-background:new    ;" width="72" height="74" xlink:href="6806369C98D3112C.png"  transform="matrix(0.83 0 0 0.8076 470 209.9995)">
</image>
<g>
	<path id="K" d="M362,60h76c1.1,0,2,0.9,2,2v76c0,1.1-0.9,2-2,2h-76c-1.1,0-2-0.9-2-2V62C360,60.9,360.9,60,362,60z"/>
</g>
<g>
	
		<linearGradient id="K_6_" gradientUnits="userSpaceOnUse" x1="400" y1="199.43" x2="400" y2="119.43" gradientTransform="matrix(1 0 0 -1 0 259.2295)">
		<stop  offset="0" style="stop-color:#FFFFFF"/>
		<stop  offset="1" style="stop-color:#FAFBFC"/>
	</linearGradient>
	<path id="K_1_" class="st18" d="M362,60h76c1.1,0,2,0.9,2,2v76c0,1.1-0.9,2-2,2h-76c-1.1,0-2-0.9-2-2V62C360,60.9,360.9,60,362,60z
		"/>
</g>
<g>
	<path id="J_17_" class="st1" d="M362.5,60.5h75c1.1,0,2,0.9,2,2v75c0,1.1-0.9,2-2,2h-75c-1.1,0-2-0.9-2-2v-75
		C360.5,61.4,361.4,60.5,362.5,60.5z"/>
</g>
<image style="overflow:visible;enable-background:new    ;" width="146" height="146" xlink:href="6806369C98D3112D.png"  transform="matrix(0.4142 0 0 0.4142 370 69.9995)">
</image>
<g>
	<path id="I_34_" d="M362,160h76c1.1,0,2,0.9,2,2v76c0,1.1-0.9,2-2,2h-76c-1.1,0-2-0.9-2-2v-76C360,160.9,360.9,160,362,160z"/>
</g>
<g>
	
		<linearGradient id="I_75_" gradientUnits="userSpaceOnUse" x1="1400" y1="119.43" x2="1400" y2="39.43" gradientTransform="matrix(1 0 0 -1 -1000 279.2295)">
		<stop  offset="0" style="stop-color:#FFFFFF"/>
		<stop  offset="1" style="stop-color:#FAFBFC"/>
	</linearGradient>
	<path id="I_35_" class="st16" d="M362,160h76c1.1,0,2,0.9,2,2v76c0,1.1-0.9,2-2,2h-76c-1.1,0-2-0.9-2-2v-76
		C360,160.9,360.9,160,362,160z"/>
</g>
<g>
	<path id="J_18_" class="st1" d="M362.5,160.5h75c1.1,0,2,0.9,2,2v75c0,1.1-0.9,2-2,2h-75c-1.1,0-2-0.9-2-2v-75
		C360.5,161.4,361.4,160.5,362.5,160.5z"/>
</g>
<image style="overflow:visible;enable-background:new    ;" width="126" height="146" xlink:href="6806369C98D3112F.png"  transform="matrix(0.4167 0 0 0.4142 374 169.9995)">
</image>
<g>
	<path id="I_36_" d="M62.2,199.5h76c1.1,0,2,0.9,2,2v76c0,1.1-0.9,2-2,2h-76c-1.1,0-2-0.9-2-2v-76C60.2,200.4,61.1,199.5,62.2,199.5
		z"/>
</g>
<g>
	
		<linearGradient id="I_76_" gradientUnits="userSpaceOnUse" x1="1400" y1="119.434" x2="1400" y2="39.434" gradientTransform="matrix(1 0 0 -1 -1299.8 318.7295)">
		<stop  offset="0" style="stop-color:#FFFFFF"/>
		<stop  offset="1" style="stop-color:#FAFBFC"/>
	</linearGradient>
	<path id="I_37_" class="st17" d="M62.2,199.5h76c1.1,0,2,0.9,2,2v76c0,1.1-0.9,2-2,2h-76c-1.1,0-2-0.9-2-2v-76
		C60.2,200.4,61.1,199.5,62.2,199.5z"/>
</g>
<g>
	<path id="J_19_" class="st1" d="M62.7,200h75c1.1,0,2,0.9,2,2v75c0,1.1-0.9,2-2,2h-75c-1.1,0-2-0.9-2-2v-75
		C60.7,200.9,61.6,200,62.7,200z"/>
</g>
<image style="overflow:visible;enable-background:new    ;" width="147" height="147" xlink:href="6806369C98D3112B.png"  transform="matrix(0.4114 0 0 0.4114 70.1721 209.4995)">
</image>
<g>
	<path id="K_2_" d="M162,60h76c1.1,0,2,0.9,2,2v76c0,1.1-0.9,2-2,2h-76c-1.1,0-2-0.9-2-2V62C160,60.9,160.9,60,162,60z"/>
</g>
<g>
	
		<linearGradient id="K_7_" gradientUnits="userSpaceOnUse" x1="400" y1="199.43" x2="400" y2="119.43" gradientTransform="matrix(1 0 0 -1 -200 259.2295)">
		<stop  offset="0" style="stop-color:#FFFFFF"/>
		<stop  offset="1" style="stop-color:#FAFBFC"/>
	</linearGradient>
	<path id="K_3_" class="st21" d="M162,60h76c1.1,0,2,0.9,2,2v76c0,1.1-0.9,2-2,2h-76c-1.1,0-2-0.9-2-2V62C160,60.9,160.9,60,162,60z
		"/>
</g>
<g>
	<path id="J_20_" class="st1" d="M162.5,60.5h75c1.1,0,2,0.9,2,2v75c0,1.1-0.9,2-2,2h-75c-1.1,0-2-0.9-2-2v-75
		C160.5,61.4,161.4,60.5,162.5,60.5z"/>
</g>
<image style="overflow:visible;enable-background:new    ;" width="74" height="72" xlink:href="6806369C98D31153.png"  transform="matrix(0.8076 0 0 0.83 170 69.9995)">
</image>
<g>
	<path id="K_4_" d="M1562,60h76c1.1,0,2,0.9,2,2v76c0,1.1-0.9,2-2,2h-76c-1.1,0-2-0.9-2-2V62C1560,60.9,1560.9,60,1562,60z"/>
</g>
<g>
	
		<linearGradient id="K_8_" gradientUnits="userSpaceOnUse" x1="400" y1="199.43" x2="400" y2="119.43" gradientTransform="matrix(1 0 0 -1 1200 259.2295)">
		<stop  offset="0" style="stop-color:#FFFFFF"/>
		<stop  offset="1" style="stop-color:#FAFBFC"/>
	</linearGradient>
	<path id="K_5_" class="st23" d="M1562,60h76c1.1,0,2,0.9,2,2v76c0,1.1-0.9,2-2,2h-76c-1.1,0-2-0.9-2-2V62
		C1560,60.9,1560.9,60,1562,60z"/>
</g>
<g>
	<path id="J_22_" class="st1" d="M1562.5,60.5h75c1.1,0,2,0.9,2,2v75c0,1.1-0.9,2-2,2h-75c-1.1,0-2-0.9-2-2v-75
		C1560.5,61.4,1561.4,60.5,1562.5,60.5z"/>
</g>
<image style="overflow:visible;enable-background:new    ;" width="73" height="72" xlink:href="6806369C98D31148.png"  transform="matrix(0.8186 0 0 0.83 1570 69.9995)">
</image>
<g>
	<path id="I_40_" d="M1462,100h76c1.1,0,2,0.9,2,2v76c0,1.1-0.9,2-2,2h-76c-1.1,0-2-0.9-2-2v-76C1460,100.9,1460.9,100,1462,100z"/>
</g>
<g>
	
		<linearGradient id="I_77_" gradientUnits="userSpaceOnUse" x1="1400" y1="119.43" x2="1400" y2="39.43" gradientTransform="matrix(1 0 0 -1 100 219.2295)">
		<stop  offset="0" style="stop-color:#FFFFFF"/>
		<stop  offset="1" style="stop-color:#FAFBFC"/>
	</linearGradient>
	<path id="I_41_" class="st19" d="M1462,100h76c1.1,0,2,0.9,2,2v76c0,1.1-0.9,2-2,2h-76c-1.1,0-2-0.9-2-2v-76
		C1460,100.9,1460.9,100,1462,100z"/>
</g>
<g>
	<path id="J_23_" class="st1" d="M1462.5,100.5h75c1.1,0,2,0.9,2,2v75c0,1.1-0.9,2-2,2h-75c-1.1,0-2-0.9-2-2v-75
		C1460.5,101.4,1461.4,100.5,1462.5,100.5z"/>
</g>
<image style="overflow:visible;enable-background:new    ;" width="145" height="147" xlink:href="6806369C98D3114B.png"  transform="matrix(0.4171 0 0 0.4114 1470 109.9995)">
</image>
<g>
	<path id="I_42_" d="M1562,160h76c1.1,0,2,0.9,2,2v76c0,1.1-0.9,2-2,2h-76c-1.1,0-2-0.9-2-2v-76C1560,160.9,1560.9,160,1562,160z"/>
</g>
<g>
	
		<linearGradient id="I_78_" gradientUnits="userSpaceOnUse" x1="1400" y1="119.43" x2="1400" y2="39.43" gradientTransform="matrix(1 0 0 -1 200 279.2295)">
		<stop  offset="0" style="stop-color:#FFFFFF"/>
		<stop  offset="1" style="stop-color:#FAFBFC"/>
	</linearGradient>
	<path id="I_43_" class="st20" d="M1562,160h76c1.1,0,2,0.9,2,2v76c0,1.1-0.9,2-2,2h-76c-1.1,0-2-0.9-2-2v-76
		C1560,160.9,1560.9,160,1562,160z"/>
</g>
<g>
	<path id="J_24_" class="st1" d="M1562.5,160.5h75c1.1,0,2,0.9,2,2v75c0,1.1-0.9,2-2,2h-75c-1.1,0-2-0.9-2-2v-75
		C1560.5,161.4,1561.4,160.5,1562.5,160.5z"/>
</g>
<image style="overflow:visible;enable-background:new    ;" width="146" height="146" xlink:href="6806369C98D31149.png"  transform="matrix(0.4142 0 0 0.4142 1570 169.9995)">
</image>
<g>
	<path id="I_44_" d="M1664.1,100.5h76c1.1,0,2,0.9,2,2v76c0,1.1-0.9,2-2,2h-76c-1.1,0-2-0.9-2-2v-76
		C1662.1,101.4,1663,100.5,1664.1,100.5z"/>
</g>
<g>
	
		<linearGradient id="I_79_" gradientUnits="userSpaceOnUse" x1="1400" y1="119.434" x2="1400" y2="39.434" gradientTransform="matrix(1 0 0 -1 302.1 219.7295)">
		<stop  offset="0" style="stop-color:#FFFFFF"/>
		<stop  offset="1" style="stop-color:#FAFBFC"/>
	</linearGradient>
	<path id="I_45_" class="st22" d="M1664.1,100.5h76c1.1,0,2,0.9,2,2v76c0,1.1-0.9,2-2,2h-76c-1.1,0-2-0.9-2-2v-76
		C1662.1,101.4,1663,100.5,1664.1,100.5z"/>
</g>
<g>
	<path id="J_25_" class="st1" d="M1664.6,101h75c1.1,0,2,0.9,2,2v75c0,1.1-0.9,2-2,2h-75c-1.1,0-2-0.9-2-2v-75
		C1662.6,101.9,1663.5,101,1664.6,101z"/>
</g>
<image style="overflow:visible;enable-background:new    ;" width="147" height="147" xlink:href="6806369C98D31147.png"  transform="matrix(0.4114 0 0 0.4114 1672.0554 110.4995)">
</image>
<g>
	<path id="I_46_" d="M1462,200h76c1.1,0,2,0.9,2,2v76c0,1.1-0.9,2-2,2h-76c-1.1,0-2-0.9-2-2v-76C1460,200.9,1460.9,200,1462,200z"/>
</g>
<g>
	
		<linearGradient id="I_80_" gradientUnits="userSpaceOnUse" x1="1400" y1="119.43" x2="1400" y2="39.43" gradientTransform="matrix(1 0 0 -1 100 319.2295)">
		<stop  offset="0" style="stop-color:#FFFFFF"/>
		<stop  offset="1" style="stop-color:#FAFBFC"/>
	</linearGradient>
	<path id="I_47_" class="st24" d="M1462,200h76c1.1,0,2,0.9,2,2v76c0,1.1-0.9,2-2,2h-76c-1.1,0-2-0.9-2-2v-76
		C1460,200.9,1460.9,200,1462,200z"/>
</g>
<g>
	<path id="J_26_" class="st1" d="M1462.5,200.5h75c1.1,0,2,0.9,2,2v75c0,1.1-0.9,2-2,2h-75c-1.1,0-2-0.9-2-2v-75
		C1460.5,201.4,1461.4,200.5,1462.5,200.5z"/>
</g>
<image style="overflow:visible;enable-background:new    ;" width="145" height="145" xlink:href="6806369C98D31178.png"  transform="matrix(0.4171 0 0 0.4171 1470 209.9995)">
</image>
<g>
	<path id="I_48_" d="M1262,100h76c1.1,0,2,0.9,2,2v76c0,1.1-0.9,2-2,2h-76c-1.1,0-2-0.9-2-2v-76C1260,100.9,1260.9,100,1262,100z"/>
</g>
<g>
	
		<linearGradient id="I_81_" gradientUnits="userSpaceOnUse" x1="1400" y1="119.43" x2="1400" y2="39.43" gradientTransform="matrix(1 0 0 -1 -100 219.2295)">
		<stop  offset="0" style="stop-color:#FFFFFF"/>
		<stop  offset="1" style="stop-color:#FAFBFC"/>
	</linearGradient>
	<path id="I_49_" class="st25" d="M1262,100h76c1.1,0,2,0.9,2,2v76c0,1.1-0.9,2-2,2h-76c-1.1,0-2-0.9-2-2v-76
		C1260,100.9,1260.9,100,1262,100z"/>
</g>
<g>
	<path id="J_27_" class="st1" d="M1262.5,100.5h75c1.1,0,2,0.9,2,2v75c0,1.1-0.9,2-2,2h-75c-1.1,0-2-0.9-2-2v-75
		C1260.5,101.4,1261.4,100.5,1262.5,100.5z"/>
</g>
<image style="overflow:visible;enable-background:new    ;" width="146" height="146" xlink:href="6806369C98D3117B.png"  transform="matrix(0.3847 0 0 0.3847 1272 111.9995)">
</image>
<g>
	<path id="L" d="M1362,40h76c1.1,0,2,0.9,2,2v76c0,1.1-0.9,2-2,2h-76c-1.1,0-2-0.9-2-2V42C1360,40.9,1360.9,40,1362,40z"/>
</g>
<g>
	
		<linearGradient id="L_2_" gradientUnits="userSpaceOnUse" x1="1400" y1="219.43" x2="1400" y2="139.43" gradientTransform="matrix(1 0 0 -1 0 259.2295)">
		<stop  offset="0" style="stop-color:#FFFFFF"/>
		<stop  offset="1" style="stop-color:#FAFBFC"/>
	</linearGradient>
	<path id="L_1_" class="st29" d="M1362,40h76c1.1,0,2,0.9,2,2v76c0,1.1-0.9,2-2,2h-76c-1.1,0-2-0.9-2-2V42
		C1360,40.9,1360.9,40,1362,40z"/>
</g>
<g>
	<path id="J_28_" class="st1" d="M1362.5,40.5h75c1.1,0,2,0.9,2,2v75c0,1.1-0.9,2-2,2h-75c-1.1,0-2-0.9-2-2v-75
		C1360.5,41.4,1361.4,40.5,1362.5,40.5z"/>
</g>
<image style="overflow:visible;enable-background:new    ;" width="72" height="73" xlink:href="6806369C98D31179.png"  transform="matrix(0.83 0 0 0.8186 1370 49.9995)">
</image>
<g>
	<path id="M" d="M1462,0h76c1.1,0,2,0.9,2,2v76c0,1.1-0.9,2-2,2h-76c-1.1,0-2-0.9-2-2V2C1460,0.9,1460.9,0,1462,0z"/>
</g>
<g>
	
		<linearGradient id="M_2_" gradientUnits="userSpaceOnUse" x1="1500" y1="259.43" x2="1500" y2="179.43" gradientTransform="matrix(1 0 0 -1 0 259.2295)">
		<stop  offset="0" style="stop-color:#FFFFFF"/>
		<stop  offset="1" style="stop-color:#FAFBFC"/>
	</linearGradient>
	<path id="M_1_" class="st30" d="M1462,0h76c1.1,0,2,0.9,2,2v76c0,1.1-0.9,2-2,2h-76c-1.1,0-2-0.9-2-2V2C1460,0.9,1460.9,0,1462,0z"
		/>
</g>
<g>
	<path id="J_29_" class="st1" d="M1462.5,0.5h75c1.1,0,2,0.9,2,2v75c0,1.1-0.9,2-2,2h-75c-1.1,0-2-0.9-2-2v-75
		C1460.5,1.4,1461.4,0.5,1462.5,0.5z"/>
</g>
<image style="overflow:visible;enable-background:new    ;" width="145" height="146" xlink:href="6806369C98D3117F.png"  transform="matrix(0.4171 0 0 0.4142 1470 9.9995)">
</image>
<g>
	<path id="I_50_" d="M1262,200h76c1.1,0,2,0.9,2,2v76c0,1.1-0.9,2-2,2h-76c-1.1,0-2-0.9-2-2v-76C1260,200.9,1260.9,200,1262,200z"/>
</g>
<g>
	
		<linearGradient id="I_82_" gradientUnits="userSpaceOnUse" x1="1400" y1="119.43" x2="1400" y2="39.43" gradientTransform="matrix(1 0 0 -1 -100 319.2295)">
		<stop  offset="0" style="stop-color:#FFFFFF"/>
		<stop  offset="1" style="stop-color:#FAFBFC"/>
	</linearGradient>
	<path id="I_51_" class="st26" d="M1262,200h76c1.1,0,2,0.9,2,2v76c0,1.1-0.9,2-2,2h-76c-1.1,0-2-0.9-2-2v-76
		C1260,200.9,1260.9,200,1262,200z"/>
</g>
<g>
	<path id="J_30_" class="st1" d="M1262.5,200.5h75c1.1,0,2,0.9,2,2v75c0,1.1-0.9,2-2,2h-75c-1.1,0-2-0.9-2-2v-75
		C1260.5,201.4,1261.4,200.5,1262.5,200.5z"/>
</g>
<image style="overflow:visible;enable-background:new    ;" width="73" height="74" xlink:href="6806369C98D3117A.png"  transform="matrix(0.8186 0 0 0.8076 1270 209.9995)">
</image>
<g>
	<path id="I_52_" d="M162,160h76c1.1,0,2,0.9,2,2v76c0,1.1-0.9,2-2,2h-76c-1.1,0-2-0.9-2-2v-76C160,160.9,160.9,160,162,160z"/>
</g>
<g>
	
		<linearGradient id="I_83_" gradientUnits="userSpaceOnUse" x1="1400" y1="119.43" x2="1400" y2="39.43" gradientTransform="matrix(1 0 0 -1 -1200 279.2295)">
		<stop  offset="0" style="stop-color:#FFFFFF"/>
		<stop  offset="1" style="stop-color:#FAFBFC"/>
	</linearGradient>
	<path id="I_53_" class="st27" d="M162,160h76c1.1,0,2,0.9,2,2v76c0,1.1-0.9,2-2,2h-76c-1.1,0-2-0.9-2-2v-76
		C160,160.9,160.9,160,162,160z"/>
</g>
<g>
	<path id="J_31_" class="st1" d="M162.5,160.5h75c1.1,0,2,0.9,2,2v75c0,1.1-0.9,2-2,2h-75c-1.1,0-2-0.9-2-2v-75
		C160.5,161.4,161.4,160.5,162.5,160.5z"/>
</g>
<image style="overflow:visible;enable-background:new    ;" width="146" height="146" xlink:href="6806369C98D31145.png"  transform="matrix(0.4142 0 0 0.4142 170 169.9995)">
</image>
<g>
	<path id="I_54_" d="M262,100h76c1.1,0,2,0.9,2,2v76c0,1.1-0.9,2-2,2h-76c-1.1,0-2-0.9-2-2v-76C260,100.9,260.9,100,262,100z"/>
</g>
<g>
	
		<linearGradient id="I_84_" gradientUnits="userSpaceOnUse" x1="1400" y1="119.43" x2="1400" y2="39.43" gradientTransform="matrix(1 0 0 -1 -1100 219.2295)">
		<stop  offset="0" style="stop-color:#FFFFFF"/>
		<stop  offset="1" style="stop-color:#FAFBFC"/>
	</linearGradient>
	<path id="I_55_" class="st28" d="M262,100h76c1.1,0,2,0.9,2,2v76c0,1.1-0.9,2-2,2h-76c-1.1,0-2-0.9-2-2v-76
		C260,100.9,260.9,100,262,100z"/>
</g>
<g>
	<path id="J_32_" class="st1" d="M262.5,100.5h75c1.1,0,2,0.9,2,2v75c0,1.1-0.9,2-2,2h-75c-1.1,0-2-0.9-2-2v-75
		C260.5,101.4,261.4,100.5,262.5,100.5z"/>
</g>
<image style="overflow:visible;enable-background:new    ;" width="147" height="147" xlink:href="6806369C98D3119F.png"  transform="matrix(0.4114 0 0 0.4114 270 109.9995)">
</image>
<g>
	<path id="I_56_" d="M262,200h76c1.1,0,2,0.9,2,2v76c0,1.1-0.9,2-2,2h-76c-1.1,0-2-0.9-2-2v-76C260,200.9,260.9,200,262,200z"/>
</g>
<g>
	
		<linearGradient id="I_85_" gradientUnits="userSpaceOnUse" x1="1400" y1="119.43" x2="1400" y2="39.43" gradientTransform="matrix(1 0 0 -1 -1100 319.2295)">
		<stop  offset="0" style="stop-color:#FFFFFF"/>
		<stop  offset="1" style="stop-color:#FAFBFC"/>
	</linearGradient>
	<path id="I_57_" class="st31" d="M262,200h76c1.1,0,2,0.9,2,2v76c0,1.1-0.9,2-2,2h-76c-1.1,0-2-0.9-2-2v-76
		C260,200.9,260.9,200,262,200z"/>
</g>
<g>
	<path id="J_33_" class="st1" d="M262.5,200.5h75c1.1,0,2,0.9,2,2v75c0,1.1-0.9,2-2,2h-75c-1.1,0-2-0.9-2-2v-75
		C260.5,201.4,261.4,200.5,262.5,200.5z"/>
</g>
<image style="overflow:visible;enable-background:new    ;" width="147" height="145" xlink:href="6806369C98D3119D.png"  transform="matrix(0.4114 0 0 0.4171 270 209.9995)">
</image>
<g>
	<path id="I_58_" d="M562.2,160.5h76c1.1,0,2,0.9,2,2v76c0,1.1-0.9,2-2,2h-76c-1.1,0-2-0.9-2-2v-76
		C560.2,161.4,561.1,160.5,562.2,160.5z"/>
</g>
<g>
	
		<linearGradient id="I_86_" gradientUnits="userSpaceOnUse" x1="1400" y1="119.434" x2="1400" y2="39.434" gradientTransform="matrix(1 0 0 -1 -799.8 279.7295)">
		<stop  offset="0" style="stop-color:#FFFFFF"/>
		<stop  offset="1" style="stop-color:#FAFBFC"/>
	</linearGradient>
	<path id="I_59_" class="st32" d="M562.2,160.5h76c1.1,0,2,0.9,2,2v76c0,1.1-0.9,2-2,2h-76c-1.1,0-2-0.9-2-2v-76
		C560.2,161.4,561.1,160.5,562.2,160.5z"/>
</g>
<g>
	<path id="J_34_" class="st1" d="M562.7,161h75c1.1,0,2,0.9,2,2v75c0,1.1-0.9,2-2,2h-75c-1.1,0-2-0.9-2-2v-75
		C560.7,161.9,561.6,161,562.7,161z"/>
</g>
<image style="overflow:visible;enable-background:new    ;" width="147" height="149" xlink:href="6806369C98D311A3.png"  transform="matrix(0.41 0 0 0.4072 570.1013 169.9)">
</image>
</svg>
