<?xml version="1.0" encoding="utf-8"?>
<!-- Generator: Adobe Illustrator 20.0.0, SVG Export Plug-In . SVG Version: 6.00 Build 0)  -->
<svg version="1.1" id="Layer_1" xmlns="http://www.w3.org/2000/svg" xmlns:xlink="http://www.w3.org/1999/xlink" x="0px" y="0px"
	 viewBox="0 0 2400 680" style="enable-background:new 0 0 2400 680;" xml:space="preserve">
<style type="text/css">
	.st0{fill:#32BCFF;}
	.st1{fill:#003E73;}
	.st2{fill:#0A75D8;}
	.st3{fill:#4CA5FF;}
	.st4{fill:#3A8CF9;}
	.st5{fill:#002B6A;}
	.st6{fill:#0034E4;}
	.st7{opacity:0.4;fill:#3A8CF9;}
	.st8{opacity:0.4;fill:#0034E4;}
	.st9{opacity:0.4;fill:#32BCFF;}
	.st10{opacity:0.4;fill:#003E73;}
	.st11{opacity:0.1;fill:#003E73;}
	.st12{opacity:0.1;fill:#0034E4;}
	.st13{opacity:0.1;fill:#002B6A;}
	.st14{opacity:0.1;fill:#0A75D8;}
	.st15{opacity:0.15;fill:#002B6A;}
	.st16{opacity:0.15;fill:#32BCFF;}
	.st17{opacity:0.15;fill:#0034E4;}
	.st18{opacity:0.4;fill:#002B6A;}
	.st19{opacity:0.4;fill:#000C42;}
	.st20{opacity:0.4;fill:#4CA5FF;}
	.st21{fill:none;stroke:#4CA5FF;stroke-miterlimit:10;}
	.st22{fill:none;stroke:#001A48;stroke-miterlimit:10;}
	.st23{opacity:0.15;fill:#0A75D8;}
	.st24{opacity:6.000000e-02;fill:#002B6A;}
	.st25{opacity:6.000000e-02;fill:#003E73;}
	.st26{fill:#000C42;}
	.st27{opacity:0.1;fill:#000C42;}
	.st28{opacity:0.1;fill:#32BCFF;}
	.st29{opacity:0.4;fill:none;stroke:#4CA5FF;stroke-miterlimit:10;}
	.st30{opacity:0.4;fill:#32BCFF;stroke:#093C62;stroke-miterlimit:10;}
	.st31{opacity:0.2;fill:#000C42;}
	.st32{opacity:6.000000e-02;fill:#32BCFF;}
	.st33{opacity:6.000000e-02;fill:#000C42;}
	.st34{opacity:6.000000e-02;fill:#0034E4;}
	.st35{opacity:0.2;fill:#0034E4;}
	.st36{opacity:0.2;fill:#0A75D8;}
	.st37{opacity:0.2;fill:#4CA5FF;}
	.st38{opacity:0.2;fill:#002B6A;}
	.st39{fill:#0034E4;stroke:#044D76;stroke-miterlimit:10;}
	.st40{opacity:0.1;fill:#4CA5FF;}
	.st41{opacity:6.000000e-02;fill:#4CA5FF;}
	.st42{opacity:0.2;fill:#3A8CF9;}
	.st43{opacity:0.2;fill:#003E73;}
	.st44{opacity:0.2;fill:#32BCFF;}
	.st45{opacity:6.000000e-02;fill:#0A75D8;}
	.st46{fill:#002B6A;stroke:#01618B;stroke-miterlimit:10;}
	.st47{opacity:0.2;fill:#4CA5FF;stroke:#044E7C;stroke-miterlimit:10;}
	.st48{opacity:6.000000e-02;fill:#3A8CF9;}
	.st49{fill:none;stroke:#003E73;stroke-miterlimit:10;}
	.st50{fill:#4CA5FF;stroke:#01547A;stroke-miterlimit:10;}
	.st51{opacity:5.000000e-02;fill:#000C42;}
	.st52{opacity:5.000000e-02;fill:#003E73;}
	.st53{opacity:5.000000e-02;fill:#0A75D8;}
	.st54{opacity:0.2;fill:none;stroke:#003E73;stroke-miterlimit:10;}
	.st55{opacity:0.3;fill:#003E73;}
	.st56{opacity:0.3;fill:#000C42;}
	.st57{opacity:0.3;fill:#4CA5FF;}
	.st58{opacity:0.3;fill:#0034E4;}
	.st59{opacity:0.3;fill:#0A75D8;}
	.st60{opacity:0.25;fill:#0034E4;}
	.st61{opacity:0.25;fill:#32BCFF;}
	.st62{opacity:0.3;fill:#3A8CF9;}
	.st63{opacity:0.3;fill:#32BCFF;}
	.st64{opacity:0.3;fill:#002B6A;}
	.st65{opacity:0.25;fill:#003E73;}
	.st66{opacity:0.25;fill:#002B6A;}
	.st67{opacity:0.5;fill:#0034E4;}
	.st68{opacity:0.5;fill:#32BCFF;}
	.st69{opacity:0.5;fill:none;stroke:#003E73;stroke-miterlimit:10;}
	.st70{opacity:0.5;fill:#003E73;}
	.st71{opacity:0.5;fill:#4CA5FF;}
	.st72{opacity:0.5;fill:#002B6A;stroke:#045686;stroke-miterlimit:10;}
	.st73{opacity:0;fill:#4CA5FF;}
	.st74{opacity:0;fill:#0034E4;}
	.st75{opacity:0;fill:#3A8CF9;}
	.st76{opacity:0;fill:#0A75D8;}
	.st77{fill:#0034E4;stroke:#00537B;stroke-miterlimit:10;}
	.st78{opacity:0.5;fill:#0A75D8;}
	.st79{opacity:0.5;fill:none;stroke:#001A48;stroke-miterlimit:10;}
	.st80{opacity:0.5;fill:#002B6A;}
	.st81{opacity:5.000000e-02;fill:#4CA5FF;}
	.st82{opacity:5.000000e-02;fill:#32BCFF;}
	.st83{opacity:5.000000e-02;fill:#0034E4;}
	.st84{opacity:0.1;fill:#3A8CF9;}
	.st85{opacity:0.1;fill:#0034E4;stroke:#044B7B;stroke-miterlimit:10;}
	.st86{opacity:0.15;fill:#3A8CF9;stroke:#025B8E;stroke-miterlimit:10;}
	.st87{opacity:0.15;fill:#002B6A;stroke:#02588C;stroke-miterlimit:10;}
	.st88{opacity:5.000000e-02;fill:#3A8CF9;}
	.st89{opacity:5.000000e-02;fill:#002B6A;}
	.st90{opacity:5.000000e-02;fill:#0034E4;stroke:#04497A;stroke-miterlimit:10;}
	.st91{opacity:0.15;fill:#003E73;stroke:#02568A;stroke-miterlimit:10;}
	.st92{opacity:5.000000e-02;fill:#002B6A;stroke:#034C7F;stroke-miterlimit:10;}
	.st93{opacity:0;fill:#003E73;}
	.st94{opacity:0;fill:#002B6A;}
	.st95{opacity:0;fill:#32BCFF;}
	.st96{opacity:0.6;fill:none;stroke:#000C42;stroke-miterlimit:10;}
	.st97{opacity:0.6;fill:none;stroke:#0034E4;stroke-miterlimit:10;}
	.st98{opacity:0.15;fill:#3A8CF9;}
	.st99{fill:#0034E4;stroke:#025182;stroke-miterlimit:10;}
	.st100{fill:#32BCFF;stroke:#025083;stroke-miterlimit:10;}
	.st101{opacity:0.15;fill:#4CA5FF;}
	.st102{fill:#003E73;stroke:#033C62;stroke-miterlimit:10;}
	.st103{fill:#000C42;stroke:#094B79;stroke-miterlimit:10;}
	.st104{opacity:0.6;fill:none;stroke:#32BCFF;stroke-miterlimit:10;}
	.st105{fill:#003E73;stroke:#03406C;stroke-miterlimit:10;}
	.st106{fill:#0034E4;stroke:#044172;stroke-miterlimit:10;}
	.st107{opacity:0;fill:#000C42;}
	.st108{fill:#0A75D8;stroke:#09406C;stroke-miterlimit:10;}
	.st109{opacity:0.55;fill:#000C42;}
	.st110{opacity:0.55;fill:#32BCFF;}
	.st111{opacity:0.55;fill:#0034E4;}
	.st112{opacity:0.55;fill:#4CA5FF;}
	.st113{opacity:0.55;fill:#3A8CF9;}
	.st114{fill:#32BCFF;stroke:#073D68;stroke-miterlimit:10;}
	.st115{opacity:0.2;fill:#32BCFF;stroke:#033866;stroke-miterlimit:10;}
	.st116{opacity:0.6;fill:none;stroke:#003E73;stroke-miterlimit:10;}
	.st117{opacity:0.55;fill:#0A75D8;}
	.st118{opacity:0.55;fill:#003E73;}
	.st119{opacity:0.2;fill:#4CA5FF;stroke:#1D4363;stroke-miterlimit:10;}
	.st120{fill:#32BCFF;stroke:#03233C;stroke-miterlimit:10;}
	.st121{opacity:0.25;fill:#0A75D8;}
	.st122{opacity:0.25;fill:#4CA5FF;stroke:#083864;stroke-miterlimit:10;}
	.st123{opacity:0.25;fill:#000C42;}
	.st124{opacity:5.000000e-02;fill:#3A8CF9;stroke:#062955;stroke-miterlimit:10;}
	.st125{opacity:0.2;fill:#32BCFF;stroke:#0F3661;stroke-miterlimit:10;}
	.st126{fill:none;stroke:#32BCFF;stroke-miterlimit:10;}
	.st127{opacity:0.2;fill:#32BCFF;stroke:#093059;stroke-miterlimit:10;}
	.st128{opacity:0.25;fill:#4CA5FF;}
	.st129{opacity:0.25;fill:#002B6A;stroke:#072850;stroke-miterlimit:10;}
	.st130{fill:#4CA5FF;stroke:#083152;stroke-miterlimit:10;}
	.st131{fill:#003E73;stroke:#08294D;stroke-miterlimit:10;}
	.st132{fill:#0A75D8;stroke:#08264B;stroke-miterlimit:10;}
	.st133{opacity:0.1;fill:none;stroke:#0034E4;stroke-miterlimit:10;}
	.st134{fill:#003E73;stroke:#031934;stroke-miterlimit:10;}
	.st135{fill:#003E73;stroke:#08284D;stroke-miterlimit:10;}
	.st136{opacity:0.2;fill:#3A8CF9;stroke:#0A2144;stroke-miterlimit:10;}
	.st137{fill:#002B6A;stroke:#03162D;stroke-miterlimit:10;}
	.st138{opacity:0.55;fill:#002B6A;}
	.st139{fill:#0034E4;stroke:#031534;stroke-miterlimit:10;}
	.st140{opacity:0.2;fill:#3A8CF9;stroke:#031534;stroke-miterlimit:10;}
</style>
<g>
	<rect x="2355" y="14.7" class="st0" width="31.9" height="31.9"/>
	<rect x="2357.8" y="86" class="st1" width="26.3" height="26.3"/>
	<rect x="2358.5" y="155.2" class="st0" width="25" height="25"/>
	<rect x="2357.9" y="223.3" class="st2" width="26.2" height="26.1"/>
	<rect x="2358.6" y="292.5" class="st3" width="24.8" height="24.8"/>
	<rect x="2355.7" y="358.2" class="st2" width="30.5" height="30.5"/>
	<rect x="2362.1" y="433.1" class="st4" width="17.7" height="17.7"/>
	<rect x="2361.4" y="501" class="st3" width="19.2" height="19.2"/>
	<rect x="2366.5" y="574.6" class="st3" width="9" height="9"/>
	<rect x="2366.4" y="643.2" class="st3" width="9.1" height="9.1"/>
	<rect x="2291.8" y="20" class="st1" width="21.3" height="21.3"/>
	<rect x="2292.9" y="89.7" class="st1" width="19" height="19"/>
	<rect x="2296.1" y="161.5" class="st3" width="12.6" height="12.6"/>
	<rect x="2293.6" y="227.5" class="st4" width="17.6" height="17.6"/>
	<rect x="2290.2" y="292.7" class="st11" width="24.4" height="24.4"/>
	<rect x="2290.2" y="361.3" class="st12" width="24.3" height="24.3"/>
	<rect x="2293.8" y="433.4" class="st13" width="17.2" height="17.2"/>
	<rect x="2290.3" y="498.5" class="st14" width="24.2" height="24.2"/>
	<rect x="2295" y="571.7" class="st3" width="14.8" height="14.8"/>
	<rect x="2292.1" y="637.5" class="st6" width="20.5" height="20.5"/>
	<rect x="2225" y="21.8" class="st5" width="17.7" height="17.7"/>
	<rect x="2224.6" y="90" class="st1" width="18.5" height="18.5"/>
	<rect x="2218.9" y="152.8" class="st3" width="29.9" height="29.9"/>
	<rect x="2225.6" y="228" class="st21" width="16.6" height="16.6"/>
	<rect x="2222.8" y="293.8" class="st22" width="22.1" height="22.1"/>
	<rect x="2222.8" y="362.4" class="st6" width="22.1" height="22.1"/>
	<rect x="2222.9" y="431.1" class="st23" width="21.8" height="21.8"/>
	<rect x="2230.8" y="507.6" class="st23" width="6" height="6"/>
	<rect x="2225.3" y="570.7" class="st2" width="17" height="17"/>
	<rect x="2228.8" y="642.6" class="st2" width="10.1" height="10.1"/>
	<rect x="2152.4" y="17.8" class="st1" width="25.7" height="25.7"/>
	<rect x="2149.5" y="83.4" class="st1" width="31.6" height="31.6"/>
	<rect x="2153.8" y="156.3" class="st6" width="22.9" height="22.9"/>
	<rect x="2151.9" y="223" class="st16" width="26.7" height="26.7"/>
	<rect x="2156.5" y="296.2" class="st2" width="17.5" height="17.5"/>
	<rect x="2154.1" y="362.3" class="st31" width="22.4" height="22.4"/>
	<rect x="2156.3" y="433.1" class="st32" width="17.9" height="17.9"/>
	<rect x="2160.7" y="506" class="st33" width="9.2" height="9.2"/>
	<rect x="2155.5" y="569.4" class="st34" width="19.6" height="19.6"/>
	<rect x="2161.4" y="643.8" class="st4" width="7.8" height="7.8"/>
	<rect x="2086.4" y="20.3" class="st3" width="20.7" height="20.7"/>
	<rect x="2083.8" y="86.3" class="st1" width="25.8" height="25.8"/>
	<rect x="2090.9" y="162" class="st21" width="11.5" height="11.5"/>
	<rect x="2087" y="226.6" class="st26" width="19.4" height="19.4"/>
	<rect x="2093.1" y="301.3" class="st5" width="7.2" height="7.2"/>
	<rect x="2089.3" y="366.1" class="st27" width="14.8" height="14.8"/>
	<rect x="2089" y="434.4" class="st11" width="15.3" height="15.3"/>
	<rect x="2090.3" y="504.2" class="st14" width="12.8" height="12.8"/>
	<rect x="2089.7" y="572.2" class="st28" width="14" height="14"/>
	<rect x="2092.3" y="643.3" class="st6" width="8.8" height="8.8"/>
	<rect x="2014.9" y="17.4" class="st3" width="26.5" height="26.5"/>
	<rect x="2018.8" y="89.8" class="st26" width="18.7" height="18.7"/>
	<rect x="2019" y="158.6" class="st41" width="18.3" height="18.3"/>
	<rect x="2016.1" y="224.3" class="st41" width="24.1" height="24.1"/>
	<rect x="2017.3" y="294" class="st25" width="21.7" height="21.7"/>
	<rect x="2018.8" y="364.1" class="st2" width="18.7" height="18.7"/>
	<rect x="2021.3" y="435.2" class="st22" width="13.7" height="13.7"/>
	<rect x="2026" y="508.4" class="st28" width="4.4" height="4.4"/>
	<rect x="2026.1" y="577.1" class="st40" width="4.2" height="4.2"/>
	<rect x="2022.2" y="641.7" class="st40" width="11.9" height="11.9"/>
	<rect x="1955.1" y="26.1" class="st26" width="9" height="9"/>
	<rect x="1951.4" y="91" class="st2" width="16.4" height="16.4"/>
	<rect x="1955.8" y="163.9" class="st42" width="7.6" height="7.6"/>
	<rect x="1949.4" y="226.2" class="st26" width="20.3" height="20.3"/>
	<rect x="1950" y="295.3" class="st21" width="19.2" height="19.2"/>
	<rect x="1953.1" y="367" class="st26" width="12.9" height="12.9"/>
	<rect x="1954.8" y="437.2" class="st26" width="9.6" height="9.6"/>
	<rect x="1957" y="508" class="st3" width="5.2" height="5.2"/>
	<rect x="1953.9" y="573.4" class="st1" width="11.4" height="11.4"/>
	<rect x="1956.5" y="644.6" class="st5" width="6.2" height="6.2"/>
	<rect x="1878.9" y="18.5" class="st6" width="24.3" height="24.3"/>
	<rect x="1883.5" y="91.6" class="st3" width="15.1" height="15.1"/>
	<rect x="1881.1" y="157.8" class="st5" width="19.9" height="19.9"/>
	<rect x="1880.5" y="225.8" class="st44" width="21" height="21"/>
	<rect x="1882.2" y="296.1" class="st32" width="17.6" height="17.6"/>
	<rect x="1883.9" y="366.3" class="st45" width="14.2" height="14.2"/>
	<rect x="1888.1" y="439.1" class="st32" width="5.8" height="5.8"/>
	<rect x="1886.5" y="506.1" class="st3" width="9" height="9"/>
	<rect x="1886.7" y="574.8" class="st0" width="8.6" height="8.6"/>
	<rect x="1886.5" y="643.2" class="st1" width="9" height="9.1"/>
	<rect x="1814.8" y="23" class="st1" width="15.2" height="15.2"/>
	<rect x="1816.5" y="93.3" class="st3" width="11.9" height="11.9"/>
	<rect x="1814.5" y="159.8" class="st48" width="15.8" height="15.8"/>
	<rect x="1817.9" y="231.8" class="st49" width="9.1" height="9.1"/>
	<rect x="1815.6" y="298.1" class="st1" width="13.6" height="13.6"/>
	<rect x="1816.2" y="367.2" class="st50" width="12.5" height="12.5"/>
	<rect x="1816.6" y="436.2" class="st21" width="11.7" height="11.7"/>
	<rect x="1819.1" y="507.2" class="st6" width="6.7" height="6.7"/>
	<rect x="1819.3" y="576" class="st26" width="6.3" height="6.3"/>
	<rect x="1817.9" y="643.2" class="st3" width="9" height="9"/>
	<rect x="1745.9" y="22.6" class="st2" width="16" height="16"/>
	<rect x="1746" y="91.3" class="st2" width="15.7" height="15.7"/>
	<rect x="1743.6" y="157.4" class="st54" width="20.6" height="20.6"/>
	<rect x="1745" y="227.4" class="st1" width="17.8" height="17.8"/>
	<rect x="1749.8" y="300.8" class="st6" width="8.2" height="8.2"/>
	<rect x="1750.5" y="370.1" class="st2" width="6.8" height="6.8"/>
	<rect x="1748.1" y="436.2" class="st3" width="11.6" height="11.6"/>
	<rect x="1750.7" y="507.4" class="st0" width="6.4" height="6.4"/>
	<rect x="1744.8" y="570.1" class="st49" width="18.1" height="18.1"/>
	<rect x="1749.9" y="643.7" class="st55" width="8" height="8"/>
	<rect x="1676.9" y="22.2" class="st5" width="16.8" height="16.8"/>
	<rect x="1676.7" y="90.6" class="st6" width="17.2" height="17.2"/>
	<rect x="1676.1" y="158.5" class="st5" width="18.5" height="18.5"/>
	<rect x="1682.7" y="233.7" class="st4" width="5.2" height="5.2"/>
	<rect x="1677.5" y="297.1" class="st49" width="15.6" height="15.6"/>
	<rect x="1681.4" y="369.6" class="st6" width="7.8" height="7.8"/>
	<rect x="1683.1" y="439.8" class="st1" width="4.5" height="4.5"/>
	<rect x="1683.2" y="508.5" class="st5" width="4.2" height="4.2"/>
	<rect x="1682.3" y="576.1" class="st6" width="6" height="6"/>
	<rect x="1683.4" y="645.8" class="st62" width="3.9" height="3.9"/>
	<rect x="1612.2" y="26.1" class="st6" width="9" height="9"/>
	<rect x="1605.1" y="87.5" class="st5" width="23.4" height="23.4"/>
	<rect x="1607.7" y="158.7" class="st41" width="18.1" height="18.1"/>
	<rect x="1614.4" y="234" class="st41" width="4.7" height="4.7"/>
	<rect x="1612.9" y="301" class="st45" width="7.7" height="7.8"/>
	<rect x="1610.5" y="367.2" class="st2" width="12.5" height="12.5"/>
	<rect x="1610.3" y="435.6" class="st26" width="12.8" height="12.8"/>
	<rect x="1614.7" y="508.5" class="st0" width="4.1" height="4.1"/>
	<rect x="1611.8" y="574.2" class="st26" width="9.9" height="9.9"/>
	<rect x="1614.1" y="645.1" class="st1" width="5.3" height="5.3"/>
	<rect x="1544.8" y="27.2" class="st1" width="6.8" height="6.8"/>
	<rect x="1541.6" y="92.6" class="st2" width="13.2" height="13.2"/>
	<rect x="1545.3" y="164.9" class="st6" width="5.8" height="5.8"/>
	<rect x="1544.3" y="232.4" class="st35" width="7.8" height="7.8"/>
	<rect x="1543.8" y="300.6" class="st3" width="8.7" height="8.7"/>
	<rect x="1526" y="351.3" class="st77" width="44.3" height="44.3"/>
	<rect x="1546.3" y="440.1" class="st3" width="3.8" height="3.8"/>
	<rect x="1542" y="504.4" class="st49" width="12.3" height="12.3"/>
	<rect x="1544.7" y="575.7" class="st5" width="7" height="7"/>
	<rect x="1546.4" y="646" class="st26" width="3.5" height="3.5"/>
	<rect x="1467.2" y="18.2" class="st26" width="24.9" height="24.9"/>
	<rect x="1472.8" y="92.4" class="st2" width="13.6" height="13.6"/>
	<rect x="1470" y="158.1" class="st37" width="19.3" height="19.3"/>
	<rect x="1475.9" y="232.6" class="st5" width="7.4" height="7.4"/>
	<rect x="1476.8" y="302.1" class="st3" width="5.6" height="5.6"/>
	<rect x="1474.5" y="368.3" class="st6" width="10.3" height="10.3"/>
	<rect x="1472.6" y="435.1" class="st2" width="13.9" height="13.9"/>
	<rect x="1477.6" y="508.6" class="st5" width="3.9" height="3.9"/>
	<rect x="1477.9" y="577.4" class="st26" width="3.5" height="3.5"/>
	<rect x="1477.2" y="645.3" class="st5" width="4.8" height="4.8"/>
	<rect x="1400" y="19.5" class="st1" width="22.2" height="22.2"/>
	<rect x="1407.1" y="95.3" class="st1" width="7.8" height="7.8"/>
	<rect x="1408.3" y="165" class="st48" width="5.5" height="5.5"/>
	<rect x="1402.4" y="227.7" class="st34" width="17.2" height="17.2"/>
	<rect x="1403.1" y="296.9" class="st41" width="15.9" height="15.9"/>
	<rect x="1409.2" y="371.6" class="st4" width="3.7" height="3.8"/>
	<rect x="1406.6" y="437.6" class="st1" width="8.9" height="8.9"/>
	<rect x="1405.1" y="504.7" class="st37" width="11.8" height="11.8"/>
	<rect x="1406.3" y="574.4" class="st44" width="9.5" height="9.5"/>
	<rect x="1407.1" y="643.7" class="st31" width="8" height="8"/>
	<rect x="1330.3" y="18.5" class="st0" width="24.3" height="24.3"/>
	<rect x="1330.1" y="86.8" class="st1" width="24.7" height="24.7"/>
	<rect x="1334.4" y="159.7" class="st26" width="16.1" height="16.1"/>
	<rect x="1335.6" y="229.5" class="st6" width="13.7" height="13.7"/>
	<rect x="1334.4" y="296.8" class="st37" width="16.1" height="16.1"/>
	<rect x="1336.8" y="367.8" class="st6" width="11.4" height="11.4"/>
	<rect x="1335.9" y="435.5" class="st49" width="13.1" height="13.1"/>
	<rect x="1338.5" y="506.6" class="st1" width="7.9" height="7.9"/>
	<rect x="1336.8" y="573.5" class="st1" width="11.4" height="11.4"/>
	<rect x="1337.2" y="642.5" class="st6" width="10.5" height="10.5"/>
	<rect x="1269.6" y="26.3" class="st0" width="8.6" height="8.6"/>
	<rect x="1265.5" y="90.8" class="st2" width="16.8" height="16.8"/>
	<rect x="1263.4" y="157.3" class="st49" width="21" height="21"/>
	<rect x="1262.6" y="225" class="st43" width="22.6" height="22.6"/>
	<rect x="1266.5" y="297.4" class="st49" width="14.9" height="14.9"/>
	<rect x="1268.3" y="367.8" class="st6" width="11.3" height="11.3"/>
	<rect x="1271.5" y="439.6" class="st1" width="4.9" height="4.9"/>
	<rect x="1270.3" y="507" class="st26" width="7.2" height="7.2"/>
	<rect x="1272.2" y="577.4" class="st27" width="3.5" height="3.5"/>
	<rect x="1270" y="643.8" class="st13" width="7.9" height="7.9"/>
	<rect x="1190.9" y="16.2" class="st4" width="28.9" height="28.9"/>
	<rect x="1199.5" y="93.3" class="st2" width="11.7" height="11.7"/>
	<rect x="1194.2" y="156.7" class="st49" width="22.2" height="22.2"/>
	<rect x="1200.9" y="231.9" class="st0" width="8.9" height="8.9"/>
	<rect x="1196.8" y="296.3" class="st48" width="17.2" height="17.2"/>
	<rect x="1198.7" y="366.8" class="st32" width="13.3" height="13.3"/>
	<rect x="1198.5" y="435.2" class="st24" width="13.6" height="13.6"/>
	<rect x="1203.3" y="508.5" class="st5" width="4.1" height="4.1"/>
	<rect x="1203.5" y="577.3" class="st13" width="3.7" height="3.7"/>
	<rect x="1201.4" y="643.7" class="st13" width="8" height="8"/>
	<rect x="1125.2" y="19.1" class="st0" width="23.1" height="23.1"/>
	<rect x="1131.5" y="93.9" class="st4" width="10.6" height="10.6"/>
	<rect x="1125.8" y="156.8" class="st26" width="21.9" height="21.9"/>
	<rect x="1125.7" y="225.2" class="st2" width="22.2" height="22.2"/>
	<rect x="1128.5" y="296.6" class="st38" width="16.6" height="16.6"/>
	<rect x="1128.9" y="365.6" class="st96" width="15.8" height="15.7"/>
	<rect x="1127.4" y="432.7" class="st2" width="18.7" height="18.7"/>
	<rect x="1134.6" y="508.4" class="st3" width="4.3" height="4.3"/>
	<rect x="1129.5" y="571.9" class="st97" width="14.5" height="14.5"/>
	<rect x="1133.2" y="644.1" class="st15" width="7.3" height="7.3"/>
	<rect x="1065.4" y="27.8" class="st4" width="5.7" height="5.7"/>
	<rect x="1065.5" y="96.5" class="st1" width="5.4" height="5.4"/>
	<rect x="1062.1" y="161.6" class="st1" width="12.3" height="12.3"/>
	<rect x="1065.5" y="233.6" class="st12" width="5.4" height="5.4"/>
	<rect x="1062.6" y="299.3" class="st12" width="11.2" height="11.2"/>
	<rect x="1054.7" y="360" class="st11" width="27" height="27"/>
	<rect x="1062.2" y="436" class="st13" width="12" height="12"/>
	<rect x="1063.6" y="506" class="st40" width="9.2" height="9.2"/>
	<rect x="1060.9" y="571.9" class="st5" width="14.6" height="14.6"/>
	<rect x="1061.6" y="641.1" class="st3" width="13.2" height="13.2"/>
	<rect x="989.8" y="20.8" class="st0" width="19.6" height="19.6"/>
	<rect x="982.3" y="81.8" class="st2" width="34.8" height="34.8"/>
	<rect x="993" y="161.1" class="st101" width="13.3" height="13.3"/>
	<rect x="984.5" y="221.2" class="st96" width="30.3" height="30.3"/>
	<rect x="994" y="299.3" class="st6" width="11.2" height="11.2"/>
	<rect x="993.1" y="366.9" class="st22" width="13.1" height="13.1"/>
	<rect x="993.9" y="436.3" class="st102" width="11.5" height="11.5"/>
	<rect x="989.7" y="500.6" class="st22" width="20" height="20"/>
	<rect x="991.6" y="571.1" class="st5" width="16.1" height="16.1"/>
	<rect x="992.4" y="640.5" class="st6" width="14.4" height="14.4"/>
	<rect x="919.3" y="18.9" class="st6" width="23.5" height="23.5"/>
	<rect x="923.6" y="91.8" class="st2" width="14.9" height="14.9"/>
	<rect x="913.7" y="150.4" class="st23" width="34.7" height="34.7"/>
	<rect x="926.4" y="231.6" class="st4" width="9.4" height="9.4"/>
	<rect x="918" y="291.8" class="st97" width="26.1" height="26.1"/>
	<rect x="924.9" y="367.3" class="st6" width="12.4" height="12.4"/>
	<rect x="928.4" y="439.3" class="st3" width="5.4" height="5.4"/>
	<rect x="926.6" y="506.1" class="st2" width="9" height="9"/>
	<rect x="926.9" y="575" class="st36" width="8.3" height="8.3"/>
	<rect x="922.7" y="639.3" class="st35" width="16.8" height="16.8"/>
	<rect x="847.9" y="16" class="st1" width="29.3" height="29.3"/>
	<rect x="856.5" y="93.2" class="st1" width="12" height="12"/>
	<rect x="848.2" y="153.5" class="st1" width="28.6" height="28.6"/>
	<rect x="845.7" y="219.5" class="st104" width="33.7" height="33.7"/>
	<rect x="858.3" y="300.7" class="st1" width="8.5" height="8.5"/>
	<rect x="859.7" y="370.6" class="st3" width="5.7" height="5.7"/>
	<rect x="856.4" y="435.9" class="st3" width="12.3" height="12.3"/>
	<rect x="857.1" y="505.2" class="st6" width="10.8" height="10.8"/>
	<rect x="852.6" y="569.2" class="st22" width="19.9" height="19.9"/>
	<rect x="856.4" y="641.6" class="st1" width="12.2" height="12.2"/>
	<rect x="792.2" y="28.9" class="st3" width="3.4" height="3.4"/>
	<rect x="787.8" y="93" class="st2" width="12.3" height="12.3"/>
	<rect x="787.4" y="161.2" class="st3" width="13.1" height="13.1"/>
	<rect x="787" y="229.4" class="st2" width="13.9" height="13.9"/>
	<rect x="789.7" y="300.7" class="st2" width="8.5" height="8.5"/>
	<rect x="788.4" y="367.9" class="st0" width="11.2" height="11.2"/>
	<rect x="785.5" y="433.6" class="st96" width="16.9" height="16.9"/>
	<rect x="788.8" y="505.5" class="st0" width="10.3" height="10.3"/>
	<rect x="791" y="576.2" class="st26" width="5.9" height="5.9"/>
	<rect x="789.2" y="642.9" class="st48" width="9.5" height="9.6"/>
	<rect x="721.6" y="26.8" class="st2" width="7.7" height="7.7"/>
	<rect x="718.1" y="91.9" class="st2" width="14.5" height="14.5"/>
	<rect x="716.9" y="159.3" class="st1" width="17" height="17"/>
	<rect x="721" y="232" class="st41" width="8.7" height="8.7"/>
	<rect x="723.2" y="302.7" class="st4" width="4.4" height="4.4"/>
	<rect x="723.4" y="371.5" class="st109" width="3.9" height="3.9"/>
	<rect x="722.7" y="439.3" class="st110" width="5.4" height="5.4"/>
	<rect x="716.8" y="502" class="st111" width="17.2" height="17.2"/>
	<rect x="721.3" y="575.1" class="st112" width="8.1" height="8.1"/>
	<rect x="719.7" y="642" class="st113" width="11.4" height="11.4"/>
	<rect x="652.9" y="26.7" class="st0" width="7.9" height="7.9"/>
	<rect x="650.3" y="92.6" class="st0" width="13.1" height="13.1"/>
	<rect x="652.7" y="163.6" class="st0" width="8.3" height="8.3"/>
	<rect x="651.1" y="230.6" class="st24" width="11.5" height="11.5"/>
	<rect x="651.4" y="299.5" class="st3" width="10.8" height="10.8"/>
	<rect x="652.2" y="368.8" class="st117" width="9.2" height="9.2"/>
	<rect x="651.5" y="436.7" class="st118" width="10.6" height="10.6"/>
	<rect x="653.3" y="507.1" class="st118" width="7" height="7"/>
	<rect x="651.4" y="573.7" class="st117" width="10.8" height="10.8"/>
	<rect x="653.5" y="644.4" class="st110" width="6.7" height="6.7"/>
	<rect x="585.7" y="28.1" class="st5" width="5.1" height="5.1"/>
	<rect x="582.2" y="93.2" class="st2" width="12.1" height="12.1"/>
	<rect x="578.4" y="158" class="st97" width="19.6" height="19.6"/>
	<rect x="585.6" y="233.7" class="st2" width="5.2" height="5.2"/>
	<rect x="582.3" y="298.9" class="st6" width="12" height="12"/>
	<rect x="582.2" y="367.4" class="st5" width="12.2" height="12.2"/>
	<rect x="582.4" y="436.1" class="st6" width="11.8" height="11.8"/>
	<rect x="581.8" y="504.1" class="st120" width="13" height="13"/>
	<rect x="582.1" y="573" class="st2" width="12.4" height="12.4"/>
	<rect x="586.1" y="645.5" class="st6" width="4.4" height="4.4"/>
	<rect x="516.7" y="27.6" class="st1" width="6" height="6"/>
	<rect x="517.1" y="96.6" class="st26" width="5.2" height="5.2"/>
	<rect x="515.2" y="163.2" class="st31" width="9" height="9"/>
	<rect x="516.2" y="232.8" class="st2" width="7" height="7"/>
	<rect x="509.3" y="294.5" class="st97" width="20.8" height="20.8"/>
	<rect x="505.7" y="359.4" class="st3" width="28.1" height="28.1"/>
	<rect x="505.8" y="428.2" class="st104" width="27.7" height="27.7"/>
	<rect x="510.6" y="501.5" class="st67" width="18.2" height="18.2"/>
	<rect x="511.9" y="571.4" class="st71" width="15.5" height="15.5"/>
	<rect x="511.9" y="640" class="st97" width="15.5" height="15.5"/>
	<rect x="432.7" y="12.2" class="st6" width="36.8" height="36.8"/>
	<rect x="441.5" y="89.6" class="st3" width="19.3" height="19.3"/>
	<rect x="443.3" y="159.9" class="st5" width="15.7" height="15.7"/>
	<rect x="439.5" y="224.7" class="st48" width="23.3" height="23.3"/>
	<rect x="439.7" y="293.4" class="st2" width="22.9" height="22.9"/>
	<rect x="444.7" y="367.1" class="st2" width="12.8" height="12.8"/>
	<rect x="442.4" y="433.3" class="st97" width="17.4" height="17.4"/>
	<rect x="445.8" y="505.3" class="st5" width="10.7" height="10.7"/>
	<rect x="438.5" y="566.5" class="st97" width="25.2" height="25.2"/>
	<rect x="434.3" y="630.9" class="st1" width="33.6" height="33.6"/>
	<rect x="366.5" y="14.6" class="st5" width="32.1" height="32.1"/>
	<rect x="372.6" y="89.2" class="st3" width="19.9" height="19.9"/>
	<rect x="376.5" y="161.7" class="st1" width="12" height="12"/>
	<rect x="372" y="225.8" class="st5" width="21.1" height="21.1"/>
	<rect x="367.6" y="290" class="st2" width="29.8" height="29.8"/>
	<rect x="377.3" y="368.2" class="st1" width="10.5" height="10.5"/>
	<rect x="377.3" y="436.8" class="st6" width="10.4" height="10.4"/>
	<rect x="375.7" y="503.8" class="st1" width="13.6" height="13.6"/>
	<rect x="373.9" y="570.5" class="st97" width="17.4" height="17.4"/>
	<rect x="371.9" y="637" class="st5" width="21.4" height="21.4"/>
	<rect x="310.4" y="27.1" class="st0" width="7.1" height="7.1"/>
	<rect x="311.1" y="96.3" class="st0" width="5.7" height="5.7"/>
	<rect x="299.2" y="153" class="st104" width="29.5" height="29.5"/>
	<rect x="300.7" y="223" class="st130" width="26.6" height="26.6"/>
	<rect x="308.3" y="299.2" class="st1" width="11.4" height="11.4"/>
	<rect x="309.4" y="368.8" class="st26" width="9.3" height="9.3"/>
	<rect x="309.6" y="437.6" class="st2" width="8.8" height="8.8"/>
	<rect x="304.7" y="501.3" class="st96" width="18.6" height="18.6"/>
	<rect x="306.4" y="571.5" class="st15" width="15.3" height="15.3"/>
	<rect x="308.6" y="642.3" class="st101" width="10.8" height="10.8"/>
	<rect x="240.3" y="25.5" class="st1" width="10.3" height="10.3"/>
	<rect x="237" y="90.8" class="st6" width="16.8" height="16.8"/>
	<rect x="235.3" y="157.6" class="st33" width="20.3" height="20.3"/>
	<rect x="227.9" y="218.8" class="st97" width="35.1" height="35.1"/>
	<rect x="242.5" y="302" class="st3" width="5.8" height="5.8"/>
	<rect x="237.8" y="365.8" class="st17" width="15.2" height="15.2"/>
	<rect x="238.6" y="435.2" class="st23" width="13.7" height="13.7"/>
	<rect x="241.5" y="506.6" class="st5" width="7.9" height="7.9"/>
	<rect x="237.4" y="571.2" class="st1" width="16" height="16"/>
	<rect x="232.9" y="635.2" class="st45" width="25.1" height="25.1"/>
	<rect x="162" y="15.7" class="st2" width="29.8" height="29.8"/>
	<rect x="166.3" y="88.6" class="st3" width="21.2" height="21.2"/>
	<rect x="159.2" y="150.1" class="st3" width="35.3" height="35.3"/>
	<rect x="166.1" y="225.6" class="st0" width="21.5" height="21.5"/>
	<rect x="158.5" y="286.5" class="st134" width="36.8" height="36.8"/>
	<rect x="173.5" y="370.1" class="st0" width="6.6" height="6.6"/>
	<rect x="165.4" y="430.5" class="st96" width="23" height="23"/>
	<rect x="169.6" y="503.3" class="st4" width="14.6" height="14.6"/>
	<rect x="166.9" y="569.2" class="st26" width="19.9" height="19.9"/>
	<rect x="168.3" y="639.1" class="st2" width="17.2" height="17.2"/>
	<rect x="94.8" y="17.1" class="st1" width="27" height="27"/>
	<rect x="97.6" y="88.5" class="st1" width="21.5" height="21.5"/>
	<rect x="98.6" y="158.1" class="st6" width="19.4" height="19.4"/>
	<rect x="103.3" y="231.3" class="st45" width="10" height="10"/>
	<rect x="96.7" y="293.3" class="st6" width="23.2" height="23.2"/>
	<rect x="94.9" y="360" class="st97" width="26.9" height="26.9"/>
	<rect x="102.2" y="435.9" class="st137" width="12.3" height="12.3"/>
	<rect x="101.4" y="503.7" class="st48" width="13.7" height="13.7"/>
	<rect x="102.1" y="572.9" class="st110" width="12.4" height="12.4"/>
	<rect x="92.4" y="631.8" class="st112" width="31.9" height="31.9"/>
	<rect x="28.9" y="19.8" class="st26" width="21.6" height="21.6"/>
	<rect x="31.5" y="91" class="st5" width="16.4" height="16.4"/>
	<rect x="32.5" y="160.5" class="st0" width="14.4" height="14.4"/>
	<rect x="26.9" y="223.5" class="st2" width="25.6" height="25.6"/>
	<rect x="26.2" y="291.4" class="st5" width="27" height="27"/>
	<rect x="22.4" y="356.1" class="st6" width="34.6" height="34.6"/>
	<rect x="34.2" y="436.5" class="st1" width="11" height="11"/>
	<rect x="20.4" y="491.2" class="st0" width="38.7" height="38.7"/>
	<rect x="35.6" y="575" class="st2" width="8.3" height="8.3"/>
	<rect x="28.3" y="636.3" class="st3" width="22.8" height="22.8"/>
</g>
</svg>
