<?xml version="1.0" encoding="utf-8"?>
<!-- Generator: Adobe Illustrator 20.0.0, SVG Export Plug-In . SVG Version: 6.00 Build 0)  -->
<svg version="1.1" id="Layer_1" xmlns="http://www.w3.org/2000/svg" xmlns:xlink="http://www.w3.org/1999/xlink" x="0px" y="0px"
	 viewBox="0 0 150 150" style="enable-background:new 0 0 150 150;" xml:space="preserve">
<style type="text/css">
	.st0{fill:#4951EC;}
	.st1{fill:#E2AB40;}
</style>
<g>
	<path class="st0" d="M39.4,55.6l2.6-1.3l1.2-0.1L44,67.5c0.3-0.5,0.6-1.2,1.2-1.7s1-1,1.5-1.4s1.2-0.8,1.8-1
		c0.6-0.3,1.3-0.4,1.8-0.4c1.2-0.1,2.2,0.1,3.1,0.5c1,0.4,1.8,0.9,2.6,1.7c0.8,0.8,1.3,1.5,1.8,2.6c0.4,1,0.8,2.1,0.8,3.2
		c0.1,1.5-0.1,3.1-0.5,4.5c-0.5,1.4-1.2,2.7-2.1,3.7c-0.9,1.2-1.9,1.9-3.2,2.7c-1.3,0.6-2.6,1-4.1,1.2c-1.4,0.1-2.8,0-4.1-0.3
		s-2.4-0.8-3.5-1.5L39.4,55.6z M44.8,80.1c0.3,0.3,0.5,0.4,0.8,0.6c0.3,0.3,0.6,0.4,1,0.6c0.4,0.1,0.8,0.3,1.2,0.4
		c0.4,0.1,0.9,0.1,1.4,0.1c0.9,0,1.7-0.4,2.3-0.8c0.6-0.5,1.3-1.2,1.8-1.9c0.5-0.8,0.8-1.8,1-2.8c0.3-1,0.3-2.2,0.1-3.5
		c0-0.9-0.3-1.8-0.6-2.7c-0.4-0.8-0.8-1.5-1.3-2.1c-0.5-0.6-1.2-1-1.9-1.3c-0.6-0.3-1.4-0.4-2.2-0.4c-0.4,0-0.9,0.1-1.3,0.3
		c-0.4,0.1-0.9,0.4-1.3,0.6c-0.4,0.3-0.8,0.5-1,0.8c-0.4,0.3-0.6,0.6-0.8,1L44.8,80.1z"/>
	<path class="st0" d="M63.4,86.5c0.1,0,0.4,0.1,0.5,0.3c0.1,0.1,0.4,0.1,0.6,0.3c0.3,0.1,0.5,0.1,0.8,0.1s0.5,0,0.9,0
		c0.4,0,0.8-0.1,1.2-0.4c0.4-0.3,0.6-0.5,0.9-0.9c0.3-0.4,0.5-0.8,0.6-1.2c0.3-0.4,0.4-0.8,0.5-1.2l1.2-2.9l-11-17.6l4.4-0.3
		l8.2,13.3l5.1-14.2l2.1-0.1l-8.3,23.1c-0.4,0.9-0.8,1.8-1.3,2.6c-0.5,0.8-1,1.3-1.5,1.8c-0.5,0.5-1.2,0.9-1.8,1.2s-1.3,0.4-1.8,0.4
		c-0.4,0-0.9,0-1.3-0.1c-0.4-0.1-0.8-0.3-1.2-0.5L63.4,86.5z"/>
	<path class="st0" d="M91.2,80.5c-1.3,0.1-2.6-0.1-3.7-0.5c-1.2-0.4-2.2-0.9-3.1-1.7c-0.9-0.8-1.7-1.7-2.2-2.8
		c-0.5-1.2-0.9-2.3-1-3.6c-0.1-1.5,0-2.9,0.4-4.2c0.4-1.3,0.9-2.4,1.7-3.5c0.8-1,1.7-1.8,2.8-2.4c1.2-0.6,2.4-1,3.8-1
		c1.3-0.1,2.4,0,3.5,0.4c1,0.4,2.1,0.9,2.8,1.5c0.8,0.6,1.4,1.5,1.9,2.4c0.5,0.9,0.8,1.9,0.8,2.9L84.7,69c0.1,1.3,0.4,2.4,0.8,3.6
		c0.4,1,0.9,2.1,1.5,2.7c0.6,0.8,1.4,1.3,2.3,1.7c0.9,0.4,1.8,0.5,2.7,0.5c0.8,0,1.5-0.3,2.3-0.5c0.8-0.3,1.4-0.8,2.1-1.2
		c0.6-0.5,1-1,1.5-1.5c0.4-0.6,0.6-1.2,0.8-1.8l1.2,0.4c-0.3,1-0.6,1.9-1.2,2.8c-0.5,0.9-1.2,1.7-2.1,2.4c-0.8,0.6-1.7,1.3-2.6,1.7
		C93.1,80.1,92.2,80.5,91.2,80.5z M94.2,66.9c0-0.8-0.3-1.4-0.5-2.1c-0.3-0.6-0.6-1.2-1.2-1.5c-0.5-0.4-1-0.8-1.7-1
		C90.2,62,89.5,62,88.9,62c-0.5,0-1.2,0.3-1.7,0.5c-0.5,0.3-0.9,0.6-1.3,1.2c-0.4,0.5-0.6,1-0.9,1.7c-0.3,0.6-0.4,1.3-0.4,2.1
		L94.2,66.9z"/>
	<path class="st0" d="M104.5,72.9c-0.1-1.4-0.4-2.7-0.6-4.1c-0.3-1.4-0.5-2.8-0.8-4.1c-0.3-1.4-0.5-2.7-0.8-4
		c-0.3-1.3-0.4-2.6-0.5-3.7c0-0.4,0-0.9,0.1-1.3c0.1-0.4,0.3-0.6,0.4-0.9c0.1-0.3,0.4-0.5,0.6-0.6s0.5-0.3,0.8-0.3
		c0.3,0,0.6,0,0.9,0.1c0.3,0.1,0.5,0.3,0.8,0.5c0.3,0.3,0.4,0.5,0.5,0.9c0.1,0.4,0.3,0.8,0.3,1.2c0.1,1.2,0.1,2.4,0,3.7
		c0,1.3-0.1,2.7-0.3,4.1c-0.1,1.4-0.3,2.8-0.3,4.2c-0.1,1.4-0.1,2.8,0,4.2L104.5,72.9z M105.3,75.7c0.3,0,0.5,0,0.8,0.1
		c0.3,0.1,0.5,0.3,0.6,0.4c0.1,0.1,0.4,0.4,0.5,0.6s0.1,0.5,0.3,0.8c0,0.3,0,0.5-0.1,0.8c-0.1,0.3-0.3,0.5-0.4,0.6
		c-0.1,0.1-0.4,0.4-0.6,0.5c-0.3,0.1-0.5,0.1-0.8,0.3c-0.3,0-0.5,0-0.8-0.1c-0.3-0.1-0.5-0.3-0.6-0.4c-0.3-0.1-0.4-0.4-0.5-0.6
		s-0.1-0.5-0.3-0.8c0-0.3,0-0.5,0.1-0.8c0.1-0.3,0.3-0.5,0.4-0.6c0.1-0.1,0.4-0.4,0.6-0.5S105.1,75.9,105.3,75.7z"/>
</g>
<g>
	<path class="st1" d="M108.7,119.5c-0.2,0-0.5,0-0.7,0c0,0,0,0-0.1,0l-82.4-6.7c-6.3-0.4-11.6-5-12.7-11.2l0,0l-9-50.4
		c-0.7-3.9,0.3-7.9,2.9-11C9.3,37,13,35.2,17,35l115.3-4.5c4.6-0.1,8.9,2,11.6,5.8c2.6,3.7,3.2,8.5,1.6,12.8l-24,61.7
		C119.3,116.1,114.3,119.5,108.7,119.5z M108.2,115.2c4,0.2,7.7-2.2,9.2-6l24-61.7c1.2-3,0.8-6.2-1.1-8.8c-1.8-2.6-4.7-4.1-7.9-4
		L17.1,39.3c-2.7,0.1-5.3,1.3-7,3.4c-1.7,2.1-2.4,4.9-2,7.5l9,50.4c0.8,4.3,4.3,7.5,8.7,7.7c0,0,0,0,0.1,0L108.2,115.2z"/>
</g>
</svg>
