<?xml version="1.0" encoding="utf-8"?>
<!-- Generator: Adobe Illustrator 20.0.0, SVG Export Plug-In . SVG Version: 6.00 Build 0)  -->
<svg version="1.1" id="Layer_1" xmlns="http://www.w3.org/2000/svg" xmlns:xlink="http://www.w3.org/1999/xlink" x="0px" y="0px"
	 viewBox="0 0 150 150" style="enable-background:new 0 0 150 150;" xml:space="preserve">
<style type="text/css">
	.st0{fill:#6B5DA7;}
	.st1{fill:#FFFFFF;}
</style>
<g>
	<path class="st0" d="M146.3,35.3c1.4-8.8-5.3-16.7-14.2-16.7l-111.4,1c-7.3,0-13.4,5.4-14.3,12.6L3.6,90.5c-1,8.1,4.9,15.4,13,16.1
		l9.2,0.8l-0.2,23.9l16.1-22.6l82.8,9.3c7.5,0.6,14.2-4.6,15.4-12"/>
	<g>
		<path class="st1" d="M30.1,71.8c0.3,1.5,0.7,2.9,1.4,4C32.2,77,33,78,34,78.7s2,1.2,3.2,1.5s2.4,0.3,3.7,0.1
			c0.8-0.1,1.5-0.4,2.2-0.8s1.3-0.9,1.8-1.5s1-1.2,1.4-1.9c0.4-0.7,0.7-1.4,0.9-2.1l1.7,0.7c-0.3,0.8-0.7,1.6-1.3,2.4
			c-0.5,0.8-1.1,1.5-1.9,2.2C45,80,44.1,80.5,43.1,81s-2.1,0.8-3.4,1.1c-1.8,0.3-3.6,0.3-5.2-0.1c-1.6-0.4-3-1-4.3-1.8
			c-1.2-0.9-2.3-1.9-3.1-3.2c-0.8-1.3-1.4-2.7-1.6-4.3c-0.2-1-0.2-2.1-0.1-3.1s0.3-2,0.7-3c0.4-0.9,0.8-1.8,1.4-2.7
			c0.6-0.8,1.3-1.6,2.2-2.3c0.8-0.7,1.8-1.2,2.8-1.7s2.2-0.8,3.4-1s2.3-0.2,3.3-0.1c1.1,0.1,2,0.4,2.9,0.8c0.9,0.4,1.7,0.9,2.5,1.4
			c0.8,0.6,1.4,1.2,2,1.9l-1.4,1.3c-1.2-1.6-2.5-2.8-3.8-3.4c-1.3-0.6-2.7-0.8-4.2-0.6c-1.3,0.2-2.4,0.7-3.5,1.3
			c-1,0.7-1.9,1.5-2.6,2.5c-0.7,1-1.2,2.2-1.4,3.5C29.9,68.8,29.9,70.3,30.1,71.8z"/>
		<path class="st1" d="M65.8,77.6c-1.7,0.3-3.4,0.3-5-0.1s-3-1-4.3-1.9s-2.4-2-3.2-3.3s-1.4-2.8-1.7-4.4c-0.2-1.1-0.2-2.1-0.1-3.1
			c0.1-1,0.4-2,0.7-2.9c0.4-0.9,0.9-1.8,1.5-2.6s1.3-1.6,2.2-2.2c0.8-0.6,1.7-1.2,2.7-1.7s2.1-0.8,3.2-1c1.1-0.2,2.3-0.2,3.4-0.2
			c1.1,0.1,2.1,0.3,3.1,0.7c1,0.3,1.9,0.8,2.8,1.4c0.9,0.6,1.6,1.2,2.3,2s1.2,1.6,1.7,2.5s0.8,1.9,0.9,3c0.2,1.1,0.2,2.1,0.1,3.2
			c-0.1,1-0.4,2-0.7,3s-0.9,1.9-1.5,2.7c-0.6,0.8-1.3,1.6-2.1,2.3c-0.8,0.7-1.7,1.2-2.7,1.7C68,77,66.9,77.4,65.8,77.6z M65.6,76.5
			c1.3-0.2,2.3-0.7,3.2-1.4c0.9-0.7,1.6-1.6,2.1-2.6c0.5-1.1,0.8-2.3,0.9-3.6c0.1-1.3,0-2.8-0.2-4.3c-0.3-1.5-0.7-2.9-1.2-4.1
			c-0.6-1.2-1.2-2.2-2.1-3c-0.8-0.8-1.8-1.4-2.8-1.7s-2.2-0.4-3.5-0.2s-2.4,0.7-3.3,1.3s-1.6,1.5-2.1,2.6c-0.5,1-0.8,2.2-0.9,3.5
			c-0.1,1.3,0,2.8,0.2,4.3c0.3,1.5,0.7,2.9,1.2,4.2c0.6,1.2,1.2,2.3,2.1,3.1C60,75.4,61,76,62,76.4C63.1,76.6,64.3,76.7,65.6,76.5z"
			/>
		<path class="st1" d="M93.6,72.8c-1.7,0.3-3.4,0.3-5-0.1s-3-1-4.3-1.9s-2.4-2-3.2-3.3c-0.9-1.3-1.4-2.8-1.7-4.4
			C79.2,62,79.2,61,79.3,60s0.4-2,0.7-2.9c0.4-0.9,0.9-1.8,1.5-2.6s1.3-1.6,2.2-2.2c0.8-0.6,1.7-1.2,2.7-1.7s2.1-0.8,3.2-1
			s2.3-0.2,3.4-0.2c1.1,0.1,2.1,0.3,3.1,0.7c1,0.3,1.9,0.8,2.8,1.4s1.6,1.2,2.3,2s1.2,1.6,1.7,2.5s0.8,1.9,0.9,3
			c0.2,1.1,0.2,2.1,0.1,3.2c-0.1,1-0.4,2-0.7,3c-0.4,1-0.9,1.9-1.5,2.7c-0.6,0.8-1.3,1.6-2.1,2.3c-0.8,0.7-1.7,1.2-2.7,1.7
			C95.8,72.3,94.8,72.6,93.6,72.8z M93.4,71.7c1.3-0.2,2.3-0.7,3.2-1.4c0.9-0.7,1.6-1.6,2.1-2.6c0.5-1.1,0.8-2.3,0.9-3.6
			c0.1-1.3,0-2.8-0.2-4.3c-0.3-1.5-0.7-2.9-1.2-4.1c-0.6-1.2-1.2-2.2-2.1-3c-0.8-0.8-1.8-1.4-2.8-1.7c-1.1-0.3-2.2-0.4-3.5-0.2
			s-2.4,0.7-3.3,1.3c-0.9,0.7-1.6,1.5-2.1,2.6c-0.5,1-0.8,2.2-0.9,3.5s0,2.8,0.2,4.3c0.3,1.5,0.7,2.9,1.2,4.2
			c0.6,1.2,1.2,2.3,2.1,3.1c0.8,0.8,1.8,1.4,2.8,1.8C91,71.9,92.1,71.9,93.4,71.7z"/>
		<path class="st1" d="M106.4,47.3l3.7-0.6l3.5,20.7l11.2-1.9l0.2,1.4l-14.9,2.5L106.4,47.3z"/>
	</g>
</g>
</svg>
