<?xml version="1.0" encoding="utf-8"?>
<!-- Generator: Adobe Illustrator 20.0.0, SVG Export Plug-In . SVG Version: 6.00 Build 0)  -->
<svg version="1.1" id="Layer_1" xmlns="http://www.w3.org/2000/svg" xmlns:xlink="http://www.w3.org/1999/xlink" x="0px" y="0px"
	 viewBox="0 0 150 150" style="enable-background:new 0 0 150 150;" xml:space="preserve">
<style type="text/css">
	.st0{fill:#89C1DA;}
	.st1{fill:#6B5DA7;}
	.st2{fill:#FFFFFF;}
</style>
<g>
	<g>
		<path class="st0" d="M66.3,22c0.1,0,0.1,0,0.1-0.1s-0.1-0.2-0.1-0.2c-0.1,0-0.1,0.1-0.1,0.2C66.2,22,66.2,22,66.3,22z"/>
	</g>
	<g>
		<path class="st0" d="M70.6,22.1c0.1,0,0.2-0.1,0.2-0.2c0-0.2-0.1-0.3-0.2-0.3s-0.2,0.1-0.2,0.3C70.3,22,70.4,22.1,70.6,22.1z"/>
	</g>
	<g>
		<path class="st0" d="M74.9,22.2c0.2,0,0.3-0.1,0.3-0.3c0-0.2-0.1-0.4-0.3-0.4c-0.2,0-0.3,0.2-0.3,0.4S74.7,22.2,74.9,22.2z"/>
	</g>
	<g>
		<path class="st0" d="M79.2,22.2c0.2,0,0.4-0.2,0.4-0.4c0-0.2-0.2-0.4-0.4-0.4c-0.2,0-0.4,0.1-0.4,0.4C78.8,22.1,79,22.2,79.2,22.2
			z"/>
	</g>
	<g>
		<path class="st0" d="M83.5,22.3c0.2,0,0.4-0.2,0.4-0.4c0-0.2-0.2-0.4-0.4-0.4c-0.2,0-0.4,0.2-0.4,0.4
			C83.1,22.1,83.3,22.3,83.5,22.3z"/>
	</g>
	<g>
		<path class="st0" d="M87.8,22.3c0.2,0,0.4-0.2,0.4-0.4c0-0.2-0.2-0.4-0.4-0.4s-0.4,0.2-0.4,0.4C87.4,22.1,87.6,22.3,87.8,22.3z"/>
	</g>
	<g>
		<path class="st0" d="M92.1,22.2c0.2,0,0.4-0.2,0.4-0.4c0-0.2-0.2-0.4-0.4-0.4c-0.2,0-0.3,0.2-0.3,0.4
			C91.8,22.1,91.9,22.2,92.1,22.2z"/>
	</g>
	<g>
		<path class="st0" d="M96.4,22.1c0.2,0,0.3-0.1,0.3-0.3c0-0.2-0.1-0.3-0.3-0.3c-0.1,0-0.3,0.1-0.3,0.3S96.3,22.1,96.4,22.1z"/>
	</g>
	<g>
		<path class="st0" d="M100.7,22.1c0.1,0,0.2-0.1,0.2-0.2s-0.1-0.2-0.2-0.2s-0.2,0.1-0.2,0.2S100.6,22.1,100.7,22.1z"/>
	</g>
	<g>
		<path class="st0" d="M105,22C105.1,22,105.1,21.9,105,22c0.1-0.1,0-0.2,0-0.2S104.9,21.8,105,22C104.9,21.9,105,22,105,22z"/>
	</g>
	<g>
		<path class="st0" d="M57.7,26.4c0.1,0,0.2-0.1,0.2-0.2S57.8,26,57.7,26c-0.1,0-0.2,0.1-0.2,0.2S57.6,26.4,57.7,26.4z"/>
	</g>
	<g>
		<path class="st0" d="M62,26.5c0.2,0,0.4-0.2,0.4-0.4c0-0.2-0.2-0.4-0.4-0.4s-0.4,0.2-0.4,0.4C61.6,26.4,61.8,26.5,62,26.5z"/>
	</g>
	<g>
		<path class="st0" d="M66.3,26.7c0.3,0,0.5-0.2,0.5-0.5s-0.2-0.5-0.5-0.5s-0.5,0.2-0.5,0.5C65.8,26.4,66,26.7,66.3,26.7z"/>
	</g>
	<g>
		<path class="st0" d="M70.6,26.8c0.3,0,0.6-0.3,0.6-0.6c0-0.3-0.3-0.6-0.6-0.6c-0.3,0-0.6,0.3-0.6,0.6S70.3,26.8,70.6,26.8z"/>
	</g>
	<g>
		<path class="st0" d="M74.9,26.9c0.4,0,0.7-0.3,0.7-0.7c0-0.4-0.3-0.7-0.7-0.7c-0.4,0-0.7,0.3-0.7,0.7
			C74.2,26.5,74.5,26.9,74.9,26.9z"/>
	</g>
	<g>
		<path class="st0" d="M79.2,26.9c0.4,0,0.7-0.3,0.7-0.8c0-0.4-0.3-0.7-0.7-0.7c-0.4,0-0.7,0.3-0.7,0.7
			C78.4,26.6,78.8,26.9,79.2,26.9z"/>
	</g>
	<g>
		<path class="st0" d="M83.5,26.9c0.4,0,0.8-0.3,0.8-0.8c0-0.4-0.3-0.8-0.8-0.8c-0.4,0-0.8,0.3-0.8,0.8S83.1,26.9,83.5,26.9z"/>
	</g>
	<g>
		<path class="st0" d="M87.8,26.9c0.4,0,0.7-0.3,0.7-0.8c0-0.4-0.3-0.7-0.7-0.7c-0.4,0-0.7,0.3-0.7,0.7
			C87.1,26.6,87.4,26.9,87.8,26.9z"/>
	</g>
	<g>
		<path class="st0" d="M92.1,26.9c0.4,0,0.7-0.3,0.7-0.7c0-0.4-0.3-0.7-0.7-0.7c-0.4,0-0.7,0.3-0.7,0.7S91.7,26.9,92.1,26.9z"/>
	</g>
	<g>
		<path class="st0" d="M96.4,26.8c0.4,0,0.7-0.3,0.7-0.6c0-0.3-0.3-0.6-0.7-0.6c-0.4,0-0.6,0.3-0.6,0.6S96,26.8,96.4,26.8z"/>
	</g>
	<g>
		<path class="st0" d="M100.7,26.7c0.3,0,0.6-0.2,0.6-0.5s-0.2-0.5-0.6-0.5c-0.3,0-0.6,0.3-0.6,0.5
			C100.2,26.5,100.4,26.7,100.7,26.7z"/>
	</g>
	<g>
		<path class="st0" d="M105,26.6c0.2,0,0.4-0.2,0.4-0.4c0-0.2-0.2-0.4-0.4-0.4c-0.2,0-0.4,0.2-0.4,0.4S104.8,26.6,105,26.6z"/>
	</g>
	<g>
		<path class="st0" d="M109.3,26.4c0.2,0,0.3-0.1,0.3-0.3c0-0.2-0.1-0.3-0.3-0.3c-0.1,0-0.3,0.1-0.3,0.3S109.2,26.4,109.3,26.4z"/>
	</g>
	<g>
		<path class="st0" d="M113.6,26.3c0.1,0,0.1,0,0.1-0.1c0,0,0-0.1-0.1-0.1s-0.1,0.1-0.1,0.1C113.5,26.2,113.6,26.3,113.6,26.3z"/>
	</g>
	<g>
		<path class="st0" d="M49.1,30.6c0.1,0,0.1-0.1,0.1-0.1c0-0.1,0-0.1-0.1-0.1s-0.1,0-0.1,0.1C49,30.5,49,30.6,49.1,30.6z"/>
	</g>
	<g>
		<path class="st0" d="M53.4,30.8c0.2,0,0.4-0.2,0.4-0.4c0-0.2-0.2-0.4-0.4-0.4S53,30.2,53,30.4C53,30.7,53.2,30.8,53.4,30.8z"/>
	</g>
	<g>
		<circle class="st0" cx="57.7" cy="30.5" r="0.5"/>
	</g>
	<g>
		<path class="st0" d="M62,31.2c0.4,0,0.7-0.3,0.7-0.7c0-0.4-0.3-0.7-0.7-0.7s-0.7,0.3-0.7,0.7C61.3,30.9,61.6,31.2,62,31.2z"/>
	</g>
	<g>
		<path class="st0" d="M66.3,31.3c0.5,0,0.8-0.4,0.8-0.8c0-0.5-0.4-0.8-0.8-0.8s-0.8,0.4-0.8,0.8C65.4,31,65.8,31.3,66.3,31.3z"/>
	</g>
	<g>
		<path class="st0" d="M70.6,31.5c0.5,0,1-0.4,1-1c0-0.5-0.4-1-1-1c-0.5,0-1,0.4-1,1C69.6,31,70,31.5,70.6,31.5z"/>
	</g>
	<g>
		<path class="st0" d="M74.9,31.5c0.6,0,1-0.5,1-1c0-0.6-0.5-1-1-1c-0.6,0-1,0.5-1,1C73.8,31,74.3,31.5,74.9,31.5z"/>
	</g>
	<g>
		<path class="st0" d="M79.2,31.6c0.6,0,1.1-0.5,1.1-1.1s-0.5-1.1-1.1-1.1s-1.1,0.5-1.1,1.1S78.6,31.6,79.2,31.6z"/>
	</g>
	<g>
		<path class="st0" d="M83.5,31.6c0.6,0,1.1-0.5,1.1-1.1s-0.5-1.1-1.1-1.1s-1.1,0.5-1.1,1.1S82.9,31.6,83.5,31.6z"/>
	</g>
	<g>
		<path class="st0" d="M87.8,31.6c0.6,0,1.1-0.5,1.1-1.1s-0.5-1.1-1.1-1.1s-1.1,0.5-1.1,1.1C86.7,31.1,87.2,31.6,87.8,31.6z"/>
	</g>
	<g>
		<path class="st0" d="M92.1,31.5c0.6,0,1.1-0.5,1.1-1.1s-0.5-1.1-1.1-1.1S91,29.8,91,30.4C91,31.1,91.5,31.5,92.1,31.5z"/>
	</g>
	<g>
		<path class="st0" d="M96.4,31.5c0.6,0,1-0.5,1-1c0-0.6-0.4-1-1-1s-1,0.5-1,1S95.9,31.5,96.4,31.5z"/>
	</g>
	<g>
		<path class="st0" d="M100.7,31.4c0.5,0,0.9-0.4,0.9-0.9s-0.4-0.9-0.9-0.9s-0.9,0.4-0.9,0.9C99.8,31,100.2,31.4,100.7,31.4z"/>
	</g>
	<g>
		<path class="st0" d="M105,31.2c0.4,0,0.8-0.3,0.8-0.8c0-0.4-0.4-0.8-0.8-0.8s-0.8,0.3-0.8,0.8C104.3,30.9,104.6,31.2,105,31.2z"/>
	</g>
	<g>
		<path class="st0" d="M109.3,31.1c0.3,0,0.6-0.3,0.6-0.6c0-0.4-0.3-0.6-0.6-0.6c-0.3,0-0.6,0.3-0.6,0.6
			C108.7,30.8,109,31.1,109.3,31.1z"/>
	</g>
	<g>
		<path class="st0" d="M113.6,30.9c0.2,0,0.4-0.2,0.4-0.4c0-0.3-0.2-0.4-0.4-0.4c-0.3,0-0.4,0.2-0.4,0.4
			C113.2,30.7,113.4,30.9,113.6,30.9z"/>
	</g>
	<g>
		<path class="st0" d="M117.9,30.7c0.1,0,0.2-0.1,0.2-0.2s-0.1-0.2-0.2-0.2s-0.2,0.1-0.2,0.2C117.7,30.6,117.8,30.7,117.9,30.7z"/>
	</g>
	<g>
		<path class="st0" d="M44.7,34.9c0.1,0,0.2-0.1,0.2-0.2c0-0.1-0.1-0.1-0.2-0.1c-0.1,0-0.2,0.1-0.2,0.1
			C44.6,34.9,44.7,34.9,44.7,34.9z"/>
	</g>
	<g>
		<path class="st0" d="M49.1,35.2c0.2,0,0.4-0.2,0.4-0.4s-0.2-0.4-0.4-0.4s-0.4,0.2-0.4,0.4C48.6,35,48.8,35.2,49.1,35.2z"/>
	</g>
	<g>
		<path class="st0" d="M53.4,35.4c0.4,0,0.6-0.3,0.6-0.7c0-0.3-0.3-0.6-0.6-0.6c-0.4,0-0.6,0.3-0.6,0.6C52.7,35.1,53,35.4,53.4,35.4
			z"/>
	</g>
	<g>
		<path class="st0" d="M57.7,35.6c0.5,0,0.8-0.4,0.8-0.9c0-0.4-0.4-0.8-0.8-0.8c-0.5,0-0.8,0.4-0.8,0.8
			C56.8,35.2,57.2,35.6,57.7,35.6z"/>
	</g>
	<g>
		<path class="st0" d="M62,35.8c0.6,0,1-0.5,1-1.1c0-0.5-0.5-1-1-1s-1,0.5-1,1C61,35.4,61.4,35.8,62,35.8z"/>
	</g>
	<g>
		<path class="st0" d="M66.3,35.9c0.6,0,1.2-0.5,1.2-1.2c0-0.6-0.5-1.1-1.2-1.1c-0.6,0-1.2,0.5-1.2,1.1
			C65.1,35.4,65.6,35.9,66.3,35.9z"/>
	</g>
	<g>
		<path class="st0" d="M70.6,36.1c0.7,0,1.3-0.6,1.3-1.3s-0.6-1.3-1.3-1.3c-0.7,0-1.3,0.6-1.3,1.3C69.3,35.5,69.9,36.1,70.6,36.1z"
			/>
	</g>
	<g>
		<path class="st0" d="M74.9,36.1c0.7,0,1.3-0.6,1.3-1.4c0-0.7-0.6-1.3-1.3-1.3c-0.7,0-1.3,0.6-1.3,1.3
			C73.5,35.5,74.1,36.1,74.9,36.1z"/>
	</g>
	<g>
		<path class="st0" d="M79.2,36.2c0.8,0,1.4-0.6,1.4-1.4c0-0.8-0.6-1.4-1.4-1.4s-1.4,0.6-1.4,1.4C77.8,35.6,78.4,36.2,79.2,36.2z"/>
	</g>
	<g>
		<path class="st0" d="M83.5,36.2c0.8,0,1.4-0.6,1.4-1.5c0-0.8-0.6-1.4-1.4-1.4s-1.4,0.6-1.4,1.4C82.1,35.6,82.7,36.2,83.5,36.2z"/>
	</g>
	<g>
		<path class="st0" d="M87.8,36.2c0.8,0,1.4-0.6,1.4-1.4c0-0.8-0.6-1.4-1.4-1.4s-1.4,0.6-1.4,1.4C86.4,35.6,87,36.2,87.8,36.2z"/>
	</g>
	<g>
		<path class="st0" d="M92.1,36.2c0.8,0,1.4-0.6,1.4-1.4c0-0.7-0.6-1.4-1.4-1.4s-1.4,0.6-1.4,1.4C90.7,35.5,91.3,36.2,92.1,36.2z"/>
	</g>
	<g>
		<path class="st0" d="M96.4,36.1c0.7,0,1.3-0.6,1.3-1.3s-0.6-1.3-1.3-1.3c-0.7,0-1.3,0.6-1.3,1.3S95.7,36.1,96.4,36.1z"/>
	</g>
	<g>
		<path class="st0" d="M100.7,36c0.7,0,1.2-0.5,1.2-1.2s-0.6-1.2-1.2-1.2c-0.7,0-1.2,0.5-1.2,1.2S100,36,100.7,36z"/>
	</g>
	<g>
		<path class="st0" d="M105,35.9c0.6,0,1.1-0.5,1.1-1.1s-0.5-1.1-1.1-1.1s-1.1,0.5-1.1,1.1S104.4,35.9,105,35.9z"/>
	</g>
	<g>
		<path class="st0" d="M109.3,35.7c0.5,0,0.9-0.4,0.9-1c0-0.5-0.4-0.9-0.9-0.9s-0.9,0.4-0.9,0.9C108.4,35.3,108.8,35.7,109.3,35.7z"
			/>
	</g>
	<g>
		<path class="st0" d="M113.6,35.5c0.4,0,0.7-0.3,0.7-0.8c0-0.4-0.3-0.7-0.7-0.7c-0.4,0-0.8,0.3-0.8,0.7
			C112.9,35.2,113.2,35.5,113.6,35.5z"/>
	</g>
	<g>
		<path class="st0" d="M117.9,35.3c0.3,0,0.5-0.2,0.5-0.5s-0.2-0.5-0.5-0.5s-0.5,0.2-0.5,0.5S117.6,35.3,117.9,35.3z"/>
	</g>
	<g>
		<path class="st0" d="M122.2,35.1c0.2,0,0.3-0.1,0.3-0.3c0-0.1-0.1-0.3-0.3-0.3c-0.2,0-0.3,0.1-0.3,0.3
			C121.9,34.9,122.1,35.1,122.2,35.1z"/>
	</g>
	<g>
		<path class="st0" d="M126.5,34.8C126.6,34.8,126.6,34.8,126.5,34.8C126.6,34.8,126.6,34.7,126.5,34.8
			C126.5,34.7,126.5,34.8,126.5,34.8L126.5,34.8z"/>
	</g>
	<g>
		<path class="st0" d="M40.5,39.2c0.1,0,0.2-0.1,0.2-0.2c0-0.1-0.1-0.2-0.2-0.2c-0.1,0-0.2,0.1-0.2,0.2
			C40.3,39.2,40.4,39.2,40.5,39.2z"/>
	</g>
	<g>
		<path class="st0" d="M44.7,39.5c0.3,0,0.4-0.2,0.4-0.4s-0.2-0.4-0.4-0.4s-0.4,0.2-0.4,0.4S44.5,39.5,44.7,39.5z"/>
	</g>
	<g>
		<path class="st0" d="M49.1,39.8c0.4,0,0.7-0.3,0.7-0.7s-0.3-0.7-0.7-0.7s-0.7,0.3-0.7,0.7C48.4,39.5,48.7,39.8,49.1,39.8z"/>
	</g>
	<g>
		<path class="st0" d="M53.4,40c0.5,0,0.9-0.5,0.9-1s-0.4-0.9-0.9-0.9s-0.9,0.4-0.9,0.9C52.4,39.6,52.8,40,53.4,40z"/>
	</g>
	<g>
		<path class="st0" d="M57.7,40.2c0.6,0,1.1-0.5,1.1-1.1S58.3,38,57.7,38s-1.1,0.5-1.1,1.1C56.5,39.7,57.1,40.2,57.7,40.2z"/>
	</g>
	<g>
		<path class="st0" d="M62,40.4c0.8,0,1.3-0.6,1.3-1.3s-0.6-1.3-1.3-1.3s-1.3,0.6-1.3,1.3C60.6,39.8,61.2,40.4,62,40.4z"/>
	</g>
	<g>
		<path class="st0" d="M66.3,40.6c0.8,0,1.5-0.7,1.5-1.5s-0.7-1.4-1.5-1.4s-1.5,0.6-1.5,1.4S65.5,40.6,66.3,40.6z"/>
	</g>
	<g>
		<path class="st0" d="M70.6,40.7c0.9,0,1.6-0.7,1.6-1.6c0-0.9-0.7-1.6-1.6-1.6S69,38.2,69,39.1S69.7,40.7,70.6,40.7z"/>
	</g>
	<g>
		<path class="st0" d="M74.9,40.7c0.9,0,1.6-0.7,1.6-1.6c0-0.9-0.7-1.6-1.6-1.6s-1.7,0.7-1.7,1.6C73.2,40,74,40.7,74.9,40.7z"/>
	</g>
	<g>
		<path class="st0" d="M79.2,40.8c0.9,0,1.7-0.7,1.7-1.7c0-0.9-0.8-1.7-1.7-1.7c-1,0-1.7,0.8-1.7,1.7S78.2,40.8,79.2,40.8z"/>
	</g>
	<g>
		<path class="st0" d="M83.5,40.8c1,0,1.7-0.8,1.7-1.7s-0.8-1.7-1.7-1.7c-0.9,0-1.7,0.8-1.7,1.7S82.5,40.8,83.5,40.8z"/>
	</g>
	<g>
		<path class="st0" d="M87.8,40.8c1,0,1.7-0.7,1.7-1.7c0-0.9-0.8-1.7-1.7-1.7c-0.9,0-1.7,0.8-1.7,1.7C86.1,40,86.9,40.8,87.8,40.8z"
			/>
	</g>
	<g>
		<path class="st0" d="M92.1,40.8c0.9,0,1.7-0.8,1.7-1.7s-0.8-1.7-1.7-1.7c-0.9,0-1.7,0.8-1.7,1.7S91.2,40.8,92.1,40.8z"/>
	</g>
	<g>
		<path class="st0" d="M96.4,40.7c0.9,0,1.6-0.7,1.6-1.6c0-0.9-0.7-1.6-1.6-1.6s-1.6,0.7-1.6,1.6S95.5,40.7,96.4,40.7z"/>
	</g>
	<g>
		<path class="st0" d="M100.7,40.6c0.8,0,1.5-0.7,1.5-1.5s-0.7-1.5-1.5-1.5s-1.5,0.6-1.5,1.5C99.2,39.9,99.9,40.6,100.7,40.6z"/>
	</g>
	<g>
		<ellipse class="st0" cx="105" cy="39.1" rx="1.4" ry="1.4"/>
	</g>
	<g>
		<ellipse class="st0" cx="109.3" cy="39.1" rx="1.2" ry="1.2"/>
	</g>
	<g>
		<path class="st0" d="M113.6,40.1c0.6,0,1-0.5,1-1.1s-0.5-1.1-1-1.1c-0.6,0-1,0.5-1,1.1S113,40.1,113.6,40.1z"/>
	</g>
	<g>
		<path class="st0" d="M117.9,39.9c0.5,0,0.8-0.4,0.8-0.8c0-0.5-0.4-0.8-0.8-0.8c-0.5,0-0.8,0.4-0.8,0.8S117.5,39.9,117.9,39.9z"/>
	</g>
	<g>
		<path class="st0" d="M122.2,39.6c0.3,0,0.6-0.2,0.6-0.6c0-0.3-0.3-0.6-0.6-0.6c-0.3,0-0.6,0.3-0.6,0.6
			C121.7,39.4,121.9,39.6,122.2,39.6z"/>
	</g>
	<g>
		<path class="st0" d="M126.5,39.4c0.2,0,0.3-0.1,0.3-0.3s-0.1-0.3-0.3-0.3c-0.2,0-0.3,0.1-0.3,0.3
			C126.2,39.2,126.4,39.4,126.5,39.4z"/>
	</g>
	<g>
		<path class="st0" d="M130.8,39.1L130.8,39.1C130.9,39.1,130.9,39,130.8,39.1C130.8,39,130.8,39.1,130.8,39.1L130.8,39.1z"/>
	</g>
	<g>
		<path class="st0" d="M36.1,43.5C36.2,43.5,36.2,43.4,36.1,43.5c0.1-0.2,0.1-0.2,0-0.2C36.1,43.3,36,43.3,36.1,43.5
			C36,43.4,36.1,43.5,36.1,43.5z"/>
	</g>
	<g>
		<path class="st0" d="M40.5,43.8c0.2,0,0.4-0.2,0.4-0.4c0-0.3-0.2-0.4-0.4-0.4s-0.4,0.2-0.4,0.4C40,43.6,40.2,43.8,40.5,43.8z"/>
	</g>
	<g>
		<path class="st0" d="M44.7,44.1c0.4,0,0.7-0.3,0.7-0.7s-0.3-0.7-0.7-0.7S44,43,44,43.4C44.1,43.8,44.4,44.1,44.7,44.1z"/>
	</g>
	<g>
		<path class="st0" d="M49.1,44.3c0.5,0,1-0.4,1-1c0-0.5-0.4-1-1-1c-0.5,0-1,0.5-1,1C48.1,43.9,48.5,44.3,49.1,44.3z"/>
	</g>
	<g>
		<path class="st0" d="M53.4,44.6c0.7,0,1.2-0.5,1.2-1.2s-0.5-1.2-1.2-1.2s-1.2,0.5-1.2,1.2C52.2,44,52.7,44.6,53.4,44.6z"/>
	</g>
	<g>
		<path class="st0" d="M57.7,44.8c0.8,0,1.4-0.6,1.4-1.4c0-0.8-0.6-1.4-1.4-1.4c-0.8,0-1.4,0.6-1.4,1.4S56.9,44.8,57.7,44.8z"/>
	</g>
	<g>
		<path class="st0" d="M62,44.9c0.9,0,1.6-0.7,1.6-1.5c0-0.9-0.7-1.6-1.6-1.6c-0.9,0-1.6,0.7-1.6,1.6C60.4,44.2,61.1,44.9,62,44.9z"
			/>
	</g>
	<g>
		<path class="st0" d="M66.3,45.1c0.9,0,1.7-0.8,1.7-1.7s-0.8-1.7-1.7-1.7c-0.9,0-1.7,0.8-1.7,1.7C64.6,44.3,65.3,45.1,66.3,45.1z"
			/>
	</g>
	<g>
		<path class="st0" d="M70.6,45.2c1,0,1.8-0.8,1.8-1.8s-0.8-1.8-1.8-1.8s-1.8,0.8-1.8,1.8C68.8,44.4,69.6,45.2,70.6,45.2z"/>
	</g>
	<g>
		<path class="st0" d="M74.9,45.3c1,0,1.9-0.8,1.9-1.9c0-1.1-0.8-1.9-1.9-1.9S73,42.3,73,43.4C73,44.4,73.8,45.3,74.9,45.3z"/>
	</g>
	<g>
		<path class="st0" d="M79.2,45.3c1.1,0,2-0.9,2-1.9c0-1.1-0.9-2-2-2s-2,0.9-2,2C77.2,44.5,78.1,45.3,79.2,45.3z"/>
	</g>
	<g>
		<path class="st0" d="M83.5,45.3c1.1,0,2-0.9,2-1.9c0-1.1-0.9-2-2-2s-2,0.9-2,2C81.5,44.5,82.4,45.3,83.5,45.3z"/>
	</g>
	<g>
		<path class="st0" d="M87.8,45.3c1.1,0,2-0.9,2-1.9c0-1.1-0.9-2-2-2s-2,0.9-2,2C85.8,44.5,86.7,45.3,87.8,45.3z"/>
	</g>
	<g>
		<path class="st0" d="M92.1,45.3c1.1,0,1.9-0.9,1.9-1.9c0-1.1-0.9-1.9-1.9-1.9c-1.1,0-1.9,0.8-1.9,1.9S91,45.3,92.1,45.3z"/>
	</g>
	<g>
		<path class="st0" d="M96.4,45.2c1,0,1.9-0.8,1.9-1.8s-0.8-1.9-1.9-1.9c-1,0-1.9,0.8-1.9,1.9C94.5,44.4,95.4,45.2,96.4,45.2z"/>
	</g>
	<g>
		<path class="st0" d="M100.7,45.1c1,0,1.8-0.8,1.8-1.8s-0.8-1.8-1.8-1.8s-1.8,0.8-1.8,1.8C98.9,44.3,99.7,45.1,100.7,45.1z"/>
	</g>
	<g>
		<path class="st0" d="M105,45c0.9,0,1.6-0.7,1.6-1.6c0-0.9-0.7-1.6-1.6-1.6s-1.6,0.7-1.6,1.6S104.1,45,105,45z"/>
	</g>
	<g>
		<path class="st0" d="M109.3,44.9c0.8,0,1.5-0.7,1.5-1.5s-0.7-1.5-1.5-1.5s-1.5,0.7-1.5,1.5S108.5,44.9,109.3,44.9z"/>
	</g>
	<g>
		<path class="st0" d="M113.6,44.7c0.7,0,1.3-0.6,1.3-1.3s-0.6-1.3-1.3-1.3c-0.7,0-1.3,0.6-1.3,1.3
			C112.3,44.1,112.9,44.7,113.6,44.7z"/>
	</g>
	<g>
		<path class="st0" d="M117.9,44.5c0.6,0,1.1-0.5,1.1-1.1s-0.5-1.1-1.1-1.1s-1.1,0.5-1.1,1.1C116.9,44,117.3,44.5,117.9,44.5z"/>
	</g>
	<g>
		<path class="st0" d="M122.2,44.2c0.5,0,0.8-0.4,0.8-0.8c0-0.5-0.4-0.9-0.8-0.9c-0.5,0-0.8,0.4-0.8,0.9
			C121.4,43.8,121.8,44.2,122.2,44.2z"/>
	</g>
	<g>
		<path class="st0" d="M126.5,43.9c0.3,0,0.6-0.3,0.6-0.5c0-0.3-0.3-0.6-0.6-0.6c-0.3,0-0.6,0.3-0.6,0.6
			C126,43.7,126.2,43.9,126.5,43.9z"/>
	</g>
	<g>
		<path class="st0" d="M130.8,43.7c0.1,0,0.3-0.1,0.3-0.3s-0.1-0.3-0.3-0.3c-0.1,0-0.3,0.1-0.3,0.3
			C130.6,43.5,130.7,43.7,130.8,43.7z"/>
	</g>
	<g>
		<path class="st0" d="M36.1,48.1c0.2,0,0.4-0.2,0.4-0.4s-0.1-0.4-0.4-0.4c-0.2,0-0.4,0.2-0.4,0.4C35.8,47.9,35.9,48.1,36.1,48.1z"
			/>
	</g>
	<g>
		<path class="st0" d="M40.5,48.3c0.4,0,0.6-0.3,0.6-0.7S40.8,47,40.5,47c-0.4,0-0.7,0.3-0.7,0.6C39.8,48,40.1,48.3,40.5,48.3z"/>
	</g>
	<g>
		<path class="st0" d="M44.7,48.6c0.5,0,1-0.4,1-0.9s-0.4-1-1-1c-0.5,0-0.9,0.4-0.9,1C43.8,48.2,44.2,48.6,44.7,48.6z"/>
	</g>
	<g>
		<path class="st0" d="M49.1,48.9c0.7,0,1.2-0.5,1.2-1.2s-0.5-1.2-1.2-1.2s-1.2,0.5-1.2,1.2C47.9,48.3,48.4,48.9,49.1,48.9z"/>
	</g>
	<g>
		<circle class="st0" cx="53.4" cy="47.7" r="1.4"/>
	</g>
	<g>
		<path class="st0" d="M57.7,49.3c0.9,0,1.6-0.7,1.6-1.6c0-0.9-0.7-1.6-1.6-1.6c-0.9,0-1.6,0.7-1.6,1.6C56,48.6,56.8,49.3,57.7,49.3
			z"/>
	</g>
	<g>
		<path class="st0" d="M62,49.5c1,0,1.8-0.8,1.8-1.8S63,45.9,62,45.9s-1.8,0.8-1.8,1.8S61,49.5,62,49.5z"/>
	</g>
	<g>
		<path class="st0" d="M66.3,49.6c1.1,0,1.9-0.9,1.9-1.9c0-1.1-0.9-1.9-1.9-1.9c-1.1,0-1.9,0.9-1.9,1.9
			C64.3,48.7,65.2,49.6,66.3,49.6z"/>
	</g>
	<g>
		<ellipse class="st0" cx="70.6" cy="47.7" rx="2.1" ry="2"/>
	</g>
	<g>
		<path class="st0" d="M74.9,49.8c1.2,0,2.1-1,2.1-2.1c0-1.2-1-2.1-2.1-2.1c-1.2,0-2.1,0.9-2.1,2.1C72.7,48.9,73.7,49.8,74.9,49.8z"
			/>
	</g>
	<g>
		<path class="st0" d="M79.2,49.9c1.2,0,2.2-1,2.2-2.2s-1-2.2-2.2-2.2s-2.2,1-2.2,2.2S78,49.9,79.2,49.9z"/>
	</g>
	<g>
		<path class="st0" d="M83.5,49.9c1.2,0,2.2-1,2.2-2.2s-1-2.2-2.2-2.2s-2.2,1-2.2,2.2S82.3,49.9,83.5,49.9z"/>
	</g>
	<g>
		<path class="st0" d="M87.8,49.9c1.2,0,2.2-1,2.2-2.2s-1-2.2-2.2-2.2s-2.2,1-2.2,2.2C85.6,48.9,86.6,49.9,87.8,49.9z"/>
	</g>
	<g>
		<path class="st0" d="M92.1,49.8c1.2,0,2.2-1,2.2-2.2s-1-2.2-2.2-2.2s-2.2,1-2.2,2.2C89.9,48.9,90.9,49.8,92.1,49.8z"/>
	</g>
	<g>
		<path class="st0" d="M96.4,49.8c1.2,0,2.1-0.9,2.1-2.1c0-1.2-0.9-2.1-2.1-2.1s-2.1,0.9-2.1,2.1C94.3,48.9,95.2,49.8,96.4,49.8z"/>
	</g>
	<g>
		<path class="st0" d="M100.7,49.7c1.1,0,2-0.9,2-2s-0.9-2-2-2s-2,0.9-2,2S99.6,49.7,100.7,49.7z"/>
	</g>
	<g>
		<path class="st0" d="M105,49.5c1,0,1.9-0.8,1.9-1.9c0-1-0.8-1.9-1.9-1.9c-1,0-1.9,0.8-1.9,1.9S104,49.5,105,49.5z"/>
	</g>
	<g>
		<path class="st0" d="M109.3,49.4c0.9,0,1.7-0.8,1.7-1.7c0-1-0.8-1.7-1.7-1.7c-0.9,0-1.7,0.8-1.7,1.7
			C107.6,48.6,108.4,49.4,109.3,49.4z"/>
	</g>
	<g>
		<path class="st0" d="M113.6,49.2c0.8,0,1.5-0.7,1.5-1.5s-0.7-1.5-1.5-1.5s-1.5,0.7-1.5,1.5S112.8,49.2,113.6,49.2z"/>
	</g>
	<g>
		<path class="st0" d="M117.9,49c0.7,0,1.3-0.6,1.3-1.3s-0.6-1.3-1.3-1.3c-0.7,0-1.3,0.6-1.3,1.3S117.2,49,117.9,49z"/>
	</g>
	<g>
		<ellipse class="st0" cx="122.2" cy="47.7" rx="1.1" ry="1.1"/>
	</g>
	<g>
		<ellipse class="st0" cx="126.5" cy="47.7" rx="0.8" ry="0.8"/>
	</g>
	<g>
		<path class="st0" d="M130.8,48.2c0.3,0,0.5-0.2,0.5-0.5s-0.2-0.5-0.5-0.5s-0.5,0.2-0.5,0.5S130.6,48.2,130.8,48.2z"/>
	</g>
	<g>
		<path class="st0" d="M135.2,47.9c0.1,0,0.2-0.1,0.2-0.2c0-0.1-0.1-0.2-0.2-0.2c-0.1,0-0.2,0-0.2,0.2
			C135,47.8,135.1,47.9,135.2,47.9z"/>
	</g>
	<g>
		<path class="st0" d="M31.9,52.2c0.1,0,0.2-0.1,0.2-0.2c0-0.1-0.1-0.2-0.2-0.2s-0.2,0.1-0.2,0.2C31.6,52.1,31.7,52.2,31.9,52.2z"/>
	</g>
	<g>
		<path class="st0" d="M36.1,52.5c0.3,0,0.5-0.2,0.5-0.5s-0.2-0.5-0.5-0.5s-0.5,0.3-0.5,0.5C35.6,52.3,35.8,52.5,36.1,52.5z"/>
	</g>
	<g>
		<path class="st0" d="M40.5,52.8c0.5,0,0.8-0.4,0.8-0.8c0-0.5-0.4-0.8-0.8-0.8c-0.5,0-0.8,0.4-0.8,0.8C39.6,52.5,40,52.8,40.5,52.8
			z"/>
	</g>
	<g>
		<path class="st0" d="M44.7,53.1c0.6,0,1.1-0.5,1.1-1.1s-0.5-1.1-1.1-1.1s-1.1,0.5-1.1,1.1C43.6,52.6,44.1,53.1,44.7,53.1z"/>
	</g>
	<g>
		<path class="st0" d="M49.1,53.4c0.8,0,1.4-0.6,1.4-1.4c0-0.8-0.6-1.4-1.4-1.4c-0.8,0-1.4,0.6-1.4,1.4
			C47.6,52.8,48.3,53.4,49.1,53.4z"/>
	</g>
	<g>
		<path class="st0" d="M53.4,53.6c0.9,0,1.6-0.7,1.6-1.6c0-0.9-0.7-1.6-1.6-1.6c-0.9,0-1.6,0.7-1.6,1.6
			C51.7,52.9,52.5,53.6,53.4,53.6z"/>
	</g>
	<g>
		<path class="st0" d="M57.7,53.8c1,0,1.8-0.8,1.8-1.8s-0.8-1.8-1.8-1.8S55.9,51,55.9,52C55.8,53,56.7,53.8,57.7,53.8z"/>
	</g>
	<g>
		<path class="st0" d="M62,54c1.1,0,2-0.9,2-2s-0.9-2-2-2s-2,0.9-2,2S60.9,54,62,54z"/>
	</g>
	<g>
		<path class="st0" d="M66.3,54.1c1.2,0,2.2-1,2.2-2.2s-1-2.1-2.2-2.1s-2.2,1-2.2,2.1C64.1,53.2,65.1,54.1,66.3,54.1z"/>
	</g>
	<g>
		<path class="st0" d="M70.6,54.2c1.2,0,2.2-1,2.2-2.3c0-1.2-1-2.2-2.2-2.2s-2.2,1-2.2,2.2C68.3,53.2,69.3,54.2,70.6,54.2z"/>
	</g>
	<g>
		<path class="st0" d="M74.9,54.3c1.3,0,2.3-1.1,2.3-2.3c0-1.3-1-2.3-2.3-2.3s-2.3,1-2.3,2.3S73.6,54.3,74.9,54.3z"/>
	</g>
	<g>
		<path class="st0" d="M79.2,54.4c1.3,0,2.4-1.1,2.4-2.4c0-1.3-1.1-2.4-2.4-2.4s-2.4,1.1-2.4,2.4C76.8,53.3,77.9,54.4,79.2,54.4z"/>
	</g>
	<g>
		<path class="st0" d="M83.5,54.4c1.3,0,2.4-1.1,2.4-2.4c0-1.3-1.1-2.4-2.4-2.4s-2.4,1.1-2.4,2.4C81.1,53.3,82.2,54.4,83.5,54.4z"/>
	</g>
	<g>
		<path class="st0" d="M87.8,54.4c1.3,0,2.4-1.1,2.4-2.4c0-1.3-1.1-2.4-2.4-2.4s-2.4,1.1-2.4,2.4C85.4,53.3,86.5,54.4,87.8,54.4z"/>
	</g>
	<g>
		<path class="st0" d="M92.1,54.3c1.3,0,2.4-1.1,2.4-2.4c0-1.3-1.1-2.3-2.4-2.3s-2.4,1-2.4,2.3C89.7,53.3,90.8,54.3,92.1,54.3z"/>
	</g>
	<g>
		<path class="st0" d="M96.4,54.3c1.3,0,2.3-1,2.3-2.3s-1-2.3-2.3-2.3s-2.3,1-2.3,2.3C94.1,53.2,95.1,54.3,96.4,54.3z"/>
	</g>
	<g>
		<path class="st0" d="M100.7,54.2c1.2,0,2.2-1,2.2-2.2s-1-2.2-2.2-2.2s-2.2,1-2.2,2.2S99.5,54.2,100.7,54.2z"/>
	</g>
	<g>
		<path class="st0" d="M105,54.1c1.1,0,2.1-0.9,2.1-2.1c0-1.1-0.9-2.1-2.1-2.1c-1.1,0-2.1,0.9-2.1,2.1C103,53.1,103.9,54.1,105,54.1
			z"/>
	</g>
	<g>
		<path class="st0" d="M109.3,53.9c1.1,0,1.9-0.8,1.9-1.9c0-1.1-0.9-1.9-1.9-1.9c-1.1,0-1.9,0.9-1.9,1.9
			C107.4,53.1,108.3,53.9,109.3,53.9z"/>
	</g>
	<g>
		<path class="st0" d="M113.6,53.7c0.9,0,1.7-0.8,1.7-1.7s-0.8-1.7-1.7-1.7c-0.9,0-1.7,0.8-1.7,1.7S112.7,53.7,113.6,53.7z"/>
	</g>
	<g>
		<path class="st0" d="M117.9,53.5c0.8,0,1.5-0.7,1.5-1.5s-0.7-1.5-1.5-1.5s-1.5,0.7-1.5,1.5S117.1,53.5,117.9,53.5z"/>
	</g>
	<g>
		<path class="st0" d="M122.2,53.2c0.7,0,1.3-0.5,1.3-1.3c0-0.7-0.6-1.3-1.3-1.3c-0.7,0-1.3,0.6-1.3,1.3
			C121,52.7,121.5,53.2,122.2,53.2z"/>
	</g>
	<g>
		<path class="st0" d="M126.5,53c0.5,0,1-0.5,1-1s-0.5-1-1-1c-0.6,0-1,0.4-1,1C125.5,52.5,126,53,126.5,53z"/>
	</g>
	<g>
		<path class="st0" d="M130.8,52.7c0.4,0,0.7-0.3,0.7-0.7s-0.3-0.7-0.7-0.7s-0.7,0.3-0.7,0.7C130.2,52.4,130.5,52.7,130.8,52.7z"/>
	</g>
	<g>
		<path class="st0" d="M135.2,52.4c0.2,0,0.3-0.2,0.3-0.4s-0.2-0.4-0.3-0.4c-0.2,0-0.4,0.2-0.4,0.4S134.9,52.4,135.2,52.4z"/>
	</g>
	<g>
		<path class="st0" d="M139.5,52L139.5,52L139.5,52C139.5,52,139.4,52,139.5,52C139.4,52,139.4,52,139.5,52z"/>
	</g>
	<g>
		<path class="st0" d="M31.9,56.7c0.2,0,0.4-0.2,0.4-0.4s-0.2-0.4-0.4-0.4c-0.2,0-0.4,0.2-0.4,0.4S31.6,56.7,31.9,56.7z"/>
	</g>
	<g>
		<path class="st0" d="M36.1,57c0.4,0,0.7-0.3,0.7-0.7s-0.3-0.7-0.7-0.7s-0.7,0.3-0.7,0.7C35.4,56.7,35.8,57,36.1,57z"/>
	</g>
	<g>
		<path class="st0" d="M40.5,57.3c0.6,0,1-0.4,1-1c0-0.5-0.5-1-1-1c-0.6,0-1,0.5-1,1C39.4,56.9,39.9,57.3,40.5,57.3z"/>
	</g>
	<g>
		<path class="st0" d="M44.7,57.6c0.7,0,1.3-0.6,1.3-1.3S45.4,55,44.7,55s-1.3,0.6-1.3,1.3S44,57.6,44.7,57.6z"/>
	</g>
	<g>
		<path class="st0" d="M49.1,57.9c0.9,0,1.6-0.7,1.6-1.6c0-0.8-0.7-1.6-1.6-1.6c-0.9,0-1.6,0.7-1.6,1.6S48.2,57.9,49.1,57.9z"/>
	</g>
	<g>
		<path class="st0" d="M53.4,58.1c1,0,1.8-0.8,1.8-1.8s-0.8-1.8-1.8-1.8s-1.8,0.8-1.8,1.8C51.6,57.3,52.4,58.1,53.4,58.1z"/>
	</g>
	<g>
		<path class="st0" d="M57.7,58.3c1.1,0,2-0.9,2-2s-0.9-2-2-2s-2,0.9-2,2C55.7,57.4,56.6,58.3,57.7,58.3z"/>
	</g>
	<g>
		<path class="st0" d="M62,58.5c1.2,0,2.2-1,2.2-2.2s-1-2.2-2.2-2.2s-2.2,1-2.2,2.2C59.8,57.5,60.8,58.5,62,58.5z"/>
	</g>
	<g>
		<path class="st0" d="M66.3,58.6c1.3,0,2.3-1,2.3-2.3s-1-2.3-2.3-2.3S64,55,64,56.3S65,58.6,66.3,58.6z"/>
	</g>
	<g>
		<path class="st0" d="M70.6,58.7c1.3,0,2.4-1.1,2.4-2.4c0-1.3-1.1-2.4-2.4-2.4s-2.4,1.1-2.4,2.4C68.2,57.6,69.2,58.7,70.6,58.7z"/>
	</g>
	<g>
		<path class="st0" d="M74.9,58.8c1.4,0,2.5-1.1,2.5-2.5s-1.1-2.5-2.5-2.5s-2.5,1.1-2.5,2.5S73.5,58.8,74.9,58.8z"/>
	</g>
	<g>
		<path class="st0" d="M79.2,58.8c1.4,0,2.5-1.2,2.5-2.6c0-1.4-1.1-2.5-2.5-2.5s-2.6,1.1-2.6,2.5C76.6,57.7,77.8,58.8,79.2,58.8z"/>
	</g>
	<g>
		<path class="st0" d="M83.5,58.8c1.4,0,2.6-1.2,2.6-2.6c0-1.4-1.1-2.6-2.6-2.6c-1.4,0-2.6,1.2-2.6,2.6
			C80.9,57.7,82.1,58.8,83.5,58.8z"/>
	</g>
	<g>
		<path class="st0" d="M87.8,58.8c1.4,0,2.6-1.2,2.6-2.6c0-1.4-1.2-2.6-2.6-2.6s-2.5,1.2-2.5,2.6C85.2,57.7,86.4,58.8,87.8,58.8z"/>
	</g>
	<g>
		<path class="st0" d="M92.1,58.8c1.4,0,2.5-1.1,2.5-2.5s-1.1-2.5-2.5-2.5s-2.5,1.1-2.5,2.5S90.7,58.8,92.1,58.8z"/>
	</g>
	<g>
		<path class="st0" d="M96.4,58.7c1.4,0,2.5-1.1,2.5-2.5s-1.1-2.5-2.5-2.5s-2.5,1.1-2.5,2.5C93.9,57.6,95.1,58.7,96.4,58.7z"/>
	</g>
	<g>
		<path class="st0" d="M100.7,58.6c1.3,0,2.4-1,2.4-2.3S102,54,100.7,54s-2.3,1.1-2.3,2.3C98.4,57.6,99.4,58.6,100.7,58.6z"/>
	</g>
	<g>
		<path class="st0" d="M105,58.5c1.2,0,2.2-1,2.2-2.2s-1-2.2-2.2-2.2s-2.2,1-2.2,2.2S103.8,58.5,105,58.5z"/>
	</g>
	<g>
		<path class="st0" d="M109.3,58.4c1.2,0,2.1-1,2.1-2.1s-0.9-2.1-2.1-2.1s-2.1,1-2.1,2.1C107.2,57.4,108.2,58.4,109.3,58.4z"/>
	</g>
	<g>
		<path class="st0" d="M113.6,58.2c1.1,0,1.9-0.8,1.9-1.9c0-1-0.8-1.9-1.9-1.9s-1.9,0.9-1.9,1.9S112.6,58.2,113.6,58.2z"/>
	</g>
	<g>
		<path class="st0" d="M117.9,58c0.9,0,1.7-0.8,1.7-1.7s-0.7-1.6-1.7-1.6c-0.9,0-1.7,0.7-1.7,1.6C116.3,57.2,117,58,117.9,58z"/>
	</g>
	<g>
		<path class="st0" d="M122.2,57.7c0.8,0,1.4-0.6,1.4-1.4c0-0.8-0.7-1.4-1.4-1.4c-0.8,0-1.4,0.6-1.4,1.4
			C120.8,57.1,121.5,57.7,122.2,57.7z"/>
	</g>
	<g>
		<path class="st0" d="M126.5,57.4c0.6,0,1.2-0.5,1.2-1.2c0-0.6-0.5-1.2-1.2-1.2c-0.6,0-1.2,0.5-1.2,1.2
			C125.4,56.9,125.9,57.4,126.5,57.4z"/>
	</g>
	<g>
		<path class="st0" d="M130.8,57.2c0.5,0,0.9-0.4,0.9-0.9s-0.4-0.8-0.9-0.8s-0.9,0.4-0.9,0.8C130,56.8,130.4,57.2,130.8,57.2z"/>
	</g>
	<g>
		<path class="st0" d="M135.2,56.8c0.3,0,0.5-0.2,0.5-0.5s-0.3-0.5-0.5-0.5c-0.3,0-0.5,0.2-0.5,0.5
			C134.6,56.6,134.9,56.8,135.2,56.8z"/>
	</g>
	<g>
		<path class="st0" d="M139.5,56.5c0.1,0,0.2-0.1,0.2-0.2c0-0.1-0.1-0.2-0.2-0.2c-0.1,0-0.2,0.1-0.2,0.2S139.4,56.5,139.5,56.5z"/>
	</g>
	<g>
		<path class="st0" d="M27.5,60.7c0.1,0,0.1,0,0.1-0.1s-0.1-0.1-0.1-0.1c-0.1,0-0.1,0.1-0.1,0.1C27.4,60.7,27.5,60.7,27.5,60.7z"/>
	</g>
	<g>
		<path class="st0" d="M31.9,61.1c0.3,0,0.5-0.2,0.5-0.5s-0.2-0.5-0.5-0.5s-0.5,0.2-0.5,0.5C31.3,60.9,31.6,61.1,31.9,61.1z"/>
	</g>
	<g>
		<path class="st0" d="M36.1,61.4c0.5,0,0.9-0.4,0.9-0.8c0-0.5-0.4-0.9-0.9-0.9s-0.8,0.4-0.8,0.9C35.3,61.1,35.7,61.4,36.1,61.4z"/>
	</g>
	<g>
		<path class="st0" d="M40.5,61.8c0.6,0,1.2-0.5,1.2-1.2s-0.5-1.2-1.2-1.2s-1.2,0.5-1.2,1.2C39.3,61.2,39.8,61.8,40.5,61.8z"/>
	</g>
	<g>
		<path class="st0" d="M44.7,62c0.8,0,1.5-0.6,1.5-1.4c0-0.8-0.6-1.5-1.5-1.5c-0.8,0-1.4,0.7-1.4,1.5C43.3,61.4,43.9,62,44.7,62z"/>
	</g>
	<g>
		<path class="st0" d="M49.1,62.3c0.9,0,1.7-0.7,1.7-1.7s-0.8-1.7-1.7-1.7s-1.7,0.8-1.7,1.7C47.3,61.5,48.1,62.3,49.1,62.3z"/>
	</g>
	<g>
		<path class="st0" d="M53.4,62.5c1.1,0,1.9-0.9,1.9-1.9c0-1.1-0.9-2-1.9-2c-1.1,0-1.9,0.9-1.9,2C51.4,61.7,52.3,62.5,53.4,62.5z"/>
	</g>
	<g>
		<path class="st0" d="M57.7,62.7c1.2,0,2.2-1,2.2-2.1c0-1.2-1-2.2-2.2-2.2s-2.1,0.9-2.1,2.2C55.5,61.8,56.5,62.7,57.7,62.7z"/>
	</g>
	<g>
		<path class="st0" d="M62,62.9c1.3,0,2.3-1,2.3-2.3s-1-2.3-2.3-2.3s-2.3,1-2.3,2.3C59.7,61.9,60.7,62.9,62,62.9z"/>
	</g>
	<g>
		<path class="st0" d="M66.3,63c1.4,0,2.4-1.1,2.4-2.4c0-1.4-1.1-2.5-2.4-2.5c-1.4,0-2.5,1.1-2.5,2.5C63.8,61.9,64.9,63,66.3,63z"/>
	</g>
	<g>
		<path class="st0" d="M70.6,63.2c1.4,0,2.6-1.2,2.6-2.6c0-1.4-1.1-2.6-2.6-2.6c-1.4,0-2.6,1.1-2.6,2.6C68,62,69.2,63.2,70.6,63.2z"
			/>
	</g>
	<g>
		<path class="st0" d="M74.9,63.2c1.4,0,2.6-1.2,2.6-2.6c0-1.5-1.2-2.6-2.6-2.6c-1.5,0-2.6,1.2-2.6,2.6S73.4,63.2,74.9,63.2z"/>
	</g>
	<g>
		<path class="st0" d="M79.2,63.2c1.5,0,2.7-1.2,2.7-2.6c0-1.5-1.2-2.7-2.7-2.7s-2.7,1.2-2.7,2.7C76.5,62.1,77.7,63.2,79.2,63.2z"/>
	</g>
	<g>
		<path class="st0" d="M83.5,63.3c1.5,0,2.7-1.2,2.7-2.7s-1.2-2.7-2.7-2.7s-2.7,1.2-2.7,2.7S82,63.3,83.5,63.3z"/>
	</g>
	<g>
		<path class="st0" d="M87.8,63.3c1.5,0,2.7-1.2,2.7-2.7s-1.2-2.7-2.7-2.7s-2.7,1.2-2.7,2.7C85.1,62.1,86.3,63.3,87.8,63.3z"/>
	</g>
	<g>
		<path class="st0" d="M92.1,63.2c1.5,0,2.6-1.2,2.6-2.6c0-1.5-1.2-2.6-2.6-2.6s-2.6,1.2-2.6,2.6S90.7,63.2,92.1,63.2z"/>
	</g>
	<g>
		<path class="st0" d="M96.4,63.2c1.4,0,2.6-1.2,2.6-2.6c0-1.4-1.2-2.6-2.6-2.6s-2.6,1.2-2.6,2.6S95,63.2,96.4,63.2z"/>
	</g>
	<g>
		<path class="st0" d="M100.7,63.1c1.4,0,2.5-1.1,2.5-2.5s-1.1-2.5-2.5-2.5s-2.5,1.1-2.5,2.5C98.2,61.9,99.3,63.1,100.7,63.1z"/>
	</g>
	<g>
		<path class="st0" d="M105,62.9c1.3,0,2.4-1,2.4-2.3s-1.1-2.4-2.4-2.4s-2.4,1.1-2.4,2.4C102.7,61.9,103.7,62.9,105,62.9z"/>
	</g>
	<g>
		<path class="st0" d="M109.3,62.8c1.2,0,2.2-1,2.2-2.2s-1-2.2-2.2-2.2s-2.2,1-2.2,2.2C107.1,61.8,108.1,62.8,109.3,62.8z"/>
	</g>
	<g>
		<path class="st0" d="M113.6,62.6c1.1,0,2-0.9,2-2s-0.9-2.1-2-2.1s-2,0.9-2,2.1C111.6,61.7,112.5,62.6,113.6,62.6z"/>
	</g>
	<g>
		<path class="st0" d="M117.9,62.4c1,0,1.8-0.8,1.8-1.8s-0.8-1.8-1.8-1.8s-1.8,0.8-1.8,1.8C116.1,61.6,116.9,62.4,117.9,62.4z"/>
	</g>
	<g>
		<path class="st0" d="M122.2,62.2c0.9,0,1.6-0.7,1.6-1.6c0-0.9-0.7-1.6-1.6-1.6s-1.6,0.7-1.6,1.6C120.7,61.5,121.4,62.2,122.2,62.2
			z"/>
	</g>
	<g>
		<path class="st0" d="M126.5,61.9c0.7,0,1.3-0.6,1.3-1.3s-0.6-1.3-1.3-1.3c-0.7,0-1.3,0.6-1.3,1.3
			C125.2,61.3,125.8,61.9,126.5,61.9z"/>
	</g>
	<g>
		<path class="st0" d="M130.8,61.6c0.5,0,1-0.5,1-1c0-0.6-0.5-1-1-1c-0.6,0-1,0.5-1,1S130.3,61.6,130.8,61.6z"/>
	</g>
	<g>
		<path class="st0" d="M135.2,61.3c0.3,0,0.7-0.3,0.7-0.7s-0.3-0.7-0.7-0.7s-0.7,0.3-0.7,0.7S134.8,61.3,135.2,61.3z"/>
	</g>
	<g>
		<path class="st0" d="M139.5,60.9c0.2,0,0.3-0.2,0.3-0.3c0-0.2-0.1-0.3-0.3-0.3s-0.3,0.1-0.3,0.3C139.2,60.7,139.3,60.9,139.5,60.9
			z"/>
	</g>
	<g>
		<path class="st0" d="M27.5,65.1c0.1,0,0.2-0.1,0.2-0.3c0-0.1-0.1-0.2-0.2-0.2s-0.2,0.1-0.2,0.2C27.3,65,27.4,65.1,27.5,65.1z"/>
	</g>
	<g>
		<path class="st0" d="M31.9,65.5c0.3,0,0.6-0.3,0.6-0.6c0-0.3-0.3-0.6-0.6-0.6c-0.3,0-0.6,0.3-0.6,0.6
			C31.2,65.2,31.5,65.5,31.9,65.5z"/>
	</g>
	<g>
		<path class="st0" d="M36.1,65.9c0.5,0,1-0.4,1-1c0-0.5-0.4-1-1-1c-0.5,0-1,0.4-1,1C35.2,65.4,35.6,65.9,36.1,65.9z"/>
	</g>
	<g>
		<path class="st0" d="M40.5,66.2c0.7,0,1.3-0.6,1.3-1.3c0-0.7-0.6-1.3-1.3-1.3s-1.3,0.6-1.3,1.3C39.2,65.6,39.7,66.2,40.5,66.2z"/>
	</g>
	<g>
		<path class="st0" d="M44.7,66.5c0.9,0,1.6-0.7,1.6-1.6c0-0.8-0.7-1.6-1.6-1.6c-0.8,0-1.6,0.7-1.6,1.6
			C43.2,65.7,43.9,66.5,44.7,66.5z"/>
	</g>
	<g>
		<path class="st0" d="M49.1,66.7c1,0,1.8-0.8,1.8-1.8s-0.8-1.8-1.8-1.8s-1.8,0.8-1.8,1.8C47.2,65.9,48.1,66.7,49.1,66.7z"/>
	</g>
	<g>
		<path class="st0" d="M53.4,66.9c1.1,0,2.1-0.9,2.1-2s-0.9-2-2.1-2c-1.1,0-2.1,0.9-2.1,2C51.3,66,52.2,66.9,53.4,66.9z"/>
	</g>
	<g>
		<path class="st0" d="M57.7,67.1c1.2,0,2.2-1,2.2-2.2c0-1.2-1-2.2-2.2-2.2s-2.2,1-2.2,2.2C55.4,66.1,56.4,67.1,57.7,67.1z"/>
	</g>
	<g>
		<path class="st0" d="M62,67.3c1.3,0,2.4-1.1,2.4-2.4c0-1.3-1.1-2.4-2.4-2.4c-1.3,0-2.4,1.1-2.4,2.4C59.5,66.2,60.6,67.3,62,67.3z"
			/>
	</g>
	<g>
		<path class="st0" d="M66.3,67.4c1.4,0,2.6-1.1,2.6-2.6c0-1.4-1.1-2.5-2.6-2.5c-1.4,0-2.6,1.1-2.6,2.5
			C63.7,66.3,64.9,67.4,66.3,67.4z"/>
	</g>
	<g>
		<path class="st0" d="M70.6,67.5c1.5,0,2.6-1.2,2.6-2.7c0-1.4-1.2-2.6-2.6-2.6c-1.5,0-2.6,1.2-2.6,2.6
			C67.9,66.3,69.1,67.5,70.6,67.5z"/>
	</g>
	<g>
		<path class="st0" d="M74.9,67.6c1.5,0,2.7-1.2,2.7-2.7s-1.2-2.7-2.7-2.7s-2.7,1.2-2.7,2.7C72.2,66.4,73.4,67.6,74.9,67.6z"/>
	</g>
	<g>
		<path class="st0" d="M79.2,67.6c1.5,0,2.7-1.2,2.7-2.7s-1.2-2.7-2.7-2.7s-2.7,1.2-2.7,2.7S77.7,67.6,79.2,67.6z"/>
	</g>
	<g>
		<path class="st0" d="M83.5,67.7c1.5,0,2.8-1.2,2.8-2.8c0-1.5-1.2-2.8-2.8-2.8c-1.5,0-2.8,1.2-2.8,2.8C80.7,66.4,82,67.7,83.5,67.7
			z"/>
	</g>
	<g>
		<path class="st0" d="M87.8,67.7c1.5,0,2.8-1.2,2.8-2.8c0-1.5-1.2-2.7-2.8-2.7c-1.5,0-2.7,1.2-2.7,2.7C85,66.4,86.3,67.7,87.8,67.7
			z"/>
	</g>
	<g>
		<path class="st0" d="M92.1,67.6c1.5,0,2.7-1.2,2.7-2.7s-1.2-2.7-2.7-2.7s-2.7,1.2-2.7,2.7S90.6,67.6,92.1,67.6z"/>
	</g>
	<g>
		<path class="st0" d="M96.4,67.6c1.5,0,2.7-1.2,2.7-2.7s-1.2-2.7-2.7-2.7s-2.7,1.2-2.7,2.7C93.7,66.4,94.9,67.6,96.4,67.6z"/>
	</g>
	<g>
		<path class="st0" d="M100.7,67.5c1.4,0,2.6-1.2,2.6-2.6s-1.1-2.6-2.6-2.6c-1.4,0-2.6,1.2-2.6,2.6C98.1,66.3,99.3,67.5,100.7,67.5z
			"/>
	</g>
	<g>
		<path class="st0" d="M105,67.4c1.4,0,2.5-1.1,2.5-2.5s-1.1-2.5-2.5-2.5s-2.5,1.1-2.5,2.5S103.6,67.4,105,67.4z"/>
	</g>
	<g>
		<path class="st0" d="M109.3,67.2c1.3,0,2.3-1,2.3-2.3c0-1.3-1.1-2.3-2.3-2.3c-1.3,0-2.3,1-2.3,2.3C107,66.2,108,67.2,109.3,67.2z"
			/>
	</g>
	<g>
		<path class="st0" d="M113.6,67c1.2,0,2.2-0.9,2.2-2.2c0-1.2-1-2.2-2.2-2.2s-2.2,1-2.2,2.2C111.5,66.1,112.4,67,113.6,67z"/>
	</g>
	<g>
		<path class="st0" d="M117.9,66.8c1.1,0,1.9-0.9,1.9-1.9c0-1.1-0.9-1.9-1.9-1.9c-1.1,0-1.9,0.9-1.9,1.9S116.9,66.8,117.9,66.8z"/>
	</g>
	<g>
		<path class="st0" d="M122.2,66.6c0.9,0,1.7-0.7,1.7-1.7c0-0.9-0.8-1.7-1.7-1.7c-0.9,0-1.7,0.8-1.7,1.7S121.3,66.6,122.2,66.6z"/>
	</g>
	<g>
		<path class="st0" d="M126.5,66.3c0.8,0,1.4-0.6,1.4-1.4s-0.6-1.4-1.4-1.4s-1.4,0.7-1.4,1.4C125.1,65.7,125.8,66.3,126.5,66.3z"/>
	</g>
	<g>
		<path class="st0" d="M130.8,66c0.6,0,1.1-0.5,1.1-1.1s-0.5-1.1-1.1-1.1s-1.1,0.5-1.1,1.1S130.2,66,130.8,66z"/>
	</g>
	<g>
		<path class="st0" d="M135.2,65.6c0.4,0,0.8-0.3,0.8-0.8c0-0.4-0.3-0.8-0.8-0.8c-0.4,0-0.8,0.3-0.8,0.8
			C134.4,65.3,134.7,65.6,135.2,65.6z"/>
	</g>
	<g>
		<path class="st0" d="M139.5,65.3c0.2,0,0.4-0.2,0.4-0.4c0-0.2-0.2-0.4-0.4-0.4s-0.4,0.2-0.4,0.4C139.1,65.1,139.2,65.3,139.5,65.3
			z"/>
	</g>
	<g>
		<path class="st0" d="M143.8,64.9L143.8,64.9C143.8,64.9,143.8,64.8,143.8,64.9C143.7,64.8,143.7,64.9,143.8,64.9
			C143.7,64.9,143.7,64.9,143.8,64.9z"/>
	</g>
	<g>
		<path class="st0" d="M27.5,69.5c0.2,0,0.3-0.1,0.3-0.3c0-0.2-0.2-0.3-0.3-0.3c-0.2,0-0.3,0.1-0.3,0.3S27.4,69.5,27.5,69.5z"/>
	</g>
	<g>
		<path class="st0" d="M31.9,69.9c0.4,0,0.7-0.3,0.7-0.7c0-0.4-0.3-0.7-0.7-0.7c-0.4,0-0.7,0.3-0.7,0.7
			C31.2,69.6,31.5,69.9,31.9,69.9z"/>
	</g>
	<g>
		<path class="st0" d="M36.1,70.2c0.6,0,1-0.5,1-1c0-0.6-0.5-1.1-1-1.1c-0.6,0-1,0.5-1,1.1C35.1,69.8,35.6,70.2,36.1,70.2z"/>
	</g>
	<g>
		<ellipse class="st0" cx="40.5" cy="69.2" rx="1.4" ry="1.4"/>
	</g>
	<g>
		<path class="st0" d="M44.7,70.8c0.9,0,1.7-0.8,1.7-1.6c0-0.9-0.7-1.6-1.7-1.6c-0.9,0-1.6,0.7-1.6,1.6
			C43.1,70.1,43.9,70.8,44.7,70.8z"/>
	</g>
	<g>
		<path class="st0" d="M49.1,71.1c1.1,0,1.9-0.9,1.9-1.9c0-1.1-0.9-1.9-1.9-1.9s-1.9,0.8-1.9,1.9C47.2,70.2,48,71.1,49.1,71.1z"/>
	</g>
	<g>
		<path class="st0" d="M53.4,71.3c1.2,0,2.1-1,2.1-2.1c0-1.2-1-2.2-2.1-2.2c-1.2,0-2.1,1-2.1,2.2C51.2,70.4,52.2,71.3,53.4,71.3z"/>
	</g>
	<g>
		<path class="st0" d="M57.7,71.5c1.3,0,2.3-1,2.3-2.3s-1-2.3-2.3-2.3s-2.3,1-2.3,2.3S56.4,71.5,57.7,71.5z"/>
	</g>
	<g>
		<path class="st0" d="M62,71.7c1.4,0,2.5-1.1,2.5-2.5s-1.1-2.5-2.5-2.5s-2.5,1.1-2.5,2.5S60.6,71.7,62,71.7z"/>
	</g>
	<g>
		<path class="st0" d="M66.3,71.8c1.4,0,2.6-1.1,2.6-2.6s-1.2-2.6-2.6-2.6s-2.6,1.2-2.6,2.6C63.7,70.6,64.8,71.8,66.3,71.8z"/>
	</g>
	<g>
		<path class="st0" d="M70.6,71.9c1.5,0,2.7-1.2,2.7-2.7s-1.2-2.7-2.7-2.7s-2.7,1.2-2.7,2.7C67.9,70.7,69.1,71.9,70.6,71.9z"/>
	</g>
	<g>
		<path class="st0" d="M74.9,72c1.5,0,2.8-1.2,2.8-2.8c0-1.5-1.2-2.8-2.8-2.8c-1.5,0-2.8,1.2-2.8,2.8C72.1,70.7,73.4,72,74.9,72z"/>
	</g>
	<g>
		<path class="st0" d="M79.2,72c1.5,0,2.8-1.3,2.8-2.8c0-1.6-1.3-2.8-2.8-2.8c-1.6,0-2.8,1.3-2.8,2.8C76.4,70.7,77.6,72,79.2,72z"/>
	</g>
	<g>
		<path class="st0" d="M83.5,72c1.6,0,2.8-1.3,2.8-2.8c0-1.6-1.3-2.9-2.8-2.9c-1.6,0-2.8,1.3-2.8,2.9C80.7,70.8,81.9,72,83.5,72z"/>
	</g>
	<g>
		<path class="st0" d="M87.8,72c1.6,0,2.8-1.2,2.8-2.8c0-1.6-1.3-2.8-2.8-2.8c-1.6,0-2.8,1.3-2.8,2.8C85,70.8,86.2,72,87.8,72z"/>
	</g>
	<g>
		<path class="st0" d="M92.1,72c1.6,0,2.8-1.2,2.8-2.8c0-1.5-1.2-2.8-2.8-2.8c-1.5,0-2.8,1.3-2.8,2.8C89.3,70.7,90.6,72,92.1,72z"/>
	</g>
	<g>
		<path class="st0" d="M96.4,71.9c1.5,0,2.7-1.3,2.7-2.7c0-1.5-1.2-2.7-2.7-2.7s-2.7,1.2-2.7,2.7C93.7,70.7,94.9,71.9,96.4,71.9z"/>
	</g>
	<g>
		<path class="st0" d="M100.7,71.9c1.5,0,2.7-1.2,2.7-2.7s-1.2-2.7-2.7-2.7S98,67.7,98,69.2C98.1,70.7,99.2,71.9,100.7,71.9z"/>
	</g>
	<g>
		<path class="st0" d="M105,71.8c1.4,0,2.5-1.2,2.5-2.6s-1.1-2.6-2.5-2.6s-2.6,1.1-2.6,2.6C102.5,70.6,103.6,71.8,105,71.8z"/>
	</g>
	<g>
		<path class="st0" d="M109.3,71.6c1.3,0,2.4-1.1,2.4-2.4c0-1.4-1.1-2.4-2.4-2.4s-2.4,1.1-2.4,2.4S108,71.6,109.3,71.6z"/>
	</g>
	<g>
		<path class="st0" d="M113.6,71.4c1.2,0,2.2-1,2.2-2.2c0-1.3-1-2.2-2.2-2.2s-2.2,1-2.2,2.2S112.4,71.4,113.6,71.4z"/>
	</g>
	<g>
		<path class="st0" d="M117.9,71.2c1.1,0,2-0.9,2-2s-0.9-2-2-2s-2,0.9-2,2C115.9,70.3,116.8,71.2,117.9,71.2z"/>
	</g>
	<g>
		<path class="st0" d="M122.2,70.9c1,0,1.8-0.8,1.8-1.7c0-1-0.8-1.8-1.8-1.8s-1.8,0.8-1.8,1.8C120.5,70.2,121.3,70.9,122.2,70.9z"/>
	</g>
	<g>
		<ellipse class="st0" cx="126.5" cy="69.2" rx="1.5" ry="1.5"/>
	</g>
	<g>
		<path class="st0" d="M130.8,70.4c0.6,0,1.2-0.5,1.2-1.2s-0.5-1.2-1.2-1.2c-0.6,0-1.2,0.5-1.2,1.2
			C129.7,69.8,130.2,70.4,130.8,70.4z"/>
	</g>
	<g>
		<path class="st0" d="M135.2,70c0.5,0,0.9-0.4,0.9-0.8c0-0.5-0.4-0.9-0.9-0.9s-0.9,0.4-0.9,0.9S134.7,70,135.2,70z"/>
	</g>
	<g>
		<path class="st0" d="M139.5,69.7c0.3,0,0.5-0.2,0.5-0.5s-0.2-0.5-0.5-0.5s-0.5,0.2-0.5,0.5C138.9,69.5,139.2,69.7,139.5,69.7z"/>
	</g>
	<g>
		<path class="st0" d="M143.8,69.3c0.1,0,0.1,0,0.1-0.1s-0.1-0.1-0.1-0.1C143.7,69.1,143.7,69.1,143.8,69.3
			C143.7,69.2,143.7,69.3,143.8,69.3z"/>
	</g>
	<g>
		<path class="st0" d="M27.5,73.9c0.2,0,0.4-0.2,0.4-0.4c0-0.2-0.2-0.4-0.4-0.4c-0.2,0-0.4,0.2-0.4,0.4
			C27.2,73.7,27.3,73.9,27.5,73.9z"/>
	</g>
	<g>
		<path class="st0" d="M31.9,74.2c0.4,0,0.7-0.3,0.7-0.7c0-0.4-0.3-0.7-0.7-0.7c-0.4,0-0.7,0.3-0.7,0.7
			C31.1,73.9,31.4,74.2,31.9,74.2z"/>
	</g>
	<g>
		<path class="st0" d="M36.1,74.6c0.6,0,1.1-0.5,1.1-1.1s-0.5-1.1-1.1-1.1S35,72.9,35,73.5S35.5,74.6,36.1,74.6z"/>
	</g>
	<g>
		<path class="st0" d="M40.5,74.9c0.8,0,1.4-0.6,1.4-1.4s-0.6-1.4-1.4-1.4c-0.8,0-1.4,0.6-1.4,1.4C39,74.3,39.7,74.9,40.5,74.9z"/>
	</g>
	<g>
		<path class="st0" d="M44.7,75.2c0.9,0,1.7-0.8,1.7-1.7c0-0.9-0.8-1.7-1.7-1.7S43,72.6,43,73.5C43.1,74.4,43.8,75.2,44.7,75.2z"/>
	</g>
	<g>
		<path class="st0" d="M49.1,75.5c1.1,0,2-0.9,2-2s-0.9-2-2-2s-2,0.9-2,2S48,75.5,49.1,75.5z"/>
	</g>
	<g>
		<path class="st0" d="M53.4,75.7c1.2,0,2.2-1,2.2-2.2s-1-2.2-2.2-2.2s-2.2,1-2.2,2.2S52.2,75.7,53.4,75.7z"/>
	</g>
	<g>
		<path class="st0" d="M57.7,75.8c1.3,0,2.4-1.1,2.4-2.4S59,71,57.7,71c-1.3,0-2.4,1.1-2.4,2.4C55.3,74.8,56.4,75.8,57.7,75.8z"/>
	</g>
	<g>
		<path class="st0" d="M62,76c1.4,0,2.6-1.1,2.6-2.5s-1.1-2.6-2.6-2.6c-1.4,0-2.5,1.1-2.5,2.6C59.4,74.9,60.6,76,62,76z"/>
	</g>
	<g>
		<path class="st0" d="M66.3,76.1c1.5,0,2.7-1.2,2.7-2.6c0-1.5-1.2-2.6-2.7-2.6s-2.7,1.2-2.7,2.6C63.6,75,64.8,76.1,66.3,76.1z"/>
	</g>
	<g>
		<ellipse class="st0" cx="70.6" cy="73.5" rx="2.7" ry="2.8"/>
	</g>
	<g>
		<path class="st0" d="M74.9,76.3c1.6,0,2.8-1.3,2.8-2.8s-1.2-2.8-2.8-2.8s-2.8,1.3-2.8,2.8S73.3,76.3,74.9,76.3z"/>
	</g>
	<g>
		<path class="st0" d="M79.2,76.4c1.6,0,2.9-1.3,2.9-2.9s-1.3-2.9-2.9-2.9s-2.9,1.3-2.9,2.9C76.3,75.1,77.6,76.4,79.2,76.4z"/>
	</g>
	<g>
		<path class="st0" d="M83.5,76.4c1.6,0,2.9-1.3,2.9-2.9s-1.3-2.9-2.9-2.9s-2.9,1.3-2.9,2.9S81.9,76.4,83.5,76.4z"/>
	</g>
	<g>
		<path class="st0" d="M87.8,76.4c1.6,0,2.9-1.3,2.9-2.9s-1.3-2.9-2.9-2.9s-2.9,1.3-2.9,2.9S86.2,76.4,87.8,76.4z"/>
	</g>
	<g>
		<path class="st0" d="M92.1,76.3c1.6,0,2.8-1.3,2.8-2.8s-1.3-2.8-2.8-2.8c-1.6,0-2.8,1.3-2.8,2.8C89.3,75,90.5,76.3,92.1,76.3z"/>
	</g>
	<g>
		<path class="st0" d="M96.4,76.3c1.6,0,2.8-1.2,2.8-2.8c0-1.5-1.2-2.8-2.8-2.8c-1.5,0-2.8,1.2-2.8,2.8C93.6,75,94.9,76.3,96.4,76.3
			z"/>
	</g>
	<g>
		<path class="st0" d="M100.7,76.2c1.5,0,2.7-1.2,2.7-2.7s-1.2-2.7-2.7-2.7S98,72,98,73.5S99.2,76.2,100.7,76.2z"/>
	</g>
	<g>
		<path class="st0" d="M105,76.1c1.4,0,2.6-1.2,2.6-2.6c0-1.5-1.2-2.6-2.6-2.6s-2.6,1.2-2.6,2.6S103.6,76.1,105,76.1z"/>
	</g>
	<g>
		<path class="st0" d="M109.3,76c1.4,0,2.5-1.1,2.5-2.5s-1.1-2.5-2.5-2.5c-1.3,0-2.5,1.1-2.5,2.5C106.9,74.9,108,76,109.3,76z"/>
	</g>
	<g>
		<path class="st0" d="M113.6,75.8c1.3,0,2.3-1,2.3-2.3c0-1.2-1-2.3-2.3-2.3s-2.3,1-2.3,2.3C111.4,74.7,112.4,75.8,113.6,75.8z"/>
	</g>
	<g>
		<path class="st0" d="M117.9,75.6c1.1,0,2.1-0.9,2.1-2.1s-0.9-2.1-2.1-2.1c-1.1,0-2.1,0.9-2.1,2.1
			C115.9,74.6,116.8,75.6,117.9,75.6z"/>
	</g>
	<g>
		<path class="st0" d="M122.2,75.3c1,0,1.8-0.8,1.8-1.8s-0.8-1.8-1.8-1.8s-1.8,0.8-1.8,1.8C120.4,74.5,121.2,75.3,122.2,75.3z"/>
	</g>
	<g>
		<path class="st0" d="M126.5,75c0.8,0,1.6-0.7,1.6-1.5c0-0.9-0.7-1.5-1.6-1.5c-0.8,0-1.6,0.7-1.6,1.5C125,74.4,125.7,75,126.5,75z"
			/>
	</g>
	<g>
		<ellipse class="st0" cx="130.8" cy="73.5" rx="1.3" ry="1.2"/>
	</g>
	<g>
		<path class="st0" d="M135.2,74.4c0.5,0,0.9-0.4,0.9-0.9s-0.4-0.9-0.9-0.9s-0.9,0.4-0.9,0.9C134.2,74,134.6,74.4,135.2,74.4z"/>
	</g>
	<g>
		<path class="st0" d="M139.5,74c0.3,0,0.5-0.2,0.5-0.5s-0.2-0.5-0.5-0.5s-0.5,0.2-0.5,0.5C138.9,73.8,139.2,74,139.5,74z"/>
	</g>
	<g>
		<path class="st0" d="M143.8,73.6c0.1,0,0.2,0,0.2-0.1s-0.1-0.2-0.2-0.2c-0.1,0-0.2,0.1-0.2,0.2S143.7,73.6,143.8,73.6z"/>
	</g>
	<g>
		<path class="st0" d="M27.5,78.2c0.2,0,0.4-0.2,0.4-0.4c0-0.2-0.2-0.4-0.4-0.4c-0.2,0-0.4,0.2-0.4,0.4S27.3,78.2,27.5,78.2z"/>
	</g>
	<g>
		<path class="st0" d="M31.9,78.6c0.4,0,0.8-0.3,0.8-0.8c0-0.4-0.3-0.8-0.8-0.8c-0.4,0-0.8,0.3-0.8,0.8
			C31.1,78.2,31.4,78.6,31.9,78.6z"/>
	</g>
	<g>
		<path class="st0" d="M36.1,78.9c0.6,0,1.1-0.5,1.1-1.1s-0.5-1.1-1.1-1.1S35,77.2,35,77.8S35.5,78.9,36.1,78.9z"/>
	</g>
	<g>
		<path class="st0" d="M40.5,79.2c0.8,0,1.4-0.6,1.4-1.4s-0.6-1.4-1.4-1.4c-0.8,0-1.4,0.6-1.4,1.4C39,78.6,39.7,79.2,40.5,79.2z"/>
	</g>
	<g>
		<path class="st0" d="M44.7,79.5c1,0,1.7-0.8,1.7-1.7c0-0.9-0.8-1.7-1.7-1.7S43,76.9,43,77.8C43,78.8,43.8,79.5,44.7,79.5z"/>
	</g>
	<g>
		<path class="st0" d="M49.1,79.8c1.1,0,2-0.9,2-2s-0.9-2-2-2s-2,0.9-2,2S48,79.8,49.1,79.8z"/>
	</g>
	<g>
		<path class="st0" d="M53.4,80c1.2,0,2.2-1,2.2-2.2s-1-2.2-2.2-2.2s-2.2,1-2.2,2.2S52.1,80,53.4,80z"/>
	</g>
	<g>
		<path class="st0" d="M57.7,80.2c1.3,0,2.4-1.1,2.4-2.4s-1.1-2.4-2.4-2.4c-1.3,0-2.4,1.1-2.4,2.4S56.3,80.2,57.7,80.2z"/>
	</g>
	<g>
		<path class="st0" d="M62,80.4c1.4,0,2.6-1.1,2.6-2.6c0-1.4-1.1-2.5-2.6-2.5c-1.4,0-2.5,1.2-2.5,2.5C59.4,79.2,60.6,80.4,62,80.4z"
			/>
	</g>
	<g>
		<path class="st0" d="M66.3,80.5c1.5,0,2.7-1.2,2.7-2.7c0-1.4-1.2-2.7-2.7-2.7s-2.7,1.2-2.7,2.7C63.6,79.3,64.8,80.5,66.3,80.5z"/>
	</g>
	<g>
		<path class="st0" d="M70.6,80.6c1.5,0,2.8-1.2,2.8-2.8c0-1.5-1.2-2.8-2.8-2.8c-1.5,0-2.8,1.3-2.8,2.8
			C67.8,79.3,69.1,80.6,70.6,80.6z"/>
	</g>
	<g>
		<path class="st0" d="M74.9,80.6c1.6,0,2.8-1.3,2.8-2.8c0-1.6-1.3-2.8-2.8-2.8c-1.6,0-2.8,1.3-2.8,2.8
			C72.1,79.4,73.3,80.6,74.9,80.6z"/>
	</g>
	<g>
		<path class="st0" d="M79.2,80.7c1.6,0,2.9-1.3,2.9-2.9s-1.3-2.9-2.9-2.9s-2.9,1.3-2.9,2.9C76.3,79.4,77.6,80.7,79.2,80.7z"/>
	</g>
	<g>
		<path class="st0" d="M83.5,80.7c1.6,0,2.9-1.3,2.9-2.9s-1.3-2.9-2.9-2.9s-2.9,1.3-2.9,2.9C80.6,79.4,81.9,80.7,83.5,80.7z"/>
	</g>
	<g>
		<path class="st0" d="M87.8,80.7c1.6,0,2.9-1.3,2.9-2.9s-1.3-2.9-2.9-2.9s-2.9,1.3-2.9,2.9C84.9,79.4,86.2,80.7,87.8,80.7z"/>
	</g>
	<g>
		<path class="st0" d="M92.1,80.7c1.6,0,2.9-1.3,2.9-2.9S93.7,75,92.1,75s-2.9,1.3-2.9,2.8C89.2,79.4,90.5,80.7,92.1,80.7z"/>
	</g>
	<g>
		<path class="st0" d="M96.4,80.6c1.6,0,2.8-1.3,2.8-2.8S97.9,75,96.4,75s-2.8,1.3-2.8,2.8C93.6,79.3,94.9,80.6,96.4,80.6z"/>
	</g>
	<g>
		<path class="st0" d="M100.7,80.5c1.5,0,2.7-1.2,2.7-2.7s-1.2-2.7-2.7-2.7S98,76.3,98,77.8S99.2,80.5,100.7,80.5z"/>
	</g>
	<g>
		<path class="st0" d="M105,80.4c1.4,0,2.6-1.2,2.6-2.6s-1.2-2.6-2.6-2.6c-1.5,0-2.6,1.2-2.6,2.6C102.4,79.3,103.6,80.4,105,80.4z"
			/>
	</g>
	<g>
		<path class="st0" d="M109.3,80.3c1.4,0,2.5-1.1,2.5-2.5s-1.1-2.5-2.5-2.5s-2.5,1.1-2.5,2.5C106.8,79.2,107.9,80.3,109.3,80.3z"/>
	</g>
	<g>
		<path class="st0" d="M113.6,80.1c1.3,0,2.3-1,2.3-2.3s-1-2.3-2.3-2.3s-2.3,1-2.3,2.3C111.3,79.1,112.4,80.1,113.6,80.1z"/>
	</g>
	<g>
		<path class="st0" d="M117.9,79.9c1.2,0,2.1-0.9,2.1-2.1s-0.9-2.1-2.1-2.1s-2.1,0.9-2.1,2.1S116.8,79.9,117.9,79.9z"/>
	</g>
	<g>
		<path class="st0" d="M122.2,79.7c1,0,1.8-0.8,1.8-1.9c0-1-0.8-1.8-1.8-1.8s-1.8,0.8-1.8,1.8C120.4,78.8,121.2,79.7,122.2,79.7z"/>
	</g>
	<g>
		<path class="st0" d="M126.5,79.4c0.9,0,1.6-0.7,1.6-1.6c0-0.8-0.7-1.6-1.6-1.6s-1.6,0.7-1.6,1.6C125,78.7,125.7,79.4,126.5,79.4z"
			/>
	</g>
	<g>
		<path class="st0" d="M130.8,79.1c0.7,0,1.3-0.6,1.3-1.3c0-0.7-0.6-1.3-1.3-1.3s-1.3,0.6-1.3,1.3C129.6,78.5,130.2,79.1,130.8,79.1
			z"/>
	</g>
	<g>
		<path class="st0" d="M135.2,78.7c0.5,0,0.9-0.4,0.9-0.9s-0.4-0.9-0.9-0.9s-0.9,0.4-0.9,0.9C134.2,78.3,134.6,78.7,135.2,78.7z"/>
	</g>
	<g>
		<path class="st0" d="M139.5,78.3c0.3,0,0.6-0.2,0.6-0.5s-0.3-0.5-0.6-0.5s-0.6,0.3-0.6,0.5C138.9,78.1,139.2,78.3,139.5,78.3z"/>
	</g>
	<g>
		<path class="st0" d="M143.8,78c0.1,0,0.2-0.1,0.2-0.2s0-0.2-0.2-0.2c-0.1,0-0.2,0.1-0.2,0.2S143.7,78,143.8,78z"/>
	</g>
	<g>
		<path class="st0" d="M27.5,82.5c0.2,0,0.4-0.1,0.4-0.4c0-0.2-0.2-0.4-0.4-0.4c-0.2,0-0.4,0.2-0.4,0.4S27.3,82.5,27.5,82.5z"/>
	</g>
	<g>
		<path class="st0" d="M31.9,82.9c0.4,0,0.7-0.3,0.7-0.7c0-0.4-0.3-0.8-0.7-0.8c-0.4,0-0.7,0.4-0.7,0.8
			C31.1,82.5,31.4,82.9,31.9,82.9z"/>
	</g>
	<g>
		<path class="st0" d="M36.1,83.2c0.6,0,1.1-0.5,1.1-1.1S36.7,81,36.1,81S35,81.5,35,82.1S35.5,83.2,36.1,83.2z"/>
	</g>
	<g>
		<path class="st0" d="M40.5,83.5c0.8,0,1.4-0.6,1.4-1.4s-0.6-1.4-1.4-1.4c-0.8,0-1.4,0.6-1.4,1.4C39,82.9,39.7,83.5,40.5,83.5z"/>
	</g>
	<g>
		<path class="st0" d="M44.7,83.8c1,0,1.7-0.8,1.7-1.7c0-1-0.8-1.7-1.7-1.7S43,81.2,43,82.1C43.1,83,43.8,83.8,44.7,83.8z"/>
	</g>
	<g>
		<path class="st0" d="M49.1,84.1c1.1,0,2-0.9,2-1.9c0-1.1-0.9-2-2-2s-2,0.9-2,2C47.1,83.2,48,84.1,49.1,84.1z"/>
	</g>
	<g>
		<path class="st0" d="M53.4,84.3c1.2,0,2.2-1,2.2-2.2s-1-2.2-2.2-2.2s-2.2,1-2.2,2.2S52.1,84.3,53.4,84.3z"/>
	</g>
	<g>
		<path class="st0" d="M57.7,84.5c1.3,0,2.4-1.1,2.4-2.4s-1.1-2.4-2.4-2.4c-1.3,0-2.4,1.1-2.4,2.4S56.3,84.5,57.7,84.5z"/>
	</g>
	<g>
		<path class="st0" d="M62,84.6c1.4,0,2.6-1.1,2.6-2.5s-1.1-2.6-2.6-2.6c-1.4,0-2.5,1.1-2.5,2.6C59.4,83.5,60.6,84.6,62,84.6z"/>
	</g>
	<g>
		<path class="st0" d="M66.3,84.8c1.5,0,2.7-1.2,2.7-2.7s-1.2-2.7-2.7-2.7s-2.7,1.2-2.7,2.7C63.6,83.6,64.8,84.8,66.3,84.8z"/>
	</g>
	<g>
		<path class="st0" d="M70.6,84.9c1.5,0,2.7-1.3,2.7-2.7c0-1.5-1.2-2.8-2.7-2.8s-2.7,1.2-2.7,2.8C67.8,83.6,69.1,84.9,70.6,84.9z"/>
	</g>
	<g>
		<path class="st0" d="M74.9,84.9c1.6,0,2.8-1.3,2.8-2.8c0-1.6-1.3-2.9-2.8-2.9s-2.8,1.3-2.8,2.9S73.3,84.9,74.9,84.9z"/>
	</g>
	<g>
		<path class="st0" d="M79.2,85c1.6,0,2.9-1.3,2.9-2.9s-1.3-2.9-2.9-2.9s-2.9,1.3-2.9,2.9C76.3,83.7,77.6,85,79.2,85z"/>
	</g>
	<g>
		<path class="st0" d="M83.5,85c1.6,0,2.9-1.3,2.9-2.9s-1.3-2.9-2.9-2.9s-2.9,1.3-2.9,2.9S81.9,85,83.5,85z"/>
	</g>
	<g>
		<path class="st0" d="M87.8,85c1.6,0,2.9-1.3,2.9-2.9s-1.3-2.9-2.9-2.9s-2.9,1.3-2.9,2.9S86.2,85,87.8,85z"/>
	</g>
	<g>
		<path class="st0" d="M92.1,84.9c1.6,0,2.9-1.3,2.9-2.8c0-1.6-1.3-2.9-2.9-2.9s-2.9,1.3-2.9,2.9S90.5,84.9,92.1,84.9z"/>
	</g>
	<g>
		<path class="st0" d="M96.4,84.9c1.6,0,2.8-1.2,2.8-2.8c0-1.6-1.3-2.8-2.8-2.8s-2.8,1.2-2.8,2.8C93.6,83.7,94.9,84.9,96.4,84.9z"/>
	</g>
	<g>
		<path class="st0" d="M100.7,84.8c1.5,0,2.7-1.2,2.7-2.7s-1.2-2.7-2.7-2.7S98,80.6,98,82.1C98,83.6,99.2,84.8,100.7,84.8z"/>
	</g>
	<g>
		<path class="st0" d="M105,84.7c1.4,0,2.6-1.2,2.6-2.6c0-1.5-1.2-2.6-2.6-2.6c-1.5,0-2.6,1.2-2.6,2.6S103.6,84.7,105,84.7z"/>
	</g>
	<g>
		<path class="st0" d="M109.3,84.6c1.4,0,2.5-1.1,2.5-2.4c0-1.4-1.1-2.5-2.5-2.5s-2.5,1.1-2.5,2.5C106.9,83.5,108,84.6,109.3,84.6z"
			/>
	</g>
	<g>
		<path class="st0" d="M113.6,84.4c1.3,0,2.3-1,2.3-2.3s-1-2.3-2.3-2.3s-2.3,1-2.3,2.3C111.3,83.4,112.4,84.4,113.6,84.4z"/>
	</g>
	<g>
		<path class="st0" d="M117.9,84.2c1.1,0,2.1-0.9,2.1-2c0-1.2-0.9-2.1-2.1-2.1c-1.1,0-2.1,0.9-2.1,2.1
			C115.8,83.2,116.8,84.2,117.9,84.2z"/>
	</g>
	<g>
		<path class="st0" d="M122.2,83.9c1,0,1.8-0.8,1.8-1.8s-0.8-1.8-1.8-1.8s-1.8,0.8-1.8,1.8C120.4,83.1,121.2,83.9,122.2,83.9z"/>
	</g>
	<g>
		<path class="st0" d="M126.5,83.7c0.9,0,1.6-0.7,1.6-1.5c0-0.9-0.7-1.6-1.6-1.6s-1.6,0.7-1.6,1.6C125,83,125.7,83.7,126.5,83.7z"/>
	</g>
	<g>
		<path class="st0" d="M130.8,83.4c0.7,0,1.3-0.5,1.3-1.2s-0.6-1.3-1.3-1.3s-1.3,0.6-1.3,1.3C129.6,82.8,130.2,83.4,130.8,83.4z"/>
	</g>
	<g>
		<path class="st0" d="M135.2,83c0.5,0,0.9-0.4,0.9-0.9s-0.4-0.9-0.9-0.9s-0.9,0.4-0.9,0.9C134.2,82.6,134.6,83,135.2,83z"/>
	</g>
	<g>
		<path class="st0" d="M139.5,82.7c0.3,0,0.6-0.3,0.6-0.5c0-0.3-0.3-0.6-0.6-0.6s-0.6,0.3-0.6,0.6C138.9,82.4,139.2,82.7,139.5,82.7
			z"/>
	</g>
	<g>
		<path class="st0" d="M143.8,82.3c0.1,0,0.2-0.1,0.2-0.1c0-0.1,0-0.2-0.2-0.2c-0.1,0-0.2,0.1-0.2,0.2
			C143.6,82.2,143.7,82.3,143.8,82.3z"/>
	</g>
	<g>
		<path class="st0" d="M27.5,86.8c0.2,0,0.4-0.2,0.4-0.4c0-0.2-0.2-0.4-0.4-0.4c-0.2,0-0.4,0.2-0.4,0.4
			C27.2,86.6,27.3,86.8,27.5,86.8z"/>
	</g>
	<g>
		<path class="st0" d="M31.9,87.1c0.4,0,0.7-0.3,0.7-0.7c0-0.4-0.3-0.7-0.7-0.7c-0.4,0-0.7,0.3-0.7,0.7
			C31.1,86.8,31.4,87.1,31.9,87.1z"/>
	</g>
	<g>
		<path class="st0" d="M36.1,87.4c0.6,0,1.1-0.5,1.1-1.1s-0.5-1.1-1.1-1.1S35,85.7,35,86.3C35.1,87,35.6,87.4,36.1,87.4z"/>
	</g>
	<g>
		<path class="st0" d="M40.5,87.8c0.8,0,1.4-0.6,1.4-1.4S41.3,85,40.5,85c-0.8,0-1.4,0.6-1.4,1.4C39.1,87.2,39.7,87.8,40.5,87.8z"/>
	</g>
	<g>
		<path class="st0" d="M44.7,88.1c0.9,0,1.7-0.7,1.7-1.7c0-0.9-0.7-1.6-1.7-1.6c-0.9,0-1.7,0.7-1.7,1.6
			C43.1,87.3,43.8,88.1,44.7,88.1z"/>
	</g>
	<g>
		<path class="st0" d="M49.1,88.3c1.1,0,1.9-0.9,1.9-1.9c0-1.1-0.9-1.9-1.9-1.9c-1.1,0-1.9,0.9-1.9,1.9C47.1,87.4,48,88.3,49.1,88.3
			z"/>
	</g>
	<g>
		<path class="st0" d="M53.4,88.6c1.2,0,2.2-1,2.2-2.2s-1-2.2-2.2-2.2s-2.2,0.9-2.2,2.2C51.2,87.6,52.2,88.6,53.4,88.6z"/>
	</g>
	<g>
		<ellipse class="st0" cx="57.7" cy="86.4" rx="2.4" ry="2.3"/>
	</g>
	<g>
		<path class="st0" d="M62,88.9c1.4,0,2.5-1.1,2.5-2.5s-1.1-2.5-2.5-2.5s-2.5,1.1-2.5,2.5C59.4,87.8,60.6,88.9,62,88.9z"/>
	</g>
	<g>
		<path class="st0" d="M66.3,89c1.5,0,2.6-1.2,2.6-2.6c0-1.5-1.2-2.6-2.6-2.6c-1.5,0-2.6,1.2-2.6,2.6C63.6,87.9,64.8,89,66.3,89z"/>
	</g>
	<g>
		<path class="st0" d="M70.6,89.1c1.5,0,2.7-1.3,2.7-2.7c0-1.5-1.2-2.7-2.7-2.7s-2.7,1.2-2.7,2.7C67.8,87.9,69.1,89.1,70.6,89.1z"/>
	</g>
	<g>
		<path class="st0" d="M74.9,89.2c1.5,0,2.8-1.3,2.8-2.8s-1.3-2.8-2.8-2.8s-2.8,1.3-2.8,2.8C72.1,87.9,73.3,89.2,74.9,89.2z"/>
	</g>
	<g>
		<path class="st0" d="M79.2,89.3c1.6,0,2.8-1.3,2.8-2.9s-1.3-2.8-2.8-2.8c-1.6,0-2.9,1.2-2.9,2.8C76.3,88,77.6,89.3,79.2,89.3z"/>
	</g>
	<g>
		<path class="st0" d="M83.5,89.3c1.6,0,2.9-1.3,2.9-2.9s-1.3-2.9-2.9-2.9s-2.9,1.3-2.9,2.9S81.9,89.3,83.5,89.3z"/>
	</g>
	<g>
		<path class="st0" d="M87.8,89.3c1.6,0,2.9-1.3,2.9-2.9s-1.3-2.9-2.9-2.9s-2.9,1.3-2.9,2.9S86.2,89.3,87.8,89.3z"/>
	</g>
	<g>
		<path class="st0" d="M92.1,89.2c1.6,0,2.8-1.3,2.8-2.8s-1.2-2.8-2.8-2.8c-1.6,0-2.8,1.3-2.8,2.8C89.3,87.9,90.5,89.2,92.1,89.2z"
			/>
	</g>
	<g>
		<path class="st0" d="M96.4,89.2c1.5,0,2.8-1.3,2.8-2.8s-1.2-2.8-2.8-2.8c-1.5,0-2.8,1.3-2.8,2.8C93.6,87.9,94.9,89.2,96.4,89.2z"
			/>
	</g>
	<g>
		<path class="st0" d="M100.7,89.1c1.5,0,2.7-1.2,2.7-2.7s-1.2-2.7-2.7-2.7S98,84.9,98,86.4S99.2,89.1,100.7,89.1z"/>
	</g>
	<g>
		<path class="st0" d="M105,89c1.4,0,2.6-1.2,2.6-2.6s-1.1-2.6-2.6-2.6c-1.4,0-2.6,1.1-2.6,2.6C102.4,87.8,103.6,89,105,89z"/>
	</g>
	<g>
		<path class="st0" d="M109.3,88.8c1.3,0,2.4-1.1,2.4-2.5c0-1.3-1.1-2.4-2.4-2.4s-2.4,1.1-2.4,2.4C106.9,87.7,108,88.8,109.3,88.8z"
			/>
	</g>
	<g>
		<path class="st0" d="M113.6,88.7c1.2,0,2.2-1,2.2-2.3c0-1.2-1-2.3-2.2-2.3c-1.3,0-2.3,1-2.3,2.3C111.4,87.6,112.4,88.7,113.6,88.7
			z"/>
	</g>
	<g>
		<ellipse class="st0" cx="117.9" cy="86.4" rx="2" ry="2"/>
	</g>
	<g>
		<path class="st0" d="M122.2,88.2c1,0,1.8-0.8,1.8-1.8s-0.8-1.8-1.8-1.8s-1.8,0.8-1.8,1.8C120.4,87.4,121.2,88.2,122.2,88.2z"/>
	</g>
	<g>
		<path class="st0" d="M126.5,87.9c0.8,0,1.5-0.7,1.5-1.5s-0.7-1.5-1.5-1.5s-1.5,0.7-1.5,1.5C125,87.2,125.7,87.9,126.5,87.9z"/>
	</g>
	<g>
		<path class="st0" d="M130.8,87.6c0.7,0,1.2-0.5,1.2-1.2s-0.6-1.2-1.2-1.2c-0.7,0-1.2,0.6-1.2,1.2
			C129.6,87.1,130.2,87.6,130.8,87.6z"/>
	</g>
	<g>
		<path class="st0" d="M135.2,87.3c0.5,0,0.9-0.4,0.9-0.9s-0.4-0.9-0.9-0.9s-0.9,0.4-0.9,0.9S134.7,87.3,135.2,87.3z"/>
	</g>
	<g>
		<path class="st0" d="M139.5,86.9c0.3,0,0.5-0.2,0.5-0.5s-0.2-0.5-0.5-0.5s-0.5,0.2-0.5,0.5C138.9,86.7,139.2,86.9,139.5,86.9z"/>
	</g>
	<g>
		<path class="st0" d="M143.8,86.5c0.1,0,0.1-0.1,0.1-0.1c0-0.1-0.1-0.1-0.1-0.1c-0.1,0-0.1,0.1-0.1,0.1
			C143.6,86.5,143.7,86.5,143.8,86.5z"/>
	</g>
	<g>
		<path class="st0" d="M27.5,91c0.2,0,0.3-0.1,0.3-0.3c0-0.2-0.1-0.3-0.3-0.3c-0.2,0-0.3,0.1-0.3,0.3C27.3,90.9,27.4,91,27.5,91z"/>
	</g>
	<g>
		<path class="st0" d="M31.9,91.3c0.3,0,0.6-0.3,0.6-0.6c0-0.4-0.3-0.7-0.6-0.7c-0.4,0-0.7,0.3-0.7,0.7
			C31.2,91.1,31.5,91.3,31.9,91.3z"/>
	</g>
	<g>
		<path class="st0" d="M36.1,91.7c0.6,0,1-0.5,1-1c0-0.6-0.5-1-1-1c-0.6,0-1,0.4-1,1C35.1,91.3,35.6,91.7,36.1,91.7z"/>
	</g>
	<g>
		<path class="st0" d="M40.5,92c0.7,0,1.3-0.6,1.3-1.3c0-0.8-0.6-1.4-1.3-1.4s-1.3,0.6-1.3,1.4C39.1,91.5,39.7,92,40.5,92z"/>
	</g>
	<g>
		<path class="st0" d="M44.7,92.3c0.9,0,1.6-0.7,1.6-1.6s-0.7-1.6-1.6-1.6c-0.9,0-1.6,0.7-1.6,1.6C43.2,91.6,43.9,92.3,44.7,92.3z"
			/>
	</g>
	<g>
		<path class="st0" d="M49.1,92.6c1,0,1.9-0.8,1.9-1.9s-0.8-1.9-1.9-1.9c-1,0-1.9,0.8-1.9,1.9C47.2,91.7,48,92.6,49.1,92.6z"/>
	</g>
	<g>
		<path class="st0" d="M53.4,92.8c1.2,0,2.1-1,2.1-2.1c0-1.2-0.9-2.1-2.1-2.1c-1.2,0-2.1,0.9-2.1,2.1C51.3,91.8,52.2,92.8,53.4,92.8
			z"/>
	</g>
	<g>
		<path class="st0" d="M57.7,93c1.3,0,2.3-1.1,2.3-2.3c0-1.3-1-2.3-2.3-2.3s-2.3,1-2.3,2.3S56.4,93,57.7,93z"/>
	</g>
	<g>
		<path class="st0" d="M62,93.2c1.4,0,2.5-1.1,2.5-2.5s-1.1-2.5-2.5-2.5c-1.3,0-2.5,1.1-2.5,2.5C59.5,92,60.6,93.2,62,93.2z"/>
	</g>
	<g>
		<path class="st0" d="M66.3,93.3c1.4,0,2.6-1.1,2.6-2.6c0-1.4-1.1-2.6-2.6-2.6c-1.4,0-2.6,1.2-2.6,2.6
			C63.7,92.1,64.9,93.3,66.3,93.3z"/>
	</g>
	<g>
		<path class="st0" d="M70.6,93.4c1.5,0,2.7-1.2,2.7-2.7S72.1,88,70.6,88s-2.7,1.2-2.7,2.7C67.9,92.2,69.1,93.4,70.6,93.4z"/>
	</g>
	<g>
		<path class="st0" d="M74.9,93.5c1.5,0,2.7-1.3,2.7-2.7c0-1.5-1.2-2.8-2.7-2.8s-2.8,1.2-2.8,2.8C72.1,92.2,73.4,93.5,74.9,93.5z"/>
	</g>
	<g>
		<path class="st0" d="M79.2,93.5c1.5,0,2.8-1.3,2.8-2.8s-1.2-2.8-2.8-2.8c-1.5,0-2.8,1.3-2.8,2.8C76.4,92.2,77.7,93.5,79.2,93.5z"
			/>
	</g>
	<g>
		<path class="st0" d="M83.5,93.5c1.6,0,2.8-1.3,2.8-2.8c0-1.6-1.3-2.8-2.8-2.8s-2.8,1.3-2.8,2.8C80.7,92.3,81.9,93.5,83.5,93.5z"/>
	</g>
	<g>
		<path class="st0" d="M87.8,93.5c1.5,0,2.8-1.2,2.8-2.8c0-1.5-1.3-2.8-2.8-2.8S85,89.2,85,90.7C85,92.3,86.2,93.5,87.8,93.5z"/>
	</g>
	<g>
		<path class="st0" d="M92.1,93.5c1.5,0,2.8-1.2,2.8-2.7S93.7,88,92.1,88c-1.5,0-2.8,1.3-2.8,2.8C89.3,92.2,90.6,93.5,92.1,93.5z"/>
	</g>
	<g>
		<path class="st0" d="M96.4,93.4c1.5,0,2.7-1.2,2.7-2.7S97.9,88,96.4,88s-2.7,1.2-2.7,2.7C93.7,92.2,94.9,93.4,96.4,93.4z"/>
	</g>
	<g>
		<path class="st0" d="M100.7,93.3c1.5,0,2.6-1.2,2.6-2.6c0-1.5-1.2-2.6-2.6-2.6s-2.6,1.2-2.6,2.6C98.1,92.2,99.3,93.3,100.7,93.3z"
			/>
	</g>
	<g>
		<path class="st0" d="M105,93.2c1.4,0,2.5-1.1,2.5-2.5s-1.1-2.5-2.5-2.5s-2.5,1.1-2.5,2.5S103.6,93.2,105,93.2z"/>
	</g>
	<g>
		<path class="st0" d="M109.3,93.1c1.3,0,2.4-1.1,2.4-2.4s-1.1-2.4-2.4-2.4s-2.4,1.1-2.4,2.4C107,92,108,93.1,109.3,93.1z"/>
	</g>
	<g>
		<path class="st0" d="M113.6,92.9c1.2,0,2.2-1,2.2-2.2s-1-2.2-2.2-2.2s-2.2,1-2.2,2.2S112.4,92.9,113.6,92.9z"/>
	</g>
	<g>
		<path class="st0" d="M117.9,92.6c1.1,0,2-0.9,2-1.9c0-1.1-0.9-2-2-2s-2,0.9-2,2C116,91.8,116.8,92.6,117.9,92.6z"/>
	</g>
	<g>
		<path class="st0" d="M122.2,92.4c0.9,0,1.7-0.8,1.7-1.7c0-1-0.8-1.7-1.7-1.7c-0.9,0-1.7,0.8-1.7,1.7
			C120.5,91.7,121.3,92.4,122.2,92.4z"/>
	</g>
	<g>
		<path class="st0" d="M126.5,92.2c0.8,0,1.5-0.7,1.5-1.4c0-0.8-0.7-1.5-1.5-1.5s-1.5,0.6-1.5,1.5C125.1,91.5,125.7,92.2,126.5,92.2
			z"/>
	</g>
	<g>
		<path class="st0" d="M130.8,91.8c0.6,0,1.1-0.5,1.1-1.1s-0.5-1.2-1.1-1.2s-1.1,0.5-1.1,1.2C129.7,91.3,130.2,91.8,130.8,91.8z"/>
	</g>
	<g>
		<path class="st0" d="M135.2,91.5c0.4,0,0.8-0.4,0.8-0.8c0-0.5-0.4-0.8-0.8-0.8c-0.5,0-0.8,0.4-0.8,0.8
			C134.3,91.2,134.7,91.5,135.2,91.5z"/>
	</g>
	<g>
		<path class="st0" d="M139.5,91.1c0.3,0,0.4-0.2,0.4-0.4c0-0.3-0.2-0.5-0.4-0.5s-0.4,0.2-0.4,0.5C139,90.9,139.2,91.1,139.5,91.1z"
			/>
	</g>
	<g>
		<path class="st0" d="M143.8,90.8c0,0,0.1,0,0.1-0.1s-0.1-0.1-0.1-0.1C143.7,90.6,143.7,90.6,143.8,90.8
			C143.7,90.7,143.7,90.8,143.8,90.8z"/>
	</g>
	<g>
		<path class="st0" d="M27.5,95.2c0.1,0,0.2-0.1,0.2-0.2s-0.1-0.2-0.2-0.2s-0.2,0.1-0.2,0.2S27.4,95.2,27.5,95.2z"/>
	</g>
	<g>
		<path class="st0" d="M31.9,95.6c0.3,0,0.5-0.2,0.5-0.6c0-0.3-0.2-0.5-0.5-0.5s-0.6,0.3-0.6,0.5C31.3,95.3,31.5,95.6,31.9,95.6z"/>
	</g>
	<g>
		<path class="st0" d="M36.1,95.9c0.5,0,0.9-0.4,0.9-0.9s-0.4-0.9-0.9-0.9s-0.9,0.4-0.9,0.9C35.2,95.5,35.6,95.9,36.1,95.9z"/>
	</g>
	<g>
		<path class="st0" d="M40.5,96.2c0.7,0,1.2-0.6,1.2-1.2c0-0.7-0.5-1.2-1.2-1.2s-1.2,0.5-1.2,1.2C39.2,95.7,39.8,96.2,40.5,96.2z"/>
	</g>
	<g>
		<path class="st0" d="M44.7,96.5c0.8,0,1.5-0.7,1.5-1.5s-0.7-1.5-1.5-1.5s-1.5,0.7-1.5,1.5C43.3,95.8,43.9,96.5,44.7,96.5z"/>
	</g>
	<g>
		<path class="st0" d="M49.1,96.7c1,0,1.8-0.8,1.8-1.7c0-1-0.8-1.8-1.8-1.8S47.3,94,47.3,95S48.1,96.7,49.1,96.7z"/>
	</g>
	<g>
		<ellipse class="st0" cx="53.4" cy="95" rx="2" ry="2"/>
	</g>
	<g>
		<path class="st0" d="M57.7,97.2c1.2,0,2.2-1,2.2-2.2s-1-2.2-2.2-2.2s-2.2,1-2.2,2.2S56.5,97.2,57.7,97.2z"/>
	</g>
	<g>
		<path class="st0" d="M62,97.4c1.3,0,2.4-1.1,2.4-2.4s-1.1-2.4-2.4-2.4c-1.3,0-2.3,1.1-2.3,2.4C59.6,96.3,60.7,97.4,62,97.4z"/>
	</g>
	<g>
		<path class="st0" d="M66.3,97.5c1.4,0,2.5-1.1,2.5-2.5s-1.1-2.5-2.5-2.5s-2.5,1.1-2.5,2.5C63.8,96.4,64.9,97.5,66.3,97.5z"/>
	</g>
	<g>
		<path class="st0" d="M70.6,97.6c1.4,0,2.6-1.2,2.6-2.6s-1.2-2.6-2.6-2.6S68,93.6,68,95S69.2,97.6,70.6,97.6z"/>
	</g>
	<g>
		<path class="st0" d="M74.9,97.7c1.5,0,2.7-1.2,2.7-2.7s-1.2-2.6-2.7-2.6s-2.7,1.2-2.7,2.6C72.2,96.5,73.4,97.7,74.9,97.7z"/>
	</g>
	<g>
		<path class="st0" d="M79.2,97.7c1.5,0,2.7-1.2,2.7-2.7s-1.2-2.7-2.7-2.7s-2.7,1.2-2.7,2.7S77.7,97.7,79.2,97.7z"/>
	</g>
	<g>
		<path class="st0" d="M83.5,97.7c1.5,0,2.7-1.2,2.7-2.7s-1.2-2.7-2.7-2.7s-2.7,1.2-2.7,2.7S82,97.7,83.5,97.7z"/>
	</g>
	<g>
		<path class="st0" d="M87.8,97.7c1.5,0,2.7-1.2,2.7-2.7s-1.2-2.7-2.7-2.7s-2.7,1.2-2.7,2.7C85.1,96.5,86.3,97.7,87.8,97.7z"/>
	</g>
	<g>
		<path class="st0" d="M92.1,97.7c1.5,0,2.7-1.2,2.7-2.7s-1.2-2.7-2.7-2.7s-2.7,1.2-2.7,2.7S90.6,97.7,92.1,97.7z"/>
	</g>
	<g>
		<path class="st0" d="M96.4,97.6c1.5,0,2.6-1.2,2.6-2.6s-1.2-2.6-2.6-2.6s-2.6,1.2-2.6,2.6C93.8,96.5,95,97.6,96.4,97.6z"/>
	</g>
	<g>
		<path class="st0" d="M100.7,97.6c1.4,0,2.6-1.1,2.6-2.6c0-1.4-1.1-2.5-2.6-2.5c-1.4,0-2.5,1.1-2.5,2.5S99.3,97.6,100.7,97.6z"/>
	</g>
	<g>
		<path class="st0" d="M105,97.4c1.3,0,2.4-1.1,2.4-2.4s-1.1-2.4-2.4-2.4s-2.4,1.1-2.4,2.4S103.7,97.4,105,97.4z"/>
	</g>
	<g>
		<path class="st0" d="M109.3,97.3c1.3,0,2.3-1,2.3-2.3s-1-2.3-2.3-2.3s-2.3,1-2.3,2.3S108.1,97.3,109.3,97.3z"/>
	</g>
	<g>
		<path class="st0" d="M113.6,97.1c1.2,0,2.1-0.9,2.1-2.1s-0.9-2.1-2.1-2.1s-2.1,0.9-2.1,2.1S112.5,97.1,113.6,97.1z"/>
	</g>
	<g>
		<path class="st0" d="M117.9,96.9c1,0,1.9-0.8,1.9-1.9c0-1-0.8-1.9-1.9-1.9c-1,0-1.9,0.8-1.9,1.9C116.1,96,116.9,96.9,117.9,96.9z"
			/>
	</g>
	<g>
		<path class="st0" d="M122.2,96.7c0.9,0,1.6-0.7,1.6-1.6s-0.7-1.6-1.6-1.6s-1.6,0.7-1.6,1.6C120.6,95.9,121.3,96.7,122.2,96.7z"/>
	</g>
	<g>
		<path class="st0" d="M126.5,96.4c0.8,0,1.4-0.6,1.4-1.4s-0.6-1.4-1.4-1.4s-1.4,0.6-1.4,1.4C125.2,95.8,125.8,96.4,126.5,96.4z"/>
	</g>
	<g>
		<path class="st0" d="M130.8,96.1c0.6,0,1.1-0.5,1.1-1.1s-0.5-1.1-1.1-1.1s-1.1,0.5-1.1,1.1C129.8,95.6,130.2,96.1,130.8,96.1z"/>
	</g>
	<g>
		<path class="st0" d="M135.2,95.7c0.4,0,0.7-0.3,0.7-0.7c0-0.4-0.3-0.7-0.7-0.7s-0.7,0.3-0.7,0.7C134.4,95.4,134.7,95.7,135.2,95.7
			z"/>
	</g>
	<g>
		<path class="st0" d="M139.5,95.4c0.2,0,0.4-0.2,0.4-0.4c0-0.2-0.2-0.4-0.4-0.4s-0.4,0.2-0.4,0.4C139.1,95.2,139.2,95.4,139.5,95.4
			z"/>
	</g>
	<g>
		<path class="st0" d="M27.5,99.4C27.6,99.4,27.6,99.3,27.5,99.4C27.6,99.3,27.5,99.3,27.5,99.4C27.5,99.2,27.5,99.3,27.5,99.4
			C27.5,99.3,27.5,99.4,27.5,99.4z"/>
	</g>
	<g>
		<path class="st0" d="M31.9,99.7c0.2,0,0.4-0.2,0.4-0.4c0-0.3-0.2-0.4-0.4-0.4c-0.3,0-0.4,0.2-0.4,0.4
			C31.4,99.5,31.6,99.7,31.9,99.7z"/>
	</g>
	<g>
		<path class="st0" d="M36.1,100.1c0.4,0,0.8-0.4,0.8-0.8s-0.3-0.8-0.8-0.8c-0.4,0-0.8,0.3-0.8,0.8C35.4,99.7,35.7,100.1,36.1,100.1
			z"/>
	</g>
	<g>
		<path class="st0" d="M40.5,100.4c0.6,0,1.1-0.5,1.1-1.1s-0.5-1.1-1.1-1.1s-1.1,0.5-1.1,1.1S39.8,100.4,40.5,100.4z"/>
	</g>
	<g>
		<path class="st0" d="M44.7,100.7c0.8,0,1.4-0.6,1.4-1.4s-0.6-1.4-1.4-1.4c-0.8,0-1.4,0.6-1.4,1.4C43.4,100.1,44,100.7,44.7,100.7z
			"/>
	</g>
	<g>
		<path class="st0" d="M49.1,100.9c0.9,0,1.6-0.7,1.6-1.6s-0.7-1.6-1.6-1.6c-0.9,0-1.6,0.7-1.6,1.6
			C47.4,100.2,48.2,100.9,49.1,100.9z"/>
	</g>
	<g>
		<path class="st0" d="M53.4,101.2c1,0,1.9-0.8,1.9-1.9c0-1-0.8-1.9-1.9-1.9c-1,0-1.9,0.8-1.9,1.9C51.5,100.3,52.3,101.2,53.4,101.2
			z"/>
	</g>
	<g>
		<path class="st0" d="M57.7,101.4c1.1,0,2.1-0.9,2.1-2.1s-0.9-2.1-2.1-2.1c-1.1,0-2.1,0.9-2.1,2.1
			C55.6,100.4,56.5,101.4,57.7,101.4z"/>
	</g>
	<g>
		<path class="st0" d="M62,101.5c1.2,0,2.2-1,2.2-2.2s-1-2.2-2.2-2.2s-2.2,1-2.2,2.2C59.7,100.6,60.7,101.5,62,101.5z"/>
	</g>
	<g>
		<path class="st0" d="M66.3,101.7c1.3,0,2.4-1.1,2.4-2.4s-1.1-2.4-2.4-2.4s-2.4,1.1-2.4,2.4S65,101.7,66.3,101.7z"/>
	</g>
	<g>
		<path class="st0" d="M70.6,101.8c1.4,0,2.5-1.1,2.5-2.5s-1.1-2.5-2.5-2.5s-2.5,1.1-2.5,2.5C68.1,100.7,69.2,101.8,70.6,101.8z"/>
	</g>
	<g>
		<path class="st0" d="M74.9,101.9c1.4,0,2.5-1.2,2.5-2.6s-1.1-2.6-2.5-2.6s-2.6,1.1-2.6,2.6C72.3,100.7,73.5,101.9,74.9,101.9z"/>
	</g>
	<g>
		<path class="st0" d="M79.2,101.9c1.4,0,2.6-1.2,2.6-2.6c0-1.5-1.2-2.6-2.6-2.6c-1.5,0-2.6,1.1-2.6,2.6
			C76.6,100.7,77.7,101.9,79.2,101.9z"/>
	</g>
	<g>
		<path class="st0" d="M83.5,101.9c1.5,0,2.6-1.2,2.6-2.6c0-1.5-1.2-2.6-2.6-2.6c-1.5,0-2.6,1.2-2.6,2.6
			C80.9,100.8,82,101.9,83.5,101.9z"/>
	</g>
	<g>
		<path class="st0" d="M87.8,101.9c1.4,0,2.6-1.2,2.6-2.6c0-1.5-1.2-2.6-2.6-2.6s-2.6,1.2-2.6,2.6C85.2,100.7,86.3,101.9,87.8,101.9
			z"/>
	</g>
	<g>
		<path class="st0" d="M92.1,101.9c1.4,0,2.6-1.1,2.6-2.6c0-1.4-1.2-2.6-2.6-2.6s-2.6,1.2-2.6,2.6C89.5,100.7,90.7,101.9,92.1,101.9
			z"/>
	</g>
	<g>
		<path class="st0" d="M96.4,101.8c1.4,0,2.5-1.1,2.5-2.5s-1.1-2.5-2.5-2.5s-2.5,1.1-2.5,2.5C93.9,100.7,95,101.8,96.4,101.8z"/>
	</g>
	<g>
		<path class="st0" d="M100.7,101.7c1.3,0,2.4-1.1,2.4-2.4c0-1.4-1.1-2.4-2.4-2.4s-2.4,1.1-2.4,2.4
			C98.3,100.6,99.4,101.7,100.7,101.7z"/>
	</g>
	<g>
		<path class="st0" d="M105,101.6c1.3,0,2.3-1,2.3-2.3s-1-2.3-2.3-2.3s-2.3,1-2.3,2.3S103.7,101.6,105,101.6z"/>
	</g>
	<g>
		<path class="st0" d="M109.3,101.5c1.2,0,2.2-0.9,2.2-2.2c0-1.2-1-2.2-2.2-2.2s-2.2,1-2.2,2.2C107.2,100.5,108.1,101.5,109.3,101.5
			z"/>
	</g>
	<g>
		<path class="st0" d="M113.6,101.3c1.1,0,2-0.9,2-2s-0.9-2-2-2s-2,0.9-2,2C111.7,100.4,112.5,101.3,113.6,101.3z"/>
	</g>
	<g>
		<path class="st0" d="M117.9,101.1c1,0,1.7-0.8,1.7-1.8s-0.8-1.8-1.7-1.8c-1,0-1.8,0.8-1.8,1.8C116.2,100.3,117,101.1,117.9,101.1z
			"/>
	</g>
	<g>
		<path class="st0" d="M122.2,100.8c0.8,0,1.5-0.7,1.5-1.5s-0.7-1.5-1.5-1.5s-1.5,0.7-1.5,1.5C120.7,100.1,121.4,100.8,122.2,100.8z
			"/>
	</g>
	<g>
		<path class="st0" d="M126.5,100.5c0.7,0,1.2-0.6,1.2-1.2c0-0.7-0.6-1.2-1.2-1.2c-0.7,0-1.2,0.5-1.2,1.2S125.9,100.5,126.5,100.5z"
			/>
	</g>
	<g>
		<path class="st0" d="M130.8,100.2c0.5,0,0.9-0.4,0.9-0.9s-0.4-0.9-0.9-0.9s-0.9,0.4-0.9,0.9C129.9,99.8,130.3,100.2,130.8,100.2z"
			/>
	</g>
	<g>
		<path class="st0" d="M135.2,99.9c0.3,0,0.6-0.3,0.6-0.6c0-0.3-0.3-0.6-0.6-0.6s-0.6,0.3-0.6,0.6C134.6,99.6,134.8,99.9,135.2,99.9
			z"/>
	</g>
	<g>
		<path class="st0" d="M139.5,99.5c0.1,0,0.3-0.1,0.3-0.2s-0.1-0.3-0.3-0.3c-0.1,0-0.2,0.1-0.2,0.3
			C139.2,99.4,139.3,99.5,139.5,99.5z"/>
	</g>
	<g>
		<path class="st0" d="M31.9,103.9c0.1,0,0.3-0.1,0.3-0.3c0-0.1-0.1-0.3-0.3-0.3s-0.3,0.1-0.3,0.3C31.6,103.8,31.7,103.9,31.9,103.9
			z"/>
	</g>
	<g>
		<path class="st0" d="M36.1,104.2c0.4,0,0.6-0.3,0.6-0.6c0-0.3-0.3-0.6-0.6-0.6s-0.6,0.3-0.6,0.6C35.5,104,35.8,104.2,36.1,104.2z"
			/>
	</g>
	<g>
		<path class="st0" d="M40.5,104.5c0.5,0,0.9-0.4,0.9-1c0-0.5-0.4-0.9-0.9-0.9s-1,0.4-1,0.9C39.5,104.1,39.9,104.5,40.5,104.5z"/>
	</g>
	<g>
		<path class="st0" d="M44.7,104.8c0.7,0,1.2-0.5,1.2-1.3c0-0.7-0.5-1.2-1.2-1.2s-1.2,0.5-1.2,1.2C43.5,104.3,44.1,104.8,44.7,104.8
			z"/>
	</g>
	<g>
		<path class="st0" d="M49.1,105.1c0.8,0,1.5-0.7,1.5-1.5s-0.7-1.5-1.5-1.5s-1.5,0.7-1.5,1.5S48.2,105.1,49.1,105.1z"/>
	</g>
	<g>
		<path class="st0" d="M53.4,105.3c0.9,0,1.7-0.8,1.7-1.7c0-0.9-0.8-1.7-1.7-1.7s-1.7,0.8-1.7,1.7S52.4,105.3,53.4,105.3z"/>
	</g>
	<g>
		<path class="st0" d="M57.7,105.5c1.1,0,1.9-0.9,1.9-1.9s-0.9-1.9-1.9-1.9c-1.1,0-1.9,0.9-1.9,1.9
			C55.8,104.7,56.6,105.5,57.7,105.5z"/>
	</g>
	<g>
		<path class="st0" d="M62,105.7c1.2,0,2.1-0.9,2.1-2.1c0-1.1-0.9-2.1-2.1-2.1c-1.1,0-2.1,1-2.1,2.1C59.9,104.8,60.8,105.7,62,105.7
			z"/>
	</g>
	<g>
		<path class="st0" d="M66.3,105.8c1.2,0,2.2-1,2.2-2.2s-1-2.2-2.2-2.2s-2.2,1-2.2,2.2C64.1,104.8,65.1,105.8,66.3,105.8z"/>
	</g>
	<g>
		<path class="st0" d="M70.6,105.9c1.3,0,2.3-1.1,2.3-2.4s-1-2.3-2.3-2.3s-2.3,1-2.3,2.3C68.3,104.9,69.3,105.9,70.6,105.9z"/>
	</g>
	<g>
		<path class="st0" d="M74.9,106c1.3,0,2.4-1.1,2.4-2.4s-1.1-2.4-2.4-2.4s-2.4,1.1-2.4,2.4C72.5,105,73.5,106,74.9,106z"/>
	</g>
	<g>
		<path class="st0" d="M79.2,106c1.4,0,2.5-1.1,2.5-2.5s-1.1-2.5-2.5-2.5s-2.5,1.1-2.5,2.5C76.7,105,77.8,106,79.2,106z"/>
	</g>
	<g>
		<path class="st0" d="M83.5,106.1c1.4,0,2.5-1.1,2.5-2.5s-1.1-2.5-2.5-2.5s-2.5,1.1-2.5,2.5S82.1,106.1,83.5,106.1z"/>
	</g>
	<g>
		<path class="st0" d="M87.8,106.1c1.4,0,2.5-1.1,2.5-2.5s-1.1-2.5-2.5-2.5s-2.5,1.1-2.5,2.5S86.4,106.1,87.8,106.1z"/>
	</g>
	<g>
		<path class="st0" d="M92.1,106c1.4,0,2.4-1.1,2.4-2.5c0-1.3-1.1-2.4-2.4-2.4s-2.4,1.1-2.4,2.4C89.7,105,90.8,106,92.1,106z"/>
	</g>
	<g>
		<path class="st0" d="M96.4,106c1.3,0,2.4-1.1,2.4-2.4s-1.1-2.4-2.4-2.4s-2.4,1.1-2.4,2.4S95.1,106,96.4,106z"/>
	</g>
	<g>
		<path class="st0" d="M100.7,105.9c1.3,0,2.3-1,2.3-2.3c0-1.2-1-2.3-2.3-2.3s-2.3,1-2.3,2.3C98.4,104.9,99.4,105.9,100.7,105.9z"/>
	</g>
	<g>
		<path class="st0" d="M105,105.8c1.2,0,2.2-1,2.2-2.2s-1-2.2-2.2-2.2s-2.2,1-2.2,2.2C102.9,104.8,103.8,105.8,105,105.8z"/>
	</g>
	<g>
		<path class="st0" d="M109.3,105.6c1.1,0,2-0.9,2-2s-0.9-2-2-2s-2,0.9-2,2S108.2,105.6,109.3,105.6z"/>
	</g>
	<g>
		<path class="st0" d="M113.6,105.4c1,0,1.8-0.8,1.8-1.8s-0.8-1.8-1.8-1.8s-1.8,0.8-1.8,1.8C111.8,104.6,112.6,105.4,113.6,105.4z"
			/>
	</g>
	<g>
		<path class="st0" d="M117.9,105.2c0.9,0,1.6-0.7,1.6-1.6s-0.7-1.6-1.6-1.6s-1.6,0.7-1.6,1.6S117.1,105.2,117.9,105.2z"/>
	</g>
	<g>
		<path class="st0" d="M122.2,105c0.7,0,1.4-0.6,1.4-1.4c0-0.7-0.6-1.3-1.4-1.3s-1.3,0.6-1.3,1.3C120.9,104.4,121.5,105,122.2,105z"
			/>
	</g>
	<g>
		<path class="st0" d="M126.5,104.7c0.6,0,1.1-0.5,1.1-1.1s-0.5-1.1-1.1-1.1s-1.1,0.5-1.1,1.1C125.5,104.2,125.9,104.7,126.5,104.7z
			"/>
	</g>
	<g>
		<path class="st0" d="M130.8,104.4c0.4,0,0.8-0.3,0.8-0.8c0-0.4-0.3-0.7-0.8-0.7c-0.4,0-0.8,0.3-0.8,0.7
			C130.1,104,130.4,104.4,130.8,104.4z"/>
	</g>
	<g>
		<path class="st0" d="M135.2,104c0.2,0,0.4-0.2,0.4-0.4c0-0.2-0.2-0.4-0.4-0.4c-0.3,0-0.5,0.2-0.5,0.4
			C134.7,103.9,134.9,104,135.2,104z"/>
	</g>
	<g>
		<path class="st0" d="M139.5,103.7c0.1,0,0.1,0,0.1-0.1c0,0,0-0.1-0.1-0.1c0,0-0.1,0-0.1,0.1S139.4,103.7,139.5,103.7z"/>
	</g>
	<g>
		<path class="st0" d="M31.9,108c0.1,0,0.1-0.1,0.1-0.1c0-0.1,0-0.1-0.1-0.1s-0.1,0-0.1,0.1C31.7,108,31.8,108,31.9,108z"/>
	</g>
	<g>
		<path class="st0" d="M36.1,108.3c0.2,0,0.4-0.2,0.4-0.4c0-0.2-0.2-0.4-0.4-0.4s-0.4,0.2-0.4,0.4C35.7,108.1,35.9,108.3,36.1,108.3
			z"/>
	</g>
	<g>
		<path class="st0" d="M40.5,108.6c0.4,0,0.7-0.3,0.7-0.7c0-0.4-0.3-0.7-0.7-0.7s-0.7,0.3-0.7,0.7C39.7,108.3,40,108.6,40.5,108.6z"
			/>
	</g>
	<g>
		<path class="st0" d="M44.7,108.9c0.6,0,1-0.5,1-1c0-0.6-0.5-1.1-1-1.1c-0.6,0-1,0.5-1,1.1S44.2,108.9,44.7,108.9z"/>
	</g>
	<g>
		<path class="st0" d="M49.1,109.2c0.7,0,1.3-0.6,1.3-1.3c0-0.7-0.6-1.3-1.3-1.3s-1.3,0.6-1.3,1.3S48.3,109.2,49.1,109.2z"/>
	</g>
	<g>
		<path class="st0" d="M53.4,109.4c0.8,0,1.5-0.7,1.5-1.5c0-0.9-0.7-1.5-1.5-1.5s-1.5,0.7-1.5,1.5C51.8,108.8,52.5,109.4,53.4,109.4
			z"/>
	</g>
	<g>
		<path class="st0" d="M57.7,109.6c0.9,0,1.7-0.8,1.7-1.7c0-1-0.8-1.7-1.7-1.7c-1,0-1.7,0.8-1.7,1.7
			C55.9,108.8,56.7,109.6,57.7,109.6z"/>
	</g>
	<g>
		<path class="st0" d="M62,109.8c1.1,0,1.9-0.9,1.9-1.9c0-1.1-0.8-1.9-1.9-1.9c-1,0-1.9,0.8-1.9,1.9S60.9,109.8,62,109.8z"/>
	</g>
	<g>
		<path class="st0" d="M66.3,110c1.1,0,2-0.9,2-2s-0.9-2.1-2-2.1s-2,0.9-2,2.1C64.2,109.1,65.2,110,66.3,110z"/>
	</g>
	<g>
		<path class="st0" d="M70.6,110.1c1.2,0,2.2-1,2.2-2.2s-1-2.2-2.2-2.2s-2.2,0.9-2.2,2.2C68.4,109.1,69.4,110.1,70.6,110.1z"/>
	</g>
	<g>
		<path class="st0" d="M74.9,110.2c1.2,0,2.2-1,2.2-2.2s-1-2.2-2.2-2.2s-2.2,1-2.2,2.2C72.7,109.1,73.7,110.2,74.9,110.2z"/>
	</g>
	<g>
		<path class="st0" d="M79.2,110.2c1.2,0,2.3-1,2.3-2.3s-1-2.3-2.3-2.3s-2.3,1-2.3,2.3C76.9,109.2,77.9,110.2,79.2,110.2z"/>
	</g>
	<g>
		<path class="st0" d="M83.5,110.2c1.3,0,2.3-1,2.3-2.3s-1-2.3-2.3-2.3s-2.3,1-2.3,2.3S82.2,110.2,83.5,110.2z"/>
	</g>
	<g>
		<path class="st0" d="M87.8,110.2c1.3,0,2.3-1,2.3-2.3s-1-2.3-2.3-2.3s-2.3,1.1-2.3,2.3C85.5,109.2,86.5,110.2,87.8,110.2z"/>
	</g>
	<g>
		<path class="st0" d="M92.1,110.2c1.3,0,2.3-1,2.3-2.2c0-1.3-1-2.3-2.3-2.3c-1.2,0-2.3,1-2.3,2.3C89.8,109.2,90.9,110.2,92.1,110.2
			z"/>
	</g>
	<g>
		<path class="st0" d="M96.4,110.1c1.2,0,2.2-1,2.2-2.2s-1-2.2-2.2-2.2s-2.2,1-2.2,2.2C94.2,109.1,95.2,110.1,96.4,110.1z"/>
	</g>
	<g>
		<path class="st0" d="M100.7,110c1.2,0,2.1-0.9,2.1-2.1s-0.9-2.1-2.1-2.1s-2.1,0.9-2.1,2.1S99.5,110,100.7,110z"/>
	</g>
	<g>
		<path class="st0" d="M105,109.9c1.1,0,2-0.9,2-2s-0.9-2-2-2s-2,0.9-2,2S103.9,109.9,105,109.9z"/>
	</g>
	<g>
		<path class="st0" d="M109.3,109.7c1,0,1.8-0.8,1.8-1.8s-0.8-1.8-1.8-1.8s-1.8,0.8-1.8,1.8C107.5,108.9,108.3,109.7,109.3,109.7z"
			/>
	</g>
	<g>
		<path class="st0" d="M113.6,109.5c0.9,0,1.6-0.7,1.6-1.6s-0.7-1.6-1.6-1.6s-1.6,0.7-1.6,1.6S112.7,109.5,113.6,109.5z"/>
	</g>
	<g>
		<path class="st0" d="M117.9,109.3c0.8,0,1.4-0.6,1.4-1.4s-0.6-1.4-1.4-1.4s-1.4,0.6-1.4,1.4C116.5,108.7,117.1,109.3,117.9,109.3z
			"/>
	</g>
	<g>
		<path class="st0" d="M122.2,109.1c0.7,0,1.2-0.5,1.2-1.2s-0.5-1.2-1.2-1.2s-1.2,0.5-1.2,1.2C121.1,108.5,121.6,109.1,122.2,109.1z
			"/>
	</g>
	<g>
		<path class="st0" d="M126.5,108.8c0.5,0,0.9-0.4,0.9-0.9s-0.4-0.9-0.9-0.9s-0.9,0.4-0.9,0.9S126.1,108.8,126.5,108.8z"/>
	</g>
	<g>
		<path class="st0" d="M130.8,108.5c0.3,0,0.6-0.3,0.6-0.6c0-0.3-0.3-0.6-0.6-0.6s-0.6,0.3-0.6,0.6
			C130.3,108.2,130.5,108.5,130.8,108.5z"/>
	</g>
	<g>
		<path class="st0" d="M135.2,108.2c0.1,0,0.3-0.1,0.3-0.3c0-0.2-0.1-0.3-0.3-0.3s-0.3,0.1-0.3,0.3S135,108.2,135.2,108.2z"/>
	</g>
	<g>
		<path class="st0" d="M36.1,112.4c0.1,0,0.2-0.1,0.2-0.2s-0.1-0.3-0.2-0.3c-0.1,0-0.2,0.1-0.2,0.3C35.9,112.3,36,112.4,36.1,112.4z
			"/>
	</g>
	<g>
		<path class="st0" d="M40.5,112.7c0.3,0,0.5-0.2,0.5-0.5s-0.2-0.5-0.5-0.5s-0.5,0.2-0.5,0.5C39.9,112.5,40.2,112.7,40.5,112.7z"/>
	</g>
	<g>
		<path class="st0" d="M44.7,113c0.5,0,0.9-0.4,0.9-0.8c0-0.5-0.4-0.8-0.9-0.8s-0.8,0.4-0.8,0.8C43.9,112.7,44.3,113,44.7,113z"/>
	</g>
	<g>
		<path class="st0" d="M49.1,113.3c0.6,0,1.1-0.5,1.1-1.1s-0.5-1.1-1.1-1.1s-1.1,0.5-1.1,1.1S48.5,113.3,49.1,113.3z"/>
	</g>
	<g>
		<path class="st0" d="M53.4,113.5c0.7,0,1.3-0.6,1.3-1.3c0-0.8-0.6-1.4-1.3-1.4s-1.3,0.6-1.3,1.4C52,112.9,52.6,113.5,53.4,113.5z"
			/>
	</g>
	<g>
		<path class="st0" d="M57.7,113.7c0.8,0,1.5-0.7,1.5-1.5s-0.7-1.5-1.5-1.5s-1.5,0.7-1.5,1.5S56.8,113.7,57.7,113.7z"/>
	</g>
	<g>
		<path class="st0" d="M62,113.9c0.9,0,1.7-0.8,1.7-1.6c0-1-0.8-1.7-1.7-1.7s-1.7,0.7-1.7,1.7C60.3,113.1,61.1,113.9,62,113.9z"/>
	</g>
	<g>
		<path class="st0" d="M66.3,114c1,0,1.8-0.8,1.8-1.8s-0.8-1.8-1.8-1.8s-1.8,0.8-1.8,1.8S65.3,114,66.3,114z"/>
	</g>
	<g>
		<path class="st0" d="M70.6,114.1c1.1,0,1.9-0.8,1.9-1.9s-0.9-1.9-1.9-1.9c-1.1,0-1.9,0.8-1.9,1.9
			C68.6,113.3,69.5,114.1,70.6,114.1z"/>
	</g>
	<g>
		<path class="st0" d="M74.9,114.2c1.1,0,2-0.9,2-2s-0.9-2-2-2s-2,0.9-2,2C72.9,113.3,73.8,114.2,74.9,114.2z"/>
	</g>
	<g>
		<path class="st0" d="M79.2,114.3c1.1,0,2.1-0.9,2.1-2c0-1.2-0.9-2.1-2.1-2.1c-1.1,0-2.1,0.9-2.1,2.1
			C77.1,113.3,78,114.3,79.2,114.3z"/>
	</g>
	<g>
		<path class="st0" d="M83.5,114.3c1.2,0,2.1-1,2.1-2.1c0-1.2-0.9-2.1-2.1-2.1s-2.1,0.9-2.1,2.1S82.3,114.3,83.5,114.3z"/>
	</g>
	<g>
		<path class="st0" d="M87.8,114.3c1.1,0,2.1-0.9,2.1-2c0-1.2-0.9-2.1-2.1-2.1c-1.1,0-2.1,0.9-2.1,2.1
			C85.7,113.4,86.7,114.3,87.8,114.3z"/>
	</g>
	<g>
		<path class="st0" d="M92.1,114.2c1.1,0,2.1-0.9,2.1-2s-0.9-2.1-2.1-2.1c-1.1,0-2,0.9-2,2.1C90.1,113.3,91,114.2,92.1,114.2z"/>
	</g>
	<g>
		<path class="st0" d="M96.4,114.2c1.1,0,2-0.9,2-1.9c0-1.1-0.9-2-2-2s-2,0.9-2,2C94.4,113.3,95.3,114.2,96.4,114.2z"/>
	</g>
	<g>
		<path class="st0" d="M100.7,114.1c1,0,1.9-0.8,1.9-1.8s-0.8-1.9-1.9-1.9c-1,0-1.9,0.9-1.9,1.9C98.8,113.3,99.7,114.1,100.7,114.1z
			"/>
	</g>
	<g>
		<path class="st0" d="M105,114c1,0,1.7-0.8,1.7-1.7c0-1-0.8-1.8-1.7-1.8c-1,0-1.8,0.8-1.8,1.8C103.3,113.2,104,114,105,114z"/>
	</g>
	<g>
		<path class="st0" d="M109.3,113.8c0.9,0,1.6-0.7,1.6-1.6s-0.7-1.6-1.6-1.6s-1.6,0.7-1.6,1.6C107.7,113.1,108.4,113.8,109.3,113.8z
			"/>
	</g>
	<g>
		<path class="st0" d="M113.6,113.6c0.8,0,1.4-0.6,1.4-1.4s-0.6-1.4-1.4-1.4s-1.4,0.6-1.4,1.4S112.8,113.6,113.6,113.6z"/>
	</g>
	<g>
		<path class="st0" d="M117.9,113.4c0.6,0,1.2-0.5,1.2-1.2s-0.5-1.2-1.2-1.2s-1.2,0.5-1.2,1.2C116.8,112.9,117.3,113.4,117.9,113.4z
			"/>
	</g>
	<g>
		<path class="st0" d="M122.2,113.1c0.5,0,0.9-0.4,0.9-0.9s-0.4-1-0.9-1s-0.9,0.4-0.9,1C121.3,112.7,121.7,113.1,122.2,113.1z"/>
	</g>
	<g>
		<path class="st0" d="M126.5,112.9c0.4,0,0.7-0.3,0.7-0.7c0-0.4-0.3-0.7-0.7-0.7c-0.4,0-0.7,0.3-0.7,0.7
			C125.9,112.6,126.1,112.9,126.5,112.9z"/>
	</g>
	<g>
		<path class="st0" d="M130.8,112.6c0.2,0,0.4-0.2,0.4-0.4c0-0.2-0.1-0.4-0.4-0.4c-0.2,0-0.4,0.2-0.4,0.4
			C130.5,112.4,130.6,112.6,130.8,112.6z"/>
	</g>
	<g>
		<path class="st0" d="M135.2,112.3C135.2,112.3,135.2,112.2,135.2,112.3C135.3,112.2,135.2,112.2,135.2,112.3
			C135.1,112.1,135.1,112.2,135.2,112.3C135.1,112.2,135.1,112.3,135.2,112.3z"/>
	</g>
	<g>
		<path class="st0" d="M40.5,116.8c0.2,0,0.3-0.1,0.3-0.3c0-0.2-0.1-0.3-0.3-0.3s-0.3,0.1-0.3,0.3C40.2,116.7,40.3,116.8,40.5,116.8
			z"/>
	</g>
	<g>
		<path class="st0" d="M44.7,117.1c0.3,0,0.6-0.3,0.6-0.6c0-0.3-0.3-0.6-0.6-0.6s-0.6,0.3-0.6,0.6C44.2,116.8,44.4,117.1,44.7,117.1
			z"/>
	</g>
	<g>
		<path class="st0" d="M49.1,117.4c0.5,0,0.9-0.4,0.9-0.8c0-0.5-0.4-0.8-0.9-0.8s-0.9,0.4-0.9,0.8C48.2,117,48.6,117.4,49.1,117.4z"
			/>
	</g>
	<g>
		<path class="st0" d="M53.4,117.6c0.6,0,1.1-0.5,1.1-1.1s-0.5-1.1-1.1-1.1s-1.1,0.5-1.1,1.1C52.3,117.1,52.8,117.6,53.4,117.6z"/>
	</g>
	<g>
		<path class="st0" d="M57.7,117.8c0.7,0,1.3-0.6,1.3-1.3c0-0.7-0.6-1.3-1.3-1.3s-1.3,0.6-1.3,1.3C56.4,117.2,57,117.8,57.7,117.8z"
			/>
	</g>
	<g>
		<path class="st0" d="M62,117.9c0.8,0,1.4-0.6,1.4-1.4s-0.6-1.4-1.4-1.4c-0.8,0-1.4,0.6-1.4,1.4C60.5,117.3,61.2,117.9,62,117.9z"
			/>
	</g>
	<g>
		<path class="st0" d="M66.3,118.1c0.9,0,1.6-0.7,1.6-1.6s-0.7-1.6-1.6-1.6s-1.6,0.7-1.6,1.6C64.7,117.4,65.4,118.1,66.3,118.1z"/>
	</g>
	<g>
		<path class="st0" d="M70.6,118.2c0.9,0,1.7-0.7,1.7-1.7c0-0.9-0.8-1.7-1.7-1.7c-0.9,0-1.7,0.7-1.7,1.7
			C68.9,117.4,69.6,118.2,70.6,118.2z"/>
	</g>
	<g>
		<path class="st0" d="M74.9,118.3c1,0,1.8-0.8,1.8-1.8s-0.8-1.7-1.8-1.7s-1.8,0.8-1.8,1.7C73.1,117.5,73.9,118.3,74.9,118.3z"/>
	</g>
	<g>
		<path class="st0" d="M79.2,118.3c1,0,1.8-0.8,1.8-1.8s-0.8-1.8-1.8-1.8s-1.8,0.8-1.8,1.8C77.4,117.5,78.2,118.3,79.2,118.3z"/>
	</g>
	<g>
		<path class="st0" d="M83.5,118.3c1,0,1.8-0.8,1.8-1.8s-0.8-1.8-1.8-1.8s-1.8,0.8-1.8,1.8S82.5,118.3,83.5,118.3z"/>
	</g>
	<g>
		<path class="st0" d="M87.8,118.3c1,0,1.8-0.8,1.8-1.8s-0.8-1.8-1.8-1.8s-1.8,0.8-1.8,1.8S86.8,118.3,87.8,118.3z"/>
	</g>
	<g>
		<path class="st0" d="M92.1,118.3c1,0,1.8-0.8,1.8-1.8s-0.8-1.8-1.8-1.8s-1.8,0.8-1.8,1.8C90.3,117.5,91.1,118.3,92.1,118.3z"/>
	</g>
	<g>
		<path class="st0" d="M96.4,118.2c1,0,1.7-0.8,1.7-1.7c0-0.9-0.8-1.7-1.7-1.7c-0.9,0-1.7,0.8-1.7,1.7
			C94.7,117.4,95.5,118.2,96.4,118.2z"/>
	</g>
	<g>
		<path class="st0" d="M100.7,118.1c0.9,0,1.6-0.7,1.6-1.6s-0.7-1.6-1.6-1.6s-1.6,0.8-1.6,1.6C99.1,117.4,99.8,118.1,100.7,118.1z"
			/>
	</g>
	<g>
		<path class="st0" d="M105,118c0.8,0,1.5-0.7,1.5-1.5s-0.7-1.5-1.5-1.5s-1.5,0.7-1.5,1.5C103.5,117.4,104.2,118,105,118z"/>
	</g>
	<g>
		<path class="st0" d="M109.3,117.9c0.7,0,1.3-0.6,1.3-1.4c0-0.7-0.6-1.4-1.3-1.4s-1.3,0.6-1.3,1.4S108.6,117.9,109.3,117.9z"/>
	</g>
	<g>
		<path class="st0" d="M113.6,117.7c0.6,0,1.2-0.5,1.2-1.2c0-0.6-0.5-1.2-1.2-1.2c-0.6,0-1.2,0.5-1.2,1.2
			C112.5,117.2,113,117.7,113.6,117.7z"/>
	</g>
	<g>
		<path class="st0" d="M117.9,117.4c0.5,0,0.9-0.4,0.9-0.9s-0.4-0.9-0.9-0.9s-0.9,0.4-0.9,0.9S117.4,117.4,117.9,117.4z"/>
	</g>
	<g>
		<path class="st0" d="M122.2,117.2c0.4,0,0.7-0.3,0.7-0.7c0-0.4-0.3-0.7-0.7-0.7c-0.4,0-0.7,0.3-0.7,0.7
			C121.5,116.9,121.8,117.2,122.2,117.2z"/>
	</g>
	<g>
		<path class="st0" d="M126.5,117c0.2,0,0.4-0.2,0.4-0.5c0-0.2-0.2-0.4-0.4-0.4c-0.2,0-0.4,0.2-0.4,0.4
			C126.1,116.7,126.3,117,126.5,117z"/>
	</g>
	<g>
		<path class="st0" d="M130.8,116.7c0.1,0,0.1-0.1,0.1-0.2s0-0.1-0.1-0.1s-0.1,0.1-0.1,0.1C130.7,116.6,130.8,116.7,130.8,116.7z"/>
	</g>
	<g>
		<path class="st0" d="M40.5,120.9C40.5,120.9,40.5,120.8,40.5,120.9C40.5,120.8,40.5,120.8,40.5,120.9
			C40.4,120.8,40.4,120.8,40.5,120.9C40.4,120.8,40.4,120.9,40.5,120.9z"/>
	</g>
	<g>
		<path class="st0" d="M44.7,121.1c0.2,0,0.3-0.1,0.3-0.3c0-0.2-0.1-0.3-0.3-0.3s-0.3,0.1-0.3,0.3C44.5,121,44.6,121.1,44.7,121.1z"
			/>
	</g>
	<g>
		<path class="st0" d="M49.1,121.4c0.3,0,0.6-0.3,0.6-0.6c0-0.3-0.2-0.5-0.6-0.5c-0.3,0-0.6,0.3-0.6,0.5
			C48.5,121.1,48.8,121.4,49.1,121.4z"/>
	</g>
	<g>
		<path class="st0" d="M53.4,121.6c0.4,0,0.8-0.3,0.8-0.8s-0.4-0.8-0.8-0.8c-0.4,0-0.8,0.3-0.8,0.8
			C52.6,121.3,52.9,121.6,53.4,121.6z"/>
	</g>
	<g>
		<path class="st0" d="M57.7,121.8c0.5,0,1-0.4,1-1c0-0.5-0.4-1-1-1c-0.5,0-1,0.5-1,1C56.7,121.4,57.1,121.8,57.7,121.8z"/>
	</g>
	<g>
		<path class="st0" d="M62,122c0.7,0,1.2-0.5,1.2-1.2c0-0.6-0.5-1.1-1.2-1.1c-0.6,0-1.2,0.5-1.2,1.1C60.8,121.5,61.3,122,62,122z"/>
	</g>
	<g>
		<path class="st0" d="M66.3,122.1c0.7,0,1.3-0.6,1.3-1.3c0-0.7-0.6-1.3-1.3-1.3c-0.7,0-1.3,0.6-1.3,1.3S65.6,122.1,66.3,122.1z"/>
	</g>
	<g>
		<path class="st0" d="M70.6,122.2c0.8,0,1.4-0.6,1.4-1.4s-0.6-1.4-1.4-1.4s-1.4,0.6-1.4,1.4S69.8,122.2,70.6,122.2z"/>
	</g>
	<g>
		<path class="st0" d="M74.9,122.3c0.8,0,1.5-0.7,1.5-1.5s-0.7-1.5-1.5-1.5s-1.5,0.7-1.5,1.5C73.4,121.6,74.1,122.3,74.9,122.3z"/>
	</g>
	<g>
		<path class="st0" d="M79.2,122.4c0.9,0,1.5-0.7,1.5-1.6c0-0.8-0.7-1.6-1.5-1.6c-0.9,0-1.6,0.7-1.6,1.6
			C77.6,121.7,78.3,122.4,79.2,122.4z"/>
	</g>
	<g>
		<path class="st0" d="M83.5,122.4c0.9,0,1.6-0.7,1.6-1.6c0-0.8-0.7-1.6-1.6-1.6s-1.6,0.7-1.6,1.6C81.9,121.7,82.6,122.4,83.5,122.4
			z"/>
	</g>
	<g>
		<path class="st0" d="M87.8,122.4c0.9,0,1.6-0.7,1.6-1.6c0-0.8-0.7-1.6-1.6-1.6s-1.6,0.7-1.6,1.6C86.2,121.7,86.9,122.4,87.8,122.4
			z"/>
	</g>
	<g>
		<path class="st0" d="M92.1,122.3c0.8,0,1.5-0.7,1.5-1.5s-0.7-1.5-1.5-1.5s-1.5,0.7-1.5,1.5C90.6,121.7,91.3,122.3,92.1,122.3z"/>
	</g>
	<g>
		<path class="st0" d="M96.4,122.3c0.8,0,1.5-0.6,1.5-1.4s-0.7-1.4-1.5-1.4s-1.4,0.6-1.4,1.4C95,121.6,95.6,122.3,96.4,122.3z"/>
	</g>
	<g>
		<path class="st0" d="M100.7,122.2c0.8,0,1.4-0.6,1.4-1.4s-0.6-1.4-1.4-1.4c-0.7,0-1.4,0.6-1.4,1.4
			C99.3,121.6,100,122.2,100.7,122.2z"/>
	</g>
	<g>
		<path class="st0" d="M105,122c0.7,0,1.2-0.5,1.2-1.2s-0.5-1.2-1.2-1.2s-1.2,0.5-1.2,1.2S104.3,122,105,122z"/>
	</g>
	<g>
		<path class="st0" d="M109.3,121.9c0.6,0,1.1-0.5,1.1-1.1s-0.5-1.1-1.1-1.1s-1.1,0.5-1.1,1.1C108.2,121.4,108.7,121.9,109.3,121.9z
			"/>
	</g>
	<g>
		<path class="st0" d="M113.6,121.7c0.5,0,0.9-0.4,0.9-0.9s-0.4-0.9-0.9-0.9s-0.9,0.4-0.9,0.9C112.8,121.3,113.1,121.7,113.6,121.7z
			"/>
	</g>
	<g>
		<circle class="st0" cx="117.9" cy="120.8" r="0.7"/>
	</g>
	<g>
		<path class="st0" d="M122.2,121.2c0.2,0,0.4-0.2,0.4-0.4c0-0.2-0.2-0.4-0.4-0.4c-0.2,0-0.4,0.2-0.4,0.4
			C121.8,121.1,122,121.2,122.2,121.2z"/>
	</g>
	<g>
		<path class="st0" d="M126.5,121c0.1,0,0.2-0.1,0.2-0.2s-0.1-0.2-0.2-0.2s-0.2,0.1-0.2,0.2C126.4,120.9,126.4,121,126.5,121z"/>
	</g>
	<g>
		<path class="st0" d="M44.7,125.1C44.8,125.1,44.8,125.1,44.7,125.1C44.8,125.1,44.8,125.1,44.7,125.1L44.7,125.1L44.7,125.1z"/>
	</g>
	<g>
		<path class="st0" d="M49.1,125.4c0.2,0,0.3-0.1,0.3-0.3c0-0.1-0.1-0.3-0.3-0.3c-0.1,0-0.3,0.1-0.3,0.3S48.9,125.4,49.1,125.4z"/>
	</g>
	<g>
		<path class="st0" d="M53.4,125.6c0.3,0,0.5-0.2,0.5-0.5s-0.2-0.5-0.5-0.5s-0.5,0.2-0.5,0.5S53.1,125.6,53.4,125.6z"/>
	</g>
	<g>
		<path class="st0" d="M57.7,125.8c0.4,0,0.7-0.3,0.7-0.7c0-0.4-0.3-0.7-0.7-0.7s-0.7,0.3-0.7,0.7S57.3,125.8,57.7,125.8z"/>
	</g>
	<g>
		<path class="st0" d="M62,126c0.5,0,0.9-0.4,0.9-0.9s-0.4-0.9-0.9-0.9s-0.9,0.4-0.9,0.9S61.5,126,62,126z"/>
	</g>
	<g>
		<path class="st0" d="M66.3,126.1c0.6,0,1-0.5,1-1c0-0.6-0.5-1-1-1c-0.6,0-1,0.4-1,1S65.7,126.1,66.3,126.1z"/>
	</g>
	<g>
		<path class="st0" d="M70.6,126.2c0.6,0,1.1-0.5,1.1-1.1s-0.5-1.1-1.1-1.1s-1.1,0.5-1.1,1.1S70,126.2,70.6,126.2z"/>
	</g>
	<g>
		<path class="st0" d="M74.9,126.3c0.7,0,1.2-0.5,1.2-1.2s-0.5-1.2-1.2-1.2s-1.2,0.5-1.2,1.2C73.7,125.8,74.2,126.3,74.9,126.3z"/>
	</g>
	<g>
		<path class="st0" d="M79.2,126.4c0.7,0,1.2-0.5,1.2-1.3c0-0.7-0.6-1.2-1.2-1.2c-0.7,0-1.3,0.5-1.3,1.2
			C77.9,125.8,78.5,126.4,79.2,126.4z"/>
	</g>
	<g>
		<path class="st0" d="M83.5,126.4c0.7,0,1.3-0.6,1.3-1.3c0-0.7-0.6-1.2-1.3-1.2c-0.7,0-1.3,0.6-1.3,1.2
			C82.2,125.8,82.8,126.4,83.5,126.4z"/>
	</g>
	<g>
		<path class="st0" d="M87.8,126.4c0.7,0,1.3-0.6,1.3-1.3c0-0.7-0.6-1.2-1.3-1.2c-0.7,0-1.3,0.6-1.3,1.2
			C86.5,125.8,87.1,126.4,87.8,126.4z"/>
	</g>
	<g>
		<path class="st0" d="M92.1,126.4c0.7,0,1.2-0.5,1.2-1.3c0-0.7-0.6-1.2-1.2-1.2c-0.7,0-1.2,0.5-1.2,1.2
			C90.9,125.8,91.4,126.4,92.1,126.4z"/>
	</g>
	<g>
		<path class="st0" d="M96.4,126.2c0.6,0,1.1-0.5,1.1-1.1S97,124,96.4,124s-1.1,0.5-1.1,1.1S95.8,126.2,96.4,126.2z"/>
	</g>
	<g>
		<path class="st0" d="M100.7,126.2c0.6,0,1.1-0.5,1.1-1.1s-0.5-1-1.1-1s-1.1,0.5-1.1,1C99.7,125.7,100.1,126.2,100.7,126.2z"/>
	</g>
	<g>
		<path class="st0" d="M105,126c0.5,0,0.9-0.4,0.9-0.9s-0.4-0.9-0.9-0.9s-0.9,0.4-0.9,0.9S104.5,126,105,126z"/>
	</g>
	<g>
		<path class="st0" d="M109.3,125.9c0.4,0,0.8-0.3,0.8-0.8c0-0.4-0.3-0.7-0.8-0.7c-0.4,0-0.8,0.3-0.8,0.7
			C108.6,125.5,108.9,125.9,109.3,125.9z"/>
	</g>
	<g>
		<path class="st0" d="M113.6,125.7c0.3,0,0.6-0.2,0.6-0.6c0-0.3-0.3-0.6-0.6-0.6c-0.3,0-0.6,0.3-0.6,0.6
			C113,125.4,113.3,125.7,113.6,125.7z"/>
	</g>
	<g>
		<path class="st0" d="M117.9,125.5c0.2,0,0.4-0.2,0.4-0.4c0-0.2-0.2-0.4-0.4-0.4c-0.2,0-0.4,0.2-0.4,0.4
			C117.6,125.3,117.7,125.5,117.9,125.5z"/>
	</g>
	<g>
		<path class="st0" d="M122.2,125.3c0.1,0,0.1-0.1,0.1-0.2s0-0.1-0.1-0.1s-0.1,0-0.1,0.1C122.1,125.2,122.2,125.3,122.2,125.3z"/>
	</g>
	<g>
		<path class="st0" d="M53.4,129.6c0.1,0,0.2-0.1,0.2-0.2c0-0.1-0.1-0.2-0.2-0.2c-0.1,0-0.2,0.1-0.2,0.2S53.3,129.6,53.4,129.6z"/>
	</g>
	<g>
		<path class="st0" d="M57.7,129.8c0.2,0,0.4-0.2,0.4-0.4s-0.2-0.4-0.4-0.4s-0.4,0.2-0.4,0.4S57.5,129.8,57.7,129.8z"/>
	</g>
	<g>
		<path class="st0" d="M62,129.9c0.3,0,0.5-0.2,0.5-0.5s-0.2-0.5-0.5-0.5s-0.5,0.2-0.5,0.5S61.7,129.9,62,129.9z"/>
	</g>
	<g>
		<path class="st0" d="M66.3,130.1c0.4,0,0.7-0.3,0.7-0.7s-0.3-0.7-0.7-0.7c-0.4,0-0.7,0.3-0.7,0.7
			C65.6,129.8,65.9,130.1,66.3,130.1z"/>
	</g>
	<g>
		<path class="st0" d="M70.6,130.2c0.4,0,0.8-0.3,0.8-0.7s-0.3-0.8-0.8-0.8c-0.4,0-0.8,0.4-0.8,0.8
			C69.8,129.8,70.2,130.2,70.6,130.2z"/>
	</g>
	<g>
		<path class="st0" d="M74.9,130.3c0.5,0,0.9-0.4,0.9-0.9s-0.4-0.9-0.9-0.9s-0.9,0.4-0.9,0.9C74,129.9,74.4,130.3,74.9,130.3z"/>
	</g>
	<g>
		<path class="st0" d="M79.2,130.3c0.5,0,0.9-0.4,0.9-0.9s-0.4-0.9-0.9-0.9s-0.9,0.4-0.9,0.9C78.3,129.9,78.7,130.3,79.2,130.3z"/>
	</g>
	<g>
		<path class="st0" d="M83.5,130.3c0.5,0,0.9-0.4,0.9-0.9s-0.4-0.9-0.9-0.9s-0.9,0.4-0.9,0.9C82.6,129.9,83,130.3,83.5,130.3z"/>
	</g>
	<g>
		<path class="st0" d="M87.8,130.3c0.5,0,0.9-0.4,0.9-0.9s-0.4-0.9-0.9-0.9s-0.9,0.4-0.9,0.9C86.9,129.9,87.3,130.3,87.8,130.3z"/>
	</g>
	<g>
		<path class="st0" d="M92.1,130.3c0.5,0,0.9-0.4,0.9-0.9s-0.4-0.9-0.9-0.9s-0.9,0.4-0.9,0.9C91.2,129.9,91.6,130.3,92.1,130.3z"/>
	</g>
	<g>
		<path class="st0" d="M96.4,130.3c0.5,0,0.8-0.4,0.8-0.8c0-0.5-0.4-0.9-0.8-0.9c-0.5,0-0.8,0.4-0.8,0.9
			C95.6,129.9,95.9,130.3,96.4,130.3z"/>
	</g>
	<g>
		<path class="st0" d="M100.7,130.1c0.4,0,0.7-0.3,0.7-0.7s-0.3-0.7-0.7-0.7c-0.4,0-0.7,0.3-0.7,0.7S100.3,130.1,100.7,130.1z"/>
	</g>
	<g>
		<path class="st0" d="M105,130c0.3,0,0.6-0.3,0.6-0.6s-0.3-0.6-0.6-0.6c-0.3,0-0.6,0.3-0.6,0.6S104.7,130,105,130z"/>
	</g>
	<g>
		<path class="st0" d="M109.3,129.8c0.2,0,0.4-0.2,0.4-0.4c0-0.3-0.2-0.4-0.4-0.4c-0.2,0-0.4,0.2-0.4,0.4
			C108.9,129.7,109.1,129.8,109.3,129.8z"/>
	</g>
	<g>
		<path class="st0" d="M113.6,129.7c0.1,0,0.3-0.1,0.3-0.3c0-0.1-0.1-0.3-0.3-0.3c-0.1,0-0.3,0.1-0.3,0.3
			C113.4,129.5,113.5,129.7,113.6,129.7z"/>
	</g>
	<g>
		<path class="st0" d="M117.9,129.5C118,129.5,118,129.5,117.9,129.5c0.1-0.1,0-0.1,0-0.1C117.9,129.3,117.9,129.4,117.9,129.5
			L117.9,129.5z"/>
	</g>
	<g>
		<path class="st0" d="M57.7,133.8L57.7,133.8L57.7,133.8C57.7,133.7,57.6,133.7,57.7,133.8C57.6,133.7,57.7,133.8,57.7,133.8z"/>
	</g>
	<g>
		<path class="st0" d="M62,133.9c0.1,0,0.2-0.1,0.2-0.2c0-0.1-0.1-0.2-0.2-0.2c-0.1,0-0.1,0.1-0.1,0.2
			C61.8,133.8,61.9,133.9,62,133.9z"/>
	</g>
	<g>
		<path class="st0" d="M66.3,134c0.2,0,0.3-0.2,0.3-0.3c0-0.2-0.1-0.3-0.3-0.3c-0.2,0-0.3,0.1-0.3,0.3S66.1,134,66.3,134z"/>
	</g>
	<g>
		<path class="st0" d="M70.6,134.1c0.2,0,0.4-0.2,0.4-0.4s-0.2-0.4-0.4-0.4c-0.2,0-0.4,0.2-0.4,0.4
			C70.2,133.9,70.4,134.1,70.6,134.1z"/>
	</g>
	<g>
		<path class="st0" d="M74.9,134.2c0.3,0,0.5-0.2,0.5-0.5s-0.2-0.5-0.5-0.5s-0.5,0.2-0.5,0.5S74.6,134.2,74.9,134.2z"/>
	</g>
	<g>
		<path class="st0" d="M79.2,134.3c0.3,0,0.5-0.2,0.5-0.5s-0.3-0.5-0.5-0.5c-0.3,0-0.5,0.2-0.5,0.5C78.7,134,78.9,134.3,79.2,134.3z
			"/>
	</g>
	<g>
		<path class="st0" d="M83.5,134.3c0.3,0,0.6-0.2,0.6-0.5s-0.3-0.6-0.6-0.6c-0.3,0-0.5,0.3-0.5,0.6C82.9,134,83.2,134.3,83.5,134.3z
			"/>
	</g>
	<g>
		<path class="st0" d="M87.8,134.3c0.3,0,0.6-0.2,0.6-0.5s-0.3-0.6-0.6-0.6c-0.3,0-0.6,0.3-0.6,0.6C87.2,134,87.5,134.3,87.8,134.3z
			"/>
	</g>
	<g>
		<path class="st0" d="M92.1,134.2c0.3,0,0.5-0.2,0.5-0.5s-0.2-0.5-0.5-0.5s-0.5,0.2-0.5,0.5S91.8,134.2,92.1,134.2z"/>
	</g>
	<g>
		<path class="st0" d="M96.4,134.2c0.2,0,0.5-0.2,0.5-0.5c0-0.2-0.2-0.4-0.5-0.4c-0.2,0-0.4,0.2-0.4,0.4
			C96,134,96.2,134.2,96.4,134.2z"/>
	</g>
	<g>
		<path class="st0" d="M100.7,134.1c0.2,0,0.4-0.1,0.4-0.4c0-0.2-0.2-0.4-0.4-0.4c-0.2,0-0.4,0.2-0.4,0.4
			C100.3,133.9,100.5,134.1,100.7,134.1z"/>
	</g>
	<g>
		<path class="st0" d="M105,134c0.1,0,0.2-0.1,0.2-0.3c0-0.1-0.1-0.2-0.2-0.2s-0.2,0.1-0.2,0.2C104.8,133.8,104.9,134,105,134z"/>
	</g>
	<g>
		<path class="st0" d="M109.3,133.8c0,0,0.1,0,0.1-0.1c0,0,0-0.1-0.1-0.1s-0.1,0.1-0.1,0.1C109.2,133.8,109.3,133.8,109.3,133.8z"/>
	</g>
	<g>
		<path class="st0" d="M70.6,138.1C70.6,138.1,70.6,138,70.6,138.1C70.6,138,70.6,138,70.6,138.1C70.6,138,70.5,138,70.6,138.1
			C70.5,138,70.6,138.1,70.6,138.1z"/>
	</g>
	<g>
		<path class="st0" d="M74.9,138.1c0.1,0,0.1-0.1,0.1-0.1c0-0.1,0-0.1-0.1-0.1s-0.1,0-0.1,0.1S74.8,138.1,74.9,138.1z"/>
	</g>
	<g>
		<path class="st0" d="M79.2,138.2c0.1,0,0.1-0.1,0.1-0.1c0-0.1-0.1-0.2-0.1-0.2c-0.1,0-0.2,0-0.2,0.2
			C79,138.1,79.1,138.2,79.2,138.2z"/>
	</g>
	<g>
		<path class="st0" d="M83.5,138.2c0.1,0,0.2-0.1,0.2-0.1c0-0.1-0.1-0.2-0.2-0.2s-0.2,0.1-0.2,0.2C83.3,138.1,83.4,138.2,83.5,138.2
			z"/>
	</g>
	<g>
		<path class="st0" d="M87.8,138.2c0.1,0,0.2-0.1,0.2-0.1c0-0.1-0.1-0.2-0.2-0.2s-0.2,0.1-0.2,0.2C87.6,138.1,87.7,138.2,87.8,138.2
			z"/>
	</g>
	<g>
		<path class="st0" d="M92.1,138.1c0.1,0,0.1,0,0.1-0.1s-0.1-0.1-0.1-0.1c-0.1,0-0.1,0-0.1,0.1S92,138.1,92.1,138.1z"/>
	</g>
	<g>
		<path class="st0" d="M96.4,138.1c0.1,0,0.1-0.1,0.1-0.1c0-0.1,0-0.1-0.1-0.1C96.4,137.9,96.3,137.9,96.4,138.1
			C96.3,138.1,96.4,138.1,96.4,138.1z"/>
	</g>
</g>
<g>
	<path class="st0" d="M139.2,48.4c10.5,27.7-31.5,80.6-73.6,76.9c-19.2-1.7-43.3-15.6-47.6-38.7c-4.7-24.8,16.2-45.5,30.7-54.1
		C81,13.4,130.2,24.9,139.2,48.4z"/>
</g>
<g>
	<path class="st1" d="M50.7,120.6c-12.8,0-24-3.5-31.7-10.3c-6.6-5.9-10.9-14.6-12.4-25.2c-1.3-9-0.4-19,2.4-27.4
		c6.2-18.8,23.7-34.9,45.6-42.1c18.9-6.2,37.2-4.6,50.1,4.5c7.6,5.3,13.7,13.6,17.2,23.3c3.4,9.5,4.2,19.7,2.1,28.8
		c-5.4,23.1-28.3,38.1-48,44.3C67.4,119.2,58.8,120.6,50.7,120.6z M22.3,106.7c11.1,9.9,31.2,11.9,52.4,5.2
		c18.4-5.8,39.8-19.6,44.7-40.8c3.9-17-3.5-37.2-17.4-47c-11.7-8.2-28.4-9.6-45.8-3.9C35.7,27,19.4,41.9,13.7,59.3
		C8.6,74.4,10,95.6,22.3,106.7z"/>
</g>
<g>
	<path class="st2" d="M34.7,66.1l5.4,12.4l5.3-12.4l5.4,12.4l4.8-12.4h1.6l-6.9,17.2h-1.1l-4.8-11.1l-4.8,11.1h-1l-7.4-17.2
		C31.2,66.1,34.7,66.1,34.7,66.1z"/>
	<path class="st2" d="M67.4,83.4c-1.3,0-2.5-0.2-3.6-0.7s-2-1.1-2.8-1.9s-1.4-1.7-1.9-2.7c-0.4-1-0.7-2.2-0.7-3.4
		c0-1.3,0.2-2.4,0.7-3.5c0.4-1.1,1.1-2.1,1.9-2.9c0.8-0.8,1.7-1.5,2.8-1.9c1.1-0.5,2.3-0.7,3.6-0.7c1.3,0,2.5,0.2,3.6,0.6
		s2,1,2.8,1.8s1.4,1.6,1.9,2.6c0.4,1,0.7,2.1,0.7,3.3c0,1.3-0.2,2.5-0.7,3.6c-0.4,1.1-1.1,2.1-1.9,3c-0.8,0.8-1.7,1.5-2.8,2
		C69.8,83.2,68.6,83.4,67.4,83.4z M68,82.2c0.7,0,1.3-0.2,1.8-0.5c0.6-0.3,1-0.8,1.4-1.4s0.7-1.3,0.9-2c0.2-0.8,0.3-1.6,0.3-2.4
		c0-1.2-0.1-2.4-0.3-3.5c-0.2-1.1-0.6-2-1-2.8c-0.5-0.8-1.1-1.4-1.9-1.9S67.5,67,66.4,67c-0.6,0-1.1,0.2-1.6,0.5s-1,0.8-1.4,1.3
		c-0.4,0.6-0.7,1.2-1,2S62,72.4,62,73.2c0,1.2,0.1,2.4,0.4,3.5c0.3,1.1,0.6,2,1.1,2.8s1.1,1.4,1.8,1.9C66.2,81.9,67.1,82.2,68,82.2z
		"/>
	<path class="st2" d="M81.2,66.1l5.4,12.4l5.3-12.4l5.4,12.4l4.8-12.4h1.6l-6.9,17.2h-1.1l-4.8-11.1l-4.8,11.1h-1l-7.4-17.2
		C77.7,66.1,81.2,66.1,81.2,66.1z"/>
</g>
</svg>
