<?xml version="1.0" encoding="utf-8"?>
<!-- Generator: Adobe Illustrator 20.0.0, SVG Export Plug-In . SVG Version: 6.00 Build 0)  -->
<svg version="1.1" id="Layer_1" xmlns="http://www.w3.org/2000/svg" xmlns:xlink="http://www.w3.org/1999/xlink" x="0px" y="0px"
	 viewBox="0 0 150 150" style="enable-background:new 0 0 150 150;" xml:space="preserve">
<style type="text/css">
	.st0{fill:#4951EC;}
	.st1{fill:#FFFFFF;}
</style>
<g>
	<g>
		<path class="st0" d="M69.1,16.5c0.1,0,0.2,0,0.2-0.1s-0.1-0.2-0.2-0.2S69,16.3,69,16.4S69,16.5,69.1,16.5z"/>
	</g>
	<g>
		<path class="st0" d="M73.7,16.6c0.1,0,0.3-0.1,0.3-0.2c0-0.2-0.1-0.3-0.3-0.3c-0.1,0-0.3,0.1-0.3,0.3
			C73.5,16.5,73.6,16.6,73.7,16.6z"/>
	</g>
	<g>
		<path class="st0" d="M78.3,16.8c0.2,0,0.3-0.2,0.3-0.4c0-0.2-0.2-0.4-0.3-0.4c-0.2,0-0.4,0.2-0.4,0.4C78,16.6,78.1,16.8,78.3,16.8
			z"/>
	</g>
	<g>
		<path class="st0" d="M82.9,16.8c0.2,0,0.4-0.2,0.4-0.4c0-0.2-0.2-0.4-0.4-0.4c-0.2,0-0.4,0.2-0.4,0.4
			C82.5,16.6,82.7,16.8,82.9,16.8z"/>
	</g>
	<g>
		<path class="st0" d="M87.5,16.8c0.2,0,0.4-0.2,0.4-0.4c0-0.2-0.2-0.4-0.4-0.4c-0.2,0-0.4,0.2-0.4,0.4
			C87.1,16.6,87.3,16.8,87.5,16.8z"/>
	</g>
	<g>
		<path class="st0" d="M92.1,16.8c0.2,0,0.4-0.2,0.4-0.4c0-0.2-0.2-0.4-0.4-0.4c-0.2,0-0.4,0.2-0.4,0.4
			C91.7,16.6,91.9,16.8,92.1,16.8z"/>
	</g>
	<g>
		<path class="st0" d="M96.7,16.8c0.2,0,0.4-0.2,0.4-0.4c0-0.2-0.2-0.4-0.4-0.4c-0.2,0-0.4,0.2-0.4,0.4
			C96.4,16.6,96.5,16.8,96.7,16.8z"/>
	</g>
	<g>
		<path class="st0" d="M101.3,16.7c0.2,0,0.3-0.1,0.3-0.3c0-0.2-0.1-0.3-0.3-0.3c-0.2,0-0.3,0.2-0.3,0.3
			C101.1,16.6,101.2,16.7,101.3,16.7z"/>
	</g>
	<g>
		<path class="st0" d="M105.9,16.6c0.1,0,0.2-0.1,0.2-0.2s-0.1-0.2-0.2-0.2s-0.2,0.1-0.2,0.2C105.7,16.5,105.8,16.6,105.9,16.6z"/>
	</g>
	<g>
		<path class="st0" d="M110.6,16.5C110.6,16.5,110.6,16.4,110.6,16.5c0.1-0.1,0-0.2,0-0.2C110.5,16.3,110.5,16.4,110.6,16.5
			C110.5,16.4,110.5,16.5,110.6,16.5z"/>
	</g>
	<g>
		<path class="st0" d="M59.9,21.2c0.1,0,0.2-0.1,0.2-0.2s-0.1-0.2-0.2-0.2c-0.1,0-0.2,0.1-0.2,0.2S59.8,21.2,59.9,21.2z"/>
	</g>
	<g>
		<path class="st0" d="M64.5,21.4c0.2,0,0.4-0.2,0.4-0.4c0-0.2-0.2-0.4-0.4-0.4c-0.2,0-0.4,0.2-0.4,0.4
			C64.1,21.2,64.3,21.4,64.5,21.4z"/>
	</g>
	<g>
		<path class="st0" d="M69.1,21.5c0.3,0,0.5-0.2,0.5-0.5s-0.2-0.5-0.5-0.5s-0.5,0.2-0.5,0.5S68.8,21.5,69.1,21.5z"/>
	</g>
	<g>
		<path class="st0" d="M73.7,21.6c0.4,0,0.6-0.3,0.6-0.6c0-0.4-0.3-0.6-0.6-0.6c-0.4,0-0.6,0.3-0.6,0.6
			C73.1,21.3,73.4,21.6,73.7,21.6z"/>
	</g>
	<g>
		<path class="st0" d="M78.3,21.7c0.4,0,0.7-0.3,0.7-0.7c0-0.4-0.3-0.7-0.7-0.7c-0.4,0-0.7,0.3-0.7,0.7
			C77.6,21.4,77.9,21.7,78.3,21.7z"/>
	</g>
	<g>
		<path class="st0" d="M82.9,21.8c0.4,0,0.8-0.4,0.8-0.8s-0.4-0.8-0.8-0.8s-0.8,0.4-0.8,0.8S82.5,21.8,82.9,21.8z"/>
	</g>
	<g>
		<path class="st0" d="M87.5,21.8c0.5,0,0.8-0.3,0.8-0.8c0-0.4-0.4-0.8-0.8-0.8s-0.8,0.4-0.8,0.8S87.1,21.8,87.5,21.8z"/>
	</g>
	<g>
		<path class="st0" d="M92.1,21.8c0.4,0,0.8-0.4,0.8-0.8s-0.4-0.8-0.8-0.8s-0.8,0.4-0.8,0.8C91.3,21.4,91.7,21.8,92.1,21.8z"/>
	</g>
	<g>
		<path class="st0" d="M96.7,21.8c0.4,0,0.8-0.4,0.8-0.8s-0.4-0.8-0.8-0.8s-0.8,0.3-0.8,0.8C96,21.4,96.3,21.8,96.7,21.8z"/>
	</g>
	<g>
		<path class="st0" d="M101.3,21.7c0.4,0,0.7-0.3,0.7-0.7c0-0.4-0.3-0.7-0.7-0.7c-0.4,0-0.7,0.3-0.7,0.7
			C100.7,21.4,101,21.7,101.3,21.7z"/>
	</g>
	<g>
		<path class="st0" d="M105.9,21.6c0.4,0,0.6-0.2,0.6-0.6c0-0.3-0.3-0.6-0.6-0.6c-0.3,0-0.6,0.3-0.6,0.6
			C105.4,21.3,105.6,21.6,105.9,21.6z"/>
	</g>
	<g>
		<path class="st0" d="M110.6,21.4c0.3,0,0.5-0.2,0.5-0.5c0-0.2-0.2-0.5-0.5-0.5s-0.5,0.2-0.5,0.5C110.1,21.2,110.3,21.4,110.6,21.4
			z"/>
	</g>
	<g>
		<path class="st0" d="M115.2,21.3c0.2,0,0.3-0.1,0.3-0.3c0-0.2-0.1-0.3-0.3-0.3c-0.2,0-0.3,0.1-0.3,0.3
			C114.9,21.2,115,21.3,115.2,21.3z"/>
	</g>
	<g>
		<path class="st0" d="M119.8,21.1c0.1,0,0.1,0,0.1-0.1s-0.1-0.1-0.1-0.1c-0.1,0-0.1,0.1-0.1,0.1C119.6,21,119.7,21.1,119.8,21.1z"
			/>
	</g>
	<g>
		<path class="st0" d="M50.7,25.7c0.1,0,0.1-0.1,0.1-0.1c0-0.1,0-0.1-0.1-0.1s-0.1,0-0.1,0.1C50.6,25.6,50.7,25.7,50.7,25.7z"/>
	</g>
	<g>
		<path class="st0" d="M55.3,26c0.2,0,0.4-0.2,0.4-0.4c0-0.2-0.2-0.4-0.4-0.4s-0.4,0.2-0.4,0.4C54.9,25.8,55.1,26,55.3,26z"/>
	</g>
	<g>
		<path class="st0" d="M59.9,26.2c0.3,0,0.6-0.3,0.6-0.6c0-0.3-0.3-0.6-0.6-0.6s-0.6,0.3-0.6,0.6C59.3,25.9,59.6,26.2,59.9,26.2z"/>
	</g>
	<g>
		<path class="st0" d="M64.5,26.3c0.4,0,0.8-0.3,0.8-0.7c0-0.4-0.3-0.8-0.8-0.8c-0.4,0-0.7,0.3-0.7,0.8C63.8,26,64.1,26.3,64.5,26.3
			z"/>
	</g>
	<g>
		<path class="st0" d="M69.1,26.5c0.5,0,0.9-0.4,0.9-0.9s-0.4-0.9-0.9-0.9s-0.9,0.4-0.9,0.9S68.6,26.5,69.1,26.5z"/>
	</g>
	<g>
		<path class="st0" d="M73.7,26.6c0.6,0,1-0.5,1-1c0-0.6-0.5-1-1-1c-0.6,0-1,0.5-1,1C72.7,26.2,73.1,26.6,73.7,26.6z"/>
	</g>
	<g>
		<path class="st0" d="M78.3,26.7c0.6,0,1.1-0.5,1.1-1.1s-0.5-1.1-1.1-1.1s-1.1,0.5-1.1,1.1C77.2,26.2,77.7,26.7,78.3,26.7z"/>
	</g>
	<g>
		<path class="st0" d="M82.9,26.8c0.6,0,1.2-0.5,1.2-1.2s-0.5-1.2-1.2-1.2s-1.2,0.5-1.2,1.2C81.8,26.2,82.3,26.8,82.9,26.8z"/>
	</g>
	<g>
		<path class="st0" d="M87.5,26.8c0.7,0,1.2-0.5,1.2-1.2s-0.5-1.2-1.2-1.2s-1.2,0.5-1.2,1.2C86.4,26.2,86.9,26.8,87.5,26.8z"/>
	</g>
	<g>
		<path class="st0" d="M92.1,26.8c0.7,0,1.2-0.5,1.2-1.2s-0.5-1.2-1.2-1.2c-0.6,0-1.2,0.5-1.2,1.2C91,26.2,91.5,26.8,92.1,26.8z"/>
	</g>
	<g>
		<path class="st0" d="M96.7,26.7c0.6,0,1.1-0.5,1.1-1.1s-0.5-1.1-1.1-1.1s-1.1,0.5-1.1,1.1S96.1,26.7,96.7,26.7z"/>
	</g>
	<g>
		<path class="st0" d="M101.3,26.7c0.6,0,1.1-0.5,1.1-1.1s-0.5-1.1-1.1-1.1s-1.1,0.5-1.1,1.1C100.3,26.2,100.8,26.7,101.3,26.7z"/>
	</g>
	<g>
		<path class="st0" d="M105.9,26.6c0.5,0,1-0.4,1-1c0-0.5-0.5-1-1-1s-1,0.4-1,1C105,26.1,105.4,26.6,105.9,26.6z"/>
	</g>
	<g>
		<path class="st0" d="M110.6,26.4c0.4,0,0.8-0.4,0.8-0.8c0-0.5-0.4-0.8-0.8-0.8c-0.5,0-0.8,0.4-0.8,0.8
			C109.7,26,110.1,26.4,110.6,26.4z"/>
	</g>
	<g>
		<path class="st0" d="M115.2,26.2c0.4,0,0.7-0.3,0.7-0.7c0-0.4-0.3-0.7-0.7-0.7c-0.4,0-0.7,0.3-0.7,0.7
			C114.5,25.9,114.8,26.2,115.2,26.2z"/>
	</g>
	<g>
		<path class="st0" d="M119.8,26.1c0.3,0,0.5-0.2,0.5-0.5s-0.2-0.5-0.5-0.5s-0.5,0.2-0.5,0.5C119.3,25.8,119.5,26.1,119.8,26.1z"/>
	</g>
	<g>
		<path class="st0" d="M124.4,25.8c0.1,0,0.2-0.1,0.2-0.2s-0.1-0.2-0.2-0.2s-0.3,0.1-0.3,0.2C124.1,25.7,124.2,25.8,124.4,25.8z"/>
	</g>
	<g>
		<path class="st0" d="M46.1,30.4c0.1,0,0.2-0.1,0.2-0.2S46.2,30,46.1,30c-0.1,0-0.2,0.1-0.2,0.2C45.9,30.3,46,30.4,46.1,30.4z"/>
	</g>
	<g>
		<path class="st0" d="M50.7,30.6c0.3,0,0.5-0.2,0.5-0.5c0-0.2-0.2-0.5-0.5-0.5c-0.2,0-0.4,0.2-0.4,0.5S50.5,30.6,50.7,30.6z"/>
	</g>
	<g>
		<path class="st0" d="M55.3,30.9c0.4,0,0.7-0.3,0.7-0.7c0-0.3-0.3-0.7-0.7-0.7s-0.7,0.3-0.7,0.7S54.9,30.9,55.3,30.9z"/>
	</g>
	<g>
		<path class="st0" d="M59.9,31.1c0.5,0,0.9-0.4,0.9-0.9s-0.4-0.9-0.9-0.9S59,29.7,59,30.2S59.4,31.1,59.9,31.1z"/>
	</g>
	<g>
		<path class="st0" d="M64.5,31.3c0.6,0,1.1-0.5,1.1-1.1s-0.5-1.1-1.1-1.1s-1.1,0.5-1.1,1.1S63.9,31.3,64.5,31.3z"/>
	</g>
	<g>
		<path class="st0" d="M69.1,31.4c0.7,0,1.3-0.5,1.3-1.3c0-0.7-0.6-1.2-1.3-1.2c-0.7,0-1.3,0.6-1.3,1.2
			C67.9,30.9,68.4,31.4,69.1,31.4z"/>
	</g>
	<g>
		<path class="st0" d="M73.7,31.6c0.8,0,1.4-0.6,1.4-1.4c0-0.7-0.6-1.4-1.4-1.4s-1.4,0.6-1.4,1.4C72.3,30.9,73,31.6,73.7,31.6z"/>
	</g>
	<g>
		<path class="st0" d="M78.3,31.6c0.8,0,1.4-0.6,1.4-1.5c0-0.8-0.6-1.4-1.4-1.4s-1.4,0.6-1.4,1.4C76.9,31,77.5,31.6,78.3,31.6z"/>
	</g>
	<g>
		<path class="st0" d="M82.9,31.7c0.8,0,1.5-0.7,1.5-1.5s-0.7-1.5-1.5-1.5s-1.5,0.7-1.5,1.5S82.1,31.7,82.9,31.7z"/>
	</g>
	<g>
		<path class="st0" d="M87.5,31.7c0.8,0,1.5-0.7,1.5-1.6c0-0.8-0.7-1.5-1.5-1.5S86,29.3,86,30.1C86,31,86.7,31.7,87.5,31.7z"/>
	</g>
	<g>
		<path class="st0" d="M92.1,31.7c0.8,0,1.5-0.7,1.5-1.5s-0.7-1.5-1.5-1.5s-1.5,0.7-1.5,1.5S91.3,31.7,92.1,31.7z"/>
	</g>
	<g>
		<path class="st0" d="M96.7,31.7c0.8,0,1.5-0.7,1.5-1.5s-0.7-1.4-1.5-1.4s-1.5,0.6-1.5,1.4C95.3,31,95.9,31.7,96.7,31.7z"/>
	</g>
	<g>
		<path class="st0" d="M101.3,31.6c0.8,0,1.4-0.7,1.4-1.4c0-0.8-0.6-1.4-1.4-1.4s-1.4,0.6-1.4,1.4C99.9,30.9,100.6,31.6,101.3,31.6z
			"/>
	</g>
	<g>
		<path class="st0" d="M105.9,31.5c0.7,0,1.3-0.6,1.3-1.3c0-0.7-0.6-1.3-1.3-1.3c-0.7,0-1.3,0.6-1.3,1.3S105.2,31.5,105.9,31.5z"/>
	</g>
	<g>
		<path class="st0" d="M110.6,31.4c0.6,0,1.2-0.5,1.2-1.2c0-0.6-0.5-1.2-1.2-1.2s-1.2,0.6-1.2,1.2S109.9,31.4,110.6,31.4z"/>
	</g>
	<g>
		<path class="st0" d="M115.2,31.2c0.6,0,1-0.4,1-1c0-0.5-0.5-1-1-1c-0.6,0-1,0.4-1,1C114.2,30.8,114.6,31.2,115.2,31.2z"/>
	</g>
	<g>
		<path class="st0" d="M119.8,31c0.4,0,0.8-0.4,0.8-0.8s-0.4-0.8-0.8-0.8s-0.8,0.4-0.8,0.8S119.3,31,119.8,31z"/>
	</g>
	<g>
		<path class="st0" d="M124.4,30.8c0.3,0,0.6-0.2,0.6-0.6c0-0.3-0.3-0.5-0.6-0.5c-0.3,0-0.6,0.2-0.6,0.5
			C123.8,30.5,124,30.8,124.4,30.8z"/>
	</g>
	<g>
		<path class="st0" d="M129,30.5c0.2,0,0.3-0.2,0.3-0.3c0-0.2-0.1-0.3-0.3-0.3s-0.3,0.2-0.3,0.3C128.6,30.4,128.8,30.5,129,30.5z"/>
	</g>
	<g>
		<path class="st0" d="M133.6,30.2L133.6,30.2C133.6,30.2,133.6,30.1,133.6,30.2C133.5,30.1,133.5,30.2,133.6,30.2
			C133.5,30.2,133.5,30.2,133.6,30.2z"/>
	</g>
	<g>
		<path class="st0" d="M41.5,35c0.1,0,0.2-0.1,0.2-0.2c0-0.1-0.1-0.2-0.2-0.2c-0.1,0-0.2,0.1-0.2,0.2S41.4,35,41.5,35z"/>
	</g>
	<g>
		<path class="st0" d="M46.1,35.3c0.3,0,0.5-0.2,0.5-0.5s-0.2-0.5-0.5-0.5c-0.2,0-0.5,0.2-0.5,0.5S45.9,35.3,46.1,35.3z"/>
	</g>
	<g>
		<path class="st0" d="M50.7,35.5c0.4,0,0.8-0.3,0.8-0.7s-0.3-0.7-0.8-0.7c-0.4,0-0.7,0.3-0.7,0.7S50.3,35.5,50.7,35.5z"/>
	</g>
	<g>
		<path class="st0" d="M55.3,35.8c0.6,0,1-0.5,1-1s-0.4-1-1-1s-1,0.5-1,1S54.8,35.8,55.3,35.8z"/>
	</g>
	<g>
		<path class="st0" d="M59.9,36c0.7,0,1.2-0.5,1.2-1.2s-0.5-1.2-1.2-1.2s-1.2,0.6-1.2,1.2C58.7,35.5,59.3,36,59.9,36z"/>
	</g>
	<g>
		<path class="st0" d="M64.5,36.2c0.8,0,1.4-0.6,1.4-1.4c0-0.8-0.6-1.4-1.4-1.4c-0.8,0-1.4,0.6-1.4,1.4
			C63.1,35.6,63.7,36.2,64.5,36.2z"/>
	</g>
	<g>
		<path class="st0" d="M69.1,36.4c0.9,0,1.6-0.7,1.6-1.6c0-0.9-0.7-1.5-1.6-1.5s-1.6,0.7-1.6,1.5C67.6,35.6,68.3,36.4,69.1,36.4z"/>
	</g>
	<g>
		<path class="st0" d="M73.7,36.5c0.9,0,1.7-0.8,1.7-1.7s-0.7-1.7-1.7-1.7c-0.9,0-1.7,0.8-1.7,1.7S72.8,36.5,73.7,36.5z"/>
	</g>
	<g>
		<path class="st0" d="M78.3,36.5c1,0,1.8-0.8,1.8-1.8s-0.8-1.8-1.8-1.8s-1.8,0.8-1.8,1.8C76.6,35.8,77.4,36.5,78.3,36.5z"/>
	</g>
	<g>
		<path class="st0" d="M82.9,36.6c1,0,1.8-0.8,1.8-1.8S83.9,33,82.9,33s-1.8,0.8-1.8,1.8S81.9,36.6,82.9,36.6z"/>
	</g>
	<g>
		<path class="st0" d="M87.5,36.6c1,0,1.8-0.8,1.8-1.8S88.5,33,87.5,33s-1.8,0.8-1.8,1.8S86.5,36.6,87.5,36.6z"/>
	</g>
	<g>
		<path class="st0" d="M92.1,36.6c1,0,1.8-0.8,1.8-1.8S93.1,33,92.1,33s-1.8,0.8-1.8,1.8C90.3,35.8,91.1,36.6,92.1,36.6z"/>
	</g>
	<g>
		<path class="st0" d="M96.7,36.6c1,0,1.8-0.8,1.8-1.8S97.7,33,96.7,33s-1.8,0.8-1.8,1.8C95,35.8,95.8,36.6,96.7,36.6z"/>
	</g>
	<g>
		<path class="st0" d="M101.3,36.5c1,0,1.7-0.8,1.7-1.7s-0.8-1.7-1.7-1.7c-0.9,0-1.7,0.8-1.7,1.7C99.6,35.7,100.4,36.5,101.3,36.5z"
			/>
	</g>
	<g>
		<path class="st0" d="M105.9,36.4c0.9,0,1.6-0.7,1.6-1.6c0-0.9-0.7-1.6-1.6-1.6s-1.6,0.7-1.6,1.6S105.1,36.4,105.9,36.4z"/>
	</g>
	<g>
		<ellipse class="st0" cx="110.6" cy="34.8" rx="1.5" ry="1.5"/>
	</g>
	<g>
		<path class="st0" d="M115.2,36.1c0.7,0,1.3-0.6,1.3-1.3s-0.6-1.3-1.3-1.3c-0.7,0-1.3,0.6-1.3,1.3
			C113.9,35.5,114.4,36.1,115.2,36.1z"/>
	</g>
	<g>
		<path class="st0" d="M119.8,35.9c0.6,0,1.1-0.5,1.1-1.1s-0.5-1.1-1.1-1.1s-1.1,0.5-1.1,1.1C118.7,35.4,119.1,35.9,119.8,35.9z"/>
	</g>
	<g>
		<path class="st0" d="M124.4,35.7c0.5,0,0.9-0.4,0.9-0.9s-0.4-0.9-0.9-0.9s-0.9,0.4-0.9,0.9S123.9,35.7,124.4,35.7z"/>
	</g>
	<g>
		<path class="st0" d="M129,35.4c0.3,0,0.6-0.3,0.6-0.6c0-0.4-0.3-0.6-0.6-0.6s-0.6,0.3-0.6,0.6C128.3,35.1,128.6,35.4,129,35.4z"/>
	</g>
	<g>
		<path class="st0" d="M133.6,35.1c0.2,0,0.3-0.1,0.3-0.3s-0.2-0.3-0.3-0.3c-0.2,0-0.3,0.2-0.3,0.3C133.3,35,133.4,35.1,133.6,35.1z
			"/>
	</g>
	<g>
		<path class="st0" d="M138.2,34.8L138.2,34.8C138.2,34.7,138.2,34.7,138.2,34.8C138.2,34.7,138.1,34.8,138.2,34.8
			C138.1,34.8,138.2,34.8,138.2,34.8z"/>
	</g>
	<g>
		<path class="st0" d="M36.9,39.5C37,39.5,37,39.4,36.9,39.5c0.1-0.2,0.1-0.2,0-0.2S36.8,39.4,36.9,39.5
			C36.8,39.4,36.8,39.5,36.9,39.5z"/>
	</g>
	<g>
		<path class="st0" d="M41.5,39.8c0.3,0,0.5-0.2,0.5-0.4c0-0.3-0.2-0.5-0.5-0.5S41,39.1,41,39.4C41,39.6,41.3,39.8,41.5,39.8z"/>
	</g>
	<g>
		<path class="st0" d="M46.1,40.1c0.4,0,0.8-0.4,0.8-0.7c0-0.4-0.3-0.8-0.8-0.8c-0.4,0-0.7,0.4-0.7,0.8
			C45.4,39.8,45.7,40.1,46.1,40.1z"/>
	</g>
	<g>
		<path class="st0" d="M50.7,40.4c0.6,0,1-0.5,1-1c0-0.6-0.5-1.1-1-1.1c-0.6,0-1,0.5-1,1.1S50.1,40.4,50.7,40.4z"/>
	</g>
	<g>
		<path class="st0" d="M55.3,40.7c0.7,0,1.3-0.6,1.3-1.3s-0.6-1.3-1.3-1.3S54,38.6,54,39.4C54,40.1,54.6,40.7,55.3,40.7z"/>
	</g>
	<g>
		<path class="st0" d="M59.9,40.9c0.8,0,1.5-0.7,1.5-1.5s-0.7-1.5-1.5-1.5s-1.5,0.7-1.5,1.5S59.1,40.9,59.9,40.9z"/>
	</g>
	<g>
		<path class="st0" d="M64.5,41c0.9,0,1.7-0.8,1.7-1.6c0-0.9-0.8-1.7-1.7-1.7c-0.9,0-1.7,0.7-1.7,1.7C62.8,40.3,63.6,41,64.5,41z"/>
	</g>
	<g>
		<path class="st0" d="M69.1,41.2c1,0,1.8-0.8,1.8-1.8s-0.8-1.8-1.8-1.8s-1.8,0.8-1.8,1.8C67.3,40.4,68.1,41.2,69.1,41.2z"/>
	</g>
	<g>
		<path class="st0" d="M73.7,41.3c1.1,0,1.9-0.9,1.9-1.9c0-1.1-0.9-1.9-1.9-1.9c-1.1,0-1.9,0.9-1.9,1.9
			C71.8,40.5,72.7,41.3,73.7,41.3z"/>
	</g>
	<g>
		<path class="st0" d="M78.3,41.4c1.1,0,2-0.9,2-2s-0.9-2-2-2s-2,0.9-2,2S77.2,41.4,78.3,41.4z"/>
	</g>
	<g>
		<path class="st0" d="M82.9,41.5c1.1,0,2.1-0.9,2.1-2.1c0-1.2-0.9-2.1-2.1-2.1s-2.1,1-2.1,2.1S81.8,41.5,82.9,41.5z"/>
	</g>
	<g>
		<path class="st0" d="M87.5,41.5c1.2,0,2.1-0.9,2.1-2.1c0-1.2-0.9-2.1-2.1-2.1s-2.1,1-2.1,2.1S86.4,41.5,87.5,41.5z"/>
	</g>
	<g>
		<path class="st0" d="M92.1,41.5c1.2,0,2.1-0.9,2.1-2.1c0-1.2-0.9-2.1-2.1-2.1s-2.1,1-2.1,2.1S91,41.5,92.1,41.5z"/>
	</g>
	<g>
		<path class="st0" d="M96.7,41.5c1.1,0,2.1-0.9,2.1-2.1c0-1.2-0.9-2.1-2.1-2.1c-1.1,0-2.1,0.9-2.1,2.1
			C94.7,40.5,95.6,41.5,96.7,41.5z"/>
	</g>
	<g>
		<path class="st0" d="M101.3,41.4c1.1,0,2-0.9,2-2s-0.9-2-2-2s-2,0.9-2,2C99.4,40.5,100.2,41.4,101.3,41.4z"/>
	</g>
	<g>
		<path class="st0" d="M105.9,41.3c1.1,0,1.9-0.9,1.9-1.9c0-1.1-0.8-1.9-1.9-1.9c-1,0-1.9,0.9-1.9,1.9
			C104.1,40.4,104.9,41.3,105.9,41.3z"/>
	</g>
	<g>
		<path class="st0" d="M110.6,41.2c1,0,1.7-0.8,1.7-1.8s-0.8-1.8-1.7-1.8c-1,0-1.8,0.8-1.8,1.8C108.8,40.4,109.6,41.2,110.6,41.2z"
			/>
	</g>
	<g>
		<path class="st0" d="M115.2,41c0.9,0,1.6-0.7,1.6-1.6c0-0.9-0.7-1.6-1.6-1.6s-1.6,0.7-1.6,1.6S114.3,41,115.2,41z"/>
	</g>
	<g>
		<path class="st0" d="M119.8,40.8c0.8,0,1.4-0.6,1.4-1.4c0-0.8-0.6-1.4-1.4-1.4s-1.4,0.6-1.4,1.4C118.4,40.1,119,40.8,119.8,40.8z"
			/>
	</g>
	<g>
		<path class="st0" d="M124.4,40.5c0.6,0,1.1-0.5,1.1-1.1c0-0.7-0.5-1.2-1.1-1.2s-1.2,0.5-1.2,1.2C123.2,40,123.7,40.5,124.4,40.5z"
			/>
	</g>
	<g>
		<path class="st0" d="M129,40.3c0.5,0,0.9-0.4,0.9-0.9s-0.4-0.9-0.9-0.9s-0.9,0.4-0.9,0.9C128.1,39.9,128.5,40.3,129,40.3z"/>
	</g>
	<g>
		<path class="st0" d="M133.6,40c0.3,0,0.6-0.3,0.6-0.6c0-0.4-0.3-0.6-0.6-0.6s-0.6,0.3-0.6,0.6C132.9,39.7,133.2,40,133.6,40z"/>
	</g>
	<g>
		<path class="st0" d="M138.2,39.7c0.2,0,0.3-0.2,0.3-0.3c0-0.2-0.1-0.3-0.3-0.3s-0.3,0.1-0.3,0.3C137.9,39.5,138,39.7,138.2,39.7z"
			/>
	</g>
	<g>
		<path class="st0" d="M36.9,44.4c0.2,0,0.4-0.2,0.4-0.4s-0.2-0.4-0.4-0.4s-0.4,0.2-0.4,0.4S36.7,44.4,36.9,44.4z"/>
	</g>
	<g>
		<path class="st0" d="M41.5,44.7c0.4,0,0.7-0.3,0.7-0.7s-0.3-0.7-0.7-0.7s-0.7,0.3-0.7,0.7S41.1,44.7,41.5,44.7z"/>
	</g>
	<g>
		<path class="st0" d="M46.1,45c0.6,0,1-0.5,1-1c0-0.6-0.5-1-1-1s-1,0.5-1,1S45.5,45,46.1,45z"/>
	</g>
	<g>
		<path class="st0" d="M50.7,45.3c0.7,0,1.3-0.6,1.3-1.3s-0.6-1.3-1.3-1.3s-1.3,0.6-1.3,1.3S50,45.3,50.7,45.3z"/>
	</g>
	<g>
		<path class="st0" d="M55.3,45.5c0.9,0,1.5-0.7,1.5-1.5s-0.7-1.5-1.5-1.5s-1.5,0.7-1.5,1.5S54.5,45.5,55.3,45.5z"/>
	</g>
	<g>
		<path class="st0" d="M59.9,45.8c1,0,1.7-0.8,1.7-1.8s-0.8-1.7-1.7-1.7c-1,0-1.8,0.8-1.8,1.7C58.2,45,58.9,45.8,59.9,45.8z"/>
	</g>
	<g>
		<path class="st0" d="M64.5,45.9c1.1,0,1.9-0.9,1.9-1.9c0-1.1-0.9-1.9-1.9-1.9c-1.1,0-1.9,0.9-1.9,1.9S63.4,45.9,64.5,45.9z"/>
	</g>
	<g>
		<path class="st0" d="M69.1,46.1c1.1,0,2.1-0.9,2.1-2.1c0-1.1-0.9-2.1-2.1-2.1C68,41.9,67,42.8,67,44C67,45.1,68,46.1,69.1,46.1z"
			/>
	</g>
	<g>
		<path class="st0" d="M73.7,46.2c1.2,0,2.2-1,2.2-2.2s-1-2.2-2.2-2.2s-2.2,1-2.2,2.2S72.5,46.2,73.7,46.2z"/>
	</g>
	<g>
		<path class="st0" d="M78.3,46.3c1.3,0,2.3-1,2.3-2.3s-1-2.3-2.3-2.3S76,42.7,76,44C76,45.2,77.1,46.3,78.3,46.3z"/>
	</g>
	<g>
		<path class="st0" d="M82.9,46.3c1.3,0,2.3-1.1,2.3-2.4c0-1.3-1-2.3-2.3-2.3s-2.3,1-2.3,2.3C80.6,45.3,81.6,46.3,82.9,46.3z"/>
	</g>
	<g>
		<path class="st0" d="M87.5,46.3c1.3,0,2.4-1.1,2.4-2.4c0-1.3-1-2.4-2.4-2.4c-1.3,0-2.3,1-2.3,2.4S86.2,46.3,87.5,46.3z"/>
	</g>
	<g>
		<path class="st0" d="M92.1,46.3c1.3,0,2.4-1.1,2.4-2.4c0-1.3-1-2.4-2.4-2.4c-1.3,0-2.4,1-2.4,2.4C89.8,45.3,90.8,46.3,92.1,46.3z"
			/>
	</g>
	<g>
		<path class="st0" d="M96.7,46.3c1.3,0,2.3-1,2.3-2.3s-1-2.3-2.3-2.3s-2.3,1-2.3,2.3C94.4,45.3,95.5,46.3,96.7,46.3z"/>
	</g>
	<g>
		<path class="st0" d="M101.3,46.2c1.2,0,2.2-1,2.2-2.3c0-1.2-1-2.2-2.2-2.2s-2.2,1-2.2,2.2C99.1,45.2,100.1,46.2,101.3,46.2z"/>
	</g>
	<g>
		<path class="st0" d="M105.9,46.1c1.2,0,2.2-1,2.2-2.1c0-1.2-1-2.2-2.2-2.2s-2.1,1-2.1,2.2S104.8,46.1,105.9,46.1z"/>
	</g>
	<g>
		<path class="st0" d="M110.6,46c1.1,0,2-0.9,2-2s-0.9-2-2-2s-2,0.9-2,2C108.5,45.1,109.5,46,110.6,46z"/>
	</g>
	<g>
		<path class="st0" d="M115.2,45.8c1,0,1.8-0.8,1.8-1.8s-0.8-1.8-1.8-1.8s-1.8,0.8-1.8,1.8C113.3,45,114.2,45.8,115.2,45.8z"/>
	</g>
	<g>
		<path class="st0" d="M119.8,45.6c0.9,0,1.6-0.7,1.6-1.6s-0.7-1.6-1.6-1.6s-1.6,0.7-1.6,1.6S118.9,45.6,119.8,45.6z"/>
	</g>
	<g>
		<path class="st0" d="M124.4,45.4c0.8,0,1.4-0.6,1.4-1.4s-0.6-1.4-1.4-1.4S123,43.2,123,44S123.6,45.4,124.4,45.4z"/>
	</g>
	<g>
		<path class="st0" d="M129,45.1c0.6,0,1.1-0.5,1.1-1.1s-0.5-1.1-1.1-1.1s-1.1,0.5-1.1,1.1C127.8,44.6,128.3,45.1,129,45.1z"/>
	</g>
	<g>
		<path class="st0" d="M133.6,44.8c0.5,0,0.9-0.4,0.9-0.9s-0.4-0.9-0.9-0.9s-0.9,0.4-0.9,0.9C132.7,44.4,133.1,44.8,133.6,44.8z"/>
	</g>
	<g>
		<path class="st0" d="M138.2,44.5c0.3,0,0.5-0.2,0.5-0.5s-0.2-0.5-0.5-0.5s-0.5,0.2-0.5,0.5C137.6,44.3,137.9,44.5,138.2,44.5z"/>
	</g>
	<g>
		<path class="st0" d="M142.8,44.2c0.1,0,0.2-0.1,0.2-0.2c0-0.1-0.1-0.2-0.2-0.2c-0.1,0-0.2,0.1-0.2,0.2
			C142.6,44.1,142.7,44.2,142.8,44.2z"/>
	</g>
	<g>
		<path class="st0" d="M32.3,48.8c0.1,0,0.2-0.1,0.2-0.2c0-0.1-0.1-0.2-0.2-0.2c-0.1,0-0.2,0.1-0.2,0.2S32.2,48.8,32.3,48.8z"/>
	</g>
	<g>
		<path class="st0" d="M36.9,49.1c0.3,0,0.6-0.2,0.6-0.6c0-0.3-0.3-0.6-0.6-0.6s-0.6,0.3-0.6,0.6C36.3,48.9,36.6,49.1,36.9,49.1z"/>
	</g>
	<g>
		<path class="st0" d="M41.5,49.5c0.5,0,0.9-0.4,0.9-0.9s-0.4-0.9-0.9-0.9s-0.9,0.4-0.9,0.9S41,49.5,41.5,49.5z"/>
	</g>
	<g>
		<path class="st0" d="M46.1,49.8c0.7,0,1.2-0.6,1.2-1.2c0-0.7-0.5-1.2-1.2-1.2s-1.2,0.6-1.2,1.2C44.9,49.2,45.4,49.8,46.1,49.8z"/>
	</g>
	<g>
		<path class="st0" d="M50.7,50.1c0.8,0,1.5-0.7,1.5-1.5s-0.7-1.5-1.5-1.5s-1.5,0.7-1.5,1.5C49.2,49.4,49.9,50.1,50.7,50.1z"/>
	</g>
	<g>
		<path class="st0" d="M55.3,50.3c1,0,1.8-0.8,1.8-1.7c0-1-0.8-1.7-1.8-1.7s-1.7,0.8-1.7,1.7S54.3,50.3,55.3,50.3z"/>
	</g>
	<g>
		<path class="st0" d="M59.9,50.5c1.1,0,1.9-0.9,1.9-2s-0.9-1.9-1.9-1.9c-1.1,0-2,0.9-2,1.9C58,49.7,58.8,50.5,59.9,50.5z"/>
	</g>
	<g>
		<path class="st0" d="M64.5,50.7c1.2,0,2.2-1,2.2-2.2s-1-2.1-2.2-2.1c-1.2,0-2.1,0.9-2.1,2.1C62.4,49.8,63.3,50.7,64.5,50.7z"/>
	</g>
	<g>
		<path class="st0" d="M69.1,50.9c1.3,0,2.3-1,2.3-2.3s-1-2.3-2.3-2.3s-2.3,1-2.3,2.3C66.8,49.8,67.8,50.9,69.1,50.9z"/>
	</g>
	<g>
		<path class="st0" d="M73.7,51c1.3,0,2.4-1.1,2.4-2.4c0-1.3-1.1-2.4-2.4-2.4s-2.4,1.1-2.4,2.4C71.3,49.9,72.4,51,73.7,51z"/>
	</g>
	<g>
		<path class="st0" d="M78.3,51.1c1.4,0,2.5-1.1,2.5-2.5c0-1.3-1.1-2.4-2.5-2.4s-2.5,1.1-2.5,2.4C75.9,49.9,77,51.1,78.3,51.1z"/>
	</g>
	<g>
		<path class="st0" d="M82.9,51.1c1.4,0,2.5-1.2,2.5-2.6c0-1.4-1.1-2.5-2.5-2.5s-2.5,1.1-2.5,2.5C80.4,50,81.5,51.1,82.9,51.1z"/>
	</g>
	<g>
		<path class="st0" d="M87.5,51.1c1.4,0,2.6-1.1,2.6-2.6c0-1.4-1.2-2.6-2.6-2.6s-2.6,1.1-2.6,2.6C85,50,86.1,51.1,87.5,51.1z"/>
	</g>
	<g>
		<path class="st0" d="M92.1,51.1c1.4,0,2.6-1.1,2.6-2.6c0-1.4-1.2-2.5-2.6-2.5s-2.5,1.1-2.5,2.5C89.6,50,90.7,51.1,92.1,51.1z"/>
	</g>
	<g>
		<path class="st0" d="M96.7,51.1c1.4,0,2.5-1.1,2.5-2.5s-1.1-2.5-2.5-2.5s-2.5,1.1-2.5,2.5S95.3,51.1,96.7,51.1z"/>
	</g>
	<g>
		<path class="st0" d="M101.3,51c1.4,0,2.5-1.1,2.5-2.5c0-1.3-1.1-2.4-2.5-2.4c-1.3,0-2.4,1.1-2.4,2.4C98.9,49.9,100,51,101.3,51z"
			/>
	</g>
	<g>
		<path class="st0" d="M105.9,50.9c1.3,0,2.4-1,2.4-2.4c0-1.3-1.1-2.3-2.4-2.3s-2.4,1-2.4,2.3C103.6,49.9,104.6,50.9,105.9,50.9z"/>
	</g>
	<g>
		<path class="st0" d="M110.6,50.8c1.2,0,2.2-1,2.2-2.2s-1-2.2-2.2-2.2s-2.2,1-2.2,2.2S109.3,50.8,110.6,50.8z"/>
	</g>
	<g>
		<path class="st0" d="M115.2,50.6c1.1,0,2-0.9,2-2s-0.9-2-2-2s-2.1,0.9-2.1,2C113.1,49.7,114,50.6,115.2,50.6z"/>
	</g>
	<g>
		<path class="st0" d="M119.8,50.4c1,0,1.8-0.8,1.8-1.9c0-1-0.8-1.8-1.8-1.8s-1.8,0.8-1.8,1.8C117.9,49.6,118.8,50.4,119.8,50.4z"/>
	</g>
	<g>
		<path class="st0" d="M124.4,50.2c0.9,0,1.6-0.7,1.6-1.6c0-0.9-0.7-1.6-1.6-1.6s-1.6,0.7-1.6,1.6C122.7,49.5,123.5,50.2,124.4,50.2
			z"/>
	</g>
	<g>
		<path class="st0" d="M129,49.9c0.8,0,1.4-0.6,1.4-1.4c0-0.7-0.6-1.3-1.4-1.3c-0.8,0-1.3,0.6-1.3,1.3
			C127.6,49.3,128.2,49.9,129,49.9z"/>
	</g>
	<g>
		<path class="st0" d="M133.6,49.7c0.6,0,1.1-0.5,1.1-1.1s-0.5-1-1.1-1s-1.1,0.5-1.1,1C132.5,49.2,133,49.7,133.6,49.7z"/>
	</g>
	<g>
		<path class="st0" d="M138.2,49.3c0.4,0,0.7-0.3,0.7-0.7s-0.3-0.7-0.7-0.7s-0.7,0.3-0.7,0.7C137.4,49,137.8,49.3,138.2,49.3z"/>
	</g>
	<g>
		<path class="st0" d="M142.8,49c0.2,0,0.4-0.2,0.4-0.4s-0.2-0.4-0.4-0.4c-0.3,0-0.4,0.2-0.4,0.4C142.4,48.8,142.5,49,142.8,49z"/>
	</g>
	<g>
		<path class="st0" d="M147.4,48.6L147.4,48.6L147.4,48.6L147.4,48.6L147.4,48.6z"/>
	</g>
	<g>
		<path class="st0" d="M32.3,53.6c0.2,0,0.4-0.2,0.4-0.4s-0.2-0.4-0.4-0.4s-0.4,0.2-0.4,0.4C31.9,53.4,32.1,53.6,32.3,53.6z"/>
	</g>
	<g>
		<path class="st0" d="M36.9,53.9c0.4,0,0.8-0.3,0.8-0.8c0-0.4-0.3-0.7-0.8-0.7c-0.4,0-0.7,0.3-0.7,0.7
			C36.2,53.6,36.5,53.9,36.9,53.9z"/>
	</g>
	<g>
		<path class="st0" d="M41.5,54.3c0.6,0,1.1-0.5,1.1-1.1s-0.5-1.1-1.1-1.1s-1.1,0.5-1.1,1.1S40.9,54.3,41.5,54.3z"/>
	</g>
	<g>
		<path class="st0" d="M46.1,54.6c0.8,0,1.4-0.6,1.4-1.4c0-0.8-0.7-1.4-1.4-1.4c-0.8,0-1.4,0.6-1.4,1.4C44.7,54,45.3,54.6,46.1,54.6
			z"/>
	</g>
	<g>
		<path class="st0" d="M50.7,54.9c0.9,0,1.7-0.7,1.7-1.7c0-0.9-0.8-1.7-1.7-1.7S49,52.3,49,53.2C49,54.1,49.8,54.9,50.7,54.9z"/>
	</g>
	<g>
		<path class="st0" d="M55.3,55.1c1.1,0,1.9-0.9,1.9-1.9c0-1.1-0.9-1.9-1.9-1.9c-1.1,0-1.9,0.9-1.9,1.9
			C53.4,54.2,54.2,55.1,55.3,55.1z"/>
	</g>
	<g>
		<path class="st0" d="M59.9,55.3c1.2,0,2.1-1,2.1-2.1c0-1.2-0.9-2.1-2.1-2.1c-1.2,0-2.1,1-2.1,2.1C57.8,54.4,58.7,55.3,59.9,55.3z"
			/>
	</g>
	<g>
		<path class="st0" d="M64.5,55.5c1.3,0,2.3-1,2.3-2.3s-1-2.3-2.3-2.3c-1.3,0-2.3,1-2.3,2.3S63.2,55.5,64.5,55.5z"/>
	</g>
	<g>
		<path class="st0" d="M69.1,55.6c1.4,0,2.5-1.1,2.5-2.5c0-1.3-1.1-2.5-2.5-2.5s-2.5,1.1-2.5,2.5C66.7,54.5,67.8,55.6,69.1,55.6z"/>
	</g>
	<g>
		<path class="st0" d="M73.7,55.8c1.4,0,2.6-1.2,2.6-2.6c0-1.4-1.2-2.6-2.6-2.6s-2.6,1.2-2.6,2.6S72.3,55.8,73.7,55.8z"/>
	</g>
	<g>
		<path class="st0" d="M78.3,55.8c1.5,0,2.7-1.2,2.7-2.7c0-1.4-1.2-2.7-2.7-2.7s-2.7,1.2-2.7,2.7C75.7,54.7,76.9,55.8,78.3,55.8z"/>
	</g>
	<g>
		<path class="st0" d="M82.9,55.9c1.5,0,2.7-1.2,2.7-2.7s-1.2-2.7-2.7-2.7s-2.7,1.2-2.7,2.7C80.2,54.7,81.4,55.9,82.9,55.9z"/>
	</g>
	<g>
		<path class="st0" d="M87.5,55.9c1.5,0,2.7-1.2,2.7-2.7s-1.2-2.7-2.7-2.7s-2.7,1.3-2.7,2.7C84.8,54.7,86,55.9,87.5,55.9z"/>
	</g>
	<g>
		<path class="st0" d="M92.1,55.9c1.5,0,2.8-1.2,2.8-2.7s-1.2-2.7-2.8-2.7c-1.5,0-2.7,1.3-2.7,2.7C89.4,54.7,90.6,55.9,92.1,55.9z"
			/>
	</g>
	<g>
		<path class="st0" d="M96.7,55.9c1.5,0,2.7-1.2,2.7-2.7s-1.2-2.7-2.7-2.7S94,51.7,94,53.2S95.3,55.9,96.7,55.9z"/>
	</g>
	<g>
		<path class="st0" d="M101.3,55.8c1.5,0,2.6-1.2,2.6-2.6c0-1.4-1.2-2.6-2.6-2.6s-2.6,1.2-2.6,2.6C98.7,54.6,99.9,55.8,101.3,55.8z"
			/>
	</g>
	<g>
		<path class="st0" d="M105.9,55.7c1.4,0,2.5-1.1,2.5-2.5s-1.1-2.5-2.5-2.5s-2.5,1.1-2.5,2.5C103.4,54.6,104.6,55.7,105.9,55.7z"/>
	</g>
	<g>
		<path class="st0" d="M110.6,55.6c1.3,0,2.4-1.1,2.4-2.4c0-1.3-1.1-2.4-2.4-2.4s-2.4,1.1-2.4,2.4S109.2,55.6,110.6,55.6z"/>
	</g>
	<g>
		<path class="st0" d="M115.2,55.5c1.2,0,2.3-1,2.3-2.3c0-1.2-1-2.2-2.3-2.2c-1.2,0-2.2,1-2.2,2.2C112.9,54.4,113.9,55.5,115.2,55.5
			z"/>
	</g>
	<g>
		<path class="st0" d="M119.8,55.2c1.1,0,2-0.9,2-2s-0.9-2-2-2s-2,0.9-2,2C117.7,54.3,118.6,55.2,119.8,55.2z"/>
	</g>
	<g>
		<path class="st0" d="M124.4,55c1,0,1.8-0.8,1.8-1.8s-0.8-1.8-1.8-1.8s-1.8,0.8-1.8,1.8S123.4,55,124.4,55z"/>
	</g>
	<g>
		<path class="st0" d="M129,54.7c0.8,0,1.5-0.7,1.5-1.5s-0.7-1.5-1.5-1.5s-1.5,0.7-1.5,1.5C127.4,54,128.1,54.7,129,54.7z"/>
	</g>
	<g>
		<path class="st0" d="M133.6,54.4c0.7,0,1.3-0.5,1.3-1.2s-0.6-1.2-1.3-1.2s-1.2,0.6-1.2,1.2C132.3,53.9,132.9,54.4,133.6,54.4z"/>
	</g>
	<g>
		<path class="st0" d="M138.2,54.1c0.5,0,0.9-0.4,0.9-0.9s-0.4-0.9-0.9-0.9s-0.9,0.4-0.9,0.9C137.2,53.7,137.7,54.1,138.2,54.1z"/>
	</g>
	<g>
		<path class="st0" d="M142.8,53.7c0.3,0,0.6-0.3,0.6-0.6s-0.3-0.5-0.6-0.5s-0.6,0.2-0.6,0.5C142.2,53.5,142.5,53.7,142.8,53.7z"/>
	</g>
	<g>
		<path class="st0" d="M147.4,53.4c0.1,0,0.2-0.1,0.2-0.2c0-0.1-0.1-0.2-0.2-0.2c-0.1,0-0.2,0.1-0.2,0.2
			C147.2,53.3,147.3,53.4,147.4,53.4z"/>
	</g>
	<g>
		<path class="st0" d="M27.7,57.9c0.1,0,0.1-0.1,0.1-0.1c0-0.1-0.1-0.2-0.1-0.2c-0.1,0-0.1,0.1-0.1,0.2
			C27.6,57.9,27.6,57.9,27.7,57.9z"/>
	</g>
	<g>
		<path class="st0" d="M32.3,58.3c0.3,0,0.5-0.3,0.5-0.5c0-0.3-0.3-0.5-0.5-0.5c-0.3,0-0.5,0.2-0.5,0.5S32,58.3,32.3,58.3z"/>
	</g>
	<g>
		<path class="st0" d="M36.9,58.7c0.5,0,0.9-0.4,0.9-0.9s-0.4-0.9-0.9-0.9S36,57.3,36,57.8S36.4,58.7,36.9,58.7z"/>
	</g>
	<g>
		<path class="st0" d="M41.5,59.1c0.7,0,1.3-0.6,1.3-1.3s-0.6-1.3-1.3-1.3s-1.3,0.5-1.3,1.3C40.3,58.5,40.8,59.1,41.5,59.1z"/>
	</g>
	<g>
		<path class="st0" d="M46.1,59.3c0.9,0,1.6-0.7,1.6-1.5c0-0.9-0.7-1.6-1.6-1.6c-0.9,0-1.5,0.7-1.5,1.6
			C44.6,58.7,45.2,59.3,46.1,59.3z"/>
	</g>
	<g>
		<path class="st0" d="M50.7,59.6c1,0,1.8-0.8,1.8-1.8S51.7,56,50.7,56s-1.8,0.8-1.8,1.8S49.7,59.6,50.7,59.6z"/>
	</g>
	<g>
		<path class="st0" d="M55.3,59.9c1.1,0,2.1-0.9,2.1-2.1c0-1.2-0.9-2.1-2.1-2.1c-1.1,0-2.1,0.9-2.1,2.1
			C53.2,58.9,54.2,59.9,55.3,59.9z"/>
	</g>
	<g>
		<path class="st0" d="M59.9,60.1c1.3,0,2.3-1,2.3-2.3s-1-2.3-2.3-2.3s-2.3,1-2.3,2.3C57.6,59.1,58.7,60.1,59.9,60.1z"/>
	</g>
	<g>
		<path class="st0" d="M64.5,60.3c1.4,0,2.5-1.1,2.5-2.5s-1.1-2.5-2.5-2.5c-1.3,0-2.5,1.1-2.5,2.5C62.1,59.1,63.2,60.3,64.5,60.3z"
			/>
	</g>
	<g>
		<path class="st0" d="M69.1,60.4c1.4,0,2.6-1.2,2.6-2.6c0-1.4-1.2-2.6-2.6-2.6s-2.6,1.2-2.6,2.6S67.7,60.4,69.1,60.4z"/>
	</g>
	<g>
		<path class="st0" d="M73.7,60.5c1.5,0,2.7-1.3,2.7-2.7c0-1.5-1.2-2.7-2.7-2.7S71,56.3,71,57.8S72.2,60.5,73.7,60.5z"/>
	</g>
	<g>
		<path class="st0" d="M78.3,60.6c1.5,0,2.8-1.2,2.8-2.8S79.8,55,78.3,55c-1.6,0-2.8,1.3-2.8,2.8S76.8,60.6,78.3,60.6z"/>
	</g>
	<g>
		<path class="st0" d="M82.9,60.6c1.6,0,2.8-1.3,2.8-2.8c0-1.6-1.3-2.9-2.8-2.9s-2.8,1.3-2.8,2.9S81.4,60.6,82.9,60.6z"/>
	</g>
	<g>
		<path class="st0" d="M87.5,60.6c1.6,0,2.9-1.3,2.9-2.8c0-1.6-1.3-2.9-2.9-2.9s-2.9,1.3-2.9,2.9C84.7,59.4,86,60.6,87.5,60.6z"/>
	</g>
	<g>
		<path class="st0" d="M92.1,60.6c1.6,0,2.9-1.3,2.9-2.8c0-1.6-1.3-2.9-2.9-2.9s-2.9,1.3-2.9,2.9C89.3,59.4,90.6,60.6,92.1,60.6z"/>
	</g>
	<g>
		<path class="st0" d="M96.7,60.6c1.6,0,2.8-1.3,2.8-2.8c0-1.6-1.3-2.8-2.8-2.8s-2.8,1.2-2.8,2.8C93.9,59.3,95.2,60.6,96.7,60.6z"/>
	</g>
	<g>
		<path class="st0" d="M101.3,60.5c1.5,0,2.8-1.2,2.8-2.7s-1.2-2.8-2.8-2.8c-1.5,0-2.8,1.3-2.8,2.8C98.6,59.3,99.8,60.5,101.3,60.5z
			"/>
	</g>
	<g>
		<path class="st0" d="M105.9,60.5c1.5,0,2.7-1.2,2.7-2.7s-1.2-2.7-2.7-2.7s-2.7,1.2-2.7,2.7C103.3,59.2,104.5,60.5,105.9,60.5z"/>
	</g>
	<g>
		<path class="st0" d="M110.6,60.3c1.4,0,2.5-1.1,2.5-2.5s-1.1-2.5-2.5-2.5s-2.5,1.1-2.5,2.5C108,59.2,109.2,60.3,110.6,60.3z"/>
	</g>
	<g>
		<path class="st0" d="M115.2,60.2c1.3,0,2.4-1.1,2.4-2.4c0-1.3-1.1-2.4-2.4-2.4s-2.4,1.1-2.4,2.4C112.8,59.1,113.9,60.2,115.2,60.2
			z"/>
	</g>
	<g>
		<path class="st0" d="M119.8,60c1.2,0,2.2-1,2.2-2.2s-1-2.2-2.2-2.2s-2.2,1-2.2,2.2C117.6,59,118.6,60,119.8,60z"/>
	</g>
	<g>
		<path class="st0" d="M124.4,59.7c1.1,0,1.9-0.9,1.9-1.9c0-1.1-0.9-2-1.9-2c-1.1,0-2,0.9-2,2C122.4,58.9,123.3,59.7,124.4,59.7z"/>
	</g>
	<g>
		<path class="st0" d="M129,59.5c0.9,0,1.7-0.7,1.7-1.7c0-0.9-0.8-1.7-1.7-1.7s-1.7,0.8-1.7,1.7S128,59.5,129,59.5z"/>
	</g>
	<g>
		<path class="st0" d="M133.6,59.2c0.8,0,1.4-0.6,1.4-1.4c0-0.8-0.6-1.4-1.4-1.4c-0.8,0-1.4,0.6-1.4,1.4
			C132.2,58.5,132.8,59.2,133.6,59.2z"/>
	</g>
	<g>
		<path class="st0" d="M138.2,58.9c0.6,0,1.1-0.5,1.1-1.1s-0.5-1.1-1.1-1.1s-1.1,0.5-1.1,1.1C137.1,58.4,137.6,58.9,138.2,58.9z"/>
	</g>
	<g>
		<path class="st0" d="M142.8,58.5c0.4,0,0.7-0.3,0.7-0.7s-0.3-0.7-0.7-0.7s-0.7,0.3-0.7,0.7S142.4,58.5,142.8,58.5z"/>
	</g>
	<g>
		<path class="st0" d="M147.4,58.1c0.2,0,0.3-0.2,0.3-0.3c0-0.2-0.2-0.3-0.3-0.3s-0.3,0.1-0.3,0.3C147.1,57.9,147.2,58.1,147.4,58.1
			z"/>
	</g>
	<g>
		<path class="st0" d="M27.7,62.6c0.1,0,0.3-0.1,0.3-0.3c0-0.1-0.1-0.3-0.3-0.3c-0.1,0-0.3,0.1-0.3,0.3
			C27.4,62.5,27.6,62.6,27.7,62.6z"/>
	</g>
	<g>
		<path class="st0" d="M32.3,63c0.3,0,0.6-0.3,0.6-0.6c0-0.4-0.3-0.6-0.6-0.6c-0.4,0-0.7,0.3-0.7,0.6C31.7,62.7,31.9,63,32.3,63z"/>
	</g>
	<g>
		<path class="st0" d="M36.9,63.4c0.6,0,1-0.5,1-1.1s-0.5-1-1-1c-0.6,0-1,0.5-1,1C35.8,63,36.3,63.4,36.9,63.4z"/>
	</g>
	<g>
		<path class="st0" d="M41.5,63.8c0.8,0,1.4-0.6,1.4-1.4c0-0.7-0.6-1.4-1.4-1.4c-0.8,0-1.4,0.6-1.4,1.4S40.7,63.8,41.5,63.8z"/>
	</g>
	<g>
		<path class="st0" d="M46.1,64.1c0.9,0,1.7-0.8,1.7-1.7s-0.8-1.7-1.7-1.7s-1.7,0.8-1.7,1.7C44.4,63.3,45.2,64.1,46.1,64.1z"/>
	</g>
	<g>
		<path class="st0" d="M50.7,64.3c1.1,0,1.9-0.9,1.9-2s-0.9-1.9-1.9-1.9c-1.1,0-1.9,0.9-1.9,1.9C48.8,63.5,49.6,64.3,50.7,64.3z"/>
	</g>
	<g>
		<path class="st0" d="M55.3,64.6c1.2,0,2.2-1,2.2-2.2s-1-2.2-2.2-2.2s-2.2,1-2.2,2.2S54.1,64.6,55.3,64.6z"/>
	</g>
	<g>
		<path class="st0" d="M59.9,64.8c1.3,0,2.4-1.1,2.4-2.4c0-1.3-1.1-2.4-2.4-2.4c-1.3,0-2.4,1.1-2.4,2.4
			C57.5,63.7,58.6,64.8,59.9,64.8z"/>
	</g>
	<g>
		<path class="st0" d="M64.5,65c1.4,0,2.6-1.1,2.6-2.6c0-1.4-1.2-2.6-2.6-2.6s-2.6,1.2-2.6,2.6S63.1,65,64.5,65z"/>
	</g>
	<g>
		<path class="st0" d="M69.1,65.1c1.5,0,2.7-1.2,2.7-2.7s-1.2-2.7-2.7-2.7s-2.7,1.2-2.7,2.7C66.4,63.9,67.6,65.1,69.1,65.1z"/>
	</g>
	<g>
		<path class="st0" d="M73.7,65.2c1.6,0,2.8-1.3,2.8-2.8s-1.3-2.8-2.8-2.8c-1.6,0-2.8,1.3-2.8,2.8C70.9,63.9,72.2,65.2,73.7,65.2z"
			/>
	</g>
	<g>
		<path class="st0" d="M78.3,65.3c1.6,0,2.9-1.3,2.9-2.9s-1.3-2.9-2.9-2.9s-2.9,1.3-2.9,2.9C75.4,64,76.7,65.3,78.3,65.3z"/>
	</g>
	<g>
		<path class="st0" d="M82.9,65.3c1.6,0,2.9-1.3,2.9-2.9s-1.3-2.9-2.9-2.9S80,60.8,80,62.4C80,64,81.3,65.3,82.9,65.3z"/>
	</g>
	<g>
		<path class="st0" d="M87.5,65.4c1.6,0,3-1.3,3-3c0-1.6-1.3-3-3-3c-1.6,0-2.9,1.3-2.9,3C84.6,64,85.9,65.4,87.5,65.4z"/>
	</g>
	<g>
		<path class="st0" d="M92.1,65.4c1.6,0,3-1.3,3-3c0-1.6-1.3-2.9-3-2.9c-1.6,0-2.9,1.3-2.9,2.9C89.2,64,90.5,65.4,92.1,65.4z"/>
	</g>
	<g>
		<path class="st0" d="M96.7,65.3c1.6,0,2.9-1.3,2.9-2.9s-1.3-2.9-2.9-2.9s-2.9,1.3-2.9,2.9C93.8,64,95.1,65.3,96.7,65.3z"/>
	</g>
	<g>
		<path class="st0" d="M101.3,65.3c1.6,0,2.9-1.3,2.9-2.9s-1.3-2.9-2.9-2.9s-2.8,1.3-2.8,2.9C98.5,64,99.8,65.3,101.3,65.3z"/>
	</g>
	<g>
		<path class="st0" d="M105.9,65.2c1.5,0,2.8-1.3,2.8-2.8s-1.2-2.8-2.8-2.8c-1.5,0-2.8,1.2-2.8,2.8
			C103.2,63.9,104.4,65.2,105.9,65.2z"/>
	</g>
	<g>
		<path class="st0" d="M110.6,65c1.5,0,2.7-1.2,2.7-2.7c0-1.4-1.2-2.6-2.7-2.6s-2.7,1.2-2.7,2.6C107.9,63.9,109.1,65,110.6,65z"/>
	</g>
	<g>
		<path class="st0" d="M115.2,64.9c1.4,0,2.5-1.1,2.5-2.5s-1.1-2.5-2.5-2.5s-2.5,1.1-2.5,2.5C112.7,63.8,113.8,64.9,115.2,64.9z"/>
	</g>
	<g>
		<path class="st0" d="M119.8,64.7c1.3,0,2.3-1,2.3-2.3c0-1.2-1-2.3-2.3-2.3s-2.3,1.1-2.3,2.3C117.4,63.7,118.5,64.7,119.8,64.7z"/>
	</g>
	<g>
		<path class="st0" d="M124.4,64.4c1.1,0,2.1-0.9,2.1-2.1s-0.9-2.1-2.1-2.1s-2.1,0.9-2.1,2.1S123.2,64.4,124.4,64.4z"/>
	</g>
	<g>
		<path class="st0" d="M129,64.2c1,0,1.8-0.8,1.8-1.8s-0.8-1.8-1.8-1.8s-1.8,0.8-1.8,1.8C127.2,63.4,128,64.2,129,64.2z"/>
	</g>
	<g>
		<path class="st0" d="M133.6,63.9c0.8,0,1.5-0.7,1.5-1.5s-0.7-1.5-1.5-1.5s-1.5,0.7-1.5,1.5S132.7,63.9,133.6,63.9z"/>
	</g>
	<g>
		<path class="st0" d="M138.2,63.6c0.7,0,1.2-0.6,1.2-1.2c0-0.6-0.5-1.2-1.2-1.2s-1.2,0.5-1.2,1.2C137,63,137.5,63.6,138.2,63.6z"/>
	</g>
	<g>
		<path class="st0" d="M142.8,63.2c0.4,0,0.8-0.4,0.8-0.8c0-0.4-0.4-0.8-0.8-0.8c-0.5,0-0.8,0.4-0.8,0.8S142.3,63.2,142.8,63.2z"/>
	</g>
	<g>
		<path class="st0" d="M147.4,62.8c0.3,0,0.4-0.2,0.4-0.4c0-0.3-0.2-0.4-0.4-0.4s-0.4,0.2-0.4,0.4S147.1,62.8,147.4,62.8z"/>
	</g>
	<g>
		<path class="st0" d="M27.7,67.3c0.2,0,0.4-0.2,0.4-0.3c0-0.2-0.2-0.4-0.4-0.4c-0.2,0-0.4,0.2-0.4,0.4
			C27.3,67.2,27.5,67.3,27.7,67.3z"/>
	</g>
	<g>
		<path class="st0" d="M32.3,67.7c0.4,0,0.7-0.3,0.7-0.7c0-0.4-0.3-0.8-0.7-0.8c-0.4,0-0.7,0.4-0.7,0.8
			C31.6,67.4,31.9,67.7,32.3,67.7z"/>
	</g>
	<g>
		<path class="st0" d="M36.9,68.1c0.6,0,1.1-0.5,1.1-1.1s-0.5-1.1-1.1-1.1s-1.1,0.5-1.1,1.1C35.8,67.6,36.3,68.1,36.9,68.1z"/>
	</g>
	<g>
		<path class="st0" d="M41.5,68.5c0.8,0,1.4-0.7,1.4-1.5s-0.7-1.4-1.4-1.4c-0.8,0-1.4,0.6-1.4,1.4S40.7,68.5,41.5,68.5z"/>
	</g>
	<g>
		<path class="st0" d="M46.1,68.8c1,0,1.8-0.8,1.8-1.8s-0.8-1.7-1.8-1.7s-1.8,0.8-1.8,1.7C44.3,67.9,45.1,68.8,46.1,68.8z"/>
	</g>
	<g>
		<path class="st0" d="M50.7,69c1.1,0,2-0.9,2-2s-0.9-2-2-2s-2,0.9-2,2S49.6,69,50.7,69z"/>
	</g>
	<g>
		<path class="st0" d="M55.3,69.3c1.3,0,2.3-1,2.3-2.3s-1-2.3-2.3-2.3S53,65.8,53,67C53,68.2,54.1,69.3,55.3,69.3z"/>
	</g>
	<g>
		<path class="st0" d="M59.9,69.4c1.4,0,2.5-1.1,2.5-2.5s-1.1-2.5-2.5-2.5s-2.5,1.1-2.5,2.5C57.4,68.4,58.5,69.4,59.9,69.4z"/>
	</g>
	<g>
		<path class="st0" d="M64.5,69.7c1.5,0,2.7-1.2,2.7-2.7s-1.2-2.7-2.7-2.7s-2.7,1.2-2.7,2.7C61.9,68.5,63,69.7,64.5,69.7z"/>
	</g>
	<g>
		<path class="st0" d="M69.1,69.8c1.5,0,2.8-1.2,2.8-2.8c0-1.6-1.3-2.8-2.8-2.8s-2.8,1.3-2.8,2.8C66.3,68.5,67.6,69.8,69.1,69.8z"/>
	</g>
	<g>
		<path class="st0" d="M73.7,69.9c1.6,0,2.9-1.3,2.9-2.9s-1.3-2.9-2.9-2.9s-2.9,1.3-2.9,2.9C70.8,68.6,72.1,69.9,73.7,69.9z"/>
	</g>
	<g>
		<path class="st0" d="M78.3,70c1.6,0,3-1.3,3-3c0-1.6-1.3-3-3-3c-1.6,0-3,1.3-3,3C75.4,68.6,76.7,70,78.3,70z"/>
	</g>
	<g>
		<path class="st0" d="M82.9,70c1.7,0,3-1.4,3-3c0-1.7-1.3-3-3-3s-3,1.3-3,3C79.9,68.6,81.3,70,82.9,70z"/>
	</g>
	<g>
		<path class="st0" d="M87.5,70c1.7,0,3-1.4,3-3c0-1.7-1.4-3.1-3-3.1c-1.7,0-3,1.4-3,3.1S85.9,70,87.5,70z"/>
	</g>
	<g>
		<path class="st0" d="M92.1,70c1.7,0,3-1.3,3-3s-1.4-3-3-3c-1.7,0-3,1.4-3,3C89.1,68.7,90.5,70,92.1,70z"/>
	</g>
	<g>
		<path class="st0" d="M96.7,70c1.7,0,3-1.3,3-3c0-1.6-1.3-3-3-3c-1.6,0-3,1.3-3,3C93.7,68.6,95.1,70,96.7,70z"/>
	</g>
	<g>
		<path class="st0" d="M101.3,69.9c1.6,0,2.9-1.3,2.9-2.9s-1.3-2.9-2.9-2.9s-2.9,1.3-2.9,2.9S99.7,69.9,101.3,69.9z"/>
	</g>
	<g>
		<path class="st0" d="M105.9,69.8c1.6,0,2.9-1.3,2.9-2.8c0-1.6-1.3-2.9-2.9-2.9s-2.8,1.3-2.8,2.9S104.4,69.8,105.9,69.8z"/>
	</g>
	<g>
		<path class="st0" d="M110.6,69.7c1.5,0,2.7-1.2,2.7-2.7s-1.2-2.7-2.7-2.7s-2.7,1.2-2.7,2.7C107.8,68.5,109.1,69.7,110.6,69.7z"/>
	</g>
	<g>
		<path class="st0" d="M115.2,69.6c1.4,0,2.6-1.2,2.6-2.6s-1.2-2.6-2.6-2.6s-2.6,1.1-2.6,2.6C112.6,68.4,113.7,69.6,115.2,69.6z"/>
	</g>
	<g>
		<path class="st0" d="M119.8,69.4c1.3,0,2.4-1.1,2.4-2.4s-1.1-2.4-2.4-2.4s-2.4,1-2.4,2.4C117.4,68.3,118.4,69.4,119.8,69.4z"/>
	</g>
	<g>
		<path class="st0" d="M124.4,69.1c1.2,0,2.2-1,2.2-2.1c0-1.2-1-2.1-2.2-2.1s-2.2,1-2.2,2.1C122.2,68.2,123.2,69.1,124.4,69.1z"/>
	</g>
	<g>
		<path class="st0" d="M129,68.9c1,0,1.9-0.8,1.9-1.9s-0.8-1.9-1.9-1.9c-1,0-1.9,0.8-1.9,1.9C127.1,68,127.9,68.9,129,68.9z"/>
	</g>
	<g>
		<path class="st0" d="M133.6,68.6c0.9,0,1.6-0.7,1.6-1.6s-0.7-1.6-1.6-1.6c-0.9,0-1.6,0.7-1.6,1.6S132.7,68.6,133.6,68.6z"/>
	</g>
	<g>
		<path class="st0" d="M138.2,68.2c0.7,0,1.3-0.6,1.3-1.2c0-0.7-0.6-1.3-1.3-1.3s-1.3,0.6-1.3,1.3C136.9,67.7,137.5,68.2,138.2,68.2
			z"/>
	</g>
	<g>
		<path class="st0" d="M142.8,67.9c0.5,0,0.9-0.4,0.9-0.9s-0.4-0.9-0.9-0.9s-1,0.4-1,0.9S142.3,67.9,142.8,67.9z"/>
	</g>
	<g>
		<path class="st0" d="M147.4,67.5c0.3,0,0.5-0.2,0.5-0.5s-0.2-0.6-0.5-0.6s-0.5,0.3-0.5,0.6C146.8,67.3,147.1,67.5,147.4,67.5z"/>
	</g>
	<g>
		<path class="st0" d="M27.7,72c0.2,0,0.4-0.2,0.4-0.4c0-0.2-0.2-0.4-0.4-0.4c-0.2,0-0.4,0.2-0.4,0.4C27.3,71.8,27.5,72,27.7,72z"/>
	</g>
	<g>
		<path class="st0" d="M32.3,72.4c0.4,0,0.8-0.4,0.8-0.8s-0.4-0.8-0.8-0.8c-0.5,0-0.8,0.4-0.8,0.8S31.9,72.4,32.3,72.4z"/>
	</g>
	<g>
		<path class="st0" d="M36.9,72.8c0.6,0,1.2-0.5,1.2-1.2s-0.5-1.2-1.2-1.2c-0.6,0-1.2,0.5-1.2,1.2C35.7,72.2,36.3,72.8,36.9,72.8z"
			/>
	</g>
	<g>
		<path class="st0" d="M41.5,73.1c0.8,0,1.5-0.7,1.5-1.5s-0.7-1.5-1.5-1.5S40,70.8,40,71.6S40.7,73.1,41.5,73.1z"/>
	</g>
	<g>
		<path class="st0" d="M46.1,73.4c1,0,1.8-0.8,1.8-1.8s-0.8-1.8-1.8-1.8s-1.8,0.8-1.8,1.8S45.1,73.4,46.1,73.4z"/>
	</g>
	<g>
		<path class="st0" d="M50.7,73.7c1.2,0,2.1-0.9,2.1-2.1s-0.9-2.1-2.1-2.1c-1.2,0-2.1,0.9-2.1,2.1C48.6,72.8,49.6,73.7,50.7,73.7z"
			/>
	</g>
	<g>
		<path class="st0" d="M55.3,73.9c1.3,0,2.3-1,2.3-2.3s-1-2.3-2.3-2.3s-2.3,1-2.3,2.3S54,73.9,55.3,73.9z"/>
	</g>
	<g>
		<path class="st0" d="M59.9,74.1c1.4,0,2.5-1.1,2.5-2.5s-1.1-2.5-2.5-2.5s-2.5,1.1-2.5,2.5S58.5,74.1,59.9,74.1z"/>
	</g>
	<g>
		<path class="st0" d="M64.5,74.3c1.5,0,2.7-1.2,2.7-2.7s-1.2-2.7-2.7-2.7s-2.7,1.2-2.7,2.7C61.8,73.1,63,74.3,64.5,74.3z"/>
	</g>
	<g>
		<path class="st0" d="M69.1,74.4c1.6,0,2.9-1.3,2.9-2.8c0-1.6-1.3-2.8-2.9-2.8s-2.9,1.2-2.9,2.8C66.3,73.2,67.6,74.4,69.1,74.4z"/>
	</g>
	<g>
		<path class="st0" d="M73.7,74.5c1.6,0,2.9-1.3,2.9-2.9s-1.3-2.9-2.9-2.9s-2.9,1.3-2.9,2.9C70.8,73.2,72.1,74.5,73.7,74.5z"/>
	</g>
	<g>
		<path class="st0" d="M78.3,74.6c1.7,0,3-1.4,3-3c0-1.7-1.3-3-3-3s-3,1.4-3,3S76.7,74.6,78.3,74.6z"/>
	</g>
	<g>
		<path class="st0" d="M82.9,74.7c1.7,0,3.1-1.4,3.1-3.1s-1.4-3.1-3.1-3.1s-3.1,1.4-3.1,3.1C79.9,73.3,81.3,74.7,82.9,74.7z"/>
	</g>
	<g>
		<path class="st0" d="M87.5,74.7c1.7,0,3.1-1.4,3.1-3.1s-1.4-3.1-3.1-3.1s-3.1,1.4-3.1,3.1C84.4,73.3,85.8,74.7,87.5,74.7z"/>
	</g>
	<g>
		<path class="st0" d="M92.1,74.7c1.7,0,3.1-1.4,3.1-3.1s-1.4-3.1-3.1-3.1S89,69.9,89,71.6C89.1,73.3,90.4,74.7,92.1,74.7z"/>
	</g>
	<g>
		<path class="st0" d="M96.7,74.6c1.7,0,3-1.4,3-3c0-1.7-1.4-3-3-3c-1.7,0-3,1.4-3,3S95.1,74.6,96.7,74.6z"/>
	</g>
	<g>
		<path class="st0" d="M101.3,74.5c1.7,0,3-1.3,3-3c0-1.6-1.3-3-3-3c-1.6,0-3,1.3-3,3C98.4,73.2,99.7,74.5,101.3,74.5z"/>
	</g>
	<g>
		<path class="st0" d="M105.9,74.5c1.6,0,2.9-1.3,2.9-2.9s-1.3-2.9-2.9-2.9S103,70,103,71.6C103.1,73.2,104.4,74.5,105.9,74.5z"/>
	</g>
	<g>
		<path class="st0" d="M110.6,74.4c1.5,0,2.8-1.2,2.8-2.8c0-1.6-1.2-2.8-2.8-2.8c-1.5,0-2.8,1.2-2.8,2.8
			C107.8,73.1,109,74.4,110.6,74.4z"/>
	</g>
	<g>
		<path class="st0" d="M115.2,74.2c1.4,0,2.6-1.2,2.6-2.6c0-1.5-1.2-2.6-2.6-2.6s-2.6,1.2-2.6,2.6C112.5,73.1,113.7,74.2,115.2,74.2
			z"/>
	</g>
	<g>
		<path class="st0" d="M119.8,74c1.3,0,2.4-1.1,2.4-2.5c0-1.3-1.1-2.4-2.4-2.4c-1.4,0-2.4,1.1-2.4,2.4C117.3,72.9,118.4,74,119.8,74
			z"/>
	</g>
	<g>
		<path class="st0" d="M124.4,73.8c1.2,0,2.2-1,2.2-2.2s-1-2.2-2.2-2.2s-2.2,1-2.2,2.2C122.2,72.8,123.1,73.8,124.4,73.8z"/>
	</g>
	<g>
		<path class="st0" d="M129,73.5c1.1,0,1.9-0.9,1.9-1.9c0-1.1-0.9-1.9-1.9-1.9c-1.1,0-1.9,0.9-1.9,1.9C127,72.7,127.9,73.5,129,73.5
			z"/>
	</g>
	<g>
		<path class="st0" d="M133.6,73.2c0.9,0,1.7-0.7,1.7-1.6s-0.8-1.7-1.7-1.7s-1.7,0.7-1.7,1.7C131.9,72.5,132.7,73.2,133.6,73.2z"/>
	</g>
	<g>
		<ellipse class="st0" cx="138.2" cy="71.6" rx="1.3" ry="1.3"/>
	</g>
	<g>
		<path class="st0" d="M142.8,72.5c0.5,0,0.9-0.4,0.9-1s-0.4-1-0.9-1c-0.6,0-1,0.4-1,1S142.2,72.5,142.8,72.5z"/>
	</g>
	<g>
		<path class="st0" d="M147.4,72.2c0.3,0,0.6-0.2,0.6-0.6c0-0.3-0.3-0.6-0.6-0.6s-0.6,0.2-0.6,0.6C146.8,71.9,147.1,72.2,147.4,72.2
			z"/>
	</g>
	<g>
		<path class="st0" d="M27.7,76.6c0.2,0,0.4-0.2,0.4-0.5c0-0.2-0.2-0.4-0.4-0.4c-0.2,0-0.4,0.2-0.4,0.4
			C27.3,76.4,27.5,76.6,27.7,76.6z"/>
	</g>
	<g>
		<path class="st0" d="M32.3,77c0.4,0,0.8-0.4,0.8-0.8s-0.4-0.8-0.8-0.8c-0.5,0-0.8,0.4-0.8,0.8S31.8,77,32.3,77z"/>
	</g>
	<g>
		<path class="st0" d="M36.9,77.4c0.7,0,1.2-0.5,1.2-1.2S37.6,75,36.9,75c-0.6,0-1.2,0.5-1.2,1.2C35.7,76.8,36.3,77.4,36.9,77.4z"/>
	</g>
	<g>
		<path class="st0" d="M41.5,77.7c0.8,0,1.5-0.7,1.5-1.5s-0.7-1.5-1.5-1.5c-0.9,0-1.5,0.7-1.5,1.5S40.7,77.7,41.5,77.7z"/>
	</g>
	<g>
		<path class="st0" d="M46.1,78c1,0,1.9-0.8,1.9-1.8s-0.8-1.8-1.9-1.8c-1,0-1.8,0.8-1.8,1.8S45.1,78,46.1,78z"/>
	</g>
	<g>
		<path class="st0" d="M50.7,78.3c1.2,0,2.1-1,2.1-2.1c0-1.2-1-2.1-2.1-2.1c-1.2,0-2.1,0.9-2.1,2.1C48.6,77.4,49.5,78.3,50.7,78.3z"
			/>
	</g>
	<g>
		<path class="st0" d="M55.3,78.5c1.3,0,2.3-1,2.3-2.4c0-1.3-1-2.4-2.3-2.4s-2.4,1.1-2.4,2.4C53,77.5,54,78.5,55.3,78.5z"/>
	</g>
	<g>
		<path class="st0" d="M59.9,78.8c1.4,0,2.6-1.2,2.6-2.6s-1.2-2.6-2.6-2.6c-1.4,0-2.6,1.2-2.6,2.6C57.4,77.6,58.5,78.8,59.9,78.8z"
			/>
	</g>
	<g>
		<path class="st0" d="M64.5,78.9c1.5,0,2.8-1.2,2.8-2.8c0-1.5-1.2-2.7-2.8-2.7c-1.5,0-2.7,1.2-2.7,2.7C61.8,77.7,63,78.9,64.5,78.9
			z"/>
	</g>
	<g>
		<path class="st0" d="M69.1,79c1.6,0,2.9-1.3,2.9-2.9c0-1.5-1.3-2.8-2.9-2.8s-2.9,1.3-2.9,2.8C66.3,77.8,67.5,79,69.1,79z"/>
	</g>
	<g>
		<path class="st0" d="M73.7,79.1c1.6,0,3-1.3,3-3c0-1.6-1.3-3-3-3c-1.6,0-3,1.3-3,3C70.8,77.8,72.1,79.1,73.7,79.1z"/>
	</g>
	<g>
		<path class="st0" d="M78.3,79.2c1.7,0,3-1.3,3-3s-1.4-3-3-3c-1.7,0-3,1.4-3,3C75.3,77.9,76.7,79.2,78.3,79.2z"/>
	</g>
	<g>
		<path class="st0" d="M82.9,79.3c1.7,0,3.1-1.4,3.1-3.1s-1.4-3.1-3.1-3.1s-3.1,1.4-3.1,3.1S81.2,79.3,82.9,79.3z"/>
	</g>
	<g>
		<path class="st0" d="M87.5,79.3c1.7,0,3.1-1.4,3.1-3.1s-1.4-3.1-3.1-3.1s-3.1,1.4-3.1,3.1S85.8,79.3,87.5,79.3z"/>
	</g>
	<g>
		<path class="st0" d="M92.1,79.3c1.7,0,3.1-1.4,3.1-3.1s-1.4-3.1-3.1-3.1S89,74.5,89,76.2S90.4,79.3,92.1,79.3z"/>
	</g>
	<g>
		<path class="st0" d="M96.7,79.2c1.7,0,3.1-1.3,3.1-3.1c0-1.7-1.4-3-3.1-3s-3.1,1.4-3.1,3C93.7,77.9,95.1,79.2,96.7,79.2z"/>
	</g>
	<g>
		<path class="st0" d="M101.3,79.2c1.7,0,3-1.4,3-3s-1.3-3-3-3c-1.6,0-3,1.3-3,3C98.3,77.8,99.7,79.2,101.3,79.2z"/>
	</g>
	<g>
		<path class="st0" d="M105.9,79.1c1.6,0,2.9-1.3,2.9-2.9s-1.3-2.9-2.9-2.9s-2.9,1.3-2.9,2.9C103,77.8,104.3,79.1,105.9,79.1z"/>
	</g>
	<g>
		<path class="st0" d="M110.6,79c1.5,0,2.8-1.2,2.8-2.8c0-1.5-1.3-2.8-2.8-2.8c-1.6,0-2.8,1.3-2.8,2.8C107.7,77.8,109,79,110.6,79z"
			/>
	</g>
	<g>
		<path class="st0" d="M115.2,78.8c1.5,0,2.7-1.2,2.7-2.7c0-1.4-1.2-2.7-2.7-2.7s-2.7,1.2-2.7,2.7C112.5,77.7,113.7,78.8,115.2,78.8
			z"/>
	</g>
	<g>
		<path class="st0" d="M119.8,78.7c1.4,0,2.5-1.1,2.5-2.5c0-1.3-1.1-2.5-2.5-2.5s-2.5,1.1-2.5,2.5S118.4,78.7,119.8,78.7z"/>
	</g>
	<g>
		<path class="st0" d="M124.4,78.4c1.2,0,2.3-1,2.3-2.3c0-1.2-1-2.2-2.3-2.2c-1.2,0-2.2,1-2.2,2.2C122.1,77.4,123.1,78.4,124.4,78.4
			z"/>
	</g>
	<g>
		<path class="st0" d="M129,78.2c1.1,0,2-0.9,2-2s-0.9-1.9-2-1.9c-1.1,0-2,0.9-2,1.9C127,77.3,127.9,78.2,129,78.2z"/>
	</g>
	<g>
		<path class="st0" d="M133.6,77.9c0.9,0,1.7-0.7,1.7-1.7c0-0.9-0.8-1.7-1.7-1.7s-1.7,0.8-1.7,1.7C131.9,77.1,132.6,77.9,133.6,77.9
			z"/>
	</g>
	<g>
		<path class="st0" d="M138.2,77.5c0.8,0,1.4-0.6,1.4-1.4c0-0.7-0.6-1.3-1.4-1.3c-0.7,0-1.4,0.6-1.4,1.3
			C136.8,76.9,137.4,77.5,138.2,77.5z"/>
	</g>
	<g>
		<path class="st0" d="M142.8,77.2c0.5,0,1-0.4,1-1c0-0.5-0.4-1-1-1s-1,0.4-1,1C141.8,76.7,142.2,77.2,142.8,77.2z"/>
	</g>
	<g>
		<path class="st0" d="M147.4,76.8c0.3,0,0.6-0.2,0.6-0.6c0-0.3-0.3-0.6-0.6-0.6s-0.6,0.3-0.6,0.6C146.8,76.5,147.1,76.8,147.4,76.8
			z"/>
	</g>
	<g>
		<path class="st0" d="M27.7,81.2c0.2,0,0.4-0.2,0.4-0.4c0-0.3-0.2-0.4-0.4-0.4c-0.2,0-0.4,0.2-0.4,0.4C27.3,81,27.5,81.2,27.7,81.2
			z"/>
	</g>
	<g>
		<path class="st0" d="M32.3,81.6c0.4,0,0.8-0.4,0.8-0.8c0-0.5-0.4-0.8-0.8-0.8c-0.5,0-0.8,0.4-0.8,0.8S31.9,81.6,32.3,81.6z"/>
	</g>
	<g>
		<path class="st0" d="M36.9,82c0.6,0,1.2-0.5,1.2-1.1c0-0.7-0.5-1.2-1.2-1.2c-0.6,0-1.2,0.5-1.2,1.2C35.7,81.4,36.3,82,36.9,82z"/>
	</g>
	<g>
		<path class="st0" d="M41.5,82.3c0.8,0,1.5-0.7,1.5-1.5c0-0.9-0.7-1.5-1.5-1.5S40,80,40,80.8C40,81.6,40.7,82.3,41.5,82.3z"/>
	</g>
	<g>
		<path class="st0" d="M46.1,82.6c1,0,1.8-0.8,1.8-1.8S47.1,79,46.1,79s-1.8,0.8-1.8,1.8C44.3,81.8,45.1,82.6,46.1,82.6z"/>
	</g>
	<g>
		<path class="st0" d="M50.7,82.9c1.2,0,2.1-0.9,2.1-2.1s-1-2.1-2.1-2.1c-1.2,0-2.1,1-2.1,2.1C48.6,82,49.5,82.9,50.7,82.9z"/>
	</g>
	<g>
		<path class="st0" d="M55.3,83.1c1.3,0,2.3-1,2.3-2.3s-1-2.4-2.3-2.4s-2.4,1-2.4,2.4C53,82.1,54,83.1,55.3,83.1z"/>
	</g>
	<g>
		<path class="st0" d="M59.9,83.4c1.4,0,2.6-1.1,2.6-2.6c0-1.4-1.1-2.6-2.6-2.6c-1.4,0-2.6,1.2-2.6,2.6
			C57.4,82.2,58.5,83.4,59.9,83.4z"/>
	</g>
	<g>
		<path class="st0" d="M64.5,83.5c1.5,0,2.8-1.2,2.8-2.7s-1.2-2.7-2.8-2.7c-1.5,0-2.7,1.2-2.7,2.7S63,83.5,64.5,83.5z"/>
	</g>
	<g>
		<path class="st0" d="M69.1,83.7c1.6,0,2.9-1.3,2.9-2.9s-1.3-2.9-2.9-2.9s-2.9,1.3-2.9,2.9C66.3,82.4,67.5,83.7,69.1,83.7z"/>
	</g>
	<g>
		<path class="st0" d="M73.7,83.8c1.6,0,2.9-1.3,2.9-2.9s-1.3-3-2.9-3s-2.9,1.3-2.9,3C70.8,82.4,72.1,83.8,73.7,83.8z"/>
	</g>
	<g>
		<path class="st0" d="M78.3,83.8c1.7,0,3-1.4,3-3c0-1.7-1.3-3.1-3-3.1s-3,1.4-3,3.1S76.7,83.8,78.3,83.8z"/>
	</g>
	<g>
		<path class="st0" d="M82.9,83.9c1.7,0,3.1-1.4,3.1-3.1s-1.4-3.1-3.1-3.1s-3.1,1.4-3.1,3.1C79.9,82.5,81.2,83.9,82.9,83.9z"/>
	</g>
	<g>
		<path class="st0" d="M87.5,83.9c1.7,0,3.1-1.4,3.1-3.1s-1.4-3.1-3.1-3.1s-3.1,1.4-3.1,3.1S85.8,83.9,87.5,83.9z"/>
	</g>
	<g>
		<path class="st0" d="M92.1,83.9c1.7,0,3.1-1.4,3.1-3.1s-1.4-3.1-3.1-3.1S89,79.1,89,80.8S90.4,83.9,92.1,83.9z"/>
	</g>
	<g>
		<path class="st0" d="M96.7,83.8c1.7,0,3.1-1.3,3.1-3s-1.4-3.1-3.1-3.1s-3.1,1.3-3.1,3.1C93.7,82.5,95.1,83.8,96.7,83.8z"/>
	</g>
	<g>
		<path class="st0" d="M101.3,83.8c1.7,0,3-1.3,3-3s-1.3-3-3-3c-1.6,0-3,1.3-3,3C98.4,82.5,99.7,83.8,101.3,83.8z"/>
	</g>
	<g>
		<path class="st0" d="M105.9,83.7c1.6,0,2.9-1.3,2.9-2.9s-1.3-2.9-2.9-2.9s-2.9,1.3-2.9,2.9C103.1,82.4,104.4,83.7,105.9,83.7z"/>
	</g>
	<g>
		<path class="st0" d="M110.6,83.6c1.5,0,2.8-1.3,2.8-2.8c0-1.6-1.3-2.8-2.8-2.8c-1.6,0-2.8,1.3-2.8,2.8
			C107.8,82.3,109,83.6,110.6,83.6z"/>
	</g>
	<g>
		<path class="st0" d="M115.2,83.4c1.5,0,2.6-1.2,2.6-2.6c0-1.5-1.2-2.7-2.6-2.7c-1.5,0-2.6,1.2-2.6,2.7
			C112.5,82.3,113.7,83.4,115.2,83.4z"/>
	</g>
	<g>
		<path class="st0" d="M119.8,83.2c1.3,0,2.5-1.1,2.5-2.4c0-1.4-1.1-2.5-2.5-2.5s-2.5,1.1-2.5,2.5C117.3,82.1,118.4,83.2,119.8,83.2
			z"/>
	</g>
	<g>
		<path class="st0" d="M124.4,83c1.2,0,2.2-1,2.2-2.2s-1-2.2-2.2-2.2s-2.2,1-2.2,2.2C122.1,82,123.1,83,124.4,83z"/>
	</g>
	<g>
		<path class="st0" d="M129,82.7c1.1,0,1.9-0.9,1.9-1.9c0-1.1-0.9-2-1.9-2c-1.1,0-2,0.9-2,2C127,81.9,127.9,82.7,129,82.7z"/>
	</g>
	<g>
		<path class="st0" d="M133.6,82.5c0.9,0,1.7-0.7,1.7-1.6s-0.8-1.7-1.7-1.7s-1.7,0.8-1.7,1.7C131.9,81.7,132.6,82.5,133.6,82.5z"/>
	</g>
	<g>
		<path class="st0" d="M138.2,82.1c0.8,0,1.4-0.6,1.4-1.3c0-0.8-0.6-1.4-1.4-1.4c-0.7,0-1.4,0.6-1.4,1.4S137.4,82.1,138.2,82.1z"/>
	</g>
	<g>
		<path class="st0" d="M142.8,81.8c0.5,0,1-0.5,1-1c0-0.6-0.4-1-1-1s-1,0.5-1,1S142.2,81.8,142.8,81.8z"/>
	</g>
	<g>
		<path class="st0" d="M147.4,81.4c0.3,0,0.6-0.3,0.6-0.6c0-0.4-0.3-0.6-0.6-0.6s-0.6,0.3-0.6,0.6C146.8,81.1,147.1,81.4,147.4,81.4
			z"/>
	</g>
	<g>
		<path class="st0" d="M27.7,85.8c0.2,0,0.4-0.2,0.4-0.4c0-0.2-0.2-0.4-0.4-0.4c-0.2,0-0.4,0.2-0.4,0.4
			C27.3,85.6,27.5,85.8,27.7,85.8z"/>
	</g>
	<g>
		<path class="st0" d="M32.3,86.2c0.4,0,0.8-0.4,0.8-0.8c0-0.5-0.4-0.8-0.8-0.8c-0.4,0-0.8,0.3-0.8,0.8
			C31.5,85.8,31.9,86.2,32.3,86.2z"/>
	</g>
	<g>
		<path class="st0" d="M36.9,86.5c0.6,0,1.1-0.5,1.1-1.1s-0.5-1.1-1.1-1.1s-1.1,0.5-1.1,1.1C35.8,86,36.3,86.5,36.9,86.5z"/>
	</g>
	<g>
		<path class="st0" d="M41.5,86.9c0.8,0,1.5-0.7,1.5-1.5s-0.7-1.5-1.5-1.5S40,84.6,40,85.4C40,86.2,40.7,86.9,41.5,86.9z"/>
	</g>
	<g>
		<path class="st0" d="M46.1,87.2c1,0,1.8-0.8,1.8-1.8s-0.8-1.8-1.8-1.8s-1.8,0.8-1.8,1.8C44.3,86.4,45.1,87.2,46.1,87.2z"/>
	</g>
	<g>
		<path class="st0" d="M50.7,87.5c1.1,0,2.1-1,2.1-2.1s-0.9-2.1-2.1-2.1c-1.1,0-2.1,0.9-2.1,2.1C48.6,86.5,49.6,87.5,50.7,87.5z"/>
	</g>
	<g>
		<path class="st0" d="M55.3,87.7c1.3,0,2.3-1,2.3-2.3s-1-2.3-2.3-2.3s-2.3,1-2.3,2.3S54,87.7,55.3,87.7z"/>
	</g>
	<g>
		<path class="st0" d="M59.9,87.9c1.4,0,2.5-1.1,2.5-2.5s-1.1-2.5-2.5-2.5s-2.5,1.1-2.5,2.5S58.5,87.9,59.9,87.9z"/>
	</g>
	<g>
		<path class="st0" d="M64.5,88.1c1.5,0,2.7-1.2,2.7-2.7s-1.2-2.7-2.7-2.7s-2.7,1.2-2.7,2.7S63,88.1,64.5,88.1z"/>
	</g>
	<g>
		<path class="st0" d="M69.1,88.2c1.6,0,2.8-1.2,2.8-2.8c0-1.6-1.3-2.8-2.8-2.8c-1.6,0-2.8,1.2-2.8,2.8C66.3,87,67.6,88.2,69.1,88.2
			z"/>
	</g>
	<g>
		<path class="st0" d="M73.7,88.3c1.6,0,2.9-1.3,2.9-2.9s-1.3-2.9-2.9-2.9s-2.9,1.3-2.9,2.9C70.8,87,72.1,88.3,73.7,88.3z"/>
	</g>
	<g>
		<path class="st0" d="M78.3,88.4c1.6,0,3-1.4,3-3s-1.3-3-3-3s-3,1.4-3,3S76.7,88.4,78.3,88.4z"/>
	</g>
	<g>
		<path class="st0" d="M82.9,88.4c1.7,0,3-1.4,3-3.1s-1.4-3-3-3c-1.7,0-3,1.3-3,3C79.9,87.1,81.3,88.4,82.9,88.4z"/>
	</g>
	<g>
		<path class="st0" d="M87.5,88.4c1.7,0,3.1-1.4,3.1-3.1s-1.4-3.1-3.1-3.1s-3.1,1.4-3.1,3.1C84.5,87.1,85.8,88.4,87.5,88.4z"/>
	</g>
	<g>
		<path class="st0" d="M92.1,88.4c1.7,0,3.1-1.4,3.1-3.1s-1.4-3.1-3.1-3.1s-3,1.4-3,3.1C89.1,87.1,90.5,88.4,92.1,88.4z"/>
	</g>
	<g>
		<path class="st0" d="M96.7,88.4c1.7,0,3-1.4,3-3s-1.3-3-3-3s-3,1.4-3,3S95.1,88.4,96.7,88.4z"/>
	</g>
	<g>
		<path class="st0" d="M101.3,88.4c1.6,0,3-1.3,3-3c0-1.6-1.3-3-3-3c-1.6,0-3,1.3-3,3C98.4,87,99.7,88.4,101.3,88.4z"/>
	</g>
	<g>
		<path class="st0" d="M105.9,88.3c1.6,0,2.9-1.3,2.9-2.9s-1.3-2.8-2.9-2.8s-2.9,1.3-2.9,2.8C103.1,87,104.4,88.3,105.9,88.3z"/>
	</g>
	<g>
		<path class="st0" d="M110.6,88.2c1.5,0,2.7-1.2,2.7-2.8c0-1.5-1.2-2.7-2.7-2.7s-2.8,1.2-2.8,2.7C107.8,86.9,109,88.2,110.6,88.2z"
			/>
	</g>
	<g>
		<path class="st0" d="M115.2,88c1.4,0,2.6-1.2,2.6-2.6s-1.2-2.6-2.6-2.6s-2.6,1.2-2.6,2.6S113.7,88,115.2,88z"/>
	</g>
	<g>
		<path class="st0" d="M119.8,87.8c1.3,0,2.4-1.1,2.4-2.4s-1.1-2.4-2.4-2.4s-2.4,1.1-2.4,2.4C117.3,86.7,118.4,87.8,119.8,87.8z"/>
	</g>
	<g>
		<path class="st0" d="M124.4,87.6c1.2,0,2.2-1,2.2-2.2s-1-2.2-2.2-2.2s-2.2,1-2.2,2.2C122.2,86.6,123.2,87.6,124.4,87.6z"/>
	</g>
	<g>
		<path class="st0" d="M129,87.3c1.1,0,1.9-0.9,1.9-1.9s-0.9-1.9-1.9-1.9c-1.1,0-1.9,0.9-1.9,1.9C127,86.5,127.9,87.3,129,87.3z"/>
	</g>
	<g>
		<path class="st0" d="M133.6,87c0.9,0,1.6-0.7,1.6-1.6s-0.7-1.6-1.6-1.6c-0.9,0-1.6,0.7-1.6,1.6C131.9,86.3,132.7,87,133.6,87z"/>
	</g>
	<g>
		<path class="st0" d="M138.2,86.7c0.7,0,1.3-0.6,1.3-1.3c0-0.7-0.6-1.3-1.3-1.3s-1.3,0.6-1.3,1.3S137.4,86.7,138.2,86.7z"/>
	</g>
	<g>
		<path class="st0" d="M142.8,86.3c0.5,0,0.9-0.4,0.9-0.9s-0.4-0.9-0.9-0.9s-1,0.4-1,0.9S142.3,86.3,142.8,86.3z"/>
	</g>
	<g>
		<path class="st0" d="M147.4,85.9c0.3,0,0.6-0.2,0.6-0.6c0-0.3-0.2-0.6-0.6-0.6c-0.3,0-0.6,0.3-0.6,0.6
			C146.8,85.7,147.1,85.9,147.4,85.9z"/>
	</g>
	<g>
		<path class="st0" d="M27.7,90.3c0.2,0,0.3-0.1,0.3-0.3c0-0.2-0.1-0.3-0.3-0.3c-0.2,0-0.3,0.1-0.3,0.3
			C27.4,90.2,27.5,90.3,27.7,90.3z"/>
	</g>
	<g>
		<path class="st0" d="M32.3,90.7c0.4,0,0.7-0.3,0.7-0.7c0-0.4-0.3-0.7-0.7-0.7c-0.4,0-0.7,0.3-0.7,0.7
			C31.6,90.4,31.9,90.7,32.3,90.7z"/>
	</g>
	<g>
		<path class="st0" d="M36.9,91.1c0.6,0,1.1-0.5,1.1-1.1s-0.5-1.1-1.1-1.1s-1.1,0.5-1.1,1.1C35.8,90.6,36.3,91.1,36.9,91.1z"/>
	</g>
	<g>
		<path class="st0" d="M41.5,91.4c0.8,0,1.4-0.6,1.4-1.4s-0.6-1.4-1.4-1.4c-0.8,0-1.4,0.6-1.4,1.4S40.7,91.4,41.5,91.4z"/>
	</g>
	<g>
		<path class="st0" d="M46.1,91.7c1,0,1.7-0.8,1.7-1.7c0-1-0.8-1.7-1.7-1.7s-1.7,0.8-1.7,1.7C44.4,90.9,45.2,91.7,46.1,91.7z"/>
	</g>
	<g>
		<path class="st0" d="M50.7,92c1.1,0,2-0.9,2-2s-0.9-2-2-2s-2,0.9-2,2S49.6,92,50.7,92z"/>
	</g>
	<g>
		<path class="st0" d="M55.3,92.2c1.2,0,2.2-1,2.2-2.2c0-1.3-1-2.3-2.2-2.3s-2.2,1-2.2,2.3C53.1,91.2,54.1,92.2,55.3,92.2z"/>
	</g>
	<g>
		<path class="st0" d="M59.9,92.5c1.4,0,2.5-1.1,2.5-2.5s-1.1-2.5-2.5-2.5s-2.5,1.1-2.5,2.5C57.5,91.3,58.6,92.5,59.9,92.5z"/>
	</g>
	<g>
		<path class="st0" d="M64.5,92.6c1.5,0,2.6-1.2,2.6-2.6c0-1.5-1.2-2.7-2.6-2.7s-2.6,1.2-2.6,2.7C61.9,91.4,63.1,92.6,64.5,92.6z"/>
	</g>
	<g>
		<path class="st0" d="M69.1,92.7c1.5,0,2.8-1.2,2.8-2.7s-1.2-2.8-2.8-2.8c-1.5,0-2.8,1.2-2.8,2.8C66.4,91.5,67.6,92.7,69.1,92.7z"
			/>
	</g>
	<g>
		<path class="st0" d="M73.7,92.9c1.6,0,2.9-1.3,2.9-2.9s-1.3-2.9-2.9-2.9s-2.9,1.2-2.9,2.9C70.9,91.6,72.1,92.9,73.7,92.9z"/>
	</g>
	<g>
		<path class="st0" d="M78.3,92.9c1.6,0,2.9-1.3,2.9-2.9s-1.3-3-2.9-3s-2.9,1.3-2.9,3C75.4,91.6,76.7,92.9,78.3,92.9z"/>
	</g>
	<g>
		<path class="st0" d="M82.9,93c1.6,0,3-1.3,3-3c0-1.6-1.3-3-3-3c-1.6,0-3,1.3-3,3C80,91.6,81.3,93,82.9,93z"/>
	</g>
	<g>
		<path class="st0" d="M87.5,93c1.7,0,3-1.3,3-3s-1.3-3-3-3s-3,1.3-3,3S85.9,93,87.5,93z"/>
	</g>
	<g>
		<path class="st0" d="M92.1,93c1.6,0,3-1.3,3-3c0-1.6-1.3-3-3-3s-3,1.4-3,3C89.2,91.7,90.5,93,92.1,93z"/>
	</g>
	<g>
		<path class="st0" d="M96.7,92.9c1.6,0,3-1.3,3-2.9s-1.3-3-3-3c-1.6,0-3,1.3-3,3C93.8,91.6,95.1,92.9,96.7,92.9z"/>
	</g>
	<g>
		<path class="st0" d="M101.3,92.9c1.6,0,2.9-1.3,2.9-2.9s-1.3-2.9-2.9-2.9s-2.9,1.3-2.9,2.9C98.5,91.6,99.7,92.9,101.3,92.9z"/>
	</g>
	<g>
		<path class="st0" d="M105.9,92.8c1.6,0,2.8-1.3,2.8-2.8c0-1.6-1.3-2.8-2.8-2.8s-2.8,1.3-2.8,2.8C103.1,91.6,104.4,92.8,105.9,92.8
			z"/>
	</g>
	<g>
		<path class="st0" d="M110.6,92.7c1.5,0,2.7-1.2,2.7-2.7s-1.2-2.7-2.7-2.7s-2.7,1.2-2.7,2.7S109.1,92.7,110.6,92.7z"/>
	</g>
	<g>
		<path class="st0" d="M115.2,92.5c1.4,0,2.5-1.1,2.5-2.5s-1.1-2.5-2.5-2.5s-2.5,1.1-2.5,2.5C112.6,91.4,113.8,92.5,115.2,92.5z"/>
	</g>
	<g>
		<path class="st0" d="M119.8,92.3c1.3,0,2.3-1,2.3-2.3s-1-2.4-2.3-2.4s-2.3,1.1-2.3,2.4C117.4,91.3,118.5,92.3,119.8,92.3z"/>
	</g>
	<g>
		<path class="st0" d="M124.4,92.1c1.2,0,2.1-0.9,2.1-2.1s-0.9-2.1-2.1-2.1s-2.1,1-2.1,2.1S123.2,92.1,124.4,92.1z"/>
	</g>
	<g>
		<path class="st0" d="M129,91.9c1,0,1.8-0.8,1.8-1.8s-0.8-1.8-1.8-1.8s-1.8,0.8-1.8,1.8C127.1,91,128,91.9,129,91.9z"/>
	</g>
	<g>
		<path class="st0" d="M133.6,91.6c0.9,0,1.6-0.7,1.6-1.5c0-0.9-0.7-1.6-1.6-1.6c-0.9,0-1.6,0.7-1.6,1.6
			C132,90.8,132.7,91.6,133.6,91.6z"/>
	</g>
	<g>
		<path class="st0" d="M138.2,91.2c0.7,0,1.2-0.5,1.2-1.2s-0.5-1.3-1.2-1.3S137,89.3,137,90C136.9,90.7,137.5,91.2,138.2,91.2z"/>
	</g>
	<g>
		<path class="st0" d="M142.8,90.9c0.5,0,0.9-0.4,0.9-0.9s-0.4-0.9-0.9-0.9s-0.9,0.4-0.9,0.9C141.9,90.5,142.3,90.9,142.8,90.9z"/>
	</g>
	<g>
		<path class="st0" d="M147.4,90.5c0.3,0,0.5-0.2,0.5-0.5s-0.2-0.5-0.5-0.5s-0.5,0.2-0.5,0.5C146.9,90.2,147.1,90.5,147.4,90.5z"/>
	</g>
	<g>
		<path class="st0" d="M27.7,94.8c0.1,0,0.2-0.1,0.2-0.2s-0.1-0.2-0.2-0.2s-0.2,0.1-0.2,0.2C27.5,94.7,27.6,94.8,27.7,94.8z"/>
	</g>
	<g>
		<path class="st0" d="M32.3,95.2c0.3,0,0.6-0.3,0.6-0.6c0-0.3-0.3-0.6-0.6-0.6s-0.6,0.3-0.6,0.6C31.7,94.9,32,95.2,32.3,95.2z"/>
	</g>
	<g>
		<path class="st0" d="M36.9,95.6c0.5,0,1-0.4,1-1s-0.4-1-1-1c-0.5,0-1,0.4-1,1C35.9,95.1,36.4,95.6,36.9,95.6z"/>
	</g>
	<g>
		<path class="st0" d="M41.5,95.9c0.7,0,1.3-0.6,1.3-1.3c0-0.7-0.6-1.3-1.3-1.3s-1.3,0.6-1.3,1.3S40.8,95.9,41.5,95.9z"/>
	</g>
	<g>
		<path class="st0" d="M46.1,96.2c0.9,0,1.6-0.7,1.6-1.6S47,93,46.1,93c-0.9,0-1.6,0.7-1.6,1.6S45.2,96.2,46.1,96.2z"/>
	</g>
	<g>
		<path class="st0" d="M50.7,96.5c1,0,1.9-0.8,1.9-1.9c0-1-0.8-1.9-1.9-1.9c-1,0-1.9,0.9-1.9,1.9C48.8,95.7,49.7,96.5,50.7,96.5z"/>
	</g>
	<g>
		<path class="st0" d="M55.3,96.7c1.2,0,2.1-1,2.1-2.1c0-1.2-1-2.1-2.1-2.1c-1.2,0-2.2,1-2.2,2.1C53.2,95.8,54.1,96.7,55.3,96.7z"/>
	</g>
	<g>
		<path class="st0" d="M59.9,96.9c1.3,0,2.4-1.1,2.4-2.4s-1.1-2.4-2.4-2.4c-1.3,0-2.3,1.1-2.3,2.4C57.6,95.9,58.6,96.9,59.9,96.9z"
			/>
	</g>
	<g>
		<path class="st0" d="M64.5,97.1c1.4,0,2.5-1.1,2.5-2.5s-1.1-2.5-2.5-2.5S62,93.2,62,94.6S63.1,97.1,64.5,97.1z"/>
	</g>
	<g>
		<path class="st0" d="M69.1,97.2c1.5,0,2.7-1.2,2.7-2.7s-1.2-2.7-2.7-2.7s-2.7,1.2-2.7,2.7C66.5,96.1,67.7,97.2,69.1,97.2z"/>
	</g>
	<g>
		<path class="st0" d="M73.7,97.4c1.5,0,2.8-1.2,2.8-2.8c0-1.5-1.2-2.8-2.8-2.8c-1.5,0-2.8,1.3-2.8,2.8C71,96.1,72.2,97.4,73.7,97.4
			z"/>
	</g>
	<g>
		<path class="st0" d="M78.3,97.4c1.6,0,2.8-1.3,2.8-2.9s-1.3-2.8-2.8-2.8c-1.6,0-2.9,1.3-2.9,2.8C75.5,96.2,76.8,97.4,78.3,97.4z"
			/>
	</g>
	<g>
		<path class="st0" d="M82.9,97.5c1.6,0,2.9-1.3,2.9-2.9s-1.3-2.9-2.9-2.9S80,93,80,94.6S81.3,97.5,82.9,97.5z"/>
	</g>
	<g>
		<path class="st0" d="M87.5,97.5c1.6,0,2.9-1.3,2.9-2.9s-1.3-2.9-2.9-2.9s-2.9,1.3-2.9,2.9S85.9,97.5,87.5,97.5z"/>
	</g>
	<g>
		<path class="st0" d="M92.1,97.5c1.6,0,2.9-1.3,2.9-2.9s-1.3-2.9-2.9-2.9s-2.9,1.3-2.9,2.9S90.5,97.5,92.1,97.5z"/>
	</g>
	<g>
		<path class="st0" d="M96.7,97.5c1.6,0,2.9-1.3,2.9-2.9s-1.3-2.9-2.9-2.9s-2.9,1.3-2.9,2.9C93.9,96.2,95.2,97.5,96.7,97.5z"/>
	</g>
	<g>
		<path class="st0" d="M101.3,97.4c1.6,0,2.8-1.3,2.8-2.8s-1.3-2.8-2.8-2.8s-2.8,1.3-2.8,2.8C98.6,96.2,99.8,97.4,101.3,97.4z"/>
	</g>
	<g>
		<path class="st0" d="M105.9,97.3c1.5,0,2.8-1.2,2.8-2.7s-1.2-2.7-2.8-2.7c-1.5,0-2.7,1.2-2.7,2.7
			C103.2,96.1,104.4,97.3,105.9,97.3z"/>
	</g>
	<g>
		<path class="st0" d="M110.6,97.2c1.4,0,2.6-1.2,2.6-2.6S112,92,110.6,92s-2.6,1.2-2.6,2.6S109.1,97.2,110.6,97.2z"/>
	</g>
	<g>
		<path class="st0" d="M115.2,97c1.3,0,2.4-1.1,2.4-2.4s-1.1-2.4-2.4-2.4s-2.5,1.1-2.5,2.4S113.8,97,115.2,97z"/>
	</g>
	<g>
		<path class="st0" d="M119.8,96.8c1.2,0,2.3-1,2.3-2.3c0-1.2-1-2.2-2.3-2.2c-1.2,0-2.3,1-2.3,2.2C117.5,95.8,118.5,96.8,119.8,96.8
			z"/>
	</g>
	<g>
		<path class="st0" d="M124.4,96.6c1.1,0,2-0.9,2-2s-0.9-2-2-2s-2,0.9-2,2S123.3,96.6,124.4,96.6z"/>
	</g>
	<g>
		<path class="st0" d="M129,96.4c1,0,1.7-0.8,1.7-1.8s-0.8-1.7-1.7-1.7c-1,0-1.7,0.8-1.7,1.7C127.2,95.6,128,96.4,129,96.4z"/>
	</g>
	<g>
		<path class="st0" d="M133.6,96.1c0.8,0,1.5-0.7,1.5-1.5s-0.7-1.5-1.5-1.5s-1.5,0.7-1.5,1.5S132.8,96.1,133.6,96.1z"/>
	</g>
	<g>
		<path class="st0" d="M138.2,95.7c0.6,0,1.1-0.5,1.1-1.1s-0.5-1.1-1.1-1.1s-1.1,0.5-1.1,1.1C137,95.2,137.5,95.7,138.2,95.7z"/>
	</g>
	<g>
		<path class="st0" d="M142.8,95.4c0.4,0,0.8-0.4,0.8-0.8s-0.3-0.8-0.8-0.8s-0.8,0.4-0.8,0.8S142.3,95.4,142.8,95.4z"/>
	</g>
	<g>
		<path class="st0" d="M147.4,95c0.2,0,0.4-0.2,0.4-0.4c0-0.2-0.2-0.4-0.4-0.4s-0.4,0.2-0.4,0.4S147.2,95,147.4,95z"/>
	</g>
	<g>
		<path class="st0" d="M27.7,99.3C27.7,99.3,27.8,99.2,27.7,99.3c0.1-0.1,0-0.2,0-0.2C27.6,99.1,27.6,99.1,27.7,99.3
			C27.6,99.2,27.6,99.3,27.7,99.3z"/>
	</g>
	<g>
		<path class="st0" d="M32.3,99.6c0.3,0,0.5-0.2,0.5-0.4c0-0.3-0.2-0.5-0.5-0.5s-0.5,0.2-0.5,0.5C31.8,99.4,32,99.6,32.3,99.6z"/>
	</g>
	<g>
		<path class="st0" d="M36.9,100c0.5,0,0.8-0.4,0.8-0.8c0-0.5-0.4-0.8-0.8-0.8c-0.4,0-0.8,0.3-0.8,0.8C36.1,99.6,36.5,100,36.9,100z
			"/>
	</g>
	<g>
		<path class="st0" d="M41.5,100.4c0.6,0,1.2-0.5,1.2-1.2S42.2,98,41.5,98c-0.6,0-1.2,0.5-1.2,1.2C40.3,99.8,40.9,100.4,41.5,100.4z
			"/>
	</g>
	<g>
		<path class="st0" d="M46.1,100.7c0.8,0,1.5-0.6,1.5-1.5c0-0.8-0.7-1.5-1.5-1.5s-1.5,0.7-1.5,1.5S45.3,100.7,46.1,100.7z"/>
	</g>
	<g>
		<path class="st0" d="M50.7,101c1,0,1.8-0.8,1.8-1.7c0-1-0.8-1.8-1.8-1.8s-1.8,0.8-1.8,1.8C48.9,100.2,49.7,101,50.7,101z"/>
	</g>
	<g>
		<path class="st0" d="M55.3,101.2c1.1,0,2-0.9,2-2s-0.9-2-2-2s-2,0.9-2,2C53.3,100.3,54.2,101.2,55.3,101.2z"/>
	</g>
	<g>
		<path class="st0" d="M59.9,101.4c1.2,0,2.2-1,2.2-2.2s-1-2.2-2.2-2.2s-2.2,1-2.2,2.2S58.7,101.4,59.9,101.4z"/>
	</g>
	<g>
		<path class="st0" d="M64.5,101.6c1.3,0,2.4-1.1,2.4-2.4s-1.1-2.4-2.4-2.4c-1.3,0-2.4,1.1-2.4,2.4S63.2,101.6,64.5,101.6z"/>
	</g>
	<g>
		<path class="st0" d="M69.1,101.7c1.4,0,2.5-1.1,2.5-2.5s-1.1-2.5-2.5-2.5s-2.6,1.1-2.6,2.5C66.6,100.6,67.7,101.7,69.1,101.7z"/>
	</g>
	<g>
		<path class="st0" d="M73.7,101.8c1.5,0,2.7-1.2,2.7-2.6c0-1.5-1.2-2.7-2.7-2.7S71,97.7,71,99.2C71.1,100.6,72.3,101.8,73.7,101.8z
			"/>
	</g>
	<g>
		<path class="st0" d="M78.3,101.9c1.5,0,2.7-1.3,2.7-2.7c0-1.5-1.2-2.7-2.7-2.7s-2.7,1.2-2.7,2.7C75.6,100.7,76.8,101.9,78.3,101.9
			z"/>
	</g>
	<g>
		<path class="st0" d="M82.9,102c1.5,0,2.8-1.3,2.8-2.8c0-1.6-1.2-2.8-2.8-2.8c-1.6,0-2.8,1.2-2.8,2.8C80.1,100.7,81.4,102,82.9,102
			z"/>
	</g>
	<g>
		<path class="st0" d="M87.5,102c1.6,0,2.8-1.2,2.8-2.8c0-1.6-1.3-2.8-2.8-2.8c-1.6,0-2.8,1.2-2.8,2.8C84.7,100.7,86,102,87.5,102z"
			/>
	</g>
	<g>
		<path class="st0" d="M92.1,102c1.5,0,2.8-1.3,2.8-2.8c0-1.6-1.2-2.8-2.8-2.8c-1.5,0-2.8,1.2-2.8,2.8C89.3,100.7,90.6,102,92.1,102
			z"/>
	</g>
	<g>
		<path class="st0" d="M96.7,101.9c1.5,0,2.8-1.2,2.8-2.7s-1.2-2.8-2.8-2.8c-1.5,0-2.7,1.3-2.7,2.8C94,100.7,95.2,101.9,96.7,101.9z
			"/>
	</g>
	<g>
		<path class="st0" d="M101.3,101.9c1.5,0,2.7-1.2,2.7-2.7s-1.2-2.7-2.7-2.7s-2.7,1.2-2.7,2.7C98.7,100.7,99.9,101.9,101.3,101.9z"
			/>
	</g>
	<g>
		<path class="st0" d="M105.9,101.8c1.4,0,2.6-1.2,2.6-2.6c0-1.5-1.2-2.6-2.6-2.6s-2.6,1.1-2.6,2.6
			C103.4,100.6,104.5,101.8,105.9,101.8z"/>
	</g>
	<g>
		<path class="st0" d="M110.6,101.6c1.4,0,2.5-1.1,2.5-2.4c0-1.4-1.1-2.5-2.5-2.5s-2.5,1.1-2.5,2.5
			C108.1,100.5,109.2,101.6,110.6,101.6z"/>
	</g>
	<g>
		<path class="st0" d="M115.2,101.5c1.3,0,2.3-1,2.3-2.3s-1-2.3-2.3-2.3s-2.3,1-2.3,2.3C112.8,100.5,113.9,101.5,115.2,101.5z"/>
	</g>
	<g>
		<path class="st0" d="M119.8,101.3c1.2,0,2.1-1,2.1-2.1c0-1.2-1-2.1-2.1-2.1c-1.2,0-2.1,0.9-2.1,2.1
			C117.6,100.3,118.6,101.3,119.8,101.3z"/>
	</g>
	<g>
		<path class="st0" d="M124.4,101.1c1,0,1.9-0.9,1.9-1.9s-0.8-1.9-1.9-1.9c-1,0-1.9,0.8-1.9,1.9
			C122.5,100.2,123.3,101.1,124.4,101.1z"/>
	</g>
	<g>
		<path class="st0" d="M129,100.8c0.9,0,1.6-0.8,1.6-1.6c0-0.9-0.7-1.6-1.6-1.6c-0.9,0-1.6,0.7-1.6,1.6
			C127.4,100.1,128.1,100.8,129,100.8z"/>
	</g>
	<g>
		<path class="st0" d="M133.6,100.5c0.7,0,1.3-0.6,1.3-1.3c0-0.7-0.6-1.3-1.3-1.3s-1.3,0.6-1.3,1.3S132.8,100.5,133.6,100.5z"/>
	</g>
	<g>
		<path class="st0" d="M138.2,100.2c0.5,0,1-0.4,1-1s-0.5-1-1-1s-1,0.4-1,1C137.2,99.7,137.6,100.2,138.2,100.2z"/>
	</g>
	<g>
		<path class="st0" d="M142.8,99.8c0.3,0,0.6-0.3,0.6-0.6c0-0.4-0.3-0.6-0.6-0.6c-0.4,0-0.7,0.3-0.7,0.6
			C142.1,99.6,142.4,99.8,142.8,99.8z"/>
	</g>
	<g>
		<path class="st0" d="M147.4,99.4c0.2,0,0.3-0.1,0.3-0.2c0-0.2-0.1-0.3-0.3-0.3c-0.1,0-0.3,0.1-0.3,0.3
			C147.1,99.3,147.2,99.4,147.4,99.4z"/>
	</g>
	<g>
		<path class="st0" d="M32.3,104.1c0.2,0,0.3-0.1,0.3-0.3c0-0.2-0.1-0.3-0.3-0.3s-0.3,0.1-0.3,0.3S32.1,104.1,32.3,104.1z"/>
	</g>
	<g>
		<path class="st0" d="M36.9,104.5c0.4,0,0.7-0.3,0.7-0.7c0-0.3-0.3-0.7-0.7-0.7s-0.7,0.3-0.7,0.7S36.5,104.5,36.9,104.5z"/>
	</g>
	<g>
		<path class="st0" d="M41.5,104.8c0.6,0,1-0.4,1-1c0-0.5-0.4-1-1-1s-1,0.4-1,1S41,104.8,41.5,104.8z"/>
	</g>
	<g>
		<path class="st0" d="M46.1,105.1c0.7,0,1.3-0.6,1.3-1.3c0-0.7-0.6-1.3-1.3-1.3s-1.3,0.6-1.3,1.3S45.4,105.1,46.1,105.1z"/>
	</g>
	<g>
		<path class="st0" d="M50.7,105.4c0.9,0,1.6-0.7,1.6-1.6s-0.7-1.6-1.6-1.6c-0.9,0-1.6,0.7-1.6,1.6
			C49.1,104.7,49.8,105.4,50.7,105.4z"/>
	</g>
	<g>
		<path class="st0" d="M55.3,105.6c1,0,1.8-0.8,1.8-1.8s-0.8-1.8-1.8-1.8s-1.8,0.8-1.8,1.8C53.5,104.8,54.3,105.6,55.3,105.6z"/>
	</g>
	<g>
		<path class="st0" d="M59.9,105.9c1.1,0,2.1-0.9,2.1-2.1c0-1.1-0.9-2-2.1-2c-1.1,0-2.1,0.9-2.1,2C57.9,104.9,58.8,105.9,59.9,105.9
			z"/>
	</g>
	<g>
		<path class="st0" d="M64.5,106c1.3,0,2.3-1,2.3-2.3c0-1.2-1-2.2-2.3-2.2c-1.2,0-2.2,1-2.2,2.2C62.3,105,63.3,106,64.5,106z"/>
	</g>
	<g>
		<path class="st0" d="M69.1,106.2c1.3,0,2.4-1.1,2.4-2.4s-1.1-2.4-2.4-2.4s-2.4,1.1-2.4,2.4S67.8,106.2,69.1,106.2z"/>
	</g>
	<g>
		<path class="st0" d="M73.7,106.3c1.4,0,2.5-1.1,2.5-2.5c0-1.3-1.1-2.5-2.5-2.5s-2.5,1.1-2.5,2.5C71.2,105.2,72.3,106.3,73.7,106.3
			z"/>
	</g>
	<g>
		<path class="st0" d="M78.3,106.4c1.4,0,2.6-1.1,2.6-2.6c0-1.4-1.2-2.5-2.6-2.5s-2.6,1.1-2.6,2.5C75.8,105.2,76.9,106.4,78.3,106.4
			z"/>
	</g>
	<g>
		<path class="st0" d="M82.9,106.4c1.5,0,2.6-1.2,2.6-2.6s-1.2-2.6-2.6-2.6c-1.5,0-2.6,1.2-2.6,2.6
			C80.3,105.2,81.5,106.4,82.9,106.4z"/>
	</g>
	<g>
		<path class="st0" d="M87.5,106.4c1.5,0,2.7-1.2,2.7-2.7c0-1.4-1.2-2.6-2.7-2.6s-2.7,1.2-2.7,2.6C84.9,105.3,86.1,106.4,87.5,106.4
			z"/>
	</g>
	<g>
		<path class="st0" d="M92.1,106.4c1.5,0,2.6-1.2,2.6-2.7c0-1.4-1.2-2.6-2.6-2.6c-1.5,0-2.6,1.2-2.6,2.6
			C89.5,105.2,90.7,106.4,92.1,106.4z"/>
	</g>
	<g>
		<path class="st0" d="M96.7,106.4c1.4,0,2.6-1.2,2.6-2.6s-1.2-2.6-2.6-2.6s-2.6,1.1-2.6,2.6C94.1,105.2,95.3,106.4,96.7,106.4z"/>
	</g>
	<g>
		<path class="st0" d="M101.3,106.3c1.4,0,2.6-1.1,2.6-2.6c0-1.4-1.1-2.5-2.6-2.5c-1.4,0-2.5,1.1-2.5,2.5
			C98.8,105.2,99.9,106.3,101.3,106.3z"/>
	</g>
	<g>
		<path class="st0" d="M105.9,106.2c1.4,0,2.5-1.1,2.5-2.5c0-1.3-1.1-2.4-2.5-2.4c-1.3,0-2.4,1.1-2.4,2.4
			C103.5,105.1,104.6,106.2,105.9,106.2z"/>
	</g>
	<g>
		<path class="st0" d="M110.6,106.1c1.3,0,2.3-1,2.3-2.3c0-1.2-1-2.3-2.3-2.3s-2.3,1.1-2.3,2.3C108.2,105.1,109.3,106.1,110.6,106.1
			z"/>
	</g>
	<g>
		<path class="st0" d="M115.2,105.9c1.2,0,2.1-1,2.1-2.1c0-1.2-1-2.1-2.1-2.1c-1.2,0-2.1,1-2.1,2.1C113,105,114,105.9,115.2,105.9z"
			/>
	</g>
	<g>
		<path class="st0" d="M119.8,105.7c1.1,0,1.9-0.8,1.9-1.9s-0.9-1.9-1.9-1.9c-1.1,0-1.9,0.9-1.9,1.9
			C117.8,104.9,118.7,105.7,119.8,105.7z"/>
	</g>
	<g>
		<path class="st0" d="M124.4,105.5c0.9,0,1.7-0.8,1.7-1.7c0-0.9-0.8-1.7-1.7-1.7c-0.9,0-1.7,0.8-1.7,1.7
			C122.7,104.7,123.4,105.5,124.4,105.5z"/>
	</g>
	<g>
		<path class="st0" d="M129,105.2c0.8,0,1.4-0.6,1.4-1.5c0-0.8-0.7-1.4-1.4-1.4c-0.8,0-1.4,0.7-1.4,1.4
			C127.5,104.6,128.2,105.2,129,105.2z"/>
	</g>
	<g>
		<path class="st0" d="M133.6,104.9c0.6,0,1.1-0.5,1.1-1.2c0-0.6-0.5-1.1-1.1-1.1s-1.2,0.5-1.2,1.1
			C132.4,104.4,132.9,104.9,133.6,104.9z"/>
	</g>
	<g>
		<path class="st0" d="M138.2,104.6c0.5,0,0.8-0.4,0.8-0.8s-0.4-0.8-0.8-0.8c-0.4,0-0.8,0.4-0.8,0.8
			C137.3,104.2,137.7,104.6,138.2,104.6z"/>
	</g>
	<g>
		<path class="st0" d="M142.8,104.2c0.2,0,0.5-0.2,0.5-0.5c0-0.2-0.2-0.4-0.5-0.4s-0.5,0.2-0.5,0.4
			C142.3,104.1,142.5,104.2,142.8,104.2z"/>
	</g>
	<g>
		<path class="st0" d="M147.4,103.9c0.1,0,0.1,0,0.1-0.1c0,0,0-0.1-0.1-0.1s-0.1,0-0.1,0.1C147.3,103.9,147.3,103.9,147.4,103.9z"/>
	</g>
	<g>
		<path class="st0" d="M32.3,108.5C32.4,108.5,32.4,108.4,32.3,108.5c0.1-0.2,0-0.2,0-0.2C32.2,108.3,32.2,108.4,32.3,108.5
			C32.2,108.5,32.2,108.5,32.3,108.5z"/>
	</g>
	<g>
		<path class="st0" d="M36.9,108.9c0.3,0,0.5-0.2,0.5-0.5s-0.2-0.5-0.5-0.5s-0.5,0.2-0.5,0.5C36.4,108.6,36.6,108.9,36.9,108.9z"/>
	</g>
	<g>
		<path class="st0" d="M41.5,109.2c0.4,0,0.8-0.4,0.8-0.8s-0.4-0.8-0.8-0.8c-0.4,0-0.8,0.4-0.8,0.8
			C40.7,108.8,41.1,109.2,41.5,109.2z"/>
	</g>
	<g>
		<path class="st0" d="M46.1,109.5c0.6,0,1.1-0.5,1.1-1.1s-0.5-1.1-1.1-1.1s-1.1,0.5-1.1,1.1S45.5,109.5,46.1,109.5z"/>
	</g>
	<g>
		<path class="st0" d="M50.7,109.8c0.8,0,1.4-0.7,1.4-1.4c0-0.8-0.6-1.4-1.4-1.4c-0.8,0-1.4,0.6-1.4,1.4
			C49.3,109.1,49.9,109.8,50.7,109.8z"/>
	</g>
	<g>
		<path class="st0" d="M55.3,110c0.9,0,1.6-0.7,1.6-1.6s-0.7-1.6-1.6-1.6c-0.9,0-1.6,0.7-1.6,1.6S54.4,110,55.3,110z"/>
	</g>
	<g>
		<path class="st0" d="M59.9,110.2c1,0,1.8-0.8,1.8-1.8s-0.8-1.8-1.8-1.8s-1.8,0.8-1.8,1.8C58.1,109.4,58.9,110.2,59.9,110.2z"/>
	</g>
	<g>
		<path class="st0" d="M64.5,110.4c1.1,0,2-0.9,2-2s-0.9-2-2-2s-2,0.9-2,2S63.4,110.4,64.5,110.4z"/>
	</g>
	<g>
		<path class="st0" d="M69.1,110.6c1.2,0,2.2-1,2.2-2.2s-1-2.2-2.2-2.2s-2.2,1-2.2,2.2S67.9,110.6,69.1,110.6z"/>
	</g>
	<g>
		<path class="st0" d="M73.7,110.7c1.3,0,2.3-1.1,2.3-2.3c0-1.3-1-2.3-2.3-2.3s-2.3,1-2.3,2.3C71.4,109.7,72.5,110.7,73.7,110.7z"/>
	</g>
	<g>
		<path class="st0" d="M78.3,110.8c1.3,0,2.4-1.1,2.4-2.4s-1.1-2.4-2.4-2.4s-2.4,1.1-2.4,2.4C76,109.7,77,110.8,78.3,110.8z"/>
	</g>
	<g>
		<path class="st0" d="M82.9,110.8c1.3,0,2.4-1.1,2.4-2.4c0-1.4-1.1-2.4-2.4-2.4c-1.4,0-2.5,1.1-2.5,2.4
			C80.5,109.7,81.6,110.8,82.9,110.8z"/>
	</g>
	<g>
		<path class="st0" d="M87.5,110.9c1.4,0,2.5-1.1,2.5-2.5s-1.1-2.5-2.5-2.5S85,107,85,108.4C85.1,109.8,86.2,110.9,87.5,110.9z"/>
	</g>
	<g>
		<path class="st0" d="M92.1,110.8c1.4,0,2.5-1.1,2.5-2.4c0-1.4-1.1-2.5-2.5-2.5c-1.3,0-2.5,1.1-2.5,2.5
			C89.7,109.8,90.8,110.8,92.1,110.8z"/>
	</g>
	<g>
		<path class="st0" d="M96.7,110.8c1.3,0,2.4-1.1,2.4-2.4S98,106,96.7,106s-2.4,1.1-2.4,2.4C94.3,109.7,95.4,110.8,96.7,110.8z"/>
	</g>
	<g>
		<path class="st0" d="M101.3,110.7c1.3,0,2.4-1,2.4-2.3s-1-2.3-2.4-2.3c-1.3,0-2.3,1-2.3,2.3S100.1,110.7,101.3,110.7z"/>
	</g>
	<g>
		<path class="st0" d="M105.9,110.6c1.2,0,2.2-1,2.2-2.2c0-1.3-1-2.3-2.2-2.3s-2.2,1-2.2,2.3C103.7,109.6,104.7,110.6,105.9,110.6z"
			/>
	</g>
	<g>
		<path class="st0" d="M110.6,110.5c1.2,0,2.1-1,2.1-2.1c0-1.2-0.9-2.1-2.1-2.1s-2.1,0.9-2.1,2.1
			C108.4,109.5,109.4,110.5,110.6,110.5z"/>
	</g>
	<g>
		<path class="st0" d="M115.2,110.3c1.1,0,1.9-0.8,1.9-1.9s-0.9-2-1.9-2c-1.1,0-1.9,0.9-1.9,2C113.2,109.5,114.1,110.3,115.2,110.3z
			"/>
	</g>
	<g>
		<path class="st0" d="M119.8,110.1c1,0,1.7-0.8,1.7-1.7c0-1-0.8-1.8-1.7-1.8c-1,0-1.8,0.8-1.8,1.8
			C118,109.3,118.8,110.1,119.8,110.1z"/>
	</g>
	<g>
		<path class="st0" d="M124.4,109.9c0.8,0,1.5-0.7,1.5-1.5s-0.7-1.5-1.5-1.5s-1.5,0.7-1.5,1.5C122.8,109.2,123.5,109.9,124.4,109.9z
			"/>
	</g>
	<g>
		<path class="st0" d="M129,109.7c0.7,0,1.2-0.6,1.2-1.2c0-0.7-0.5-1.3-1.2-1.3s-1.3,0.5-1.3,1.3C127.7,109.1,128.3,109.7,129,109.7
			z"/>
	</g>
	<g>
		<path class="st0" d="M133.6,109.3c0.5,0,0.9-0.4,0.9-0.9s-0.4-1-0.9-1s-1,0.4-1,1C132.6,108.9,133,109.3,133.6,109.3z"/>
	</g>
	<g>
		<path class="st0" d="M138.2,109c0.4,0,0.6-0.3,0.6-0.6c0-0.4-0.3-0.6-0.6-0.6s-0.6,0.3-0.6,0.6C137.6,108.7,137.8,109,138.2,109z"
			/>
	</g>
	<g>
		<path class="st0" d="M142.8,108.7c0.1,0,0.3-0.1,0.3-0.3c0-0.2-0.1-0.3-0.3-0.3s-0.3,0.1-0.3,0.3S142.6,108.7,142.8,108.7z"/>
	</g>
	<g>
		<path class="st0" d="M36.9,113.2c0.1,0,0.2-0.1,0.2-0.2c0-0.2-0.1-0.3-0.2-0.3c-0.1,0-0.2,0.1-0.2,0.3
			C36.7,113.1,36.8,113.2,36.9,113.2z"/>
	</g>
	<g>
		<path class="st0" d="M41.5,113.6c0.3,0,0.6-0.3,0.6-0.5c0-0.3-0.2-0.6-0.6-0.6c-0.3,0-0.6,0.3-0.6,0.6
			C40.9,113.3,41.2,113.6,41.5,113.6z"/>
	</g>
	<g>
		<path class="st0" d="M46.1,113.9c0.5,0,0.9-0.4,0.9-0.9s-0.4-0.9-0.9-0.9s-0.9,0.4-0.9,0.9C45.2,113.5,45.6,113.9,46.1,113.9z"/>
	</g>
	<g>
		<path class="st0" d="M50.7,114.1c0.6,0,1.1-0.5,1.1-1.1c0-0.7-0.5-1.2-1.1-1.2s-1.2,0.5-1.2,1.2C49.6,113.6,50.1,114.1,50.7,114.1
			z"/>
	</g>
	<g>
		<path class="st0" d="M55.3,114.4c0.8,0,1.4-0.7,1.4-1.4c0-0.8-0.6-1.5-1.4-1.5c-0.8,0-1.4,0.6-1.4,1.5
			C53.9,113.8,54.5,114.4,55.3,114.4z"/>
	</g>
	<g>
		<path class="st0" d="M59.9,114.6c0.9,0,1.6-0.7,1.6-1.6s-0.7-1.6-1.6-1.6c-0.9,0-1.6,0.7-1.6,1.6C58.3,113.9,59,114.6,59.9,114.6z
			"/>
	</g>
	<g>
		<path class="st0" d="M64.5,114.8c1,0,1.8-0.8,1.8-1.8s-0.8-1.8-1.8-1.8s-1.8,0.8-1.8,1.8S63.5,114.8,64.5,114.8z"/>
	</g>
	<g>
		<path class="st0" d="M69.1,114.9c1.1,0,2-0.9,2-1.9c0-1.1-0.9-2-2-2s-1.9,0.9-1.9,2S68,114.9,69.1,114.9z"/>
	</g>
	<g>
		<path class="st0" d="M73.7,115c1.1,0,2.1-0.9,2.1-2c0-1.2-0.9-2.1-2.1-2.1s-2.1,0.9-2.1,2.1C71.7,114.1,72.6,115,73.7,115z"/>
	</g>
	<g>
		<path class="st0" d="M78.3,115.1c1.2,0,2.1-0.9,2.1-2.1s-1-2.2-2.1-2.2c-1.2,0-2.2,1-2.2,2.2C76.2,114.2,77.1,115.1,78.3,115.1z"
			/>
	</g>
	<g>
		<path class="st0" d="M82.9,115.2c1.2,0,2.2-1,2.2-2.2c0-1.3-1-2.2-2.2-2.2s-2.2,1-2.2,2.2C80.7,114.2,81.7,115.2,82.9,115.2z"/>
	</g>
	<g>
		<path class="st0" d="M87.5,115.3c1.2,0,2.3-1,2.3-2.2c0-1.3-1-2.3-2.3-2.3c-1.2,0-2.2,1-2.2,2.3C85.3,114.2,86.3,115.3,87.5,115.3
			z"/>
	</g>
	<g>
		<path class="st0" d="M92.1,115.2c1.2,0,2.2-1,2.2-2.2c0-1.3-1-2.2-2.2-2.2s-2.2,1-2.2,2.2S90.9,115.2,92.1,115.2z"/>
	</g>
	<g>
		<path class="st0" d="M96.7,115.2c1.2,0,2.2-1,2.2-2.1c0-1.2-1-2.2-2.2-2.2s-2.2,1-2.2,2.2C94.6,114.2,95.5,115.2,96.7,115.2z"/>
	</g>
	<g>
		<path class="st0" d="M101.3,115.1c1.2,0,2.1-0.9,2.1-2.1s-0.9-2.1-2.1-2.1s-2.1,0.9-2.1,2.1C99.2,114.1,100.2,115.1,101.3,115.1z"
			/>
	</g>
	<g>
		<path class="st0" d="M105.9,115c1.1,0,2-0.9,2-2s-0.9-2-2-2s-2,0.9-2,2S104.9,115,105.9,115z"/>
	</g>
	<g>
		<path class="st0" d="M110.6,114.9c1,0,1.9-0.8,1.9-1.8c0-1.1-0.8-1.9-1.9-1.9c-1,0-1.9,0.9-1.9,1.9
			C108.7,114,109.5,114.9,110.6,114.9z"/>
	</g>
	<g>
		<path class="st0" d="M115.2,114.7c0.9,0,1.7-0.8,1.7-1.7c0-1-0.8-1.7-1.7-1.7c-1,0-1.7,0.7-1.7,1.7
			C113.5,113.9,114.2,114.7,115.2,114.7z"/>
	</g>
	<g>
		<path class="st0" d="M119.8,114.5c0.8,0,1.5-0.7,1.5-1.5c0-0.9-0.7-1.5-1.5-1.5c-0.9,0-1.5,0.7-1.5,1.5
			C118.2,113.8,118.9,114.5,119.8,114.5z"/>
	</g>
	<g>
		<path class="st0" d="M124.4,114.3c0.7,0,1.3-0.6,1.3-1.3c0-0.7-0.6-1.3-1.3-1.3c-0.7,0-1.3,0.5-1.3,1.3
			C123.1,113.7,123.7,114.3,124.4,114.3z"/>
	</g>
	<g>
		<path class="st0" d="M129,114c0.6,0,1-0.5,1-1c0-0.6-0.5-1-1-1c-0.6,0-1,0.4-1,1C128,113.5,128.4,114,129,114z"/>
	</g>
	<g>
		<path class="st0" d="M133.6,113.7c0.4,0,0.7-0.3,0.7-0.7c0-0.4-0.3-0.8-0.7-0.8s-0.7,0.3-0.7,0.8
			C132.8,113.4,133.2,113.7,133.6,113.7z"/>
	</g>
	<g>
		<path class="st0" d="M138.2,113.4c0.2,0,0.4-0.2,0.4-0.4c0-0.2-0.2-0.4-0.4-0.4s-0.4,0.2-0.4,0.4
			C137.8,113.2,138,113.4,138.2,113.4z"/>
	</g>
	<g>
		<path class="st0" d="M142.8,113.1C142.8,113.1,142.9,113,142.8,113.1C142.9,113,142.8,113,142.8,113.1c-0.1-0.1-0.1-0.1-0.1,0
			C142.7,113,142.7,113.1,142.8,113.1z"/>
	</g>
	<g>
		<path class="st0" d="M41.5,117.9c0.2,0,0.3-0.1,0.3-0.3c0-0.2-0.1-0.3-0.3-0.3s-0.3,0.1-0.3,0.3S41.3,117.9,41.5,117.9z"/>
	</g>
	<g>
		<path class="st0" d="M46.1,118.2c0.4,0,0.6-0.3,0.6-0.6c0-0.3-0.3-0.6-0.6-0.6s-0.6,0.3-0.6,0.6C45.5,117.9,45.8,118.2,46.1,118.2
			z"/>
	</g>
	<g>
		<path class="st0" d="M50.7,118.5c0.5,0,0.9-0.4,0.9-0.9s-0.4-0.9-0.9-0.9s-0.9,0.4-0.9,0.9S50.2,118.5,50.7,118.5z"/>
	</g>
	<g>
		<path class="st0" d="M55.3,118.7c0.6,0,1.1-0.5,1.1-1.1s-0.5-1.1-1.1-1.1s-1.1,0.5-1.1,1.1S54.7,118.7,55.3,118.7z"/>
	</g>
	<g>
		<path class="st0" d="M59.9,118.9c0.7,0,1.4-0.6,1.4-1.4c0-0.7-0.6-1.4-1.4-1.4c-0.7,0-1.4,0.6-1.4,1.4
			C58.6,118.3,59.2,118.9,59.9,118.9z"/>
	</g>
	<g>
		<path class="st0" d="M64.5,119.1c0.9,0,1.5-0.7,1.5-1.5s-0.7-1.5-1.5-1.5c-0.8,0-1.5,0.7-1.5,1.5C63,118.5,63.7,119.1,64.5,119.1z
			"/>
	</g>
	<g>
		<path class="st0" d="M69.1,119.3c0.9,0,1.7-0.8,1.7-1.7c0-0.9-0.8-1.7-1.7-1.7c-0.9,0-1.7,0.8-1.7,1.7S68.2,119.3,69.1,119.3z"/>
	</g>
	<g>
		<path class="st0" d="M73.7,119.4c1,0,1.8-0.8,1.8-1.8s-0.8-1.8-1.8-1.8s-1.8,0.8-1.8,1.8C71.9,118.6,72.7,119.4,73.7,119.4z"/>
	</g>
	<g>
		<path class="st0" d="M78.3,119.5c1,0,1.9-0.8,1.9-1.9s-0.8-1.9-1.9-1.9c-1,0-1.9,0.8-1.9,1.9S77.3,119.5,78.3,119.5z"/>
	</g>
	<g>
		<path class="st0" d="M82.9,119.6c1.1,0,1.9-0.9,1.9-2s-0.9-1.9-1.9-1.9c-1.1,0-1.9,0.9-1.9,1.9C81,118.7,81.9,119.6,82.9,119.6z"
			/>
	</g>
	<g>
		<path class="st0" d="M87.5,119.6c1.1,0,2-0.9,2-2s-0.9-1.9-2-1.9s-2,0.9-2,1.9C85.6,118.7,86.5,119.6,87.5,119.6z"/>
	</g>
	<g>
		<path class="st0" d="M92.1,119.6c1.1,0,1.9-0.9,1.9-2s-0.9-1.9-1.9-1.9c-1.1,0-1.9,0.9-1.9,1.9C90.2,118.7,91.1,119.6,92.1,119.6z
			"/>
	</g>
	<g>
		<path class="st0" d="M96.7,119.5c1.1,0,1.9-0.9,1.9-1.9c0-1.1-0.9-1.9-1.9-1.9s-1.9,0.9-1.9,1.9C94.8,118.7,95.7,119.5,96.7,119.5
			z"/>
	</g>
	<g>
		<path class="st0" d="M101.3,119.4c1,0,1.8-0.8,1.8-1.8s-0.8-1.8-1.8-1.8s-1.8,0.8-1.8,1.8S100.3,119.4,101.3,119.4z"/>
	</g>
	<g>
		<path class="st0" d="M105.9,119.3c1,0,1.7-0.8,1.7-1.7c0-1-0.8-1.8-1.7-1.8c-1,0-1.7,0.8-1.7,1.8
			C104.2,118.6,105,119.3,105.9,119.3z"/>
	</g>
	<g>
		<path class="st0" d="M110.6,119.2c0.9,0,1.6-0.7,1.6-1.6s-0.7-1.6-1.6-1.6s-1.6,0.7-1.6,1.6C108.9,118.5,109.7,119.2,110.6,119.2z
			"/>
	</g>
	<g>
		<path class="st0" d="M115.2,119c0.8,0,1.4-0.7,1.4-1.5s-0.6-1.4-1.4-1.4s-1.4,0.7-1.4,1.4C113.7,118.4,114.4,119,115.2,119z"/>
	</g>
	<g>
		<path class="st0" d="M119.8,118.8c0.7,0,1.2-0.6,1.2-1.3c0-0.7-0.6-1.2-1.2-1.2c-0.7,0-1.3,0.6-1.3,1.2
			C118.5,118.3,119.1,118.8,119.8,118.8z"/>
	</g>
	<g>
		<path class="st0" d="M124.4,118.6c0.6,0,1-0.5,1-1c0-0.6-0.5-1-1-1c-0.6,0-1,0.5-1,1S123.8,118.6,124.4,118.6z"/>
	</g>
	<g>
		<path class="st0" d="M129,118.3c0.4,0,0.8-0.3,0.8-0.8c0-0.4-0.3-0.7-0.8-0.7c-0.4,0-0.8,0.3-0.8,0.7
			C128.2,118,128.5,118.3,129,118.3z"/>
	</g>
	<g>
		<path class="st0" d="M133.6,118.1c0.3,0,0.5-0.2,0.5-0.5s-0.2-0.5-0.5-0.5c-0.2,0-0.5,0.2-0.5,0.5S133.3,118.1,133.6,118.1z"/>
	</g>
	<g>
		<path class="st0" d="M138.2,117.8c0.1,0,0.1-0.1,0.1-0.2s0-0.2-0.1-0.2s-0.1,0.1-0.1,0.2C138,117.7,138.1,117.8,138.2,117.8z"/>
	</g>
	<g>
		<path class="st0" d="M41.5,122.2L41.5,122.2L41.5,122.2L41.5,122.2L41.5,122.2z"/>
	</g>
	<g>
		<path class="st0" d="M46.1,122.5c0.2,0,0.3-0.2,0.3-0.3c0-0.2-0.1-0.3-0.3-0.3s-0.3,0.1-0.3,0.3S45.9,122.5,46.1,122.5z"/>
	</g>
	<g>
		<path class="st0" d="M50.7,122.8c0.3,0,0.6-0.3,0.6-0.6c0-0.3-0.3-0.6-0.6-0.6s-0.6,0.3-0.6,0.6C50.1,122.5,50.4,122.8,50.7,122.8
			z"/>
	</g>
	<g>
		<path class="st0" d="M55.3,123c0.5,0,0.9-0.4,0.9-0.9s-0.4-0.8-0.9-0.8s-0.8,0.4-0.8,0.8C54.5,122.7,54.8,123,55.3,123z"/>
	</g>
	<g>
		<path class="st0" d="M59.9,123.2c0.6,0,1.1-0.5,1.1-1c0-0.6-0.5-1.1-1.1-1.1s-1.1,0.5-1.1,1.1C58.9,122.8,59.3,123.2,59.9,123.2z"
			/>
	</g>
	<g>
		<path class="st0" d="M64.5,123.4c0.7,0,1.3-0.6,1.3-1.3c0-0.7-0.6-1.2-1.3-1.2c-0.7,0-1.2,0.6-1.2,1.2
			C63.3,122.9,63.8,123.4,64.5,123.4z"/>
	</g>
	<g>
		<path class="st0" d="M69.1,123.6c0.8,0,1.4-0.6,1.4-1.4s-0.6-1.4-1.4-1.4s-1.4,0.6-1.4,1.4S68.4,123.6,69.1,123.6z"/>
	</g>
	<g>
		<path class="st0" d="M73.7,123.7c0.8,0,1.5-0.7,1.5-1.5s-0.7-1.5-1.5-1.5s-1.5,0.7-1.5,1.5S72.9,123.7,73.7,123.7z"/>
	</g>
	<g>
		<path class="st0" d="M78.3,123.8c0.9,0,1.6-0.7,1.6-1.6s-0.7-1.6-1.6-1.6s-1.6,0.7-1.6,1.6C76.7,123.1,77.4,123.8,78.3,123.8z"/>
	</g>
	<g>
		<path class="st0" d="M82.9,123.9c0.9,0,1.7-0.7,1.7-1.7c0-0.9-0.7-1.7-1.7-1.7c-0.9,0-1.7,0.8-1.7,1.7
			C81.3,123.1,82,123.9,82.9,123.9z"/>
	</g>
	<g>
		<path class="st0" d="M87.5,123.9c0.9,0,1.7-0.7,1.7-1.7c0-0.9-0.7-1.7-1.7-1.7c-0.9,0-1.7,0.8-1.7,1.7
			C85.9,123.1,86.6,123.9,87.5,123.9z"/>
	</g>
	<g>
		<path class="st0" d="M92.1,123.9c0.9,0,1.7-0.7,1.7-1.7c0-0.9-0.7-1.7-1.7-1.7c-0.9,0-1.7,0.8-1.7,1.7
			C90.5,123.1,91.2,123.9,92.1,123.9z"/>
	</g>
	<g>
		<path class="st0" d="M96.7,123.8c0.9,0,1.6-0.7,1.6-1.6s-0.7-1.6-1.6-1.6s-1.6,0.8-1.6,1.6C95.1,123.1,95.8,123.8,96.7,123.8z"/>
	</g>
	<g>
		<path class="st0" d="M101.3,123.7c0.9,0,1.6-0.7,1.6-1.5c0-0.9-0.7-1.5-1.6-1.5s-1.5,0.7-1.5,1.5S100.5,123.7,101.3,123.7z"/>
	</g>
	<g>
		<path class="st0" d="M105.9,123.7c0.8,0,1.5-0.7,1.5-1.5s-0.7-1.5-1.5-1.5s-1.5,0.7-1.5,1.5C104.5,123,105.2,123.7,105.9,123.7z"
			/>
	</g>
	<g>
		<path class="st0" d="M110.6,123.5c0.7,0,1.3-0.6,1.3-1.3c0-0.7-0.6-1.3-1.3-1.3c-0.7,0-1.3,0.6-1.3,1.3
			C109.2,122.9,109.8,123.5,110.6,123.5z"/>
	</g>
	<g>
		<path class="st0" d="M115.2,123.4c0.6,0,1.1-0.5,1.1-1.2c0-0.6-0.5-1.1-1.1-1.1s-1.2,0.5-1.2,1.1S114.5,123.4,115.2,123.4z"/>
	</g>
	<g>
		<path class="st0" d="M119.8,123.1c0.5,0,0.9-0.4,0.9-1c0-0.5-0.4-1-0.9-1s-0.9,0.4-0.9,1C118.8,122.7,119.2,123.1,119.8,123.1z"/>
	</g>
	<g>
		<circle class="st0" cx="124.4" cy="122.2" r="0.7"/>
	</g>
	<g>
		<path class="st0" d="M129,122.6c0.3,0,0.5-0.2,0.5-0.5s-0.2-0.5-0.5-0.5s-0.5,0.2-0.5,0.5C128.5,122.5,128.7,122.6,129,122.6z"/>
	</g>
	<g>
		<path class="st0" d="M133.6,122.4c0.1,0,0.2-0.1,0.2-0.2s-0.1-0.2-0.2-0.2c-0.1,0-0.2,0.1-0.2,0.2
			C133.4,122.3,133.5,122.4,133.6,122.4z"/>
	</g>
	<g>
		<path class="st0" d="M46.1,126.8L46.1,126.8L46.1,126.8L46.1,126.8L46.1,126.8z"/>
	</g>
	<g>
		<path class="st0" d="M50.7,127.1c0.2,0,0.3-0.1,0.3-0.3c0-0.2-0.1-0.3-0.3-0.3c-0.1,0-0.3,0.1-0.3,0.3
			C50.4,126.9,50.6,127.1,50.7,127.1z"/>
	</g>
	<g>
		<path class="st0" d="M55.3,127.3c0.3,0,0.5-0.2,0.5-0.6c0-0.3-0.2-0.5-0.5-0.5s-0.5,0.3-0.5,0.5C54.8,127.1,55,127.3,55.3,127.3z"
			/>
	</g>
	<g>
		<path class="st0" d="M59.9,127.5c0.4,0,0.7-0.4,0.7-0.8s-0.3-0.7-0.7-0.7s-0.7,0.3-0.7,0.7C59.2,127.2,59.5,127.5,59.9,127.5z"/>
	</g>
	<g>
		<path class="st0" d="M64.5,127.7c0.5,0,0.9-0.5,0.9-1s-0.4-0.9-0.9-0.9s-0.9,0.4-0.9,0.9C63.6,127.3,64,127.7,64.5,127.7z"/>
	</g>
	<g>
		<path class="st0" d="M69.1,127.9c0.6,0,1.1-0.5,1.1-1.1s-0.5-1.1-1.1-1.1s-1.1,0.5-1.1,1.1S68.5,127.9,69.1,127.9z"/>
	</g>
	<g>
		<path class="st0" d="M73.7,128c0.7,0,1.2-0.5,1.2-1.2s-0.5-1.2-1.2-1.2s-1.2,0.5-1.2,1.2S73.1,128,73.7,128z"/>
	</g>
	<g>
		<path class="st0" d="M78.3,128c0.7,0,1.3-0.6,1.3-1.3c0-0.7-0.6-1.3-1.3-1.3c-0.7,0-1.3,0.6-1.3,1.3C77.1,127.5,77.6,128,78.3,128
			z"/>
	</g>
	<g>
		<path class="st0" d="M82.9,128.1c0.7,0,1.3-0.6,1.3-1.3c0-0.7-0.6-1.3-1.3-1.3c-0.7,0-1.3,0.6-1.3,1.3
			C81.6,127.5,82.2,128.1,82.9,128.1z"/>
	</g>
	<g>
		<path class="st0" d="M87.5,128.1c0.7,0,1.4-0.6,1.4-1.4c0-0.7-0.6-1.3-1.4-1.3c-0.7,0-1.3,0.6-1.3,1.3
			C86.2,127.5,86.8,128.1,87.5,128.1z"/>
	</g>
	<g>
		<path class="st0" d="M92.1,128.1c0.7,0,1.4-0.6,1.4-1.4c0-0.7-0.6-1.3-1.4-1.3c-0.7,0-1.3,0.6-1.3,1.3
			C90.8,127.5,91.4,128.1,92.1,128.1z"/>
	</g>
	<g>
		<path class="st0" d="M96.7,128.1c0.7,0,1.3-0.6,1.3-1.3c0-0.7-0.6-1.3-1.3-1.3s-1.3,0.6-1.3,1.3C95.4,127.5,96,128.1,96.7,128.1z"
			/>
	</g>
	<g>
		<path class="st0" d="M101.3,128c0.7,0,1.2-0.6,1.2-1.2c0-0.7-0.5-1.2-1.2-1.2s-1.2,0.5-1.2,1.2C100.1,127.5,100.7,128,101.3,128z"
			/>
	</g>
	<g>
		<path class="st0" d="M105.9,127.9c0.6,0,1.2-0.5,1.2-1.1s-0.5-1.1-1.2-1.1c-0.6,0-1.1,0.5-1.1,1.1S105.3,127.9,105.9,127.9z"/>
	</g>
	<g>
		<path class="st0" d="M110.6,127.8c0.5,0,1-0.4,1-1c0-0.5-0.4-1-1-1c-0.5,0-1,0.4-1,1C109.6,127.3,110,127.8,110.6,127.8z"/>
	</g>
	<g>
		<path class="st0" d="M115.2,127.6c0.5,0,0.8-0.4,0.8-0.8s-0.4-0.8-0.8-0.8c-0.5,0-0.8,0.4-0.8,0.8
			C114.3,127.3,114.7,127.6,115.2,127.6z"/>
	</g>
	<g>
		<path class="st0" d="M119.8,127.4c0.3,0,0.6-0.2,0.6-0.6c0-0.3-0.3-0.6-0.6-0.6c-0.3,0-0.6,0.3-0.6,0.6
			C119.1,127.2,119.4,127.4,119.8,127.4z"/>
	</g>
	<g>
		<path class="st0" d="M124.4,127.2c0.2,0,0.4-0.2,0.4-0.4c0-0.2-0.2-0.4-0.4-0.4c-0.2,0-0.4,0.2-0.4,0.4S124.1,127.2,124.4,127.2z"
			/>
	</g>
	<g>
		<path class="st0" d="M129,126.9c0.1,0,0.1-0.1,0.1-0.2s0-0.1-0.1-0.1s-0.1,0-0.1,0.1C128.8,126.9,128.9,126.9,129,126.9z"/>
	</g>
	<g>
		<path class="st0" d="M55.3,131.6c0.1,0,0.2-0.1,0.2-0.2c0-0.1-0.1-0.2-0.2-0.2c-0.1,0-0.2,0.1-0.2,0.2S55.2,131.6,55.3,131.6z"/>
	</g>
	<g>
		<path class="st0" d="M59.9,131.8c0.2,0,0.4-0.2,0.4-0.4s-0.2-0.4-0.4-0.4s-0.4,0.2-0.4,0.4S59.7,131.8,59.9,131.8z"/>
	</g>
	<g>
		<path class="st0" d="M64.5,132c0.3,0,0.6-0.2,0.6-0.6c0-0.3-0.2-0.6-0.6-0.6c-0.3,0-0.5,0.3-0.5,0.6S64.2,132,64.5,132z"/>
	</g>
	<g>
		<path class="st0" d="M69.1,132.1c0.4,0,0.7-0.3,0.7-0.7s-0.3-0.7-0.7-0.7c-0.4,0-0.7,0.3-0.7,0.7S68.7,132.1,69.1,132.1z"/>
	</g>
	<g>
		<path class="st0" d="M73.7,132.2c0.5,0,0.8-0.4,0.8-0.8c0-0.5-0.4-0.8-0.8-0.8c-0.5,0-0.8,0.4-0.8,0.8
			C72.9,131.8,73.3,132.2,73.7,132.2z"/>
	</g>
	<g>
		<path class="st0" d="M78.3,132.3c0.5,0,0.9-0.4,0.9-0.9s-0.4-0.9-0.9-0.9s-0.9,0.4-0.9,0.9C77.4,131.9,77.8,132.3,78.3,132.3z"/>
	</g>
	<g>
		<path class="st0" d="M82.9,132.4c0.5,0,1-0.5,1-1s-0.4-1-1-1c-0.5,0-1,0.4-1,1C82,131.9,82.4,132.4,82.9,132.4z"/>
	</g>
	<g>
		<path class="st0" d="M87.5,132.4c0.5,0,1-0.5,1-1s-0.4-1-1-1c-0.5,0-1,0.4-1,1C86.6,131.9,87,132.4,87.5,132.4z"/>
	</g>
	<g>
		<path class="st0" d="M92.1,132.4c0.5,0,1-0.5,1-1s-0.4-1-1-1c-0.5,0-1,0.4-1,1C91.2,131.9,91.6,132.4,92.1,132.4z"/>
	</g>
	<g>
		<path class="st0" d="M96.7,132.3c0.5,0,0.9-0.4,0.9-0.9s-0.4-0.9-0.9-0.9s-0.9,0.4-0.9,0.9C95.8,131.9,96.2,132.3,96.7,132.3z"/>
	</g>
	<g>
		<path class="st0" d="M101.3,132.3c0.5,0,0.9-0.4,0.9-0.9s-0.4-0.9-0.9-0.9s-0.9,0.4-0.9,0.9C100.5,131.9,100.9,132.3,101.3,132.3z
			"/>
	</g>
	<g>
		<path class="st0" d="M105.9,132.2c0.4,0,0.8-0.3,0.8-0.8c0-0.4-0.4-0.8-0.8-0.8s-0.8,0.4-0.8,0.8
			C105.2,131.8,105.5,132.2,105.9,132.2z"/>
	</g>
	<g>
		<path class="st0" d="M110.6,132c0.3,0,0.6-0.3,0.6-0.6s-0.3-0.7-0.6-0.7c-0.4,0-0.6,0.3-0.6,0.7C109.9,131.7,110.2,132,110.6,132z
			"/>
	</g>
	<g>
		<path class="st0" d="M115.2,131.8c0.3,0,0.5-0.2,0.5-0.4c0-0.3-0.2-0.5-0.5-0.5s-0.5,0.2-0.5,0.5
			C114.7,131.7,114.9,131.8,115.2,131.8z"/>
	</g>
	<g>
		<path class="st0" d="M119.8,131.7c0.2,0,0.3-0.1,0.3-0.3s-0.1-0.3-0.3-0.3c-0.2,0-0.3,0.1-0.3,0.3
			C119.5,131.5,119.6,131.7,119.8,131.7z"/>
	</g>
	<g>
		<path class="st0" d="M124.4,131.5C124.4,131.5,124.5,131.4,124.4,131.5c0.1-0.1,0-0.2,0-0.2C124.3,131.3,124.3,131.4,124.4,131.5
			C124.3,131.4,124.3,131.5,124.4,131.5z"/>
	</g>
	<g>
		<path class="st0" d="M59.9,136L59.9,136L59.9,136L59.9,136L59.9,136z"/>
	</g>
	<g>
		<path class="st0" d="M64.5,136.2c0.1,0,0.2-0.1,0.2-0.2c0-0.1-0.1-0.2-0.2-0.2s-0.2,0.1-0.2,0.2C64.3,136.1,64.4,136.2,64.5,136.2
			z"/>
	</g>
	<g>
		<path class="st0" d="M69.1,136.3c0.2,0,0.3-0.2,0.3-0.4s-0.1-0.3-0.3-0.3c-0.2,0-0.3,0.1-0.3,0.3C68.8,136.2,69,136.3,69.1,136.3z
			"/>
	</g>
	<g>
		<path class="st0" d="M73.7,136.4c0.3,0,0.4-0.2,0.4-0.4s-0.2-0.4-0.4-0.4c-0.2,0-0.4,0.2-0.4,0.4
			C73.3,136.2,73.5,136.4,73.7,136.4z"/>
	</g>
	<g>
		<path class="st0" d="M78.3,136.5c0.3,0,0.5-0.3,0.5-0.6s-0.3-0.5-0.5-0.5c-0.3,0-0.5,0.2-0.5,0.5C77.8,136.3,78,136.5,78.3,136.5z
			"/>
	</g>
	<g>
		<path class="st0" d="M82.9,136.6c0.3,0,0.6-0.2,0.6-0.6c0-0.3-0.3-0.5-0.6-0.5c-0.3,0-0.6,0.2-0.6,0.5
			C82.4,136.3,82.6,136.6,82.9,136.6z"/>
	</g>
	<g>
		<path class="st0" d="M87.5,136.6c0.3,0,0.6-0.2,0.6-0.6c0-0.3-0.3-0.6-0.6-0.6c-0.3,0-0.6,0.3-0.6,0.6S87.2,136.6,87.5,136.6z"/>
	</g>
	<g>
		<path class="st0" d="M92.1,136.6c0.3,0,0.6-0.2,0.6-0.6c0-0.3-0.3-0.6-0.6-0.6c-0.3,0-0.6,0.3-0.6,0.6S91.8,136.6,92.1,136.6z"/>
	</g>
	<g>
		<path class="st0" d="M96.7,136.6c0.3,0,0.6-0.3,0.6-0.6s-0.2-0.5-0.6-0.5c-0.3,0-0.6,0.2-0.6,0.5
			C96.2,136.3,96.4,136.6,96.7,136.6z"/>
	</g>
	<g>
		<path class="st0" d="M101.3,136.5c0.3,0,0.5-0.2,0.5-0.5c0-0.2-0.2-0.5-0.5-0.5s-0.5,0.2-0.5,0.5
			C100.9,136.3,101.1,136.5,101.3,136.5z"/>
	</g>
	<g>
		<path class="st0" d="M105.9,136.4c0.2,0,0.4-0.2,0.4-0.4s-0.2-0.4-0.4-0.4c-0.2,0-0.4,0.2-0.4,0.4
			C105.6,136.2,105.7,136.4,105.9,136.4z"/>
	</g>
	<g>
		<path class="st0" d="M110.6,136.3c0.1,0,0.3-0.2,0.3-0.3s-0.1-0.2-0.3-0.2c-0.2,0-0.3,0.1-0.3,0.2
			C110.3,136.1,110.4,136.3,110.6,136.3z"/>
	</g>
	<g>
		<path class="st0" d="M115.2,136.1c0.1,0,0.1,0,0.1-0.1c0,0,0-0.1-0.1-0.1s-0.1,0.1-0.1,0.1C115,136.1,115.1,136.1,115.2,136.1z"/>
	</g>
	<g>
		<path class="st0" d="M73.7,140.6C73.8,140.6,73.8,140.6,73.7,140.6C73.8,140.6,73.8,140.6,73.7,140.6L73.7,140.6L73.7,140.6z"/>
	</g>
	<g>
		<path class="st0" d="M78.3,140.7c0.1,0,0.1-0.1,0.1-0.1c0-0.1-0.1-0.1-0.1-0.1c-0.1,0-0.1,0-0.1,0.1
			C78.2,140.6,78.3,140.7,78.3,140.7z"/>
	</g>
	<g>
		<path class="st0" d="M82.9,140.8c0.1,0,0.2-0.1,0.2-0.2c0-0.1-0.1-0.2-0.2-0.2s-0.2,0-0.2,0.2C82.8,140.7,82.8,140.8,82.9,140.8z"
			/>
	</g>
	<g>
		<path class="st0" d="M87.5,140.8c0.1,0,0.2-0.1,0.2-0.2c0-0.1-0.1-0.2-0.2-0.2s-0.2,0.1-0.2,0.2S87.5,140.8,87.5,140.8z"/>
	</g>
	<g>
		<path class="st0" d="M92.1,140.8c0.1,0,0.2-0.1,0.2-0.2c0-0.1-0.1-0.2-0.2-0.2s-0.2,0.1-0.2,0.2C92,140.7,92,140.8,92.1,140.8z"/>
	</g>
	<g>
		<path class="st0" d="M96.7,140.7c0.1,0,0.1,0,0.1-0.1s-0.1-0.2-0.1-0.2c-0.1,0-0.1,0-0.1,0.2C96.6,140.7,96.7,140.7,96.7,140.7z"
			/>
	</g>
	<g>
		<path class="st0" d="M101.3,140.7c0.1,0,0.1-0.1,0.1-0.1c0-0.1,0-0.1-0.1-0.1c0,0-0.1,0-0.1,0.1
			C101.2,140.6,101.3,140.7,101.3,140.7z"/>
	</g>
</g>
<g>
	<path class="st0" d="M2.9,47.3c8.5-32.6,82.2-54.1,118.8-22.9c16.7,14.2,29.8,42.9,18.7,67.2c-12,26.1-45,31.5-64.1,29.9
		C33.8,118-4.3,75,2.9,47.3z"/>
</g>
<g>
	<path class="st1" d="M52.8,89.4c-1.5,0.7-3.1,1.1-4.6,1.1c-1.6,0.1-3.1-0.2-4.5-0.7s-2.7-1.2-3.8-2.3c-1.1-1-2-2.2-2.7-3.7
		c-0.4-0.9-0.7-1.9-0.9-2.9c-0.1-1-0.2-2,0-2.9c0.1-1,0.4-1.9,0.7-2.8c0.4-0.9,0.9-1.8,1.5-2.6c0.6-0.8,1.3-1.6,2.1-2.2
		c0.8-0.7,1.7-1.2,2.8-1.7c1-0.5,2.1-0.8,3.1-1s2.1-0.2,3.1-0.2c1,0.1,2,0.3,2.9,0.6s1.8,0.7,2.6,1.3c0.8,0.5,1.6,1.2,2.2,1.9
		c0.7,0.8,1.2,1.6,1.6,2.5c0.4,1,0.7,1.9,0.9,2.9s0.2,2,0.1,3c-0.1,1-0.4,1.9-0.7,2.9s-0.8,1.8-1.4,2.6c-0.6,0.8-1.3,1.6-2.1,2.3
		C54.7,88.4,53.8,89,52.8,89.4z M52.3,88.4c1.1-0.5,2-1.2,2.7-2.1c0.6-0.9,1.1-1.9,1.3-3s0.2-2.3,0-3.6c-0.2-1.3-0.7-2.6-1.3-4
		s-1.3-2.5-2.2-3.5c-0.8-1-1.7-1.8-2.7-2.3s-2-0.8-3.1-0.9s-2.2,0.2-3.3,0.7s-2.1,1.2-2.7,2.1c-0.7,0.8-1.1,1.8-1.3,2.9
		s-0.2,2.3,0,3.5c0.2,1.3,0.6,2.6,1.3,3.9c0.6,1.4,1.4,2.6,2.2,3.6s1.7,1.8,2.7,2.4s2,0.9,3.1,1S51.2,89,52.3,88.4z"/>
	<path class="st1" d="M58.3,62.5l3.4-1.6l14.6,11.6l0.2-0.1L77,53.9l3.3-1.5L89.4,72l-3.3,1.5l-7.4-16.1h-0.1l-0.7,19.9l-0.7,0.3
		L61.7,65.4l-0.2,0.1l7.4,16l-1.5,0.7L58.3,62.5z"/>
	<path class="st1" d="M96.8,45.9c-1.2,0.5-2.2,1.3-3,2.1c-0.8,0.9-1.4,1.9-1.8,3s-0.5,2.3-0.4,3.6s0.5,2.6,1.1,4s1.4,2.5,2.4,3.4
		s2,1.6,3.1,2s2.3,0.6,3.5,0.6c1.2-0.1,2.4-0.4,3.6-0.9c0.9-0.4,1.6-0.9,2.2-1.4c0.6-0.6,1.1-1.2,1.4-1.9l-3.2-6.9l-3.7,1.7
		l-0.5-1.2l7-3.2l4,8.7c-0.4,0.6-0.9,1.1-1.4,1.6s-1,1-1.6,1.5s-1.3,0.9-2.1,1.4c-0.8,0.5-1.7,0.9-2.7,1.4c-1.1,0.5-2.2,0.9-3.3,1.1
		c-1.1,0.2-2.2,0.3-3.2,0.2c-1-0.1-2-0.2-3-0.6c-1-0.3-1.8-0.7-2.7-1.3c-0.8-0.5-1.6-1.2-2.2-1.9c-0.7-0.7-1.2-1.6-1.6-2.5
		s-0.7-1.9-0.9-2.9c-0.2-1-0.2-2-0.1-3s0.3-2,0.7-2.9c0.4-0.9,0.8-1.8,1.4-2.7c0.6-0.8,1.3-1.6,2.2-2.3c0.9-0.7,1.8-1.3,2.9-1.8
		c1-0.5,2.1-0.8,3.1-0.9c1-0.1,2-0.1,2.9,0s1.8,0.4,2.7,0.7c0.8,0.3,1.6,0.8,2.3,1.2l-1,1.6c-1.6-1.2-3-2-4.4-2.2
		C99.5,45.2,98.1,45.3,96.8,45.9z"/>
	<path class="st1" d="M116.6,53.4c-0.5-1.1-1.1-2.1-1.8-3.2c-0.7-1.1-1.3-2.1-2-3.1s-1.3-2-1.9-3s-1.1-1.9-1.5-2.9
		c-0.2-0.4-0.3-0.7-0.3-1s0-0.6,0.1-0.9c0.1-0.3,0.2-0.5,0.3-0.7c0.2-0.2,0.4-0.4,0.6-0.5s0.5-0.2,0.8-0.2s0.5,0.1,0.8,0.2
		c0.2,0.1,0.5,0.3,0.7,0.6c0.2,0.2,0.4,0.5,0.6,0.9c0.4,0.9,0.8,1.9,1.2,3c0.4,1.1,0.7,2.2,1.1,3.4c0.3,1.2,0.7,2.3,1.1,3.5
		s0.8,2.3,1.3,3.4L116.6,53.4z M118.1,55.6c0.2-0.1,0.4-0.2,0.7-0.2c0.2,0,0.5,0,0.7,0.1s0.4,0.2,0.6,0.3c0.2,0.2,0.3,0.3,0.4,0.5
		s0.2,0.5,0.2,0.7s0,0.4-0.1,0.7c-0.1,0.2-0.2,0.4-0.4,0.6c-0.2,0.2-0.4,0.3-0.6,0.4c-0.2,0.1-0.5,0.2-0.7,0.2s-0.5,0-0.7-0.1
		s-0.4-0.2-0.6-0.3s-0.3-0.3-0.4-0.6c-0.1-0.2-0.1-0.4-0.2-0.7c0-0.2,0-0.5,0.1-0.7s0.2-0.4,0.4-0.6
		C117.7,55.8,117.9,55.7,118.1,55.6z"/>
</g>
</svg>
