<?xml version="1.0" encoding="utf-8"?>
<!-- Generator: Adobe Illustrator 20.0.0, SVG Export Plug-In . SVG Version: 6.00 Build 0)  -->
<svg version="1.1" id="Layer_1" xmlns="http://www.w3.org/2000/svg" xmlns:xlink="http://www.w3.org/1999/xlink" x="0px" y="0px"
	 viewBox="0 0 900 770" style="enable-background:new 0 0 900 770;" xml:space="preserve">
<style type="text/css">
	.st0{fill:#4951EC;}
	.st1{fill:#FA7167;}
	.st2{fill:#92B5F9;}
	.st3{fill:#FB9390;}
	.st4{fill:#7C9AF2;}
	.st5{fill:#BED1F9;}
	.st6{fill:#DDE8FE;}
	.st7{fill:#EF7F7F;}
	.st8{fill:#0B0754;}
	.st9{fill:#EA5D59;}
	.st10{fill:#F7A491;}
	.st11{fill:#FFFFFF;}
</style>
<g>
	<g>
		<path class="st0" d="M15.5,714.3c-1.7,0-3.2,1.5-3.2,3.3s1.4,3.3,3.2,3.3h868.9c1.8,0,3.3-1.5,3.3-3.3c0,0,0,0,0-0.1
			c0-1.8-1.5-3.3-3.3-3.3H15.5z"/>
	</g>
	<path class="st1" d="M515,365.9l-5.5-7.9l-9.6,0c-1.1,0-1.7-1.2-1.1-2.1l5.8-7.6l-3-9.1c-0.3-1,0.7-2,1.7-1.7l9,3.2l7.7-5.7
		c0.9-0.6,2.1,0,2.1,1.1l-0.2,9.6l7.8,5.6c0.9,0.6,0.7,2-0.4,2.3l-9.2,2.7l-2.9,9.1C517,366.6,515.6,366.8,515,365.9z"/>
	<path class="st2" d="M768,192.1l5.1-11.7l-6.8-10.8c-0.8-1.2,0.2-2.8,1.6-2.7l12.7,1.2l8.2-9.8c0.9-1.1,2.7-0.7,3.1,0.7l2.8,12.4
		l11.8,4.8c1.3,0.5,1.5,2.4,0.2,3.1l-11,6.5l-0.9,12.7c-0.1,1.4-1.8,2.2-2.9,1.2l-9.6-8.4l-12.4,3.1
		C768.6,194.9,767.4,193.4,768,192.1z"/>
	<path class="st0" d="M107.8,513.8l-6.5-12.4l-13.9-1.7c-1.6-0.2-2.3-2.1-1.1-3.3l9.8-10l-2.7-13.7c-0.3-1.6,1.3-2.8,2.7-2.1
		l12.5,6.2l12.2-6.8c1.4-0.8,3.1,0.4,2.8,2l-2,13.9l10.3,9.5c1.2,1.1,0.6,3-1,3.3l-13.8,2.3l-5.9,12.7
		C110.6,515.2,108.5,515.2,107.8,513.8z"/>
	<polygon class="st0" points="848.9,215.7 849.1,222.4 838.2,223.9 837.2,233.9 829.3,236.3 830.5,240.3 841.2,237.1 842.1,227.6 
		853.4,226.1 853.2,215.9 	"/>
	<path class="st1" d="M246.3,146.2c0.6-4.4,4.8-7.7,9.3-7.1c4.6,0.6,7.3,4.4,6.9,9.1c-0.5,4.7-4.1,7.9-9,7.3
		C248.6,155,245.7,151,246.3,146.2z M250.7,134.1l2.2-35.7c0.2-3,2.8-5.2,5.7-4.8l3.6,0.4c2.9,0.3,5,3.1,4.5,6l-5.7,35.3
		L250.7,134.1z"/>
	<g>
		<path class="st0" d="M223.7,326.1c0.2,8.9,2.5,27.9,22.6,31c12.5,2,28.5-9.3,27.4-17.5c-1-8.2-3.3-29.2-16.3-34
			C246.5,301.6,223.1,306.3,223.7,326.1z"/>
		<path class="st3" d="M391.4,612.5c2.8,11.9,5.1,29.2,5.9,30.1c0.4,0.5,1.2,3.5,1.6,4c13,4.7,24.4-0.2,33.4-5.5
			c-7.1-1.3-16.6-2.6-18-3.5c-4.9-3.5-3.8-15.9-4.6-27C406.2,611.2,397.7,609,391.4,612.5z"/>
		<path class="st0" d="M397,642c0.1,4.7,3.1,14.8,4.1,14.8c1.1,0,40.1-3.4,43.8-9.4c2.2-3.6-3.8-4.5-12.5-6.3
			C423.3,646.4,398.1,644.9,397,642z"/>
		<path class="st3" d="M206.1,639.2c-9,7.1-18.1,12.7-19.3,13.3c-0.6,0.3-3.7,0.3-4.3,0.5c-8,11.2-6.4,23.5-3.6,33.7
			c3.1-6.5,6.8-15.6,8.2-16.4c2.3-1.3,10.4-6.1,25-12C207.2,652.8,207.8,646.2,206.1,639.2z"/>
		<path class="st3" d="M226.7,389.8l-27.9,50.7c0,0-18.6,23.5-28.2,35.5c2.1,3.4,4.1,6.8,5.8,10.4c9.5-8.1,29.9-25.3,37.1-34.9
			c10.7-14.1,30.1-47.5,30.1-47.5L226.7,389.8z"/>
		<path class="st0" d="M300.8,478.1l-29.8,44c0,0-1.7-2.9,9,1c10.7,3.9,79.5,16.8,83.6,21.6c2.9,3.4,24.2,71,28.4,79.7
			c6.2,2.5,15.2-0.3,21.6-1.2c0.4-32.5-16.8-91.8-21.4-98.7c-10.3-15.5-59.2-32.3-81.2-41.7c-3.6-1.5-6.3-2.9-8.1-3.7
			C301.5,478.4,300.8,478.1,300.8,478.1z"/>
		<path class="st0" d="M186.4,652.5c-4.6-1.2-13.9-1.1-14.1-0.2c-0.3,1.1-7.5,39.6-2.7,44.7c2.9,3.1,5.4-2.4,9.4-10.4
			C176.2,676.5,183.2,652.8,186.4,652.5z"/>
		<path class="st4" d="M293,509c0.3-3.3,7.3-22.6,9.8-30.1c0.1-0.2-1.8-4.6-3.8-10.8l-2.9,0.5l-42.4,1.9c0,0-17.1,28.8-15.1,42.1
			c2.8,18.5,29.5,84.2,25.4,87.3c-7.3,5.6-43.3,26.4-61.8,38.8c1.2,7.2,4.5,17.1,9,22.8c15-5.2,80-31.4,86.7-51.5
			C304,592.3,292.5,514.6,293,509z"/>
		<path class="st5" d="M292.3,347c0,0-11.7,18.3-18.6,19l24.3,22.5c0,0,16.6-24.9,18.3-29.1C316.4,359.4,301.3,345.9,292.3,347z"/>
		<path class="st6" d="M300.8,457.8c-1.1,10.1,2,21.1,2,21.1c-9.8,2.1-44.5,6.5-53-3.8c-0.3-0.4,12-22.1,10.3-31
			c-2.5-13.1-13.4-35.3-14.3-36.5c-1.5-2-7.1,8.3-7.1,8.3c-6.5,0-21.4-15.1-21.4-15.1s15.4-26.9,19.7-29.4
			c4.2-2.5,39.3-6.3,39.3-6.3c2.6-0.2,9.6,5.9,11.6,7.9C310.1,395.2,304.2,426.9,300.8,457.8z"/>
		<path class="st3" d="M256.6,353.9c0,0,3.8,12.6,3.8,17.8c0,5.1,2.1,12.1,12.8,11.1c10.8-1.1,1.9-11.9,0.4-16.8
			c-1.5-4.9-3.4-20.3-3.4-20.3L256.6,353.9z"/>
		<path class="st7" d="M271.4,353.4c-0.6-4.2-1-7.7-1-7.7l-13.7,8.2c0,0,0.8,2.6,1.6,5.9C264.7,360.4,269.1,357.6,271.4,353.4z"/>
		<path class="st3" d="M245.5,315.8c0,0-5.7,4-7.1,11.4c-1.5,7.5,3,25.8,19,28.7c16,2.9,21.2-12.6,16.8-23.8
			C269.7,321,261.2,307.1,245.5,315.8z"/>
		
			<ellipse transform="matrix(1 -5.155232e-03 5.155232e-03 1 -1.6848 1.408)" class="st3" cx="272.3" cy="327.5" rx="3.3" ry="5.7"/>
		
			<ellipse transform="matrix(0.7679 -0.6406 0.6406 0.7679 -165.2123 235.3852)" class="st3" cx="242.2" cy="345.7" rx="4" ry="5.9"/>
		<path class="st0" d="M229.1,308.8c0.6-8.6,6.7-40.5-12.8-43.5c-19.5-3-23.7,18.3-34.5-10.4c-10-26.6-39.9-16.3-41.1,3.9
			c-2.8-0.2-5.7,0.2-8.5,1.3c-9.6,4-13.9,15.5-9.6,25.6c0.7,1.6,0.3,3.2,1.3,4.5c-2.3,8.8-0.7,18.9,6.1,29.1
			c18.6,27.9,37.2-1.5,49.7,0.1c12.5,1.6,4.4,11.4,15.2,19c10.9,7.7,19.6,5.7,37.3-15.2l4.4-5.8
			C236.5,317.4,228.4,317.4,229.1,308.8z"/>
	</g>
	<g>
		<path class="st3" d="M778.1,552c9.8-3.9,18.6-9.2,19.6-9.8c0.8-0.4,4.1-2.9,4.6-3.2c8.6,5.1,11.8,9.5,18.6,16.4
			c-5,0.3-7.2-3.9-9.1-3.4c-2.3,0.5-9.7,5.4-21.1,14.3C788.7,559.8,783,556.6,778.1,552z"/>
		<path class="st3" d="M639.6,652.3c2.2,10.3,6.3,19.5,6.8,20.5c0.2,0.5,1.8,0.9,2,1.4c-6.5,7.7-9.3,20.4-17.2,26
			c0.6-5,3.9-14.4,3.8-16.4c-0.1-2.4-3.8-10.4-10.6-23.2C631,659.8,634.2,656.3,639.6,652.3z"/>
		<path class="st8" d="M643.7,675c0.9-2.2,3.8-3.8,5.9-2.5c2.1,1.3,4.9,2.8,7,4.2c2.3,1.6,2.5,3.4,2.4,3.9
			c-0.2,1.2-27.8,33.6-31.4,34c-3.5,0.5,3-26.9,6.9-29.7C638,682.4,639.7,685,643.7,675z"/>
		<path class="st8" d="M801.5,542.2c-2-1.3-3-4.4-1.4-6.2c1.7-1.8,3.6-4.3,5.4-6.1c2-2,3.8-1.8,4.2-1.7c1.1,0.4,28,33.4,27.9,37
			c-0.2,3.6-25.9-7.8-28-12.1C807.8,549.2,810.6,548,801.5,542.2z"/>
		<path class="st9" d="M650.2,531.7c0,0,54.6,73.5,64.1,74.2c8.9,0.6,77.7-37.7,77.7-37.7l-9-19.8l-55.1,19.8l-38.4-72.6
			L650.2,531.7z"/>
		<path class="st1" d="M681.6,469.6c0,0,10,2.4,15.7,17.6c5.7,15.2-3.8,27.9-27.8,49.9c-23.3,21.5-46.3,41.7-46.3,41.7l18.9,77.8
			l-15.7,13.3c0,0-36.4-79-37.4-97.9c-0.4-7.2,55.5-90.5,55.5-90.5L681.6,469.6z"/>
		<path class="st3" d="M639.3,374.3l-30.4,17l-24.1,11.6c0,0-5.9-20-3.9-29.8c0.3-1.4,1.7-3.1,2.2-3.8c4-6-4.5-15.2-4.5-15.2
			s-5.1-1.5-8.6,7c-3.5,8.4,2.9,12,2.9,12s-7.3,25.6-4.3,44.2c1.6,9.8,26,2.6,45.5-5.8c16.4-7.1,28.4-15,28.4-15L639.3,374.3z"/>
		<path class="st0" d="M646.2,371.4c-0.6-0.6-1.7-1-3.4-0.3c-3.8,1.4-40.3,21.5-40.3,21.5s3.3,17.6,11.8,22.9l18.4-5.6l14.1-35.6
			C647.2,373.3,647,372.2,646.2,371.4z"/>
		<path class="st1" d="M730.3,296.4c-13.9-8.5-31.1-6.9-41.4,4.6c-8.5-3.2-18.2-2.9-26,0.7c-15.5,7.2-29.2,26.1-17.5,39.9
			c-2.5,18.2,8.4,28.8,22,30c7.4,14.8,33.6,16.3,48.6,4.1c12.4,4.8,27.2,2.7,36.4-6.2c2.2-2.2,5.4-5.6,6.2-5.9
			c-0.9,0.4,34.7-4.3,33-35.6C789.8,296,751.6,283.7,730.3,296.4z"/>
		<path class="st4" d="M667.3,369l22.6,1.2l-3.7,31.5c0,0-10.9,30.3-6.4,44.9c4.4,14.6,8.7,25.2,8.7,25.2s-12.8,14.7-48.8,11.7
			c0,0,0.5-26.2,0-34.1c-0.5-7.9-9.7-40.9-8.4-48.4c1.3-7.5,9.2-28.1,11.3-29.8c2.1-1.7,10.2-2.6,10.2-2.6L667.3,369z"/>
		<path class="st3" d="M668.3,351.7c0,0-0.4,2.5-0.8,5.8c-0.5,4.1-0.9,9.3-0.5,12.1c0.7,5-4,18.3-14.7,18.8
			c-10.7,0.5-0.2-14.6,0.6-19.6c0.8-5,0.8-23.1,0.8-23.1L668.3,351.7z"/>
		<path class="st7" d="M653.8,353.3c0-4.2-0.1-7.7-0.1-7.7l14.6,6.1c0,0-0.4,2.6-0.8,6C661.4,359.2,656.7,357,653.8,353.3z"/>
		<path class="st3" d="M669.4,314.2c0,0,6.2,2.2,9.4,8.6c3.2,6.4,3.8,24.4-10.1,31c-13.9,6.7-22.5-6.1-21.3-17.5
			C648.6,325.1,652.8,310.2,669.4,314.2z"/>
		
			<ellipse transform="matrix(0.9654 -0.2607 0.2607 0.9654 -64.0747 180.4019)" class="st3" cx="647.9" cy="331.7" rx="3.1" ry="5.4"/>
		
			<ellipse transform="matrix(0.4135 -0.9105 0.9105 0.4135 89.4258 819.2618)" class="st3" cx="680.6" cy="340.2" rx="5.6" ry="3.8"/>
	</g>
	<g>
		<path class="st8" d="M376.3,476.5c-2.1-6.2-88.5-257.8-92.3-268.8c-5.8-16.8-24.3-25.9-41.3-20.2l-128.8,42.9
			c-17,5.7-26.2,23.9-20.4,40.7L185.8,540c5.8,16.8,24.3,25.9,41.3,20.2l128.8-42.9C373,511.6,382.1,493.3,376.3,476.5z M345,483.3
			l-130.2,43.4c-9.8,3.3-20.5-1.9-23.8-11.7l-85.3-248.6c-3.3-9.7,1.9-20.2,11.8-23.5l130.2-43.4c9.8-3.3,20.5,1.9,23.8,11.7
			c20.7,60.4,83.5,243.2,85.3,248.6C360.1,469.5,354.8,480,345,483.3z"/>
		<path class="st0" d="M311.6,512.5c2,5.8-7.1,14-20.4,18.5c-13.2,4.4-25.6,3.3-27.5-2.5c-2-5.8,7.1-14,20.4-18.5
			C297.3,505.6,309.7,506.7,311.6,512.5z"/>
		<path class="st8" d="M308.1,512.9c1.9,5.4-5.7,12.9-16.9,16.6c-11.2,3.7-21.7,2.3-23.6-3.1c-1.9-5.4,5.7-12.9,16.9-16.6
			C295.7,506.1,306.3,507.5,308.1,512.9z"/>
	</g>
	<g>
		<path class="st2" d="M782.5,224.9l-144.8-32.7c-19.1-4.3-38,7-42.1,25.3l-66.1,292.2c-4.1,18.3,8,36.6,27.2,41l144.8,32.7
			c19.1,4.3,38-7,42.1-25.3l66.1-292.2C813.8,247.5,801.6,229.2,782.5,224.9z M734.8,532.3c-2.4,10.6-13.3,17.1-24.3,14.6
			l-146.3-33.1c-11-2.5-18.1-13.1-15.7-23.6l61.1-270.3c2.4-10.6,13.3-17.1,24.3-14.6l146.3,33.1c11,2.5,18.1,13.1,15.7,23.6
			L734.8,532.3z"/>
		
			<ellipse transform="matrix(0.2205 -0.9754 0.9754 0.2205 -39.3597 1047.744)" class="st4" cx="635.8" cy="548.5" rx="11.7" ry="27.6"/>
		
			<ellipse transform="matrix(0.2205 -0.9754 0.9754 0.2205 -38.3034 1047.8956)" class="st2" cx="636.5" cy="547.9" rx="11" ry="23.3"/>
	</g>
	<path class="st3" d="M688.9,378.4c0,0,47.6-11.6,58.2-13.5c10.6-1.9,47.4-15.2,48.8-15.8c1.4-0.6,6.7-19.5,8.7-18.2
		c2.1,1.3-3.2,9.5-0.6,10.6c2.6,1.1,24.8-8.9,24.9-7.1c0.3,3.4-13.3,6.6-12.9,8.1c0.4,1.5,13.9-4.7,15.6-2.4
		c1.6,2.3-13.3,4.7-13.6,6c-0.3,1.3,14.4-0.4,13.6,2.4c-0.4,1.5-13.1,1.2-12.5,2.9c0.5,1.8,10.1,3.5,9.5,5.2
		c-0.7,1.7-7.9-2.5-12.8-1.3c-5,1.3-9.2-0.4-16.5,3.9c-7.3,4.3-31.3,22.4-48.4,26.1c-17.1,3.7-54.7,12.1-54.7,12.1L688.9,378.4z"/>
	<path class="st4" d="M677.4,371.1c1.6-0.8,6.6-0.9,12.4-0.9c2.2,0,5.2,0,7.5,0c8.6-0.2,16.8,0.2,16.8,0.2s4.3,20.9,0.7,26.2
		c0,0-33.6,4.8-32.8,7.1L677.4,371.1z"/>
	<path class="st10" d="M560.8,371.2l2.9-3.7c0,0,1.8-2.8,4.5-3.1c2.7-0.3,2.6-3.7-0.2-3.2c-2.9,0.5-4.7,1.2-4.7,1.2s5.7-2.9,5.8-3.3
		c0.6-2.1-2.6-3-6.8,0.2C558.1,362.5,560.8,371.2,560.8,371.2z"/>
	<path class="st3" d="M172.3,481.2c-1.8,1-3.1,1.9-3.7,2.3c0-0.1,0.1-0.1,0.1-0.2c0.6-0.6,2.7-2.9,2.7-2.9c2.7-2.1,1.3-4.3-1.3-2.9
		c-2.6,1.4-4,2.6-4,2.6s4.4-4.3,4.4-5c-0.1-2.2-3.4-2-6.4,2.4c-2.6,3.8,1.2,10.4,2.4,12c1.1,2.3,3.1,3.3,3.1,3.3l0.7-4.3
		c0,0,0.8-3.2,3.3-4.4C176,483,174.9,479.8,172.3,481.2z"/>
	<path class="st10" d="M571.3,358c0,0,6.8-5.4,7.8-3.1c1.1,2.3,0.6,7.3-0.4,7c-1-0.4-0.9-3.9-3.8-3
		C574.2,359.1,570.1,360.3,571.3,358z"/>
	<g>
		<path class="st0" d="M689.8,172.6l-242.8-51.8c-13.6-2.9-22.3-16.3-19.4-30l4.7-21.8c2.9-13.6,16.3-22.3,30-19.4L705,101.4
			c13.6,2.9,22.3,16.3,19.4,30l-4.7,21.8C716.8,166.8,703.4,175.5,689.8,172.6z"/>
		<polygon class="st0" points="646.5,154.6 668.8,185.2 676,162.6 		"/>
		<g>
			
				<ellipse transform="matrix(0.2085 -0.978 0.978 0.2085 309.8238 550.1389)" class="st11" cx="494.8" cy="83.6" rx="10.1" ry="11.4"/>
			<path class="st11" d="M493.7,93.1l-1.8-0.4c-8.4-1.8-16.6,3.6-18.4,11.9l-1.3,6.2l32.1,6.8l1.3-6.2
				C507.4,103.2,502.1,94.9,493.7,93.1z"/>
		</g>
		
			<ellipse transform="matrix(0.2085 -0.978 0.978 0.2085 345.5718 639.4032)" class="st11" cx="567.8" cy="106.2" rx="19.7" ry="35"/>
		<polygon class="st11" points="570.9,121.7 559.9,132.1 585.9,125.9 584.9,109.2 		"/>
		<path class="st11" d="M650.5,120.2l3.9-1.9c1.2-0.6,1.8-2,1.5-3.3c-0.7-2.6-2.2-6.8-4.9-10.1c-0.8-1-2.2-1.3-3.4-0.7l-6.9,3.4
			c-0.9,0.4-1.5,1.3-1.6,2.2c-0.5,4-1,15.2,6,24.6c8,10.7,16.3,16.2,22.1,18.8c0.9,0.4,2,0.3,2.9-0.3l6.3-4.7
			c1.1-0.8,1.5-2.3,0.8-3.6c-1.3-2.5-4-6.5-9.1-9.4c-1.1-0.6-2.4-0.4-3.2,0.4l-2.4,2.1c-1,0.9-2.4,1-3.5,0.2
			c-2.3-1.5-6.2-5.3-9.9-14.1C648.6,122.5,649.1,120.9,650.5,120.2z"/>
	</g>
	<g>
		<path class="st4" d="M411.8,367.8l-36.6-22.2c-3.7-2.3-4.9-7.1-2.6-10.8l22.2-36.6c2.3-3.7,7.1-4.9,10.8-2.6l36.6,22.2
			c3.7,2.3,4.9,7.1,2.6,10.8l-22.2,36.6C420.4,368.9,415.5,370,411.8,367.8z"/>
		<g>
			<path class="st11" d="M431.1,337.8c1.4-1.4,0.9-4-1.1-5.8c-8.8-7.8-18.8-13.9-29.7-18.3c-2.5-1-5-0.2-5.7,1.7l0,0
				c-5.1,15-3.3,9.4-5.5,18.1c-0.5,2,0.6,4.1,2.6,4.9l0,0c2,0.8,4.4,0,5.4-2c0.5-1.1,1-2.2,1.5-3.3c0.6-1.3,2.2-1.7,3.6-1
				c3.7,1.9,7.3,4.1,10.7,6.5c1.3,0.9,1.6,2.6,0.8,3.7c-0.7,1-1.5,1.9-2.2,2.9c-1.3,1.8-0.9,4.2,0.7,5.7h0c1.6,1.3,3.9,1.4,5.5,0
				C419.5,349.4,428.3,340.8,431.1,337.8z"/>
			<g>
				<path class="st4" d="M402.8,319.6c0.5,0.3,0.8,0.7,1.1,1.1l1.2-2l-2.6-1.6l-1.2,2C401.8,319.2,402.3,319.3,402.8,319.6z"/>
				<path class="st4" d="M398.7,320.6c0.3-0.5,0.7-0.8,1.1-1.1l-2-1.2l-1.6,2.6l2,1.2C398.2,321.6,398.4,321.1,398.7,320.6z"/>
				<path class="st4" d="M399.7,324.7c-0.5-0.3-0.8-0.7-1.1-1.1l-1.2,2l2.6,1.6l1.2-2C400.7,325.1,400.1,325,399.7,324.7z"/>
				<path class="st4" d="M404.2,322.2c0,0.5-0.1,1-0.4,1.5c-0.3,0.5-0.7,0.8-1.1,1.1l2,1.2l1.6-2.6L404.2,322.2z"/>
			</g>
			
				<ellipse transform="matrix(0.5194 -0.8546 0.8546 0.5194 -82.4638 497.6978)" class="st4" cx="401.2" cy="322.2" rx="1.8" ry="1.8"/>
			
				<ellipse transform="matrix(0.5193 -0.8546 0.8546 0.5193 -83.5221 522.2963)" class="st4" cx="422.5" cy="335.4" rx="3.9" ry="3.9"/>
		</g>
	</g>
	<path class="st1" d="M446.3,198.2c0,0,1.3-7.6,9.2-11.2c7-3.3,14.6,0.4,17.8,7.2c3.7,7.9,1.4,20.4-11.9,36.5
		c-20.9-0.2-31.9-6.6-35.6-14.5c-3.2-6.9-1.1-15,6-18.3C439.7,194.3,446.3,198.2,446.3,198.2z"/>
	<path class="st5" d="M192.4,164.2l-46.5,22.2c-5.5,2.6-12.1,0.3-14.7-5.2l-12.5-26.2c-2.6-5.5-0.3-12.1,5.2-14.7l46.5-22.2
		c5.5-2.6,12.1-0.3,14.7,5.2l12.5,26.2C200.2,155,197.9,161.6,192.4,164.2z"/>
	<polygon class="st5" points="126.9,166.8 116.9,196.5 139.1,180.2 	"/>
	<g>
		<path class="st11" d="M143.3,155.4l5.9-3c0,0,4.8-9.2,4-11.3c-0.7-2.1-4-5.7-3.1-6.8c0.9-1.1,3.2-2.7,6-0.8c2,1.4,4.5,8.7,5.4,8.9
			c0.6,0.1,4-1.5,6.5-2.8c1.6-0.8,3.6-0.6,5.1,0.4l0,0c1,0.7,1.3,2.1,0.8,3.2l-0.8,1.8l1.7,0.9c1.3,0.7,1.8,2.2,1.1,3.5l-0.7,1.3
			l1.1,0.5c1.4,0.6,2,2.3,1.3,3.7l-0.6,1.1l0.3,0.2c1.1,0.8,1.4,2.3,0.7,3.4l-0.6,1.1l-15.7,8c-1.5,0.7-3.1,1.2-4.7,1.3l-6,1.9
			c-0.6,0.2-1.3-0.1-1.6-0.7l-6.8-13.8C142.4,156.5,142.7,155.7,143.3,155.4z"/>
	</g>
	<g>
		<path class="st6" d="M528.2,228.1c35.2-8,67.6,3.1,72.5,24.7c2.5,10.8-2.5,22.2-12.4,31.9l21.5,28.6l-35.7-17.9
			c-8.1,4.8-17.7,8.6-28.3,11c-35.2,8-67.6-3.1-72.5-24.7C468.5,260.1,493,236.1,528.2,228.1z"/>
		
			<ellipse transform="matrix(4.043177e-02 -0.9992 0.9992 4.043177e-02 253.018 792.8881)" class="st2" cx="539.3" cy="264.7" rx="22.8" ry="22.8"/>
		<path class="st11" d="M527,267.8c-0.3,6.7,5,12.4,11.7,12.6c6.7,0.3,12.4-5,12.6-11.7L527,267.8z"/>
	</g>
	<polygon class="st1" points="85.9,328.7 74.3,331 75.7,342 64.4,344.8 64.5,355.4 56.3,358.8 58.1,363 69,358.3 68.9,348.3 
		80.7,345.4 79.2,334.6 89.8,332.5 	"/>
	<polygon class="st1" points="858.7,418.6 855.4,407.3 844.6,409.6 841,398.5 830.4,399.4 826.3,391.6 822.3,393.7 827.8,404.2 
		837.8,403.3 841.7,414.8 852.3,412.5 855.2,422.8 	"/>
	<polygon class="st4" points="87.8,207.4 81.3,209.3 76.9,199.3 67.1,201 62.6,194 59.1,196.3 65.1,205.6 74.4,204 78.9,214.5 
		88.7,211.5 	"/>
	<g>
		<path class="st3" d="M328.2,248.1c-2.3-1.9-7.5-3.4-10.2-3.6c-2.6-0.2-14.1-0.2-15.6,2.5c-1.5,2.8,10.6,10.6,11.2,13.8
			c0.6,3.3-7,53.8-9.2,63.8c-1.1,4.9-5.3,14.3-9.2,22.4c5.7,0.9,12.6,5.6,17,8.9c5.6-12.2,11.3-25.9,12-32.4
			C325.6,310.5,330.4,250,328.2,248.1z"/>
		<g>
			<g>
				<path class="st0" d="M361.5,161c-3.9-0.3-24.4,15.3-24.4,15.3l-0.9,1.2c0,0,27.6,4.7,28.9,3.8C368.6,179,364.7,161.3,361.5,161z
					 M337.2,176.8c6.7-4.9,20.4-10.8,23.4-12c1.5,2.8,2.9,10.2,2.5,13.2C359.8,177.7,345.2,178.1,337.2,176.8z"/>
			</g>
			<g>
				<path class="st0" d="M331.6,148.1c-3.5-9.5-7-9-9.5-8.7c-2.5,0.3-13.5,8.1-12.5,14.1c1,6,23.1,23.5,23.1,23.5l1.5-1.7
					C334.2,175.3,335.1,157.5,331.6,148.1z M313,152.9c-0.5-3,7.1-9.4,9.7-10.2c0.6-0.1,1.1-0.1,1.5,0c0.5,0.1,2.1,1,4.2,6.6
					c2.3,6.1,4.7,20.2,4.6,25.8C324.2,167.7,313.6,155.5,313,152.9z"/>
			</g>
			<path class="st0" d="M332.9,180.7l1.2,0.3c1.2,0.3,2.4-0.3,2.8-1.5l1-3.5c0.3-1.2-0.3-2.4-1.5-2.8l-1.2-0.3
				c-1.2-0.3-2.4,0.3-2.8,1.5l-1,3.5C331.1,179.1,331.8,180.4,332.9,180.7z"/>
			<path class="st1" d="M355.4,258.1l-76.1-21.7c-4.1-1.2-6.6-5.3-5.7-9.5l13.5-62.3l99.2,28.3l-22.3,62.5
				C362.9,258,359.2,259.2,355.4,258.1z"/>
			<path class="st5" d="M386.4,207.3l-107.7-30.5l0.8-7.2c0.5-4.3,4.8-7.2,9-6l97.3,28.1c3.5,1,5.6,3.9,4.5,6.3L386.4,207.3z"/>
			
				<rect x="325.9" y="183.4" transform="matrix(0.2745 -0.9616 0.9616 0.2745 64.5983 454.5266)" class="st0" width="15.3" height="2.1"/>
			
				<rect x="297.2" y="218.6" transform="matrix(0.2745 -0.9616 0.9616 0.2745 24.9283 472.9575)" class="st0" width="57.4" height="2.7"/>
		</g>
		<path class="st3" d="M308.5,248l0.3-3.2c-2.6-0.7-5.6-1.8-7.2-2.5l-0.4-2.5c-1.4-3.4-2.9-1-3.3-0.2c0,0-0.1,4.3,0.4,4.9
			c0,0,5.1,5.4,7.3,7.5c1.1,1,4.5,3.8,4.5,3.8l2.8-3.8L308.5,248z"/>
	</g>
</g>
</svg>
