<?xml version="1.0" encoding="utf-8"?>
<!-- Generator: Adobe Illustrator 20.0.0, SVG Export Plug-In . SVG Version: 6.00 Build 0)  -->
<svg version="1.1" id="Layer_1" xmlns="http://www.w3.org/2000/svg" xmlns:xlink="http://www.w3.org/1999/xlink" x="0px" y="0px"
	 viewBox="0 0 1200 800" style="enable-background:new 0 0 1200 800;" xml:space="preserve">
<style type="text/css">
	.st0{fill:#0B0754;}
	.st1{fill:#4951EC;}
	.st2{fill:#BED1F9;}
	.st3{fill:#FAE0B2;}
	.st4{fill:#184655;}
	.st5{fill:#7C9AF2;}
	.st6{fill:#355389;}
	.st7{fill:#F7A491;}
	.st8{fill:#EF7F7F;}
	.st9{fill:#E8605D;}
	.st10{fill:#FA7167;}
	.st11{fill:#FB9390;}
	.st12{fill:#F48C7F;}
	.st13{fill:#92B5F9;}
	.st14{fill:#F47458;}
	.st15{fill:#FFFFFF;}
	.st16{fill:#DDE8FE;}
	.st17{fill:#3C4CD6;}
</style>
<g>
	<g>
		<path class="st0" d="M446.2,675.5c5.8-31.8,16.7-62.6,32.8-91.2c4.6-8.1,9.5-16,14.8-23.7c2.5-3.6-3.7-7-6.2-3.4
			c-19.1,27.6-33.4,58.1-42.2,89.8c-2.5,8.9-4.4,17.8-6,26.8c-0.3,1.7,0.5,3.5,2.5,4C443.6,678.2,445.9,677.3,446.2,675.5
			L446.2,675.5z"/>
	</g>
	<g>
		<path class="st0" d="M518.7,569.3c5,4.2,7.4,10.1,9.5,15.9c2.5,7,4.5,14.1,6.1,21.3c3.2,14.2,4.7,28.6,5.6,43.1
			c0.5,8.4,0.9,16.8,1.2,25.2c0.2,4.4,7.5,4.4,7.4,0c-1.2-30.2-2.5-61.1-12.9-90.1c-2.6-7.2-5.6-14.8-12-20c-1.4-1.1-3.5-1.3-5,0
			C517.4,566,517.3,568.2,518.7,569.3L518.7,569.3z"/>
	</g>
	<path class="st0" d="M529.7,543.7h-98c-7,0-12.7,5.2-12.7,11.7l0,0c0,6.4,5.7,12.2,12.7,12.2l114,4.1c6.5,0,13.7-8.8,15.3-14.6
		l29.4-108.7c1.8-6.7-2.7-13.5-10-15l0,0c-7.1-1.5-14.2,2.5-16.1,9l-26.6,95.6C536.8,541.3,533.5,543.7,529.7,543.7z"/>
	<polygon class="st1" points="497.2,281.5 488.3,281.2 487.5,289.5 478.7,289.6 476.9,297.4 470.4,298.5 471,301.8 479.7,300.3 
		481.4,292.9 490.5,292.8 491.4,284.7 499.4,285 	"/>
	<polygon class="st2" points="389.6,433.3 388.3,438.1 395.7,441.1 394.6,448.3 399.7,451.5 398.1,454.1 391.2,449.8 392.3,443 
		384.6,439.9 386.6,432.7 	"/>
	<polygon class="st2" points="592.5,409.3 585.7,410.8 581.4,405.2 573.9,407.4 571.2,400 562.6,402.1 559.2,395.6 550.6,396.2 
		550.9,399.5 557.3,399 560.8,405.9 569.1,403.8 571.9,411.4 580.2,408.9 584.4,414.5 590.7,413.1 592.7,417.3 595.6,415.9 	"/>
	<polygon class="st2" points="412,430.2 416.1,427.5 414.4,424.7 407.6,429.1 411.9,436.7 407.4,442 410.2,447.8 406.6,450.7 
		408.6,453.3 414.3,448.8 411.3,442.5 415.8,437 	"/>
	
		<rect x="317.5" y="488.6" transform="matrix(-1 -1.224647e-16 1.224647e-16 -1 764.9268 1019.9111)" class="st2" width="129.9" height="42.8"/>
	
		<rect x="263.7" y="486.1" transform="matrix(-1 -1.224647e-16 1.224647e-16 -1 624.5648 1139.1708)" class="st3" width="97.1" height="166.9"/>
	
		<rect x="441.6" y="480.2" transform="matrix(-1 -1.224647e-16 1.224647e-16 -1 896.8355 1154.6255)" class="st0" width="13.7" height="194.3"/>
	
		<rect x="304" y="652.6" transform="matrix(-1 -1.224647e-16 1.224647e-16 -1 617.9542 1327.1111)" class="st4" width="9.9" height="21.8"/>
	
		<rect x="249.4" y="653" transform="matrix(-1 -1.224647e-16 1.224647e-16 -1 508.6836 1327.4359)" class="st4" width="9.9" height="21.5"/>
	<g>
		<path class="st1" d="M332.3,476.5c0.2,0,0.5,0,0.7-0.1c2-0.5,3.4-2.8,3-5.1c0,0-16.1-92.9-17.4-93.4c-0.4-0.2-1.3-2.1-1.4-2.1
			c-0.2,0-0.4,0-0.6,0.1c-2,0.5-3.4,2.8-3,5.1l14.9,91.9C329,475,330.6,476.5,332.3,476.5z"/>
		<path class="st5" d="M365.1,384.5l14.9,89.6l-46.2,0.6l-16.5-98.9l42,2.3C362.4,378.3,364.7,382.1,365.1,384.5z"/>
		<path class="st6" d="M444.7,472.1c0,0.1,0,0.1,0,0.2l0,0c0,2.9-1.7,5.2-3.7,5.2l-58.7,0.1c-2.1,0-3.8-2.3-3.8-5.2
			c0-0.1,0-0.2,0-0.4H444.7z"/>
		<path class="st1" d="M427.7,472.1c0,0.1,0,0.1,0,0.2l0,0c0,2.9-2.5,5.3-5.6,5.3l-87.9,0.2c-3.1,0-5.6-2.3-5.6-5.2
			c0-0.1,0-0.2,0-0.4H427.7z"/>
	</g>
	<path class="st7" d="M409.6,634.3c-3.6,6.6-12.3,28.5-12.6,30.2c-0.1,0.5-1.3,2.1-1.7,2.4c-11.3,1.1-19.5-4.9-25.8-10.9
		c5.9,0.4,14.9-1.1,16.3-1.3c3.4-0.6,3.1-11,5-22.7C393.7,633.3,405.2,630.3,409.6,634.3z"/>
	<path class="st0" d="M397,664.3c-0.9,3.7-4.8,10.4-5.6,10.2c-0.9-0.2-34.2-12.2-37-16.9c-1.8-2.9,7.3-3.1,14.6-2.7
		C375.3,660.9,395.1,665.3,397,664.3z"/>
	<path class="st1" d="M517.1,540.6l-77.4,4.5l-28.2,97.7l-22.4-4.4c0,0,12.6-101.1,19.9-109.5c20-23.1,89.8-20.3,89.8-20.3
		L517.1,540.6z"/>
	<path class="st7" d="M457.3,639.5c-0.3,4.5-1.3,10-1.1,15.2c0.1,3.5,1.4,7.8,1.6,8.5c0.1,0.5-0.3,2.4-0.6,2.9
		c-9.8,5.7-19.8,3.7-28,0.8c5.5-2.1,9.4-6.2,10.8-7.8c2.4-2.6,0.7-10.2-2.4-21.7C441,637.5,451.7,637.7,457.3,639.5z"/>
	<path class="st5" d="M509,501.7c0,0-72.2,1.4-90.3,27.9C405.2,549.4,439,647.4,439,647.4l20.3-3.7c0,0-4.7-66.4-8.1-88.3
		c-0.6-3.7-3.2-14.7-3.2-14.7s9,2.7,25.8,3.8c23,1.5,56.5,1.1,63.8-2.7c12.5-6.5,17.7-24.1,12.2-35.6
		C544.3,494.6,509,501.7,509,501.7z"/>
	<path class="st0" d="M457.8,663.1c1.3,2.3,1.9,11.3,1.1,11.5c-0.9,0.2-39.1,2.3-43.7-0.8c-2.8-1.9,7.2-4,14-6.7
		C437.5,669.8,457.4,665.5,457.8,663.1z"/>
	<path class="st8" d="M453.6,453.6c0,0-21,5.3-31.5,8.6c-10.5,3.3-23.9,4.3-23.9,4.3l-11.3,6l24.2,0.7l56.4-5l4.8-13.1L453.6,453.6z
		"/>
	<path class="st9" d="M469.4,411.1l-10,1.4c0,0-3.6,0.7-6.4,16.5c-2.9,15.8-6.9,24.1-6.9,24.1l24.6,9.8
		C488.5,438.1,500.9,408.7,469.4,411.1z"/>
	<path class="st10" d="M468.8,396.8c-6.4,1.1-6.8,6.3-6.8,6.3l-6.6,27.3c0,0-0.6,11.6,0.7,16c2.6,8.6,7.8,12,16.4,15
		c11.4,3.9,15.8,13.7,20.7,19.4c8.5,9.9,1.6,21.8,1.6,21.8l59.4,8.3c0,0,0.8-11.6-12.6-44.2C529.9,438.5,501.9,391,468.8,396.8z"/>
	<path class="st11" d="M489.9,400.1c-7.3-8-25.8,1.9-20.1,28.4c0,0.2,2.1,28,0.4,31.5c-1.1,2.1-26.9,1.1-42.5,4.4
		c0,0-16.9-6.3-22.8-6.7c-4.4-0.3-14.8,3-14.8,3s-13.5,9.9-11.6,11.6c2.6,2.2,8.9-7.6,14.3-7.6c0,0-9.7,7.5-6.7,7.7
		c3,0.2,7.1-2.1,9.3-2.7c2.2-0.7,10.2,3.3,17.2,4.2c1.2,0.1,5.8-0.1,11.1,0.6c5.4,0.7,11.5,2.7,18.7,3c19.3,0.9,41.1,3,46.5-2.4
		C492.9,471.1,502.2,413.6,489.9,400.1z"/>
	<path class="st9" d="M493.2,458.7c-11.8-1.5-23.6-6-23.6-6s-1-23.3-1.1-24.2c-0.8-12.2-0.3-22,4.8-28.3c2.6-3.2,5.3-3.9,8.6-3.9
		c3.1,0,7.3,1.2,9.6,4.1c8.2,10.5,5.1,41,2.5,57.8l-0.1,0.7L493.2,458.7z"/>
	<path class="st1" d="M463.4,351.7c0.9-7.9,0.9-37.7,19-37.1c18.1,0.6,18.3,20.6,32.9-3.5c13.6-22.3,38.8-7.9,36.4,10.6
		c2.6,0.3,5.1,1.1,7.4,2.7c7.9,5.3,9.9,16.3,4.3,24.7c-0.9,1.3-0.8,2.8-1.9,3.9c0.6,8.3-2.6,17.1-10.5,25.2
		c-21.5,22-33.3-7.7-44.9-8.4c-11.6-0.7-5.9,9.5-17,14.6c-11.1,5-18.7,1.7-31.1-20.1l-3-5.9C455.2,358.2,462.5,359.6,463.4,351.7z"
		/>
	<path class="st1" d="M453,346.3c12.8,8.9,15.6,31.6,3.8,42.4c-7.6,7-22.7,8.3-31,1.3c-13.5-11.3-15.1-24.1-10.3-34.2
		C421.7,342.8,442.4,338.9,453,346.3z"/>
	<path class="st11" d="M457,377c0,0,3.9,12.2,17.8,19.3c1.7,0.9-19.3,34.7-19.3,34.3c-0.1-2.6,3.6-17.8,2.7-19.7
		c-2.5-5.1-16.7-28.5-16.7-28.5L457,377z"/>
	<path class="st8" d="M449,379.8l-7.6,2.6l0,0c0,0,6.3,10.3,11.2,18.7c1.8-1.4,3.3-3.5,4.5-6.4c2-4.6,2.3-9.3,1.5-13.8
		c-1.2-2.3-1.7-3.8-1.7-3.8L449,379.8z"/>
	<path class="st11" d="M428.6,354.1c0,0,6.8-2.9,14.2-0.1c7.4,2.8,20.7,20.8,13.9,36.6c-6.9,15.8-23.3,8-30.6-2.1
		C418.9,378.5,411.6,363.4,428.6,354.1z"/>
	<path class="st1" d="M458.1,363.1c-5.9-10.2-12.3-16.2-21.4-13.9c-9.1,2.3-17.2,3.9-17.8,14.5l-0.7,1.8c0,0,13.1-6.4,18.6-1.4
		c5.4,5,16.8,6.6,18.3,10.1c1.5,3.5,5.3,9.8,5.3,9.8l0.7-3.9C461.2,380.1,464,373.3,458.1,363.1z"/>
	<path class="st11" d="M444.3,369.3c1.2,3.2,4,5,6.2,4.1c2.2-0.9,3-4.2,1.7-7.4c-1.2-3.2-4-5-6.2-4.1
		C443.9,362.8,443.1,366.1,444.3,369.3z"/>
	
		<rect x="210.4" y="486.1" transform="matrix(-1 -1.224647e-16 1.224647e-16 -1 578.7835 1139.1708)" class="st2" width="157.9" height="166.9"/>
	
		<rect x="366.2" y="482.4" transform="matrix(-1 -1.224647e-16 1.224647e-16 -1 745.3763 1156.9565)" class="st0" width="13" height="192.1"/>
	
		<rect x="207" y="483.9" transform="matrix(-1 -1.224647e-16 1.224647e-16 -1 421.3141 1159.8499)" class="st4" width="7.4" height="192.1"/>
	<path class="st0" d="M182.1,489.3h282.7c3.3,0,5.9-2.6,5.9-5.9v0c0-3.3-2.6-5.9-5.9-5.9H182.1c-3.3,0-5.9,2.6-5.9,5.9l0,0
		C176.2,486.7,178.9,489.3,182.1,489.3z"/>
</g>
<g>
	<path class="st1" d="M1108.7,677.3c0-2-1-3.6-2.2-3.6H135.6c-1.4,0-2.6,1.6-2.6,3.6s1.2,3.6,2.6,3.6h970.9
		C1107.8,680.8,1108.7,679.2,1108.7,677.3L1108.7,677.3z"/>
</g>
<g>
	<path class="st11" d="M773.4,108.3h91.4c25.6,0,46.3-20.7,46.3-46.3v-1.9c0-25.6-20.7-46.3-46.3-46.3h-91.4
		c-25.6,0-46.3,20.7-46.3,46.3V62C727.2,87.6,747.9,108.3,773.4,108.3z"/>
	<polygon class="st11" points="862,96.8 865.5,163.7 818.3,95.3 	"/>
</g>
<g>
	<path class="st8" d="M677.7,302.5l3-13.8c0,0,9.9,6.3,15.7,15.3c5.8,9,8.6,33,10.2,33.9c1.7,0.9,20-27.3,23.2-31.8
		c4-5.5,5.4-11.8,7.9-16.6c2.5-4.8,11.2-6.4,14.5-5.8c3.3,0.6-4.5,14.6-4.5,14.6s-19.9,34.5-26.5,53.4
		c-6.6,18.9-27.3,27.9-30.6,25.2C687.4,374.2,677.7,302.5,677.7,302.5z"/>
	<path class="st11" d="M738,292.1c0,0,0.8-3.6,3.1-4.4c2.2-0.7,6.1-0.1,6.4,0c0.2,0.1,4.5-2.2,4.5-2.2l-3.6,6.6c0,0-6.9,8.2-9.2,5.1
		C736.8,294.2,738,292.1,738,292.1z"/>
	<path class="st12" d="M753.2,285.8c0,0,2.5,12.7,1.9,15.4c-0.6,2.7-2.2,1.2-2.5,0.7c-1.2-2.4-2.1-10.6-2.1-10.6L753.2,285.8z"/>
	<path class="st12" d="M747.8,296.4c0,0,1.2,7.9,2.4,8.8c0.8,0.6,1.8,0.2,2.1-1.3c0.3-1.6-1.6-11.3-1.6-11.3L747.8,296.4z"/>
	<path class="st0" d="M740.5,318.9l-4.2-2l17.7-36.2l0,0c2.3,1.1,3.2,3.9,2.1,6.2L740.5,318.9z"/>
	<path class="st0" d="M696.1,245.8c2.5-11.3,4.9-22.7-1.6-35.2c-5.3-10.1-14.5-15.9-25.1-17.1c-30.1-3.6-23.7,24.6-65.8,30.6
		c-13.1,1.9-25.2,3.7-36.2,10.2c-19.7,11.8-27.2,30.6-14.1,61.3c32,75.2,110.7,11.4,120.4-3.4C680.9,281.2,694.5,253,696.1,245.8z"
		/>
	<path class="st11" d="M575.6,720.9c0,0-2.1,21.8-7.7,25.8c-5.5,4-12.9,18.8-9.2,26.8c1.1,2.5,3.4,3.9,6.1,4.8
		c7.8,2.4,16-1.6,19.3-9c1.8-4.1,3.5-9.7,3.8-16.6c0.8-17.7,6.3-26.7,6.3-26.7L575.6,720.9z"/>
	<path class="st11" d="M660.4,729.8c0,0,1.7,22,0.3,29.1c-0.8,3.8-5,11.7-3,15.3c1.9,3.6,4.1,4.5,4.1,4.5l50,0.8
		c2.7,0,0.9-1.7-1.3-3.3c-3.6-2.6-6.5-4.4-18-9.9c-0.7-0.4-3.5-2.1-4.5-2.7c-2.5-1.5-5-3.9-7.2-6.3c-3.6-4-3.9-23.4-3.9-23.4
		L660.4,729.8z"/>
	<path class="st13" d="M699.5,437.5c0,0,6.3,35.7,2.2,59.1c-4.1,23.4-24,240.3-24,240.3l-22.1,1.2c0,0-4.6-90.6-3.8-103.2
		c0.8-12.6,7.4-33.7,7.4-33.7l-2.2-73.2l27.8-96.1L699.5,437.5z"/>
	<path class="st2" d="M634.6,430c0,0-17.4,26.1-21.5,47.7c-4.1,21.6,3,88-4.9,116.3c-4.3,15.3-20.6,39-23.1,58.8
		c-2.5,19.8-12.2,71.7-12.2,71.7l22.1,4.4l51.3-129.5l40.2-117.1l10.3-60.3L634.6,430z"/>
	<path class="st5" d="M648.7,281.5c0,0-15.2,1.7-24.3,11.6c-9.1,9.9,14.7,89.5,16.4,102.1c1.7,12.6-13.6,42-13.6,42
		s56.9,10.5,72.3,0.3c0,0,1.7-90.6,0-99.6c-1.7-9-15.4-45.6-18.8-49.2C677.4,285.1,648.7,281.5,648.7,281.5z"/>
	<path class="st11" d="M627.2,300.6c1.5-4.4,6.5-6.6,10.8-4.7c5.9,2.5,14,7.4,17.9,15.6c6.6,13.8,29.8,61.2,37,63
		c7.2,1.8,36.4-49.2,36.4-49.2s-0.8-9,1.7-14.1c2.5-5.1,9.9-10.5,11-8.7c1.1,1.8-4.1,6.3-4.1,7.2c0,0.9,2.2,1.5,5.2-0.3
		c3-1.8,4.7-5.4,4.7-5.4s5,9-0.3,17.1c-5.2,8.1-7.4,11.4-7.4,11.4s-33.9,75.3-46.3,76.2C682.1,409.6,615.6,335.7,627.2,300.6z"/>
	<path class="st11" d="M656.4,250.8c0,0-0.1,0.7-0.3,1.8c-1,5.5-5,23.8-7.6,28.9c-3.2,6.1,11,25.5,24.8,23.1
		c4.1-0.7-3.5-17.8-3.1-19.6c0.7-3.5,1.6-8.2,2.6-13.1c0.5-2.7,1.1-5.5,1.6-8.1c1.5-7.4,2.7-13.5,2.7-13.5L656.4,250.8z"/>
	<path class="st8" d="M656,252.7c0.2-1.2,0.3-1.8,0.3-1.8l20.6-0.5c0,0-1.2,6.1-2.7,13.5c-0.5,2.6-1.1,5.4-1.6,8.1
		c-3.2-0.5-6.5-2-9.8-4.9c-3.6-3.2-6-7-7.4-11C655.7,254.6,655.9,253.5,656,252.7z"/>
	<path class="st11" d="M668.7,201.9c0,0-8.4,1.2-14.5,9c-6.1,7.8-12.6,32.1,2.5,45.3c15.1,13.2,30-1.7,32.2-17.6
		S690.7,201.4,668.7,201.9z"/>
	<path class="st11" d="M693.8,233.3c-1.8,3.5-4.8,5.4-6.8,4.3c-1.9-1.1-2-4.8-0.2-8.3c1.8-3.5,4.8-5.4,6.8-4.3
		C695.5,226,695.6,229.8,693.8,233.3z"/>
	<path class="st0" d="M671.3,201.6c0,0-13,23.1-22.2,24.1c-9.3,1.1-10.5,13.3-10.5,13.3s3.3-28.3,12.5-33.7
		C660.2,199.9,671.3,201.6,671.3,201.6z"/>
	<path class="st11" d="M652.1,231.2c0.8,4.1-0.8,7.9-3.4,8.4c-2.6,0.5-5.4-2.3-6.1-6.4c-0.8-4.1,0.8-7.9,3.4-8.4
		C648.6,224.2,651.3,227.1,652.1,231.2z"/>
	<path class="st0" d="M585.6,765.3c-12,2.2-20-4.8-24.2-10.1c-3.1,6-4.9,13.4-2.7,18.3c2,4.3,7.4,5.5,11.9,5.7
		c4.8,0.2,9.3-2.3,11.7-6.5C583.5,770.6,584.6,768.2,585.6,765.3z"/>
	<path class="st0" d="M688.1,763.6c-13.2,3.4-23,1.1-28.5-1.1c-1.4,4-3.3,9-2.3,11.9c1.2,3.5,2.9,4.3,4.5,4.4
		c12.1,0.3,44.3,0.7,53.5,0.9c1.3,0,2-1.5,1.2-2.5C714.2,774.4,689.1,764.2,688.1,763.6z"/>
</g>
<g>
	<path class="st2" d="M141.6,249.7c21-29.5,67.6-15.9,69,20.3c0,0.4,0,0.8,0,1.3c0.9,42.8-31.6,53.9-21.4,84.6
		c10.2,30.7,41.3,7.8,53.4,58c12.1,50.2-29.2,78.1-25.5,107.8c3.7,29.8,21.4,49.6,20.5,88.4c-0.7,28.8-53,118.1-53,118.1
		s-69.8-76.3-71.6-127.4c-1.8-48.5,33-44,34.8-89.5c1.9-45.6-66.1-51.7-33-108.9c7-12.1,24.9-23.8,24.9-49.9c0-26-23.6-65.7-5-93
		C137,256.3,139.3,253,141.6,249.7z"/>
	<path class="st5" d="M217.1,521.8c-3.7-29.8,37.6-57.6,25.5-107.8c-12.1-50.2-43.2-27.3-53.4-58c-10.2-30.7,22.3-41.9,21.4-84.6
		c0-0.4,0-0.9,0-1.3c-0.8-22.2-18.7-35.9-37.3-36.4l-0.1,1.2c0,0-26,105.4-8.7,158.7c17.4,53.3,31,57,22.3,129
		c-8.7,71.9-2.3,205.8-2.3,205.8s52.3-89.3,53-118.1C238.5,571.4,220.8,551.5,217.1,521.8z"/>
	<g>
		<path class="st14" d="M228.8,762.6H115.5c-14.4-13.6-23.2-32.3-22.9-52.9c0.2-10.4,2.2-19.4,6.5-28.3l146.1,1.7
			c4,9,6.2,18.9,6,29.3C251,732,242.5,749.6,228.8,762.6z"/>
	</g>
</g>
<g>
	<path class="st2" d="M757.6,151.8h-73.7c-20.6,0-37.3-16.7-37.3-37.3V113c0-20.6,16.7-37.3,37.3-37.3h73.7
		c20.6,0,37.3,16.7,37.3,37.3v1.5C794.9,135.1,778.2,151.8,757.6,151.8z"/>
	<polygon class="st2" points="693.8,141.3 679.4,184.6 721.4,141.3 	"/>
	<ellipse class="st15" cx="682.7" cy="116.6" rx="7.4" ry="6.9"/>
	<ellipse class="st15" cx="720.7" cy="116.6" rx="7.4" ry="6.9"/>
	<ellipse class="st15" cx="758.6" cy="116.6" rx="7.4" ry="6.9"/>
</g>
<g>
	<path class="st1" d="M214.4,534.6c0,0,61.7-18.5,64.1-18c2.4,0.5-7.2,21-6,27.7c0.4,2.1-52.8,32.5-64.6,30.3
		c-12.9-2.4-62.4-45-67.7-54.3c-5.9-10.3-16.2-36.1-9.4-45.8c3.1-4.4,10.7-10.3,16-9.1C167.8,470.4,190.5,507.5,214.4,534.6z"/>
	<path class="st5" d="M217.7,605.3c-0.4-1.8-13.2-31.6-13.8-34.6c-8.5-39.7-41.2-97.6-56.3-105.1c-2.4-1.2-19.9-1.3-19.9-1.3l9,4.5
		c10.3,9.4,21.8,20.3,29.2,32.4c21.3,35.2,35.8,116.3,37.8,116.1C205.8,617.1,218.6,609.3,217.7,605.3z"/>
	<path class="st2" d="M197.5,606.4c-29.9-17.4-34.6-58.5-47.3-80.6c-15.5-27-38.4-30-77.7,19c-48.2,60.1-23.7,180.9,42.9,219.7
		l159.7-0.3c32.9-11.8,47.5-29.2,59.3-58.1C387,577.3,264.1,645.1,197.5,606.4z"/>
	<path class="st11" d="M268.3,739.8c0,0-1.1,19.7-1.1,19.7c-0.4,2.5-2,8.7-2,10.9c0,8.5,38-7.2,29.5-11c-0.8-0.3-6-4.9-6.3-7.8
		c-0.4-4.5-0.2-11.6-0.2-11.6L268.3,739.8z"/>
	<path class="st0" d="M294.1,759.1c0,0-8.9,2.6-13.5,3.3c-4.6,0.7-10.6-4.8-13.8-3.4c-2.6,1.2-3.7,10-4,14.5c-0.1,1.4,1,2.6,2.4,2.7
		c10.5,0.5,50.4,2.4,60.8-0.6C331.3,774,312.3,765.2,294.1,759.1z"/>
	<path class="st0" d="M375,720.1c0,0-8.9,2.6-13.5,3.3c-4.6,0.7-10.6-4.8-13.8-3.4c-2.6,1.2-3.7,10-4,14.5c-0.1,1.4,1.1,3,2.5,3.1
		c11.6,1.1,50.3,1.9,60.6-1C412.2,735,393.2,726.2,375,720.1z"/>
	<path class="st11" d="M337.6,704.1c0,0,10.7,15,11.7,18.3c1,3.3,25.7,5.7,25.7-2.4c0-0.1-7.7-6.3-9.8-9.2
		c-3.6-4.8-12.1-20.6-12.1-20.6L337.6,704.1z"/>
	<path class="st0" d="M107.7,377.1c0,0-12-8.1-17.1,6.1c0,0-6.8-2.1-9.7,4.9c0,0-11.7-0.9-10.7,16.1c0,0-5.9,0.2-5.1,7
		c0.7,6.9,5.1,10.6,5.1,10.6s-2.6,3.1,0.2,8.9c2.4,5,6.9,4.8,6.9,4.8s3.1,8.6,7.5,10.4c4.4,1.8,9.3-0.6,9.3-0.6s2.4,4.5,6.8,3.1
		c4.4-1.4,9-6.9,14.4-6.1c5.4,0.8,17.9-4.1,17.9-4.1s13.1-9.7,5.5-23.6c0,0,6.1-8.6-2.4-15.4c0,0,2-14-9.3-19.6
		C115.5,374.1,107.7,377.1,107.7,377.1z"/>
	<path class="st10" d="M298.7,589.8c-10-4.9-115.1,11.4-115.1,11.4L171,581.1l-41,9.3c0,0-11.6,13.4-12.1,19.4
		c-1.6,19.4,7.3,51.9,17.3,55.1c35.7,11.3,112.3-11.8,123.1-14.2c0,0-0.4,17.4,2.9,52.8c1.3,14,3,29.5,4.5,43
		c9.4,0,18.8-0.2,28.2-1.4C293.9,745,308.8,594.7,298.7,589.8z"/>
	<path class="st9" d="M365.4,702c-18-45.4-57-134.5-71.1-137c-18.5-3.3-110.6,36.2-110.6,36.2l93.4-1.9c0,0,0.5,0.9,4.6,20.5
		c3.2,15.3,38.3,69,58.3,98.8C349.2,714.4,358.4,710.5,365.4,702z"/>
	<path class="st15" d="M128.1,464.6c0,0-23.3-0.3-25.7,0.3c-2.5,0.5,2,94.9,5,130.2c3,35.2,7.9,40.5,7.9,40.5s33.2,0.1,56.1-7.1
		c23.8-7.5,29.5-35.2,29.5-35.2s-21.6-63.3-30.2-82.9c-5.5-12.6-16.6-26.7-27.8-38.2C136.4,465.6,128.1,464.6,128.1,464.6z"/>
	<path class="st11" d="M121.5,447.4l4.7,12.7c0,0,8.1,18,3.8,22.8c-4.3,4.8-26.8-18.3-26.8-18.3L97.7,431L121.5,447.4z"/>
	<path class="st8" d="M99.5,441.9c6.7,10.4,18.3,15.2,26,16.3l-4-10.8L97.7,431L99.5,441.9z"/>
	<path class="st11" d="M101.7,393.4c9.6-5.8,22.1-1.4,26,8.9c1.7,4.5,3.6,10.2,5.1,16.5c3.7,15.3-1,31.9-7.9,33.5
		c-7,1.5-28.4-4.1-33.9-25.7C87.7,413.2,91.7,399.6,101.7,393.4z"/>
	
		<ellipse transform="matrix(0.9765 -0.2157 0.2157 0.9765 -90.2248 29.8365)" class="st11" cx="91.6" cy="428.3" rx="5.1" ry="6.3"/>
	<path class="st5" d="M103.2,464.5c0,0-27-1.1-33.2,4.6c-3.9,3.6,4,39.8,4,39.8s22,42.2,25.2,66.8c5.3,41,10.2,66.1,12.3,67.5
		c12.1,4.4,52.3-3.9,53.9-8.7C183.9,582.2,103.2,464.5,103.2,464.5z"/>
	<path class="st0" d="M233.8,551.3l17.9-75.7c0.5-2,2.2-3.3,4.2-3.3h32.6c2.9,0,4.9,2.7,4.2,5.5L273,552.2c-0.5,1.8-2.1,3.2-4,3.2
		l-30.7,1.2C235.4,556.8,233.2,554.1,233.8,551.3z"/>
	<path class="st11" d="M263.5,549.3c-1.4,0.3-3.7,0.8-5.2,1.3c-1.7,0.6-3.5,0.7-5,1c-3,0.6-5.2,1.1-5.1,1c0.1-0.2-0.6-0.5,0.9-1.1
		c1.9-0.7,6.2-1.4,8.9-2.6c1.5-0.7,4.8-2,4.8-2s4.6-2.9,4.5-3.2c-0.4-1.7-4.1-0.6-6,0.6c-1.6,0.2-5,1.6-5,1.6s-7.5,1.5-7.7,0.4
		c-0.1-0.4,4.4-1.9,8.7-4c3.9-1.9,7.6-4.5,7.3-5.3c-0.4-1.4-5,0.3-5,0.3s-3.1,1.4-4.2,1.7c-1.3,0.4-5.1,1.5-5.1,1.5s-13.7,3-13.8,2
		c-0.1-1,0.7-3.7,1.4-4.2c0.8-0.5,2.7-0.6,3.5-1.1c0.8-0.5,1.4-1.7,0.9-2.7c-0.5-1-5.2-0.1-5.2-0.1s-3.8,0.7-5.8,2.4
		c-7.1,5.9-5.8,6.8-6.7,7.6c-1.1,0.9-19.8,2.9-19.8,2.9s-55,6.4-58,6.6l1.9,18.3c3.3,0.3,66.8-10.7,73.3-12c0,0,8.3,1.2,13.5,1.8
		c5.2,0.6,10.5-1.1,12-1.1c0.2,0,5.2-0.5,11.3-2.6c5.2-1.9-0.6-2.4-0.6-2.4s-10.3,1.8-10.3,1c0-0.6,5.7-1.3,11.5-3.3
		c1.5-0.5,3-1,4.3-1.5C267.2,551,267.4,548.6,263.5,549.3z"/>
	<path class="st13" d="M138.4,545.2c0,0,64.2-0.5,66.6,0c2.4,0.5,3.1,16.9,4.3,23.6c0.4,2.1-67.6,9.7-79.4,7.5
		c-12.9-2.4-45.3-38.1-52.8-50.1c-6.3-10.1-19.8-35.8-16.4-47c2-6.8,12.5-14.5,18.2-12.7C101.8,473.6,138.4,545.2,138.4,545.2z"/>
	<g>
		<path class="st11" d="M283.8,515c1.2-0.5,2.6,0.3,2.9,1.6c0.3,1.3,0.3,2.9-0.8,3.9c-2,2-15.6,3.5-15.6,1.5
			C270.2,520.5,279.5,516.7,283.8,515z"/>
		<path class="st11" d="M286.8,520.9c0,0,1.6,5,0.4,5.1c-1.2,0.1-15.8,2.1-16.5,0.4C269.9,524.7,284.8,520,286.8,520.9z"/>
		<path class="st11" d="M287.4,526.6c0,0,0.6,2.2-0.6,3.6c-1.1,1.4-14.8,1.4-15.5-0.7C270.7,527.3,286.8,524.9,287.4,526.6z"/>
		<path class="st11" d="M284.2,531.7c0,0,0.3,1.7-0.3,2.5c-0.6,0.8-10.7,1.4-12-0.6C270.6,531.7,282.7,529.7,284.2,531.7z"/>
	</g>
</g>
<g>
	<g>
		<path class="st2" d="M1038.3,291.2c14-0.8,21.9,16,12.5,26.4c-1.7,1.9-2.6,4.3-2.7,6.8l-0.2,8.7c-0.1,2.4-1.9,4.3-4.3,4.5
			l-5.3,0.3c-2.4,0.1-4.5-1.6-4.8-4c-1.2-8.7-1-11.9-4.6-15.1C1018.3,309.6,1024.3,292,1038.3,291.2z"/>
		<g>
			<path class="st15" d="M1044.2,327.6c-0.7-7-1.2-14.8-1.3-17.7c-2.6,0.3-5.2,0.2-7.7-0.5c0.9,5.8,1.6,11.7,2.2,17.5l-0.8,0.1
				c-0.6-5.9-1.3-11.9-2.2-17.7c-1.5-0.4-3.3-1-4.1-2.4c-0.4-0.6-0.5-1.4-0.3-2.2c0.5-1.9,2.8-1.9,4-0.3c0.8,1,0.9,2.4,1.2,4.3
				c2.6,0.7,5.2,0.8,7.8,0.5c0-1.5,0.2-2.9,1-4c2.8-4.1,7.6,3.4-0.2,4.7c0.1,2.3,0.5,10.2,1.3,17.7L1044.2,327.6z M1044.5,305.5
				c-0.7,1-0.9,2.2-0.9,3.5c1.7-0.3,2.8-0.9,3.3-1.8C1047.8,305.7,1046,303.3,1044.5,305.5z M1031.2,304.1c-0.8,0.4-0.8,1.6-0.4,2.4
				c0.7,1.1,2.1,1.6,3.4,1.9c-0.2-1.4-0.3-2.7-1-3.6C1032.8,304.2,1031.3,304.1,1031.2,304.1z"/>
		</g>
		<path class="st5" d="M1048.1,324.3c0,0.1,0,0.1,0,0.2l-0.2,8.7c-0.1,2.4-1.9,4.3-4.3,4.5l-5.3,0.3c-2.4,0.1-4.5-1.6-4.8-4
			c-0.5-3.9-0.8-6.6-1.2-8.8L1048.1,324.3z"/>
		<g>
			<path class="st16" d="M1046.9,282.8l2.4-8.3c0.2-0.8-0.2-1.6-1-1.9c-0.8-0.2-1.6,0.2-1.9,1l-2.4,8.3c-0.2,0.8,0.2,1.6,1,1.9
				C1045.8,284.1,1046.7,283.6,1046.9,282.8z"/>
		</g>
		<g>
			<path class="st16" d="M1059.7,298.7l8.6-2.7c0.8-0.3,1.2-1.1,1-1.9c-0.3-0.8-1.1-1.2-1.9-1l-8.6,2.7c-0.8,0.3-1.2,1.1-1,1.9
				C1058.1,298.5,1058.9,298.9,1059.7,298.7z"/>
		</g>
		<g>
			<path class="st16" d="M1074.4,323.7c0.4-0.7,0.2-1.6-0.5-2.1c-2.6-1.7-5.4-3.1-8.4-4.2c-0.8-0.3-1.6,0.1-1.9,0.9
				c-0.3,0.8,0.1,1.6,0.9,2c2.7,1.1,5.4,2.4,7.8,3.9C1073.1,324.6,1074,324.4,1074.4,323.7z"/>
		</g>
		<g>
			<path class="st16" d="M1025.1,287.3c0.7-0.4,1-1.3,0.6-2c-1.8-3.5-3.3-7.2-4.4-11c-0.2-0.8-1.1-1.3-1.9-1c-0.8,0.2-1.3,1.1-1,1.9
				c1.1,4,2.7,7.9,4.6,11.6C1023.5,287.4,1024.4,287.6,1025.1,287.3z"/>
		</g>
		<g>
			<path class="st16" d="M1018.6,300.6c0.1-0.8-0.6-1.6-1.4-1.6l-9.8-0.7c-0.8-0.1-1.6,0.6-1.6,1.4c-0.1,0.8,0.6,1.6,1.4,1.6
				l9.8,0.7C1017.8,302,1018.5,301.4,1018.6,300.6z"/>
		</g>
		<g>
			<path class="st16" d="M1009,328.2c0.1,0,0.3-0.1,0.4-0.1c3-1.6,5.8-3.5,8.3-5.7c0.6-0.5,0.7-1.5,0.2-2.1
				c-0.5-0.6-1.5-0.7-2.1-0.2c-2.4,2.1-5,3.9-7.8,5.3c-0.7,0.4-1,1.3-0.6,2C1007.6,328.1,1008.3,328.4,1009,328.2z"/>
		</g>
	</g>
	<path class="st2" d="M1135,507.4c-33.5-43-53.4-40.8-67.4-17.7c-11.4,18.9-16.2,54.3-42.6,68.8c-58.7,32.3-135.6,21.1-104.9,112.8
		c8.6,25.6,21.8,23.6,28,23.8l149.4-0.1C1156.2,662.6,1176.1,560.1,1135,507.4z"/>
	<g>
		<g>
			<path class="st0" d="M1103.6,427.6c3.4-16.8-4.5-33.5-19.6-39.7c0.1-9.6-3.7-19.2-10.2-25.7c-12.8-12.9-39.3-18.5-48.8-2
				c-12.5,7.1-11.7,15.9-8,29.8c-12.1,12.6-7.7,33.1,10,43.9c-0.3,14.1-0.6,35.4,11.6,41.4c2.9,1.4,7.6,3.5,8.1,4.1
				c-0.8-0.7,9.1,26.8,39.8,14.2C1117.9,480.6,1124,444.4,1103.6,427.6z"/>
			<path class="st8" d="M973.6,541c2.5-2.4,6.8-4.6,6.5-4.9c-1-1.4-11.7,9.6-11,6.5c0.4-1.7,8.1-10.8,10.8-11.1
				c2.6-0.3,19.7-3,19.7-3l39.5-26.2c0,0,2-31-6.4-51.9c9.2-2.8,10.9-3.4,20.4-2.7c5.4,21.2,11.1,56.9,4.2,67.3
				c-2.9,4.4-54.2,21.3-54.2,21.3s-11.1,4.2-13.2,4.3c-1.6,0.1-5.9-0.3-8,0.1c-4.8,0.7-10.7,7.9-11.1,7.1
				C970.3,547.1,971.1,543.5,973.6,541z"/>
			<path class="st10" d="M1027.8,447.8c3.7-6.9,7.5-12.3,7.5-12.3c3.8-6.9,13.8-10.3,13.8-10.3s3.3,0.1,7.1,0.3
				c0.2,0.6,0.5,1.1,0.7,1.3c1.4,1.1,9.7-0.3,15,3.3c17.8,15.3,12.9,89.5,11.5,112.9l-44.4,0.2c0,0-2.9-50.1-13.9-63
				C1017.4,471.1,1022.3,458,1027.8,447.8z"/>
			<path class="st8" d="M1015.7,708.7c-0.5-0.9-6.6-15.8-11.7-22.4c-7.3-9.6-70.6-96.8-68-118c1.1-9.3,28.6-17.1,31.8-17.7
				c17.5,2.3-0.9,17.4,12.2,29.7c-8.5,2.9-13.6,6.6-11.7,9c7.4,9.6,46.6,87,48.3,87.9c7.6,4.4,10.6,2.4,10.6,2.4s-1.7,43.5-5.4,42.1
				C1018.2,720.4,1021,718.6,1015.7,708.7z"/>
			<path class="st10" d="M1030.3,679.9l-7.3,43.8c-1.6,5.7-4.4,5.6-5.1,4.9c-1.5-1.6-2.1-13.3-2.3-19.9c3.3-10.2,3-29.3,1-31.4
				C1021.5,677.3,1030.3,678.9,1030.3,679.9z"/>
			<path class="st11" d="M1004.2,572.5c-9.8-16.3-9.3-14.2-26.4-21.6c-6.8,2.8-29.8,17.1-32.7,19.8l36.5,26.4
				C980.4,594.2,993.1,579.5,1004.2,572.5z"/>
			<path class="st11" d="M1052.3,400.1c0,0,3,21.3,5.1,26.5c2.1,5.2-11.4,16.3-22.7,19.6c-11.2,3.4,3.4-11.5,3-17
				c-0.5-5.5-2.5-31.8-2.5-31.8L1052.3,400.1z"/>
			<path class="st8" d="M1035.7,405c-0.3-4.3-0.6-7.5-0.6-7.5l17.2,2.6c0,0,0.4,2.5,0.9,6.1C1046.2,410.2,1040,408.9,1035.7,405z"/>
			<path class="st11" d="M1046.9,361.1c0,0,6.8,1.5,10.9,7.9c4.2,6.4,7,25.2-6.7,34c-13.8,8.8-24.5-3.6-24.6-15.8
				C1026.3,375.2,1028.9,359,1046.9,361.1z"/>
			<path class="st11" d="M1023.3,383.5c1.2,2.9,3.5,4.7,5.2,4.1c1.7-0.7,2.1-3.6,1-6.5c-1.2-2.9-3.5-4.7-5.2-4.1
				C1022.6,377.6,1022.2,380.6,1023.3,383.5z"/>
			<path class="st11" d="M1058,385.9c-1,3.2-0.1,6.3,2,6.9c2.1,0.7,4.7-1.3,5.7-4.5c1-3.2,0.1-6.3-2-6.9
				C1061.6,380.7,1059,382.8,1058,385.9z"/>
			<path class="st1" d="M1006.2,544.3c7.6-0.7,32.7-3.3,32.7-3.3l44.6-6c0,0,7.9,18.8,8.2,30.6c0.5,20.7-18.5,38.1-34.7,37.1
				c-9.7-0.6-64.5-1.8-75.2-5.8c-2.2-16.8-4.8-35.1-16.1-47.2C983.8,547.4,995.9,545.3,1006.2,544.3z"/>
			<path class="st11" d="M1005.6,700.2c-1.2-1.3-11-68.2-16.9-96.3c-1.4-6.8-5.7-12.6-11.8-15.9l-31.8-17.4
				c-11,10.1,40.4,123.3,45.1,135.2c3.2,8.2,5.3,25,5.5,26.1c2.6,11.6-0.8,12.6,2.5,15c3.3,2.4,18-39.8,18-39.8
				S1012.1,706.9,1005.6,700.2z"/>
			<path class="st0" d="M1015.2,547.3L1015.2,547.3c0,1.7-1.5,3.1-3.5,3.1l-54,0.1c-1.9,0-3.8-1.7-4.5-3.7l1,0.7
				c0-1.7,1.5-3.1,3.5-3.1l54-0.1C1013.6,544.2,1015.2,545.6,1015.2,547.3z"/>
			<g>
				<path class="st0" d="M958.2,549.3c0.3,0,0.6,0,1-0.1c2.8-0.4,4.6-2.1,4.1-4l-20.6-71.4c-0.5-1.8-3.2-3.1-6-2.7
					c-2.8,0.4-4.6,2.1-4.1,4l20.6,71.4C953.7,548.2,955.8,549.3,958.2,549.3z"/>
			</g>
			<path class="st11" d="M974.2,539.7c3.1-1.5,7.9-2.3,7.8-2.7c-0.5-1.7-14.3,7.1-12.6,4.3c0.9-1.5,11.1-9.3,13.8-8.8
				c2.6,0.5,19.7,3.2,19.7,3.2l43.9-15.9c0,0,8.4-27.3,6.9-49.8c9.6,0.2,16.3,1.8,25,5.4c-1.5,21.8-7,57.6-16.9,65.3
				c-4.1,3.3-58.2,3.5-58.2,3.5s-11.8,0.5-13.9,0c-1.5-0.4-5.5-2.1-7.6-2.4c-4.8-0.8-12.6,4.2-12.8,3.3
				C969.2,544.4,971,541.2,974.2,539.7z"/>
			<path class="st9" d="M1050.6,446.2c0.6-6.9,1.5-13.9,8.5-16.8c4.4-1.9,9.6-1.2,13.5,1.4c4.7,3,6.6,8.5,7.2,13.9
				c1.4,12.1,2,24.8,1.2,37c-8.7-3.6-20.6-1.7-30.2-1.9C1048.6,469.1,1049.8,455.2,1050.6,446.2z"/>
		</g>
		<path class="st11" d="M980.7,533.1c-7.5,1.9-7.1,1.8-7.4,2c-5.3,3.3-4.9,4.8,3.3,1.3c0.2-0.1,0.4-0.1,0.7-0.1l3.9,0
			c1.5,0,2.2-1.8,1.1-2.8l0,0C981.7,533.1,981.2,533,980.7,533.1z"/>
		<path class="st10" d="M995.4,729.5c0,0,0.3,5.3-1.5,9.6c-1.8,4.3-8.6,5.9-7,8.1c1.6,2.2,14.8,0,14.8,0l15.2-37.3
			c0.6-1.4,0.3-3-0.9-4c-1.8-1.6-5.2-3.9-10.5-5.5C1005.7,700.3,1006.5,723.7,995.4,729.5z"/>
	</g>
</g>
<g>
	<path class="st8" d="M741.4,453.1c9.3-2.7,9.6-1,10.7-1.4c1.4-0.4,12.7-15.7,12.7-15.7s33.5-44.7,35.2-47.2l10.6-57.8l31.7-0.3
		c0,0-13.3,62.5-14.6,65.6c-1.3,3.1-54.4,57.7-58.9,62.7c0,0-2.9,8.1-4.9,13.1c-2,5-6.3,8.6-7.1,9.9c-0.1,0.2-3,4.3-8.2,8.4
		c-4.4,3.5-2.1-1.9-2.1-1.9s6.8-8,6-8.5c-0.6-0.4-4.1,4.2-8.9,8.2c-1.2,1-2.5,2-3.6,2.9c-3,2.4-5.5,1.1-2.8-1.9
		c0.9-1.1,2.6-2.8,3.9-3.8c1.5-1.1,2.4-2.7,3.4-3.8c2.1-2.3,3.6-3.9,3.5-3.9c-0.2-0.1-0.1-0.8-1.5,0.2c-1.6,1.2-4.4,4.7-7,6.3
		c-1.5,0.9-4.3,3-4.3,3s-5.1,2.3-5.3,2.1c-1.5-1.4,1.4-4,3.6-5c1-1.3,4.1-3.5,4.1-3.5s5.2-5.8,4.3-6.6c-0.4-0.3-4,2.8-8.2,5.3
		c-3.8,2.3-8.2,4-8.8,3.3c-1.1-1.2,2.8-4.2,2.8-4.2s2.9-2,3.8-2.7c1.1-0.9,4-3.7,4-3.7s9.7-10.3,8.8-11c-0.9-0.7-3.9-1.6-4.8-1.2
		c-0.8,0.4-1.9,2-2.8,2.4c-0.8,0.4-2.4,0.2-3.1-0.8c-0.7-1,2.5-4.6,2.5-4.6S738.7,453.9,741.4,453.1z"/>
	<path class="st11" d="M794.1,743.3c0,0,1.1,20,1.1,20c0.4,2.5,2.1,8.8,2.1,11.1c0,8.7-38.5-7.3-29.9-11.2c0.8-0.3,4.9-3,5.1-5.9
		c0.4-4.5,1.4-13.7,1.4-13.7L794.1,743.3z"/>
	<path class="st0" d="M767.6,763.2c0,0,9,2.6,13.7,3.3c4.6,0.7,10.7-4.9,14-3.4c3.6,1.7,3.2,18,3.2,18s-48.3,2.8-61.9-1.5
		C731.2,777.7,749.1,769.3,767.6,763.2z"/>
	<path class="st11" d="M879,745.2c0,0,1.1,20,1.1,20c0.4,2.5,2.1,8.8,2.1,11.1c0,8.7-38.5-7.3-29.9-11.2c0.8-0.3,6.1-4.9,6.3-7.9
		c0.4-4.5,0.2-11.8,0.2-11.8L879,745.2z"/>
	<path class="st0" d="M852.4,765.1c0,0,9,2.6,13.7,3.3c4.6,0.7,10.7-4.9,14-3.4c3.6,1.7,3.7,16.6,3.7,16.6s-51.6,3.7-63.7,0.2
		C814.6,780.2,833.9,771.2,852.4,765.1z"/>
	<path class="st17" d="M818,457.1l-16.3,7l-34.2,163.5l1.4,122.6l27.4,0.6c0,0,12.8-107.2,12.8-115.5c0-8.3,59.1-145.4,59.1-145.4
		L818,457.1z"/>
	<path class="st1" d="M830.5,466.1c0,0,12,126,12,147.2c0,21.2,9.7,140.1,9.7,140.1l27.5-0.2c0,0,2-36.2,4.9-89.5
		c0.5-8.3-0.6-25.2,0-33.8c4.3-62.2,12.7-120.7,8.7-143.9c-0.7-3.7-1.9-13.5-4.3-16C871.1,451.5,830.5,466.1,830.5,466.1z"/>
	<path class="st13" d="M797,366.7l33.3-2.2c0,0,1.6-29.8,1.6-44c0-17.2,5.2-42.6,3.2-42.1c-5.8,1.3-15.7,6.6-20.3,13.1
		C798.8,313.7,797,366.7,797,366.7z"/>
	<path class="st2" d="M875.8,277.7c0,0,19,2.6,24,6.3c5.6,4.1,11.9,13.4,11.9,13.4s-23.3,110.2-23.4,128.7c0,14.3,5,49.6,5,49.6
		s-70.4,4.4-97.1-6.1c0,0,8.4-41.9,8.4-52.9c0-11,10.1-111,12.4-118c2.1-6.3,5.9-17.7,18.8-20.5
		C848.7,275.4,875.8,277.7,875.8,277.7z"/>
	<path class="st11" d="M870.7,248.1l4.7,30.8c0,0-17.2,36.6-27.4,33.5c-8.6-2.7-3.3-35.1-3.3-35.1s4.7-17.4,3.3-26.1
		C846.5,242.4,870.7,248.1,870.7,248.1z"/>
	<path class="st8" d="M847.9,251.1c-1.4-8.7,22.7-3,22.7-3l0.4,2.6c-0.7,1.7-1.6,3.2-2.6,4.3c-5.4,5.8-13.8,9.2-21.1,9.5
		C848,259.7,848.5,254.7,847.9,251.1z"/>
	<g>
		<path class="st11" d="M874.6,204.5c0.7-0.2,5.5,35-3.6,44.8c-9.1,9.7-26.8,12.9-33.1,5.2c-7-8.5-6.7-46.4,7.5-56.4
			C859.4,188.2,874.6,204.5,874.6,204.5z"/>
		<path class="st0" d="M850.7,179.3c10.9,2.2,18,8.8,20.6,11.7c5,0.6,11.7,3.3,18.7,14.7c8.6,14.1,2.2,29.7-7.7,37.3
			c-10,7.6-9.8,16.5-9.8,16.5l-1.5-4.6c-1.2-3.5-1.6-7.1-1.2-10.8c0.2-2.2,0.7-4.5,1.6-6.5c2.4-5.1-5.1-8.5-7.3-12.8
			c-1.6-3.3-1.7-10.8-4.3-16.2l-3.1-4.1c0,0-7.1-5.5-14-3.9C835.7,202.3,836.7,176.4,850.7,179.3z"/>
		
			<ellipse transform="matrix(1.695954e-02 -0.9999 0.9999 1.695954e-02 622.9379 1096.1576)" class="st11" cx="868.9" cy="231.3" rx="7.8" ry="4.5"/>
	</g>
	<path class="st0" d="M827.4,389.8l-0.5,2.6c-0.2,1.4-1.5,2.3-2.9,2l-54.4-9.4c-1.4-0.2-2.3-1.5-2-2.9l0.5-2.6
		c0.2-1.4,1.5-2.3,2.9-2l54.4,9.4C826.8,387.2,827.7,388.5,827.4,389.8z"/>
	<path class="st11" d="M904.6,291.9c-6.4-0.2-12,41.9-8,46.1c4,4.2,4.8,56.1,4.8,56.1l-60.3-1.5l0,0c-1.2-0.8-13.8-9.3-15.6-11.1
		c-1.9-1.9-11.1-1-13.5,1.7c-2.4,2.7,5.4,0.5,7.6,1.9c2.2,1.5-1.6,5.1-1.6,5.1s-15.3,2.2-18.2-0.9c-3-3.2-10.9-8.5-12-5.3
		c-0.6,1.6,3.5,6.6,5.9,8.6c-2.9-2.2-6.3-4.5-7.5-4.1c-2.2,0.7-1.3,3.5-0.1,4.3c1.2,0.8,13.3,10.1,15.2,10.7
		c1.8,0.6,30,1.3,34.9,2.4c0,0,79.5,18.1,84,17c4-1,7.9-26.4,7.9-45.9C928,357.5,924.6,292.5,904.6,291.9z"/>
	<path class="st2" d="M896.3,282.3c0,0,11.1,2.6,22.6,15.5c10.4,11.7,17,77.5,17,77.5l-36.1,5.8l-2.9-31.8l-9.6-14.5L896.3,282.3z"
		/>
</g>
<g>
	<path class="st2" d="M272,415.8h-58.3c-16.3,0-29.5-13.2-29.5-29.5v-1.2c0-16.3,13.2-29.5,29.5-29.5H272
		c16.3,0,29.5,13.2,29.5,29.5v1.2C301.5,402.6,288.3,415.8,272,415.8z"/>
	<polygon class="st2" points="221.6,407.5 258.8,466.4 243.4,407.5 	"/>
</g>
<path class="st13" d="M951.2,98.8l-3.6-8.4l-9-1.8c-1-0.2-1.4-1.5-0.6-2.2l6.9-6l-1-9.1c-0.1-1,1-1.8,1.9-1.2l7.8,4.7l8.3-3.8
	c1-0.4,2,0.4,1.7,1.4l-2.1,8.9L968,88c0.7,0.8,0.2,2-0.8,2.1l-9.1,0.8l-4.5,8C953,99.8,951.7,99.7,951.2,98.8z"/>
<path class="st2" d="M483.8,64.8l-2.8-6.7l-7.1-1.5c-0.8-0.2-1.1-1.2-0.5-1.7l5.5-4.8l-0.8-7.2c-0.1-0.8,0.8-1.4,1.5-1l6.2,3.7
	l6.6-3c0.8-0.3,1.6,0.3,1.4,1.1l-1.6,7.1l4.9,5.4c0.6,0.6,0.2,1.6-0.7,1.7l-7.2,0.6l-3.6,6.3C485.1,65.6,484.1,65.5,483.8,64.8z"/>
<polygon class="st10" points="1053.5,70.1 1051.1,79.9 1034.9,77.7 1029.6,91.5 1017.2,91.9 1017.4,98.2 1033.9,97.7 1039,84.5 
	1055.8,86.8 1059.5,72.1 "/>
<polygon class="st1" points="542.1,77.5 539.7,87.3 523.5,85.1 518.2,99 505.8,99.3 506,105.6 522.6,105.1 527.6,92 544.4,94.2 
	548.1,79.5 "/>
<polygon class="st10" points="658.3,48 649.2,52.3 640.7,38.4 626.6,43 618.5,33.6 613.8,37.7 624.6,50.3 637.9,45.9 646.8,60.4 
	660.5,53.9 "/>
<g>
	<polygon class="st1" points="948.6,36.6 933.9,40.7 930.7,22.8 935.5,21.9 937.8,34.5 947.4,31.9 	"/>
</g>
<g>
	<path class="st13" d="M610,122.6l-42.6,0.1c-3.3,0-6-2.7-6-6l0,0l54.7-0.2l0,0C616,119.9,613.3,122.6,610,122.6z"/>
	<g>
		<path class="st13" d="M611.4,95.5c-4.8,0-8.6,3.1-8.6,6.9c0,3.8,3.9,6.8,8.7,6.8c4.8,0,8.6-3.1,8.6-6.8
			C620.1,98.5,616.2,95.4,611.4,95.5z M611.4,106c-3,0-5.6-1.7-5.6-3.7c0-2,2.5-3.8,5.6-3.8c3,0,5.6,1.7,5.6,3.7
			C617,104.3,614.5,106,611.4,106z"/>
	</g>
	<path class="st13" d="M609.8,89.4c0.1,17.1-9.8,31.1-22,31.1c-12.2,0-22.1-13.8-22.2-31c0-2.2,9.9-4,22.1-4
		C599.9,85.5,609.8,87.2,609.8,89.4z"/>
	
		<ellipse transform="matrix(1 -2.923602e-03 2.923602e-03 1 -0.2591 1.7185)" class="st5" cx="587.7" cy="89.5" rx="22.1" ry="3.9"/>
</g>
</svg>
