<?xml version="1.0" encoding="utf-8"?>
<!-- Generator: Adobe Illustrator 20.0.0, SVG Export Plug-In . SVG Version: 6.00 Build 0)  -->
<svg version="1.1" id="Layer_1" xmlns="http://www.w3.org/2000/svg" xmlns:xlink="http://www.w3.org/1999/xlink" x="0px" y="0px"
	 viewBox="0 0 100 100" style="enable-background:new 0 0 100 100;" xml:space="preserve">
<style type="text/css">
	.st0{fill:#8374C1;}
</style>
<path class="st0" d="M97.5,34.2H93c-0.3-0.9-0.6-1.8-1-2.7c-2.3-5.4-5.4-10-9.5-13.8C78.4,14,73.6,11,68.1,9
	c-5.6-2.1-11.6-3.1-18.2-3.1c-6.5,0-12.5,1-18.1,3.1c-5.5,2.1-10.3,5-14.3,8.8c-4,3.8-7.2,8.4-9.4,13.8c-0.4,0.9-0.7,1.8-1,2.7H2.5
	c0,0-2.1,1.2-1.8,4.1C1,41.3,4,40.9,4,40.9V56c0,0-0.2,2.9,2,5.4c0.5,2.2,1.2,4.3,2.1,6.3c2.3,5.4,5.4,10.1,9.4,14
	c4,3.9,8.8,7,14.3,9.1c5.5,2.2,11.5,3.3,18.1,3.3c6.6,0,12.7-1.1,18.2-3.3c5.6-2.2,10.4-5.2,14.4-9.1c4.1-3.9,7.2-8.6,9.5-14
	c0.8-2,1.5-4.1,2.1-6.3c2.2-2.5,2-5.4,2-5.4V40.9c0,0,3,0.4,3.3-2.5C99.6,35.4,97.5,34.2,97.5,34.2z M84.4,60.3
	c-3.1,0.7-13.7,0.7-19.4,0c-5.6-0.7-5.7-7.6-5.7-7.6V42.6c0-4.1,5.2-4,5.2-4s14.2,0,20.1,0c1,0,1.7,0,2.2,0c3.1,0,3.3,4,3.3,4
	s0.2,9.7,0,12.6c-0.2,2.8-2.4,4.3-5.2,5C84.7,60.3,84.5,60.3,84.4,60.3z M23.8,24.6c3.2-3.2,7-5.7,11.4-7.5
	c4.4-1.8,9.3-2.7,14.8-2.7c5.5,0,10.4,0.9,14.9,2.7c4.5,1.8,8.3,4.3,11.5,7.5c2.8,2.8,5,6,6.7,9.6H48.5H17.1
	C18.7,30.6,21,27.4,23.8,24.6z M54.7,36.5v3.7h-9.4v-3.7H54.7z M15.6,60.3c-0.2,0-0.3-0.1-0.5-0.1c-2.8-0.8-5-2.3-5.2-5
	c-0.2-2.9,0-12.6,0-12.6s0.2-4,3.3-4c0.4,0,1.2,0,2.1,0c5.9,0,20.1,0,20.1,0s5.2-0.2,5.2,4v10.2c0,0-0.1,6.9-5.7,7.6
	C29.4,61.1,18.7,61.1,15.6,60.3z M76.2,75.3c-3.2,3.2-7.1,5.7-11.5,7.4c-4.5,1.8-9.4,2.7-14.7,2.7c-5.4,0-10.2-0.9-14.6-2.7
	c-4.4-1.8-8.2-4.3-11.4-7.4c-2.9-2.9-5.3-6.3-7-10.2c6.1,0.4,12.4,0.5,16.7,0.3c2.7-0.1,7.3-0.9,8.7-1.5c1.9-0.9,3.9-2.7,4-7.1
	c0.3-7.7,0-12.8,0-12.8s0.2-0.9,2.2-1.2v0c0.4-0.1,0.9-0.1,1.4-0.1c3.5,0,3.8,1.3,3.8,1.3s-0.3,5.1,0,12.8c0.2,4.5,2.1,6.3,4,7.1
	c1.4,0.6,6,1.4,8.7,1.5c4.3,0.2,10.6,0.1,16.7-0.3C81.4,69,79.1,72.4,76.2,75.3z"/>
</svg>
