<?xml version="1.0" encoding="utf-8"?>
<!-- Generator: Adobe Illustrator 20.0.0, SVG Export Plug-In . SVG Version: 6.00 Build 0)  -->
<svg version="1.1" id="Layer_1" xmlns="http://www.w3.org/2000/svg" xmlns:xlink="http://www.w3.org/1999/xlink" x="0px" y="0px"
	 viewBox="0 0 270 100" style="enable-background:new 0 0 270 100;" xml:space="preserve">
<style type="text/css">
	.st0{fill:#FFFFFF;}
</style>
<g>
	<path class="st0" d="M14.1,83.4c-0.4-0.3-0.8-0.5-1.3-0.7c-0.5-0.2-1.1-0.4-1.7-0.5c-1-0.2-1.7-0.4-2.2-0.7
		c-0.5-0.3-0.7-0.7-0.7-1.2c0-0.3,0.1-0.6,0.2-0.8c0.1-0.2,0.3-0.4,0.5-0.5c0.2-0.1,0.5-0.2,0.8-0.3c0.3-0.1,0.6-0.1,0.9-0.1
		c0.6,0,1.2,0.1,1.7,0.4c0.5,0.3,0.9,0.7,1.2,1.1l1.7-1.5c-0.5-0.7-1.1-1.2-2-1.5c-0.8-0.4-1.7-0.5-2.6-0.5c-0.6,0-1.2,0.1-1.8,0.2
		c-0.6,0.2-1.1,0.4-1.5,0.7c-0.4,0.3-0.8,0.7-1.1,1.2c-0.3,0.5-0.4,1.1-0.4,1.7c0,0.6,0.1,1.1,0.3,1.5c0.2,0.4,0.5,0.7,0.9,1
		c0.4,0.3,0.8,0.5,1.2,0.6c0.4,0.2,0.9,0.3,1.3,0.4c1.1,0.2,1.9,0.5,2.5,0.8c0.6,0.3,0.8,0.7,0.8,1.3c0,0.4-0.1,0.6-0.2,0.9
		c-0.1,0.2-0.3,0.4-0.6,0.6s-0.5,0.2-0.8,0.3C11,88,10.7,88,10.3,88c-0.7,0-1.4-0.2-2-0.5c-0.6-0.3-1.1-0.8-1.4-1.3l-1.8,1.5
		c0.6,0.8,1.4,1.3,2.3,1.7c0.9,0.4,1.9,0.6,2.8,0.6c0.6,0,1.3-0.1,1.9-0.2c0.6-0.1,1.1-0.4,1.6-0.7c0.5-0.3,0.8-0.8,1.1-1.3
		c0.3-0.5,0.4-1.1,0.4-1.9c0-0.6-0.1-1-0.3-1.4C14.8,84.1,14.5,83.7,14.1,83.4z"/>
	<path class="st0" d="M38.9,78.2c-0.4-0.5-0.9-0.8-1.5-1.1c-0.6-0.3-1.3-0.4-2.1-0.4c-0.9,0-1.7,0.2-2.5,0.7
		c-0.8,0.4-1.4,1.1-1.8,1.9c-0.4-0.9-0.9-1.6-1.6-1.9c-0.7-0.4-1.5-0.6-2.3-0.6c-1,0-1.8,0.2-2.5,0.7c-0.7,0.5-1.2,1-1.5,1.7H23
		c0-0.3,0-0.6,0-1c0-0.4,0-0.8-0.1-1.1h-2.4c0,0.4,0.1,0.9,0.1,1.4c0,0.5,0,1,0,1.3v9.9h2.5v-6.7c0-1.3,0.3-2.3,0.9-3
		c0.6-0.8,1.4-1.1,2.3-1.1c0.5,0,0.9,0.1,1.3,0.3c0.3,0.2,0.6,0.4,0.8,0.7c0.2,0.3,0.4,0.6,0.5,1.1c0.1,0.4,0.1,0.9,0.1,1.4v7.5h2.5
		v-6.8c0-0.5,0.1-1,0.2-1.5c0.1-0.5,0.3-0.9,0.6-1.3c0.3-0.4,0.6-0.7,1-0.9c0.4-0.2,0.9-0.4,1.5-0.4c0.6,0,1,0.1,1.4,0.3
		c0.4,0.2,0.6,0.5,0.9,0.9c0.2,0.4,0.4,0.8,0.5,1.2c0.1,0.5,0.1,1,0.1,1.5v7h2.5v-7.8c0-0.7-0.1-1.4-0.3-2
		C39.6,79.2,39.3,78.7,38.9,78.2z"/>
	<path class="st0" d="M56.7,87.2v-5.5c0-0.7-0.1-1.3-0.3-1.9c-0.2-0.6-0.5-1.1-1-1.6c-0.4-0.4-1-0.8-1.6-1.1
		c-0.7-0.3-1.5-0.4-2.4-0.4c-1,0-2,0.2-2.9,0.5c-0.9,0.3-1.7,0.8-2.3,1.4l1.3,1.6c0.4-0.4,1-0.8,1.6-1.1c0.6-0.3,1.3-0.4,2-0.4
		c0.9,0,1.7,0.2,2.3,0.7c0.6,0.5,0.9,1.2,0.9,2.1v0.3c-1.1,0-2.1,0-3.2,0.1c-1.1,0.1-2,0.3-2.8,0.6c-0.8,0.3-1.5,0.7-2,1.3
		c-0.5,0.6-0.8,1.3-0.8,2.3c0,0.7,0.1,1.3,0.4,1.8c0.3,0.5,0.7,0.9,1.1,1.2c0.4,0.3,0.9,0.5,1.5,0.7s1.1,0.2,1.6,0.2
		c1,0,1.8-0.2,2.5-0.6c0.7-0.4,1.3-0.9,1.7-1.6h0.1c0,0.6,0.1,1.2,0.2,1.8h2.3c-0.1-0.3-0.1-0.7-0.1-1.2
		C56.7,88,56.7,87.6,56.7,87.2z M54.3,84.3c0,1.1-0.3,2-0.9,2.7c-0.6,0.7-1.5,1.1-2.7,1.1c-0.3,0-0.6,0-0.9-0.1
		c-0.3-0.1-0.6-0.2-0.8-0.3c-0.2-0.2-0.4-0.4-0.6-0.6c-0.2-0.2-0.2-0.6-0.2-0.9c0-0.5,0.2-1,0.5-1.3c0.4-0.3,0.8-0.6,1.3-0.7
		c0.5-0.2,1.1-0.3,1.8-0.3c0.7-0.1,1.3-0.1,1.9-0.1h0.6V84.3z"/>
	<path class="st0" d="M67.1,77.4c-0.7,0.5-1.2,1.1-1.6,1.8h-0.1c0-0.3,0-0.6,0-1c0-0.4,0-0.8-0.1-1.1H63c0,0.4,0.1,0.9,0.1,1.4
		c0,0.5,0,1,0,1.3v9.9h2.5V83c0-0.5,0.1-1,0.2-1.5s0.4-0.9,0.7-1.3c0.3-0.4,0.7-0.7,1.1-0.9c0.4-0.2,1-0.3,1.6-0.3
		c0.4,0,0.8,0,1.1,0.1l0.1-2.3c-0.3-0.1-0.6-0.1-1-0.1C68.5,76.7,67.8,76.9,67.1,77.4z"/>
	<path class="st0" d="M77.4,73.4h-2.5V77h-2.4v2.1h2.4v6.9c0,1.3,0.3,2.3,0.9,3c0.6,0.7,1.5,1,2.7,1c0.4,0,0.8,0,1.1-0.1
		c0.4-0.1,0.7-0.1,1-0.3l-0.1-2.1c-0.2,0.1-0.5,0.2-0.7,0.2c-0.3,0-0.5,0.1-0.7,0.1c-0.6,0-1.1-0.2-1.4-0.5
		c-0.3-0.3-0.4-0.9-0.4-1.6v-6.6h3.4V77h-3.4V73.4z"/>
	<path class="st0" d="M101.7,83.4c-0.4-0.3-0.8-0.5-1.3-0.7c-0.5-0.2-1.1-0.4-1.7-0.5c-1-0.2-1.7-0.4-2.2-0.7
		c-0.5-0.3-0.7-0.7-0.7-1.2c0-0.3,0.1-0.6,0.2-0.8c0.1-0.2,0.3-0.4,0.5-0.5s0.5-0.2,0.8-0.3c0.3-0.1,0.6-0.1,0.9-0.1
		c0.6,0,1.2,0.1,1.7,0.4c0.5,0.3,0.9,0.7,1.2,1.1l1.7-1.5c-0.5-0.7-1.1-1.2-2-1.5c-0.8-0.4-1.7-0.5-2.6-0.5c-0.6,0-1.2,0.1-1.8,0.2
		c-0.6,0.2-1.1,0.4-1.5,0.7c-0.4,0.3-0.8,0.7-1.1,1.2c-0.3,0.5-0.4,1.1-0.4,1.7c0,0.6,0.1,1.1,0.3,1.5c0.2,0.4,0.5,0.7,0.9,1
		c0.4,0.3,0.8,0.5,1.2,0.6c0.4,0.2,0.9,0.3,1.3,0.4c1.1,0.2,1.9,0.5,2.5,0.8c0.6,0.3,0.8,0.7,0.8,1.3c0,0.4-0.1,0.6-0.2,0.9
		c-0.1,0.2-0.3,0.4-0.6,0.6c-0.2,0.1-0.5,0.2-0.8,0.3C98.6,88,98.3,88,98,88c-0.7,0-1.4-0.2-2-0.5c-0.6-0.3-1.1-0.8-1.4-1.3
		l-1.8,1.5c0.6,0.8,1.4,1.3,2.3,1.7c0.9,0.4,1.9,0.6,2.8,0.6c0.6,0,1.3-0.1,1.9-0.2c0.6-0.1,1.1-0.4,1.6-0.7
		c0.5-0.3,0.8-0.8,1.1-1.3c0.3-0.5,0.4-1.1,0.4-1.9c0-0.6-0.1-1-0.3-1.4C102.4,84.1,102.1,83.7,101.7,83.4z"/>
	<path class="st0" d="M118.5,87.2v-5.5c0-0.7-0.1-1.3-0.3-1.9c-0.2-0.6-0.5-1.1-1-1.6c-0.4-0.4-1-0.8-1.6-1.1
		c-0.7-0.3-1.5-0.4-2.4-0.4c-1,0-2,0.2-2.9,0.5c-0.9,0.3-1.7,0.8-2.3,1.4l1.3,1.6c0.4-0.4,1-0.8,1.6-1.1c0.6-0.3,1.3-0.4,2-0.4
		c0.9,0,1.7,0.2,2.3,0.7c0.6,0.5,0.9,1.2,0.9,2.1v0.3c-1.1,0-2.1,0-3.2,0.1c-1.1,0.1-2,0.3-2.8,0.6c-0.8,0.3-1.5,0.7-2,1.3
		c-0.5,0.6-0.8,1.3-0.8,2.3c0,0.7,0.1,1.3,0.4,1.8c0.3,0.5,0.7,0.9,1.1,1.2c0.4,0.3,0.9,0.5,1.5,0.7c0.5,0.1,1.1,0.2,1.6,0.2
		c1,0,1.8-0.2,2.5-0.6c0.7-0.4,1.3-0.9,1.7-1.6h0.1c0,0.6,0.1,1.2,0.2,1.8h2.3c-0.1-0.3-0.1-0.7-0.1-1.2
		C118.5,88,118.5,87.6,118.5,87.2z M116.1,84.3c0,1.1-0.3,2-0.9,2.7c-0.6,0.7-1.5,1.1-2.7,1.1c-0.3,0-0.6,0-0.9-0.1
		c-0.3-0.1-0.6-0.2-0.8-0.3c-0.2-0.2-0.4-0.4-0.6-0.6c-0.2-0.2-0.2-0.6-0.2-0.9c0-0.5,0.2-1,0.5-1.3c0.4-0.3,0.8-0.6,1.3-0.7
		c0.5-0.2,1.1-0.3,1.8-0.3c0.7-0.1,1.3-0.1,1.9-0.1h0.6V84.3z"/>
	<rect x="124.9" y="69.5" class="st0" width="2.5" height="20.2"/>
	<path class="st0" d="M144.1,78.4c-0.5-0.6-1.2-1-1.9-1.3c-0.8-0.3-1.6-0.5-2.5-0.5c-0.9,0-1.8,0.2-2.6,0.5
		c-0.8,0.3-1.5,0.8-2.1,1.4c-0.6,0.6-1,1.3-1.4,2.1c-0.3,0.8-0.5,1.7-0.5,2.7c0,1,0.2,1.9,0.5,2.7c0.3,0.8,0.8,1.5,1.4,2.1
		c0.6,0.6,1.3,1,2.1,1.3c0.8,0.3,1.7,0.5,2.7,0.5c1.1,0,2.1-0.2,3.1-0.6c0.9-0.4,1.7-1.1,2.4-2l-1.8-1.4c-0.4,0.5-0.8,1-1.5,1.4
		c-0.6,0.4-1.4,0.6-2.2,0.6c-0.6,0-1.1-0.1-1.6-0.3c-0.5-0.2-0.9-0.5-1.3-0.8c-0.4-0.3-0.7-0.8-0.9-1.2c-0.2-0.5-0.3-1-0.4-1.5h10.1
		c0-0.1,0-0.3,0-0.4c0-0.1,0-0.3,0-0.4c0-1-0.1-1.9-0.4-2.7C145.1,79.7,144.6,79,144.1,78.4z M135.7,82.2c0-0.5,0.2-1,0.4-1.4
		c0.2-0.4,0.5-0.8,0.9-1.1c0.3-0.3,0.8-0.6,1.2-0.8c0.5-0.2,1-0.3,1.5-0.3c0.6,0,1.1,0.1,1.5,0.3c0.4,0.2,0.8,0.4,1.1,0.8
		c0.3,0.3,0.5,0.7,0.7,1.1c0.2,0.4,0.2,0.9,0.3,1.4H135.7z"/>
	<path class="st0" d="M158.8,83.4c-0.4-0.3-0.8-0.5-1.3-0.7c-0.5-0.2-1.1-0.4-1.7-0.5c-1-0.2-1.7-0.4-2.2-0.7s-0.7-0.7-0.7-1.2
		c0-0.3,0.1-0.6,0.2-0.8c0.1-0.2,0.3-0.4,0.5-0.5s0.5-0.2,0.8-0.3c0.3-0.1,0.6-0.1,0.9-0.1c0.6,0,1.2,0.1,1.7,0.4
		c0.5,0.3,0.9,0.7,1.2,1.1l1.7-1.5c-0.5-0.7-1.1-1.2-2-1.5c-0.8-0.4-1.7-0.5-2.6-0.5c-0.6,0-1.2,0.1-1.8,0.2
		c-0.6,0.2-1.1,0.4-1.5,0.7c-0.4,0.3-0.8,0.7-1.1,1.2c-0.3,0.5-0.4,1.1-0.4,1.7c0,0.6,0.1,1.1,0.3,1.5c0.2,0.4,0.5,0.7,0.9,1
		c0.4,0.3,0.8,0.5,1.2,0.6c0.4,0.2,0.9,0.3,1.3,0.4c1.1,0.2,1.9,0.5,2.5,0.8c0.6,0.3,0.8,0.7,0.8,1.3c0,0.4-0.1,0.6-0.2,0.9
		c-0.1,0.2-0.3,0.4-0.6,0.6c-0.2,0.1-0.5,0.2-0.8,0.3c-0.3,0.1-0.6,0.1-0.9,0.1c-0.7,0-1.4-0.2-2-0.5c-0.6-0.3-1.1-0.8-1.4-1.3
		l-1.8,1.5c0.6,0.8,1.4,1.3,2.3,1.7c0.9,0.4,1.9,0.6,2.8,0.6c0.6,0,1.3-0.1,1.9-0.2s1.1-0.4,1.6-0.7c0.5-0.3,0.8-0.8,1.1-1.3
		c0.3-0.5,0.4-1.1,0.4-1.9c0-0.6-0.1-1-0.3-1.4C159.5,84.1,159.2,83.7,158.8,83.4z"/>
	<path class="st0" d="M176,86.3c-0.5,0-0.9,0.2-1.3,0.5c-0.3,0.3-0.5,0.8-0.5,1.2c0,0.5,0.2,0.9,0.5,1.2c0.3,0.3,0.8,0.5,1.3,0.5
		c0.5,0,0.9-0.2,1.3-0.5c0.3-0.4,0.5-0.8,0.5-1.2c0-0.5-0.2-0.9-0.5-1.2S176.5,86.3,176,86.3z"/>
	<path class="st0" d="M176,76.9c-0.5,0-0.9,0.2-1.3,0.5c-0.3,0.4-0.5,0.8-0.5,1.2c0,0.5,0.2,0.9,0.5,1.2c0.3,0.3,0.8,0.5,1.3,0.5
		c0.5,0,0.9-0.2,1.3-0.5s0.5-0.8,0.5-1.2c0-0.5-0.2-0.9-0.5-1.2S176.5,76.9,176,76.9z"/>
	<path class="st0" d="M183.1,70.1l-1.8,1.2c1,1.5,1.9,3.1,2.5,5c0.6,1.9,0.9,3.8,0.9,5.7c0,2-0.3,3.9-0.9,5.7
		c-0.6,1.9-1.5,3.5-2.5,5l1.8,1.2c1.2-1.6,2.1-3.4,2.8-5.4c0.7-2,1.1-4.2,1.1-6.4c0-2.2-0.4-4.4-1.1-6.4
		C185.2,73.5,184.3,71.7,183.1,70.1z"/>
	<path class="st0" d="M38.9,33.9c-1.6-1.1-3.4-2.1-5.3-2.8c-1.9-0.7-3.8-1.3-5.6-1.9c-1.6-0.4-3.1-0.9-4.4-1.3
		c-1.3-0.4-2.5-1-3.4-1.6c-0.9-0.6-1.7-1.3-2.2-2.2c-0.5-0.8-0.8-1.9-0.8-3.1c0-1.3,0.3-2.4,0.9-3.3c0.6-0.9,1.4-1.7,2.4-2.2
		c1-0.6,2-1,3.2-1.3c1.2-0.3,2.3-0.4,3.5-0.4c2,0,3.9,0.4,5.9,1.3c1.9,0.9,3.4,1.9,4.5,3.2l6.5-6.7c-2.2-1.9-4.7-3.3-7.7-4.2
		c-3-0.9-5.9-1.4-8.7-1.4c-2.6,0-5.1,0.3-7.5,0.9c-2.5,0.6-4.7,1.6-6.6,2.8c-1.9,1.3-3.5,2.9-4.7,4.8C7.6,16.6,7,18.9,7,21.6
		c0,2.5,0.4,4.6,1.3,6.2c0.9,1.7,2,3.1,3.3,4.2c1.4,1.1,2.9,2.1,4.6,2.8c1.7,0.7,3.4,1.3,5.1,1.8c1.8,0.5,3.4,1.1,5,1.6
		c1.6,0.5,3,1.1,4.1,1.7c1.2,0.7,2.1,1.5,2.8,2.4c0.7,0.9,1,2.1,1,3.5c0,1.4-0.3,2.6-0.9,3.6c-0.6,1-1.4,1.8-2.4,2.4
		c-1,0.6-2.1,1.1-3.3,1.4c-1.2,0.3-2.4,0.4-3.6,0.4c-2.2,0-4.5-0.5-6.8-1.6c-2.3-1-4.2-2.5-5.5-4.2L4.5,54c2.2,2.5,5.1,4.4,8.6,5.6
		c3.5,1.3,7.1,1.9,10.8,1.9c2.8,0,5.4-0.3,7.9-1c2.5-0.7,4.7-1.7,6.5-3.1c1.9-1.4,3.4-3.1,4.5-5.2c1.1-2.1,1.7-4.6,1.7-7.4
		c0-2.6-0.5-4.7-1.6-6.5C41.9,36.5,40.5,35,38.9,33.9z"/>
	<polygon class="st0" points="165.6,44.9 165.4,44.9 150.7,7.5 135,7.5 135,60.2 144.6,60.2 144.6,17.8 144.7,17.8 161.6,60.2 
		168.7,60.2 185.8,17.8 186,17.8 186,60.2 196,60.2 196,7.5 180.2,7.5 	"/>
	<path class="st0" d="M241.2,7.5h-8.7l-24.6,52.7h11.2l5.1-12.1h24.5l5.3,12.1h11.5L241.2,7.5z M227.7,40.1l8.9-21.4l8.7,21.4H227.7
		z"/>
	<path class="st0" d="M118.8,23.9h-2.8c-0.2-0.6-0.4-1.1-0.6-1.7c-1.4-3.4-3.4-6.3-6-8.7c-2.5-2.4-5.6-4.2-9.1-5.5
		C96.8,6.8,93,6.1,88.8,6.1c-4.1,0-7.9,0.6-11.3,1.9c-3.5,1.3-6.5,3.1-9,5.5C66,16,64,18.9,62.6,22.2c-0.2,0.5-0.4,1.1-0.6,1.7h-2.8
		c0,0-1.3,0.7-1.1,2.6c0.2,1.9,2.1,1.6,2.1,1.6v9.5c0,0-0.1,1.8,1.2,3.4c0.3,1.4,0.8,2.7,1.3,4c1.4,3.4,3.4,6.3,5.9,8.8
		c2.5,2.5,5.5,4.4,9,5.7c3.5,1.4,7.2,2,11.3,2c4.1,0,8-0.7,11.5-2c3.5-1.4,6.5-3.3,9.1-5.7c2.5-2.5,4.5-5.4,6-8.8
		c0.5-1.3,1-2.6,1.3-4c1.4-1.6,1.3-3.4,1.3-3.4v-9.5c0,0,1.9,0.3,2.1-1.6C120.1,24.7,118.8,23.9,118.8,23.9z M72.4,17.9
		c2-2,4.4-3.6,7.1-4.7c2.8-1.1,5.9-1.7,9.3-1.7c3.4,0,6.5,0.6,9.3,1.7c2.8,1.1,5.2,2.7,7.2,4.7c1.7,1.8,3.1,3.8,4.2,6.1H88H68.3
		C69.3,21.7,70.7,19.6,72.4,17.9z M91.9,25.3v2.3h-5.9v-2.3H91.9z M67,40.2c-1.8-0.5-3.1-1.4-3.3-3.2c-0.1-1.8,0-7.9,0-7.9
		s0.1-2.5,2.1-2.5c0.3,0,0.7,0,1.3,0c3.7,0,12.6,0,12.6,0s3.2-0.1,3.2,2.5v6.4c0,0,0,4.3-3.6,4.8c-3.5,0.4-10.2,0.4-12.2,0
		C67.2,40.3,67.1,40.3,67,40.2z M105.4,49.7c-2,2-4.4,3.6-7.2,4.7c-2.8,1.1-5.9,1.7-9.2,1.7c-3.4,0-6.4-0.6-9.2-1.7
		c-2.8-1.1-5.2-2.7-7.2-4.7c-1.8-1.8-3.3-4-4.4-6.4c3.8,0.3,7.8,0.3,10.5,0.2c1.7-0.1,4.6-0.6,5.5-1c1.2-0.5,2.4-1.7,2.5-4.5
		c0.2-4.8,0-8,0-8s0.1-0.5,1.4-0.7v0c0.2,0,0.5-0.1,0.9-0.1c2.2,0,2.4,0.8,2.4,0.8s-0.2,3.2,0,8c0.1,2.8,1.3,3.9,2.5,4.5
		c0.9,0.4,3.8,0.9,5.5,1c2.7,0.1,6.7,0.1,10.5-0.2C108.7,45.8,107.2,47.9,105.4,49.7z M114.1,37.1c-0.1,1.7-1.5,2.7-3.3,3.2
		c-0.1,0-0.2,0.1-0.3,0.1c-1.9,0.4-8.6,0.4-12.2,0c-3.5-0.4-3.6-4.8-3.6-4.8v-6.4c0-2.6,3.2-2.5,3.2-2.5s8.9,0,12.6,0
		c0.6,0,1.1,0,1.4,0c1.9,0,2.1,2.5,2.1,2.5S114.2,35.2,114.1,37.1z"/>
</g>
</svg>
