<?xml version="1.0" encoding="utf-8"?>
<!-- Generator: Adobe Illustrator 20.0.0, SVG Export Plug-In . SVG Version: 6.00 Build 0)  -->
<svg version="1.1" id="Layer_1" xmlns="http://www.w3.org/2000/svg" xmlns:xlink="http://www.w3.org/1999/xlink" x="0px" y="0px"
	 viewBox="0 0 76 40" style="enable-background:new 0 0 76 40;" xml:space="preserve">
<style type="text/css">
	.st0{fill:#26083B;}
</style>
<g>
	<path class="st0" d="M8.6,21.7c0-1-0.2-1.8-0.8-2.4c-0.5-0.7-1.2-0.9-2.1-0.9c-0.5,0-0.9,0.1-1.3,0.3c-0.4,0.2-0.7,0.5-1,0.8
		c-0.3,0.3-0.5,0.7-0.6,1.1s-0.2,0.8-0.3,1.3C2.5,21.7,8.6,21.7,8.6,21.7z M0.1,22.9c0-1.1,0.1-2,0.5-2.9c0.3-0.8,0.8-1.5,1.3-2
		c0.5-0.5,1.1-0.9,1.8-1.2s1.4-0.4,2.1-0.4c1.6,0,2.9,0.5,3.8,1.5c0.9,1,1.3,2.6,1.3,4.7v0.4c0,0.1,0,0.3,0,0.4H2.4
		c0.1,1.3,0.5,2.3,1.1,2.9c0.7,0.7,1.6,1,3.1,1c0.8,0,1.4,0,2-0.2C9,27,9.5,26.9,9.7,26.8l0.3,1.8c-0.3,0.1-0.8,0.3-1.4,0.5
		c-0.7,0.1-1.4,0.2-2.3,0.2c-1.1,0-2-0.1-2.8-0.5c-0.8-0.3-1.4-0.8-1.9-1.3c-0.5-0.6-0.9-1.2-1.1-2C0.2,24.7,0.1,23.9,0.1,22.9"/>
	<path class="st0" d="M23.4,19.3c-0.3-0.2-0.7-0.4-1.2-0.7c-0.5-0.2-1.1-0.3-1.6-0.3c-0.6,0-1.2,0.1-1.6,0.3
		c-0.5,0.2-0.8,0.6-1.1,0.9c-0.3,0.4-0.5,0.9-0.6,1.4c-0.1,0.6-0.2,1.1-0.2,1.8c0,1.5,0.4,2.5,1.1,3.3c0.7,0.8,1.6,1.2,2.8,1.2
		c0.6,0,1.1,0,1.5-0.1c0.4,0,0.7-0.1,0.9-0.2L23.4,19.3L23.4,19.3z M23.4,11l2.2-0.4v18c-0.5,0.1-1.2,0.3-1.9,0.4
		c-0.8,0.1-1.7,0.2-2.7,0.2c-0.9,0-1.8-0.1-2.5-0.5c-0.8-0.3-1.4-0.7-1.9-1.3c-0.5-0.6-0.9-1.2-1.2-2c-0.3-0.8-0.4-1.7-0.4-2.7
		c0-0.9,0.1-1.8,0.4-2.6c0.2-0.8,0.6-1.5,1.1-2c0.5-0.6,1-1,1.7-1.3s1.5-0.5,2.3-0.5c0.7,0,1.3,0.1,1.9,0.3c0.6,0.2,0.9,0.4,1.2,0.6
		L23.4,11L23.4,11z"/>
	<path class="st0" d="M40.6,28.7c-0.5,0.1-1.2,0.3-2,0.4c-0.8,0.1-1.8,0.2-2.9,0.2c-0.9,0-1.7-0.1-2.4-0.4c-0.7-0.3-1.2-0.7-1.5-1.2
		c-0.4-0.5-0.7-1.1-0.8-1.8c-0.2-0.7-0.3-1.5-0.3-2.3v-7h2.2v6.4c0,1.5,0.2,2.6,0.7,3.2c0.5,0.7,1.3,1,2.4,1c0.2,0,0.5,0,0.8,0
		c0.2,0,0.5,0,0.7,0c0.2,0,0.4,0,0.6-0.1c0.2,0,0.3,0,0.4-0.1V16.7h2.2L40.6,28.7L40.6,28.7z"/>
	<path class="st0" d="M50.3,22.3c0.5,0.4,1,0.8,1.5,1.4c0.5,0.5,1,1.1,1.5,1.7s1,1.3,1.5,1.9c0.5,0.7,0.8,1.2,1.2,1.8h-2.6
		c-0.3-0.6-0.7-1.1-1.1-1.7c-0.4-0.6-0.9-1.1-1.4-1.6c-0.5-0.5-0.9-1-1.5-1.5c-0.5-0.4-0.9-0.8-1.4-1.1V29h-2.2V11l2.2-0.4v11.2
		c0.4-0.4,0.8-0.8,1.3-1.3c0.5-0.5,0.9-0.9,1.4-1.4c0.4-0.5,0.8-0.9,1.3-1.4c0.4-0.4,0.8-0.8,1-1.1h2.6c-0.4,0.4-0.8,0.8-1.2,1.3
		c-0.4,0.5-0.8,0.9-1.3,1.4c-0.5,0.5-0.9,1-1.4,1.5C51.1,21.4,50.7,21.8,50.3,22.3"/>
	<path class="st0" d="M63.8,27.5c0.5,0,1,0,1.4,0c0.4,0,0.8,0,1-0.1v-3.7c-0.1-0.1-0.4-0.1-0.8-0.2c-0.4,0-0.8-0.1-1.3-0.1
		c-0.3,0-0.7,0-1,0.1c-0.4,0-0.7,0.1-1,0.3s-0.6,0.4-0.8,0.6c-0.2,0.3-0.3,0.6-0.3,1c0,0.8,0.2,1.3,0.8,1.6
		C62.2,27.3,62.9,27.5,63.8,27.5 M63.6,16.4c0.9,0,1.6,0.1,2.3,0.3c0.6,0.2,1.1,0.6,1.5,1c0.4,0.4,0.7,0.9,0.8,1.5
		c0.1,0.6,0.2,1.2,0.2,1.9v7.7c-0.2,0-0.5,0.1-0.8,0.1c-0.3,0-0.7,0.1-1.1,0.1c-0.4,0-0.9,0.1-1.4,0.1c-0.5,0-1,0-1.5,0
		c-0.7,0-1.3-0.1-1.9-0.2c-0.6-0.1-1.1-0.4-1.5-0.7c-0.4-0.3-0.8-0.7-1-1.2c-0.2-0.5-0.4-1.1-0.4-1.8c0-0.7,0.1-1.3,0.4-1.7
		c0.3-0.5,0.7-0.9,1.1-1.2c0.5-0.3,1-0.5,1.6-0.7c0.6-0.1,1.3-0.2,2-0.2c0.2,0,0.5,0,0.7,0c0.2,0,0.5,0,0.7,0.1
		c0.2,0,0.4,0.1,0.6,0.1c0.1,0,0.3,0,0.3,0.1v-0.6c0-0.4,0-0.7-0.1-1.1c-0.1-0.4-0.2-0.7-0.4-0.9s-0.5-0.5-0.8-0.7
		c-0.4-0.2-0.8-0.2-1.4-0.2c-0.7,0-1.4,0-1.9,0.1c-0.6,0.1-0.9,0.2-1.2,0.3L60,17c0.3-0.1,0.8-0.2,1.4-0.4
		C62.1,16.5,62.8,16.4,63.6,16.4"/>
	<path class="st0" d="M75.6,29.1h-2.2V16.7h2.2V29.1z M74.5,14.5c-0.4,0-0.8-0.1-1-0.4c-0.3-0.3-0.4-0.6-0.4-1c0-0.4,0.1-0.8,0.4-1
		c0.3-0.3,0.6-0.4,1-0.4c0.4,0,0.8,0.1,1,0.4c0.3,0.3,0.4,0.6,0.4,1c0,0.4-0.1,0.8-0.4,1C75.2,14.4,74.8,14.5,74.5,14.5"/>
</g>
</svg>
