<?xml version="1.0" standalone="no"?>
<!DOCTYPE svg PUBLIC "-//W3C//DTD SVG 1.1//EN" "http://www.w3.org/Graphics/SVG/1.1/DTD/svg11.dtd">
<svg xmlns="http://www.w3.org/2000/svg">
<metadata>Copyright (C) 2020 by original authors @ fontello.com</metadata>
<defs>
<font id="fontello" horiz-adv-x="1000" >
<font-face font-family="fontello" font-weight="400" font-stretch="normal" units-per-em="1000" ascent="850" descent="-150" />
<missing-glyph horiz-adv-x="1000" />
<glyph glyph-name="1" unicode="&#xe800;" d="M617 333a218 218 0 1 1-234 0 335 335 0 0 1-226-314c0-8 1-16 1-25a32 32 0 0 1 32-29h620a34 34 0 0 1 32 31c0 8 1 15 1 23a335 335 0 0 1-226 314z m-272 184a155 155 0 1 0 155-155 155 155 0 0 0-155 155z m-124-489c5 145 128 261 279 261s274-116 279-261z" horiz-adv-x="1000" />

<glyph glyph-name="2" unicode="&#xe801;" d="M745 544a252 252 0 0 1-490 0 115 115 0 0 1-96-113v-351a115 115 0 0 1 115-115h452a115 115 0 0 1 115 115v351a115 115 0 0 1-96 113z m-245 128a188 188 0 0 0 178-126h-356a189 189 0 0 0 178 126z m277-592a52 52 0 0 0-51-51h-452a52 52 0 0 0-51 51v351a52 52 0 0 0 51 52h452a52 52 0 0 0 51-52z" horiz-adv-x="1000" />

<glyph glyph-name="3" unicode="&#xe802;" d="M343-30h154v384h107l11 129h-118v73c0 30 6 43 35 43h83v133h-106c-114 0-166-50-166-146v-103h-80v-130h80z" horiz-adv-x="1000" />

<glyph glyph-name="4" unicode="&#xe803;" d="M120 112a441 441 0 0 1 239-70c289 0 452 244 443 463a316 316 0 0 1 78 81 311 311 0 0 0-90-25 156 156 0 0 1 69 86 312 312 0 0 0-99-38 156 156 0 0 1-266-142 442 442 0 0 0-321 163 156 156 0 0 1 48-208 155 155 0 0 0-70 20 156 156 0 0 1 125-155 156 156 0 0 0-70-3 156 156 0 0 1 145-108 313 313 0 0 0-231-64z" horiz-adv-x="1000" />

<glyph glyph-name="5" unicode="&#xe804;" d="M879 507a280 280 0 0 1-18 93 195 195 0 0 1-111 111 280 280 0 0 1-92 18c-41 2-54 2-158 2s-116 0-157-2a280 280 0 0 1-93-18 195 195 0 0 1-111-111 279 279 0 0 1-18-92c-2-41-2-54-2-158s0-116 2-157a279 279 0 0 1 18-93 195 195 0 0 1 111-111 280 280 0 0 1 93-18c40-2 53-2 157-2s116 0 157 2a280 280 0 0 1 93 18 195 195 0 0 1 111 111 280 280 0 0 1 18 93c2 40 2 53 2 157s0 116-2 157z m-69-311a211 211 0 0 0-13-71 126 126 0 0 0-72-72 211 211 0 0 0-71-13c-40-2-52-2-154-2s-114 0-154 2a211 211 0 0 0-71 13 126 126 0 0 0-72 72 211 211 0 0 0-13 71c-2 40-2 52-2 154s0 114 2 154a211 211 0 0 0 13 71 126 126 0 0 0 72 72 211 211 0 0 0 71 13c40 2 52 2 154 2s114 0 154-2a211 211 0 0 0 71-13 126 126 0 0 0 72-72 211 211 0 0 0 13-71c2-40 2-52 2-154s0-114-2-154z m-310 350a196 196 0 1 1 196-196 196 196 0 0 1-196 196z m0-323a127 127 0 1 0 127 127 127 127 0 0 0-127-127z" horiz-adv-x="1000" />

<glyph glyph-name="6" unicode="&#xe805;" d="M880 109l-319 552a70 70 0 0 1-61 36h0a70 70 0 0 1-61-36h0l-319-552a71 71 0 0 1 61-105h638a71 71 0 0 1 61 105z m-55-39a7 7 0 0 0-6-4h-638a7 7 0 0 0-6 11l319 553h0a7 7 0 0 0 12 0l319-552a7 7 0 0 0 0-8z m-349 173a24 24 0 0 1 26-21 27 27 0 0 1 25 21l9 123 4 77v4c4 21-17 42-38 42a43 43 0 0 1-42-42v-4l4-39z m24-51a42 42 0 1 1 42-42 46 46 0 0 1-42 42z" horiz-adv-x="1000" />

<glyph glyph-name="7" unicode="&#xe806;" d="M468 218a32 32 0 0 0-20 7l-95 76a32 32 0 0 0 40 50l73-58 174 179a32 32 0 0 0 45-44l-194-200a32 32 0 0 0-23-10z m32-253a385 385 0 1 0 385 385 386 386 0 0 0-385-385z m0 707a322 322 0 1 1 322-322 322 322 0 0 1-322 322z" horiz-adv-x="1000" />

<glyph glyph-name="8" unicode="&#xe807;" d="M550-39h-1l-104 3a32 32 0 0 0-31 29l-2 34a105 105 0 0 1-53 80 102 102 0 0 1-95 6l-36-15a32 32 0 0 0-40 14l-50 90a32 32 0 0 0 9 41l27 19a104 104 0 0 1 46 87 111 111 0 0 1-47 91l-27 20a32 32 0 0 0-8 42l53 88a32 32 0 0 0 41 12l32-15a102 102 0 0 1 96 5 105 105 0 0 1 53 81l5 38a31 31 0 0 0 32 28l105-3a32 32 0 0 0 30-29l3-34a105 105 0 0 1 53-80 103 103 0 0 1 95-5l36 14a32 32 0 0 0 40-14l50-90a32 32 0 0 0-10-41l-26-19 0 0a104 104 0 0 1-46-87 111 111 0 0 1 48-91l26-20a32 32 0 0 0 8-42l-53-88a32 32 0 0 0-41-12l-32 15a103 103 0 0 1-96-5 105 105 0 0 1-53-81l-6-38a32 32 0 0 0-31-28z m-75 66l48-2 1 9a168 168 0 0 0 84 129 166 166 0 0 0 155 7l6-3 24 40-3 2a174 174 0 0 0-74 142 167 167 0 0 0 73 138l3 3-22 40-8-3a166 166 0 0 0-152 8 169 169 0 0 0-85 130l0 6-47 2-1-9a168 168 0 0 0-84-129 166 166 0 0 0-156-7l-6 3-24-40 3-2a174 174 0 0 0 73-142 167 167 0 0 0-72-138l-3-3 22-40 8 3c42 21 104 20 153-8a168 168 0 0 0 84-130z m332 436h0z m-307-264a151 151 0 1 0 151 151 151 151 0 0 0-151-151z m0 239a88 88 0 1 1 88-88 88 88 0 0 1-88 88z" horiz-adv-x="1000" />

<glyph glyph-name="9" unicode="&#xe808;" d="M545 350l147 148a32 32 0 1 1-44 44l-148-147-147 147a32 32 0 1 1-45-44l147-148-147-147a32 32 0 1 1 45-45l147 147 148-147a32 32 0 1 1 44 45z" horiz-adv-x="1000" />

<glyph glyph-name="10" unicode="&#xe809;" d="M500 263a32 32 0 0 0-22 9l-113 111a32 32 0 0 0 44 45l91-89 91 89a32 32 0 0 0 44-45l-113-111a32 32 0 0 0-22-9z" horiz-adv-x="1000" />

<glyph glyph-name="11" unicode="&#xe80a;" d="M500 735a385 385 0 1 1 385-385 386 386 0 0 1-385 385z m0-707a322 322 0 1 0 322 322 322 322 0 0 0-322-322z m0 427a37 37 0 0 1-29-12 52 52 0 0 1-11-36v-230a53 53 0 0 1 11-36 36 36 0 0 1 29-12 38 38 0 0 1 29 12 52 52 0 0 1 11 37v232a47 47 0 0 1-11 34 39 39 0 0 1-29 11z m0 116a41 41 0 0 1-28-11 40 40 0 0 1 0-57 42 42 0 0 1 29-10 41 41 0 0 1 28 10 37 37 0 0 1 11 29 36 36 0 0 1-12 29 42 42 0 0 1-28 10z" horiz-adv-x="1000" />

<glyph glyph-name="12" unicode="&#xe80b;" d="M500 735a385 385 0 1 1 385-385 386 386 0 0 1-385 385z m0-707a322 322 0 1 0 322 322 322 322 0 0 0-322-322z m106 354h-74v74a32 32 0 0 1-64 0v-74h-74a32 32 0 0 1 0-64h74v-74a32 32 0 1 1 64 0v74h74a32 32 0 1 1 0 64z" horiz-adv-x="1000" />

<glyph glyph-name="13" unicode="&#xe80c;" d="M488 244a47 47 0 0 1-34-11 51 51 0 0 1 0-65 46 46 0 0 1 34-12 45 45 0 0 1 33 12 50 50 0 0 1 0 64 46 46 0 0 1-33 12z m99 274q-31 26-84 26a245 245 0 0 1-121-32l28-56a198 198 0 0 0 88 25 59 59 0 0 0 34-9 29 29 0 0 0 13-25 45 45 0 0 0-9-27 161 161 0 0 0-36-32 138 138 0 0 1-38-39 84 84 0 0 1-11-42v-19h68v15a43 43 0 0 0 7 25 151 151 0 0 0 31 28 183 183 0 0 1 49 46 90 90 0 0 1 12 49 83 83 0 0 1-31 67z m-87 217a385 385 0 1 1 385-385 386 386 0 0 1-385 385z m0-707a322 322 0 1 0 322 322 322 322 0 0 0-322-322z" horiz-adv-x="1000" />

<glyph glyph-name="14" unicode="&#xe80d;" d="M500 44a32 32 0 0 0-20 6l-83 65h-183a97 97 0 0 0-97 98v346a97 97 0 0 0 97 98h572a97 97 0 0 0 97-98v-346a97 97 0 0 0-97-97h-202l-61-63a32 32 0 0 0-23-9z m-286 550a34 34 0 0 1-34-35v-346a34 34 0 0 1 34-34h195a32 32 0 0 0 20-7l69-54 50 51a32 32 0 0 0 22 10h216a34 34 0 0 1 34 34v346a34 34 0 0 1-34 34z" horiz-adv-x="1000" />

<glyph glyph-name="15" unicode="&#xe80e;" d="M854 625h-269a119 119 0 0 1-77-34c-3-2-5-5-8-8-2 3-5 6-8 8a118 118 0 0 1-77 34h-269a32 32 0 0 1-32-32v-466a32 32 0 0 1 32-32h269a138 138 0 0 0 66-16 26 26 0 0 1 19-4 26 26 0 0 1 20 4 138 138 0 0 0 66 16h269a32 32 0 0 1 31 32v466a32 32 0 0 1-32 32z m-390-473a208 208 0 0 1-49 6h-238v404h238a57 57 0 0 0 34-17 56 56 0 0 0 15-24z m359 6h-238a208 208 0 0 1-49-6v364a29 29 0 0 1 0 4 52 52 0 0 0 15 25 57 57 0 0 0 34 17h238z" horiz-adv-x="1000" />

<glyph glyph-name="16" unicode="&#xe80f;" d="M752 645h-6v21a32 32 0 1 1-63 0v-21h-360v21a32 32 0 1 1-64 0v-21h-11a131 131 0 0 1-130-131v-381a131 131 0 0 1 131-131h503a131 131 0 0 1 130 131v381a131 131 0 0 1-130 131z m-503-63h11v-22a32 32 0 0 1 63 0v22h360v-22a32 32 0 1 1 64 0v22h5a68 68 0 0 0 68-68v-17h-639v17a68 68 0 0 0 68 68z m503-517h-503a68 68 0 0 0-68 68v301h638v-301a68 68 0 0 0-67-68z m-396 308h-37a32 32 0 0 1 0-63h37a32 32 0 1 1 0 63z m163 0h-38a32 32 0 1 1 0-63h38a32 32 0 1 1 0 63z m162 0h-37a32 32 0 1 1 0-63h37a32 32 0 1 1 0 63z m-325-130h-37a32 32 0 1 1 0-63h37a32 32 0 0 1 0 63z m163 0h-38a32 32 0 1 1 0-63h38a32 32 0 1 1 0 63z m162 0h-37a32 32 0 1 1 0-63h37a32 32 0 0 1 0 63z" horiz-adv-x="1000" />

<glyph glyph-name="17" unicode="&#xe810;" d="M408 669h-190a96 96 0 0 1-96-96v-446a96 96 0 0 1 96-96h190a96 96 0 0 1 96 96v446a96 96 0 0 1-96 96z m33-542a33 33 0 0 0-33-33h-190a33 33 0 0 0-32 33v446a33 33 0 0 0 32 33h190a33 33 0 0 0 33-33z m367 198h-197a70 70 0 0 1-70-69v-156a70 70 0 0 1 70-69h197a70 70 0 0 1 70 69v156a70 70 0 0 1-70 69z m6-225a6 6 0 0 0-6-6h-197a6 6 0 0 0-6 6v156a6 6 0 0 0 6 6h197a6 6 0 0 0 6-6z m-7 569h-195a71 71 0 0 1-71-70v-168a71 71 0 0 1 71-71h195a71 71 0 0 1 71 71v168a71 71 0 0 1-71 70z m7-238a7 7 0 0 0-7-7h-195a7 7 0 0 0-7 7v168a7 7 0 0 0 7 7h195a7 7 0 0 0 7-7z" horiz-adv-x="1000" />

<glyph glyph-name="18" unicode="&#xe811;" d="M783 634h-152a31 31 0 0 1 2 9v61a32 32 0 0 1-32 32h-202a32 32 0 0 1-32-32v-61a31 31 0 0 1 2-9h-152a32 32 0 0 1 0-63h19l23-450c4-74 63-156 140-156h215c78 0 137 82 140 156l23 450h6a32 32 0 0 1 0 63z m-352 9v29h138v-29a31 31 0 0 1 2-9h-142a31 31 0 0 1 2 9z m260-519c-2-49-40-96-77-96h-215c-36 0-74 47-77 96l-22 447h414z m-252 2a32 32 0 0 1 32 32v243a32 32 0 0 1-63 0v-243a32 32 0 0 1 31-32z m122 0a32 32 0 0 1 31 32v243a32 32 0 1 1-63 0v-243a32 32 0 0 1 32-32z" horiz-adv-x="1000" />

<glyph glyph-name="19" unicode="&#xe812;" d="M500 483a133 133 0 1 1 133-133 134 134 0 0 1-133 133z m0-202a69 69 0 1 0 69 69 69 69 0 0 0-69-69z m378 84a429 429 0 0 1-378 221 429 429 0 0 1-378-221 32 32 0 0 1 0-30 429 429 0 0 1 378-221 429 429 0 0 1 378 221 32 32 0 0 1 0 30z m-378-187a365 365 0 0 0-313 172 365 365 0 0 0 313 172 365 365 0 0 0 313-172 365 365 0 0 0-313-172z" horiz-adv-x="1000" />

<glyph glyph-name="20" unicode="&#xe813;" d="M845 570l-125 125a30 30 0 0 1-43 0l-72-72h0l-406-407s-1-1-2-2a23 23 0 0 1-3-5c0 0-1-1-2-2a30 30 0 0 1-1-3c0-1 0-1 0-2l-43-167a30 30 0 0 1 37-37l167 43 2 0 3 2 3 1 2 1a30 30 0 0 1 3 3l1 1 479 478a30 30 0 0 1 0 43z m-146 60l81-81-29-29-81 81z m-72-72l81-81-363-364-82 82z m-391-423l49-49-66-17z" horiz-adv-x="1000" />

<glyph glyph-name="21" unicode="&#xe814;" d="M369 451a132 132 0 0 0 260 3 208 208 0 0 0 29 6 223 223 0 0 0 61 2 222 222 0 0 1-438 0c6 0 12 0 17 0a224 224 0 0 0 71-11z m452-56a196 196 0 0 1-130 49 198 198 0 0 1-32-3 186 186 0 0 1-70-26 145 145 0 0 1-31-22 304 304 0 0 1-65-79 197 197 0 1 1-184-264c5 0 10 0 14 1l228 0 138-1h2c8 1 22 2 27 2a196 196 0 0 1 103 343z m-494-254a108 108 0 0 0-18-2h0a108 108 0 1 0 19 2z m440 30a197 197 0 0 0-26-19 106 106 0 0 0-35-11c-2 0-12-1-20-2l-191 0a337 337 0 0 1 48 73c3 6 6 13 9 20 46 107 108 120 120 121l2 0a109 109 0 0 0 18 2 107 107 0 0 0 75-184z" horiz-adv-x="1000" />

<glyph glyph-name="22" unicode="&#xe815;" d="M592 288l-92-89-92 89a32 32 0 1 1-44-45l114-111a32 32 0 0 1 44 0l114 111a32 32 0 1 1-44 45z m-184 124l92 89 92-89a32 32 0 1 1 44 45l-114 111a32 32 0 0 1-44 0l-114-111a32 32 0 0 1 44-45z" horiz-adv-x="1000" />

<glyph glyph-name="23" unicode="&#xe816;" d="M692 372l-143 146a32 32 0 0 1-45-44l121-124-121-124a32 32 0 1 1 45-44l143 146a32 32 0 0 1 0 44z m-196 0l-142 146a32 32 0 1 1-46-44l121-124-121-124a32 32 0 1 1 46-44l142 146a32 32 0 0 1 0 44z" horiz-adv-x="1000" />

<glyph glyph-name="24" unicode="&#xe817;" d="M473 172a32 32 0 0 0-22 10l-143 146a32 32 0 0 0 0 44l143 146a32 32 0 1 0 45-44l-121-124 121-124a32 32 0 0 0-23-54z m196 0a32 32 0 0 0-22 10l-143 146a32 32 0 0 0 0 44l142 146a32 32 0 1 0 46-44l-121-124 121-124a32 32 0 0 0-23-54z" horiz-adv-x="1000" />

<glyph glyph-name="25" unicode="&#xe818;" d="M783 673h-566a97 97 0 0 1-96-97v-343a97 97 0 0 1 96-97h251v-45h-111a32 32 0 1 1 0-64h286a32 32 0 1 1 0 64h-111v45h251a97 97 0 0 1 97 97v343a97 97 0 0 1-97 97z m-566-64h566a33 33 0 0 0 33-33v-265h-632v265a33 33 0 0 0 33 33z m566-409h-566a33 33 0 0 0-33 33v15h632v-15a33 33 0 0 0-33-33z" horiz-adv-x="1000" />

<glyph glyph-name="26" unicode="&#xe819;" d="M623 735h-246a111 111 0 0 1-110-110v-550a111 111 0 0 1 110-110h246a111 111 0 0 1 110 110v550a111 111 0 0 1-110 110z m-105-653a13 13 0 1 0-13 12 13 13 0 0 0 13-12z m-188 506h340v-395h-340z m47 84h246a47 47 0 0 0 39-21h-324a47 47 0 0 0 39 21z m246-644h-246a47 47 0 0 0-47 47v55h160a51 51 0 1 1 32 0h148v-55a47 47 0 0 0-47-47z" horiz-adv-x="1000" />

<glyph glyph-name="27" unicode="&#xe81a;" d="M382 434l86 84v-300a32 32 0 1 1 64 0v300l86-84a32 32 0 1 1 44 45l-140 137a32 32 0 0 1-44 0l-140-137a32 32 0 0 1 44-45z m366-295h-496a32 32 0 0 1 0-64h496a32 32 0 1 1 0 64z" horiz-adv-x="1000" />

<glyph glyph-name="28" unicode="&#xe81b;" d="M823 296a31 31 0 0 1-35 2 249 249 0 0 0-340 340 31 31 0 0 1-35 46 341 341 0 1 1 421-421 31 31 0 0 1-11 33z m-241-208a279 279 0 0 0-220 507 311 311 0 0 1 302-393h0a310 310 0 0 1 81 11 277 277 0 0 0-163-125z" horiz-adv-x="1000" />

<glyph glyph-name="29" unicode="&#xe81c;" d="M500 551a201 201 0 1 1 201-201 201 201 0 0 1-201 201z m0-339a139 139 0 1 0 139 138 139 139 0 0 0-139-139z m0 384a31 31 0 0 1 31 31v64a31 31 0 0 1-62 0v-64a31 31 0 0 1 31-31z m0-492a31 31 0 0 1-31-31v-64a31 31 0 0 1 62 0v64a31 31 0 0 1-31 31z m-246 246a31 31 0 0 1-31 31h-64a31 31 0 0 1 0-62h64a31 31 0 0 1 31 31z m587 31h-64a31 31 0 1 1 0-62h64a31 31 0 0 1 0 62z m-559-205l-45-45a31 31 0 1 1 44-44l45 45a31 31 0 1 1-44 44z m414 339a31 31 0 0 1 22 9l45 45a31 31 0 0 1-44 44l-45-45a31 31 0 0 1 22-53z m22-339a31 31 0 1 1-44-44l45-45a31 31 0 0 1 44 44z m-436 348a31 31 0 1 1 44 44l-45 45a31 31 0 1 1-44-44z" horiz-adv-x="1000" />

<glyph glyph-name="30" unicode="&#xe81d;" d="M780 617a413 413 0 0 0-259 103 31 31 0 0 1-42 0 405 405 0 0 0-259-103 31 31 0 0 1-30-32v-365a31 31 0 0 1 3-13 403 403 0 0 1 259-223l40-11a31 31 0 0 1 8-1 31 31 0 0 1 9 1l39 12a396 396 0 0 1 260 224 31 31 0 0 1 2 12v364a31 31 0 0 1-30 32z m-32-389a335 335 0 0 0-217-183l-31-10-32 8a341 341 0 0 0-216 184v329a468 468 0 0 1 248 101 476 476 0 0 1 248-100z m-281 206a93 93 0 0 1 14-48l-127-128a31 31 0 0 1 0-44l32-33a31 31 0 1 1 45 44l-10 11 13 14 14-13a31 31 0 0 1 42 45l-13 12 52 52a94 94 0 1 1-62 88z m94 32a32 32 0 1 0-32-32 32 32 0 0 0 32 32z" horiz-adv-x="1000" />

<glyph glyph-name="31" unicode="&#xe81e;" d="M790 603h-580a89 89 0 0 1-90-90v-326a89 89 0 0 1 90-90h580a89 89 0 0 1 90 90v326a89 89 0 0 1-90 90z m-85-63v-380h-410v380z m-522-353v326a27 27 0 0 0 27 27h23v-380h-23a27 27 0 0 0-27 27z m634 0a27 27 0 0 0-27-27h-22v380h22a27 27 0 0 0 27-27z" horiz-adv-x="1000" />

<glyph glyph-name="32" unicode="&#xe81f;" d="M787 589h-416l-34 46a31 31 0 0 1-25 12h-162a31 31 0 0 1-31-31v-471a93 93 0 0 1 94-92h574a93 93 0 0 1 94 92v352a93 93 0 0 1-94 92z m32-444a31 31 0 0 0-32-30h-574a31 31 0 0 0-32 30v440h115l34-46a31 31 0 0 1 25-12h432a31 31 0 0 0 32-30z" horiz-adv-x="1000" />

<glyph glyph-name="33" unicode="&#xe820;" d="M787 589h-416l-34 46a31 31 0 0 1-25 12h-162a31 31 0 0 1-31-31v-471a93 93 0 0 1 94-92h574a93 93 0 0 1 94 92v352a93 93 0 0 1-94 92z m-491-4l34-46a31 31 0 0 1 25-12h432a31 31 0 0 0 32-30v-75a98 98 0 0 1-32 5h-574a98 98 0 0 1-32-5v163z m523-440a31 31 0 0 0-32-30h-574a31 31 0 0 0-32 30v192a30 30 0 0 0 32 27h574a30 30 0 0 0 32-27v-192z" horiz-adv-x="1000" />

<glyph glyph-name="34" unicode="&#xe821;" d="M391 379a97 97 0 1 1-97 97 97 97 0 0 1 97-97z m0 132a35 35 0 1 0-35-35 35 35 0 0 0 35 35z m399 142h-580a95 95 0 0 1-95-94v-417a95 95 0 0 1 95-95h580a95 95 0 0 1 95 95v417a95 95 0 0 1-95 94z m-580-62h580a32 32 0 0 0 32-32v-247l-192 181a30 30 0 0 1-22 8 31 31 0 0 1-22-10l-172-185-91 69a31 31 0 0 1-41-3l-104-108v295a32 32 0 0 0 32 32z m580-482h-580a32 32 0 0 0-32 33v33l130 134 91-69a31 31 0 0 1 42 4l169 182 213-199v-85a32 32 0 0 0-33-33z" horiz-adv-x="1000" />

<glyph glyph-name="35" unicode="&#xe822;" d="M764 715h-528a31 31 0 0 1-31-31v-668a31 31 0 0 1 31-31h528a31 31 0 0 1 31 31v668a31 31 0 0 1-31 31z m-31-668h-466v606h466z m-379 449h292a31 31 0 1 1 0 62h-292a31 31 0 1 1 0-62z m0-115h292a31 31 0 0 1 0 63h-292a31 31 0 1 1 0-63z m0-109h292a31 31 0 1 1 0 62h-292a31 31 0 1 1 0-62z m0-115h292a31 31 0 1 1 0 63h-292a31 31 0 1 1 0-63z" horiz-adv-x="1000" />

<glyph glyph-name="36" unicode="&#xe823;" d="M787 589h-416l-34 46a31 31 0 0 1-25 12h-162a31 31 0 0 1-31-31v-471a93 93 0 0 1 94-92h574a93 93 0 0 1 94 92v352a93 93 0 0 1-94 92z m32-444a31 31 0 0 0-32-30h-574a31 31 0 0 0-32 30v440h115l34-46a31 31 0 0 1 25-12h432a31 31 0 0 0 32-30z m-377 225a59 59 0 0 0 115 2 92 92 0 0 0 13 2 98 98 0 0 0 27 1 98 98 0 0 1-193 0c2 0 5 0 7 0a99 99 0 0 0 31-5z m200-25a86 86 0 0 1-57 22 87 87 0 0 1-15-2 82 82 0 0 1-31-11 64 64 0 0 1-13-10 134 134 0 0 1-29-35 87 87 0 1 1-81-117l6 0 100 0h62c3 0 10 1 12 1a87 87 0 0 1 46 152z m-218-112a47 47 0 0 0-8-1h0a48 48 0 1 0 8 1z m194 13a87 87 0 0 0-12-8 47 47 0 0 0-15-5l-9-1h-84a149 149 0 0 1 21 32c1 3 2 6 4 9 20 47 47 53 53 53h0a48 48 0 0 0 8 1 47 47 0 0 0 34-81z" horiz-adv-x="1000" />

<glyph glyph-name="37" unicode="&#xe824;" d="" horiz-adv-x="1000" />

<glyph glyph-name="38" unicode="&#xe825;" d="M478 198a31 31 0 0 1 44 0l137 134a31 31 0 1 1-44 44l-84-82v294a31 31 0 1 1-62 0v-294l-84 82a31 31 0 1 1-44-44z m265 6a31 31 0 0 1-31-31v-30h-424v30a31 31 0 0 1-62 0v-61a31 31 0 0 1 31-31h486a31 31 0 0 1 31 31v61a31 31 0 0 1-31 31z" horiz-adv-x="1000" />

<glyph glyph-name="39" unicode="&#xe826;" d="M446 208a31 31 0 0 0-23 52l88 90-88 90a31 31 0 1 0 45 44l109-112a31 31 0 0 0 0-44l-109-111a31 31 0 0 0-22-9z" horiz-adv-x="1000" />

<glyph glyph-name="40" unicode="&#xe827;" d="M554 208a31 31 0 0 0-22 9l-109 111a31 31 0 0 0 0 44l109 111a31 31 0 1 0 45-43l-88-90 88-90a31 31 0 0 0-23-53z" horiz-adv-x="1000" />

<glyph glyph-name="41" unicode="&#xe828;" d="M611 265a31 31 0 0 0-21 8l-90 88-90-88a31 31 0 1 0-43 45l111 109a31 31 0 0 0 44 0l111-109a31 31 0 0 0-22-53z" horiz-adv-x="1000" />

<glyph glyph-name="42" unicode="&#xe829;" d="M254 596h492v-492h-492z m-125-617h742v742h-742z" horiz-adv-x="1000" />

<glyph glyph-name="43" unicode="&#xe82a;" d="M759 660h-518c-64 0-121-52-121-116v-388c0-64 57-116 121-116h518c64 0 121 52 121 116v388c0 64-57 116-121 116z m-518-60h518c30 0 51-26 51-56v-20l-310-209-310 209v20c0 30 21 56 51 56z m518-500h-518c-30 0-51 26-51 56v294l295-197a28 28 0 0 1 16-6 25 25 0 0 1 15 6l294 197v-294c0-30-21-56-51-56z" horiz-adv-x="1000" />

<glyph glyph-name="44" unicode="&#xe82b;" d="M500 728a378 378 0 1 1 378-378 378 378 0 0 1-378 378z m272-198h-75a409 409 0 0 1-57 114 342 342 0 0 0 132-114z m-101-180a519 519 0 0 0-16-130h-313a519 519 0 0 0-15 130 519 519 0 0 0 15 130h313a519 519 0 0 0 16-130z m-171 322c57 0 111-52 142-142h-284c31 90 83 142 142 142z m-142-28c-23-31-42-74-57-114h-75a342 342 0 0 0 132 114z m-184-294a311 311 0 0 0 26 130h88a660 660 0 0 1 0-260h-88a311 311 0 0 0-26 130z m54-180h75a306 306 0 0 1 57-114 308 308 0 0 0-131 114z m272-142c-57 0-111 52-142 142h282c-31-90-83-142-140-142z m140 28a351 351 0 0 1 57 114h75a342 342 0 0 0-132-114z m70 164a660 660 0 0 1 0 260h88a311 311 0 0 0 26-130 358 358 0 0 0-26-130z" horiz-adv-x="1000" />

<glyph glyph-name="45" unicode="&#xe82c;" d="M748 537h-496a32 32 0 1 1 0-64h496a32 32 0 1 1 0 64z m0-160h-496a32 32 0 1 1 0-64h496a32 32 0 1 1 0 64z m0-150h-496a32 32 0 1 1 0-64h496a32 32 0 1 1 0 64z" horiz-adv-x="1000" />

<glyph glyph-name="46" unicode="&#xe82d;" d="M509 112h0l198 153 1 1 1 1 1 1 1 1 1 2 0 1 0 1s0 1 0 2a12 12 0 0 1 0 1s0 1 0 1v169s0 0 0 0v0s0 0 0 1a15 15 0 0 1 0 2l0 1a14 14 0 0 1-1 2l0 1a15 15 0 0 1-1 2l-1 1a16 16 0 0 1-3 2h0l-198 131a15 15 0 0 1-16 0l-198-130h0a15 15 0 0 1-3-2l0-1a15 15 0 0 1-2-2l0-1a14 14 0 0 1-1-2l0-1a15 15 0 0 1 0-2s0 0 0-1v0s0 0 0 0v-170s0 0 0-1 0-1 0-1a13 13 0 0 1 0-2l0-1 1-1 0-2 1-1 1-1 1-1 1-1 198-153 0 0a15 15 0 0 1 4-2l1 0a13 13 0 0 1 8 0l1 0a15 15 0 0 1 4 2z m-192 304l168-131v-131l-168 130z m198-131l168 131v-131l-168-131z m-15 274l173-114-173-134-173 134z m-349-37a15 15 0 0 1 15 15v143h143a15 15 0 0 1 0 30h-158a15 15 0 0 1-15-15v-158a15 15 0 0 1 15-15z m158-502h-143v143a15 15 0 1 1-30 0v-158a15 15 0 0 1 15-15h158a15 15 0 0 1 0 30z m540 158a15 15 0 0 1-15-15v-143h-143a15 15 0 1 1 0-30h158a15 15 0 0 1 15 15v158a15 15 0 0 1-15 15z m0 532h-158a15 15 0 0 1 0-30h143v-143a15 15 0 0 1 30 0v158a15 15 0 0 1-15 15z" horiz-adv-x="1000" />

<glyph glyph-name="47" unicode="&#xe82e;" d="M286 583a287 287 0 0 1-47-216l-57-105a13 13 0 0 1-1-9 10 10 0 0 1 6-7l77-29v-85a58 58 0 0 1 58-58h64v-74a11 11 0 0 1 23 0v86a11 11 0 0 1-12 11h-75a35 35 0 0 0-35 35v93a11 11 0 0 1-7 10l-71 28 51 94a9 9 0 0 1 3 10 264 264 0 0 0 42 204c151 222 492 109 492-152a267 267 0 0 0-134-233 12 12 0 0 1-6-10v-176a11 11 0 0 1 23 0v169a296 296 0 0 1 140 250c0 284-371 405-534 164z m143-189a11 11 0 0 1-10 7h-61l-14 15a40 40 0 0 1 4 30 38 38 0 0 1-30 26 37 37 0 0 1-42-43 36 36 0 0 1 27-29 41 41 0 0 1 26 2l16-18a12 12 0 0 1 8-3h59l28-69v-301a11 11 0 1 1 23 0v301a7 7 0 0 1-1 4z m-117 25a15 15 0 1 0 14 15 15 15 0 0 0-14-15z m158 43a9 9 0 0 1-4 4l-75 49a34 34 0 0 1-12 36 33 33 0 0 1-26 12 38 38 0 0 1-35-47 37 37 0 0 1 27-27 34 34 0 0 1 33 8l73-46 44-103v-337a11 11 0 1 1 22 0v339a7 7 0 0 1-1 5z m-115 48a15 15 0 1 0 14 15 15 15 0 0 0-14-15z m294-143v115l28 30a38 38 0 0 1 50 30 37 37 0 0 1-45 41 39 39 0 0 1-29-30 35 35 0 0 1 5-28l-28-30a10 10 0 0 1-3-8v-115l-75-82a10 10 0 0 1-3-8v-271a11 11 0 0 1 22 0v267l75 81a10 10 0 0 1 3 8z m41 194a15 15 0 1 0-15-14 14 14 0 0 0 15 14z m70-125a36 36 0 0 1-29 28 38 38 0 0 1-24-71l-35-108-64-65a10 10 0 0 1-4-8v-201a11 11 0 1 1 23 0v197l63 63a6 6 0 0 1 2 5l38 115a38 38 0 0 1 30 45z m-37-24a15 15 0 1 0 14 15 15 15 0 0 0-14-15z m-272 213a37 37 0 0 1 0-75 31 31 0 0 1 14 3l58-82 34-95a11 11 0 1 1 21 8l-33 88 60 84a31 31 0 0 1 10-1 38 38 0 0 1 38 37 39 39 0 0 1-37 38 38 38 0 0 1-38-37 37 37 0 0 1 9-24l-54-74-51 73a39 39 0 0 1 6 20 37 37 0 0 1-37 37z m-15-39a15 15 0 1 0 15-14 15 15 0 0 0-15 14z m180 22a15 15 0 1 0-15-15 15 15 0 0 0 15 15z" horiz-adv-x="1000" />

<glyph glyph-name="48" unicode="&#xe82f;" d="M397 33a25 25 0 0 0-23 33l72 223-159 14a25 25 0 0 0-15 43l313 313a25 25 0 0 0 42-25l-73-223 159-14a25 25 0 0 0 16-43l-314-313a25 25 0 0 0-18-8z m-52 315l137-12a25 25 0 0 0 21-32l-50-154 202 202-137 12a25 25 0 0 0-21 32l50 154z" horiz-adv-x="1000" />

<glyph glyph-name="49" unicode="&#xe830;" d="M500 30a30 30 0 0 0-21 9l-273 273a209 209 0 0 0 294 298 210 210 0 0 0 294-2h0a210 210 0 0 0 0-296l-273-273a30 30 0 0 0-21-9z m-146 580a149 149 0 0 1-106-255l252-252 252 252a149 149 0 0 1 0 211h0a150 150 0 0 1-211 0l-20-20a30 30 0 0 0-21-8h0a30 30 0 0 0-21 8l-20 20a149 149 0 0 1-105 44z" horiz-adv-x="1000" />

<glyph glyph-name="50" unicode="&#xe831;" d="M500-35a385 385 0 1 0 385 385 386 386 0 0 0-385-385z m0 707a322 322 0 1 1 322-322 322 322 0 0 1-322 322z m22-288c-44 15-58 24-58 37s13 24 44 24a144 144 0 0 0 64-14 14 14 0 0 1 19 7l14 29a15 15 0 0 1-7 20 177 177 0 0 1-55 15l-9 1v29a15 15 0 0 1-14 15h-35a15 15 0 0 1-14-15v-32l-8-2c-48-12-76-43-76-82 0-51 51-75 101-90 47-15 53-29 53-39 0-17-22-29-51-29a163 163 0 0 0-73 17 14 14 0 0 1-7 2 16 16 0 0 1-5-1 15 15 0 0 1-8-8l-14-30a14 14 0 0 1 6-18 186 186 0 0 1 69-20l9-1v-31a15 15 0 0 1 14-14h35a15 15 0 0 1 15 14v34l7 1c59 15 80 56 80 86 0 57-48 80-96 95z" horiz-adv-x="1000" />

<glyph glyph-name="51" unicode="&#xe832;" d="M393 304a35 35 0 1 1-35 35 35 35 0 0 1 35-35z m208 0a35 35 0 1 1-35 35 35 35 0 0 1 35-35z m-101 26a15 15 0 1 1-15 15 15 15 0 0 1 15-15z m-98 195h-24a60 60 0 0 0-29 7 60 60 0 0 1-30 8h-27a54 54 0 0 1-42-20 133 133 0 0 1-24-44l-23-73a360 360 0 0 1-13-57l-14-95a90 90 0 0 1 22-73 53 53 0 0 1 65-12 120 120 0 0 1 52 58l29 65a8 8 0 0 0 11 4l16-9a55 55 0 0 1 49 0l22 11a8 8 0 0 0 4 1h109a8 8 0 0 0 3-1l23-11a55 55 0 0 1 48 0l17 9a8 8 0 0 0 10-4l29-65a120 120 0 0 1 53-58 52 52 0 0 1 63 11 91 91 0 0 1 23 74l-14 95a360 360 0 0 1-13 57l-24 74a133 133 0 0 1-23 43 54 54 0 0 1-41 20h-28a60 60 0 0 1-30-8 60 60 0 0 0-29-7h-32m-8 0h-172m153-277l-16 8h-94l-16-8a95 95 0 0 0-70-5l-15-35a160 160 0 0 0-70-77 92 92 0 0 0-113 20 131 131 0 0 0-32 107l13 93a400 400 0 0 0 15 64l23 74a173 173 0 0 0 31 57 94 94 0 0 0 73 34h27a100 100 0 0 0 49-13 20 20 0 0 1 10-2h244a20 20 0 0 1 10 2 100 100 0 0 0 49 13h27a94 94 0 0 0 73-34 173 173 0 0 0 31-57l23-74a400 400 0 0 0 15-64l14-94a130 130 0 0 0-32-106 92 92 0 0 0-113-20 160 160 0 0 0-70 77l-16 35a95 95 0 0 0-70 5z" horiz-adv-x="1000" />
</font>
</defs>
</svg>
